<?xml version="1.0" encoding="utf-8"?>
<!-- Generator: Adobe Illustrator 25.4.8, SVG Export Plug-In . SVG Version: 6.00 Build 0)  -->
<svg version="1.1" id="Layer_1" xmlns="http://www.w3.org/2000/svg" xmlns:xlink="http://www.w3.org/1999/xlink" x="0px" y="0px"
	 viewBox="0 0 166.6 166.6" style="enable-background:new 0 0 166.6 166.6;" xml:space="preserve">
<style type="text/css">
	.st0{clip-path:url(#SVGID_00000171701743013439377400000012662070117785076114_);}
	.st1{fill:#393431;}
	.st2{fill:#FF9C6A;}
	.st3{fill:#E86E2C;}
	.st4{fill:#E86D2C;}
	.st5{fill:#FFBE51;}
	.st6{fill:#FC8754;}
	.st7{fill:#DD9F45;}
	.st8{fill:url(#SVGID_00000001664522077009305190000015931209963136894368_);}
	.st9{fill:url(#SVGID_00000125601536591159727010000007657667890998568067_);}
	.st10{fill:url(#SVGID_00000042698461020175284680000014165321361344327571_);}
	.st11{fill:url(#SVGID_00000132783590775460395180000000059549895505836173_);}
	.st12{fill:url(#SVGID_00000173136448629794894540000006968722947499309206_);}
	.st13{fill:url(#SVGID_00000034062452880789741110000006645304108025793160_);}
	.st14{opacity:0.67;}
	.st15{fill:#FF6F8B;}
	.st16{fill:#FF688B;}
	.st17{fill:#A90000;}
	.st18{fill:#FFFFFF;}
</style>
<g>
	<defs>
		<circle id="SVGID_1_" cx="83.3" cy="83.3" r="83.3"/>
	</defs>
	<clipPath id="SVGID_00000111189976233280987010000004947715260715552955_">
		<use xlink:href="#SVGID_1_"  style="overflow:visible;"/>
	</clipPath>
	<g style="clip-path:url(#SVGID_00000111189976233280987010000004947715260715552955_);">
		<g>
			<path class="st1" d="M160,0.6c9.7,11.6,21,31.4,23,54c2.3,26.7-6.7,45.5,21.2,71.3c27.9,25.8,35,71,7.4,95.9
				c-27.6,24.9-85.8,26.3-85.8,26.3l-84.7-26.3L34.7-44.7L160,0.6z"/>
			<path class="st2" d="M61.4-66.5c43.2,1.1,80.7,32.1,87.6,74.8c0.2,1.3,0.4,2.7,0.6,4.1c3.7,25.9,5.3,30.7,9.7,39.4
				c7.4,14.8,4.6,33.1,0.6,50.3c-8.8,37.4-23.2,55.4-27.7,56.5c-38.2,9.4-92.3-14-92.3-14S28,127.1,20.1,92
				C12.2,56.9,9.4,37.3,9.4,37.3s5.1-103.9,29.5-104C45.8-66.8,53.6-66.7,61.4-66.5z"/>
			<path class="st2" d="M170.7,225.6c0,0-44.4-0.1-53.1-23.1c-8.7-23-0.6-49.5-0.6-49.5l-81.2-44.2c0,0,7,73.5-17.3,95.1
				c-14.7,13.1-37.9,27.1-37.9,27.1L49,329.2L198.5,292L170.7,225.6z"/>
			<path class="st3" d="M130.4,89.1c0.5,0,1-0.2,1.3-0.7c0.7-1.2,1.8-1.9,2.9-2.7c1.1-0.8,2.2-1.6,2.9-2.8c3.5-6,2.3-12-3.2-16
				c-4.8-3.5-11.5-18.2-8.2-30.1c0.2-0.8-0.2-1.6-1-1.8c-0.8-0.2-1.6,0.2-1.8,1c-3.5,12.6,3.3,28.9,9.4,33.3c4.2,3,5.1,7.4,2.4,12
				c-0.4,0.7-1.2,1.3-2.1,1.9c-1.2,0.9-2.6,1.9-3.6,3.6c-0.4,0.7-0.2,1.6,0.5,2.1C129.8,89.1,130.1,89.1,130.4,89.1z"/>
			<path class="st3" d="M117.8,87.9c0.4,0,0.8-0.2,1.1-0.5c0.6-0.6,0.6-1.5,0-2.1c-1.8-1.7-6.4-4.2-11.4-1.2c-0.7,0.4-1,1.3-0.5,2
				c0.4,0.7,1.3,1,2,0.5c4.3-2.5,7.7,0.6,7.8,0.8C117,87.8,117.4,87.9,117.8,87.9z"/>
			<path class="st4" d="M114.8,160.5c0,0-0.6,31.6,1.2,33.7c0,0-20.7-24-42.8-39.3l-5.3-5C87.6,159.2,100.4,159.1,114.8,160.5z"/>
			<path class="st3" d="M100.3,51.4c0.1,0,0.1,0,0.2,0c0.8-0.1,1.4-0.8,1.3-1.7c-0.5-4.4-5.1-7.9-5.3-8c-0.7-0.5-1.6-0.4-2.1,0.3
				c-0.5,0.7-0.4,1.6,0.3,2.1l0,0c1,0.8,3.8,3.4,4.1,6C98.9,50.9,99.5,51.4,100.3,51.4z"/>
			<path class="st5" d="M158.6,202.3c0,0,3.6,85.2-48.1,99.7C58.9,316.5,9.4,211.3,9.4,211.3S-106,258.2-106.5,297
				c-0.5,38.8,9,83,11.8,82.4c2.9-0.7,132.5-21.8,132.5-21.8l204.1,8.7c0,0,5.6-36.4,17.9-27.6c33.8,24.3,100.7,70.3,126.8,72.6
				c0,0,2-169.4,0-176c-2-6.6-29.7,1.8-44.3-5.3c-14.6-7.1-86.5-26.1-102.7-32.5C223.4,191,158.6,202.3,158.6,202.3z"/>
			<g>
				<path class="st6" d="M140.9,104.9c0,0-7.8-4.8-11.1-4.4c-3.3,0.4-3.5,3.3-7.8,3.2c-4.3-0.1-7.1-3.3-10.9-1.6
					c-3.7,1.7-11.5,7.4-11.5,7.4S117.8,117.9,140.9,104.9z"/>
				<path class="st6" d="M142.1,104.6c0,0-1.2,6-3.6,9.3c-1.6,2.2-7.7,9.2-13.1,9.2c-14.9-0.1-12.8,2-19.4-1
					c-3.3-1.5-13.1-12.8-13.1-12.8S143.2,103.9,142.1,104.6z"/>
			</g>
			<path class="st1" d="M55.2-16.9c0,0,1.2,69.8-35.6,71.6l-7.5-1.4c0,0,28.9-8.7,28.9-45.7s5-58.1,5-58.1l23.5,2.4L55.2-16.9z"/>
			<path class="st1" d="M62.5-44.7c0,0,57.8,46.8,103.1,57.1L161.5,1c0,0-2.4-67.3-71.9-78.3c-69.5-11-53.2,18.8-53.2,18.8L54-48.2
				L62.5-44.7z"/>
			<path class="st1" d="M41.6-14c0,0-31.6,46.1-27.7,76.9c3.9,30.8,31.6,51,26.9,116.3c-3,42.2,76.7,119.6,67.3,153.2
				C98.8,366,49.7,414.9,69.5,444c0,0-31.1-28.7-26.5-52c0,0,6.5,64-20.9,87.8c0,0,8.3-45.6,3.7-65.4c0,0-26.7,59.1-13.7,85.7
				c0,0-33.6-37.5-25.1-91c8.4-53.5,20-91.9,0-118.9c-20-27.1-24.7-37.7-27.6-54.8c-3-17.2,7.6-35.7,9.6-55.5
				c2-19.8-15.6-74.2-14-93.3c1.6-19.2,6.9-20.2,8.5-76.8c1.4-53.9,57.4-89.8,89.8-78.9s32.5,13.2,32.5,13.2L54-43.6L41.6-14z"/>
			<path class="st2" d="M33.9,81.9c0,0-3.5-28.3-32.1-22.7C-26.8,64.7-7,111,20.5,116.3C47.9,121.7,33.9,81.9,33.9,81.9z"/>
			<path class="st3" d="M16.1,96.3c5.1,3.1,9.7-2.3,6.3-7.3C17.4,81.8,11,75.5,4.9,79.3C-2,83.5,6.9,90.7,16.1,96.3z"/>
			<path class="st1" d="M-25.6,255.8c0,0-29.6,26.4-19.5,65.4s10.1,68.7-5.4,85.2c0,0,39-25.1,37.5-59.5
				c-1.5-34.4,34.5-57.3,34.5-57.3L-25.6,255.8z"/>
			<path class="st1" d="M128.2,14.7c0,0-50.1-13.5-61.7-59.5h15.1C81.7-44.7,84.9-17.9,128.2,14.7z"/>
			<path class="st7" d="M250.2,311.2c1.3,0,2.4-0.9,2.6-2.2c4.9-34.9-3.9-62.4-12.1-79.2c-8.9-18.3-18.9-28.2-19.4-28.6
				c-1-1-2.7-1-3.7,0c-1,1-1,2.7,0,3.7l0,0c0.1,0.1,9.9,9.9,18.4,27.4c7.9,16.2,16.2,42.5,11.6,76c-0.2,1.4,0.8,2.7,2.2,2.9
				C249.9,311.2,250.1,311.2,250.2,311.2z"/>
		</g>
		<g>
			<g>
				
					<linearGradient id="SVGID_00000054225962489763137660000008668064582354656945_" gradientUnits="userSpaceOnUse" x1="111.2548" y1="-82.9381" x2="174.01" y2="-82.9381">
					<stop  offset="0" style="stop-color:#E2345A"/>
					<stop  offset="1" style="stop-color:#E55E85"/>
				</linearGradient>
				<path style="fill:url(#SVGID_00000054225962489763137660000008668064582354656945_);" d="M113.2-55.4c-0.5,0-1.1-0.2-1.4-0.7
					c-0.7-0.8-0.6-2,0.2-2.7l59-51.3c0.8-0.7,2-0.6,2.7,0.2c0.7,0.8,0.6,2-0.2,2.7l-59,51.3C114-55.5,113.6-55.4,113.2-55.4z"/>
			</g>
			<g>
				
					<linearGradient id="SVGID_00000150080661771009773670000007970992579676249992_" gradientUnits="userSpaceOnUse" x1="-3.1393" y1="-124.4543" x2="64.6378" y2="-124.4543" gradientTransform="matrix(0.7001 -0.714 0.714 0.7001 195.8915 22.0384)">
					<stop  offset="0" style="stop-color:#E2345A"/>
					<stop  offset="1" style="stop-color:#E55E85"/>
				</linearGradient>
				<path style="fill:url(#SVGID_00000150080661771009773670000007970992579676249992_);" d="M126.1-42.9c0,0-0.1,0-0.1,0
					c-1.1-0.1-2-1-1.9-2.2l5-84.3c0.1-1.1,1-2,2.2-1.9c1.1,0.1,2,1,1.9,2.2l-5,84.3C128.1-43.7,127.2-42.9,126.1-42.9z"/>
			</g>
			
				<linearGradient id="SVGID_00000056403356176156191000000015823305443182955422_" gradientUnits="userSpaceOnUse" x1="127.533" y1="-131.2013" x2="135.7481" y2="-131.2013">
				<stop  offset="0" style="stop-color:#E2345A"/>
				<stop  offset="1" style="stop-color:#E55E85"/>
			</linearGradient>
			<circle style="fill:url(#SVGID_00000056403356176156191000000015823305443182955422_);" cx="131.6" cy="-131.2" r="4.1"/>
			
				<linearGradient id="SVGID_00000132780417746980674430000009436597234671585435_" gradientUnits="userSpaceOnUse" x1="168.6082" y1="-108.6102" x2="176.823" y2="-108.6102">
				<stop  offset="0" style="stop-color:#E2345A"/>
				<stop  offset="1" style="stop-color:#E55E85"/>
			</linearGradient>
			<path style="fill:url(#SVGID_00000132780417746980674430000009436597234671585435_);" d="M176.8-108.6c0,2.3-1.8,4.1-4.1,4.1
				c-2.3,0-4.1-1.8-4.1-4.1c0-2.3,1.8-4.1,4.1-4.1C175-112.7,176.8-110.9,176.8-108.6z"/>
		</g>
		
			<linearGradient id="SVGID_00000137822603488156249440000009781406763117727663_" gradientUnits="userSpaceOnUse" x1="218.2613" y1="-217.1972" x2="207.819" y2="-201.7271">
			<stop  offset="0" style="stop-color:#8E4997"/>
			<stop  offset="1" style="stop-color:#712E6F"/>
		</linearGradient>
		<path style="fill:url(#SVGID_00000137822603488156249440000009781406763117727663_);" d="M165-74.8c-13.2,0.1-28-0.2-42.3,0.4
			c-24.6,1-34.7-3.1-38.3-8.1c5.9-6.4,17.3-10.9,38.1-9.9C147.4-91.3,161.5-84.5,165-74.8z"/>
		
			<linearGradient id="SVGID_00000154390196439759009640000006773496984641460397_" gradientUnits="userSpaceOnUse" x1="268.0193" y1="479.6177" x2="268.0193" y2="536.9225">
			<stop  offset="0" style="stop-color:#DB2152"/>
			<stop  offset="1" style="stop-color:#DE5173"/>
		</linearGradient>
		<path style="fill:url(#SVGID_00000154390196439759009640000006773496984641460397_);" d="M436.8,343.9h-220
			c0,0-26.9-2.8-55.8-12.6c-15.2-5.2-46.9-19.1-64.6-49.2L218,194.6c0,0,4.5,80.8,15.7,112.2c1.2,3.3,4.2,5.2,4.2,5.2
			c4.3,4.3,14,11.5,45.2,10.5c20.9-0.7,31.4-1,43.3-6.2c36.2-16,50.1-60.7,53.3-59.1c1,0.5-0.6,4.9-2.3,11.4
			c-4.3,16-10.8,40.4-1.9,48.3c6.1,5.5,18.2,1.9,24.4-1.1c4.9-2.4,12.9-7.9,22.4-31.4c4.7-11.5,10.5-29.2,12.7-52.5
			c1.9,13,3.4,27.2,4.1,42.4C440.3,300.2,439.1,323.7,436.8,343.9z"/>
		<g class="st14">
			<g>
				<circle class="st15" cx="77.4" cy="77.3" r="4.6"/>
				<path class="st16" d="M74.5,74.4c-1.4,1.4-1.4,3.8,0,5.2c1.4,1.4,3.8,1.4,5.2,0c1.4-1.4,1.4-3.8,0-5.2
					C78.3,73,75.9,73,74.5,74.4z"/>
				<circle class="st17" cx="77.2" cy="77.1" r="2.5"/>
				
					<ellipse transform="matrix(0.7071 -0.7071 0.7071 0.7071 -31.6201 78.0027)" class="st18" cx="78.3" cy="77.2" rx="0.7" ry="0.6"/>
			</g>
			<g>
				<path class="st15" d="M92.1,76.1c-1.2,1.2-1.2,3.2,0,4.4c1.2,1.2,3.2,1.2,4.4,0c1.2-1.2,1.2-3.2,0-4.4
					C95.3,74.9,93.3,74.9,92.1,76.1z"/>
				<circle class="st16" cx="94.2" cy="78.2" r="2.5"/>
				<path class="st17" d="M93,77c-0.7,0.7-0.7,1.7,0,2.4c0.7,0.7,1.7,0.7,2.4,0c0.7-0.7,0.7-1.7,0-2.4C94.7,76.4,93.7,76.4,93,77z"
					/>
				<ellipse transform="matrix(0.7071 -0.7071 0.7071 0.7071 -27.507 90.0972)" class="st18" cx="95" cy="78.3" rx="0.5" ry="0.4"/>
			</g>
			<g>
				<circle class="st15" cx="66.5" cy="114.1" r="3.1"/>
				<circle class="st16" cx="66.3" cy="114" r="2.5"/>
				<circle class="st17" cx="66.4" cy="114" r="1.7"/>
				<path class="st18" d="M66.9,113.8c-0.2,0.2-0.2,0.5,0,0.6c0.2,0.2,0.5,0.2,0.6,0c0.2-0.2,0.2-0.5,0-0.6
					C67.3,113.6,67,113.6,66.9,113.8z"/>
			</g>
			<g>
				<path class="st15" d="M48,83.7c-1.8,1.8-1.8,4.8,0,6.6c1.8,1.8,4.8,1.8,6.6,0c1.8-1.8,1.8-4.8,0-6.6
					C52.8,81.8,49.8,81.8,48,83.7z"/>
				<path class="st16" d="M48.4,84.1c-1.4,1.4-1.4,3.8,0,5.2c1.4,1.4,3.8,1.4,5.2,0s1.4-3.8,0-5.2S49.9,82.6,48.4,84.1z"/>
				<path class="st17" d="M49.3,85c-1,1-1,2.6,0,3.5c1,1,2.6,1,3.5,0c1-1,1-2.6,0-3.5C51.9,84,50.3,84,49.3,85z"/>
				<path class="st18" d="M51.8,86.4c-0.3,0.3-0.3,0.7,0,0.9c0.3,0.3,0.7,0.2,0.9,0c0.3-0.3,0.3-0.7,0-0.9
					C52.5,86.1,52.1,86.1,51.8,86.4z"/>
			</g>
			<g>
				<path class="st15" d="M49.1,65.7c-0.9,0.9-0.9,2.5,0,3.4c0.9,0.9,2.5,0.9,3.4,0s0.9-2.5,0-3.4C51.6,64.7,50.1,64.7,49.1,65.7z"
					/>
				<path class="st16" d="M49.4,65.9c-0.8,0.8-0.8,2,0,2.7c0.8,0.8,2,0.8,2.7,0c0.8-0.8,0.8-2,0-2.7C51.3,65.1,50.1,65.1,49.4,65.9z
					"/>
				<path class="st17" d="M49.8,66.4c-0.5,0.5-0.5,1.3,0,1.8c0.5,0.5,1.3,0.5,1.8,0c0.5-0.5,0.5-1.3,0-1.8
					C51.2,65.9,50.3,65.9,49.8,66.4z"/>
				<path class="st18" d="M51.1,67.1c-0.1,0.1-0.1,0.4,0,0.5c0.1,0.1,0.4,0.1,0.5,0c0.1-0.1,0.1-0.4,0-0.5
					C51.5,67,51.3,67,51.1,67.1z"/>
			</g>
			<g>
				<path class="st15" d="M61.2,71.8c-1.3,1.3-1.3,3.4,0,4.7c1.3,1.3,3.4,1.3,4.7,0c1.3-1.3,1.3-3.4,0-4.7
					C64.6,70.5,62.5,70.5,61.2,71.8z"/>
				<path class="st16" d="M61.5,72.1c-1,1-1,2.7,0,3.7c1,1,2.7,1,3.7,0c1-1,1-2.7,0-3.7C64.2,71.1,62.5,71.1,61.5,72.1z"/>
				<path class="st17" d="M62.2,72.8c-0.7,0.7-0.7,1.8,0,2.5c0.7,0.7,1.8,0.7,2.5,0c0.7-0.7,0.7-1.8,0-2.5
					C64,72.1,62.9,72.1,62.2,72.8z"/>
				<path class="st18" d="M63.9,73.8c-0.2,0.2-0.2,0.5,0,0.7c0.2,0.2,0.5,0.2,0.7,0s0.2-0.5,0-0.7C64.4,73.6,64.1,73.6,63.9,73.8z"
					/>
			</g>
			<g>
				<circle class="st15" cx="96.9" cy="96" r="2.8"/>
				<path class="st16" d="M95.2,94.3c-0.9,0.9-0.9,2.3,0,3.1c0.9,0.9,2.3,0.9,3.1,0c0.9-0.9,0.9-2.3,0-3.1
					C97.5,93.4,96.1,93.4,95.2,94.3z"/>
				<path class="st17" d="M95.8,94.8c-0.6,0.6-0.6,1.5,0,2.1c0.6,0.6,1.5,0.6,2.1,0c0.6-0.6,0.6-1.5,0-2.1
					C97.3,94.3,96.3,94.3,95.8,94.8z"/>
				<path class="st18" d="M97.2,95.7c-0.2,0.2-0.2,0.4,0,0.6c0.1,0.1,0.4,0.1,0.6,0c0.2-0.2,0.2-0.4,0-0.6
					C97.6,95.5,97.4,95.5,97.2,95.7z"/>
			</g>
			<g>
				<circle class="st15" cx="50.3" cy="104.4" r="2.8"/>
				<path class="st16" d="M48.6,102.7c-0.9,0.9-0.9,2.3,0,3.1c0.9,0.9,2.3,0.9,3.1,0c0.9-0.9,0.9-2.3,0-3.1
					C50.8,101.9,49.4,101.9,48.6,102.7z"/>
				<circle class="st17" cx="50.2" cy="104.3" r="1.5"/>
				<path class="st18" d="M50.6,104.1c-0.2,0.2-0.2,0.4,0,0.6c0.1,0.1,0.4,0.1,0.6,0s0.2-0.4,0-0.6C51,103.9,50.8,104,50.6,104.1z"
					/>
			</g>
			<g>
				<circle class="st15" cx="81.9" cy="108.7" r="2.4"/>
				<path class="st16" d="M80.5,107.2c-0.7,0.7-0.7,1.9,0,2.7c0.7,0.7,1.9,0.7,2.7,0c0.7-0.7,0.7-1.9,0-2.7
					C82.4,106.5,81.2,106.5,80.5,107.2z"/>
				<path class="st17" d="M81,107.7c-0.5,0.5-0.5,1.3,0,1.8c0.5,0.5,1.3,0.5,1.8,0c0.5-0.5,0.5-1.3,0-1.8
					C82.3,107.2,81.4,107.2,81,107.7z"/>
				<path class="st18" d="M82.2,108.4c-0.1,0.1-0.1,0.4,0,0.5c0.1,0.1,0.3,0.1,0.5,0c0.1-0.1,0.1-0.4,0-0.5
					C82.6,108.3,82.4,108.3,82.2,108.4z"/>
			</g>
			<g>
				<path class="st15" d="M74.1,59.4c-1.2,1.2-1.2,3.2,0,4.4c1.2,1.2,3.2,1.2,4.4,0c1.2-1.2,1.2-3.2,0-4.4
					C77.3,58.2,75.3,58.2,74.1,59.4z"/>
				<circle class="st16" cx="76.1" cy="61.4" r="2.5"/>
				<path class="st17" d="M75,60.3c-0.7,0.7-0.7,1.7,0,2.4c0.7,0.7,1.7,0.7,2.4,0c0.7-0.7,0.7-1.7,0-2.4
					C76.7,59.6,75.6,59.6,75,60.3z"/>
				<path class="st18" d="M76.7,61.2c-0.2,0.2-0.2,0.5,0,0.6c0.2,0.2,0.5,0.2,0.6,0c0.2-0.2,0.2-0.5,0-0.6
					C77.1,61,76.8,61,76.7,61.2z"/>
			</g>
			<g>
				<path class="st15" d="M80.6,89.5c-1.6,1.6-1.6,4.2,0,5.7c1.6,1.6,4.2,1.6,5.7,0c1.6-1.6,1.6-4.2,0-5.7
					C84.7,87.9,82.2,87.9,80.6,89.5z"/>
				<path class="st16" d="M81,89.9c-1.3,1.3-1.3,3.3,0,4.6c1.3,1.3,3.3,1.3,4.6,0c1.3-1.3,1.3-3.3,0-4.6
					C84.3,88.6,82.2,88.6,81,89.9z"/>
				<path class="st17" d="M81.8,90.7c-0.9,0.9-0.9,2.2,0,3.1c0.9,0.9,2.2,0.9,3.1,0c0.9-0.9,0.9-2.2,0-3.1
					C84,89.8,82.6,89.8,81.8,90.7z"/>
				<path class="st18" d="M83.9,91.9c-0.2,0.2-0.2,0.6,0,0.8c0.2,0.2,0.6,0.2,0.8,0c0.2-0.2,0.2-0.6,0-0.8
					C84.5,91.7,84.2,91.7,83.9,91.9z"/>
			</g>
			<g>
				<path class="st15" d="M63.9,93.1c-2.2,2.2-2.2,5.7,0,7.9c2.2,2.2,5.7,2.2,7.9,0c2.2-2.2,2.2-5.7,0-7.9
					C69.6,90.9,66.1,90.9,63.9,93.1z"/>
				<path class="st16" d="M64.4,93.6c-1.7,1.7-1.7,4.5,0,6.3c1.7,1.7,4.5,1.7,6.3,0c1.7-1.7,1.7-4.5,0-6.3
					C69,91.9,66.1,91.9,64.4,93.6z"/>
				<circle class="st17" cx="67.6" cy="96.8" r="3"/>
				<path class="st18" d="M68.5,96.4c-0.3,0.3-0.3,0.8,0,1.1c0.3,0.3,0.8,0.3,1.1,0c0.3-0.3,0.3-0.8,0-1.1
					C69.3,96.1,68.8,96.1,68.5,96.4z"/>
			</g>
		</g>
	</g>
</g>
</svg>
