<?xml version="1.0" encoding="utf-8"?>
<!-- Generator: Adobe Illustrator 25.4.8, SVG Export Plug-In . SVG Version: 6.00 Build 0)  -->
<svg version="1.1" id="Layer_1" xmlns="http://www.w3.org/2000/svg" xmlns:xlink="http://www.w3.org/1999/xlink" x="0px" y="0px"
	 viewBox="0 0 166.6 166.6" style="enable-background:new 0 0 166.6 166.6;" xml:space="preserve">
<style type="text/css">
	.st0{clip-path:url(#SVGID_00000160885638309622813750000010138582536920725125_);}
	.st1{opacity:0.12;fill:url(#SVGID_00000027577854324274575080000010029917865039760031_);}
	.st2{fill:#263238;}
	.st3{fill:#FF735D;}
	.st4{fill:#D69056;}
	.st5{fill:#B4463F;}
	.st6{fill:#AE6D39;}
	.st7{fill:#375A64;}
	.st8{fill:url(#SVGID_00000135650589892859548640000002886899154600135810_);}
	.st9{fill:#FFFFFF;}
</style>
<g>
	<defs>
		<ellipse id="SVGID_1_" transform="matrix(0.7071 -0.7071 0.7071 0.7071 -34.504 83.3)" cx="83.3" cy="83.3" rx="83.3" ry="83.3"/>
	</defs>
	<clipPath id="SVGID_00000083066109986418387730000014822907845506268581_">
		<use xlink:href="#SVGID_1_"  style="overflow:visible;"/>
	</clipPath>
	<g style="clip-path:url(#SVGID_00000083066109986418387730000014822907845506268581_);">
		
			<linearGradient id="SVGID_00000170965869356149346660000004921023380749511821_" gradientUnits="userSpaceOnUse" x1="-29.2001" y1="71.6541" x2="184.8159" y2="71.6541">
			<stop  offset="0" style="stop-color:#5F74B1"/>
			<stop  offset="0.2466" style="stop-color:#7A90D2"/>
			<stop  offset="0.4903" style="stop-color:#8FA6EB"/>
			<stop  offset="0.7125" style="stop-color:#9CB3FA"/>
			<stop  offset="0.8936" style="stop-color:#A0B7FF"/>
		</linearGradient>
		
			<rect x="-29.2" y="-39.7" style="opacity:0.12;fill:url(#SVGID_00000170965869356149346660000004921023380749511821_);" width="214" height="222.6"/>
		<g>
			<g>
				<g>
					<g>
						<g>
							<path class="st2" d="M78.7-6.7c-1.3-1.9-3.5-3.1-5.8-3.2c-0.9,0-2,0.1-2.7-0.5c-0.5-0.4-0.7-1.1-1.1-1.7
								c-1.1-1.8-3.7-2.3-5.4-1c-0.4,0.3-0.7,0.7-1.2,0.9c-1.9,0.7-3.4-3-5.3-2.3c0.7,0.5,1.4,1.1,1.7,1.9c0.3,0.8,0.1,1.9-0.6,2.3
								c-1.9,1.2-4.1-2.5-6.2-1.6c-1.1,0.5-1.5,2.2-2.7,2.3c-0.5,0-0.9-0.2-1.4-0.3c-1.5-0.4-3.3,0.6-3.7,2.1
								c-0.3,1.3,0.1,3-1.1,3.8c-0.7,0.5-1.6,0.2-2.4,0c-0.2,1.2-0.1,2.5,0.3,3.6c-2.4,0.9-3.6,3.9-2.6,6.2
								c-1.2,0.7-2.4,1.4-3.2,2.4c-0.8,1.1-1.2,2.6-0.6,3.8c0.1,0.3,0.3,0.5,0.4,0.8c0.1,0.3,0,0.7-0.1,1c-0.4,1.2-1.2,2.3-1.3,3.6
								c-0.2,1.3,0.6,2.8,1.8,2.9c0.3,0,0.6,0,0.9,0.2c0.2,0.2,0.2,0.4,0.2,0.6c0,0.9-0.3,1.8-0.6,2.7c-0.3,0.9-0.4,1.9,0,2.7
								c0.4,0.8,1.6,1.3,2.3,0.6c-0.6,1.4-1.2,2.7-1.7,4.1c-0.3,0.8-0.7,1.8-0.2,2.5c0.7,0.9,2.2,0.5,3-0.3c0.8-0.9,1.1-2,1.9-2.9
								c0.3-0.3,0.7-0.6,0.9-1c0.2-0.3,0.3-0.7,0.6-0.9c0.6-0.4,1.4,0.5,1.2,1.3c-0.2,0.7-0.9,1.2-1.4,1.7c-0.6,0.5-1.1,1.3-0.8,1.9
								c0.1,0.3,0.4,0.6,0.6,0.9c0.4,1.2-1.3,2-1.7,3.2c-0.3,0.9,0.3,1.8,0.8,2.5c0.7,0.9,2.1,1.8,2.7,0.9c0.2-0.3,0.2-0.7,0.4-1.1
								c0.2-0.4,0.6-0.6,1-0.9c0.9-0.6,1.7-1.5,2.1-2.6c-1.1,1-2.3,2.4-1.9,3.8c0.2,0.6,0.7,1.1,1,1.6c0.7,1,1.1,2.2,1.8,3.3
								c0.7,1,2,1.8,3.1,1.4c-0.6,1.1-0.2,2.6,0.7,3.4c1,0.8,2.5,0.8,3.4,0.1c0.3-0.2,0.5-0.5,0.9-0.5c0.4-0.1,0.7,0.1,1.1,0.2
								c2.1,0.7,4.5,0.1,6.1-1.4c-0.3-0.2-0.7-0.4-1-0.6c2.2,0.1,4.5,0.1,6.4-0.9c2-0.9,3.5-3.2,2.9-5.3c-0.3-0.9-0.9-1.9-0.4-2.7
								c0.3-0.6,1-0.7,1.7-0.9c2.7-0.5,5.4-1,8-1.5c1.3-0.2,2.7-0.5,3.7-1.4c1-0.9,1.3-2.6,0.3-3.5c0.8-1.1,1.9-1.9,3.1-2.5
								c1.4-0.6,2.9-0.7,4.3-1.2c1.4-0.5,2.8-1.6,2.9-3.1c0.1-1.5-1.7-2.9-2.9-2c0.5-2.2,4.5-1.7,5.2-3.9c0.6-1.7-1.6-3-2.6-4.6
								c0.3-0.6,1-0.9,1.4-1.5c0.7-1.2-0.4-2.7-1.6-3.5c-1.2-0.8-2.6-1.6-2.7-3.1c-0.1-1.4,1.3-2.8,0.8-4.2c-0.3-0.7-1.3-1.1-2-0.8
								c-0.6-2.7-5.7-1.5-6.8-4.1c-0.1-0.2-0.1-0.4-0.1-0.6C84.9-3.7,85-3.9,85.1-4c0.7-0.6,1.6-0.9,2.4-1.3
								c0.8-0.4,1.5-1.3,1.3-2.2c-0.2-0.9-1.8-1.1-1.9-0.2c-0.8-1-2.5-0.8-3.1,0.3c-0.5-0.8-1.7-1-2.6-0.7c-0.9,0.4-1.6,1.1-2.2,1.9
								"/>
						</g>
					</g>
					<g>
						<g>
							<path class="st3" d="M62.2,19.8c1.4-3.5,4.7-6,8.1-7.7c1.4-0.7,3-1.4,4.5-1.3c1.6,0,3.3,0.9,3.8,2.4l-0.7,2.6
								c-0.4,4.2-4.3,7.2-6.5,10.8c-1,1.6-1.9,3.5-3.7,3.9c-0.9,0.2-1.9-0.1-2.8-0.5C61.7,28,60.8,23.3,62.2,19.8z"/>
						</g>
					</g>
					<g>
						<g>
							<path class="st2" d="M58.4,39c-1.8-3.6-0.5-8.4,2.8-10.5c-1.2-2.2,0-5.1,1.9-6.7c1.9-1.6,4.4-2.2,6.9-2.8
								c2.3-5.4,9.4-8.1,14.7-5.7c3.7-3.7,10.1-3.2,14.8-0.8c1.1,0.6,2.3,1.3,3.5,1.5c0.9,0.2,1.9,0.1,2.8,0.2
								c5.2,0.3,9.5,4.8,10.6,9.9c0.2,0.8,0.3,1.7,0.6,2.4c0.5,1,1.4,1.7,2.1,2.5c1.6,1.8,2.3,4.2,1.9,6.6c-0.3,2-1.3,3.9-0.8,5.9
								c0.2,1,0.8,1.8,1,2.8c0.4,2.9-3.1,5.1-3.1,8c0,0.6,0.2,1.2,0.2,1.8c0.1,1.2-0.3,2.4-1,3.4c-0.6,0.8-1.4,1.4-1.6,2.3
								c-0.2,0.7,0,1.4,0,2.1c0,1.7-4.8,7.5-6.5,8.1l-43.2-8c-3.1-1.3-5.2-4.8-4.9-8.2c0.1-0.6,0.2-1.2-0.1-1.7
								c-0.2-0.4-0.7-0.7-1-1c-2.5-2-2.1-5.9-1.2-9c0.1-0.4,0.3-0.9,0.2-1.3C59,40.1,58.7,39.5,58.4,39z"/>
						</g>
					</g>
					<g>
						<g>
							<g>
								<path class="st4" d="M70.7,41.4c1.4-7.7,7.8-15.5,16.2-17.8c5.2-1.4,9-0.7,11.5-0.5c5.8,0.4,9.8,4.1,9.8,4.1
									c2.3,1,9.4,10.7,8.2,19.4c-1.4,9.7-3.4,21.5-6,28.5c-5.2,13.9-16.7,13.5-16.7,13.5c0,0-1.1,10.2-1.1,10.2l-30.9-6.7
									L70.7,41.4z"/>
							</g>
						</g>
						<g>
							<path class="st5" d="M89.2,68.6c0.2-0.7,0.7-1.4,1.3-1.7c1.2-0.8,2.8-0.6,3.8,0.3c1,1,1.4,2.7,1,4.2l0,0
								c-0.8,0.8-1.9,1.2-3,1.2c-0.2,0-0.3,0-0.5-0.1c-0.8-0.1-1.6-0.6-2.2-1.3C89.2,70.5,89,69.5,89.2,68.6z"/>
						</g>
						<g>
							<g>
								<g>
									<g>
										<g>
											<g>
												<g>
													<g>
														<path class="st6" d="M111.2,57.9c-0.3,0.2-1.5-1.1-3.5-1.5c-2-0.4-3.6,0.3-3.8,0c-0.1-0.1,0.2-0.5,1-0.8
															c0.7-0.3,1.9-0.6,3.1-0.3c1.2,0.3,2.2,0.9,2.7,1.5C111.2,57.3,111.3,57.8,111.2,57.9z"/>
													</g>
												</g>
											</g>
										</g>
									</g>
								</g>
							</g>
						</g>
						<g>
							<g>
								<g>
									<g>
										<g>
											<g>
												<g>
													<path class="st6" d="M97.1,64.8c0-0.1,1.3-0.1,3.3,0.1c0.5,0.1,1,0,1.2-0.3c0.2-0.3,0.1-0.9,0-1.6
														c-0.2-1.3-0.5-2.7-0.7-4.2c-1-5.9-1.5-10.8-1.3-10.8c0.2,0,1.2,4.7,2.2,10.7c0.2,1.5,0.4,2.8,0.6,4.2
														c0.1,0.6,0.3,1.3-0.1,2c-0.2,0.4-0.6,0.5-1,0.6c-0.3,0-0.6,0-0.9-0.1C98.3,65.2,97.1,64.9,97.1,64.8z"/>
												</g>
											</g>
										</g>
									</g>
								</g>
							</g>
						</g>
						<g>
							<g>
								<g>
									<g>
										<g>
											<g>
												<g>
													<g>
														<path class="st6" d="M84.6,52.5c0.2,0.3,1.8-0.5,3.8-0.2c2,0.3,3.3,1.6,3.6,1.4c0.1-0.1,0-0.6-0.6-1.1
															c-0.6-0.6-1.6-1.2-2.8-1.4c-1.2-0.2-2.4,0.1-3.1,0.5C84.8,52,84.5,52.4,84.6,52.5z"/>
													</g>
												</g>
											</g>
										</g>
									</g>
								</g>
							</g>
						</g>
						<g>
							<g>
								<g>
									<g>
										<g>
											<g>
												<path class="st4" d="M70.2,55.5c0.2-1.1-0.5-3.9-1.5-4.2c-2.7-1-7.9-1.8-9.4,5.3c-2.1,9.8,8.2,9.9,8.3,9.6
													C67.6,66,69.5,59.2,70.2,55.5z"/>
											</g>
										</g>
									</g>
								</g>
							</g>
						</g>
					</g>
					<g>
						<g>
							<g>
								<g>
									<path class="st2" d="M118.5,47.3c-1.7-1.6-2.6-3.6-2-5.9c-1.4,0.1-2.4-1.8-2.9-3.1c-0.5-1.3-1.4-2.1-1-3.4
										c0.1-0.3,0.1-0.6,0.1-0.8c-0.1-0.4-0.6-0.6-0.9-0.8c-2-1.1-3.3-3.2-3.4-5.5c-2.3,0.5-4.7,0.4-7-0.3
										c-1.3,1.3-3.3,1.8-5.1,1.3c-1.8-0.4-3.3-1.8-3.8-3.6c-0.8,1.1-2.3,1.6-3.7,1.7c-1.4,0.1-2.8-0.3-4.1-0.6
										c0,2.8-2.3,5.4-5,5.6c-0.4,0-0.8,0.1-1,0.4c-0.2,0.3-0.1,0.7-0.1,1.1c0.4,2.4-1.7,4.9-4.1,5c1.4,1.6,0.6,4.4-1.4,5.1
										c-0.4,0.1-0.9,0.3-0.9,0.7c0,0.2,0.1,0.3,0.1,0.5c0.5,1.1,1,2.3,0.9,3.6c-0.2,1.2-1.3,2.4-2.5,2.2c0.5,0.7,1,1.5,0.8,2.4
										c-0.2,0.9-1.2,1.5-1.9,1.1c-0.3-0.2-5-2.2-5.2-2.5c-2-4.3,2.3-7.8,3.6-12.4c1.2-4.6,3.8-8.8,7-12.4c1.3-1.5,2.8-2.9,4.5-4
										c1.9-1.3,4.1-2.1,6.2-2.9c2.8-1,5.7-2.1,8.6-2.1c5.6-0.2,10.7,2.9,15.1,6.2c1.7,1.3,3.4,2.6,4.7,4.2c1.6,2,2.5,4.4,3.3,6.8
										c1.1,3.5,1.9,7.1,1.5,10.8"/>
								</g>
							</g>
						</g>
					</g>
					<g>
						<g>
							<g>
								<g>
									<g>
										<path class="st7" d="M57.9,38c0.1,0.4,0.3,0.7,0.5,1.1c0.2,0.3,0.4,0.7,0.5,1c0.1,0.3,0.2,0.7,0.2,1c0,0.3-0.1,0.7-0.2,1
											c-0.4,1.3-0.6,2.6-0.7,3.7c0,1.1,0.1,2.2,0.4,3c0.3,0.8,0.8,1.5,1.2,1.9c0.4,0.4,0.9,0.7,1.1,0.9c0.2,0.2,0.3,0.4,0.3,0.4
											c0,0-0.1-0.2-0.3-0.4c-0.2-0.2-0.6-0.5-1-0.9c-0.4-0.4-0.9-1.1-1.2-1.9c-0.3-0.8-0.4-1.9-0.4-3c0.1-1.1,0.3-2.4,0.7-3.7
											c0.1-0.3,0.2-0.7,0.2-1c0-0.4,0-0.8-0.2-1.1c-0.1-0.4-0.3-0.7-0.5-1c-0.2-0.3-0.3-0.7-0.4-1.1c-0.5-1.5-0.5-3.3,0-5
											c0.5-1.7,1.6-3.4,3.2-4.4l0.1-0.1l-0.1-0.1c-0.5-1-0.6-2.2-0.2-3.3c0.3-1.1,1-2.2,1.9-3c0.9-0.8,2-1.4,3.2-1.9
											c1.2-0.5,2.5-0.8,3.8-1.1l0.1,0l0-0.1c1.1-2.5,3.3-4.5,5.9-5.6c2.6-1.1,5.8-1.2,8.6,0l0.1,0l0.1-0.1
											c0.1-0.1,0.3-0.3,0.4-0.4c1.5-1.3,3.5-2,5.4-2.2c1-0.1,2-0.1,2.9,0.1c1,0.1,1.9,0.3,2.8,0.6c0.9,0.3,1.8,0.6,2.6,1
											c0.8,0.4,1.7,0.9,2.5,1.3c0.4,0.2,0.9,0.3,1.3,0.4c0.5,0.1,0.9,0.1,1.4,0.1c0.5,0,0.9,0,1.3,0c0.4,0,0.9,0.1,1.3,0.2
											c0.9,0.1,1.7,0.4,2.5,0.8c0.8,0.4,1.5,0.8,2.1,1.3c1.3,1,2.4,2.3,3.2,3.6c0.8,1.3,1.3,2.8,1.6,4.2
											c0.1,0.7,0.3,1.4,0.6,2.1c0.3,0.7,0.8,1.2,1.3,1.6c0.5,0.5,0.9,0.9,1.3,1.4c0.4,0.5,0.7,1,0.9,1.6
											c0.5,1.1,0.7,2.2,0.7,3.3c0,1.1-0.3,2-0.5,2.9c-0.2,0.9-0.5,1.7-0.5,2.4c-0.1,0.8,0,1.4,0.2,2c0.2,0.5,0.4,1,0.6,1.3
											c0.2,0.4,0.2,0.6,0.3,0.8c0.1,0.2,0.1,0.3,0.1,0.3c0,0,0-0.4-0.3-1.2c-0.1-0.4-0.4-0.8-0.5-1.4c-0.2-0.5-0.3-1.2-0.2-1.9
											c0.1-0.7,0.3-1.5,0.5-2.4c0.2-0.9,0.5-1.9,0.5-2.9c0-1.1-0.2-2.2-0.7-3.4c-0.2-0.6-0.5-1.1-0.9-1.6
											c-0.4-0.5-0.8-1-1.3-1.5c-0.5-0.5-0.9-1-1.2-1.6c-0.3-0.6-0.4-1.3-0.6-2c-0.3-1.4-0.8-2.9-1.6-4.3
											c-0.8-1.4-1.9-2.7-3.2-3.7c-0.7-0.5-1.4-1-2.2-1.4c-0.8-0.4-1.6-0.7-2.5-0.8c-0.4-0.1-0.9-0.1-1.3-0.2c-0.5,0-0.9,0-1.4,0
											c-0.9,0-1.8-0.2-2.6-0.5c-0.8-0.4-1.6-0.8-2.5-1.3c-0.9-0.4-1.8-0.8-2.7-1.1c-0.9-0.3-1.9-0.5-2.9-0.6c-1-0.1-2-0.1-3-0.1
											c-2,0.2-4,0.9-5.6,2.3c-0.2,0.1-0.3,0.3-0.5,0.4l0.2,0c-2.8-1.3-6.1-1.1-8.8,0c-2.7,1.1-5,3.2-6.1,5.8l0.1-0.1
											c-1.3,0.3-2.6,0.6-3.8,1.1c-1.2,0.5-2.4,1.1-3.3,1.9c-0.9,0.9-1.6,2-2,3.1c-0.3,1.2-0.3,2.5,0.3,3.5l0-0.2
											c-1.7,1.1-2.8,2.8-3.3,4.6"/>
									</g>
								</g>
							</g>
						</g>
					</g>
					<g>
						<g>
							<g>
								<g>
									<g>
										<path class="st7" d="M89.7,12c0,0,0.3-0.1,0.8-0.2c0.5-0.1,1.3-0.3,2.3-0.2c1,0.1,2.1,0.4,3.1,1.1c1,0.7,1.9,1.9,2.4,3.3
											c0.1,0.4,0.2,0.8,0.3,1.2c0,0.4,0,0.8-0.3,1L98,18.5l0.4,0c1.2-0.1,2.2,0.3,3,1c0.7,0.6,1.1,1.5,1.3,2.2
											c0.2,0.7,0.1,1.3,0.1,1.7c-0.1,0.4-0.1,0.6-0.1,0.6c0,0,0,0,0.1-0.1c0-0.1,0.1-0.2,0.1-0.4c0.1-0.4,0.2-1,0-1.8
											c-0.1-0.7-0.5-1.6-1.3-2.3c-0.8-0.7-1.9-1.2-3.2-1.1l0.1,0.3c0.4-0.3,0.4-0.8,0.4-1.3c0-0.4-0.1-0.9-0.3-1.3
											c-0.5-1.5-1.4-2.6-2.5-3.4c-1.1-0.8-2.3-1.1-3.3-1.1c-1-0.1-1.8,0.1-2.3,0.3c-0.3,0.1-0.5,0.2-0.6,0.2
											C89.8,12,89.7,12,89.7,12z"/>
									</g>
								</g>
							</g>
						</g>
					</g>
					<g>
						<g>
							<g>
								<g>
									<g>
										<path class="st7" d="M71.5,20.1c0,0,0.1,0.2,0.3,0.4c0.2,0.3,0.5,0.6,1,1c0.5,0.4,1.1,0.8,1.8,1c0.8,0.2,1.7,0.2,2.6-0.2
											l-0.2-0.1c0.1,0.2,0.1,0.3,0.2,0.5c0.1,0.2,0.2,0.3,0.3,0.5c0.6,0.9,1.3,1.6,2.1,2c0.8,0.5,1.6,0.7,2.3,0.8
											c0.7,0.1,1.2,0,1.6,0c0.4-0.1,0.6-0.2,0.6-0.2c0-0.1-0.8,0.2-2.2,0c-0.7-0.1-1.4-0.4-2.2-0.8c-0.8-0.4-1.5-1.1-2-1.9
											c-0.1-0.1-0.2-0.3-0.2-0.4c-0.1-0.1-0.1-0.3-0.2-0.4l-0.1-0.2L77,22c-0.8,0.4-1.7,0.4-2.4,0.2c-0.7-0.2-1.3-0.5-1.8-0.9
											C71.9,20.6,71.5,20,71.5,20.1z"/>
									</g>
								</g>
							</g>
						</g>
					</g>
					<g>
						<g>
							<g>
								<g>
									<g>
										<path class="st7" d="M64.5,28.1c0,0,0,0.1,0,0.2c0,0.1,0,0.3,0.1,0.5c0.2,0.4,0.6,1,1.4,1.4c0.8,0.4,1.8,0.4,2.9,0.3
											c0.5-0.1,1.1-0.2,1.7-0.3c0.6-0.1,1.2-0.4,1.6-1c0,0,0.1-0.1,0.1-0.1l-0.2,0c0.8,0.9,1.6,1.8,2.6,2.3
											c0.9,0.6,1.9,0.8,2.7,0.8c0.8,0,1.5-0.2,1.9-0.4c0.2-0.1,0.3-0.2,0.4-0.3c0.1-0.1,0.1-0.1,0.1-0.1c0,0-0.2,0.1-0.6,0.3
											c-0.4,0.2-1,0.4-1.8,0.3c-0.8,0-1.7-0.3-2.6-0.9c-0.9-0.6-1.7-1.4-2.5-2.3L72,28.7l-0.1,0.2c0,0-0.1,0.1-0.1,0.1
											c-0.3,0.5-0.9,0.7-1.4,0.8c-0.5,0.1-1.1,0.2-1.6,0.3c-1,0.2-2,0.1-2.7-0.2c-0.7-0.3-1.2-0.8-1.3-1.2
											C64.5,28.4,64.5,28.1,64.5,28.1z"/>
									</g>
								</g>
							</g>
						</g>
					</g>
					<g>
						<g>
							<g>
								<g>
									<g>
										<path class="st7" d="M61-9.1c0,0,0.2,0,0.4,0.2c0.3,0.1,0.7,0.4,1,0.9c0.3,0.5,0.5,1.2,0.4,2c-0.1,0.8-0.5,1.7-0.9,2.6
											l-0.1,0.1l0.2,0c1.1,0.2,2.3,0.8,3.2,1.7c0.9,1,1.4,2.4,1.2,3.8c-0.2,1.3-1,2.5-2.1,3l-0.4,0.2l0.4,0.1
											C65.8,5.9,67,6.9,67.7,8c0.7,1.1,0.8,2.3,0.6,3.3c-0.1,1-0.5,1.7-0.8,2.1c-0.3,0.4-0.5,0.7-0.5,0.7c0,0,0.1,0,0.2-0.1
											c0.1-0.1,0.2-0.3,0.4-0.5c0.3-0.4,0.7-1.1,0.9-2.1c0.2-1,0.1-2.2-0.6-3.4c-0.7-1.2-1.9-2.2-3.6-2.5l0,0.3
											c1.2-0.6,2-1.8,2.3-3.2c0.1-0.8,0.1-1.5-0.2-2.2c-0.2-0.7-0.6-1.3-1.1-1.8c-1-1-2.2-1.6-3.4-1.8l0.1,0.2
											c0.4-0.9,0.8-1.8,0.9-2.7c0.1-0.9-0.1-1.6-0.4-2.1c-0.3-0.5-0.7-0.8-1-0.9c-0.2-0.1-0.3-0.1-0.4-0.1
											C61.1-9.1,61-9.1,61-9.1z"/>
									</g>
								</g>
							</g>
						</g>
					</g>
					<g>
						<g>
							<g>
								<g>
									<g>
										<path class="st7" d="M39.2,8.7c0,0,0,0,0.1,0.1c0.1,0.1,0.2,0.2,0.4,0.3c0.4,0.3,1,0.6,1.9,0.8c0.9,0.2,1.9,0.4,3.2,0.3
											c1.2-0.1,2.6-0.6,3.8-1.5l-0.2-0.1c0.6,1.6,1.9,3.3,3.8,3.9c2,0.7,4.3-0.1,5.4-1.6l-0.3-0.1c0.1,0.7,0.4,1.4,0.8,1.9
											c0.4,0.5,0.9,0.9,1.4,1.2c1,0.6,2.1,0.8,2.9,0.9c0.9,0.1,1.5,0.1,2,0.1c0.5,0,0.7,0,0.7,0c0,0-0.2,0-0.7,0
											c-0.5,0-1.1,0-2-0.2c-0.8-0.1-1.8-0.3-2.8-1c-1-0.6-1.9-1.6-2.1-3l0-0.4l-0.2,0.3c-1,1.4-3.2,2.1-5.1,1.5
											c-1.8-0.6-3.1-2.2-3.6-3.7l-0.1-0.2l-0.2,0.1C47.3,9.4,46,9.8,44.8,10c-1.2,0.2-2.2,0-3.1-0.2C40,9.3,39.2,8.6,39.2,8.7z"
											/>
									</g>
								</g>
							</g>
						</g>
					</g>
					<g>
						<g>
							<g>
								<g>
									<g>
										<path class="st7" d="M46.6,25.1c0,0,0,0.1,0.1,0.2c0.1,0.1,0.2,0.3,0.5,0.4c0.5,0.2,1.3,0.2,2.2,0.1
											c0.9-0.2,2-0.6,2.9-1.6c0.9-0.9,1.5-2.3,1.5-3.8l0,0l-0.2,0.1c1.2,0.9,2.6,1.3,3.8,1.3c1.3,0,2.4-0.3,3.2-0.7
											c0.9-0.4,1.5-0.9,1.9-1.2c0.4-0.3,0.6-0.6,0.6-0.6c0-0.1-0.8,0.8-2.5,1.6c-0.8,0.4-1.9,0.7-3.1,0.6
											c-1.2,0-2.5-0.4-3.6-1.3l-0.2-0.2l0,0.3l0,0c0,1.4-0.6,2.7-1.4,3.6c-0.8,0.9-1.9,1.4-2.8,1.6c-0.9,0.2-1.7,0.1-2.2,0
											C46.7,25.4,46.6,25.1,46.6,25.1z"/>
									</g>
								</g>
							</g>
						</g>
					</g>
					<g>
						<g>
							<g>
								<g>
									<g>
										<path class="st7" d="M82.4-4.4c-0.1,0,0.3,1.2-0.2,3.1c-0.2,0.9-0.7,2-1.6,2.9c-0.9,0.9-2.1,1.7-3.5,2
											c-0.8,0.2-1.6,0.2-2.4,0.1l-0.2,0l0,0.2c0.1,1.2,0,2.3-0.3,3.2c-0.3,1-0.7,1.8-1.1,2.4c-0.2,0.3-0.4,0.6-0.6,0.8
											c-0.2,0.2-0.4,0.3-0.6,0.3c-0.2,0-0.3-0.1-0.4-0.2c-0.1-0.1-0.1-0.1-0.1-0.1c0,0,0,0.1,0,0.2c0,0.1,0.2,0.2,0.4,0.3
											c0.2,0,0.5-0.1,0.7-0.3c0.2-0.2,0.4-0.5,0.6-0.8c0.4-0.6,0.9-1.4,1.2-2.4c0.3-1,0.4-2.1,0.3-3.3l-0.2,0.2
											c0.8,0.1,1.6,0.1,2.5-0.1c1.5-0.3,2.8-1.1,3.7-2.1c0.9-1,1.4-2.1,1.6-3.1c0.2-1,0.2-1.8,0.1-2.3c0-0.3-0.1-0.5-0.1-0.6
											C82.5-4.3,82.4-4.4,82.4-4.4z"/>
									</g>
								</g>
							</g>
						</g>
					</g>
				</g>
				<g>
					<path class="st2" d="M95.3,71.9c0.1,0.1-0.8,0.8-2.4,1c-0.4,0-0.9,0.1-1.4,0c-0.5-0.1-1.1-0.3-1.5-0.7c-0.4-0.4-0.8-0.9-1-1.5
						c-0.2-0.6-0.4-1.2-0.3-2c0.1-0.7,0.4-1.3,0.8-1.8c0.4-0.5,0.9-0.9,1.5-1.1c0.7-0.1,1.2,0,1.7,0.1c0.5,0.1,0.9,0.3,1.2,0.5
						c0.7,0.3,1.3,0.6,1.6,0.9c0.4,0.3,0.5,0.5,0.5,0.5c0,0.1-0.3,0-0.7-0.2c-0.5-0.2-1.1-0.3-1.7-0.6c-0.4-0.1-0.7-0.2-1.2-0.3
						c-0.4-0.1-0.9-0.1-1.2,0c-0.3,0.1-0.7,0.4-1,0.8c-0.3,0.4-0.5,0.9-0.6,1.4c-0.1,0.9,0.3,2,0.9,2.6c0.6,0.6,1.5,0.7,2.2,0.7
						C94.3,72.2,95.2,71.8,95.3,71.9z"/>
				</g>
			</g>
		</g>
		<g>
			<g>
				<path class="st4" d="M120.1,109.6c0,0,5.3,7.3,8.5,23.7s7.3,35.4-1.2,41.2c-4.5,3.1-15.9-11.4-15.9-11.4l-3.3-34.2l-3.2-10.2
					L120.1,109.6z"/>
				
					<linearGradient id="SVGID_00000066478501849576260790000012494883837957277605_" gradientUnits="userSpaceOnUse" x1="21.5699" y1="148.0923" x2="136.2235" y2="148.0923">
					<stop  offset="0" style="stop-color:#DEEAFE"/>
					<stop  offset="1" style="stop-color:#A1C3FC"/>
				</linearGradient>
				<path style="fill:url(#SVGID_00000066478501849576260790000012494883837957277605_);" d="M117.4,139.3l18.8-6.6
					c0,0-17-35.9-25.5-40.5c-5.7-2.4-14.1-1.3-14.1-1.3c-9,9.7-23.2,4.8-35.1-4.7c-0.9-0.2-21.3,3.7-25.9,7.4
					c-10.5,8.3-14,50.9-14,50.9l21.3-2.9L42.1,175l-3.1,4.6c-1.1,1.6-0.6,3.8,1.2,4.8L85.4,210l22.2-22.1c2.4-2.4,1.8-6.4-1.2-8l0,0
					l9.8-42.3L117.4,139.3z"/>
				<g>
					<path class="st2" d="M65,182.4c0,0,0.1,0,0.4,0c0.3,0,0.7,0.1,1.2,0.1c0.5,0.1,1.1,0.1,1.9,0.2c0.7,0.1,1.6,0.2,2.5,0.2
						c1.8,0.2,4.1,0.3,6.5,0.3c2.4,0,5.1,0,8-0.2c2.8-0.2,5.5-0.5,7.9-0.8c2.4-0.3,4.6-0.7,6.4-1.1c0.9-0.2,1.7-0.4,2.4-0.5
						c0.7-0.2,1.3-0.3,1.8-0.4c0.5-0.1,0.9-0.2,1.2-0.3c0.3-0.1,0.4-0.1,0.4-0.1c0,0-0.1,0.1-0.4,0.1c-0.3,0.1-0.7,0.2-1.1,0.3
						c-0.5,0.1-1.1,0.3-1.8,0.5c-0.7,0.2-1.5,0.4-2.4,0.6c-1.8,0.4-4,0.8-6.4,1.2c-2.4,0.3-5.1,0.6-7.9,0.8c-2.8,0.2-5.5,0.2-8,0.2
						c-2.5-0.1-4.7-0.2-6.5-0.4c-0.9-0.1-1.8-0.2-2.5-0.3c-0.7-0.1-1.4-0.2-1.9-0.3c-0.5-0.1-0.9-0.1-1.2-0.2
						C65.1,182.5,65,182.4,65,182.4z"/>
				</g>
			</g>
			<g>
				<path class="st4" d="M49.4,152.6c-0.6,0.6-7.6,11.6-7.6,17s1.6,15.6,10,13.4c8.4-2.2,12.7-10.7,19.2-24.7
					c6.5-14,20.2-41.1,20.2-41.1l-12.9-7.6L49.4,152.6z"/>
				<path class="st4" d="M53,144.5l-0.6-5.9l-24.8,3.3c0.8,6.9,2.6,16.2,3.7,20.2c2.8,10,9.6,23.5,18.9,20.5
					C59.5,179.5,53,144.5,53,144.5z"/>
				<path class="st4" d="M105.4,111.9l22.2,40.9c0,0,9.5,14.2-1.5,22c-11,7.8-20.7-14.4-24.2-22.9c-3.5-8.5-9.3-32.9-9.3-32.9
					L105.4,111.9z"/>
			</g>
			<g>
				<g>
					<g>
						<path class="st2" d="M124.5,265.1c-2.1-10.5-4.4-26.5-4.4-26.5s-2.7-16.8-3.4-23.7c-0.8-8-8.1-31.3-8.1-31.3
							c-17.8,15.9-69.3-0.3-69.3-0.3c-18.2,27-21.1,61.1-19.5,81.8h50.4l1.1-12.5l3.2,12.5H124.5z"/>
					</g>
				</g>
			</g>
			<g>
				<path class="st7" d="M65.6,194.6c0,0,0,0.1-0.2,0.4c-0.1,0.2-0.3,0.6-0.5,1c-0.5,0.9-1.3,2-2.5,3.4c-2.3,2.7-6.4,5.6-11.5,7.5
					c-5.1,1.8-10,2.4-13.5,2.7c-1.8,0.1-3.2,0.2-4.2,0.2c-0.5,0-0.8,0-1.1,0c-0.3,0-0.4,0-0.4,0c0,0,0.1,0,0.4-0.1
					c0.3,0,0.7-0.1,1.1-0.1c1-0.1,2.4-0.2,4.2-0.3c3.5-0.3,8.4-0.9,13.4-2.8c5-1.8,9.1-4.7,11.4-7.3c1.2-1.3,2-2.4,2.5-3.3
					C65.3,195,65.6,194.5,65.6,194.6z"/>
			</g>
			<g>
				<path class="st7" d="M85.3,196.4c0,0,0,0.2,0,0.4c0,0.3-0.1,0.7-0.1,1.2c-0.1,1.1-0.3,2.7-0.5,4.5c-0.4,3.9-1,9.1-1.6,15
					c-0.7,5.8-1.3,11.2-2,14.9c-0.4,1.9-0.7,3.4-1,4.5c-0.1,0.5-0.3,0.9-0.3,1.2c-0.1,0.3-0.1,0.4-0.1,0.4c0,0,0-0.2,0.1-0.4
					c0.1-0.3,0.2-0.7,0.3-1.2c0.2-1.1,0.6-2.6,0.9-4.5c0.7-3.8,1.2-9.1,1.9-14.9c0.7-5.8,1.3-11.1,1.7-15c0.2-1.9,0.4-3.4,0.6-4.5
					c0.1-0.5,0.1-0.9,0.2-1.2C85.3,196.6,85.3,196.4,85.3,196.4z"/>
			</g>
			<g>
				<path class="st7" d="M114.7,204.8c0,0-0.3,0-0.8,0c-0.3,0-0.6,0-1,0c-0.4,0-0.8,0-1.3-0.1c-0.9-0.1-2-0.4-3.2-0.8
					c-1.2-0.4-2.4-1-3.7-1.7c-1.2-0.7-2.3-1.6-3.2-2.4c-0.9-0.9-1.6-1.7-2.2-2.5c-0.3-0.4-0.5-0.7-0.7-1.1c-0.2-0.3-0.4-0.6-0.5-0.8
					c-0.2-0.5-0.4-0.7-0.3-0.7c0.1,0,0.6,1,1.7,2.5c0.6,0.7,1.3,1.5,2.2,2.4c0.9,0.8,2,1.6,3.2,2.4c1.2,0.7,2.4,1.3,3.6,1.7
					c1.2,0.4,2.2,0.7,3.1,0.8C113.6,204.8,114.7,204.8,114.7,204.8z"/>
			</g>
		</g>
		<g>
			<path class="st9" d="M72.3,85.2c0,0,17-20.4,18.7-21.6c3.4-2.4,10.1-2.9,12.3-1.1c1.3,1.1,15.5,13.7,15.5,13.7l-4.3,8.9l-16,12.2
				L72.3,85.2z"/>
		</g>
		<g>
			<path class="st4" d="M101.1,71.5c0.8-0.1,1.6,0.3,2.1,1c2.1,3.2,9.5,15,10,17.5c0.6,2.9-1.7,3.8-1.7,3.8s0.8,4.2-2.4,6
				c0,0,0.7,3-2.4,4.8L106,113l-13.4,5.9l-0.9-3l3.2-7.8L97.6,98l-0.8-14.8c0,0-0.1-3.4,2.2-2.7c0,0-1.9-2.6-0.7-4.4
				c0.7-1.1,2.1-0.7,2.1-0.7s-1.2-1.9-0.5-3.2C100.2,71.8,100.6,71.6,101.1,71.5z"/>
			<g>
				<path class="st4" d="M86.6,72.3c0,0-9.7,16-10.4,19.3c-0.7,3.2,1.2,18.7,1.2,18.7l13.4,7.2c0,0,4.7-6.9,5.3-12.8
					c0.6-5.9,0.7-8.7,0.7-8.7s2.5-11.6,1.3-12.9c-1.2-1.3-1.9-1-1.9-1s3-5.7,2.2-7.4c-0.8-1.6-2.3-1.7-2.3-1.7s0.4-2.1-1.2-2.8
					c-1.8-0.8-3.3,1.6-3.3,1.6S89,68.3,86.6,72.3z"/>
				<g>
					<path class="st5" d="M91.7,93.1c0,0,0-0.1,0-0.2c0-0.2,0.1-0.4,0.2-0.6c0.2-0.5,0.4-1.3,0.8-2.3c0.7-2,1.8-4.7,3.3-8l0-0.1
						l0.1,0c0.5-0.1,1,0,1.5,0.3c0.5,0.3,0.8,0.8,0.9,1.3c0.2,1.1,0,2.1,0,3.3c-0.2,2.2-0.6,4.5-1,6.9c-0.1,0.5-0.2,1-0.3,1.5l0,0
						c-0.3,3.3-0.7,6.4-1,9.2c0,0.4-0.1,0.7-0.1,1c0,0.3-0.1,0.7-0.2,1c-0.1,0.3-0.2,0.6-0.2,1c-0.1,0.3-0.2,0.6-0.3,0.9
						c-0.4,1.2-0.9,2.3-1.3,3.2c-0.9,1.9-1.7,3.4-2.3,4.4c-0.3,0.5-0.5,0.9-0.7,1.2c-0.2,0.3-0.3,0.4-0.3,0.4c0,0,0.1-0.1,0.2-0.4
						c0.2-0.3,0.4-0.7,0.7-1.2c0.6-1,1.4-2.5,2.2-4.5c0.4-1,0.9-2,1.2-3.2c0.4-1.2,0.7-2.5,0.8-3.9c0.3-2.8,0.6-5.9,0.9-9.2l0,0l0,0
						c0.1-0.5,0.2-1,0.3-1.5c0.4-2.4,0.8-4.7,1-6.9c0.1-1.1,0.2-2.2,0.1-3.1c-0.1-0.5-0.4-0.9-0.8-1.1c-0.4-0.2-0.9-0.3-1.3-0.3
						l0.1-0.1c-1.5,3.2-2.6,6-3.4,7.9c-0.4,0.9-0.6,1.7-0.9,2.3c-0.1,0.2-0.2,0.4-0.2,0.6C91.7,93,91.7,93.1,91.7,93.1z"/>
				</g>
			</g>
		</g>
	</g>
</g>
</svg>
