<?xml version="1.0" encoding="utf-8"?>
<!-- Generator: Adobe Illustrator 25.4.8, SVG Export Plug-In . SVG Version: 6.00 Build 0)  -->
<svg version="1.1" id="Layer_1" xmlns="http://www.w3.org/2000/svg" xmlns:xlink="http://www.w3.org/1999/xlink" x="0px" y="0px"
	 viewBox="0 0 166.6 166.6" style="enable-background:new 0 0 166.6 166.6;" xml:space="preserve">
<style type="text/css">
	.st0{clip-path:url(#SVGID_00000182516614133679866910000008182392282715607703_);fill:#FFC8B1;}
	.st1{clip-path:url(#SVGID_00000182516614133679866910000008182392282715607703_);}
	.st2{fill:#3E1314;}
	.st3{fill:#FFC8B1;}
	.st4{fill:url(#SVGID_00000012434893516184892470000005170147318334212751_);}
	.st5{fill:url(#SVGID_00000173147093624750068640000015821282289023189400_);}
	.st6{fill:url(#SVGID_00000183224155428983172760000004338446903355254164_);}
	.st7{fill:url(#SVGID_00000154410658303614984060000015585973026085444264_);}
	.st8{fill:#F59A84;}
	.st9{fill:#BBE3FF;}
	.st10{fill:#CEE9FF;}
	.st11{fill:#FFFFFF;}
	.st12{fill:#A677C5;}
	.st13{fill:#64BCBA;}
	.st14{fill:#BBDEF2;}
	.st15{fill:#B1E2F4;}
	.st16{fill:#ECF7FF;}
</style>
<g>
	<g>
		<defs>
			<path id="SVGID_1_" d="M161.1,56.5c-9.5-26.9-32.6-47.3-60.9-53.2c-5.4-1.1-11.1-1.7-16.8-1.7c-39.7,0-72.8,28-80.7,65.3
				c-1.2,5.5-1.8,11.3-1.8,17.2c0,45.6,36.9,82.5,82.5,82.5c45.6,0,82.5-36.9,82.5-82.5C165.8,74.4,164.1,65.1,161.1,56.5z"/>
		</defs>
		<clipPath id="SVGID_00000153686942720317809110000006790639610728317319_">
			<use xlink:href="#SVGID_1_"  style="overflow:visible;"/>
		</clipPath>
		<path style="clip-path:url(#SVGID_00000153686942720317809110000006790639610728317319_);fill:#FFC8B1;" d="M161.1,56.5
			c-9.5-26.9-32.6-47.3-60.9-53.2c-5.4-1.1-11.1-1.7-16.8-1.7c-39.7,0-72.8,28-80.7,65.3c-1.2,5.5-1.8,11.3-1.8,17.2
			c0,45.6,36.9,82.5,82.5,82.5c45.6,0,82.5-36.9,82.5-82.5C165.8,74.4,164.1,65.1,161.1,56.5z"/>
		<g style="clip-path:url(#SVGID_00000153686942720317809110000006790639610728317319_);">
			<path class="st2" d="M108.3,69.9c-4.6,0.6-7.9,14.4,1.3,19c9.2,4.6,35.9-9.6,42-9.6c3.1,0,9,1.1,14,2.2c-0.1-3.1-0.4-6.2-0.8-9.2
				c-4.3-2.2-8.6-4-10.7-4.3C148.1,67.2,120.8,68.3,108.3,69.9z"/>
			<path class="st2" d="M56.9,88.9c9.2-4.6,6-18.4,1.3-19c-12.4-1.6-39.8-2.7-45.9-1.9c-2.1,0.3-6.4,2-10.7,4.3
				c-0.4,3-0.7,6.1-0.8,9.2c5-1.1,10.9-2.2,14-2.2C21,79.3,47.7,93.5,56.9,88.9z"/>
			<path class="st3" d="M45.3,126.3c3.7-1.2,6.6-2.5,12.7-6.5c0.7,1.5,1.1,2.5,1.1,2.5S52.5,103,32.7,103c-13.5,0-22.9,5.1-27.4,8.3
				c1.3,3.8,2.9,7.5,4.8,11.1c1.8,1.6,3.9,2.8,6.3,3.4C28.1,128.4,38.1,128.6,45.3,126.3z"/>
			
				<linearGradient id="SVGID_00000001651137961628338310000003061987317985768866_" gradientUnits="userSpaceOnUse" x1="50.3297" y1="110.1094" x2="10.4099" y2="122.14">
				<stop  offset="0" style="stop-color:#F5B199"/>
				<stop  offset="1" style="stop-color:#EE9E7B"/>
			</linearGradient>
			<path style="fill:url(#SVGID_00000001651137961628338310000003061987317985768866_);" d="M45.3,126.3c3.7-1.2,6.6-2.5,12.7-6.5
				c0.7,1.5,1.1,2.5,1.1,2.5S52.5,103,32.7,103c-13.5,0-22.9,5.1-27.4,8.3c1.3,3.8,2.9,7.5,4.8,11.1c1.8,1.6,3.9,2.8,6.3,3.4
				C28.1,128.4,38.1,128.6,45.3,126.3z"/>
			<path class="st3" d="M14.5,128.2c0.6,0.3,1.3,0.5,2,0.7C15.8,128.7,15.1,128.4,14.5,128.2L14.5,128.2z"/>
			
				<linearGradient id="SVGID_00000072996799865050036580000001342639021178476180_" gradientUnits="userSpaceOnUse" x1="52.513" y1="117.3475" x2="12.5914" y2="129.3787">
				<stop  offset="0" style="stop-color:#F5B199"/>
				<stop  offset="1" style="stop-color:#EE9E7B"/>
			</linearGradient>
			<path style="fill:url(#SVGID_00000072996799865050036580000001342639021178476180_);" d="M14.5,128.2c0.6,0.3,1.3,0.5,2,0.7
				C15.8,128.7,15.1,128.4,14.5,128.2L14.5,128.2z"/>
			<path class="st2" d="M18.2,127.1c0,0-1.8,0.4-3.7,1.1c0.6,0.3,1.3,0.5,2,0.7c0.6,0.1,1.2,0.2,1.8,0.4c0.7-0.4,1.5-0.7,2.4-1
				l1.6,0.3c0,0-1,0.4-2.3,1c0.9,0.2,1.8,0.3,2.7,0.5c0.7-0.5,1.4-1,2.4-1.4l1.6,0c0,0-1.1,0.7-2.5,1.6c1.2,0.2,2.5,0.3,3.6,0.4
				c0.5-0.5,1.1-1.1,1.8-1.6l1.6-0.3c0,0-0.9,0.8-2.1,2c1.5,0.1,3,0.2,4.4,0.2c0.4-0.4,0.9-0.8,1.5-1.2l1.6-0.3c0,0-0.7,0.6-1.6,1.5
				c1.3,0,2.5-0.1,3.7-0.2c0.3-0.4,0.6-0.7,1-1.1l1.6-0.5c0,0-0.5,0.6-1.2,1.5c1.4-0.2,2.8-0.5,4.1-0.9c0.4-0.6,0.9-1.2,1.5-1.8
				l1.6-0.5c0,0-0.6,0.7-1.4,1.8c0.9-0.3,1.8-0.6,2.7-1c0.4-0.9,1-2,1.9-3l1.5-0.7c0,0-0.9,1.3-1.8,3c2.3-1.1,5-2.7,9.1-5.4
				c0,0-0.4-1-1.1-2.5c-6.1,4-9,5.3-12.7,6.5c-7.2,2.4-17.1,2.1-28.8-0.6c-2.4-0.6-4.5-1.8-6.3-3.4c0.4,0.8,0.8,1.6,1.3,2.4
				c0.3,0,0.7-0.1,1-0.1l1.4,0.7c0,0-0.8,0.1-1.9,0.3c0.4,0.7,0.8,1.4,1.2,2c0.9-0.5,2.1-0.8,3.5-1L18.2,127.1z"/>
			<path class="st2" d="M12.5,124.6c-0.4,0-0.7,0-1,0.1c0.2,0.3,0.3,0.6,0.5,0.9c1.1-0.2,1.9-0.3,1.9-0.3L12.5,124.6z"/>
			<path class="st2" d="M14.5,128.2c2-0.7,3.7-1.1,3.7-1.1l-1.5-0.5c-1.4,0.2-2.6,0.6-3.5,1c0.2,0.3,0.4,0.6,0.6,0.9
				C14,128.4,14.2,128.3,14.5,128.2L14.5,128.2z"/>
			<path class="st2" d="M22.2,128.6l-1.6-0.3c-0.9,0.3-1.7,0.6-2.4,1c-1.2,0.6-2,1.3-2.6,2c0.1,0.2,0.3,0.4,0.4,0.6
				c1.2-0.9,2.7-1.7,3.9-2.3C21.2,128.9,22.2,128.6,22.2,128.6z"/>
			<path class="st2" d="M25,128.6c-1,0.4-1.7,0.9-2.4,1.4c-3.1,2.4-3.2,5.2-3.2,5.2c0.6-1.8,2.8-3.7,4.6-4.9c1.4-1,2.5-1.6,2.5-1.6
				L25,128.6z"/>
			<path class="st2" d="M31.1,128.9l-1.6,0.3c-0.7,0.5-1.3,1.1-1.8,1.6c-2.9,3.1-2.4,6-2.4,6c0.3-2,2.2-4.3,3.8-5.9
				C30.1,129.7,31.1,128.9,31.1,128.9z"/>
			<path class="st2" d="M34.9,129.8c-0.6,0.4-1.1,0.8-1.5,1.2c-3.4,3.2-2.8,6.4-2.8,6.4c0.3-2.2,2.7-4.8,4.3-6.4
				c0.9-0.9,1.6-1.5,1.6-1.5L34.9,129.8z"/>
			<path class="st2" d="M39.6,129.6c-0.4,0.4-0.7,0.8-1,1.1c-3.1,3.9-2,7.2-2,7.2c-0.1-2.3,2-5.5,3.3-7.3c0.7-0.9,1.2-1.5,1.2-1.5
				L39.6,129.6z"/>
			<path class="st2" d="M45.6,128c-0.6,0.6-1.1,1.2-1.5,1.8c-2.5,3.6-1.5,6.6-1.5,6.6c-0.1-2.2,1.8-5.2,3.1-7.1
				c0.8-1.1,1.4-1.8,1.4-1.8L45.6,128z"/>
			<path class="st2" d="M50.3,125.2c-0.9,1.1-1.5,2.1-1.9,3c-1.3,3.3-0.3,5.6-0.3,5.6c-0.2-1.8,0.8-4.3,1.8-6.3c0.9-1.7,1.8-3,1.8-3
				L50.3,125.2z"/>
			<path class="st3" d="M152.1,128.2c-0.6,0.3-1.3,0.5-2,0.7C150.8,128.7,151.5,128.4,152.1,128.2
				C152.1,128.2,152.1,128.2,152.1,128.2z"/>
			
				<linearGradient id="SVGID_00000113346386256494963220000002363949912288250554_" gradientUnits="userSpaceOnUse" x1="-220.3006" y1="117.3487" x2="-260.218" y2="129.3786" gradientTransform="matrix(-1 0 0 1 -106.2096 0)">
				<stop  offset="0" style="stop-color:#F5B199"/>
				<stop  offset="1" style="stop-color:#EE9E7B"/>
			</linearGradient>
			<path style="fill:url(#SVGID_00000113346386256494963220000002363949912288250554_);" d="M152.1,128.2c-0.6,0.3-1.3,0.5-2,0.7
				C150.8,128.7,151.5,128.4,152.1,128.2C152.1,128.2,152.1,128.2,152.1,128.2z"/>
			<path class="st3" d="M107.5,122.2c0,0,0.4-1,1.1-2.5c6.1,4,9,5.3,12.7,6.5c7.2,2.4,17.2,2.1,28.8-0.6c2.4-0.6,4.5-1.8,6.3-3.4
				c1.9-3.5,3.5-7.2,4.8-11.1c-4.5-3.2-13.8-8.3-27.4-8.3C114.1,103,107.5,122.2,107.5,122.2z"/>
			
				<linearGradient id="SVGID_00000110431480042882920960000005440586314930857635_" gradientUnits="userSpaceOnUse" x1="-222.4799" y1="110.1094" x2="-262.3997" y2="122.14" gradientTransform="matrix(-1 0 0 1 -106.2096 0)">
				<stop  offset="0" style="stop-color:#F5B199"/>
				<stop  offset="1" style="stop-color:#EE9E7B"/>
			</linearGradient>
			<path style="fill:url(#SVGID_00000110431480042882920960000005440586314930857635_);" d="M107.5,122.2c0,0,0.4-1,1.1-2.5
				c6.1,4,9,5.3,12.7,6.5c7.2,2.4,17.2,2.1,28.8-0.6c2.4-0.6,4.5-1.8,6.3-3.4c1.9-3.5,3.5-7.2,4.8-11.1c-4.5-3.2-13.8-8.3-27.4-8.3
				C114.1,103,107.5,122.2,107.5,122.2z"/>
			<path class="st2" d="M121.3,126.3c-3.7-1.2-6.6-2.5-12.7-6.5c-0.7,1.5-1.1,2.5-1.1,2.5c4.1,2.7,6.8,4.3,9.1,5.4
				c-0.9-1.7-1.8-3-1.8-3l1.5,0.7c0.9,1.1,1.5,2.1,1.9,3c0.9,0.4,1.8,0.7,2.7,1c-0.8-1.1-1.4-1.8-1.4-1.8l1.6,0.5
				c0.6,0.6,1.1,1.2,1.5,1.8c1.3,0.4,2.6,0.6,4.1,0.9c-0.7-0.9-1.2-1.5-1.2-1.5l1.6,0.5c0.4,0.4,0.7,0.8,1,1.1
				c1.2,0.1,2.4,0.2,3.7,0.2c-0.9-0.9-1.6-1.5-1.6-1.5l1.6,0.3c0.6,0.4,1.1,0.8,1.5,1.2c1.4,0,2.9-0.1,4.4-0.2c-1.1-1.2-2.1-2-2.1-2
				l1.6,0.3c0.7,0.5,1.3,1.1,1.8,1.6c1.2-0.1,2.4-0.3,3.6-0.4c-1.4-1-2.5-1.6-2.5-1.6l1.6,0c1,0.4,1.7,0.9,2.4,1.4
				c0.9-0.1,1.8-0.3,2.7-0.5c-1.3-0.6-2.3-1-2.3-1l1.6-0.3c0.9,0.3,1.7,0.6,2.4,1c0.6-0.1,1.2-0.2,1.8-0.4c0.7-0.2,1.4-0.4,2-0.7
				c-2-0.7-3.7-1.1-3.7-1.1l1.5-0.5c1.4,0.2,2.6,0.6,3.5,1c0.4-0.7,0.8-1.3,1.2-2c-1.1-0.2-1.9-0.3-1.9-0.3l1.4-0.7
				c0.4,0,0.7,0,1,0.1c0.4-0.8,0.9-1.6,1.3-2.4c-1.8,1.6-3.9,2.8-6.3,3.4C138.5,128.4,128.5,128.6,121.3,126.3z"/>
			<path class="st2" d="M152.7,125.3c0,0,0.8,0.1,1.9,0.3c0.2-0.3,0.4-0.6,0.5-0.9c-0.3,0-0.7-0.1-1-0.1L152.7,125.3z"/>
			<path class="st2" d="M148.4,127.1c0,0,1.8,0.4,3.7,1.1c0,0,0,0,0,0c0.2,0.1,0.5,0.2,0.7,0.3c0.2-0.3,0.4-0.6,0.6-0.9
				c-0.9-0.5-2.1-0.8-3.5-1L148.4,127.1z"/>
			<path class="st2" d="M148.3,129.2c-0.7-0.4-1.5-0.7-2.4-1l-1.6,0.3c0,0,1,0.4,2.3,1c1.2,0.6,2.7,1.4,3.9,2.3
				c0.1-0.2,0.3-0.4,0.4-0.6C150.4,130.6,149.5,129.8,148.3,129.2z"/>
			<path class="st2" d="M140,128.6c0,0,1.1,0.7,2.5,1.6c1.8,1.3,4,3.1,4.6,4.9c0,0-0.1-2.8-3.2-5.2c-0.7-0.5-1.4-1-2.4-1.4
				L140,128.6z"/>
			<path class="st2" d="M135.5,128.9c0,0,0.9,0.8,2.1,2c1.6,1.6,3.5,3.9,3.8,5.9c0,0,0.5-3-2.4-6c-0.5-0.5-1.1-1.1-1.8-1.6
				L135.5,128.9z"/>
			<path class="st2" d="M130.1,129.5c0,0,0.7,0.6,1.6,1.5c1.6,1.6,4,4.2,4.3,6.4c0,0,0.6-3.2-2.8-6.4c-0.4-0.4-0.9-0.8-1.5-1.2
				L130.1,129.5z"/>
			<path class="st2" d="M125.4,129.1c0,0,0.5,0.6,1.2,1.5c1.3,1.8,3.4,5,3.3,7.3c0,0,1.1-3.3-2-7.2c-0.3-0.4-0.6-0.7-1-1.1
				L125.4,129.1z"/>
			<path class="st2" d="M119.4,127.4c0,0,0.6,0.7,1.4,1.8c1.4,1.9,3.2,4.9,3.1,7.1c0,0,1.1-2.9-1.5-6.6c-0.4-0.6-0.9-1.2-1.5-1.8
				L119.4,127.4z"/>
			<path class="st2" d="M114.8,124.6c0,0,0.9,1.3,1.8,3c1,1.9,2.1,4.4,1.8,6.3c0,0,1.1-2.3-0.3-5.6c-0.4-0.9-1-2-1.9-3L114.8,124.6z
				"/>
			<path class="st8" d="M71.7,47.3c2.5,0.7,5,1.5,7.5,1.8c6.4,0.8,12.7-1.4,19-2.8c12.3-2.6,25.4-1.8,37.2,2.4c-9-4-18.9-5.7-28.7-5
				c-9.7,0.7-19.4,3.9-29,2.3c-2.5-0.4-4.9-1.1-7.4-1.6c-9.4-2.1-19.2-1.8-28.4,0.9C51.9,44,62.1,44.7,71.7,47.3z"/>
			<path class="st8" d="M88.6,54.8c3.6-0.8,7-2.1,10.6-2.6c4.7-0.7,9.4-0.1,14.1,0.5c6.2,0.8,12.5,1.5,18.7,2.3
				c-5-1.4-10.2-2.7-15.3-3.6c-4.2-0.8-8.4-1.4-12.6-1.3c-9.5,0.3-19,4.7-28.3,2.7c-2.2-0.5-4.3-1.3-6.5-1.9
				c-6.7-1.9-13.8-2.1-20.6-0.4c8.8-1.2,17.3,3.3,26,4.7C79.3,55.9,84.1,55.8,88.6,54.8z"/>
			<path class="st8" d="M92.9,57.6c-6.2,0.8-12.6,2-18.8,0.7c-2.1-0.4-4.1-1.1-6.1-1.6c-5-1.2-10.3-1.3-15.4-0.1
				c3.6,0.6,7.4,0.3,11,1.3c3.3,0.9,6.2,2.9,9.5,3.8c6,1.6,12.2-0.8,18.2-2c6.6-1.4,13.5-1.6,20.2-0.6
				C105.8,56.4,99.2,56.7,92.9,57.6z"/>
			<path class="st8" d="M75.9,68.2c-1.3,1.8-3.4,3.2-3.8,5.4c1.8-1.3,3.8-2.6,4.8-4.6c0.5-1,0.7-2,1-3c0.2-0.9,0.4-1.8,0.2-2.6
				C77.4,65,76.9,66.8,75.9,68.2z"/>
			<path class="st8" d="M80.3,78.6c-0.6,4-1.4,8.1-0.5,12.1c0-2.3,0-4.7,0.4-7c0.3-1.7,0.7-3.4,1.1-5c0.8-3.7,1.2-7.4,1.1-11.2
				c0-1-0.1-2.1-0.6-3C81.5,69.2,81,73.9,80.3,78.6z"/>
			<path class="st8" d="M86.6,78c0.2-3.8,0.8-7.8-0.8-11.2c0.4,3.4-0.1,6.8-0.3,10.2c-0.2,3.4-0.1,7,1.5,10C86.5,84,86.4,81,86.6,78
				z"/>
			<path class="st8" d="M90.7,67.6c0-0.4,0-0.9-0.2-1.3c-0.2-0.4-0.5-0.8-0.9-0.8c0.4,2.3,0.6,4.6,0.5,7c0,1,0,2.1,0.2,3.1
				c0.2,1,0.8,2,1.7,2.5C90.5,74.9,90.7,71.1,90.7,67.6z"/>
		</g>
		<g style="clip-path:url(#SVGID_00000153686942720317809110000006790639610728317319_);">
			<g>
				<path class="st9" d="M280-76.4l-23.5,24.9l9.4,7.2l18.3-29.6C282.7-74.6,281.3-75.5,280-76.4z"/>
			</g>
			<polygon class="st10" points="229.3,4.5 273.8,-53.3 263.1,-61.5 218.6,-3.7 			"/>
			<path class="st11" d="M257.2-62.6c-0.4,0.5-0.1,1.4,0.6,2L274.2-48c0.8,0.6,1.7,0.6,2.1,0.1l1.1-1.5c0.4-0.5,0.1-1.4-0.6-2
				L260.5-64c-0.8-0.6-1.7-0.6-2.1-0.1L257.2-62.6z"/>
			<polygon class="st12" points="184.6,51.9 214.9,13.9 213.2,12.6 184.3,51.6 			"/>
			
				<rect x="280.2" y="-80.9" transform="matrix(0.6096 -0.7927 0.7927 0.6096 169.5424 194.2713)" class="st10" width="3.5" height="11.8"/>
			<polygon class="st13" points="215,16 226.8,2.6 221.1,-1.8 211.2,13.1 			"/>
			<path class="st14" d="M269.8-65.6l-4.8,5l-4.5-3.4c-0.8-0.6-1.7-0.6-2.1-0.1l-1.1,1.5c-0.4,0.5-0.1,1.4,0.6,2l2.8,2.2l-3.4,4.5
				l10.4,8.6l3.8-4.9l2.8,2.2c0.8,0.6,1.7,0.6,2.1,0.1l1.1-1.5c0.4-0.5,0.1-1.4-0.6-2l-4.5-3.4l3.6-5.7L269.8-65.6z"/>
			<polygon class="st15" points="228.1,3.5 272.6,-54.3 268.2,-57 224.2,0.6 			"/>
			<path class="st16" d="M260.5-64c-0.8-0.6-1.7-0.6-2.1-0.1l-1.1,1.5c-0.4,0.5-0.1,1.4,0.6,2l2.8,2.2l10.7,8.2l2.8,2.2
				c0.8,0.6,1.7,0.6,2.1,0.1l1.1-1.5c0.4-0.5,0.1-1.4-0.6-2l-4.5-3.4l-7.4-5.7L260.5-64z"/>
		</g>
	</g>
	<g>
		<g>
			<path class="st11" d="M35.9,45.5c-0.1,0-0.1,0-0.2,0C34,45.1,33,45,33,45c-0.5-0.1-0.9-0.6-0.9-1.1c0.1-0.5,0.6-0.9,1.1-0.9
				c0,0,1.1,0.1,2.9,0.5c0.5,0.1,0.9,0.6,0.8,1.2C36.8,45.1,36.4,45.5,35.9,45.5z"/>
		</g>
		<g>
			<path class="st11" d="M74.1,75.5c-0.4,0-0.8-0.3-1-0.7c-0.5-2-1.2-4-2.1-5.9c-0.2-0.5,0-1.1,0.5-1.3c0.5-0.2,1.1,0,1.3,0.5
				c0.9,2,1.7,4.1,2.2,6.2c0.1,0.5-0.2,1.1-0.7,1.2C74.3,75.5,74.2,75.5,74.1,75.5z M68.7,63.9c-0.3,0-0.6-0.1-0.8-0.4
				c-1.2-1.7-2.6-3.2-4.1-4.7c-0.4-0.4-0.4-1,0-1.4c0.4-0.4,1-0.4,1.4,0c1.6,1.6,3.1,3.2,4.4,5c0.3,0.4,0.2,1.1-0.2,1.4
				C69.1,63.9,68.9,63.9,68.7,63.9z M59.4,55c-0.2,0-0.4-0.1-0.6-0.2c-1.7-1.2-3.5-2.3-5.4-3.3c-0.5-0.3-0.7-0.9-0.4-1.3
				c0.3-0.5,0.9-0.7,1.3-0.4c2,1,3.9,2.2,5.6,3.4c0.4,0.3,0.6,0.9,0.2,1.4C60.1,54.9,59.7,55,59.4,55z M48.1,49
				c-0.1,0-0.2,0-0.4-0.1c-1.9-0.8-3.9-1.5-6-2c-0.5-0.2-0.8-0.7-0.7-1.2c0.2-0.5,0.7-0.8,1.2-0.7c2.1,0.6,4.2,1.3,6.2,2.1
				c0.5,0.2,0.8,0.8,0.6,1.3C48.8,48.7,48.5,49,48.1,49z"/>
		</g>
		<g>
			<path class="st11" d="M75.3,83c-0.5,0-1-0.4-1-0.9c-0.1-1-0.1-1.9-0.3-2.8c-0.1-0.5,0.3-1,0.9-1.1c0.5-0.1,1,0.3,1.1,0.9
				c0.1,1,0.2,1.9,0.3,2.9C76.3,82.5,75.9,83,75.3,83C75.3,83,75.3,83,75.3,83z"/>
		</g>
	</g>
	<g>
		<path class="st11" d="M91.7,83c-0.1,0-0.2,0-0.3,0c-0.5-0.1-0.8-0.7-0.7-1.2c0-0.1,0.6-2.3,2.1-5.5c0.2-0.5,0.8-0.7,1.3-0.5
			c0.5,0.2,0.7,0.8,0.5,1.3c-1.4,3.1-2,5.2-2,5.3C92.5,82.7,92.1,83,91.7,83z M96.5,72.5c-0.2,0-0.3,0-0.5-0.1
			c-0.5-0.3-0.6-0.9-0.3-1.3c1-1.7,2.1-3.3,3.3-4.9c0.3-0.4,0.9-0.5,1.3-0.2c0.4,0.3,0.5,0.9,0.2,1.3c-1.1,1.5-2.2,3.1-3.2,4.7
			C97.1,72.3,96.8,72.5,96.5,72.5z M103.5,63.4c-0.2,0-0.5-0.1-0.7-0.3c-0.4-0.4-0.4-1,0-1.4c1.4-1.4,2.9-2.7,4.4-3.9
			c0.4-0.3,1-0.3,1.3,0.2c0.3,0.4,0.3,1-0.2,1.4c-1.5,1.1-2.9,2.4-4.2,3.8C104,63.3,103.8,63.4,103.5,63.4z M112.6,56.3
			c-0.3,0-0.7-0.2-0.8-0.5c-0.3-0.5-0.1-1,0.4-1.3c1.7-1,3.5-1.8,5.3-2.6c0.5-0.2,1.1,0,1.3,0.5c0.2,0.5,0,1.1-0.5,1.3
			c-1.7,0.7-3.4,1.5-5.1,2.5C112.9,56.3,112.8,56.3,112.6,56.3z M123.2,52c-0.4,0-0.8-0.3-0.9-0.7c-0.1-0.5,0.2-1,0.7-1.2
			c1.9-0.5,3.8-0.8,5.8-1.1c0.5-0.1,1,0.3,1.1,0.8c0.1,0.5-0.3,1-0.8,1.1c-1.9,0.2-3.8,0.6-5.5,1C123.4,52,123.3,52,123.2,52z"/>
	</g>
	<g>
		<path class="st11" d="M83,42.3l-0.4,0c-0.5,0-1-0.4-1-1c0-0.5,0.4-1,1-1c0,0,0,0,0,0l0.4,0c1.8,0,3.6-0.1,5.3-0.2
			c0.5,0,1,0.4,1,0.9c0,0.5-0.4,1-0.9,1C86.7,42.3,84.8,42.3,83,42.3z M76.8,42.1C76.8,42.1,76.8,42.1,76.8,42.1
			c-1.9-0.1-3.9-0.3-5.9-0.5c-0.5-0.1-0.9-0.5-0.8-1.1c0.1-0.5,0.6-0.9,1.1-0.8c1.9,0.2,3.9,0.4,5.7,0.5c0.5,0,0.9,0.5,0.9,1
			C77.7,41.7,77.3,42.1,76.8,42.1z M94,41.4c-0.5,0-0.9-0.3-0.9-0.8c-0.1-0.5,0.3-1,0.8-1.1c1.9-0.3,3.8-0.8,5.5-1.3
			c0.5-0.2,1,0.1,1.2,0.6c0.2,0.5-0.1,1-0.6,1.2c-1.8,0.6-3.7,1-5.7,1.4C94.2,41.4,94.1,41.4,94,41.4z M65.3,40.8
			c-0.1,0-0.1,0-0.2,0c-2-0.3-3.9-0.7-5.7-1.1c-0.5-0.1-0.9-0.6-0.8-1.1c0.1-0.5,0.6-0.9,1.1-0.8c1.7,0.4,3.6,0.7,5.6,1
			c0.5,0.1,0.9,0.6,0.8,1.1C66.2,40.4,65.8,40.8,65.3,40.8z M54,38.5c-0.1,0-0.2,0-0.2,0c-3.5-0.8-5.6-1.5-5.6-1.5
			c-0.5-0.2-0.8-0.7-0.6-1.2c0.2-0.5,0.7-0.8,1.2-0.6c0,0,2.1,0.7,5.5,1.5c0.5,0.1,0.8,0.6,0.7,1.2C54.8,38.2,54.5,38.5,54,38.5z
			 M104.9,37.8c-0.3,0-0.7-0.2-0.8-0.5c-0.3-0.5-0.1-1.1,0.4-1.3c1-0.5,1.9-1.1,2.7-1.8c0.4-0.3,1-0.2,1.3,0.2
			c0.3,0.4,0.2,1-0.2,1.3c-0.9,0.7-1.9,1.3-3,1.9C105.3,37.8,105.1,37.8,104.9,37.8z"/>
	</g>
</g>
</svg>
