<?xml version="1.0" encoding="utf-8"?>
<!-- Generator: Adobe Illustrator 25.4.8, SVG Export Plug-In . SVG Version: 6.00 Build 0)  -->
<svg version="1.1" id="Layer_1" xmlns="http://www.w3.org/2000/svg" xmlns:xlink="http://www.w3.org/1999/xlink" x="0px" y="0px"
	 viewBox="0 0 191.3 261.1" style="enable-background:new 0 0 191.3 261.1;" xml:space="preserve">
<style type="text/css">
	.st0{opacity:6.000000e-02;}
	.st1{fill:url(#SVGID_1_);}
	.st2{clip-path:url(#SVGID_00000095307832430181854560000007912319320874901637_);}
	.st3{fill:url(#SVGID_00000151526022883044184090000003901729916897250962_);}
	.st4{fill:#5F74B2;}
	.st5{fill:#DEEAFE;}
	.st6{fill:#1D72D8;}
	.st7{fill:url(#R_trousers_2_-i2_00000003807943781146553740000011666443833354064532_);}
	.st8{fill:url(#neck-i2_00000019652672626321511910000013114016923717181106_);}
	.st9{fill:#FFBEB6;}
	.st10{fill:url(#eyeglasses-i2_00000119094175861606966090000011030497894384668811_);}
	.st11{fill:#23286B;}
	.st12{fill:url(#R_shoe_1_-i2_00000060006966960759196180000016366509784229415337_);}
	.st13{fill:#FFFFFF;}
	.st14{fill:url(#SVGID_00000034058805326051270660000010367186286199067560_);}
	.st15{fill:#428DFC;}
	.st16{fill:url(#SVGID_00000096747439185921045840000000613421689539255184_);}
	.st17{fill:url(#SVGID_00000015321860349063221770000001769634477430678149_);}
	.st18{fill:#E7EFFE;}
</style>
<g>
	<g class="st0">
		<linearGradient id="SVGID_1_" gradientUnits="userSpaceOnUse" x1="0" y1="135.7491" x2="191.2937" y2="135.7491">
			<stop  offset="0" style="stop-color:#5F74B1"/>
			<stop  offset="0.2466" style="stop-color:#7A90D2"/>
			<stop  offset="0.4903" style="stop-color:#8FA6EB"/>
			<stop  offset="0.7125" style="stop-color:#9CB3FA"/>
			<stop  offset="0.8936" style="stop-color:#A0B7FF"/>
		</linearGradient>
		<path class="st1" d="M186.8,156.1c-17.1,16.1-22.1,41.2-35.4,60.6c-10.3,14.9-25.9,26.4-43.6,30.5s-37.2,0.8-51.8-10
			c-18.9-14-27.5-37.6-34.9-59.8C9.9,144.2-1.2,110,0.1,75c0.5-13,3-26.6,11.6-36.3c6.8-7.7,16.6-12.2,26.6-14.4
			c18.4-4.1,38.6-1,53.8,10.2c12.8,9.4,21.5,23.9,35.2,32c12.9,7.7,29.3,9.1,40.6,19c8.2,7.1,12.5,17.6,16.5,27.7
			c5.4,13.7,10.7,29.8,3.1,42.4"/>
	</g>
	<g>
		<g transform="translate(660.0 179.0) rotate(0.0 -189.0 582.0) scale(-2.3333333333333335 2.328)">
			<g>
				<defs>
					<rect id="SVGID_00000078008133448615248610000007691936364561462436_" x="204.2" y="-151.4" width="84.8" height="261.1"/>
				</defs>
				<clipPath id="SVGID_00000112597697825788290780000007496039781056290471_">
					<use xlink:href="#SVGID_00000078008133448615248610000007691936364561462436_"  style="overflow:visible;"/>
				</clipPath>
				<g transform="translate(-0.0 -0.0)" style="clip-path:url(#SVGID_00000112597697825788290780000007496039781056290471_);">
					
						<linearGradient id="SVGID_00000049181585947849763970000018327954515274279329_" gradientUnits="userSpaceOnUse" x1="-1464.9573" y1="-413.8417" x2="-1442.7812" y2="-378.4087" gradientTransform="matrix(0.3507 0 0 -0.3499 771.5862 -194.0222)">
						<stop  offset="0" style="stop-color:#FFBEB6"/>
						<stop  offset="1" style="stop-color:#F2A19C"/>
					</linearGradient>
					<path style="fill:url(#SVGID_00000049181585947849763970000018327954515274279329_);" d="M247.7-52.7c0.7,3.4,4,6,3.9,9.4
						c1.5,0.8,3.3,0.4,5,0c0.8-0.2,1.6-0.4,2.3-0.8c1-0.6,1.8-1.7,2.3-2.8c0.9-1.9,1.3-4.1,1.7-6.2c0.1-0.6,0.4-1.2,0.2-1.7
						c-1.8-3.9-1.3-3.6-1.8-4.9c-0.3-0.8-1.2,0.1-1.6,0.3c-0.1-0.8-0.2-1.5-0.2-2.3c-0.1-0.4-0.4-0.4-0.5-0.4
						c-0.3,0-0.5,0.3-0.6,0.6c-0.1,0.3-0.1,0.6,0,0.9c0.1,0.8,0.2,1.5,0.3,2.2c1.1,5-1.1,9.3-2.1,10.8c-0.9,1.4-4.2-0.4-5.1-1.3
						C250.1-50.3,248.9-51.5,247.7-52.7z"/>
					<polygon class="st4" points="254,-64.1 264.8,-54.8 252.3,-40.4 241.5,-49.8 					"/>
					<path class="st5" d="M234.9-61.8c-0.8,3.9,0,8,1.5,11.6c1.5,3.7,3.7,7,5.9,10.3c4.1-0.1,8.2-0.5,12.2-1.1
						c-0.9-7.4-5.5-13.7-10.3-19.4c-0.9-1.1-3.4-3.7-3.4-3.7s-2.2-0.5-3.5-0.2c-0.2,0-0.8-0.1-0.8-0.1s-0.8,0.8-1.1,1.2
						C235.1-62.7,235-62.3,234.9-61.8z"/>
					<g id="shoes_2_-i2_00000157277594016227124870000003820701514244437911_">
						<path id="R_shoe_2_-i2_00000065753782123181660460000010590414871681825468_" class="st6" d="M237.5,27.3l6.6,0
							c0,0,2.8,3,6.2,4.5c3.4,1.5,4.5,3.5,4.5,3.5l-20.1,0L237.5,27.3"/>
					</g>
					
						<linearGradient id="R_trousers_2_-i2_00000080167540225612158130000012068443574861599158_" gradientUnits="userSpaceOnUse" x1="-1487.319" y1="-554.0434" x2="-1402.5598" y2="-554.0434" gradientTransform="matrix(0.3507 0 0 -0.3499 771.5862 -194.0222)">
						<stop  offset="0" style="stop-color:#28306D"/>
						<stop  offset="0.51" style="stop-color:#1F275F"/>
						<stop  offset="1" style="stop-color:#171F51"/>
					</linearGradient>
					
						<path id="R_trousers_2_-i2_00000069358206039315178620000004712693563705343895_" style="fill:url(#R_trousers_2_-i2_00000080167540225612158130000012068443574861599158_);" d="
						M250-27c-2.6,0-5.2-0.2-7.7-0.8c0,0-1.6,3.5-2.1,3c0.1,3.1,0.1,7.3-0.1,10.6c1.4,9.1,1.3,10.9-0.4,14.8c-0.7,3.5-1.1,5.7-0.6,9
						c0.5,3.3-0.7,2.4-1,6.7c-0.3,4.3-0.8,10.9-0.8,10.9h6.8c0,0,5.3-23.4,5.4-28.5C249.1-5.5,249.5-18.6,250-27z"/>
					<g id="head-i2_00000099643559169007831180000003516816040039676863_">
						
							<linearGradient id="neck-i2_00000146484973953827470320000012553719435577131945_" gradientUnits="userSpaceOnUse" x1="2200.5879" y1="612.3287" x2="2215.3113" y2="527.8282" gradientTransform="matrix(-0.1948 0 0 0.1944 666.7051 -179.5079)">
							<stop  offset="0" style="stop-color:#FFBEB6"/>
							<stop  offset="1" style="stop-color:#F2A19C"/>
						</linearGradient>
						
							<path id="neck-i2_00000083809041554889049910000013893314092808068014_" style="fill:url(#neck-i2_00000146484973953827470320000012553719435577131945_);" d="
							M237.2-69.2l-0.7,4.9l0,0c2.2,2.1,4.4,0.3,4.4,0.3c-0.9-1.2-0.4-3.1-0.4-3.1L237.2-69.2z"/>
						<path id="face-i2_00000114785828820857953700000007727292875754430377_" class="st9" d="M244-72.7c0,0-0.3,1.7-3.1,2.2
							c-2.6,0.5-3.2,1.5-3.4,4c0.9,0.9,2.5,1.4,3.8,0.9c1.4-0.5,2.1-1.8,2.4-1.8c0.3,0,0.9,0,1-0.3c0.1-0.3-0.5-1.4-0.4-2.5
							c0-0.1,0-0.2,0-0.3c0,0,0,0,0,0c0,0,0,0,0-0.1C244.4-71.3,244.3-72,244-72.7z"/>
						
							<linearGradient id="eyeglasses-i2_00000139291051928325588910000014655921864943565962_" gradientUnits="userSpaceOnUse" x1="-1498.4738" y1="-356.4276" x2="-1469.0934" y2="-356.4276" gradientTransform="matrix(0.3507 0 0 -0.3499 771.5862 -194.0222)">
							<stop  offset="0" style="stop-color:#28306D"/>
							<stop  offset="0.51" style="stop-color:#1F275F"/>
							<stop  offset="1" style="stop-color:#171F51"/>
						</linearGradient>
						
							<path id="eyeglasses-i2_00000182500303403245964730000010209124424867179178_" style="fill:url(#eyeglasses-i2_00000139291051928325588910000014655921864943565962_);" d="
							M244.9-68.7c0,0-0.1,0-0.1-0.1c-0.3-0.2-0.4-0.5-0.4-0.9c-0.3,0-0.5,0.1-0.7,0.3c0,0.2,0,0.4-0.1,0.6
							c-0.1,0.3-0.3,0.5-0.5,0.7c-0.2,0.2-0.5,0.2-0.8,0.1c-0.1,0-0.1,0-0.2-0.1c-0.2-0.1-0.3-0.3-0.4-0.5c-0.1-0.3-0.1-0.6,0-0.9
							c0.2-0.6,0.8-1,1.3-0.8c0.3,0.1,0.5,0.3,0.5,0.6c0,0,0,0.1,0,0.1c0.2-0.2,0.5-0.3,0.8-0.3c0-0.1,0-0.1,0-0.2
							c0.2-0.5,0.7-0.9,1.1-0.7h0c0.4,0.2,0.6,0.7,0.4,1.3C245.8-68.9,245.3-68.6,244.9-68.7z M242.9-68.2c0.5-0.3,0.7-0.9,0.5-1.4
							c-0.1-0.2-0.2-0.3-0.3-0.4c0,0-0.1,0-0.1-0.1c-0.4-0.1-0.9,0.2-1.1,0.7c-0.1,0.3-0.1,0.5,0,0.8c0,0.1,0.1,0.2,0.1,0.2
							C242.2-68,242.6-67.9,242.9-68.2L242.9-68.2z M244.9-68.9c0.4,0.1,0.8-0.1,0.9-0.6c0.2-0.5,0-0.9-0.4-1.1
							c-0.4-0.1-0.8,0.1-0.9,0.6C244.4-69.5,244.6-69,244.9-68.9L244.9-68.9z"/>
						<path id="hair-i2_00000070828747878693415350000012688580147683904700_" class="st11" d="M244.4-70.5c0-0.7-0.1-1.5-0.4-2.1
							c0,0-0.3,1.7-3.1,2.2c-0.6,0.1-1.2,0.3-1.7,0.5c-1.2,1-1.6,2.8-1,4.3c0,0.1-0.1,0.2-0.1,0.1c-0.6-1.2-0.4-2.7,0.3-3.8
							c-0.7,0.7-0.9,1.8-0.9,3.5c0,0-4.4-0.2-7.4-3.5c0.4-0.8,1-1.5,1.8-1.9c0.3-0.2,0.5-0.4,0.8-0.6c-0.9,0.7-2.5,0.9-2.7,2.3
							c0,0.1-0.2,0.1-0.2,0c0.1-0.9,0.8-1.4,1.5-1.8c0.7-0.3,1.3-0.6,1.8-1.2c0.1-0.1,0.2-0.3,0.3-0.4c0.4-0.7,0.8-1.4,1.2-2.1
							c0.4-0.7,2.5-2.5,5.2-1.8C242.6-75.9,245.7-74.1,244.4-70.5z"/>
					</g>
					<g id="shoes_1_-i2_00000068663159955862905770000010194516969745462458_">
						
							<linearGradient id="R_shoe_1_-i2_00000005960984666574170340000007562699205725394862_" gradientUnits="userSpaceOnUse" x1="-1491.5211" y1="-643.9747" x2="-1357.8306" y2="-643.9747" gradientTransform="matrix(0.3507 0 0 -0.3499 771.5862 -194.0222)">
							<stop  offset="0" style="stop-color:#3E8AF8"/>
							<stop  offset="1" style="stop-color:#1479F2"/>
						</linearGradient>
						
							<path id="R_shoe_1_-i2_00000057827756309402797860000002962199140468075916_" style="fill:url(#R_shoe_1_-i2_00000005960984666574170340000007562699205725394862_);" d="
							M231.3,27.3l6.6,0c0,0,2.8,3,6.2,4.5c3.4,1.5,4.5,3.5,4.5,3.5l-20.1,0L231.3,27.3"/>
					</g>
					<path id="R_trousers_1_-i2_00000107571436455011889470000010942948541763765946_" class="st11" d="M252.7-33.1
						c-3.6,0-7.2-0.2-10.8-0.8c0,0-1.9-0.2-2.8,1.1c-0.1,3.1-2.7,15.3-2.2,18.7c1.3,9.6,0.3,10.5-2,14.8c-1.8,3.3-2.1,5.7-1.8,9
						c0.3,3.3-1.2,2.4-2.1,6.7c-0.8,4.3,0.2,10.9,0.2,10.9h6.6c0,0,10.4-23.4,10.9-28.4C248.7-5.5,251.2-24.8,252.7-33.1z"/>
					<path class="st5" d="M229.4-12.4c1.9-6.4,4.6-12.7,8-18.5c1.8-3.1,3.9-6.2,4.4-9.8c4.3-0.1,8.4-0.3,12.8-0.4
						c1.8,10.9-0.8,22.1-3.6,32.8c-0.1,0.3-0.2,0.7-0.5,0.9c-0.3,0.2-0.6,0.1-0.9,0C242.8-8.7,236-10.4,229.4-12.4z"/>
					<polygon class="st13" points="240.1,-61.9 240.8,-62.8 241.7,-62 241,-61.1 					"/>
					<polygon class="st13" points="243,-57.9 243.7,-58.8 244.6,-58 243.9,-57.1 					"/>
					<polygon class="st13" points="246,-53.2 246.7,-54.1 247.6,-53.4 246.9,-52.5 					"/>
					<polygon class="st13" points="248.5,-47.7 249.2,-48.6 250.1,-47.9 249.4,-47 					"/>
					<polygon class="st13" points="252.1,-34.7 252.8,-35.6 253.7,-34.9 253,-34 					"/>
					<polygon class="st13" points="251.8,-27 252.5,-27.9 253.4,-27.2 252.7,-26.3 					"/>
					<g>
						<path class="st13" d="M241.1-38.7L241.1-38.7l-0.1-0.1c0.1-0.2,0.2-0.3,0.3-0.5c-0.2,0.1-0.4,0.1-0.7,0.2l0,0.1l-0.6,0.1
							l-0.1-0.2c0.5-0.2,1.1-0.4,1.6-0.6c0.5-0.4,1.1-0.6,1.6-0.7c3.7-1,7.6-1.2,11.4-0.7l0,0.2c-3.7-0.5-7.6-0.2-11.3,0.7
							c-0.3,0.1-0.7,0.2-1,0.3c0.8-0.2,1.7-0.2,2.5-0.3c1.1-0.1,2.2-0.1,3.3-0.2c1,0,2.3,0,3.4,0.1c1.2,0.2,2.3,0.6,3.3,1.1
							l-0.1,0.2c-1.6-0.8-3.5-0.9-6.1-0.6c-0.7,0.1-1.3,0.2-2,0.3c-1.4,0.3-2.8,0.5-4.3,0.5c0,0-0.1,0-0.1,0
							C242-38.5,241.5-38.5,241.1-38.7z M252.8-39.7c-0.4-0.1-0.8-0.2-1.2-0.3c-1.1-0.2-2.4-0.2-3.4-0.1c-1.1,0-2.2,0.1-3.3,0.2
							c-1,0.1-2.1,0.2-3.1,0.4c-0.2,0.2-0.4,0.4-0.5,0.6c0.4,0.2,0.8,0.2,1.2,0.2c1.4,0,2.8-0.3,4.2-0.5c0.7-0.1,1.3-0.2,2-0.3
							c0.9-0.1,1.7-0.2,2.4-0.2C251.8-39.8,252.3-39.7,252.8-39.7z"/>
					</g>
					
						<linearGradient id="SVGID_00000127737616314935640360000006802594752717355671_" gradientUnits="userSpaceOnUse" x1="-1452.627" y1="-387.5972" x2="-1425.396" y2="-403.4002" gradientTransform="matrix(0.3507 0 0 -0.3499 771.5862 -194.0222)">
						<stop  offset="0" style="stop-color:#FFBEB6"/>
						<stop  offset="1" style="stop-color:#F2A19C"/>
					</linearGradient>
					<path style="fill:url(#SVGID_00000127737616314935640360000006802594752717355671_);" d="M257.5-57.4c0.3,0.1,0.5,0.1,0.6,0.1
						c0.3-0.1,0.6-0.3,0.8-0.5c0.2-0.2-0.1,0.1-0.6,0.5c-0.1,0.1-0.2,0.2-0.3,0.3c-0.1,0.1,0,0.3,0.1,0.4c0.3,0.2,0.4,0.2,0.6,0.2
						c0.3,0,0.6-0.2,0.9-0.3c0.3-0.1,0.6-0.3,0.9-0.4c-0.3,0.2-0.5,0.5-0.9,0.8c-0.1,0.1-0.2,0.2-0.2,0.3c0,0.1,0,0.3,0.1,0.3
						c0.2,0.1,0.4,0.1,0.5,0.1c0.2-0.1,0.4-0.1,0.4,0c0,0.1,0,0.2,0.1,0.3c0.2,0.1,0.3,0.2,0.5,0.1c0.2,0,0.4-0.1,0.7-0.3
						c0.5-0.2,1-0.3,1.5-0.6c0.2-0.1,0.4-0.5,0.4-0.7c0-0.2-0.2-0.4-0.4-0.5c-0.1-0.1-0.2-0.1-0.4-0.2c0,0,0-0.1,0-0.2
						c0-0.2-0.3-0.5-0.5-0.5c-0.2,0-0.2,0-0.3,0.1c0.1-0.1,0.1-0.2,0.1-0.4c0-0.2-0.3-0.6-0.6-0.7c-0.3,0-0.1,0-0.6,0.2
						c-0.1,0-0.1,0.1-0.2,0.1c0,0,0.1,0,0.1-0.1c0.2-0.2,0.4-0.7,0.3-0.9c-0.1-0.2-0.4-0.5-0.6-0.6c-0.3,0-0.3,0.1-0.6,0.3
						c-1,0.6-1.5,1.1-2.3,1.9c-0.1,0.1-0.2,0.2-0.2,0.4C257.3-57.6,257.4-57.5,257.5-57.4z"/>
					<g>
						<path class="st11" d="M241.4-53.3c0.2-0.3,0.4-0.7,0.6-1c0.3-0.4,0.5-0.8,0.7-1.2c0.7-1.6,0.4-3.4,0-5.4
							c-0.3-1.6-1.8-3.5-2.1-3.5c0,0,0,0,0,0l-0.1-0.2c0.1,0,0.2,0,0.3,0c0.6,0.3,1.8,2.2,2.1,3.6c0.4,2,0.7,3.9-0.1,5.5
							c-0.2,0.4-0.5,0.8-0.7,1.2c-0.2,0.3-0.4,0.6-0.6,0.9c-0.2,0.4-0.7,1.4-0.2,2.3l-0.2,0.1C240.7-51.7,241.2-52.8,241.4-53.3z"/>
					</g>
					<ellipse class="st11" cx="241.3" cy="-49.9" rx="2.6" ry="2.6"/>
					<g>
						<path class="st15" d="M243.2-45.7l0.2,0c-0.1,1.4-0.3,5.7,3.4,6.4l0,0.2C244.2-39.6,242.9-41.8,243.2-45.7z"/>
					</g>
					<g>
						<path class="st15" d="M242.6-39.1v-0.2c0.2,0,1.2-0.3,2.1-1.2c0.8-0.8,1.6-2.4,1.3-5.1l0.2,0c0.3,2.8-0.6,4.4-1.4,5.3
							C244-39.4,242.9-39.1,242.6-39.1L242.6-39.1z"/>
					</g>
					<g>
						<path class="st11" d="M243-46.1c0-0.9,0.8-1.7,1.7-1.7h0.1c0.9,0,1.7,0.8,1.7,1.7v1H246v-1c0-0.7-0.6-1.2-1.2-1.2h-0.1
							c-0.7,0-1.2,0.6-1.2,1.2v1H243V-46.1z"/>
					</g>
					<rect x="246.7" y="-38.8" class="st15" width="0.8" height="-0.8"/>
					<rect x="242.1" y="-38.8" class="st15" width="0.8" height="-0.8"/>
					
						<linearGradient id="SVGID_00000140730655440029120950000001431179612258919334_" gradientUnits="userSpaceOnUse" x1="-1504.0754" y1="-436.5518" x2="-1415.8788" y2="-436.5518" gradientTransform="matrix(0.3507 0 0 -0.3499 771.5862 -194.0222)">
						<stop  offset="0" style="stop-color:#FFBEB6"/>
						<stop  offset="1" style="stop-color:#F2A19C"/>
					</linearGradient>
					<path style="fill:url(#SVGID_00000140730655440029120950000001431179612258919334_);" d="M230.9-59.2c0.2,4.6,1.4,9.2,3.3,13.3
						c1.6,3.3,4.1,7.5,5.7,10.8c0.8,1.8,1.6,4.2,1.9,6.2c0.2,1.5,0.3,4.3-0.5,5.3c-0.3,0.4-0.6,0.7-0.9,1h3.8
						c-0.3-0.9-0.5-1.9-0.5-1.9c0.1-5.9,0.2-11.8-1.1-16.9c-0.9-3.5-2.8-6.1-4.5-9.8c-0.8-1.7-1.7-6.6-3.3-7.7
						C233.3-60.1,232.5-60.2,230.9-59.2z"/>
					
						<linearGradient id="SVGID_00000067222448808115306170000015049566455032252568_" gradientUnits="userSpaceOnUse" x1="-1522.8885" y1="-405.9631" x2="-1463.359" y2="-474.1021" gradientTransform="matrix(0.3507 0 0 -0.3499 771.5862 -194.0222)">
						<stop  offset="0" style="stop-color:#DEEAFE"/>
						<stop  offset="1" style="stop-color:#A1C3FC"/>
					</linearGradient>
					<path style="fill:url(#SVGID_00000067222448808115306170000015049566455032252568_);" d="M236.5-64.4c0.2,1.5,0.4,2.8,0.6,4.3
						c0.2,1.6,1.4,4.9,1.3,5c0.9,5.1,2.1,8.7,4.9,13.1c-2.4,1.4-5.7,3.3-6.7,5.5c-2.2-4.7-4-9.6-5.4-14.6c-0.7-2.6-1.4-5.5-0.7-8.1
						c0.7-2.7,2.6-5,5.4-5.2C236.1-64.4,236.3-64.4,236.5-64.4z"/>
					<path class="st18" d="M238.1-15.7c0.2-4.3,0.5-8.6,0.7-12.9c3,0.1,6,0.2,9,0.3c-0.2,1.4-0.8,9.4-1.1,13.1
						C243.9-15.5,241-15.7,238.1-15.7z"/>
					<g>
						<path class="st11" d="M244.7-47.5c0.2-1.7,0.2-3.4-0.2-5.1c-0.2-1-0.4-1.7-0.8-2.3c-0.4-0.6-0.9-1.2-1.4-1.7
							c-1-1-2-1.9-3.2-2.7c-0.2-0.1-0.4-0.3-0.6-0.4c-1.2-0.9-2.5-1.8-3.2-3.2c-0.2-0.5-0.4-1.2-0.2-1.8c0.2-0.6,0.8-1.1,1.5-1
							l0,0.2c-0.5-0.1-1.1,0.3-1.3,0.8c-0.2,0.6,0,1.2,0.2,1.7c0.6,1.3,1.9,2.2,3.1,3.1c0.2,0.1,0.4,0.3,0.6,0.4
							c1.1,0.8,2.2,1.7,3.2,2.7c0.5,0.5,1,1.1,1.4,1.7c0.4,0.6,0.6,1.4,0.8,2.4c0.3,1.7,0.4,3.4,0.2,5.2L244.7-47.5z"/>
					</g>
				</g>
			</g>
		</g>
	</g>
</g>
</svg>
