<?xml version="1.0" encoding="utf-8"?>
<!-- Generator: Adobe Illustrator 25.4.8, SVG Export Plug-In . SVG Version: 6.00 Build 0)  -->
<svg version="1.1" id="Layer_1" xmlns="http://www.w3.org/2000/svg" xmlns:xlink="http://www.w3.org/1999/xlink" x="0px" y="0px"
	 viewBox="0 0 166.6 166.6" style="enable-background:new 0 0 166.6 166.6;" xml:space="preserve">
<style type="text/css">
	.st0{clip-path:url(#SVGID_00000018223430642737624250000012524555943683070140_);}
	.st1{opacity:0.18;}
	.st2{fill:url(#SVGID_00000084517868283262068600000007452786486944377513_);}
	.st3{fill:#4A407F;}
	.st4{opacity:0.3;}
	.st5{fill:#FDA687;}
	.st6{opacity:0.1;}
	.st7{opacity:0.7;}
	.st8{opacity:0.2;}
	.st9{opacity:0.3;fill:#FFEEE0;}
	.st10{fill:#F67F79;}
	.st11{fill:#D35A5A;}
	.st12{opacity:0.2;fill:#FFFFFF;}
	.st13{fill:#F08262;}
	.st14{opacity:0.4;}
	.st15{fill:url(#SVGID_00000133504672593295649140000008294109996555945630_);}
	.st16{fill:#C4574B;}
</style>
<g>
	<defs>
		<circle id="SVGID_1_" cx="83.3" cy="83.3" r="83.3"/>
	</defs>
	<clipPath id="SVGID_00000000941529937419443160000006311962346328240039_">
		<use xlink:href="#SVGID_1_"  style="overflow:visible;"/>
	</clipPath>
	<g style="clip-path:url(#SVGID_00000000941529937419443160000006311962346328240039_);">
		<g class="st1">
			
				<linearGradient id="SVGID_00000123410367374577552090000013902550208327573905_" gradientUnits="userSpaceOnUse" x1="-59.8217" y1="96.5473" x2="250.4273" y2="96.5473">
				<stop  offset="0" style="stop-color:#5F74B1"/>
				<stop  offset="0.2466" style="stop-color:#7A90D2"/>
				<stop  offset="0.4903" style="stop-color:#8FA6EB"/>
				<stop  offset="0.7125" style="stop-color:#9CB3FA"/>
				<stop  offset="0.8936" style="stop-color:#A0B7FF"/>
			</linearGradient>
			<circle style="fill:url(#SVGID_00000123410367374577552090000013902550208327573905_);" cx="95.3" cy="96.5" r="155.1"/>
		</g>
		<g>
			<path class="st3" d="M136.8,52.1c-0.4,4.9-1.1,9.7-1.9,14.5c-0.7,4.2-1.1,8.7-3.3,12.5c-0.8,1.4-1.9,2.6-3.1,3.6
				c-3.5,3.8-8.8,4.9-13.7,3.9c-6.1-1.2-11.1-5-15.9-8.7c-4.6-3.5-9.6-7.2-15.5-8c-5.9-0.8-11.4,2-16.3,4.9
				c-5.1,3-10.2,6.4-16.2,7.4c-2.9,0.5-5.9,0.3-8.6-0.7c-2.4-0.9-4.6-2.5-6.3-4.5c-3.8-4.1-6.1-9.5-7.5-14.9
				c-1.4-5.7-1.7-11.8-0.7-17.6c0.5-3,1.3-5.8,2.4-8.6c1.1-2.8,0.6-14.7,1.1-17.6C34.4,0.1,53-4.2,59-5.8c5.9-1.6,11.5-4.1,17.5-5.5
				c2.9-0.7,5.9-1.1,9-0.9c3,0.2,5.9,0.9,8.7,2c2.9,1.1,5.6,2.5,8.2,4c2.6,1.4,5.2,2.9,7.7,4.4c5,3,9.9,6.2,14,10.4
				c5.1,5.3,8.5,11.8,10.4,18.8C137.2,35.3,137.5,43.8,136.8,52.1z"/>
			<path class="st4" d="M97.5,14.6c2.1-1.7,5.1-4,7-5.8c2-1.8,4.6-4.6,6.4-6.5C108.6,8.1,103.4,12.8,97.5,14.6L97.5,14.6z"/>
			<path class="st4" d="M99.9,14.6c6.2-3.2,11.7-8,17.8-11.3c0,0-0.7,1.9-0.7,1.9c-1.9,5-5.8,9.2-10.7,11.3c0,0-0.4-1.4-0.4-1.4
				c2.9-0.3,5.8-0.8,8.7-1.5c2.8-0.8,6-1.2,7.9-3.5c-0.7,1.3-2.1,2.2-3.5,2.9c-5.4,2.6-11.6,3.5-17.5,4.2c0,0,4.1-2,4.1-2
				c4.5-2.1,8.1-5.9,10-10.5c0,0,1,0.9,1,0.9C111.1,8.5,106,12.5,99.9,14.6L99.9,14.6z"/>
			<path class="st4" d="M71.6,15.4C63.1,12.9,55.8,7,49.9,0.6c0,0,1.3-0.5,1.3-0.5c0.3,5.4,3.2,10.5,7.5,13.7c0,0,1.8,1.4,1.8,1.4
				l-2.3,0C51,15,43.6,11.6,39,5.9c5.2,4.9,12.1,7.7,19.2,7.6c0,0-0.4,1.3-0.4,1.3c-3.6-2.5-6.2-6.3-7.4-10.5
				c-0.6-2-0.7-4.3-0.8-6.4c3.2,3.9,6.9,7.5,10.8,10.6C63.9,11.3,67.5,13.8,71.6,15.4L71.6,15.4z"/>
			<path class="st4" d="M38.2,9.9c4.5,3.1,9.3,5,14.6,6C47.4,17.3,41.1,14.7,38.2,9.9L38.2,9.9z"/>
			<path class="st4" d="M35.5,15.8c4.9,1.3,9.8,1.7,14.8,1.2C45.9,19.7,39.5,19.2,35.5,15.8L35.5,15.8z"/>
		</g>
		<path class="st3" d="M150,163.6c0.1,8.7-2.6,17.4-7.6,24.5c-5,7.1-12.3,12.5-20.6,15.3c0-7.7-5.7-14-10.2-20.3
			c-10.5-14.7-15.3-33.5-13.1-51.5c2.1-17.5,10.9-34.1,24-45.8c-0.4,13.6,6.3,26.5,13,38.5C142.5,136.6,149.8,149.5,150,163.6z"/>
		<g>
			<path class="st5" d="M134.5,76.9c0,1.1-0.2,2.2-0.4,3.2c-0.3,1.1-0.6,2.1-1,3.1c-1.5,3.9-3.1,7.8-4.7,11.7
				c-0.3,0.7-0.5,1.3-0.9,1.9c-1.2,2-3.6,3.3-6,3.3c-0.1,0-0.2,0-0.2,0h0c-0.6,2.9-1.1,5.8-1.7,8.7c-1,5.2-2.1,10.7-4.9,15.2
				c-0.5,0.8-1,1.5-1.6,2.3c-1.5,1.8-3.4,3.3-5.4,4.6c-0.1,0-0.1,0.1-0.2,0.1c0,0,0,0,0,0c-1.2,0.8-2.5,1.6-3.7,2.4
				c-2.5,1.5-5,3-7.5,4.6c-3.8,2.3-7.9,4.7-12.2,5l0,0.1c-5.3,0.7-10.4-2.2-14.9-5c-2.5-1.5-5-3-7.5-4.6c-1.3-0.8-2.5-1.5-3.7-2.4
				c0,0,0,0,0,0c-2-1.4-3.9-2.9-5.5-4.7c-0.6-0.7-1.1-1.4-1.6-2.2c0,0,0,0,0,0v0c-2.8-4.5-3.9-9.9-4.9-15.2
				c-0.6-2.9-1.1-5.8-1.7-8.7h0c-0.1,0-0.2,0-0.3,0c-2.4,0-4.7-1.3-6-3.3c-0.4-0.6-0.6-1.3-0.9-1.9c-1.6-3.9-3.2-7.8-4.7-11.7
				c-0.4-1-0.8-2-1-3.1c-0.3-1.1-0.4-2.2-0.4-3.2c0-1,0.1-2.1,0.3-3.1c0.3-1.6,0.9-3.1,2-4.2c1-1,2.6-1.6,4-1.2
				c2.9-5.5,2.5-12.1,2.6-18.3c0.2-9.6,2.2-19.8,8.6-27c2-2.2,4.3-4.1,7.1-5.2c4.3-1.7,9-1.4,13.5-0.8c4.5,0.6,22.8,0.4,27.3-0.2
				c4.5-0.6,9.3-0.9,13.5,0.8c2.7,1.1,5.1,3,7.1,5.2c6.4,7.2,8.4,17.3,8.6,27c0.1,6.2-0.3,12.8,2.6,18.3c1.4-0.4,3,0.2,4,1.2
				c1.1,1.1,1.7,2.7,2,4.2C134.4,74.9,134.5,75.9,134.5,76.9z"/>
			<path class="st4" d="M44.2,100.4c-1.9-1.7-2.1-4-2.1-4c-2,0.7-5.9-1.1-5.7-7.1c0.2-6.1-0.1-8.6-1.7-9.9c-1.6-1.3-1.8,1.2-1.8,1.2
				c-1.8-6.4-0.2-7.9-0.2-7.9c2.5-1.9,6.7,11.3,5.6,15.5c-1.2,4.2,0.9,7.3,2.7,6.5c1-0.5,0.4-7.7-0.4-13.9
				c1.2,7.3,2.9,15.9,3.4,18.7l0,0.3l0,0.2l0,0.2l0,0.1L44.2,100.4z"/>
			<path class="st6" d="M58,131.2C57.9,131.2,57.9,131.2,58,131.2c-2-1.4-4-2.9-5.5-4.8c-0.6-0.7-1.1-1.4-1.6-2.2c0,0,0,0,0,0v0
				c-2.8-4.5-3.9-9.9-4.9-15.2c-0.6-2.9-1.1-5.8-1.7-8.7h0c-0.1,0-0.2,0-0.3,0l-3.4-18.2c0-0.4-0.1-0.7-0.1-1.1
				c0.5,0.6,3.4,3.9,7.8,6.9c4.8,3.3,9.6,8.7,6.9,20.8C52.4,120.8,58,131.2,58,131.2z"/>
			<path class="st4" d="M62.6,118.4c0,0-2.2-3-1.3-7.7c0.9-4.7,6.7-8.9,6.7-8.9S61.1,108.4,62.6,118.4z"/>
			<path class="st7" d="M75.1,98c-2.6,0.8-4.8-2.7-3-4.7C72,95.4,73.2,97.2,75.1,98z"/>
			<path class="st4" d="M62.1,42.9c-3.1,1-6.6,1-9.7,0C55.6,42.4,58.8,42.4,62.1,42.9z"/>
			<path class="st4" d="M51.6,31.3c10.6,1.6,20.8-5,31.3-2.4C72.3,27.8,62.1,34.4,51.6,31.3z"/>
			<path class="st4" d="M82.4,40.8c-2.2,0-5.3,0-7.5,0.2c-2.2,0.1-5.3,0.6-7.4,0.9C72,39.6,77.5,39.2,82.4,40.8z"/>
			<path class="st4" d="M132.5,80.4c0,0-0.2-2.5-1.8-1.2c-1.6,1.3-1.9,3.8-1.7,9.9c0.2,6.1-3.6,7.8-5.7,7.1c0,0-0.3,2.2-2.1,4l0-0.1
				l0-0.1l0-0.2l0-0.2c0.5-2.5,2.2-11.4,3.5-18.9c-0.8,6.2-1.4,13.5-0.4,13.9c1.8,0.8,3.9-2.3,2.7-6.5c-1.2-4.2,3.1-17.4,5.6-15.5
				C132.7,72.5,134.3,74,132.5,80.4z"/>
			<path class="st6" d="M125,81c0,0.4-0.1,0.7-0.1,1.1l-3.4,18.1c-0.1,0-0.2,0-0.2,0h0c-0.6,2.9-1.1,5.8-1.7,8.7
				c-1,5.2-2.1,10.7-4.9,15.2c-0.5,0.8-1,1.5-1.6,2.3c-1.5,1.8-3.4,3.3-5.4,4.6c-0.1,0-0.1,0.1-0.2,0.1c0,0,0,0,0,0
				c0.1-0.3,5.5-10.6,2.9-22.4c-2.6-12,2.1-17.5,6.9-20.8C121.6,84.9,124.5,81.6,125,81z"/>
			<path class="st4" d="M114.8,67.9c-11.4,9.5-21.6,2.9-21.6,2.9c4.6-8.6,16.9-6.6,16.9-6.6c-1.8-1.8-5.9-2.6-9.9-1.8
				c-3.8,0.7-6.3,4.4-6.5,4.7c0.2-0.4,3.5-7.3,11.1-7.3C112.6,59.8,114.8,67.9,114.8,67.9z"/>
			<path class="st7" d="M91.5,96.2c-0.2,0.1-0.4,0-0.6,0c-0.8-0.3-1.7-0.4-2.6-0.3c0,0,0,0,0,0c-1.1,0.7-2.2,1.8-3.5,2.1
				c0,0,0,0-0.1,0c-0.3,0.1-0.7,0.2-1,0.2c-0.9,0-1.7,0.1-2.5-0.1c-0.2-0.1-0.4-0.1-0.6-0.2c-0.5-0.2-1-0.4-1.5-0.7
				c-0.7-0.4-1.2-0.9-1.8-1.3c0,0,0,0,0,0c-0.9,0-1.8,0.1-2.6,0.3c-0.2,0-0.4,0.1-0.6,0c-0.9-0.3-0.3-1.3,0.3-1.5
				c1.9-1.1,3.7,0.7,5.2,1.6c0.6,0.3,1.2,0.6,1.8,0.8c0.8,0.1,1.8,0.1,2.6,0c0.1,0,0.3-0.1,0.4-0.1c2.3-0.5,4.2-3.6,6.8-2.3
				C91.8,94.9,92.4,95.9,91.5,96.2z"/>
			<path class="st7" d="M90.3,97.8c2-0.8,3.1-2.6,3-4.7C95.1,95.1,92.9,98.7,90.3,97.8z"/>
			<path class="st8" d="M81.6,98.2c0.3,1.3,0.3,2.5,0.2,3.8c-0.3,1.9-0.1,3.4,1.8,3.8c-1,1.1-2.9,0.3-3.3-1.2c-0.4-1-0.2-2,0-2.9
				C80.6,100.5,80.9,99.3,81.6,98.2L81.6,98.2z"/>
			<path class="st8" d="M94.3,129.4c-0.2-0.3-2.7-4.5-11.6-4.5c-8.9,0-11.5,4.2-11.6,4.5c0.5-1.6,1.7-3.5,3.5-4.9
				c1.8-1.4,2.4-1.8,0.4-3.7c-1.2-1.2-1.7-2.5-1.9-3.4c2.1,2.5,4.1,3.2,9.7,3.2c5.6,0,7.5-0.7,9.7-3.2c-0.2,0.9-0.7,2.2-1.9,3.4
				c-2,1.9-1.4,2.3,0.4,3.7C92.6,125.9,93.8,127.8,94.3,129.4z"/>
			<path class="st9" d="M82.9,95.3c7.9,0,2.5-17.5,1.8-23c-0.8-5.5-2-5.7-2-5.7s-1.2,0.1-2,5.7s-6.2,23,1.8,23H82.9z"/>
			<path class="st4" d="M72.2,71c-0.7,4.3-18.9,13.8-12.3,7c-2.7-0.1-6.9,0.1-8.5-2.5c-0.1-1.6,2-1.7,3.2-1.8
				c3.7-0.1,7.7,0.4,11.2-0.6c-2.6,0.3-5.9,0.2-9.5-1.4c-0.5-0.1-2.4-1.3-2.9-1.4c-4.4-1-5.8-0.3-7.1,0.3c-0.4,0.2-0.8,0.8-1.4,0.7
				c-0.6-0.1-0.6-0.7-0.3-1.1c0.6-0.8,1.4-1.4,2.3-1.8c-1.1-0.4-2.1-0.9-2.9-1.7c-0.3-0.3-0.9-0.8-0.7-1.3c0.2-0.5,0.9-0.4,1.3-0.3
				c0.7,0.3,1.4,0.5,2,0.8c0.5,0.2,1,0.4,1.5,0.6c0.1,0,0.2,0.1,0.3,0.1c0.1,0,0.2,0,0.2,0.1c1,0.3,1.9-0.1,2.6-0.7
				c1.2-2.4,3.9-6,9.2-6c7.6,0,10.9,6.8,11.1,7.3c-0.2-0.3-2.7-3.9-6.5-4.7c-4-0.8-8-0.1-9.9,1.8C55.4,64.4,67.6,62.4,72.2,71
				L72.2,71z"/>
			<g>
				<path class="st10" d="M96.4,112.1c0,0-1.9,2.7-4,5.2c0,0,0,0,0,0c-2.1,2.5-4.1,3.2-9.7,3.2c-5.6,0-7.5-0.7-9.7-3.2c0,0,0,0,0,0
					c-2.1-2.5-4-5.2-4-5.2c3-0.1,7.5-4,9.4-4.1c0.8,0,2.1,0.3,3.1,0.6c0.8,0.3,1.7,0.3,2.6,0c1-0.3,2.2-0.7,3.1-0.6
					C88.9,108.1,93.4,112,96.4,112.1z"/>
				<path class="st11" d="M98.3,111.3c-1.9,2.2-5,2.5-7.7,2.2c-1.3-0.1-2.6-0.2-3.8,0.1c-1.3,0.5-2.7,0.9-4.1,0.9
					c-1.4,0-2.8-0.4-4.1-0.9c-2.6-0.6-5.3,0.5-7.9-0.2c-1.4-0.3-2.6-1.1-3.5-2.1c1.1,0.7,2.4,1.2,3.7,1.3c2.7,0.2,5.3-1.1,8.1-0.5
					c1.3,0.3,2.4,0.8,3.8,0.7c1.3,0.1,2.5-0.4,3.7-0.7c2.9-0.6,5.4,0.8,8.1,0.5C95.9,112.4,97.2,112,98.3,111.3L98.3,111.3z"/>
				<path class="st12" d="M84.7,119.6c-3.4,0.5-10.2-0.6-7.8-3.6c0.1-0.1,0.2-0.2,0.3-0.3c0.5-0.4,1.2-0.5,1.8-0.3
					c4.8,1.4,7.2-1.3,9.6,0.2C90.3,117.2,86.5,119.5,84.7,119.6z"/>
			</g>
			<path class="st13" d="M121.2,100.2c-0.9,5.1-1.6,10.1-2.7,15.2c-0.9,3.8-2.2,7.6-4.6,10.7c-2.4,3.1-5.7,5.4-9,7.4l-6.5,4.1
				c-4.4,2.7-8.9,5.8-14.2,6.3c0,0,0.7-0.9,0.7-0.9l0,0.1l0.1,0.8c-7.2,1.2-13.5-3.4-19.2-6.9c-4-2.6-8.8-5.1-12.2-8.4
				c-1.2-1.2-2.3-2.5-3.2-3.9l0.5,0.3c-0.1,0-0.2,0-0.3-0.1c-0.2-0.1-0.2-0.3-0.2-0.4c0,0,0.1,0.3,0.1,0.3
				c-2.2-3.6-3.3-7.8-4.1-11.9c-0.7-3.6-1.4-8.7-2.1-12.3c0,0,0,0,0,0c0,0,0,0,0,0c0.9,3.6,1.8,8.6,2.7,12.2c1,4,2.2,8.1,4.5,11.5
				c0,0,0,0.2,0,0.2c0-0.3-0.3-0.6-0.5-0.5c0,0,0.5,0.3,0.5,0.3c2.4,4,7.1,6.8,11,9.2c0,0,4.2,2.5,4.2,2.5c4.2,2.5,8.2,5.3,12.9,6.4
				c1.5,0.3,3.1,0.4,4.6,0.3l-0.7,0.8l0-0.1l-0.1-0.8l0.8-0.1c5-0.5,9.3-3.4,13.6-6c0,0,6.6-4,6.6-4c3.2-2,6.5-4,8.8-7
				c2.4-3,3.8-6.5,4.8-10.2C119.2,110.2,120,105.2,121.2,100.2L121.2,100.2z"/>
			<path class="st6" d="M72.3,85.2c-0.5,1.2-1.2,2.3-1.9,3.3c-1.5,2-3.6,3.7-6,4.5c-2.5,0.9-5.4,1-7.9,0.1c-2.4-0.9-4.4-2.7-5.8-4.9
				c-0.7-1.1-1.5-2.3-1.4-3.7c0.1-1.3,1-2.2,2.3-2.4c0.8-0.1,1.5,0,2.3,0.1c0.8,0.1,1.6,0.2,2.4,0.2c1.2,0.1,2.4,0.1,3.6,0.1
				c2.1-0.2,4.2-0.6,6.2-1.3c0.7-0.2,1.4-0.5,2.1-0.8c0.6-0.3,1.3-0.6,2-0.7c1.2-0.2,2.3,0.5,2.7,1.6C73.4,82.5,72.9,84,72.3,85.2z"
				/>
			<g>
				<path class="st14" d="M63.7,84.2c-1-1.5,2.2-3,2.8-1.1C66.9,84.7,64.6,85,63.7,84.2z"/>
				<path class="st14" d="M53.4,86.2c0.3,0.8-1.1,1.4-1.5,0.6C51.4,85.7,53.1,85.1,53.4,86.2z"/>
				<path class="st14" d="M59.4,97.2c0,1.4-1.9,1.4-2.1,0.1C57.2,96,59.3,95.8,59.4,97.2z"/>
				<path class="st14" d="M62.1,96.9c0.4,1.1-1.4,1.6-1.7,0.5C60.1,96.3,61.7,95.8,62.1,96.9z"/>
				<path class="st14" d="M58.2,84.5c-0.3-0.7,0.8-1.2,1.1-0.5C59.7,84.6,58.5,85.2,58.2,84.5z"/>
				<path class="st14" d="M57.5,100.8c-0.7,0-0.8-1.2,0-1.2C58.2,99.6,58.3,100.8,57.5,100.8z"/>
				<path class="st14" d="M59.4,86.7c0.8,0.1,0.9,1.4,0,1.5c-0.7,0.2-1.3-0.8-0.7-1.3c0,0,0,0,0,0C58.9,86.7,59.1,86.6,59.4,86.7z"
					/>
				<path class="st14" d="M63,89.6c0.7,2-3.3,3.5-3.7,1.3C59.8,90.1,62.5,87.9,63,89.6z"/>
				<path class="st14" d="M64.7,86.6c-0.3,1.1-2.1,0.5-1.5-0.6C63.5,85.2,64.9,85.7,64.7,86.6z"/>
				<path class="st14" d="M66.2,91.3c0.2,0.8-1,1-1.2,0.3C64.8,90.8,66,90.6,66.2,91.3z"/>
				<path class="st14" d="M68.1,89.1c-0.7,0-0.8-1.2,0-1.2C68.8,87.9,68.8,89.1,68.1,89.1z"/>
				<path class="st14" d="M60.6,99c0.4,0.8-0.6,1.6-1.2,1c-0.6-0.4-0.2-1.6,0.5-1.4C60.2,98.6,60.5,98.8,60.6,99z"/>
				<path class="st14" d="M56.5,84.9c0.4,0.7-0.4,1.5-1.1,1.3C53.8,85.6,55.7,83.5,56.5,84.9z"/>
				<path class="st14" d="M69.6,84.9c-1.1,0-1.2-1.7-0.1-1.7C70.7,83.2,70.7,84.9,69.6,84.9z"/>
				<path class="st14" d="M71.2,86.8c-0.3,0.9-1.7,0.9-1.9,0C69,85.2,71.8,85.1,71.2,86.8z"/>
				<path class="st14" d="M66,88.8c-0.8,0-0.8-1.2,0-1.2S66.7,88.8,66,88.8z"/>
				<path class="st14" d="M56.3,88c0.8,0.7-0.3,1.9-1.1,1.2C54.4,88.5,55.6,87.3,56.3,88z"/>
			</g>
		</g>
		<g>
			<path class="st5" d="M204.1,228.4H-38.2v-0.2c-2.6-10.6-2-22.3,3.9-31.4c1.7-2.5,3.7-4.8,5.9-6.8c9.8-8.9,22.9-13,35.7-16.1
				c12.5-3,25.4-5.2,36.9-10.9c0.3-0.1,0.6-0.3,0.9-0.4c1.8-0.9,3.5-1.9,5.1-3c1.5-11.5,1.1-24.4,0.6-35.2c0.5,0.8,1,1.5,1.6,2.2
				c2.5,3,5.9,5.1,9.3,7.1c2.5,1.5,5,3,7.5,4.6c4.6,2.8,9.6,5.7,14.9,5l0-0.1c4.3-0.4,8.4-2.7,12.2-5c2.5-1.5,5-3.1,7.5-4.6
				c3.3-2,6.7-4.1,9.3-7.1c0.6-0.7,1.1-1.5,1.6-2.3c-0.3,5.6-0.5,11.8-0.5,18.1c0,6.7,0.4,13.4,1.4,19.7c1.5,1.1,3.2,2,4.8,2.8
				c11.8,6,25,8.3,37.8,11.4c12.8,3.1,25.9,7.2,35.7,16.1c2.2,2,4.3,4.3,5.9,6.8C205.4,207.4,206.2,218.4,204.1,228.4z"/>
			<path class="st4" d="M122.8,180.2C117,171.4,116,162,116,162l5.1,3C121.1,171.5,122.8,180.2,122.8,180.2z"/>
			<path class="st4" d="M50.2,159.5c0,0-0.5,4.9-3,11c-0.9,2.3-2.2,4.8-3.8,7.2c0,0,0.5-2.5,0.9-5.8c0.4-2.9,0.8-6.4,0.8-9.4
				L50.2,159.5z"/>
			<path class="st4" d="M67,206.9c-2.4,0.6-4.9,0.8-7.4,0.5c-5.1-0.5-9.8-2.6-14-4.9c-2.2-1.2-4.4-2.5-6.5-3.9
				c-1.8-1.3-3.6-2.6-5.5-3.8c-1.8-1.2-3.8-2.2-6-2.7c-1.1-0.3-2.3-0.5-3.4-0.8c-1-0.3-2.4-0.8-3.1-1.6c-0.8-1,0-2,1.1-2.4
				c1.1-0.4,2.3-0.4,3.5-0.2c1.9,0.2,3.7,0.6,5.5,1.1c1.7,0.3,3.4,0.7,5,1.3c2.4,0.8,4.6,1.9,6.8,3.1c2.3,1.2,4.5,2.3,6.9,3.3
				c2.4,1,4.9,1.8,7.4,2.5c2.5,0.7,5.1,1.3,7.7,1.9c1.3,0.3,2.5,0.6,3.8,0.9c1.1,0.3,2.3,0.9,2.7,1.9
				C72.4,205.3,68.9,206.4,67,206.9z"/>
			<path class="st4" d="M98.5,206.9c2.4,0.6,4.9,0.8,7.4,0.5c5.1-0.5,9.8-2.6,14-4.9c2.2-1.2,4.4-2.5,6.5-3.9
				c1.8-1.3,3.6-2.6,5.5-3.8c1.8-1.2,3.8-2.2,6-2.7c1.1-0.3,2.3-0.5,3.4-0.8c1-0.3,2.4-0.8,3.1-1.6c0.8-1,0-2-1.1-2.4
				c-1.1-0.4-2.3-0.4-3.5-0.2c-1.9,0.2-3.7,0.6-5.5,1.1c-1.7,0.3-3.4,0.7-5,1.3c-2.4,0.8-4.6,1.9-6.8,3.1c-2.3,1.2-4.5,2.3-6.9,3.3
				c-2.4,1-4.9,1.8-7.4,2.5c-2.5,0.7-5.1,1.3-7.7,1.9c-1.3,0.3-2.5,0.6-3.8,0.9c-1.1,0.3-2.3,0.9-2.7,1.9
				C93.2,205.3,96.6,206.4,98.5,206.9z"/>
			<path class="st4" d="M114.6,125.6c-0.2,5.2-0.4,10.8-0.4,16.5c-0.2,0.3-0.4,0.5-0.6,0.8c-3.6,5-8.2,9.2-13.5,12.3
				c-5.7,3.3-12,5.2-18.3,6.6c-6.5,1.5-13.1,2.4-19.6,3.8c-5.1,1.1-10.2,2.6-15,4.8c2.5-6.1,3-11,3-11c0.4-2.7,0.6-5.5,0.8-8.4
				c0.5-9.1,0.2-18.6-0.2-26.9c0.5,0.8,1,1.5,1.6,2.2c2.5,3,5.9,5.1,9.3,7.1c2.5,1.5,5,3,7.5,4.6c4.6,2.8,9.6,5.7,14.9,5l0-0.1
				c4.3-0.4,8.4-2.7,12.2-5c2.5-1.5,5-3.1,7.5-4.6c3.3-2,6.7-4.1,9.3-7.1c0.6-0.7,1.1-1.5,1.6-2.3
				C114.6,124.6,114.6,125.1,114.6,125.6z"/>
			<path class="st4" d="M114.6,124c0,0.5-0.1,1-0.1,1.5c0,0,0,0,0,0.1c-3.2,4.8-7.1,9.1-11.6,12.6c-4.5,3.6-9.6,6.5-14.9,8.7
				c-6.2,2.5-12.8,4-19.5,4.6c-3.4,0.3-6.7,0.3-10.1,0.2c-1.6-0.1-3.3-0.2-4.9-0.4c-0.8-0.1-1.6-0.2-2.4-0.3
				c0.5-9.1,0.2-18.6-0.2-26.9c0.5,0.8,1,1.5,1.6,2.2c2.5,3,5.9,5.1,9.3,7.1c2.5,1.5,5,3,7.5,4.6c4.6,2.8,9.6,5.7,14.9,5l0-0.1
				c4.3-0.4,8.4-2.7,12.2-5c2.5-1.5,5-3.1,7.5-4.6c3.3-2,6.7-4.1,9.3-7.1C113.6,125.6,114.1,124.8,114.6,124z"/>
		</g>
		<g>
			<path class="st3" d="M116.5,123.1c-0.3,8.7-3.3,17.2-5.9,25.6c-2.6,8.4-5,17.1-4,25.8c1,8.7,5.8,17.5,14.5,21.7
				c-0.5-1.2-0.4-2.5,0.2-3.7c2.8,7.8,10.4,14.1,19.5,16.2c-4.6-9.1-3.9-19.5-2.2-29.4c1.7-9.8,4.2-19.7,3.1-29.6
				c-1.4-12.2-8.6-23.8-19.6-31.3L116.5,123.1z"/>
			<path class="st4" d="M135.7,205c-9.9-25.4,5.7-54.3-9.7-78.5c-1-1.5-2.1-3-3.3-4.4l0.9-0.4c4.6,10.8,5.4,22.8,2.1,34
				c-2.4,8.3-6.3,16.4-6.5,25c-0.1,2.8,0.3,5.7,1.2,8.5c-1-2.7-1.5-5.6-1.5-8.5c0-8.7,3.8-16.9,6-25.2c3.4-12,2-24.9-3.5-36.3
				c0,0,2.1,2.3,2.1,2.3c5.1,5.7,8,12.6,9.4,19.7C137.2,162.4,128.4,184.2,135.7,205L135.7,205z"/>
			<path class="st4" d="M119.6,122.4c1.1,21.3-17.7,42.4-6.2,63.3c0.8,1.3,1.6,2.5,2.6,3.7c-1.1-1.1-2-2.3-2.8-3.6
				C100.4,165.1,119.3,143.6,119.6,122.4L119.6,122.4z"/>
			<path class="st4" d="M115.6,186.1c-4-5.8-5.3-13.1-3.5-19.7C111.8,173.2,113,179.8,115.6,186.1L115.6,186.1z"/>
		</g>
		<g class="st1">
			
				<linearGradient id="SVGID_00000137846094774437019640000011448940653555676294_" gradientUnits="userSpaceOnUse" x1="922.5443" y1="434.1245" x2="1232.7933" y2="434.1245">
				<stop  offset="0" style="stop-color:#5F74B1"/>
				<stop  offset="0.2466" style="stop-color:#7A90D2"/>
				<stop  offset="0.4903" style="stop-color:#8FA6EB"/>
				<stop  offset="0.7125" style="stop-color:#9CB3FA"/>
				<stop  offset="0.8936" style="stop-color:#A0B7FF"/>
			</linearGradient>
			<circle style="fill:url(#SVGID_00000137846094774437019640000011448940653555676294_);" cx="1077.7" cy="434.1" r="155.1"/>
		</g>
	</g>
	<g style="clip-path:url(#SVGID_00000000941529937419443160000006311962346328240039_);">
		<path class="st16" d="M82.6,199.2c-0.1,0-0.2-0.1-0.2-0.2v-2.5c0-0.1,0.1-0.2,0.2-0.2s0.2,0.1,0.2,0.2v2.5
			C82.8,199.1,82.7,199.2,82.6,199.2z M82.6,193.5c-0.1,0-0.2-0.1-0.2-0.2v-3.2c0-0.1,0.1-0.2,0.2-0.2s0.2,0.1,0.2,0.2v3.2
			C82.8,193.4,82.7,193.5,82.6,193.5z M82.6,187.2c-0.1,0-0.2-0.1-0.2-0.2v-3.2c0-0.1,0.1-0.2,0.2-0.2s0.2,0.1,0.2,0.2v3.2
			C82.8,187.1,82.7,187.2,82.6,187.2z M82.6,180.8c-0.1,0-0.2-0.1-0.2-0.2v-3.2c0-0.1,0.1-0.2,0.2-0.2s0.2,0.1,0.2,0.2v3.2
			C82.8,180.7,82.7,180.8,82.6,180.8z M82.6,174.4c-0.1,0-0.2-0.1-0.2-0.2v-3.2c0-0.1,0.1-0.2,0.2-0.2s0.2,0.1,0.2,0.2v3.2
			C82.8,174.4,82.7,174.4,82.6,174.4z M82.6,168.1c-0.1,0-0.2-0.1-0.2-0.2v-3.2c0-0.1,0.1-0.2,0.2-0.2s0.2,0.1,0.2,0.2v3.2
			C82.8,168,82.7,168.1,82.6,168.1z M82.6,161.7c-0.1,0-0.2-0.1-0.2-0.2v-3.2c0-0.1,0.1-0.2,0.2-0.2s0.2,0.1,0.2,0.2v3.2
			C82.8,161.6,82.7,161.7,82.6,161.7z M82.6,155.4c-0.1,0-0.2-0.1-0.2-0.2V152c0-0.1,0.1-0.2,0.2-0.2s0.2,0.1,0.2,0.2v3.2
			C82.8,155.3,82.7,155.4,82.6,155.4z M82.6,149c-0.1,0-0.2-0.1-0.2-0.2v-3.2c0-0.1,0.1-0.2,0.2-0.2s0.2,0.1,0.2,0.2v3.2
			C82.8,148.9,82.7,149,82.6,149z M82.6,142.6c-0.1,0-0.2-0.1-0.2-0.2v-3.2c0-0.1,0.1-0.2,0.2-0.2s0.2,0.1,0.2,0.2v3.2
			C82.8,142.5,82.7,142.6,82.6,142.6z M82.6,136.3c-0.1,0-0.2-0.1-0.2-0.2v-3.2c0-0.1,0.1-0.2,0.2-0.2s0.2,0.1,0.2,0.2v3.2
			C82.8,136.2,82.7,136.3,82.6,136.3z M82.6,129.9c-0.1,0-0.2-0.1-0.2-0.2v-3.2c0-0.1,0.1-0.2,0.2-0.2s0.2,0.1,0.2,0.2v3.2
			C82.8,129.8,82.7,129.9,82.6,129.9z M82.6,123.5c-0.1,0-0.2-0.1-0.2-0.2v-3.2c0-0.1,0.1-0.2,0.2-0.2s0.2,0.1,0.2,0.2v3.2
			C82.8,123.5,82.7,123.5,82.6,123.5z M82.6,117.2c-0.1,0-0.2-0.1-0.2-0.2v-3.2c0-0.1,0.1-0.2,0.2-0.2s0.2,0.1,0.2,0.2v3.2
			C82.8,117.1,82.7,117.2,82.6,117.2z M82.6,110.8c-0.1,0-0.2-0.1-0.2-0.2v-3.2c0-0.1,0.1-0.2,0.2-0.2s0.2,0.1,0.2,0.2v3.2
			C82.8,110.7,82.7,110.8,82.6,110.8z M82.6,104.5c-0.1,0-0.2-0.1-0.2-0.2v-3.2c0-0.1,0.1-0.2,0.2-0.2s0.2,0.1,0.2,0.2v3.2
			C82.8,104.4,82.7,104.5,82.6,104.5z M82.6,98.1c-0.1,0-0.2-0.1-0.2-0.2v-3.2c0-0.1,0.1-0.2,0.2-0.2s0.2,0.1,0.2,0.2v3.2
			C82.8,98,82.7,98.1,82.6,98.1z M82.6,91.7c-0.1,0-0.2-0.1-0.2-0.2v-3.2c0-0.1,0.1-0.2,0.2-0.2s0.2,0.1,0.2,0.2v3.2
			C82.8,91.6,82.7,91.7,82.6,91.7z M82.6,85.4c-0.1,0-0.2-0.1-0.2-0.2V82c0-0.1,0.1-0.2,0.2-0.2s0.2,0.1,0.2,0.2v3.2
			C82.8,85.3,82.7,85.4,82.6,85.4z M82.6,79c-0.1,0-0.2-0.1-0.2-0.2v-3.2c0-0.1,0.1-0.2,0.2-0.2s0.2,0.1,0.2,0.2v3.2
			C82.8,78.9,82.7,79,82.6,79z M82.6,72.7c-0.1,0-0.2-0.1-0.2-0.2v-3.2c0-0.1,0.1-0.2,0.2-0.2s0.2,0.1,0.2,0.2v3.2
			C82.8,72.6,82.7,72.7,82.6,72.7z M82.6,66.3c-0.1,0-0.2-0.1-0.2-0.2v-3.2c0-0.1,0.1-0.2,0.2-0.2s0.2,0.1,0.2,0.2v3.2
			C82.8,66.2,82.7,66.3,82.6,66.3z M82.6,59.9c-0.1,0-0.2-0.1-0.2-0.2v-3.2c0-0.1,0.1-0.2,0.2-0.2s0.2,0.1,0.2,0.2v3.2
			C82.8,59.8,82.7,59.9,82.6,59.9z M82.6,53.6c-0.1,0-0.2-0.1-0.2-0.2v-3.2c0-0.1,0.1-0.2,0.2-0.2s0.2,0.1,0.2,0.2v3.2
			C82.8,53.5,82.7,53.6,82.6,53.6z M82.6,47.2c-0.1,0-0.2-0.1-0.2-0.2v-3.2c0-0.1,0.1-0.2,0.2-0.2s0.2,0.1,0.2,0.2V47
			C82.8,47.1,82.7,47.2,82.6,47.2z M82.6,40.8c-0.1,0-0.2-0.1-0.2-0.2v-3.2c0-0.1,0.1-0.2,0.2-0.2s0.2,0.1,0.2,0.2v3.2
			C82.8,40.8,82.7,40.8,82.6,40.8z M82.6,34.5c-0.1,0-0.2-0.1-0.2-0.2v-3.2c0-0.1,0.1-0.2,0.2-0.2s0.2,0.1,0.2,0.2v3.2
			C82.8,34.4,82.7,34.5,82.6,34.5z M82.6,28.1c-0.1,0-0.2-0.1-0.2-0.2v-3.2c0-0.1,0.1-0.2,0.2-0.2s0.2,0.1,0.2,0.2v3.2
			C82.8,28,82.7,28.1,82.6,28.1z M82.6,21.8c-0.1,0-0.2-0.1-0.2-0.2v-3.2c0-0.1,0.1-0.2,0.2-0.2s0.2,0.1,0.2,0.2v3.2
			C82.8,21.7,82.7,21.8,82.6,21.8z M82.6,15.4c-0.1,0-0.2-0.1-0.2-0.2V12c0-0.1,0.1-0.2,0.2-0.2s0.2,0.1,0.2,0.2v3.2
			C82.8,15.3,82.7,15.4,82.6,15.4z M82.6,9c-0.1,0-0.2-0.1-0.2-0.2V5.7c0-0.1,0.1-0.2,0.2-0.2s0.2,0.1,0.2,0.2v3.2
			C82.8,8.9,82.7,9,82.6,9z"/>
	</g>
</g>
</svg>
