<?xml version="1.0" encoding="utf-8"?>
<!-- Generator: Adobe Illustrator 25.4.8, SVG Export Plug-In . SVG Version: 6.00 Build 0)  -->
<svg version="1.1" id="Layer_1" xmlns="http://www.w3.org/2000/svg" xmlns:xlink="http://www.w3.org/1999/xlink" x="0px" y="0px"
	 viewBox="0 0 199.6 166.2" style="enable-background:new 0 0 199.6 166.2;" xml:space="preserve">
<style type="text/css">
	.st0{clip-path:url(#SVGID_00000126321431318595201050000013043455366360087985_);}
	.st1{opacity:0.18;fill:url(#SVGID_00000012443325000223396840000011165315131191130531_);}
	.st2{fill:#FFFFFF;}
	.st3{fill:#EDAA8C;}
	.st4{fill:url(#SVGID_00000165945911883081787040000013057431648680678558_);}
	.st5{fill:#192A44;}
	.st6{fill:#E9E1D3;}
	.st7{clip-path:url(#SVGID_00000156555359891950839790000006716563975721974929_);}
	.st8{fill:url(#SVGID_00000083074349440804584690000010286309613771103677_);}
	.st9{fill:#F1AC96;}
	.st10{fill:#FBC3AD;}
	.st11{fill:#58595B;}
	.st12{fill:#414042;}
	.st13{fill:#22B473;}
</style>
<g>
	<g>
		<defs>
			
				<ellipse id="SVGID_1_" transform="matrix(0.7071 -0.7071 0.7071 0.7071 -25.527 104.5684)" cx="113.5" cy="83.1" rx="83.1" ry="83.1"/>
		</defs>
		<clipPath id="SVGID_00000183233766156546580690000017657397296950502542_">
			<use xlink:href="#SVGID_1_"  style="overflow:visible;"/>
		</clipPath>
		<g style="clip-path:url(#SVGID_00000183233766156546580690000017657397296950502542_);">
			
				<linearGradient id="SVGID_00000008147140201532412240000007479535362990270095_" gradientUnits="userSpaceOnUse" x1="3.4565" y1="94.3225" x2="222.6796" y2="94.3225">
				<stop  offset="0" style="stop-color:#5F74B1"/>
				<stop  offset="0.2466" style="stop-color:#7A90D2"/>
				<stop  offset="0.4903" style="stop-color:#8FA6EB"/>
				<stop  offset="0.7125" style="stop-color:#9CB3FA"/>
				<stop  offset="0.8936" style="stop-color:#A0B7FF"/>
			</linearGradient>
			
				<circle style="opacity:0.18;fill:url(#SVGID_00000008147140201532412240000007479535362990270095_);" cx="113.1" cy="94.3" r="109.6"/>
			<path class="st2" d="M157.6,68.4c-2.6,0-2.7-14.7-2.7-15.3c0-0.6,0-15.3,2.7-15.3c2.6,0,2.7,14.7,2.7,15.3
				C160.2,53.8,160.2,68.4,157.6,68.4z M157.5,38.7c-0.7,0.3-1.7,5.7-1.7,14.4s1.1,14.1,1.8,14.4c0.7-0.3,1.7-5.7,1.7-14.4
				S158.3,39.1,157.5,38.7z"/>
			<path class="st3" d="M62.6,122.7c1.6,1.4,3.5,2.3,5.4,3.1c4.2,1.7,8.6,3,13,4c8.5,1.9,17.2,2.6,25.9,2.8c9,0.2,18.2,0.1,27.2-0.9
				c6.9-0.7,13.8-2.1,20.3-4.6c3.4-1.3,6.7-2.9,9.7-5c-15.6-4.8-29.4-7.1-29.4-7.1V91.3l-47.2-27v50.7c0,0-12,2-26.2,6.1
				C61.7,121.7,62.1,122.2,62.6,122.7z"/>
			
				<linearGradient id="SVGID_00000024684386529645817300000004720933290078177452_" gradientUnits="userSpaceOnUse" x1="5.0044" y1="149.7694" x2="216.1852" y2="149.7694">
				<stop  offset="0" style="stop-color:#5F74B1"/>
				<stop  offset="0.2466" style="stop-color:#7A90D2"/>
				<stop  offset="0.4903" style="stop-color:#8FA6EB"/>
				<stop  offset="0.7125" style="stop-color:#9CB3FA"/>
				<stop  offset="0.8936" style="stop-color:#A0B7FF"/>
			</linearGradient>
			<path style="fill:url(#SVGID_00000024684386529645817300000004720933290078177452_);" d="M153.5,119.2c-16.3,8-56.1,6.3-84.8,0
				c-16.1,4.2-38.4,11.5-48.4,22.6C7,156.3,5,180.4,5,180.4h211.2c0,0-1.4-27-14.3-38.6C191.9,130.7,169.7,123.3,153.5,119.2z"/>
			<path class="st3" d="M134.8,100c16.3,4,25-3.1,22.5-26.8c14.9-5.5,3-9.8-3-19.1c-0.6-0.9-0.4-5.1-0.4-5.1s0.5-14-14.2-26.9
				c-15.4-13.4-39.2-16-54.8-1.5c-1.2,1.1-2.3,2.3-3.4,3.6c-5.8,7.2-8,16.9-6.7,26c1.5,10,7.6,19.7,12.8,28.1
				C96.2,92.2,112,93.1,134.8,100z"/>
			<path class="st5" d="M87.5,78.9c0,0-9.8-12.6-12.9-27.8c22.2-4.5,28.6-17.2,51.5-11.6c0.6,10-0.5,15.8-4.1,22.6
				C114.5,77.1,98.6,78.9,87.5,78.9z"/>
			<path class="st2" d="M149.1,68.4c-2.4,0-3.7-7.7-3.7-15.3s1.3-15.3,3.7-15.3c2.4,0,3.7,7.7,3.7,15.3S151.6,68.4,149.1,68.4z
				 M149.1,38.7c-1.2,0-2.8,5.5-2.8,14.4c0,8.9,1.6,14.4,2.8,14.4c1.2,0,2.8-5.5,2.8-14.4C151.9,44.2,150.3,38.7,149.1,38.7z"/>
			
				<rect x="119.4" y="53.3" transform="matrix(0.9972 -7.544272e-02 7.544272e-02 0.9972 -3.6744 10.1613)" class="st2" width="26.6" height="0.9"/>
			<path class="st2" d="M152.7,49.2l-0.8-0.4c0.6-1.4,1.7-2.2,2.6-2c0.4,0.1,1.3,0.4,1.5,2.2l-0.9,0.1c-0.1-0.8-0.4-1.3-0.7-1.4
				C153.8,47.6,153.2,48.1,152.7,49.2z"/>
			<path class="st2" d="M105.4,71.4c-2.5-4.1,0.1-9,0.2-9.2l0.8,0.4c0,0-2.5,4.7-0.2,8.3L105.4,71.4z"/>
			<g>
				<g>
					<path class="st3" d="M127,64.8c-0.9-5.6-4.8-11.3-10.6-12.5c-5.1-1-11,2.1-11.5,7.6c-0.5,5.1,2.9,10.3,6.7,13.5
						c3.5,3,8.9,5,12.7,1.3C126.9,72.1,127.6,68.4,127,64.8z"/>
				</g>
			</g>
			<path class="st6" d="M121.8,127.9c-1.5,0-3.1,0-4.7-0.1c-18.4-0.4-38.1-3-52.8-7.1l0.2-0.9c30.1,8.3,79.9,10.2,95,0.6l0.5,0.8
				C153.2,125.6,139.7,127.9,121.8,127.9z"/>
			<path class="st6" d="M62.5,192.2c0-0.3-2.1-28.1-4.5-31.9c-2.4-3.8-9.4-8.3-9.5-8.3l0.4-0.7c0.3,0.2,7.3,4.6,9.7,8.6
				c2.5,4,4.5,31.1,4.6,32.3L62.5,192.2z"/>
			<path class="st6" d="M202.3,180.4c0-0.3-2.2-30.1-4.8-34.2c-2.5-4.1-10.1-8.9-10.2-8.9l0.5-0.8c0.3,0.2,7.8,5,10.4,9.2
				c2.7,4.3,4.8,33.3,4.9,34.6L202.3,180.4z"/>
		</g>
	</g>
	<g>
		<g>
			<defs>
				<circle id="SVGID_00000062876994080175928740000012624412759789227154_" cx="28.9" cy="85.3" r="28.9"/>
			</defs>
			<clipPath id="SVGID_00000047021047947436230500000011391952058114458530_">
				<use xlink:href="#SVGID_00000062876994080175928740000012624412759789227154_"  style="overflow:visible;"/>
			</clipPath>
			<g style="clip-path:url(#SVGID_00000047021047947436230500000011391952058114458530_);">
				
					<linearGradient id="SVGID_00000067954606306322652320000008479648240913340836_" gradientUnits="userSpaceOnUse" x1="-5.5457" y1="77.6816" x2="62.6032" y2="77.6816">
					<stop  offset="0" style="stop-color:#5F74B1"/>
					<stop  offset="0.2466" style="stop-color:#7A90D2"/>
					<stop  offset="0.4903" style="stop-color:#8FA6EB"/>
					<stop  offset="0.7125" style="stop-color:#9CB3FA"/>
					<stop  offset="0.8936" style="stop-color:#A0B7FF"/>
				</linearGradient>
				<circle style="fill:url(#SVGID_00000067954606306322652320000008479648240913340836_);" cx="28.5" cy="77.7" r="34.1"/>
				<g>
					<path class="st9" d="M56.2,118H0.9c-2.2,0-4-1.8-4-4V93.4c0-2.2,1.8-4,4-4h55.3c2.2,0,4,1.8,4,4V114
						C60.2,116.2,58.4,118,56.2,118z"/>
				</g>
				<g>
					<path class="st10" d="M60.2,96.2c-5.3,0-5.3,4.8-10.6,4.8s-5.3-4.8-10.6-4.8c-5.3,0-5.3,4.8-10.6,4.8c-5.3,0-5.3-4.8-10.6-4.8
						c-5.3,0-5.3,4.8-10.6,4.8c-5.3,0-5.3-4.8-10.6-4.8v-5.4c0-0.7,0.6-1.3,1.3-1.3h60.8c0.7,0,1.3,0.6,1.3,1.3V96.2z"/>
				</g>
				<g>
					<g>
						<path class="st11" d="M38.4,64c0.6-1.1-0.9-2-1.6-1.1c-9.9,13.2-14.9,27-15,41.8c0,2.3,1.7,4.1,3.9,4.1c1.9,0,3.4-1.4,3.8-3.3
							c0.1-0.4,0.1-0.9,0-1.3C27.9,90.8,30.9,77.3,38.4,64z"/>
					</g>
					<g>
						<path class="st12" d="M36.7,62.9c-0.4,0.5-0.7,1-1.1,1.5c-6.6,12.7-9.3,25.5-7.9,38.2c0,0.4,0.1,0.9,0,1.3
							c-0.4,1.9-1.9,3.3-3.8,3.3c-0.6,0-1.2-0.2-1.7-0.4c0.7,1.2,1.9,2,3.3,2c1.9,0,3.4-1.4,3.8-3.3c0.1-0.4,0.1-0.9,0-1.3
							c-1.5-13.4,1.5-26.9,9-40.3C39,62.9,37.5,62,36.7,62.9z"/>
					</g>
				</g>
				<g>
					<g>
						<path class="st11" d="M62.6,64c0.6-1.1-0.9-2-1.6-1.1c-9.9,13.2-14.9,27-15,41.8c0,2.3,1.7,4.1,3.9,4.1c1.9,0,3.4-1.4,3.8-3.3
							c0.1-0.4,0.1-0.9,0-1.3C52.2,90.8,55.2,77.3,62.6,64z"/>
					</g>
					<g>
						<path class="st12" d="M61,62.9c-0.4,0.5-0.7,1-1.1,1.5c-6.6,12.7-9.3,25.5-7.9,38.2c0,0.4,0.1,0.9,0,1.3
							c-0.4,1.9-1.9,3.3-3.8,3.3c-0.6,0-1.2-0.2-1.7-0.4c0.7,1.2,1.9,2,3.3,2c1.9,0,3.4-1.4,3.8-3.3c0.1-0.4,0.1-0.9,0-1.3
							c-1.5-13.4,1.5-26.9,9-40.3C63.2,62.9,61.7,62,61,62.9z"/>
					</g>
				</g>
				<g>
					<g>
						<path class="st11" d="M11.4,64c0.6-1.1-0.9-2-1.6-1.1c-9.9,13.2-14.9,27-15,41.8c0,2.3,1.7,4.1,3.9,4.1c1.9,0,3.4-1.4,3.8-3.3
							c0.1-0.4,0.1-0.9,0-1.3C0.9,90.8,4,77.3,11.4,64z"/>
					</g>
					<g>
						<path class="st12" d="M9.8,62.9c-0.4,0.5-0.7,1-1.1,1.5C2,77.1-0.6,89.9,0.8,102.7c0,0.4,0.1,0.9,0,1.3
							c-0.4,1.9-1.9,3.3-3.8,3.3c-0.6,0-1.2-0.2-1.7-0.4c0.7,1.2,1.9,2,3.3,2c1.9,0,3.4-1.4,3.8-3.3c0.1-0.4,0.1-0.9,0-1.3
							C0.9,90.8,4,77.3,11.4,64C12,62.9,10.5,62,9.8,62.9z"/>
					</g>
				</g>
			</g>
		</g>
		<g>
			<g>
				<g>
					<g>
						<g>
							<path class="st13" d="M49,56.3l0,19.6c0,0.9-0.7,1.6-1.6,1.6h-2.2c-0.9,0-1.6-0.7-1.6-1.6l0-19.6L49,56.3z"/>
						</g>
					</g>
				</g>
				<g>
					<g>
						<g>
							<path class="st13" d="M51.3,56.3l-10,0c-0.5,0-0.8-0.6-0.6-1l5-8.5c0.3-0.4,0.9-0.4,1.1,0l5,8.5
								C52.1,55.7,51.8,56.3,51.3,56.3z"/>
						</g>
					</g>
				</g>
			</g>
		</g>
	</g>
</g>
</svg>
