<?xml version="1.0" encoding="utf-8"?>
<!-- Generator: Adobe Illustrator 25.4.8, SVG Export Plug-In . SVG Version: 6.00 Build 0)  -->
<svg version="1.1" id="Layer_1" xmlns="http://www.w3.org/2000/svg" xmlns:xlink="http://www.w3.org/1999/xlink" x="0px" y="0px"
	 viewBox="0 0 166.6 166.6" style="enable-background:new 0 0 166.6 166.6;" xml:space="preserve">
<style type="text/css">
	.st0{clip-path:url(#SVGID_00000168104544575029766210000000096384964610996121_);}
	.st1{opacity:0.18;}
	.st2{fill:url(#SVGID_00000054245361541287107380000006348475832890331303_);}
	.st3{fill:#FF9C6A;}
	.st4{opacity:0.5;}
	.st5{fill:#E1CBC3;}
	.st6{opacity:0.7;}
	.st7{opacity:0.3;}
	.st8{fill:#9FFEFF;}
	.st9{fill:#865C40;}
	.st10{opacity:0.55;fill:#B3A274;}
	.st11{fill:#87E0DA;}
	.st12{fill:url(#SVGID_00000022555049689901931660000010238635060530568110_);}
	.st13{fill:url(#SVGID_00000103954843367371595450000008972466736849294501_);}
	.st14{fill:url(#SVGID_00000135673393932392261060000017395958229893479324_);}
	.st15{fill:url(#SVGID_00000080904313489998619880000012232291668506628998_);}
	.st16{fill:url(#SVGID_00000062910209964607111070000009836414752742873984_);}
	.st17{fill:url(#SVGID_00000102509538324762877050000014348851741448524443_);}
	.st18{fill:url(#SVGID_00000090256468195465384580000013224787710946375353_);}
	.st19{fill:url(#SVGID_00000078032851868930808110000011701381922306870184_);}
	.st20{fill:url(#SVGID_00000063633059920899163090000018216905837727660217_);}
	.st21{fill:url(#SVGID_00000168798401536289007060000007089433305496197298_);}
	.st22{fill:url(#SVGID_00000115500178250142741710000005358427073025960588_);}
	.st23{fill:url(#SVGID_00000162320023057633318410000012430209106340376484_);}
	.st24{fill:url(#SVGID_00000046324525268088085070000012626727443468675738_);}
	.st25{fill:url(#SVGID_00000165231124850654530600000004425604786516763793_);}
	.st26{fill:url(#SVGID_00000003096212564379122880000016184599536897629843_);}
	.st27{opacity:0.75;fill:#18B9B8;}
	.st28{fill:#1F192E;}
	.st29{filter:url(#Adobe_OpacityMaskFilter);}
	.st30{fill:url(#SVGID_00000128482483306476145870000008287591486288667040_);}
	
		.st31{mask:url(#SVGID_00000160161941713052561610000000868806807699061666_);fill:url(#SVGID_00000119088888271091800430000006594608437472279988_);}
</style>
<g>
	<defs>
		<path id="SVGID_1_" d="M160.7,77.8c0,25.4,5.5,86.4-13.5,100.5c-11.2,8.3-49.4-13.3-57.2-23.5c-1.3-1.7-4.4,0.3-6.6,0.3
			c-42.7,0-77.2-34.6-77.2-77.2S40.8,0.5,83.5,0.5S160.7,35.1,160.7,77.8z"/>
	</defs>
	<clipPath id="SVGID_00000043447202693916307610000000382828987865882010_">
		<use xlink:href="#SVGID_1_"  style="overflow:visible;"/>
	</clipPath>
	<g style="clip-path:url(#SVGID_00000043447202693916307610000000382828987865882010_);">
		<g class="st1">
			
				<linearGradient id="SVGID_00000101101809816155301980000013193083268345272455_" gradientUnits="userSpaceOnUse" x1="6.9527" y1="74.8862" x2="157.6321" y2="74.8862">
				<stop  offset="0" style="stop-color:#5F74B1"/>
				<stop  offset="0.2466" style="stop-color:#7A90D2"/>
				<stop  offset="0.4903" style="stop-color:#8FA6EB"/>
				<stop  offset="0.7125" style="stop-color:#9CB3FA"/>
				<stop  offset="0.8936" style="stop-color:#A0B7FF"/>
			</linearGradient>
			<circle style="fill:url(#SVGID_00000101101809816155301980000013193083268345272455_);" cx="82.3" cy="74.9" r="75.3"/>
		</g>
		<g>
			<g>
				<g>
					<path class="st3" d="M142.2,159.2c-5.8-1.2-13.4-8.2-18.7-15c-6-7.7-13-21.3-14.2-32.5c-1.2-11.2,6.7-126.7,6.7-138.6
						c0-12-15.5-36.4-31.7-39.5c-4.9-0.9-40.5-1.5-70.8-1.8L-15.7-7.8l90.9-0.6c0,0-10.9,24.2-7.1,43.8
						c3.8,19.6,21.6,77.5,21.6,81.1c0.1,3.6-8.5,18.5-0.6,23.2c7.9,4.7,11.3,3.9,18.2,9.6c5.6,4.7,8.5,12,18.2,13.2
						c6.5,0.8,11.7,1,15.1,1.3C144.1,164.1,148.1,160.4,142.2,159.2z"/>
				</g>
				<g class="st4">
					<path class="st5" d="M107.6-26.1c0.7-1.6-5.4-20.9-23.2-40.3c16.2,3.1,31.7,27.6,31.7,39.5c0,11.4-7.2,116.3-6.9,136.2
						C108,107.8,92.4,28.3,107.6-26.1z"/>
				</g>
				<path class="st3" d="M118.9,152.7c-3.1-3.4-5.2-7.4-9.5-9.3c-3.7-1.7-8-2.5-11-5.4c-2.8-2.7-4.1-7.1-3.3-10.9
					c0.7-3.6,3.7-6.2,6.3-8.4c1-0.9,2-1.7,2.9-2.7c-0.3-0.5-0.8-1-1.1-1.5c-2.3-3-5-5.5-7-8.7c-5.2-8.5-5.6-19.5-7.6-29
					c-2-9.2-5.8-18.6-4.1-28.1c1.9-10.7,8.3-20,8.2-31.1C92.7,8.7,88.2-3.2,79.7-7.1c-2-0.9-2.7-3.4-1.9-5.3
					c2.3-5.2,7.5-8.1,10.9-12.4c-3.6-0.9-7.8,1-11.1,2.3c-5.7,2.2-11.1,3.9-17.2,4.4c-6.7,0.6-13.5-0.2-20.2-0.3
					C33.6-18.6,27-18.4,20.5-18c-11.8,0.7-23.4,2.6-34.2,6.2l-2,4.1l90.9-0.6c0,0-10.9,24.2-7.1,43.8c3.8,19.6,21.6,77.5,21.6,81.1
					c0.1,3.6-8.5,18.5-0.6,23.2c7.9,4.7,11.3,3.9,18.2,9.6c5.6,4.7,8.5,12,18.2,13.2c6.5,0.8,11.7,1,15.1,1.3
					c1.5,0.1,3.1-0.5,3.9-1.4C135.4,160.9,125.5,160,118.9,152.7z"/>
			</g>
			<g>
				<g class="st6">
					<g>
						<image style="overflow:visible;" width="11" height="12" xlink:href="C628402A.png"  transform="matrix(1 0 0 1 85 29.6)">
						</image>
					</g>
					<g>
						<image style="overflow:visible;" width="15" height="17" xlink:href="C628402E.png"  transform="matrix(1 0 0 1 89 32.6)">
						</image>
					</g>
					<g>
						<image style="overflow:visible;" width="19" height="7" xlink:href="C6284029.png"  transform="matrix(1 0 0 1 93 45.6)">
						</image>
					</g>
					<g>
						<image style="overflow:visible;" width="14" height="14" xlink:href="C628402B.png"  transform="matrix(1 0 0 1 82 44.6)">
						</image>
					</g>
					<g>
						<g>
							<image style="overflow:visible;" width="3" height="3" xlink:href="C6284028.png"  transform="matrix(1 0 0 1 83 48.6)">
							</image>
						</g>
						<g>
							<image style="overflow:visible;" width="4" height="4" xlink:href="C6284036.png"  transform="matrix(1 0 0 1 84 48.6)">
							</image>
						</g>
						<g>
							<image style="overflow:visible;" width="4" height="2" xlink:href="C6284039.png"  transform="matrix(1 0 0 1 85 51.6)">
							</image>
						</g>
						<g>
							<image style="overflow:visible;" width="3" height="4" xlink:href="C628403A.png"  transform="matrix(1 0 0 1 83 50.6)">
							</image>
						</g>
					</g>
					<g class="st7">
						<g>
							<image style="overflow:visible;" width="6" height="7" xlink:href="C6284038.png"  transform="matrix(1 0 0 1 96 29.6)">
							</image>
						</g>
						<g>
							<image style="overflow:visible;" width="9" height="10" xlink:href="A3D1466D.png"  transform="matrix(1 0 0 1 98 30.6)">
							</image>
						</g>
						<g>
							<image style="overflow:visible;" width="11" height="5" xlink:href="A3D14663.png"  transform="matrix(1 0 0 1 100 37.6)">
							</image>
						</g>
						<g>
							<image style="overflow:visible;" width="8" height="8" xlink:href="A3D14665.png"  transform="matrix(1 0 0 1 94 37.6)">
							</image>
						</g>
					</g>
					<g>
						<image style="overflow:visible;" width="23" height="29" xlink:href="A3D14667.png"  transform="matrix(1 0 0 1 73 27.6)">
						</image>
					</g>
					<g>
						<image style="overflow:visible;" width="28" height="25" xlink:href="A3D14664.png"  transform="matrix(1 0 0 1 81 26.6)">
						</image>
					</g>
				</g>
				<g class="st4">
					<g>
						<image style="overflow:visible;" width="7" height="8" xlink:href="A3D1467C.png"  transform="matrix(1 0 0 1 82 53.6)">
						</image>
					</g>
					<g>
						<image style="overflow:visible;" width="11" height="6" xlink:href="A3D1467D.png"  transform="matrix(1 0 0 1 79 57.6)">
						</image>
					</g>
					<g>
						<image style="overflow:visible;" width="4" height="11" xlink:href="A3D1467F.png"  transform="matrix(1 0 0 1 79 59.6)">
						</image>
					</g>
					<g>
						<image style="overflow:visible;" width="8" height="8" xlink:href="A3D1467B.png"  transform="matrix(1 0 0 1 74 56.6)">
						</image>
					</g>
					<g>
						<g>
							<image style="overflow:visible;" width="2" height="3" xlink:href="A3D14666.png"  transform="matrix(1 0 0 1 77 55.6)">
							</image>
						</g>
						<g>
							<image style="overflow:visible;" width="3" height="2" xlink:href="A3D14698.png"  transform="matrix(1 0 0 1 76 56.6)">
							</image>
						</g>
						<g>
							<image style="overflow:visible;" width="2" height="3" xlink:href="A3D1469B.png"  transform="matrix(1 0 0 1 76 56.6)">
							</image>
						</g>
						<g>
							<image style="overflow:visible;" width="3" height="2" xlink:href="A3D14699.png"  transform="matrix(1 0 0 1 75 56.6)">
							</image>
						</g>
					</g>
					<g class="st7">
						<g>
							<image style="overflow:visible;" width="3" height="5" xlink:href="A3D14697.png"  transform="matrix(1 0 0 1 87 58.6)">
							</image>
						</g>
						<g>
							<image style="overflow:visible;" width="6" height="4" xlink:href="A3D14688.png"  transform="matrix(1 0 0 1 85 60.6)">
							</image>
						</g>
						<g>
							<image style="overflow:visible;" width="3" height="7" xlink:href="A3D1468B.png"  transform="matrix(1 0 0 1 85 61.6)">
							</image>
						</g>
						<g>
							<image style="overflow:visible;" width="5" height="5" xlink:href="A3D14689.png"  transform="matrix(1 0 0 1 82 59.6)">
							</image>
						</g>
					</g>
					<g>
						<image style="overflow:visible;" width="13" height="16" xlink:href="A3D1468F.png"  transform="matrix(1 0 0 1 76 47.6)">
						</image>
					</g>
					<g>
						<image style="overflow:visible;" width="16" height="13" xlink:href="A3D1468A.png"  transform="matrix(1 0 0 1 77 53.6)">
						</image>
					</g>
					<g>
						<image style="overflow:visible;" width="17" height="12" xlink:href="A3D146B5.png"  transform="matrix(1 0 0 1 90 18.6)">
						</image>
					</g>
					<g>
						<image style="overflow:visible;" width="17" height="15" xlink:href="A3D146AF.png"  transform="matrix(1 0 0 1 84 63.6)">
						</image>
					</g>
				</g>
			</g>
		</g>
		<g>
			<g>
				<g>
					<g>
						<polygon class="st8" points="74.9,66.8 74.1,60.5 69.7,61.1 70.3,67.7 						"/>
						<g>
							<polygon class="st9" points="69.7,61.7 69.8,61.7 69.8,61.7 							"/>
							<polygon class="st9" points="69.8,61.7 70,61.4 74.2,60.9 74.2,61.1 69.8,61.7 							"/>
							<polygon class="st9" points="69.8,62.4 69.8,62.3 69.8,62.4 							"/>
							<polygon class="st9" points="69.8,62.3 70.1,62.1 74.3,61.5 74.3,61.8 69.8,62.4 							"/>
							<polygon class="st9" points="70.1,62.7 74.3,62.2 74.4,62.4 69.9,63 							"/>
							<polygon class="st9" points="70.2,63.4 74.4,62.8 74.5,63.1 70,63.7 							"/>
							<polygon class="st9" points="70.3,64 74.5,63.5 74.5,63.7 70,64.3 							"/>
							<polygon class="st9" points="70.4,64.7 74.6,64.1 74.6,64.4 70.1,65 							"/>
							<polygon class="st9" points="70.5,65.3 74.7,64.8 74.7,65 70.2,65.6 							"/>
							<polygon class="st9" points="70.5,66 74.7,65.4 74.8,65.7 70.3,66.3 							"/>
							<polygon class="st9" points="70.6,66.6 74.8,66.1 74.9,66.3 70.3,66.9 							"/>
						</g>
						<polygon class="st10" points="72.5,60.7 73.3,67.1 70.3,67.7 69.7,61.1 						"/>
						<path class="st11" d="M33,111.5c1-7.2,2.6-19.1,2-20.4c-0.8-1.7-9.1-11.5-10-17.5c-0.1-0.4-0.1-0.8,0-1.2c0-0.1,0-0.2,0-0.3
							c0.3-1.7,0.9-3.4,2-4.7c0.2-0.2,0.3-0.4,0.5-0.5c2.6-2.3,9.8-7.9,17.8-9.1c8.5-1.3,17.8-0.3,23.8,1.5c0.9,0.3,1.7,0.8,2.3,1.4
							c-0.2,1.3,0,2.5,0.2,3.7c0.1,0.9,0.1,1.9,0.2,2.8c-0.4,0.6-0.9,1-1.6,1.4c-4.9,2.7-13.6,7.8-13.9,9.2
							c-0.3,1.9,1.7,6.2,2.2,9.2c0.2,1.2-0.8,1.9-2,2.4c-2.4,0.9-3.7,3.3-3.2,5.8c0.8,3.8,2,9,3.5,13.9c0.9,2.9-0.9,5.9-3.9,6.5
							c-3.7,0.7-8.9,1.5-14.7,1.5C34.9,117.3,32.6,114.6,33,111.5z"/>
						<path class="st11" d="M53.1,111.8c0-3.9-1-8-1.8-11.8c-0.8-4.2-2-8.3-2.7-12.5c-0.5-2.6-0.7-6.1-2.8-8.1
							c-1.8-1.7-4.3-2.2-6.7-2c-3.8,0.2-8.3,2.1-12.2,1.6c-1-1.9-1.7-3.7-2-5.2c-0.1-0.3-0.1-0.6,0-1c1.6,0.4,3.1,0.8,4.7,1
							c2.2,0.3,4.5,0.1,6.7-0.3c5.3-0.9,10.5-1.7,15.8-2.5c5.7-0.8,11.4-1.8,16.9-3.5c0.8-0.3,1.7-0.5,2.6-0.8c0,0.2,0,0.5,0,0.7
							c-0.4,0.6-0.9,1-1.6,1.4c-4.9,2.7-13.6,7.8-13.9,9.2c-0.3,1.9,1.7,6.2,2.2,9.2c0.2,1.2-0.8,1.9-2,2.4
							c-2.4,0.9-3.7,3.3-3.2,5.8c0.8,3.8,2,9,3.5,13.9c0.9,2.9-0.9,5.9-3.9,6.5c0,0-0.1,0-0.1,0C52.9,114.5,53.1,113.2,53.1,111.8z"
							/>
						
							<linearGradient id="SVGID_00000041281717321500704600000016567205277725123219_" gradientUnits="userSpaceOnUse" x1="-6479.9702" y1="11117.3916" x2="-6413.5508" y2="11117.3916" gradientTransform="matrix(-0.4962 0.8682 0.8682 0.4962 -12794.0039 171.2968)">
							<stop  offset="0" style="stop-color:#262034"/>
							<stop  offset="0.9893" style="stop-color:#050013"/>
						</linearGradient>
						<path style="fill:url(#SVGID_00000041281717321500704600000016567205277725123219_);" d="M33,111.5
							C33,111.5,33,111.4,33,111.5c1.4,2.9,6.3,2.4,9.1,2.5c5,0.2,11.1-0.5,14.6-2.1c-0.4,1.9-1.9,3.5-4,3.9
							c-3.7,0.7-8.8,1.5-14.6,1.5C35,117.3,32.6,114.6,33,111.5z"/>
						
							<linearGradient id="SVGID_00000044171916635025172180000001520000623159981959_" gradientUnits="userSpaceOnUse" x1="-6479.9741" y1="11112.9238" x2="-6413.5503" y2="11112.9238" gradientTransform="matrix(-0.4962 0.8682 0.8682 0.4962 -12794.0039 171.2968)">
							<stop  offset="0" style="stop-color:#262034"/>
							<stop  offset="0.9893" style="stop-color:#050013"/>
						</linearGradient>
						<path style="fill:url(#SVGID_00000044171916635025172180000001520000623159981959_);" d="M51.1,86.5c-0.2-2.1-0.1-3.7,1.4-5.2
							c1.1-1.2,2.4-2.2,3.7-3.1c-0.2,2,1.7,6.1,2.2,9c0.2,1.2-0.8,1.9-2,2.4c-2,0.7-3.3,2.6-3.3,4.7C52.4,93.5,51.3,88.3,51.1,86.5z
							"/>
						
							<linearGradient id="SVGID_00000063613191264364748330000015590221224255062673_" gradientUnits="userSpaceOnUse" x1="-12631.4619" y1="61.2546" x2="-12650.9355" y2="66.3111" gradientTransform="matrix(-1 0 0 1 -12594.7432 0)">
							<stop  offset="0" style="stop-color:#F6F7F9"/>
							<stop  offset="1" style="stop-color:#E4E7ED"/>
						</linearGradient>
						<path style="fill:url(#SVGID_00000063613191264364748330000015590221224255062673_);" d="M65.1,62.3c-4.4,1-8.7,2.1-13.1,3.1
							c-4.6,1-9.2,2-13.9,2.7c-2.3,0.3-4.5,0.6-6.8,0.4c-0.8-0.1-1.6-0.1-2.4-0.2c0.3-0.5,0.6-1,1.1-1.3c2.4-2.1,8.9-7.1,16.1-8.2
							c7.6-1.1,16.1-0.3,21.5,1.4c0.8,0.2,1.5,0.7,2,1.3C68,61.7,66.5,62,65.1,62.3z"/>
						
							<linearGradient id="SVGID_00000112631378320664361110000006932707462350781344_" gradientUnits="userSpaceOnUse" x1="-12630.835" y1="89.9091" x2="-12638.3652" y2="105.2939" gradientTransform="matrix(-1 0 0 1 -12594.7432 0)">
							<stop  offset="0" style="stop-color:#F6F7F9"/>
							<stop  offset="1" style="stop-color:#E4E7ED"/>
						</linearGradient>
						<path style="fill:url(#SVGID_00000112631378320664361110000006932707462350781344_);" d="M36.7,90.7c-0.2-0.5-1.2-1.7-2.3-3.4
							c0.3-0.2,0.7-0.4,1-0.7c1.7-1.5,3.3-4.2,5.9-3.9c4.9,0.5,3.7,6.9,2.4,10c-2.7,6.4-2.4,13.5,0.1,19.8c-1.4,0.1-2.9,0.2-4.4,0.2
							c-2.6,0-4.6-2.3-4.2-4.9C35.9,101.7,37.2,91.8,36.7,90.7z"/>
						
							<linearGradient id="SVGID_00000183244875535617360480000008752459256812906394_" gradientUnits="userSpaceOnUse" x1="-6435.4409" y1="11113.792" x2="-6431.7705" y2="11113.792" gradientTransform="matrix(-0.4962 0.8682 0.8682 0.4962 -12794.0039 171.2968)">
							<stop  offset="0" style="stop-color:#262034"/>
							<stop  offset="0.9893" style="stop-color:#050013"/>
						</linearGradient>
						<path style="fill:url(#SVGID_00000183244875535617360480000008752459256812906394_);" d="M46.4,101.9c0.9,0.5,2,0.2,2.5-0.7
							c0.5-0.9,0.2-2-0.7-2.5c-0.9-0.5-2-0.2-2.5,0.7C45.2,100.3,45.6,101.4,46.4,101.9z"/>
						
							<linearGradient id="SVGID_00000153667425844263318440000013019307212256189840_" gradientUnits="userSpaceOnUse" x1="-12642.7275" y1="104.5255" x2="-12641.3115" y2="104.5255" gradientTransform="matrix(-1 0 0 1 -12594.7432 0)">
							<stop  offset="0" style="stop-color:#E4E7ED"/>
							<stop  offset="1" style="stop-color:#F6F7F9"/>
						</linearGradient>
						<path style="fill:url(#SVGID_00000153667425844263318440000013019307212256189840_);" d="M46.9,105.1c0.3,0.2,0.8,0.1,1-0.3
							c0.2-0.3,0.1-0.8-0.3-1c-0.3-0.2-0.8-0.1-1,0.3C46.5,104.5,46.6,104.9,46.9,105.1z"/>
						
							<linearGradient id="SVGID_00000093152344840732934790000013847406416826976400_" gradientUnits="userSpaceOnUse" x1="-12643.124" y1="106.6823" x2="-12641.709" y2="106.6823" gradientTransform="matrix(-1 0 0 1 -12594.7432 0)">
							<stop  offset="0" style="stop-color:#E4E7ED"/>
							<stop  offset="1" style="stop-color:#F6F7F9"/>
						</linearGradient>
						<path style="fill:url(#SVGID_00000093152344840732934790000013847406416826976400_);" d="M47.3,107.3c0.3,0.2,0.8,0.1,1-0.3
							c0.2-0.3,0.1-0.8-0.3-1c-0.3-0.2-0.8-0.1-1,0.3C46.9,106.7,47,107.1,47.3,107.3z"/>
					</g>
					<g>
						
							<linearGradient id="SVGID_00000178172062951416859140000003542086025889497008_" gradientUnits="userSpaceOnUse" x1="-12219.3682" y1="2670.4431" x2="-12218.043" y2="2670.4431" gradientTransform="matrix(-0.9892 0.1466 0.1466 0.9892 -12435.8525 -780.4937)">
							<stop  offset="0" style="stop-color:#262034"/>
							<stop  offset="0.9893" style="stop-color:#050013"/>
						</linearGradient>
						<path style="fill:url(#SVGID_00000178172062951416859140000003542086025889497008_);" d="M41.9,68.8L41.9,68.8
							c0.1,0,0.3,0,0.3,0.2l0.8,1.3c0.1,0.2,0,0.5-0.2,0.5l0,0c-0.1,0-0.3,0-0.3-0.2l-0.8-1.3C41.5,69.1,41.7,68.9,41.9,68.8z"/>
						
							<linearGradient id="SVGID_00000109025823547148289610000018111861277425886652_" gradientUnits="userSpaceOnUse" x1="-12218.043" y1="2670.4434" x2="-12216.7178" y2="2670.4434" gradientTransform="matrix(-0.9892 0.1466 0.1466 0.9892 -12435.8525 -780.4937)">
							<stop  offset="0" style="stop-color:#262034"/>
							<stop  offset="0.9893" style="stop-color:#050013"/>
						</linearGradient>
						<path style="fill:url(#SVGID_00000109025823547148289610000018111861277425886652_);" d="M40.6,69L40.6,69
							c0.1,0,0.3,0,0.3,0.2l0.8,1.3c0.1,0.2,0,0.5-0.2,0.5l0,0c-0.1,0-0.3,0-0.3-0.2l-0.8-1.3C40.2,69.3,40.4,69.1,40.6,69z"/>
						
							<linearGradient id="SVGID_00000152261644390054411220000001313553403738626177_" gradientUnits="userSpaceOnUse" x1="-12216.7178" y1="2670.4431" x2="-12215.3916" y2="2670.4431" gradientTransform="matrix(-0.9892 0.1466 0.1466 0.9892 -12435.8525 -780.4937)">
							<stop  offset="0" style="stop-color:#262034"/>
							<stop  offset="0.9893" style="stop-color:#050013"/>
						</linearGradient>
						<path style="fill:url(#SVGID_00000152261644390054411220000001313553403738626177_);" d="M39.3,69.2L39.3,69.2
							c0.1,0,0.3,0,0.3,0.2l0.8,1.3c0.1,0.2,0,0.5-0.2,0.5l0,0c-0.1,0-0.3,0-0.3-0.2L39,69.7C38.9,69.5,39,69.3,39.3,69.2z"/>
						
							<linearGradient id="SVGID_00000036938569236922755250000017412742905459532223_" gradientUnits="userSpaceOnUse" x1="-12215.3916" y1="2670.4431" x2="-12214.0664" y2="2670.4431" gradientTransform="matrix(-0.9892 0.1466 0.1466 0.9892 -12435.8525 -780.4937)">
							<stop  offset="0" style="stop-color:#262034"/>
							<stop  offset="0.9893" style="stop-color:#050013"/>
						</linearGradient>
						<path style="fill:url(#SVGID_00000036938569236922755250000017412742905459532223_);" d="M38,69.4L38,69.4
							c0.1,0,0.3,0,0.3,0.2l0.8,1.3c0.1,0.2,0,0.5-0.2,0.5l0,0c-0.1,0-0.3,0-0.3-0.2l-0.8-1.3C37.6,69.7,37.7,69.5,38,69.4z"/>
						
							<linearGradient id="SVGID_00000001630544693898718260000001639230198526164125_" gradientUnits="userSpaceOnUse" x1="-12214.0664" y1="2670.4429" x2="-12212.7412" y2="2670.4429" gradientTransform="matrix(-0.9892 0.1466 0.1466 0.9892 -12435.8525 -780.4937)">
							<stop  offset="0" style="stop-color:#262034"/>
							<stop  offset="0.9893" style="stop-color:#050013"/>
						</linearGradient>
						<path style="fill:url(#SVGID_00000001630544693898718260000001639230198526164125_);" d="M36.7,69.6L36.7,69.6
							c0.1,0,0.3,0,0.3,0.2l0.8,1.3c0.1,0.2,0,0.5-0.2,0.5l0,0c-0.1,0-0.3,0-0.3-0.2l-0.8-1.3C36.3,69.9,36.4,69.7,36.7,69.6z"/>
						
							<linearGradient id="SVGID_00000029033773574705146450000018346724673055095444_" gradientUnits="userSpaceOnUse" x1="-12212.7412" y1="2670.4431" x2="-12211.415" y2="2670.4431" gradientTransform="matrix(-0.9892 0.1466 0.1466 0.9892 -12435.8525 -780.4937)">
							<stop  offset="0" style="stop-color:#262034"/>
							<stop  offset="0.9893" style="stop-color:#050013"/>
						</linearGradient>
						<path style="fill:url(#SVGID_00000029033773574705146450000018346724673055095444_);" d="M35.4,69.8L35.4,69.8
							c0.1,0,0.3,0,0.3,0.2l0.8,1.3c0.1,0.2,0,0.5-0.2,0.5l0,0c-0.1,0-0.3,0-0.3-0.2l-0.8-1.3C35,70.1,35.1,69.8,35.4,69.8z"/>
						
							<linearGradient id="SVGID_00000047040012289806397380000012617398317206511515_" gradientUnits="userSpaceOnUse" x1="-12211.415" y1="2670.4431" x2="-12210.0898" y2="2670.4431" gradientTransform="matrix(-0.9892 0.1466 0.1466 0.9892 -12435.8525 -780.4937)">
							<stop  offset="0" style="stop-color:#262034"/>
							<stop  offset="0.9893" style="stop-color:#050013"/>
						</linearGradient>
						<path style="fill:url(#SVGID_00000047040012289806397380000012617398317206511515_);" d="M34,70L34,70c0.1,0,0.3,0,0.3,0.2
							l0.8,1.3c0.1,0.2,0,0.5-0.2,0.5l0,0c-0.1,0-0.3,0-0.3-0.2l-0.8-1.3C33.7,70.3,33.8,70,34,70z"/>
						
							<linearGradient id="SVGID_00000070817248307028897220000000237286069258241418_" gradientUnits="userSpaceOnUse" x1="-12210.0898" y1="2670.4429" x2="-12208.7646" y2="2670.4429" gradientTransform="matrix(-0.9892 0.1466 0.1466 0.9892 -12435.8525 -780.4937)">
							<stop  offset="0" style="stop-color:#262034"/>
							<stop  offset="0.9893" style="stop-color:#050013"/>
						</linearGradient>
						<path style="fill:url(#SVGID_00000070817248307028897220000000237286069258241418_);" d="M32.7,70.2L32.7,70.2
							c0.1,0,0.3,0,0.3,0.2l0.8,1.3c0.1,0.2,0,0.5-0.2,0.5l0,0c-0.1,0-0.3,0-0.3-0.2l-0.8-1.3C32.4,70.5,32.5,70.2,32.7,70.2z"/>
					</g>
				</g>
				<path class="st27" d="M48.4,96.9c-0.7-3.8-2.5-16.2-2.4-18c0.2-2.6,3.1-3.5,5.4-4.7c3.6-1.7,7.6-2.6,11.5-3.4
					c1.5-0.3,3-0.5,4.5-0.6c-0.5,0.3-1,0.6-1.5,0.8c-2.1,1.2-4.2,2.5-6.2,3.8c-1,0.6-1.9,1.3-2.8,2c-0.3,0.3-0.7,0.6-0.8,0.9
					c-0.2,0.4-0.1,1,0,1.5c0.3,2,1.1,3.9,1.6,5.8c0.1,0.5,0.3,1,0.4,1.5c0.1,0.6,0.3,1.1,0,1.7c-0.5,1-1.7,1.2-2.6,1.8
					c-1.7,1-2.7,2.9-2.5,4.8c0.1,1.1,0.4,2.3,0.7,3.4c0.3,1.2,0.5,2.4,0.8,3.5c0.6,2.5,1.2,4.9,2,7.3c0.5,1.5,0.4,3-0.4,4.4
					c-0.8,1.3-2,2.1-3.5,2.4c-1.6,0.3-3.2,0.6-4.8,0.8C50.7,110.4,49.7,103.6,48.4,96.9z"/>
			</g>
			<g>
				<path class="st28" d="M14.4,126.3h1.8c0-1.6-1.5-2.5-2.2-2.9c-1.1-0.7-2.3-1.1-3.4-1.5c-1-0.3-1.9-0.7-2.8-1.1
					c-1-0.6-2.2-1.6-2.1-2.7c0.5-4.7,4-7.1,6-8.2c5.4-2.7,11,1.3,15.9,4.8c0.7,0.5,1.3,0.9,1.9,1.4l1.5,1c1.5,1.1,3,2.1,4.6,3.1
					c1.5,0.9,3.3,2,5.3,2.2c2.1,0.1,3.5-0.4,4.1-1.5c1.3-2.2-1-5.7-1.2-6.1l-1.5,1c0.6,0.9,1.7,3.2,1.2,4.2
					c-0.4,0.6-1.7,0.7-2.4,0.6c-1.5-0.1-3.1-1.1-4.4-1.9c-1.5-0.9-3.1-2-4.5-3.1l-1.5-1c-0.6-0.4-1.2-0.9-1.9-1.3
					c-5.1-3.7-11.4-8.2-17.8-5c-2.4,1.2-6.5,4.1-7,9.6c-0.2,2,1.4,3.6,3,4.5c1,0.5,2,0.9,3,1.3c1.1,0.4,2.2,0.8,3.1,1.3
					C13.7,125.3,14.4,125.8,14.4,126.3z"/>
			</g>
			<defs>
				<filter id="Adobe_OpacityMaskFilter" filterUnits="userSpaceOnUse" x="60" y="37.4" width="37.3" height="42.8">
					<feColorMatrix  type="matrix" values="1 0 0 0 0  0 1 0 0 0  0 0 1 0 0  0 0 0 1 0"/>
				</filter>
			</defs>
			
				<mask maskUnits="userSpaceOnUse" x="60" y="37.4" width="37.3" height="42.8" id="SVGID_00000023244852145077270290000009571856565295158971_">
				<g class="st29">
					
						<radialGradient id="SVGID_00000122688638972222898370000013708833638912369065_" cx="-15228.1377" cy="2698.6584" r="22.6065" gradientTransform="matrix(-0.7978 0.1705 0.209 0.9779 -12634.3525 17.2427)" gradientUnits="userSpaceOnUse">
						<stop  offset="0" style="stop-color:#A9F5FF"/>
						<stop  offset="0.2113" style="stop-color:#82BCC4"/>
						<stop  offset="0.6019" style="stop-color:#3D585C"/>
						<stop  offset="0.8731" style="stop-color:#11191A"/>
						<stop  offset="1" style="stop-color:#000000"/>
					</radialGradient>
					<path style="fill:url(#SVGID_00000122688638972222898370000013708833638912369065_);" d="M60.6,63.7
						C63.2,75.9,73.4,84.1,83.4,82c10-2.1,15.9-13.8,13.3-26C94.1,43.8,83.9,35.6,74,37.8C64,39.9,58,51.5,60.6,63.7z"/>
				</g>
			</mask>
			
				<radialGradient id="SVGID_00000105384945033525061050000002728815857382143889_" cx="-15228.1377" cy="2698.4653" r="22.5124" gradientTransform="matrix(-0.7978 0.1705 0.209 0.9779 -12634.3525 17.2427)" gradientUnits="userSpaceOnUse">
				<stop  offset="0.5241" style="stop-color:#C9FFFF"/>
				<stop  offset="0.5647" style="stop-color:#C2F7F7"/>
				<stop  offset="0.6287" style="stop-color:#B1E0E0"/>
				<stop  offset="0.7081" style="stop-color:#93BBBB"/>
				<stop  offset="0.7999" style="stop-color:#6B8888"/>
				<stop  offset="0.9006" style="stop-color:#384747"/>
				<stop  offset="1" style="stop-color:#000000"/>
			</radialGradient>
			
				<path style="mask:url(#SVGID_00000023244852145077270290000009571856565295158971_);fill:url(#SVGID_00000105384945033525061050000002728815857382143889_);" d="
				M69.7,55.3c0,0-2-5.5-2.2-6.1c-0.3-0.7-0.5-2.2-1-2.8c0-0.1,0-0.2-0.1-0.3c0-0.1,0-0.2,0-0.4c-0.1-0.5-0.1-0.9-0.2-1.4
				c-0.1-0.6-0.3-1.2-0.6-1.8c2.3-2.5,5.1-4.2,8.4-4.9c10-2.1,20.2,6,22.8,18.3C99,66.6,95,76.4,87.3,80.2c-1.7-1.4-4-4-5.6-5.5
				c-2.4-2.4-4.7-5.8-6.6-9.1c0,0-2.8,1.5-4.8,2.6c-1.4,0.8-5.5,3.5-6.2,4c-1.6-2.5-2.7-5.4-3.4-8.5c-0.7-3.1-0.8-6.2-0.4-9.1
				C61.1,54.6,69.7,55.3,69.7,55.3z"/>
		</g>
	</g>
</g>
</svg>
