<?xml version="1.0" encoding="utf-8"?>
<!-- Generator: Adobe Illustrator 25.4.8, SVG Export Plug-In . SVG Version: 6.00 Build 0)  -->
<svg version="1.1" id="Layer_1" xmlns="http://www.w3.org/2000/svg" xmlns:xlink="http://www.w3.org/1999/xlink" x="0px" y="0px"
	 viewBox="0 0 169.6 177.7" style="enable-background:new 0 0 169.6 177.7;" xml:space="preserve">
<style type="text/css">
	.st0{clip-path:url(#SVGID_00000072274618555416542500000000003936572252407719_);}
	.st1{fill:#6668D7;}
	.st2{fill:#FCB4CA;}
	.st3{fill:#8B8CEB;}
	.st4{fill:#DEEAFE;}
	.st5{fill:#C0ECEF;}
	.st6{fill:#2B1710;}
	.st7{fill:#FF8762;}
	.st8{fill:#E0B3A8;}
	.st9{fill:#E7FBFC;}
	.st10{fill:#5759B8;}
	.st11{fill:url(#SVGID_00000139978096250470854640000013064003088767431044_);}
	.st12{fill:url(#SVGID_00000026884432892690417530000005383253266447669145_);}
	.st13{fill:url(#SVGID_00000054262852064503610380000008734335412782412977_);}
	.st14{fill:url(#SVGID_00000057132158167136221790000013652869892496235155_);}
	.st15{fill:#E86E2C;}
	.st16{fill:#FF7E57;}
</style>
<g>
	<g>
		<defs>
			<path id="SVGID_1_" d="M150.3,102.5c0,41.5-33.7,75.1-75.1,75.1S0,144,0,102.5s33.7-75.1,75.1-75.1c25.5,0,44.6-58.8,58.2-39.3
				c4.8,6.9,51.8,1.4,51.8,73.1C185.2,82.7,150.3,95.6,150.3,102.5z"/>
		</defs>
		<clipPath id="SVGID_00000013195264464440724100000008212949354725474474_">
			<use xlink:href="#SVGID_1_"  style="overflow:visible;"/>
		</clipPath>
		<g style="clip-path:url(#SVGID_00000013195264464440724100000008212949354725474474_);">
			<g>
				<g>
					<g>
						<rect x="-24.4" y="158.2" class="st1" width="295.8" height="48.1"/>
					</g>
					<g>
						<path class="st2" d="M247.2,168c0,0-79.6,4.1-93.5,2.2c-14-1.9-34.9-11-50.5-32.4l14.8-12.3l32.1-24.2
							c16-5.8,27.4-22.4,43.2-18.6c15.9,3.8,45.8,15.5,45.8,15.5L247.2,168z"/>
					</g>
					<g>
						<path class="st3" d="M63.5,109.2L63.5,109.2c-23.2,0-42,18.8-42,42v14.4h84v-14.4C105.5,128.1,86.7,109.2,63.5,109.2z"/>
					</g>
					<g>
						<polygon class="st4" points="-18.6,119.8 56.2,63.7 70.9,115.6 -15.2,177.8 						"/>
					</g>
					<g>
						<g>
							<path class="st1" d="M167.4,83.5c-0.1,0-0.1,0-0.2,0c-0.6-0.1-1-0.7-0.9-1.2l0.9-6.8c0.9-6.8-3.3-13.5-9.9-15.4
								c-4.7-1.3-8.5-4.8-10.4-9.3c-1.9-4.6-1.7-9.6,0.7-13.9l7.8-14.6c3.2-6.1,1.2-13.8-4.8-17.5c-5.8-3.6-13.5-2-17.6,3.5
								l-15.6,21.4c-0.3,0.4-1,0.6-1.6,0.2c-0.4-0.3-0.6-1-0.2-1.6l15.6-21.4c4.7-6.5,13.7-8.2,20.5-4c6.9,4.2,9.4,13.2,5.6,20.4
								l-7.8,14.6c-2,3.8-2.2,8.1-0.6,12s4.9,6.8,9,8c7.7,2.2,12.6,9.9,11.5,17.7l-0.9,6.8C168.4,83,167.9,83.4,167.4,83.5z"/>
						</g>
					</g>
					<g>
						<path class="st4" d="M54.9,50.5c7.1-0.4,22.2-8.5,25.5-12.6c3.5-4.1,1.2-9.5,12.5-11.5s18.5-14.4,21.3-13.6
							c2.8,0.7,2.2,5.6-0.4,8.7s-3.5,6.6-3.5,6.6s-0.4,4.7,0.4,4.7c0.9,0,6-1.9,7.8-1.2c1.8,0.7,8.8,6.4,8.8,6.4
							s-9.5,17.2-10.9,17.6c-1.4,0.4-12.3,3-19.2,3c-6.9,0-15,2.5-15.5,2.6c-0.4,0.1-14.6,7.4-14.6,7.4L54.9,50.5z"/>
					</g>
					<g>
						<path class="st5" d="M-67.2,39.9c-23.8,9.5-32.5,23.1-37.9,33c-5.3,9.8-7.9,71.2-7.6,73.9c0.3,2.7-13.3,59.5-13.3,59.5h102.3
							c0,0,3.5-27.6,7.2-41.7c3.8-14,15.9-29.5,13.3-46.9s-26-31.8-31.4-49.6s-7.2-24.2-7.4-24.6C-42.1,42.9-67.2,39.9-67.2,39.9z"
							/>
					</g>
					<g>
						<g>
							<path class="st6" d="M17.3-3.2l-0.2-0.7c7.2-2.8,9.4-10.3,6.8-23.4l0.7-0.1C27.2-13.9,24.9-6.2,17.3-3.2z"/>
						</g>
					</g>
					<g>
						<path class="st6" d="M20.5-41.7c8.4,13,4.3,23.8-0.9,27.9C14.3-9.9-38.2,10.6-42,15.8c-3.8,5.3-3.2,4.7-5.1,6
							c-27.6,0.4-45.6-31.3-13.2-39.1C-24.7-42.4-9.3-50-8.7-50C-8.1-50,20.5-41.7,20.5-41.7z"/>
					</g>
					<g>
						<path class="st7" d="M19.3-32.6c3.2,11.5,3.1,19.2,1.6,23.7s-5.6,8.7-6,12.3S16,16.8,16,16.8s-28.4,18.6-29.8,19.4
							c-1.4,0.7-10.5-1-10.5-1C-31,38.7-35.7,56.6-34.5,68c-15.9-23.8-32.7-28.1-32.7-28.1c15.5-13.3,28-34.4,28-34.4
							C-33.9,2-27-8.9-27-8.9c5.7,5,18.5-6.9,21.6-15.8C12.7-29.4,19.3-32.6,19.3-32.6z"/>
					</g>
					<g>
						<circle class="st7" cx="-29.6" cy="-4.7" r="8.5"/>
					</g>
					<g>
						<g>
							<path class="st8" d="M-27.9-0.3c0.2,0,0.4-0.1,0.6-0.3c0.1-0.2,0-0.6-0.3-0.7c-0.7-0.3-1.1-0.8-1.2-1.3
								c0-0.6,0.3-1.2,0.9-1.6c0.6-0.4,1.3-0.4,2-0.1c0.2,0.1,0.3,0.1,0.6,0c0.1-0.1,0.2-0.3,0.2-0.4c-0.1-2-1.4-3.7-3.6-4.2
								c-2.1-0.7-4.3,0-5.6,1.7c-0.2,0.2-0.1,0.6,0.1,0.8c0.2,0.2,0.6,0.1,0.8-0.1c1.1-1.6,3.1-1.7,4.3-1.2c1.1,0.3,2.2,1.1,2.6,2.5
								c-0.8-0.1-1.6,0-2.1,0.4c-0.9,0.6-1.4,1.6-1.3,2.6c0,0.6,0.3,1.6,1.8,2.2C-28-0.3-27.9-0.3-27.9-0.3z"/>
						</g>
					</g>
					<g>
						<g>
							<path class="st6" d="M0.8-7.5c-0.1,0-0.2-0.1-0.3-0.2c0-0.3,0.2-0.4,0.3-0.6c4.5-3.8,12.4-5.7,13.8,1c0,0.2,0.2,0.3,0.1,0.6
								c-0.1,0.2-0.3,0.2-0.6,0.1C12.4-7.7,6.6-9.1,1-7.6C0.9-7.5,0.9-7.5,0.8-7.5z"/>
						</g>
					</g>
					<g>
						<ellipse transform="matrix(0.4662 -0.8847 0.8847 0.4662 4.2726 4.4402)" class="st6" cx="5.8" cy="-1.3" rx="4.2" ry="2.3"/>
					</g>
					<g>
						<g>
							<path class="st8" d="M2.7,3.4C2,3,0.6,1.9,1.4-1c0-0.1,0.1-0.1,0.2-0.1c0.1,0,0.1,0.1,0.1,0.2C0.9,1.9,2.3,2.9,3,3.1
								c0.1,0,0.2,0.1,0.1,0.2c0,0.1-0.1,0.1-0.2,0.1C2.8,3.5,2.8,3.5,2.7,3.4z"/>
						</g>
					</g>
					<g>
						<path class="st5" d="M-21.3-7.8C-12.1,7.9,15.3,10,15.3,10s3,6.8,2.2,10.3C16.7,23.6-8.8,42.8-14.9,41
							c-6-1.7-18.2-19.2-18.2-36.6C-19.3,7.9-21.3-7.8-21.3-7.8z"/>
					</g>
					<g>
						<path class="st9" d="M-21.3-7.8c0,0,0.8,5.7-1.7,9.5c3.6,5,15,20.3,28.3,29.4c6.4-4.6,11.8-9.4,12.1-10.8
							c0.8-3.5-2.2-10.3-2.2-10.3S-12.3,7.9-21.3-7.8z"/>
					</g>
					<g>
						<path class="st9" d="M-57.8-13.7c18.7,5.1,29.3,1.7,42.2-9.5S21-37.5,22.8-37.5C29.3-47.8,15-70.1-4.2-68.6
							C-31-79.8-58.6-67.7-61.2-44C-73-36.5-69.7-15.7-57.8-13.7z"/>
					</g>
					<g>
						<g>
							<path class="st6" d="M-3.6-16.9c-3,0-5.8-0.7-7.9-1.9l-0.2-0.1v-0.2c0-0.6,1-3,1.1-3.6l0.1-0.3l0.3,0.1
								c8.8,2.7,24,0.1,29.6-11.6l0.7,0.3C14.4-22.3-1-19.6-10-22.2c-0.4,1.1-0.9,2.2-1,2.8c4.3,2.5,11,2.2,17.9-0.6
								c7.6-3.1,13.2-8.5,14.6-13.9c1.1-4.2,1.4-4.5,1.9-4.3c0.3,0.1,1,0.2-0.2,9.6l-0.7-0.1c0.4-3.1,0.7-6.6,0.7-8.1
								c-0.2,0.6-0.4,1.4-0.9,3.1c-1.4,5.7-7.2,11.1-15,14.4C3.6-17.7-0.2-16.9-3.6-16.9z"/>
						</g>
					</g>
					<g>
						<g>
							<path class="st10" d="M119.7,24.3L119.7,24.3c-2.5-1.9-6-1.4-7.9,1.1L86.1,59.1l9,6.9l25.6-33.7
								C122.7,29.8,122.3,26.2,119.7,24.3z"/>
						</g>
						<g>
							<path class="st1" d="M97.6,76.4l-22-16.7l0,0c3.2-4.2,9.3-5,13.5-1.8l6.7,5.1C100.1,66.1,100.9,72.1,97.6,76.4L97.6,76.4z"/>
						</g>
						<g>
							<path class="st3" d="M94.4,79l-21-15.9c-1.1-0.9-1.3-2.6-0.6-3.7l0,0c0.9-1.1,2.6-1.3,3.7-0.6l21,15.9
								c1.1,0.9,1.3,2.6,0.6,3.7l0,0C97.3,79.7,95.6,79.9,94.4,79z"/>
						</g>
					</g>
					<g>
						
							<linearGradient id="SVGID_00000134937200274115332710000016741490023161179020_" gradientUnits="userSpaceOnUse" x1="108.9635" y1="151.8708" x2="130.2609" y2="151.8708" gradientTransform="matrix(1 0 0 -1 0 189.9618)">
							<stop  offset="0" style="stop-color:#DEEAFE"/>
							<stop  offset="1" style="stop-color:#A1C3FC"/>
						</linearGradient>
						<path style="fill:url(#SVGID_00000134937200274115332710000016741490023161179020_);" d="M126.8,42.5l-15.5-3
							c-1.6-0.3-2.6-1.8-2.3-3.5l0,0c0.3-1.6,1.8-2.6,3.5-2.3l15.5,3c1.6,0.3,2.6,1.8,2.3,3.5l0,0C129.9,41.8,128.4,42.8,126.8,42.5
							z"/>
					</g>
					<g>
						
							<linearGradient id="SVGID_00000175292147923197287150000013945580718302402197_" gradientUnits="userSpaceOnUse" x1="105.5503" y1="146.3007" x2="126.8477" y2="146.3007" gradientTransform="matrix(1 0 0 -1 0 189.9618)">
							<stop  offset="0" style="stop-color:#DEEAFE"/>
							<stop  offset="1" style="stop-color:#A1C3FC"/>
						</linearGradient>
						<path style="fill:url(#SVGID_00000175292147923197287150000013945580718302402197_);" d="M123.4,48l-15.5-3
							c-1.6-0.3-2.6-1.8-2.3-3.5l0,0c0.3-1.6,1.8-2.6,3.5-2.3l15.5,3c1.6,0.3,2.6,1.8,2.3,3.5l0,0C126.5,47.3,124.9,48.4,123.4,48z"
							/>
					</g>
					<g>
						
							<linearGradient id="SVGID_00000057857255058965025460000006742899205070290108_" gradientUnits="userSpaceOnUse" x1="107.4962" y1="140.5032" x2="124.1635" y2="140.5032" gradientTransform="matrix(1 0 0 -1 0 189.9618)">
							<stop  offset="0" style="stop-color:#DEEAFE"/>
							<stop  offset="1" style="stop-color:#A1C3FC"/>
						</linearGradient>
						<path style="fill:url(#SVGID_00000057857255058965025460000006742899205070290108_);" d="M120.7,53.4l-10.8-2.1
							c-1.6-0.3-2.6-1.8-2.3-3.5l0,0c0.3-1.6,1.8-2.6,3.5-2.3l10.8,2.1c1.6,0.3,2.6,1.8,2.3,3.5l0,0
							C123.8,52.7,122.3,53.7,120.7,53.4z"/>
					</g>
					<g>
						
							<linearGradient id="SVGID_00000056404782197438109860000002293028153823225268_" gradientUnits="userSpaceOnUse" x1="104.1852" y1="135.1482" x2="119.7969" y2="135.1482" gradientTransform="matrix(1 0 0 -1 0 189.9618)">
							<stop  offset="0" style="stop-color:#DEEAFE"/>
							<stop  offset="1" style="stop-color:#A1C3FC"/>
						</linearGradient>
						<path style="fill:url(#SVGID_00000056404782197438109860000002293028153823225268_);" d="M116.7,59.5l-11.3-5.5
							c-1.1-0.6-1.6-1.8-1-2.9l0,0c0.6-1.1,1.8-1.6,2.9-1l11.3,5.5c1.1,0.6,1.6,1.8,1,2.9l0,0C119,59.5,117.8,60,116.7,59.5z"/>
					</g>
					<g>
						<g>
							<path class="st6" d="M90,116.9c-5.6,19.1-27,21.2-37.3,9.7C25.7,115,5.3,91,38.9,58.6C51,40.2,80.7,45.6,79.3,65
								C87.8,95.9,90,116.9,90,116.9z"/>
						</g>
						<g>
							<path class="st7" d="M150.1,101.4c-10.5,8.2-35.4,9.7-42.2,4.9c7.2-13.9-0.1-25.2-5.1-29.4S88.6,69.8,77,63.3
								s-19.4-5.5-32.3-2.5c-12.5,18.6,1.4,31.5,11.7,36.8c10.1,5.2,14.8,10.8,9.1,17.3c19.8,8.4,33.4,16.9,37.6,23
								C146.8,128.1,150.1,101.4,150.1,101.4z"/>
						</g>
						<g>
							<g>
								<path class="st15" d="M88.8,99.4c1.4-8.7,6.1-16.7,8.9-16.3C98,88.5,91.8,96.9,88.8,99.4z"/>
							</g>
						</g>
						<g>
							<circle class="st7" cx="67.8" cy="120.7" r="6.8"/>
						</g>
						<g>
							<g>
								<path class="st15" d="M71.7,120.9c0.1-0.1,0.1-0.3-0.1-0.4c-0.1-0.2-0.4-0.2-0.7,0c-0.4,0.4-1,0.6-1.3,0.3
									c-0.4-0.1-0.8-0.7-0.8-1.2c-0.1-0.6,0.1-1.1,0.7-1.4c0.1-0.1,0.2-0.2,0.2-0.4c0-0.1-0.1-0.3-0.2-0.3c-1.4-0.7-3.1-0.2-4.3,1
									c-1.2,1.3-1.6,3.1-0.8,4.7c0.1,0.2,0.3,0.3,0.6,0.2s0.3-0.3,0.2-0.6c-0.7-1.4-0.1-2.8,0.7-3.7c0.7-0.7,1.6-1.2,2.7-1
									c-0.3,0.4-0.6,1.1-0.4,1.8c0.1,0.9,0.7,1.6,1.3,1.9c0.4,0.1,1.2,0.3,2.2-0.6C71.5,121,71.5,120.9,71.7,120.9z"/>
							</g>
						</g>
						<g>
							<path class="st16" d="M78.7,98.9c0.8,1.6,1.6,2.7,1.8,2.6c0.2-0.1-0.2-1.4-1-3c-0.8-1.6-1.6-2.7-1.8-2.6
								C77.3,96,77.9,97.3,78.7,98.9z"/>
						</g>
						<g>
							<path class="st16" d="M80.1,96.6c0.8,1.6,1.6,2.7,1.8,2.6c0.2-0.1-0.2-1.4-1-3c-0.8-1.6-1.6-2.7-1.8-2.6
								C78.9,93.7,79.3,95.1,80.1,96.6z"/>
						</g>
						<g>
							<path class="st16" d="M81.7,94.1c0.8,1.6,1.6,2.7,1.8,2.6c0.2-0.1-0.2-1.4-1-3c-0.8-1.6-1.6-2.7-1.8-2.6
								C80.5,91.2,80.9,92.6,81.7,94.1z"/>
						</g>
						<g>
							<path class="st6" d="M44.8,109.9c11.9-29.1,0.1-49.1,0.1-49.1L34.5,74l2.3,25.2L44.8,109.9z"/>
						</g>
						<g>
							<g>
								<path class="st15" d="M97.8,83.4c6.9,7.6,3,12.9-9,15.7C93.7,93.1,97.1,88.5,97.8,83.4z"/>
							</g>
						</g>
						<g>
							<g>
								<path class="st6" d="M51.8,99.3L51.8,99.3c8.4-17.2,2.5-34.3-8.1-39.6c-0.2-0.1-0.6,0-0.7,0.2c-0.1,0.2,0,0.6,0.2,0.7
									c10.3,5,15.7,21.6,7.7,38.2c-0.1,0.2,0,0.6,0.2,0.7C51.4,99.6,51.7,99.5,51.8,99.3z"/>
							</g>
						</g>
						<g>
							<circle class="st6" cx="28.2" cy="115.9" r="20.5"/>
						</g>
					</g>
					<g>
						<path class="st9" d="M-87.3,55.1c6-3.2,13.4-2.3,18.4,2.2c23.1,20.5,16.8,45.4,12.7,73.9c-4.6,31.4-6.8,46.9-2.7,46.3
							c4.1-0.8,51.9-26.9,53-26.5c9.1,14,15.9,25.7,15.9,25.7l-33.8,29.5h-102.3C-130.4,166.7-126.6,76.2-87.3,55.1z"/>
					</g>
					<g>
						<path class="st7" d="M139.3,129c-23.2,9.7-1.9,39.8,16.3,41.2c18.2,1.6,91.6-2.2,91.6-2.2l-3.8-26.1
							C243.4,141.8,160,120.3,139.3,129z"/>
					</g>
				</g>
			</g>
			<g>
				<path class="st15" d="M88.7,84.2c0.1-0.1,0.1-0.3,0.1-0.6c-0.2-0.6-0.2-1-0.2-1.6s0-1.1-0.2-1.7c-1.2-2.6-3.5-3.6-6-2.7
					c-2.2,0.8-8.7-0.4-11.9-4.3c-0.2-0.2-0.6-0.3-0.9-0.1c-0.2,0.2-0.3,0.6-0.1,0.9c3.3,4.1,10.4,5.7,13.2,4.7c2-0.7,3.7,0,4.6,2
					c0.1,0.3,0.1,0.7,0.1,1.1c0,0.6,0,1.3,0.3,2c0.1,0.3,0.4,0.4,0.8,0.3C88.5,84.3,88.6,84.3,88.7,84.2z"/>
				<path class="st15" d="M85.4,88.1c0.1-0.1,0.1-0.3,0.1-0.4c-0.1-0.3-0.3-0.6-0.7-0.4c-1,0.2-2.9,1.1-3.1,3.5
					c0,0.3,0.2,0.7,0.6,0.7s0.7-0.2,0.7-0.6c0.2-2,2-2.5,2.1-2.5C85.1,88.3,85.3,88.2,85.4,88.1z"/>
			</g>
		</g>
	</g>
</g>
</svg>
