<?xml version="1.0" encoding="utf-8"?>
<!-- Generator: Adobe Illustrator 25.4.8, SVG Export Plug-In . SVG Version: 6.00 Build 0)  -->
<svg version="1.1" id="Layer_1" xmlns="http://www.w3.org/2000/svg" xmlns:xlink="http://www.w3.org/1999/xlink" x="0px" y="0px"
	 viewBox="0 0 166.6 166.2" style="enable-background:new 0 0 166.6 166.2;" xml:space="preserve">
<style type="text/css">
	.st0{clip-path:url(#SVGID_00000031892931859438916130000006329929218480155539_);}
	.st1{fill:#EFBF8D;}
	.st2{fill:#EFBF8D;stroke:#ED906B;stroke-width:13;stroke-linecap:round;stroke-linejoin:round;stroke-miterlimit:10;}
	.st3{fill:#EFBF8D;stroke:#ED906B;stroke-width:7;stroke-linecap:round;stroke-linejoin:round;stroke-miterlimit:10;}
</style>
<g>
	<defs>
		<path id="SVGID_1_" d="M166.4,83.1c0,45.9-37.2,83.1-83.1,83.1c-45.9,0-83.1-37.2-83.1-83.1C0.2,37.2,37.4,0,83.3,0
			C129.2,0,166.4,37.2,166.4,83.1z"/>
	</defs>
	<clipPath id="SVGID_00000047024886737335397630000014843579991458646416_">
		<use xlink:href="#SVGID_1_"  style="overflow:visible;"/>
	</clipPath>
	<g style="clip-path:url(#SVGID_00000047024886737335397630000014843579991458646416_);">
		<rect x="-69.4" y="-43.4" class="st1" width="282.6" height="240.2"/>
		<path class="st2" d="M44,33.8c0,0,14.8,70.5,85.9,85.9"/>
		<g>
			<line class="st3" x1="55.3" y1="39.8" x2="38.1" y2="46"/>
			<line class="st3" x1="61" y1="53.7" x2="44.2" y2="61"/>
			<line class="st3" x1="80.3" y1="81.9" x2="65.6" y2="92.9"/>
			<line class="st3" x1="92.1" y1="93" x2="79.6" y2="106.4"/>
			<line class="st3" x1="104.9" y1="101.2" x2="96.7" y2="117.6"/>
			<line class="st3" x1="119.7" y1="106.9" x2="115.2" y2="124.7"/>
			<line class="st3" x1="70.4" y1="68.3" x2="55.2" y2="78.6"/>
		</g>
	</g>
</g>
</svg>
