<?xml version="1.0" encoding="utf-8"?>
<!-- Generator: Adobe Illustrator 25.4.8, SVG Export Plug-In . SVG Version: 6.00 Build 0)  -->
<svg version="1.1" id="Layer_1" xmlns="http://www.w3.org/2000/svg" xmlns:xlink="http://www.w3.org/1999/xlink" x="0px" y="0px"
	 viewBox="0 0 166.6 166.6" style="enable-background:new 0 0 166.6 166.6;" xml:space="preserve">
<style type="text/css">
	
		.st0{opacity:0.16;clip-path:url(#SVGID_00000175307420781006219040000002442443641399240858_);fill:url(#SVGID_00000080926337695892555410000010351150658099745152_);}
	.st1{clip-path:url(#SVGID_00000175307420781006219040000002442443641399240858_);}
	.st2{fill:#FFC8B1;}
	.st3{fill:#F09982;}
	.st4{fill:#D67E6B;}
	.st5{fill:#FFFFFF;}
	.st6{fill:#F6506C;}
	.st7{opacity:0.32;}
	.st8{fill:#ED1C39;}
	.st9{opacity:0.75;fill:#F87E85;}
	
		.st10{clip-path:url(#SVGID_00000175307420781006219040000002442443641399240858_);fill:url(#SVGID_00000003083593775945371730000012920672523334094749_);}
	
		.st11{clip-path:url(#SVGID_00000175307420781006219040000002442443641399240858_);fill:url(#SVGID_00000170986307462193721170000013261691529733841569_);}
	.st12{fill:none;stroke:#FFFFFF;stroke-miterlimit:10;}
</style>
<g>
	<defs>
		
			<ellipse id="SVGID_1_" transform="matrix(0.7071 -0.7071 0.7071 0.7071 -34.4844 83.3473)" cx="83.4" cy="83.3" rx="83.3" ry="83.3"/>
	</defs>
	<clipPath id="SVGID_00000111176017760936876070000018426323203385492886_">
		<use xlink:href="#SVGID_1_"  style="overflow:visible;"/>
	</clipPath>
	
		<linearGradient id="SVGID_00000163051798318041291360000012372777245153388167_" gradientUnits="userSpaceOnUse" x1="6.685603e-02" y1="83.3" x2="166.6669" y2="83.3">
		<stop  offset="0" style="stop-color:#5F74B1"/>
		<stop  offset="0.2466" style="stop-color:#7A90D2"/>
		<stop  offset="0.4903" style="stop-color:#8FA6EB"/>
		<stop  offset="0.7125" style="stop-color:#9CB3FA"/>
		<stop  offset="0.8936" style="stop-color:#A0B7FF"/>
	</linearGradient>
	
		<circle style="opacity:0.16;clip-path:url(#SVGID_00000111176017760936876070000018426323203385492886_);fill:url(#SVGID_00000163051798318041291360000012372777245153388167_);" cx="83.4" cy="83.3" r="83.3"/>
	<g style="clip-path:url(#SVGID_00000111176017760936876070000018426323203385492886_);">
		<path class="st2" d="M135.9,115.2c0-0.5-0.1-1-0.1-1.5C135.8,114.2,135.9,114.7,135.9,115.2z"/>
		<path class="st2" d="M135.6,107c0,0.2,0,0.4,0,0.6C135.6,107.4,135.6,107.2,135.6,107C135.6,107,135.6,107,135.6,107z"/>
		<path class="st2" d="M135.7,111.5c0-0.4,0-0.9-0.1-1.3C135.7,110.6,135.7,111,135.7,111.5z"/>
		<path class="st2" d="M136,117.5c-0.2-3.3-0.3-6.6-0.4-9.9c0-0.2,0-0.4,0-0.6c-18.3,17.2-39,29.6-51.5,29.6
			c-12.6,0-33.3-12.4-51.5-29.6c-0.3,12.1-1.4,26.3-4.3,39c8.1,7.1,17.7,12.7,28.2,16.3c8.4,2.9,17.4,4.4,26.8,4.4
			c21.8,0,41.6-8.4,56.4-22C137.6,135.7,136.6,126.6,136,117.5z"/>
		<path class="st3" d="M136.1,118.7c0-0.4,0-0.8-0.1-1.3c0-0.8-0.1-1.5-0.1-2.3c0-0.5-0.1-1-0.1-1.5c0-0.8-0.1-1.5-0.1-2.3
			c0-0.4,0-0.9-0.1-1.3c0-0.9-0.1-1.7-0.1-2.6c0-0.2,0-0.4,0-0.6c-18.3,17.2-39,29.6-51.5,29.6c-12.6,0-33.3-12.4-51.5-29.6
			c-0.3,12.1-1.4,26.3-4.3,39c8.1,7.1,17.7,12.7,28.2,16.3c14.1-1.3,28.7-4.4,38.1-8.1C114.2,146.1,121.3,134.2,136.1,118.7z"/>
		<path class="st2" d="M32.5,106.9c18.3,17.2,39,29.6,51.5,29.6c12.6,0,33.3-12.4,51.5-29.6l0,0c11.9-11.2,22.7-24.4,29.7-37.5
			C158.6,30,124.4,0,83.1,0C42.8,0,9.1,28.7,1.5,66.8C8.3,80.8,19.8,95,32.5,106.9z"/>
		<path class="st4" d="M96.8,39.7c0,0,0.1,3.7-2.9,5.7c-3,2-9.6,1.3-9.6,1.3s-6.7,0.7-9.6-1.3c-3-2-2.9-5.7-2.9-5.7
			c-3.6,0.3-5.4,4.9-2.6,9.5c1.8,3,7.5,3.2,11.4,3c2.5-0.1,5-0.1,7.5,0c3.9,0.2,9.6,0,11.4-3C102.1,44.6,100.3,40.1,96.8,39.7z"/>
		<g>
			<g>
				<path class="st5" d="M103,73.4c-1.2-0.7-2.2-1.6-3.2-2.4c-2.5-2-5.4-4.9-9.1-5.2c-1.5-0.2-3.2-0.1-4.5,0.8
					c-0.7,0.5-0.9,0.8-1.2,0.9c-0.1,0-0.4,0-0.5,0c-0.2-0.1-0.5-0.4-1.2-0.9c-1.2-0.8-2.9-0.9-4.5-0.8c-3.7,0.4-6.7,3.2-9.1,5.2
					c-1,0.8-2,1.7-3.2,2.4c-1.4,0.8-3.9,0.4-6.6,0.4c0.5,1,4.1,2.7,8.1,6.4c5.4,5,15.8,4.1,16.7,4.1c0.9,0,11.3,0.9,16.7-4.1
					c4-3.7,7.6-5.4,8.1-6.4C106.9,73.8,104.4,74.2,103,73.4z"/>
			</g>
			<g>
				<g>
					<path class="st6" d="M113.8,74c-1.9-1.3-3.6-2.9-5.3-4.5c-4.1-3.7-8.9-9.1-15.1-9.8c-2.5-0.3-5.3-0.1-7.3,1.4
						c-1.1,0.8-1.5,1.4-1.9,1.6c-0.4-0.2-0.8-0.8-1.9-1.6c-2-1.6-4.8-1.7-7.3-1.4c-6.2,0.7-11,6-15.1,9.8c-1.7,1.5-3.4,3.2-5.3,4.5
						c-2.3,1.5-6.5-0.8-10.8-0.7c0.8,1.9,10.8,3.8,16,12c7.4,11.4,21.3,10.9,24.3,10.7c3,0.2,16.9,0.7,24.3-10.7
						c5.3-8.2,15.2-10.1,16-12C120.3,73.2,116.1,75.6,113.8,74z M91.4,79.9c-2.3,0.6-4.8,0.9-7.1,1.1c-2.4-0.1-4.9-0.5-7.1-1.1
						c-2.9-0.7-5.7-1.7-8.6-2.8c5.6-0.7,10.2-5,15.7-6.8c5.5,1.8,10.1,6.1,15.7,6.8C97.2,78.2,94.3,79.2,91.4,79.9z"/>
				</g>
			</g>
			<g class="st7">
				<g>
					<path class="st8" d="M119.8,73.9c-2.5,0.5-4.6,1.1-6,0.1c-1.9-1.3-3.6-2.9-5.3-4.5c-4.1-3.7-8.9-9.1-15.1-9.8
						c-2.5-0.3-5.3-0.1-7.3,1.4c-1.1,0.8-1.5,1.4-1.9,1.6c-0.4-0.2-0.8-0.8-1.9-1.6c-2-1.6-4.8-1.7-7.3-1.4c-6.2,0.7-11,6-15.1,9.8
						c-1.7,1.5-3.4,3.2-5.3,4.5c-1.5,1-5.2,0.4-7.8-0.2c-0.1,0.7-0.6,0,0.8,1.8c3.6,1.7,8.8,4.4,12.2,9.6
						c7.4,11.4,21.3,10.9,24.3,10.7c3,0.2,16.9,0.7,24.3-10.7c3.2-4.9,8.1-7.6,11.6-9.3C122.4,73.5,119.9,74.6,119.8,73.9z
						 M91.4,79.9c-2.3,0.6-4.8,0.9-7.1,1.1c-2.4-0.1-4.9-0.5-7.1-1.1c-2.9-0.7-5.7-1.7-8.6-2.8c5.6-0.7,10.2-5,15.7-6.8
						c5.5,1.8,10.1,6.1,15.7,6.8C97.2,78.2,94.3,79.2,91.4,79.9z"/>
				</g>
			</g>
			<g>
				<path class="st6" d="M113.9,72.4c-1.9-1.1-3.6-2.6-5.3-3.9c-4.1-3.3-8.9-8-15.1-8.6c-2.5-0.2-5.3-0.1-7.3,1.2
					c-1.1,0.8-1.5,1.3-1.9,1.4c0,0,0,0,0,0c0,0,0,0,0,0c-0.4-0.2-0.8-0.7-1.9-1.4c-2-1.4-4.8-1.5-7.3-1.2c-6.2,0.6-11,5.3-15.1,8.6
					c-1.7,1.4-3.4,2.8-5.3,3.9c-2.3,1.3-6.5,0.6-10.8,0.7c0.2,0.4,0.4,0.9,1.5,1.2c0.9,0.6,1.5,0.4,2.4,0.7c2.4,0.9,5.2,0.2,7.7,0.9
					c3,0.2,6.1,0.3,8.9-0.3c3.1-0.7,5.7-0.6,8.8-1.3c3.6-0.8,6.8-0.9,10.4-0.4c0.3,0,0.6,0.1,0.9,0.1c0.3,0,0.6,0,0.9-0.1
					c3.6-0.5,6.8-0.4,10.4,0.4c3.1,0.7,5.7,0.6,8.8,1.3c2.8,0.7,5.9,0.5,8.9,0.3c2.5-0.6,5.3,0.1,7.7-0.9c0.8-0.3,1.3-0.3,2.3-0.6
					c0.8-0.6,1.3-0.9,1.5-1.3C120.4,73,116.2,73.7,113.9,72.4z"/>
			</g>
			<g>
				<path class="st6" d="M121,73.1c-2.9,0.1-5.5,0.2-7.1-0.7c-1.9-1.1-3.6-2.6-5.3-3.9c-4.1-3.3-8.9-8-15.1-8.6
					c-2.5-0.2-5.3-0.1-7.3,1.2c-1.1,0.8-1.5,1.3-1.9,1.4c0,0,0,0,0,0c0,0,0,0,0,0c-0.4-0.2-0.8-0.7-1.9-1.4c-2-1.4-4.8-1.5-7.3-1.2
					c-6.2,0.6-11,5.3-15.1,8.6c-1.7,1.4-3.4,2.8-5.3,3.9c-1.7,1-4.6,0.8-7.8,0.7c-0.8,0.3-0.7,1,0.2,1.8c0.2,0.1,0.4,0.1,0.6,0.2
					c2.4,0.9,5.2,0.2,7.7,0.9c3,0.2,5.8,2.7,8.6,2c3.1-0.7,5.7-0.6,8.8-1.3c3.6-0.8,7-3.3,10.6-2.8c0.3,0,0.6,0.1,0.9,0.1
					c0.3,0,0.6,0,0.9-0.1c3.6-0.5,6.6,2,10.1,2.8c3.1,0.7,5.7,0.6,8.8,1.3c2.8,0.7,6.1-1.8,9.1-2c2.5-0.6,5.2,0.1,7.6-0.8
					C122.1,74,121.8,73.2,121,73.1z"/>
			</g>
			<path class="st9" d="M80.4,82.7c-3.9-0.2-7.2,0.6-7.2,1.6c0,1.1,3.1,2.1,7,2.3c3.9,0.2,7.2-0.6,7.2-1.6
				C87.5,83.9,84.3,82.8,80.4,82.7z"/>
			<path class="st9" d="M74.7,61.7c-1.7,0-3.1,0.8-3.1,1.7c0,1,1.4,1.7,3.1,1.7c1.7,0,3.1-0.8,3.1-1.7
				C77.9,62.5,76.5,61.7,74.7,61.7z"/>
			<path class="st9" d="M90.7,61.7c-1.4,0-2.5,0.6-2.5,1.4c0,0.8,1.1,1.4,2.5,1.4c1.4,0,2.5-0.6,2.5-1.4
				C93.2,62.3,92.1,61.7,90.7,61.7z"/>
			<path class="st9" d="M95.5,61c-0.7,0-1.2,0.3-1.2,0.7c0,0.4,0.6,0.7,1.2,0.7s1.2-0.3,1.2-0.7C96.7,61.3,96.2,61,95.5,61z"/>
		</g>
	</g>
	
		<radialGradient id="SVGID_00000117640073535393187230000003766597391717793470_" cx="145.6408" cy="23.5702" r="28.6925" gradientUnits="userSpaceOnUse">
		<stop  offset="0" style="stop-color:#FFB3B9"/>
		<stop  offset="0.7404" style="stop-color:#FFC2B3"/>
		<stop  offset="1" style="stop-color:#FFC8B1"/>
	</radialGradient>
	
		<ellipse style="clip-path:url(#SVGID_00000111176017760936876070000018426323203385492886_);fill:url(#SVGID_00000117640073535393187230000003766597391717793470_);" cx="145.6" cy="23.6" rx="28.6" ry="28.8"/>
	
		<radialGradient id="SVGID_00000126300290217110437950000004236031405116964768_" cx="22.2377" cy="23.5702" r="28.6925" gradientUnits="userSpaceOnUse">
		<stop  offset="0" style="stop-color:#FFB3B9"/>
		<stop  offset="0.7404" style="stop-color:#FFC2B3"/>
		<stop  offset="1" style="stop-color:#FFC8B1"/>
	</radialGradient>
	
		<ellipse style="clip-path:url(#SVGID_00000111176017760936876070000018426323203385492886_);fill:url(#SVGID_00000126300290217110437950000004236031405116964768_);" cx="22.2" cy="23.6" rx="28.6" ry="28.8"/>
</g>
<g>
	<g>
		<path class="st12" d="M83.4,130.3c0,0-44.3-10.4-74.8-61.2"/>
		<g>
			<polygon class="st5" points="13.9,69.6 13.6,70.6 8.8,69.4 8,74.2 7,74 8.1,68.1 			"/>
		</g>
	</g>
</g>
<g>
	<g>
		<path class="st12" d="M72.7,3.9c0,0,2.2,18.8-2.6,32.2"/>
		<g>
			<polygon class="st5" points="67.2,31.7 68.1,31.3 70.2,35.8 74.5,33.4 75,34.3 69.7,37.2 			"/>
		</g>
	</g>
</g>
<g>
	<g>
		<path class="st12" d="M73.2,3.9c0,0-5,18.2-14.4,28.9"/>
		<g>
			<polygon class="st5" points="57.8,27.7 58.8,27.6 59,32.5 63.9,31.9 64,32.9 58.1,33.7 			"/>
		</g>
	</g>
</g>
<g>
	<g>
		<path class="st12" d="M73.5,3.9c0,0-13.3,13.4-26.8,18.1"/>
		<g>
			<polygon class="st5" points="48.4,17 49.3,17.5 47.1,21.9 51.6,23.7 51.3,24.7 45.7,22.4 			"/>
		</g>
	</g>
</g>
<g>
	<g>
		<path class="st12" d="M94.7,3.9c0,0-2.2,18.8,2.6,32.2"/>
		<g>
			<polygon class="st5" points="92.4,34.3 92.9,33.4 97.2,35.8 99.3,31.3 100.2,31.7 97.7,37.2 			"/>
		</g>
	</g>
</g>
<g>
	<g>
		<path class="st12" d="M94.2,3.9c0,0,5,18.2,14.4,28.9"/>
		<g>
			<polygon class="st5" points="103.4,32.9 103.5,31.9 108.4,32.5 108.6,27.6 109.6,27.7 109.3,33.7 			"/>
		</g>
	</g>
</g>
<g>
	<g>
		<path class="st12" d="M93.9,3.9c0,0,13.3,13.4,26.8,18.1"/>
		<g>
			<polygon class="st5" points="116.1,24.7 115.7,23.7 120.3,21.9 118.1,17.5 119,17 121.7,22.4 			"/>
		</g>
	</g>
</g>
<g>
	<g>
		<path class="st12" d="M41.1,60.3c0,0-6.8-8.8-6.5-19.5"/>
		<g>
			<polygon class="st5" points="38.7,44.1 38,44.7 34.6,41.2 31.3,44.8 30.6,44.1 34.6,39.7 			"/>
		</g>
	</g>
</g>
<g>
	<g>
		<path class="st12" d="M40.4,59.8c0,0-12.7-8.3-17-22.2"/>
		<g>
			<polygon class="st5" points="28.4,39.4 27.9,40.3 23.5,37.9 21.5,42.4 20.6,42 23.1,36.5 			"/>
		</g>
	</g>
</g>
<g>
	<g>
		<path class="st12" d="M83.3,130.2c0,0,44.3-10.4,74.8-61.2"/>
		<g>
			<polygon class="st5" points="159.7,73.9 158.7,74.1 157.8,69.3 153.1,70.5 152.8,69.5 158.6,68 			"/>
		</g>
	</g>
</g>
<g>
	<g>
		<path class="st12" d="M125.6,60.2c0,0,6.8-8.8,6.5-19.5"/>
		<g>
			<polygon class="st5" points="136.1,44 135.4,44.7 132,41.1 128.7,44.6 127.9,43.9 132.1,39.6 			"/>
		</g>
	</g>
</g>
<g>
	<g>
		<path class="st12" d="M126.3,59.7c0,0,12.7-8.3,17-22.2"/>
		<g>
			<polygon class="st5" points="146.1,41.9 145.1,42.3 143.1,37.8 138.8,40.2 138.3,39.3 143.6,36.4 			"/>
		</g>
	</g>
</g>
</svg>
