<?xml version="1.0" encoding="utf-8"?>
<!-- Generator: Adobe Illustrator 25.4.8, SVG Export Plug-In . SVG Version: 6.00 Build 0)  -->
<svg version="1.1" id="Layer_1" xmlns="http://www.w3.org/2000/svg" xmlns:xlink="http://www.w3.org/1999/xlink" x="0px" y="0px"
	 viewBox="0 0 166.6 166.2" style="enable-background:new 0 0 166.6 166.2;" xml:space="preserve">
<style type="text/css">
	
		.st0{opacity:0.11;clip-path:url(#SVGID_00000098914021206290202800000003051277162461486472_);fill:url(#SVGID_00000070835099608969240190000010535890352839931814_);}
	.st1{clip-path:url(#SVGID_00000098914021206290202800000003051277162461486472_);}
	.st2{fill:#FBBD9D;}
	.st3{fill:#FF9C6A;}
	.st4{fill:#263238;}
	.st5{fill:#FF735D;}
	.st6{fill:#375A64;}
	.st7{fill:#7C4235;}
	.st8{fill:#C27460;}
	.st9{fill:#E1E1E1;}
	.st10{fill:#23286B;}
	.st11{fill:url(#SVGID_00000113328219091058048620000011266205066102406037_);}
	.st12{opacity:0.3;fill:#FFFFFF;}
	.st13{fill:#FFFFFF;}
	.st14{fill:url(#SVGID_00000153674067284411586360000016373742945987999907_);}
</style>
<g>
	<defs>
		<path id="SVGID_1_" d="M166.4,83.1c0,45.9-37.2,83.1-83.1,83.1c-45.9,0-83.1-37.2-83.1-83.1c0-8.5,1.3-16.6,3.6-24.3
			c0.9-3,2-5.9,3.2-8.7C19.8,20.6,49.1,0,83.3,0C129.2,0,166.4,37.2,166.4,83.1z"/>
	</defs>
	<clipPath id="SVGID_00000177453298343050052620000013212223014586445717_">
		<use xlink:href="#SVGID_1_"  style="overflow:visible;"/>
	</clipPath>
	
		<linearGradient id="SVGID_00000115516811016568392300000015920780963437679520_" gradientUnits="userSpaceOnUse" x1="-33.2292" y1="86.2032" x2="185.5102" y2="86.2032">
		<stop  offset="0" style="stop-color:#5F74B1"/>
		<stop  offset="0.2466" style="stop-color:#7A90D2"/>
		<stop  offset="0.4903" style="stop-color:#8FA6EB"/>
		<stop  offset="0.7125" style="stop-color:#9CB3FA"/>
		<stop  offset="0.8936" style="stop-color:#A0B7FF"/>
	</linearGradient>
	
		<rect x="-33.2" y="0.2" style="opacity:0.11;clip-path:url(#SVGID_00000177453298343050052620000013212223014586445717_);fill:url(#SVGID_00000115516811016568392300000015920780963437679520_);" width="218.7" height="172.1"/>
	<g style="clip-path:url(#SVGID_00000177453298343050052620000013212223014586445717_);">
		<g>
			<g>
				<path class="st2" d="M119.7,101.1C111,92.7,99.9,87.3,88,85.2c-11.8-2.1-26.3-6-28.3-12.5c-3-9.9-1.3-23.7-1.3-23.7l-46.7-6.3
					c0,0-3.8,28-10.9,33.9C-6.2,82.5-29,86.9-33.8,90.8c-4.8,3.9-27.8,34.5-27.8,34.5s16.9,50.8,17.7,57.5
					c0.8,6.8,13.4,70.2,13.4,79.5c0,9.3-7.8,24.4-7.8,24.4H98l-8.2-27.4c1-2.6,16.1-94,19.1-105.8c0.2,0.3,0.3,0.5,0.4,0.5
					l15.8-45.8C124.6,106.3,122.5,103.7,119.7,101.1z"/>
			</g>
			<g>
				<g>
					<g>
						<path class="st3" d="M31.6,262.9c-0.2,0-0.5-16.6-0.8-37c-0.3-20.5-0.3-37-0.2-37c0.2,0,0.5,16.6,0.8,37
							C31.7,246.3,31.8,262.9,31.6,262.9z"/>
					</g>
				</g>
			</g>
			<g>
				<g>
					<g>
						<path class="st3" d="M16.9,143.3c0,0,0,0.7-0.1,2c0,0.6-0.1,1.4-0.2,2.3c-0.1,0.9-0.2,1.9-0.5,3c-0.2,1.1-0.5,2.3-0.9,3.6
							c-0.3,1.3-0.8,2.6-1.3,4c-1.1,2.8-2.5,5.7-4.3,8.7c-1.8,2.9-3.9,5.5-5.9,7.7c-1,1.1-2,2.1-3,3c-1,0.9-1.9,1.7-2.8,2.4
							c-0.9,0.7-1.7,1.3-2.5,1.8c-0.7,0.5-1.4,0.9-1.9,1.2c-1.1,0.6-1.7,1-1.7,0.9c0,0,0.6-0.4,1.6-1.1c0.5-0.3,1.2-0.8,1.9-1.3
							c0.7-0.5,1.6-1.1,2.4-1.8c0.9-0.7,1.8-1.5,2.8-2.4c1-0.9,1.9-1.9,3-3c2-2.2,4-4.8,5.8-7.6c1.8-2.9,3.2-5.8,4.3-8.6
							c0.5-1.4,1-2.7,1.4-4c0.4-1.2,0.7-2.4,1-3.5c0.3-1.1,0.4-2.1,0.6-3c0.2-0.9,0.3-1.6,0.3-2.3C16.8,144,16.9,143.3,16.9,143.3z"
							/>
					</g>
				</g>
			</g>
			<g>
				<g>
					<path class="st2" d="M89.9,86.3c0,0,37.2,5.6,45.2,30.6c9.5,29.6,25.9,143,23.6,156.8c-0.4,2.1-2.1,13-2.1,13h-39.8l1.5-19.8
						c0,0-15.1-86.4-15.9-92c-0.8-5.6-5.8-5.5-5.8-5.5L89.9,86.3z"/>
				</g>
				<g>
					<g>
						<path class="st3" d="M109.6,137c0,0,0,0.2,0,0.6c0,0.5-0.1,1.1-0.1,1.9c-0.1,1.6-0.4,3.9-0.7,6.8c-0.6,5.7-1.6,13.7-3,22.4
							c-1.4,8.7-2.9,16.5-4.1,22.2c-0.6,2.8-1.1,5.1-1.5,6.7c-0.2,0.8-0.3,1.4-0.4,1.8c-0.1,0.4-0.2,0.6-0.2,0.6c0,0,0-0.2,0.1-0.6
							c0.1-0.5,0.2-1.1,0.4-1.8c0.3-1.6,0.8-3.9,1.3-6.7c1.1-5.7,2.6-13.5,3.9-22.2c1.4-8.7,2.4-16.6,3.1-22.3
							c0.3-2.8,0.6-5.1,0.8-6.8c0.1-0.8,0.2-1.4,0.2-1.8C109.5,137.2,109.6,137,109.6,137z"/>
					</g>
				</g>
			</g>
			<g>
				<g>
					<path class="st2" d="M-21.6,85.8c0,0-41.7,7.4-55.2,32.1c-14.9,27.3-24.4,140.1-22,153.9c0.4,2.1,2.4,14.9,2.4,14.9h39.7
						l-1.6-21.7c0,0,15.1-86.4,15.9-92s5.8-5.5,5.8-5.5L-21.6,85.8z"/>
				</g>
				<g>
					<g>
						<path class="st3" d="M-51.3,137.3c0,0,0.1,0.2,0.1,0.7c0.1,0.5,0.1,1.1,0.2,1.9c0.2,1.7,0.5,4.1,0.9,7.1
							c0.8,6,2.1,14.3,3.7,23.4c1.6,9.1,3.1,17.4,4,23.4c0.5,3,0.9,5.4,1.1,7.1c0.1,0.8,0.2,1.5,0.3,1.9c0.1,0.4,0.1,0.7,0.1,0.7
							c0,0-0.1-0.2-0.1-0.7c-0.1-0.5-0.2-1.1-0.3-1.9c-0.3-1.7-0.7-4.1-1.2-7.1c-1.1-6-2.5-14.3-4.2-23.4
							c-1.6-9.1-2.9-17.4-3.6-23.5c-0.4-3-0.6-5.5-0.8-7.2c-0.1-0.8-0.1-1.5-0.2-2C-51.3,137.6-51.3,137.3-51.3,137.3z"/>
					</g>
				</g>
			</g>
		</g>
		<g>
			<g>
				<g>
					<path class="st2" d="M89.4,28.7c2.8-14.4,6.6-58.1,0.9-58.1L26,11.4c-7.2,17-17.4,53.9-17.4,53.9l56.7,16
						c-4.6-5.8-6.6-11.3-5.2-16.5c0,0,6.3-0.9,9.1-1.5c5.3-1,11.5-7.7,13.9-12.5C85.3,46.2,89.1,30.5,89.4,28.7z"/>
				</g>
			</g>
			<g>
				<g>
					<path class="st4" d="M73,8.5c2.2-0.9,4.7-1,6.9-0.2c1.3,0.5,2.2,1.2,2.8,2.8c1,2.7,1.2,5.6,0.8,8.4c-0.1,0.8-0.3,1.7,0.4,2.4
						c0.7,0.6,1.8,0.6,2.5,0c1.3-1,1.4-2.6,1.5-4.1c0.5-7.9,3-18.3,3.5-26.2l0,0c0.1-0.8,0.3-1.6,0.4-2.4
						c1.6-10.9,1.8-18.4-4.1-31.3c-5.9-12.9-23.8-19.1-33.6-21.4c-9.8-2.3-22.6-0.8-36.7,6.6C3.3-49.5-3.5-23-3.5-23
						s-1.9,4.4-1.7,16.5C-5.1,5.6-4.5,6.4,1.3,24.4c5.8,18,14.9,21.5,14.9,21.5l30.1-1.4c5.5-1.9,8.8-7.4,10.9-12.8
						c2-5.4,3.7-10.5,6.3-14.9C63.5,16.9,66.4,11.2,73,8.5z"/>
				</g>
			</g>
			<g>
				<g>
					<path class="st5" d="M3.5-49.4c6.9-3,13.6-2.2,18.2,4c3.9,5.3,5.8,11.1,4.3,17.5c-1.6,6.4-7.6,11.6-14.2,11.5
						c-4-0.1-7.9-2-10.8-4.7c-4.4-4.1-6.8-10.3-6-16.3C-4.1-43.2-2.2-47.7,3.5-49.4"/>
				</g>
			</g>
			<g>
				<g>
					<path class="st4" d="M23.4-31.8c-3.1-8-6.2-16.4-15.7-18.9C-8-56.2-13.4-53.5-21-49.9c-4.5,2.1-8.7,10-10,14.8
						c-1.5,5.5,0.1,11.6,3.6,16.2c3.5,4.5,8.7,7.5,14.3,8.9c1.4,0.4,2.9,0.6,4,1.5C-6.8-6.6-7-2.8-8.8-0.4s-4.6,3.7-7.3,5
						C-8.6,7.7,1,4.9,5.7-1.8C5.7,2.1,4.2,6,1.6,8.9C9.7,6,16.9,0.4,21.2-7C25.5-14.5,26.6-23.8,23.4-31.8z"/>
				</g>
			</g>
			<g>
				<g>
					<g>
						<path class="st6" d="M7.8-50.7c0,0,0.1,0,0.3,0.1c0.3,0.1,0.6,0.2,1,0.3c0.9,0.3,2.1,0.8,3.6,1.7c1.5,0.9,3.1,2.3,4.6,4.2
							c1.5,1.9,2.9,4.4,4.1,7.2c0.6,1.4,1.2,2.9,1.8,4.5c0.6,1.5,1.2,3.2,1.6,5c0.8,3.6,0.9,7.5,0.1,11.5c-0.8,4-2.4,8.1-4.9,11.7
							c-2.5,3.7-5.9,6.9-9.8,9.5C7.5,6.7,4.6,8.1,1.7,9.1L0.5,9.6l0.9-0.9C4,5.7,5.4,1.9,5.4-1.8l0.5,0.2C3.2,2.2-0.9,4.6-4.9,5.5
							c-4,1-8,0.6-11.3-0.8l-0.5-0.2l0.5-0.2c3.1-1.4,5.9-2.8,7.4-5.1C-7.3-3-7.3-5.6-8.2-7.2c-1-1.7-2.6-2.1-3.5-2.4
							c-0.5-0.1-0.8-0.2-1.1-0.3C-13-10-13.1-10-13.1-10c0,0,0.1,0,0.4,0.1c0.3,0.1,0.6,0.1,1.1,0.3c0.5,0.1,1.1,0.3,1.8,0.6
							C-9.2-8.8-8.5-8.2-8-7.3c1,1.7,1,4.4-0.5,6.8C-10,1.8-12.9,3.4-16,4.8l0-0.4C-12.9,5.6-9,6-5.1,5c3.9-1,7.9-3.3,10.5-7
							l0.5-0.7l0,0.9C6,2,4.6,6,1.8,9.1L1.5,8.6c2.9-1,5.7-2.4,8.4-4.2c3.9-2.5,7.2-5.7,9.7-9.3c2.5-3.6,4.1-7.6,4.9-11.5
							c0.8-3.9,0.7-7.8,0-11.3c-0.3-1.8-0.9-3.4-1.5-4.9c-0.6-1.6-1.2-3.1-1.8-4.4c-1.2-2.8-2.5-5.2-4-7.2c-1.5-1.9-3.1-3.3-4.5-4.2
							C9.7-50.3,7.7-50.6,7.8-50.7z"/>
					</g>
				</g>
			</g>
			<g>
				<g>
					<g>
						<path class="st6" d="M20.5-31.7c0,0,0,0.1-0.1,0.3c-0.1,0.2-0.2,0.5-0.3,0.8c-0.3,0.7-0.7,1.6-1.4,2.8c-1.3,2.4-3.5,5.8-7.2,9
							c-1.8,1.6-4.1,3.2-6.7,4.4c-2.6,1.2-5.7,2-8.9,2.1c-3.2,0.2-6.7-0.4-9.9-1.9c-3.2-1.5-6.1-4.1-7.9-7.3
							c-1.9-3.3-2.7-7-2.3-10.6c0.5-3.6,2.3-6.7,4.5-9c2.2-2.4,4.9-4.1,7.5-5.3c2.6-1.2,5.2-2,7.6-2.4c4.8-0.8,8.8-0.3,11.5,0.3
							c0.7,0.1,1.2,0.3,1.7,0.5c0.5,0.1,0.9,0.3,1.3,0.4c0.3,0.1,0.6,0.2,0.8,0.3c0.2,0.1,0.3,0.1,0.3,0.1c0,0-0.1,0-0.3-0.1
							c-0.2-0.1-0.5-0.1-0.8-0.2c-0.3-0.1-0.8-0.2-1.3-0.4c-0.5-0.1-1.1-0.3-1.7-0.4c-2.6-0.6-6.6-1-11.4-0.1
							c-2.4,0.4-4.9,1.2-7.5,2.4c-2.5,1.2-5.1,2.9-7.3,5.2c-2.2,2.3-3.9,5.3-4.3,8.7c-0.5,3.4,0.4,7,2.2,10.2
							c1.8,3.2,4.6,5.7,7.7,7.1c3.1,1.5,6.5,2,9.7,1.9c3.2-0.1,6.1-0.9,8.7-2c2.6-1.2,4.8-2.7,6.6-4.2c3.7-3.2,5.9-6.5,7.2-8.8
							c0.7-1.2,1.2-2.1,1.5-2.7c0.1-0.3,0.3-0.5,0.4-0.7C20.4-31.6,20.5-31.7,20.5-31.7z"/>
					</g>
				</g>
			</g>
			<g>
				<g>
					<g>
						<path class="st6" d="M23.9-33.9c0,0,0.3-0.1,0.8-0.2c0.5-0.1,1.2-0.2,2.2-0.3c1.9-0.2,4.7-0.3,8.1-0.1
							c6.8,0.4,16.2,2.9,25.4,7.9c9.2,5,16.6,10.9,21.9,15.2c2.6,2.2,4.7,4,6.1,5.2c0.7,0.6,1.2,1.1,1.6,1.5
							c0.4,0.3,0.6,0.5,0.5,0.5c0,0-0.2-0.1-0.6-0.4c-0.4-0.4-1-0.8-1.7-1.4c-1.5-1.2-3.7-3-6.3-5.1C76.5-15.3,69.1-21.1,60-26
							c-9.1-4.9-18.4-7.4-25.1-8c-3.4-0.3-6.1-0.3-8-0.1c-1,0-1.7,0.1-2.2,0.2C24.1-33.9,23.9-33.9,23.9-33.9z"/>
					</g>
				</g>
			</g>
			<g>
				<g>
					<g>
						<path class="st6" d="M90.3-35.2c0,0-0.2,0-0.7-0.2c-0.5-0.2-1.1-0.4-1.8-0.6c-0.8-0.3-1.8-0.6-2.9-1c-1.1-0.3-2.4-0.8-3.9-1.2
							c-1.4-0.4-3-0.8-4.7-1.2c-1.7-0.4-3.6-0.8-5.5-1.1c-3.9-0.7-8.2-1.2-12.8-1.5c-4.6-0.2-8.9-0.2-12.9,0.1
							c-2,0.2-3.9,0.3-5.6,0.5c-1.8,0.2-3.4,0.4-4.9,0.7c-1.5,0.2-2.8,0.5-4,0.7c-1.2,0.2-2.2,0.4-3,0.6c-0.8,0.2-1.4,0.3-1.9,0.4
							c-0.4,0.1-0.7,0.1-0.7,0.1c0,0,0.2-0.1,0.6-0.2c0.5-0.1,1.1-0.3,1.9-0.5c0.8-0.2,1.8-0.5,3-0.7c1.2-0.2,2.5-0.6,4-0.8
							c1.5-0.3,3.1-0.5,4.9-0.7c1.8-0.3,3.6-0.4,5.6-0.6c4-0.3,8.4-0.3,12.9-0.1c4.6,0.3,8.9,0.8,12.8,1.5c2,0.4,3.8,0.7,5.5,1.2
							c1.7,0.4,3.3,0.9,4.7,1.3c1.5,0.4,2.7,0.9,3.9,1.2c1.1,0.4,2.1,0.7,2.9,1.1c0.7,0.3,1.3,0.5,1.8,0.7
							C90.1-35.3,90.3-35.2,90.3-35.2z"/>
					</g>
				</g>
			</g>
			<g>
				<g>
					<g>
						<path class="st3" d="M61,44.7c0.1,0-0.1,1.6-0.5,4.1c-0.3,2.5-0.7,6-0.8,9.8c-0.1,3.8,0,7.3,0.3,9.8c0.2,2.5,0.5,4.1,0.4,4.1
							c0,0-0.1-0.4-0.3-1.1c-0.2-0.7-0.3-1.7-0.5-3c-0.3-2.5-0.6-6-0.5-9.9c0.1-3.9,0.6-7.3,1-9.8c0.2-1.2,0.4-2.2,0.6-2.9
							C60.8,45.1,60.9,44.7,61,44.7z"/>
					</g>
				</g>
			</g>
			<g>
				<g>
					<g>
						<path class="st3" d="M70.4,36.6c0,0-0.4,0-0.9-0.4c-0.5-0.4-1.2-1.1-1.6-2.2c-0.4-1.1-0.5-2.5-0.6-3.9c-0.1-1.5-0.1-3.1,0-4.8
							c0.1-3.4,0.2-6.5,1-8.7c0.4-1.1,1-1.9,1.4-2.3c0.5-0.4,0.8-0.6,0.8-0.6c0.1,0.1-1.2,0.9-1.8,3c-0.7,2.1-0.7,5.2-0.8,8.6
							c0,1.7,0,3.3,0,4.8c0,1.5,0.1,2.8,0.4,3.8c0.3,1,0.9,1.7,1.4,2.1C70.1,36.4,70.4,36.5,70.4,36.6z"/>
					</g>
				</g>
			</g>
			<g>
				<g>
					<g>
						<path class="st3" d="M74.1,22.5c0,0-0.1-0.3-0.1-0.9c0-0.6,0.1-1.4,0.3-2.4c0.1-0.5,0.3-1,0.5-1.6c0.2-0.5,0.5-1.2,1.1-1.7
							c0.3-0.2,0.7-0.4,1.1-0.4c0.4,0,0.8,0.2,1.1,0.5c0.6,0.6,0.9,1.4,1.1,2.1c0.2,0.8,0.3,1.6,0.1,2.3c-0.1,0.8-0.7,1.5-1.3,1.8
							c-0.6,0.3-1.2,0.5-1.5,0.9c-0.3,0.4-0.5,0.9-0.4,1.3c0,0.9,0.6,1.6,1,1.9c0.4,0.4,0.7,0.5,0.6,0.6c0,0-0.3-0.1-0.8-0.4
							c-0.4-0.3-1.1-1-1.3-2.1c-0.1-0.5,0-1.2,0.5-1.7c0.4-0.5,1.1-0.8,1.6-1.1c1.1-0.6,1.2-2.1,0.9-3.5c-0.2-0.7-0.4-1.4-0.9-1.8
							c-0.5-0.4-1.1-0.5-1.5-0.1c-0.4,0.4-0.7,0.9-1,1.4c-0.2,0.5-0.4,1-0.6,1.5C74.1,21.2,74.2,22.5,74.1,22.5z"/>
					</g>
				</g>
			</g>
		</g>
		<g>
			<path class="st7" d="M87.4,107.4c-0.8-0.7-1.9-1.2-3-1.5c-3.4-1-7.1,0.5-8.7,3.7c-0.5,1-0.8,2.2-0.8,3.3c0.1,2.9,2.8,5.7,5.7,5.3
				c1-0.1,1.9-0.5,2.9-0.4c0.6,0.1,1.2,0.3,1.8,0.4c2.2,0.3,4.1-1.7,4.5-3.9C90.3,111.8,89.4,109,87.4,107.4z"/>
		</g>
		<g>
			<path class="st7" d="M19.2,67.4c-0.4-0.3-0.8-0.5-1.4-0.7c-1.5-0.5-3.2,0.2-4,1.7c-0.2,0.5-0.4,1-0.3,1.5
				c0.1,1.3,1.3,2.6,2.6,2.4c0.4,0,0.4,0.1,0.8,0.1c0.3,0,1-0.2,1.3-0.1c1,0.2,1.9-0.8,2.1-1.8C20.5,69.4,20.1,68.1,19.2,67.4z"/>
		</g>
		<g>
			<path class="st8" d="M68.5,100.8c-0.5,0-1,0.1-1.6,0.3c-1.5,0.6-2.5,2.2-2.1,3.8c0.1,0.5,0.3,1,0.7,1.4c0.9,1,2.6,1.3,3.6,0.3
				c0.3-0.3,0.6-0.8,0.9-1c0.2-0.2,0.5-0.2,0.8-0.4c0.9-0.5,1-1.8,0.5-2.7C70.8,101.6,69.7,100.8,68.5,100.8z"/>
		</g>
		<g>
			<path class="st8" d="M76.6,100.9l-0.9,0.3c-0.5,0.4-0.7,1.2-0.4,1.8c0.3,0.6,1.1,0.9,1.7,0.7c0.6-0.2,1.1-0.9,1-1.6
				C77.9,101.4,77.3,100.9,76.6,100.9z"/>
		</g>
	</g>
	<g style="clip-path:url(#SVGID_00000177453298343050052620000013212223014586445717_);">
		<g>
			<g>
				<g>
					<path class="st4" d="M234.6-52.9c-1.6-0.7-3.4-1.1-4.7-2.3c-1.5-1.4-1.9-3.5-2.6-5.3c-1.7-4.9-5.6-9.2-10.7-10.4
						c-5-1.2-11,1.4-12.7,6.3l-18.6,30.7c-1.7,7.9-0.1,16.4,4.5,23.1c1.9,2.7,4.4,5.2,7.6,6.1c3.2,0.8,7.1-0.5,8.3-3.6
						c2.9,4.2,8.4,6.5,13.4,5.5c5-1,9.3-5.2,10.3-10.2c3.6,1.7,8.2,0.9,11.1-1.8c2.9-2.7,4-7.3,2.6-11c-0.8-2.2-2.4-4.1-2.8-6.5
						c-0.4-2.7,0.9-5.4,1.3-8.1C242.3-45.4,239.3-50.8,234.6-52.9z"/>
				</g>
			</g>
			<g>
				<g>
					<g>
						<path class="st4" d="M210.5-56.3c1.2-4.6-1.6-9.7-6-11.3c0.8-2.8-1.3-5.8-3.9-7.1c-2.6-1.3-5.7-1.3-8.7-1.3
							c-4.1-5.5-13-6.7-18.6-2.4c-5.3-3.2-12.5-0.8-17.4,3.2c-1.2,1-2.3,2.1-3.7,2.7c-1,0.5-2.2,0.6-3.3,1c-6,1.8-9.8,8.1-9.7,14.2
							c0,1,0.1,2-0.1,2.9c-0.3,1.2-1.2,2.3-1.8,3.4c-1.4,2.4-1.6,5.5-0.6,8c0.9,2.2,2.6,4.1,2.5,6.5c0,1.2-0.5,2.3-0.4,3.5
							c0.3,3.4,4.9,4.9,5.7,8.2c0.2,0.7,0.1,1.4,0.2,2.1c0.2,1.4,0.9,2.7,2,3.6c0.8,0.7,1.9,1.2,2.4,2.2c0.4,0.7,0.4,1.6,0.5,2.4
							c0.4,2,7.6,7.2,9.6,7.5L207.4-28c3.3-2.4,4.8-6.9,3.6-10.7c-0.2-0.6-0.5-1.3-0.3-1.9c0.1-0.5,0.6-1,0.9-1.4
							c2.4-3,0.9-7.3-0.9-10.6c-0.3-0.5-0.5-0.9-0.6-1.4C210-54.8,210.3-55.6,210.5-56.3z"/>
					</g>
				</g>
				<g>
					<g>
						<path class="st2" d="M219.2,1.8l-0.2,0C219.1,1.7,219.2,1.7,219.2,1.8z"/>
					</g>
				</g>
				<g>
					<g>
						<path class="st8" d="M144.9-31.5c-3.7-9.6,2.2-22.7,4.5-24.5c0,0,3.7-5.3,10.3-7.4c2.9-0.9,7.1-2.8,13.6-2.6
							c10.3,0.3,19.8,7.5,23.4,15.8l22.4,51.9c-2.5,8.8-15.1,21.3-15.1,21.3s-8.5,6.9-13.2,4.4c0,0-7.3-18-7.3-18
							c0,0-14.6,4.3-24.3-10.2C154.4-7.8,149-20.8,144.9-31.5z"/>
					</g>
				</g>
				<g>
					<g>
						<path class="st4" d="M156.2-19.5c0.4,1.1,1.7,1.6,2.9,1.1c1.2-0.5,1.7-1.7,1.3-2.8c-0.4-1.1-1.7-1.6-2.9-1.1
							C156.3-21.8,155.7-20.6,156.2-19.5z"/>
					</g>
				</g>
				<g>
					<g>
						<path class="st4" d="M151.3-27.2c0.4,0.1,1.4-1.7,3.6-2.7c2.2-1,4.3-0.7,4.4-1c0.1-0.2-0.4-0.5-1.3-0.7
							c-0.9-0.2-2.3-0.1-3.7,0.5c-1.4,0.6-2.3,1.7-2.7,2.5C151.1-27.8,151.1-27.2,151.3-27.2z"/>
					</g>
				</g>
				<g>
					<g>
						<path class="st4" d="M172-16.1c0-0.1-1.5,0.3-3.9,1c-0.6,0.2-1.2,0.3-1.4,0c-0.3-0.3-0.4-1-0.4-1.8c-0.1-1.6-0.2-3.2-0.3-5
							c-0.4-7-1-12.7-1.3-12.7c-0.3,0-0.2,5.7,0.2,12.8c0.1,1.7,0.2,3.4,0.3,4.9c0.1,0.7,0,1.6,0.7,2.3c0.3,0.3,0.9,0.4,1.3,0.4
							c0.4-0.1,0.7-0.2,1-0.3C170.7-15.3,172.1-16,172-16.1z"/>
					</g>
				</g>
				<g>
					<g>
						<path class="st7" d="M183.4,9.5c0,0,11.1-4.3,18.9-15.5c0,0-0.5,13.8-17.2,19.7L183.4,9.5z"/>
					</g>
				</g>
				<g>
					<g>
						<path class="st4" d="M148.8-36.5c0.6,0.4,2.1-0.8,4.2-1.5c2-0.8,3.9-1,4.1-1.7c0.1-0.3-0.4-0.7-1.3-0.9
							c-0.9-0.2-2.3-0.2-3.7,0.4c-1.4,0.5-2.5,1.4-3,2.2C148.6-37.2,148.5-36.6,148.8-36.5z"/>
					</g>
				</g>
				<g>
					<g>
						<path class="st4" d="M179.8-30.4c0.5,1.1,0,2.4-1.2,2.9c-1.1,0.5-2.4,0.1-2.9-0.9c-0.5-1.1,0-2.4,1.2-2.9
							C178-31.9,179.3-31.5,179.8-30.4z"/>
					</g>
				</g>
				<g>
					<g>
						<path class="st4" d="M181.9-40.2c-0.1,0.4-2.2-0.1-4.4,0.8c-2.3,0.9-3.4,2.7-3.8,2.6c-0.2-0.1-0.1-0.7,0.4-1.5
							c0.5-0.8,1.5-1.8,2.9-2.4c1.4-0.6,2.8-0.6,3.7-0.3C181.6-40.8,182-40.4,181.9-40.2z"/>
					</g>
				</g>
				<g>
					<g>
						<path class="st4" d="M179.9-44.1c-0.2,0.7-2.2,0.9-4.3,1.7c-2.1,0.8-3.7,1.9-4.3,1.6c-0.3-0.2-0.2-0.8,0.4-1.6
							c0.6-0.8,1.7-1.7,3.1-2.3c1.4-0.6,2.9-0.6,3.8-0.4C179.6-44.8,180-44.4,179.9-44.1z"/>
					</g>
				</g>
				<g>
					<g>
						<path class="st8" d="M200.9-34.1c-0.5-1.2-0.4-4.5,0.7-5.3c2.9-1.9,8.7-4.3,12.3,3.5c5,10.6-7,13.5-7.1,13.2
							C206.6-22.9,202.7-30.1,200.9-34.1z"/>
					</g>
				</g>
				<g>
					<g>
						<path class="st7" d="M208-27.9c0-0.1,0.2,0,0.6,0c0.4,0,1-0.2,1.4-0.6c1-0.9,1.1-3.2,0.3-5.1c-0.4-1-1.1-1.8-1.8-2.4
							c-0.7-0.6-1.5-0.9-2.1-0.8c-0.6,0.1-0.9,0.7-0.9,1c0,0.4,0.2,0.5,0.1,0.6c0,0-0.3-0.1-0.4-0.5c-0.1-0.2,0-0.5,0.1-0.9
							c0.2-0.3,0.5-0.6,0.9-0.8c0.9-0.3,2,0.1,2.7,0.7c0.8,0.6,1.6,1.6,2,2.7c0.9,2.2,0.7,4.7-0.6,5.9c-0.7,0.6-1.4,0.6-1.9,0.5
							C208.1-27.7,207.9-27.9,208-27.9z"/>
					</g>
				</g>
				<g>
					<g>
						<path class="st4" d="M142.5-30.2c1.6-2.4,2.2-4.8,0.9-7.3c1.7-0.2,2.3-2.8,2.6-4.4c0.3-1.6,1-2.7,0.3-4.2
							c-0.1-0.3-0.3-0.6-0.3-0.9c0-0.5,0.5-0.9,0.9-1.2c2-1.8,3-4.6,2.5-7.2c2.8-0.1,5.6-0.8,8-2.2c1.9,1.1,4.3,1.1,6.3,0.1
							c1.9-1,3.3-3,3.5-5.2c1.3,1,3.1,1.2,4.7,0.9c1.6-0.3,3.1-1.1,4.6-1.8c0.7,3.2,4,5.5,7.3,5c0.4-0.1,0.9-0.2,1.3,0.1
							c0.4,0.3,0.3,0.8,0.4,1.3c0.2,2.9,3.2,5.2,6.1,4.6c-1.2,2.2,0.4,5.2,2.9,5.5c0.5,0.1,1.2,0.1,1.3,0.6c0.1,0.2,0,0.4,0,0.6
							c-0.3,1.4-0.6,2.9-0.1,4.3c0.5,1.4,2.1,2.4,3.5,1.9c-0.4,0.9-0.7,2-0.3,3c0.4,0.9,1.8,1.4,2.5,0.7c0.3-0.3,5.3-3.8,5.4-4.3
							c1.2-5.5-4.7-8.2-7.4-13.2s-6.7-9-11.3-12.2c-1.9-1.3-4-2.6-6.2-3.4c-2.5-0.9-5.3-1.2-8-1.6c-3.5-0.4-7.1-0.8-10.6-0.1
							c-6.5,1.3-11.7,6.2-16,11.2c-1.7,1.9-3.3,3.9-4.4,6.1c-1.3,2.7-1.8,5.7-2.1,8.7c-0.4,4.3-0.3,8.7,1,12.7"/>
					</g>
				</g>
				<g>
					<g>
						<path class="st6" d="M138.7-33c0,0-0.1-0.5,0.1-1.4c0.1-0.5,0.2-1,0.3-1.7c0.1-0.7,0-1.5-0.3-2.3c-0.3-0.8-0.7-1.7-1.2-2.6
							c-0.5-0.9-1.1-2-1.4-3.2c-0.3-1.2-0.4-2.6-0.1-4c0.1-0.7,0.3-1.4,0.7-2.1c0.3-0.7,0.7-1.4,1.2-2c0.4-0.7,0.8-1.4,1-2.2
							c0.2-0.8,0.1-1.6,0.1-2.5c-0.1-1.7,0.2-3.5,0.8-5.3c0.6-1.8,1.5-3.6,2.8-5.1c0.6-0.8,1.4-1.5,2.2-2.2c0.8-0.6,1.7-1.2,2.7-1.6
							c0.5-0.2,1-0.4,1.5-0.6c0.5-0.1,1-0.3,1.6-0.4c1-0.3,2-0.7,2.9-1.3c0.9-0.6,1.7-1.4,2.6-2.1c0.9-0.7,1.8-1.4,2.9-1.9
							c1-0.6,2.1-1.1,3.2-1.5c1.1-0.4,2.3-0.7,3.5-0.9c2.4-0.3,4.9-0.1,7.1,1c0.2,0.1,0.4,0.2,0.6,0.3l-0.2,0c3-2.3,6.8-3,10.2-2.4
							c3.5,0.5,6.6,2.3,8.6,4.9l-0.1-0.1c1.6,0,3.2,0,4.7,0.2c1.5,0.2,3,0.6,4.4,1.3c1.3,0.7,2.4,1.8,3.1,3c0.7,1.2,1,2.7,0.6,4.1
							l-0.1-0.2c2.3,0.8,4,2.5,5,4.3c1,1.9,1.5,3.9,1.3,5.8c0,0.5-0.2,0.9-0.2,1.4c-0.1,0.4-0.3,0.9-0.3,1.3c-0.1,0.4,0,0.8,0.1,1.2
							c0.1,0.4,0.3,0.7,0.5,1.1c0.8,1.4,1.4,2.8,1.7,4.1c0.3,1.3,0.5,2.5,0.3,3.6c-0.1,1-0.5,1.9-0.9,2.5c-0.4,0.6-0.8,1-1,1.3
							c-0.2,0.3-0.2,0.5-0.3,0.5c0,0,0-0.2,0.2-0.5c0.2-0.3,0.6-0.7,1-1.3c0.4-0.6,0.7-1.4,0.9-2.5c0.1-1,0-2.2-0.4-3.5
							c-0.4-1.3-1-2.6-1.7-4c-0.2-0.4-0.4-0.7-0.6-1.1c-0.2-0.4-0.2-0.9-0.1-1.3c0.1-0.4,0.2-0.9,0.3-1.3c0.1-0.4,0.2-0.9,0.2-1.4
							c0.2-1.8-0.2-3.9-1.3-5.7c-1-1.8-2.7-3.4-4.9-4.2l-0.1,0l0-0.1c0.3-1.3,0.1-2.7-0.6-3.9c-0.7-1.2-1.7-2.2-3-2.9
							c-1.3-0.7-2.7-1.1-4.3-1.3c-1.5-0.2-3.1-0.2-4.7-0.2l-0.1,0l-0.1-0.1c-1.9-2.6-5-4.3-8.4-4.7c-3.4-0.5-7.1,0.2-10,2.4
							l-0.1,0.1l-0.1-0.1c-0.2-0.1-0.4-0.2-0.6-0.3c-2.1-1.1-4.6-1.3-6.9-1c-1.2,0.2-2.3,0.5-3.4,0.9c-1.1,0.4-2.1,0.9-3.1,1.5
							c-1,0.6-1.9,1.2-2.8,1.9c-0.9,0.7-1.7,1.5-2.6,2.1c-0.5,0.3-0.9,0.6-1.5,0.9c-0.5,0.2-1.1,0.4-1.6,0.5
							c-0.5,0.1-1.1,0.3-1.6,0.4c-0.5,0.2-1,0.3-1.5,0.5c-1,0.4-1.8,1-2.7,1.6c-0.8,0.7-1.5,1.3-2.1,2.1c-1.3,1.5-2.2,3.3-2.7,5
							c-0.6,1.8-0.8,3.5-0.8,5.2c0,0.9,0.1,1.7-0.1,2.5c-0.2,0.8-0.6,1.6-1.1,2.2c-0.4,0.7-0.8,1.3-1.1,2c-0.3,0.7-0.5,1.4-0.7,2.1
							c-0.3,1.4-0.2,2.7,0.1,3.9c0.3,1.2,0.8,2.2,1.3,3.2c0.5,0.9,1,1.8,1.2,2.7c0.3,0.8,0.3,1.6,0.3,2.3c-0.1,0.7-0.2,1.2-0.3,1.7
							c-0.1,0.5-0.1,0.8-0.1,1C138.7-33.1,138.7-33,138.7-33z"/>
					</g>
				</g>
				<g>
					<g>
						<path class="st6" d="M167-78.4c0,0-0.4,0-1,0c-0.6,0-1.6,0-2.7,0.4c-1.1,0.4-2.3,1-3.4,2.1c-1,1.1-1.8,2.7-2,4.4
							c0,0.5-0.1,1,0,1.5c0.1,0.5,0.2,0.9,0.6,1.1l0.4,0.2l-0.5,0.1c-1.4,0.2-2.5,1-3.2,1.9c-0.7,0.9-0.9,2-1,2.8
							c0,0.9,0.2,1.5,0.4,2c0.2,0.4,0.3,0.7,0.3,0.7c0,0-0.1,0-0.1-0.1c-0.1-0.1-0.2-0.3-0.3-0.5c-0.2-0.4-0.5-1.1-0.5-2
							c0-0.9,0.2-2,0.9-3c0.7-1,1.9-1.9,3.4-2.1l-0.1,0.3c-0.5-0.3-0.7-0.8-0.8-1.3c-0.1-0.5-0.1-1,0-1.5c0.2-1.8,1-3.4,2.1-4.6
							c1.1-1.2,2.4-1.8,3.5-2.2c1.1-0.3,2.1-0.4,2.8-0.3c0.3,0,0.6,0.1,0.7,0.1C166.9-78.5,167-78.5,167-78.4z"/>
					</g>
				</g>
				<g>
					<g>
						<path class="st9" d="M200.6-67c0,0,0,0.1,0.1,0.2c0,0.1,0,0.4,0,0.6c-0.1,0.5-0.4,1.3-1.2,1.9c-0.8,0.6-2,1-3.3,1.1
							c-0.6,0.1-1.3,0.1-2,0.1c-0.7,0-1.5-0.1-2.1-0.7c0,0-0.1-0.1-0.1-0.1l0.3,0c-0.7,1.3-1.5,2.5-2.4,3.4c-0.9,0.9-2,1.5-2.9,1.7
							c-0.9,0.2-1.8,0.2-2.3,0c-0.3-0.1-0.5-0.1-0.6-0.2c-0.1-0.1-0.2-0.1-0.2-0.1c0,0,0.3,0.1,0.8,0.2c0.5,0.1,1.3,0.1,2.2-0.1
							c0.9-0.2,1.9-0.8,2.8-1.7c0.9-0.9,1.6-2,2.3-3.3l0.1-0.2l0.2,0.2c0,0,0.1,0.1,0.1,0.1c0.5,0.4,1.2,0.6,1.9,0.6
							c0.7,0,1.4-0.1,2-0.1c1.3-0.1,2.4-0.4,3.1-1c0.8-0.6,1.1-1.3,1.3-1.8C200.6-66.7,200.5-67,200.6-67z"/>
					</g>
				</g>
				<g>
					<g>
						<path class="st7" d="M177-12.1c0.2-1.3,1.2-2.5,2.5-3c0.9-0.4,2-0.4,2.9,0c0.9,0.4,1.5,1.4,1.4,2.3c-0.1,1-1.2,1.8-2.3,2
							c-1.1,0.2-2.3,0-3.4-0.2c-0.3-0.1-0.6-0.1-0.9-0.3c-0.3-0.2-0.5-0.5-0.4-0.8"/>
					</g>
				</g>
				<g>
					<g>
						<path class="st4" d="M180.2-18.2c-0.3,0.2,0.8,2.3-0.3,4.9c-1.1,2.5-3.5,3.5-3.4,3.8c0,0.2,0.7,0.2,1.7-0.3
							c1-0.5,2.2-1.5,2.9-3.1c0.6-1.5,0.5-3.1,0.1-4C180.9-17.9,180.4-18.3,180.2-18.2z"/>
					</g>
				</g>
			</g>
		</g>
		<g>
			<path class="st10" d="M107.6,97.3L107.6,97.3c0.8-0.7,2.1-0.6,2.8,0.2c4.7,5.6,20.9,25,26.1,31.2c0.9,1,0.7,2.6-0.4,3.4l0,0
				c-1,0.7-2.4,0.5-3.2-0.4l-25.4-31.7C106.8,99.1,106.9,98,107.6,97.3z"/>
			<g>
				<g>
					
						<linearGradient id="SVGID_00000083050149488918513610000000937517963993827753_" gradientUnits="userSpaceOnUse" x1="74.7468" y1="82.89" x2="108.0267" y2="82.89">
						<stop  offset="0" style="stop-color:#28306D"/>
						<stop  offset="0.51" style="stop-color:#1F275F"/>
						<stop  offset="1" style="stop-color:#171F51"/>
					</linearGradient>
					<path style="fill:url(#SVGID_00000083050149488918513610000000937517963993827753_);" d="M84.9,88.3c-7-8.1-9.6-17.7-6.8-23.4
						C78,65,78,65,77.9,65c-5.6,4.9-3.6,16.4,4.5,25.7c8.1,9.3,19.2,12.8,24.8,7.9c0.3-0.2,0.5-0.5,0.7-0.8
						C102,100.6,92.3,96.8,84.9,88.3z"/>
				</g>
				<path class="st12" d="M103.2,72.3c8.2,9.2,10.4,20.6,4.8,25.5c-5.5,5-16.7,1.5-24.9-7.6c-8.2-9.2-10.4-20.6-4.8-25.5
					C83.8,59.8,95,63.2,103.2,72.3z"/>
				<path class="st10" d="M80.1,62.3c-0.8,0.7-1.5,1.6-2,2.6c5.7-4.7,16.6-1.2,24.7,8c7.7,8.8,9.9,19.7,5.3,24.9
					c0.7-0.3,1.4-0.7,2-1.3c5.6-4.9,3.5-16.6-4.8-26C96.9,61.1,85.7,57.4,80.1,62.3z"/>
				<g>
					<path class="st9" d="M102.7,84.5c-0.1,0.2-3.6-0.8-7.9-1.9c-4.3-1.2-7.8-2.1-7.8-2.3c0-0.2,3.6,0.4,8,1.5
						C99.4,83,102.8,84.3,102.7,84.5z"/>
				</g>
				<g>
					<path class="st9" d="M92.9,77.8c-0.1,0.2-1.6-0.1-3.5-0.5c-1.9-0.4-3.4-0.9-3.3-1.1c0-0.2,1.6-0.2,3.5,0.3
						C91.5,77,92.9,77.6,92.9,77.8z"/>
				</g>
				<g>
					<path class="st9" d="M103.1,87.9c-0.1,0.2-1.6-0.1-3.5-0.5c-1.9-0.4-3.4-0.9-3.3-1.1c0-0.2,1.6-0.2,3.5,0.3
						C101.7,87,103.1,87.7,103.1,87.9z"/>
				</g>
			</g>
			<path class="st8" d="M160,101.6l-22.5,4.1l0,0c-3.4-3.5-10-9.5-13.9-8.7c-3.7,0.8-8.2,3.3-11.5,6.2l0,0c-5,4.4-5.2,6.1-4.7,8.2
				c0,0,0,0.2,0.2,0.4c0.2,0.4,0.4,0.7,0.6,1.1c0.7,0.9,2,1.9,4,1.5c-0.3,0.9-0.2,2,0.3,2.8c0.3,0.6,0.8,1.1,1.7,1.3
				c0.6,0.2,1.4,0.3,2,0c-0.5,1.1,0.2,2.4,1.2,3c1,0.6,2.3,0.6,3.4,0.6c-0.1,0.8,0.3,1.6,1,2.1c0.6,0.7,1.5,1.3,3,1.1
				c3.4-0.5,4.2-3,4.2-3s2.3,1.1,4,1.9c1.1,0.5,2.3,0.9,3.5,1l26.4,2L160,101.6z"/>
		</g>
		<g>
			<g>
				<g>
					<g>
						<g>
							<g>
								<g>
									<g>
										<g>
											<g>
												<g>
													<g>
														<g>
															<g>
																<g>
																	<g>
																		<g>
																			<path class="st6" d="M279.4,381.5l-0.9,42.7l-56.2-0.8c0.4-5.1,29.7-14.8,29.7-14.8l-0.6-27.4L279.4,381.5z"/>
																		</g>
																	</g>
																</g>
															</g>
														</g>
													</g>
												</g>
											</g>
										</g>
									</g>
								</g>
							</g>
						</g>
					</g>
					<g>
						<g>
							<g>
								<g>
									<g>
										<g>
											<g>
												<g>
													<g>
														<g>
															<g>
																<g>
																	<g>
																		<g>
																			<g>
																				<path class="st13" d="M269.3,406.5c1.1,0.3,1.8,1.5,1.5,2.5c-0.3,1-1.5,1.7-2.6,1.5c-1.1-0.3-2-1.7-1.6-2.7
																					c0.4-1,1.9-1.8,2.9-1.2"/>
																			</g>
																		</g>
																	</g>
																</g>
															</g>
														</g>
													</g>
												</g>
											</g>
										</g>
									</g>
								</g>
							</g>
						</g>
					</g>
					<g>
						<g>
							<g>
								<g>
									<g>
										<g>
											<g>
												<g>
													<g>
														<g>
															<g>
																<g>
																	<g>
																		<g>
																			<path class="st4" d="M278.4,424.3l0.1-4.6l-54.1,1.2c0,0-2.5,1-2.2,2.7L278.4,424.3z"/>
																		</g>
																	</g>
																</g>
															</g>
														</g>
													</g>
												</g>
											</g>
										</g>
									</g>
								</g>
							</g>
						</g>
					</g>
					<g>
						<g>
							<g>
								<g>
									<g>
										<g>
											<g>
												<g>
													<g>
														<g>
															<g>
																<g>
																	<g>
																		<g>
																			<g>
																				<path class="st4" d="M251,408.2c0,0.3,1.4,0.4,2.7,1.3c1.4,0.8,2,2,2.3,1.9c0.3,0-0.1-1.6-1.8-2.6
																					C252.6,407.7,250.9,408,251,408.2z"/>
																			</g>
																		</g>
																	</g>
																</g>
															</g>
														</g>
													</g>
												</g>
											</g>
										</g>
									</g>
								</g>
							</g>
						</g>
					</g>
					<g>
						<g>
							<g>
								<g>
									<g>
										<g>
											<g>
												<g>
													<g>
														<g>
															<g>
																<g>
																	<g>
																		<g>
																			<g>
																				<path class="st4" d="M245,410.4c-0.1,0.3,1.1,0.7,2,1.8c0.9,1.1,1.2,2.3,1.4,2.3c0.3,0,0.5-1.5-0.7-2.8
																					C246.7,410.3,245,410.2,245,410.4z"/>
																			</g>
																		</g>
																	</g>
																</g>
															</g>
														</g>
													</g>
												</g>
											</g>
										</g>
									</g>
								</g>
							</g>
						</g>
					</g>
					<g>
						<g>
							<g>
								<g>
									<g>
										<g>
											<g>
												<g>
													<g>
														<g>
															<g>
																<g>
																	<g>
																		<g>
																			<g>
																				<path class="st4" d="M241.6,417.1c0.2,0.1,0.7-1.2,0-2.7c-0.7-1.4-2-2-2.1-1.8c-0.2,0.2,0.7,1,1.2,2.2
																					C241.2,415.9,241.3,417,241.6,417.1z"/>
																			</g>
																		</g>
																	</g>
																</g>
															</g>
														</g>
													</g>
												</g>
											</g>
										</g>
									</g>
								</g>
							</g>
						</g>
					</g>
					<g>
						<g>
							<g>
								<g>
									<g>
										<g>
											<g>
												<g>
													<g>
														<g>
															<g>
																<g>
																	<g>
																		<g>
																			<g>
																				<path class="st4" d="M251.6,402c0.1,0.2,1.4-0.1,2.9,0c1.6,0.1,2.8,0.6,2.9,0.4c0.2-0.2-1-1.2-2.8-1.3
																					C252.7,401,251.4,401.8,251.6,402z"/>
																			</g>
																		</g>
																	</g>
																</g>
															</g>
														</g>
													</g>
												</g>
											</g>
										</g>
									</g>
								</g>
							</g>
						</g>
					</g>
				</g>
			</g>
			<g>
				<g>
					<g>
						<g>
							<g>
								<g>
									<g>
										<g>
											<g>
												<g>
													<g>
														<g>
															<g>
																<g>
																	<g>
																		<g>
																			<path class="st6" d="M307.8,349.9l25.7,35.1l-46.1,30.4c-2.8-4.3,14.8-28.4,14.8-28.4l-17.5-21.9L307.8,349.9z"
																				/>
																		</g>
																	</g>
																</g>
															</g>
														</g>
													</g>
												</g>
											</g>
										</g>
									</g>
								</g>
							</g>
						</g>
					</g>
					<g>
						<g>
							<g>
								<g>
									<g>
										<g>
											<g>
												<g>
													<g>
														<g>
															<g>
																<g>
																	<g>
																		<g>
																			<g>
																				<path class="st13" d="M315.2,375.7c1.1-0.4,2.4,0.2,2.8,1.2c0.4,1-0.1,2.3-1.2,2.6c-1.1,0.4-2.7-0.2-3-1.3
																					c-0.3-1,0.5-2.5,1.6-2.6"/>
																			</g>
																		</g>
																	</g>
																</g>
															</g>
														</g>
													</g>
												</g>
											</g>
										</g>
									</g>
								</g>
							</g>
						</g>
					</g>
					<g>
						<g>
							<g>
								<g>
									<g>
										<g>
											<g>
												<g>
													<g>
														<g>
															<g>
																<g>
																	<g>
																		<g>
																			<path class="st4" d="M333.6,385.1l-2.7-3.8l-43.1,30.9c0,0-1.4,2.2-0.2,3.4L333.6,385.1z"/>
																		</g>
																	</g>
																</g>
															</g>
														</g>
													</g>
												</g>
											</g>
										</g>
									</g>
								</g>
							</g>
						</g>
					</g>
					<g>
						<g>
							<g>
								<g>
									<g>
										<g>
											<g>
												<g>
													<g>
														<g>
															<g>
																<g>
																	<g>
																		<g>
																			<g>
																				<path class="st4" d="M301.4,387.3c0.2,0.2,1.4-0.4,3-0.5c1.6-0.1,2.9,0.5,3,0.2c0.2-0.2-1.1-1.2-3.1-1.1
																					C302.4,386,301.2,387.1,301.4,387.3z"/>
																			</g>
																		</g>
																	</g>
																</g>
															</g>
														</g>
													</g>
												</g>
											</g>
										</g>
									</g>
								</g>
							</g>
						</g>
					</g>
					<g>
						<g>
							<g>
								<g>
									<g>
										<g>
											<g>
												<g>
													<g>
														<g>
															<g>
																<g>
																	<g>
																		<g>
																			<g>
																				<path class="st4" d="M298,392.3c0.1,0.2,1.3,0,2.8,0.4c1.4,0.4,2.4,1.2,2.6,1c0.2-0.1-0.5-1.5-2.3-1.9
																					C299.2,391.4,297.8,392.1,298,392.3z"/>
																			</g>
																		</g>
																	</g>
																</g>
															</g>
														</g>
													</g>
												</g>
											</g>
										</g>
									</g>
								</g>
							</g>
						</g>
					</g>
					<g>
						<g>
							<g>
								<g>
									<g>
										<g>
											<g>
												<g>
													<g>
														<g>
															<g>
																<g>
																	<g>
																		<g>
																			<g>
																				<path class="st4" d="M299.3,399.6c0.2-0.1-0.2-1.4-1.7-2.1c-1.4-0.8-2.8-0.5-2.8-0.3c0,0.3,1.1,0.4,2.3,1.1
																					C298.3,398.9,299.1,399.8,299.3,399.6z"/>
																			</g>
																		</g>
																	</g>
																</g>
															</g>
														</g>
													</g>
												</g>
											</g>
										</g>
									</g>
								</g>
							</g>
						</g>
					</g>
					<g>
						<g>
							<g>
								<g>
									<g>
										<g>
											<g>
												<g>
													<g>
														<g>
															<g>
																<g>
																	<g>
																		<g>
																			<g>
																				<path class="st4" d="M298,381.9c0.2,0.1,1.1-0.8,2.4-1.6c1.3-0.8,2.6-1,2.6-1.3c0-0.2-1.5-0.4-3.1,0.5
																					C298.4,380.4,297.8,381.8,298,381.9z"/>
																			</g>
																		</g>
																	</g>
																</g>
															</g>
														</g>
													</g>
												</g>
											</g>
										</g>
									</g>
								</g>
							</g>
						</g>
					</g>
				</g>
			</g>
			<g>
				<g>
					<path class="st4" d="M202.8,203.7c-1,4.3-3.4,41.2-4.8,60.7c-1.4,19.4,0.3,29.1,2.6,33.5c2.2,4.4,89.2,68.8,95.6,83.8l23-16.5
						c0,0-31.2-56.9-45.1-67.5c-13.8-10.6-40.6-20.7-40.6-20.7l11-106.4l-36.9-2.9L202.8,203.7z"/>
				</g>
			</g>
			<g>
				<g>
					<g>
						<path class="st4" d="M200.5,162.7c-0.1,2.5-6.3,65.4,14.1,111.6c0,0,7.1,14.5,8.2,20.8c1.1,6.3,26.2,110.5,26.2,110.5
							l32.7-0.2c0,0,6.8-51.7,2.5-81.8c-4.4-30.1-14.1-26.9-13.5-46.3c0.6-19.4,6.7-59.4,6.7-59.4s7.5-10.8,10.6-32
							c2.5-17.2-5.5-36-5.5-36l-8.1-14.5l-71.9-5.6L200.5,162.7z"/>
					</g>
				</g>
				<g>
					<g>
						<g>
							<path class="st6" d="M200.5,162.7c0,0,0-0.7,0.1-2.1c0.1-1.4,0.2-3.5,0.3-6.3c0.3-5.6,0.8-13.7,1.4-24.3l0-0.2l0.2,0
								c17.7,1.3,42.2,3.2,71.9,5.4l0.2,0l0.1,0.1c2.5,4.5,5.3,9.4,8.1,14.5l0,0l0,0c2,5,3.6,10.2,4.6,15.7
								c1.1,5.5,1.6,11.3,1.3,17.2c-0.6,5.9-1.8,11.8-3.5,17.8c-1.8,5.9-4,11.9-7.4,17.5l0.1-0.1c-1.6,10.5-3,21.3-4.4,32.5
								c-0.7,5.6-1.3,11.3-1.7,17c-0.2,2.9-0.4,5.8-0.6,8.7c-0.1,1.5,0,2.9,0,4.4c0.1,1.4,0.1,2.9,0.4,4.4c0.4,2.9,1.5,5.7,2.8,8.4
								c1.4,2.7,2.9,5.3,4.2,8.1c2.6,5.6,4.2,11.5,5.3,17.6c2.2,12.2,2.4,24.8,2.1,37.5c-0.5,16.7-1.9,33.2-3.8,49l0,0.3l-0.3,0
								c-11.1,0.1-22,0.1-32.7,0.2l-0.3,0l-0.1-0.3c-8.4-34.9-16.2-67.5-23.1-96.8c-0.8-3.7-1.7-7.3-2.5-10.9
								c-0.4-1.8-0.7-3.6-1.2-5.3c-0.5-1.7-1.1-3.4-1.8-5c-1.3-3.3-2.7-6.5-4.2-9.6c-0.4-0.8-0.7-1.6-1.1-2.3
								c-0.4-0.8-0.7-1.5-1-2.3c-0.6-1.6-1.2-3.1-1.9-4.7c-4.8-12.4-7.4-24.4-9.2-35.4c-3.5-21.9-3.5-39.7-3.3-51.8
								C199.7,169.3,200.5,162.7,200.5,162.7s0,0.4,0,1.2c0,0.8-0.1,2-0.2,3.6c-0.2,3.2-0.4,7.8-0.5,13.9c-0.1,12.1,0,29.9,3.5,51.8
								c1.8,10.9,4.5,22.9,9.3,35.3c0.6,1.5,1.2,3.1,1.9,4.7c0.3,0.8,0.6,1.6,1,2.3c0.4,0.8,0.7,1.6,1.1,2.3
								c1.5,3.1,2.9,6.3,4.2,9.7c0.6,1.7,1.3,3.4,1.8,5.1c0.5,1.7,0.8,3.6,1.2,5.3c0.8,3.6,1.7,7.2,2.5,10.8
								c7,29.3,14.8,61.9,23.2,96.8l-0.4-0.3c10.6-0.1,21.5-0.2,32.7-0.2l-0.4,0.3c1.9-15.8,3.3-32.2,3.8-48.9
								c0.2-12.6,0.1-25.2-2.1-37.3c-1.1-6-2.7-12-5.3-17.4c-1.3-2.8-2.8-5.4-4.2-8.1c-1.4-2.7-2.4-5.6-2.9-8.6
								c-0.3-1.5-0.3-3-0.4-4.4c0-1.5-0.1-3,0-4.4c0.1-2.9,0.3-5.8,0.6-8.7c0.5-5.8,1.1-11.4,1.7-17c1.3-11.2,2.8-22,4.4-32.5l0-0.1
								l0-0.1c3.4-5.4,5.6-11.4,7.4-17.3c1.7-5.9,2.9-11.8,3.5-17.7c0.4-5.8-0.1-11.6-1.2-17c-1.1-5.5-2.6-10.7-4.6-15.6l0,0
								c-2.8-5.1-5.6-10-8.1-14.5l0.2,0.1c-29.7-2.3-54.2-4.3-71.9-5.7l0.2-0.2c-0.7,10.6-1.2,18.7-1.6,24.3
								c-0.2,2.8-0.3,4.9-0.4,6.3C200.5,162,200.5,162.7,200.5,162.7z"/>
						</g>
					</g>
				</g>
			</g>
		</g>
		<g>
			<g>
				<path class="st5" d="M265,96.7c0,0-4.4-23.9-6.3-33c-4.7-23.6-5.8-29.5-11.2-41.4C242,10.5,212.2-1.8,212.2-1.8
					c-7,10.6-14.9,21.9-24.6,21.5c0,0-13.2,48-8.9,65.7c4.1,16.7,16.6,32.6,23.3,47.6l-4.6,63c0,0,63.5-0.9,76.6-5.2l9.9-10.3
					L265,96.7z"/>
			</g>
		</g>
		<g>
			<g>
				<g>
					<path class="st9" d="M289.3,150.4c-3.5-14.1-21.5-70.8-21.5-70.8s-14.5-47.1-16-51.7c-5.3-17-32.7-31.4-32.7-31.4l-4.3-6.9
						l-9.1,18.6c0,0-9.7,25.3-12.8,49.8c-1.2,9.4-0.2,29.6,2.3,35.6c10.3,24.3,11.7,46.6,11.7,46.6l7.1,155.7l46.3-3.5l0.5-20.7
						l3.8,21.2l47.8-7.2C311.3,284.1,295.7,176.3,289.3,150.4z"/>
				</g>
			</g>
			<g>
				<g>
					<path class="st4" d="M271.1,152.7l-0.3,0.5c-0.9-2.2-1.9-4.5-2.9-6.8c-0.1-0.3-0.3-0.6-0.4-0.9l0.4,0.2
						c-13.8,1.8-25.9,3.4-33.4,4.3l0.2-0.2c0.4,2.4,0.8,4.4,1,5.8c0.1,0.6,0.2,1.2,0.3,1.6c0.1,0.4,0.1,0.6,0.1,0.6
						s-0.1-0.2-0.1-0.5c-0.1-0.4-0.2-0.9-0.4-1.5c-0.3-1.4-0.8-3.4-1.3-5.9l0-0.2l0.2,0c7.4-1.1,19.5-2.7,33.3-4.6l0.3,0l0.1,0.3
						c0.1,0.3,0.3,0.6,0.4,0.9c1,2.3,1.9,4.6,2.9,6.8l0.2,0.4l-0.5,0.1c-10,1.3-18.9,2.4-25.1,3.1c-3.1,0.4-5.5,0.6-7.4,0.9
						c-0.8,0.1-1.4,0.2-2,0.2c-0.4,0-0.7,0.1-0.7,0c0,0,0.3-0.1,0.7-0.1c0.5-0.1,1.2-0.2,2-0.3c1.8-0.3,4.3-0.6,7.4-1.1"/>
				</g>
			</g>
			<g>
				<g>
					<path class="st4" d="M219-2c0,0-0.3,0.6-0.8,1.5c-0.6,1-1.4,2.4-2.3,4.2c-1.9,3.7-4.3,9-6.3,15.6l-0.1,0.2l-0.2,0.1
						c-1.7,0.5-3.4,1.1-5.3,1.6l0-0.7c1.3,0.4,2.6,0.9,4,1.4l0.3,0.1l-0.1,0.3c-0.4,1.2-0.9,2.4-1.3,3.6c-3.4,9.6-6.4,18.4-8.4,24.7
						c-1,3.1-1.8,5.7-2.5,7.5c-0.3,0.8-0.5,1.5-0.7,2c-0.2,0.5-0.3,0.7-0.3,0.7c0,0,0-0.3,0.1-0.7c0.1-0.6,0.3-1.2,0.6-2.1
						c0.5-1.8,1.3-4.4,2.2-7.6c2-6.4,4.8-15.2,8.2-24.8c0.4-1.2,0.9-2.5,1.3-3.6l0.2,0.5c-1.4-0.5-2.7-0.9-4-1.4l-1-0.4l1-0.3
						c1.8-0.5,3.6-1.1,5.3-1.6l-0.2,0.2c2-6.6,4.6-11.9,6.6-15.6c1-1.8,1.9-3.2,2.5-4.2C218.6-1.6,218.9-2,219-2z"/>
				</g>
			</g>
		</g>
		<g>
			<g>
				<g>
					<g>
						<g>
							<g>
								
									<linearGradient id="SVGID_00000181801340141646649180000003776469086566928551_" gradientUnits="userSpaceOnUse" x1="137.2993" y1="70.4113" x2="246.6094" y2="70.4113">
									<stop  offset="0" style="stop-color:#DEEAFE"/>
									<stop  offset="1" style="stop-color:#A1C3FC"/>
								</linearGradient>
								<path style="fill:url(#SVGID_00000181801340141646649180000003776469086566928551_);" d="M232,13c-6.5-1.9-13.9,1.6-19,8.7
									c-3.6,5-6.2,10.6-7.7,16.5l-3.2,12.5l-2.7,22.4c-1.4,10.4-3.3,21.5-3.3,21.5l-58.8,8.8l2.8,24.9c0,0,70.5-0.5,78.3-4.2
									c5.7-2.7,10.9-25.3,16.5-42c1.8-7,11.1-35.3,11.5-43.6C247.8,15.7,232,13,232,13z"/>
							</g>
						</g>
					</g>
				</g>
			</g>
		</g>
	</g>
</g>
</svg>
