<?xml version="1.0" encoding="utf-8"?>
<!-- Generator: Adobe Illustrator 25.4.8, SVG Export Plug-In . SVG Version: 6.00 Build 0)  -->
<svg version="1.1" id="Layer_1" xmlns="http://www.w3.org/2000/svg" xmlns:xlink="http://www.w3.org/1999/xlink" x="0px" y="0px"
	 viewBox="0 0 166.6 166.6" style="enable-background:new 0 0 166.6 166.6;" xml:space="preserve">
<style type="text/css">
	.st0{clip-path:url(#SVGID_00000049940544546840612510000016193749330389922201_);}
	.st1{fill:#7A94E6;}
	.st2{fill:#FF9C6A;}
	.st3{fill:#DE623C;}
	.st4{fill:#5578E6;}
	.st5{fill:#F37A50;}
	.st6{opacity:0.31;fill:#1A1A1A;enable-background:new    ;}
	.st7{opacity:0.6;}
	.st8{filter:url(#Adobe_OpacityMaskFilter);}
	.st9{mask:url(#SVGID_00000033331816849307746720000018348805717860532110_);}
	.st10{filter:url(#Adobe_OpacityMaskFilter_00000105423134916204470200000008023247597233545400_);}
	.st11{mask:url(#SVGID_00000052066629079634578090000009045434075972248254_);}
	.st12{opacity:0.5;}
	.st13{filter:url(#Adobe_OpacityMaskFilter_00000180338643678715426370000011526598334091580339_);}
	.st14{mask:url(#SVGID_00000011753872389979775800000014976006089137823659_);}
	.st15{filter:url(#Adobe_OpacityMaskFilter_00000001653360014179112170000017063557996732045456_);}
	.st16{mask:url(#SVGID_00000142859388558144081450000003254261155657380490_);}
	.st17{filter:url(#Adobe_OpacityMaskFilter_00000018219011032751153680000006406279405528645534_);}
	.st18{mask:url(#SVGID_00000083070970482032919240000004213044124794155947_);}
	.st19{filter:url(#Adobe_OpacityMaskFilter_00000098201797391309737700000009411598662026327942_);}
	.st20{mask:url(#SVGID_00000049214104068890166960000016485727414649406898_);}
	.st21{filter:url(#Adobe_OpacityMaskFilter_00000093860034225364177940000008689866372129217458_);}
	.st22{mask:url(#SVGID_00000168087007048503509070000013584608066193586563_);}
	.st23{filter:url(#Adobe_OpacityMaskFilter_00000058557483333856549700000000735699672230088124_);}
	.st24{mask:url(#SVGID_00000130630974808258650500000012882148117871565229_);}
	.st25{filter:url(#Adobe_OpacityMaskFilter_00000144301739316625814270000010420367320860632485_);}
	.st26{mask:url(#SVGID_00000003814674642281081680000017999614258468467375_);}
	.st27{filter:url(#Adobe_OpacityMaskFilter_00000096747922935893368280000005436991119402102713_);}
	.st28{mask:url(#SVGID_00000029009170466767918550000017157228299507740333_);}
	.st29{filter:url(#Adobe_OpacityMaskFilter_00000021121077776478227700000005910564233650374813_);}
	.st30{mask:url(#SVGID_00000093896308574126939250000000529457998288058536_);}
	.st31{filter:url(#Adobe_OpacityMaskFilter_00000059267999085658449030000001674099366615836044_);}
	.st32{mask:url(#SVGID_00000103239484487337074660000011098280069706239111_);}
	.st33{filter:url(#Adobe_OpacityMaskFilter_00000026125630844244371160000006892582201865183407_);}
	.st34{mask:url(#SVGID_00000005231986572701464990000004476901878032225955_);}
	.st35{filter:url(#Adobe_OpacityMaskFilter_00000044173398692289351850000008671816412803745429_);}
	.st36{mask:url(#SVGID_00000136389016310723209450000015253653780868162183_);}
	.st37{filter:url(#Adobe_OpacityMaskFilter_00000036950244026713883160000017420342653424193702_);}
	.st38{mask:url(#SVGID_00000139290365901709905450000013431774257479664008_);}
	.st39{filter:url(#Adobe_OpacityMaskFilter_00000149352635433281570860000002372992513856320696_);}
	.st40{mask:url(#SVGID_00000168811262261991807720000002771730004701689226_);}
	.st41{filter:url(#Adobe_OpacityMaskFilter_00000162335570326556867740000014414780726867677580_);}
	.st42{mask:url(#SVGID_00000099632967351099923200000015396680507637349027_);}
	.st43{filter:url(#Adobe_OpacityMaskFilter_00000000908913631279961740000002303142773924089513_);}
	.st44{mask:url(#SVGID_00000045581928938554174890000010500275398674076310_);}
	.st45{fill:#393431;}
	.st46{fill:#E86E2C;}
	.st47{fill:#E86D2C;}
	.st48{fill:#FC8754;}
	.st49{clip-path:url(#SVGID_00000183944710537066139740000007712175244944278955_);}
	.st50{fill:none;stroke:#FFFFFF;stroke-miterlimit:10;}
	.st51{fill:#FFFFFF;}
	.st52{clip-path:url(#SVGID_00000108271412091535858300000009371913740499606177_);}
	.st53{clip-path:url(#SVGID_00000018958941754917719340000009828136062297793427_);}
	.st54{clip-path:url(#SVGID_00000169549192512755682580000001505514342520043669_);}
	.st55{clip-path:url(#SVGID_00000000187802146416700330000014506184692906270129_);}
	.st56{clip-path:url(#SVGID_00000169536249594739960890000002838347895714276535_);}
	.st57{clip-path:url(#SVGID_00000016064600113500643430000016512858814432767367_);fill:#393431;}
</style>
<g>
	<g>
		<defs>
			<circle id="SVGID_1_" cx="83.3" cy="83.3" r="83.3"/>
		</defs>
		<clipPath id="SVGID_00000161596297720189535000000008089842231226058419_">
			<use xlink:href="#SVGID_1_"  style="overflow:visible;"/>
		</clipPath>
		<g style="clip-path:url(#SVGID_00000161596297720189535000000008089842231226058419_);">
			<g>
				<g>
					<g>
						<g>
							<path class="st1" d="M168.3,441.9c-2.6-14.5-4.4-34.4-2.1-60c0.4-1.4,0.7-2.9,1.1-4.4c2.9-11.7,6.5-25.4,10-39.8
								c0.7-2.9,1.5-5.9,2.2-8.9c9.4-39.1,18-82,14.4-106.6c-0.7-4.7-1.8-8.7-3.5-11.9c0-1.5-2.9-3.8-7.5-6.5
								c-14-8.2-43.7-19.5-55.6-18.4c0,0-0.3,0.8-0.9,2.3c-3.5,8.6-17.6,38.5-42.6,36.5c-14.3-1.1-15.7-25.5-15.9-28.4
								c0-0.2,0-0.3,0-0.3c-2.2,0.3-4.4,0.9-6.5,1.7c-20.5,7.4-37.6,33.4-49.3,61.9c-1.8,4.3-3.4,8.6-4.9,12.9
								c-0.7,2.1-1.4,4.2-2.1,6.4c-1.5,4.7-2.4,9.7-2.8,14.9c-0.8,9.3-0.1,19.3,1.2,29.8c0.6,5,1.4,10.2,2.2,15.5
								c4,26,9.1,53.4,4.4,81.2c-2.2,13.1-14.6,58-22.2,87.7h212.2C188.8,481.3,169.3,445,168.3,441.9z"/>
						</g>
					</g>
				</g>
				<path class="st2" d="M-17,247.4c0,0-58.7,61.4-78.5,113.8c23.2-6.9,71.6-7.9,71.6-7.9l53.2-59.2L-17,247.4z"/>
				<path class="st3" d="M127.8,151.3l-2.5,68.7c0,0-35.8,25.5-63.4,8.5c4.3-21.3,10-56.3,10-56.3L127.8,151.3z"/>
				<path class="st4" d="M61.5,197c0,0-44.8,5.7-92.8,66.6c6.7,4.7,36.9,32.5,36.9,32.5L61.5,197z"/>
				<g>
					<path class="st2" d="M204.6,283.5C187.1,322.2,129,411.4,98.1,422l-40.6-47.7c0,0,13.5-22.4,27-49.8
						c18.6-38,49.6-81.1,57.1-92.5C164,197.5,233.2,220.4,204.6,283.5z"/>
					<path class="st2" d="M-98.5,451.7c0,0,2.4,0.4,6.7,1C-65.2,456.1,34.4,465.3,98,422c3.4-4.1-36.6-49.9-36.6-49.9
						c-1.2,0.6-2.5,1.2-3.8,1.7c-9.2,4.2-18.6,8.2-27.9,12C0.9,397.6-27.5,407-50.2,414c-25.1,7.7-43.5,12.3-48.2,13.5
						c-0.8,0.2-1.2,0.3-1.2,0.3L-98.5,451.7z"/>
					<path class="st5" d="M-88.3,448.5c-11,16.8-49.3,26.4-73.3,16.2c-24-10.2-5.1-28.8,6.9-29.9c12.1-1.1,28.1-0.2,27.2-6.4
						c-0.9-6.2-7.3-8-8.7-15.5c-1.2-6.7,21.6-6.8,37.7,14.4C-94.1,436.5-88.3,448.5-88.3,448.5z"/>
				</g>
				<path class="st4" d="M186.5,204.1c6.9,2.3,36.5,6.5,21.3,75.5c-6.7,26.8-28.7,59.1-28.7,59.1s-46.5-26.1-73.3-63.8
					C110.5,261.5,151.4,197.6,186.5,204.1z"/>
				<path class="st6" d="M107,301.9c-10.9-11.2-36.7-7.2-45.7,2.6c-10.4,11.3-10.1,20.6-13.7,33.9c-24.7,1.2-51.4-7-105.2,6.3
					c-51.5,12.7-35.3,50.3-9.2,52.8c37.2,3.6,124.7-38.3,124.7-38.3l-0.1-0.3c6.5-1.3,18.6-5,17.8-14.3c-0.8-9.9-2-17.1,5.6-23.6
					c9.4-8,21.2-7.1,25-8.3C111.7,310.8,110.8,305.7,107,301.9z"/>
				<path class="st2" d="M46,333.6c-25.9,2.4-52.6-7.5-109.3,6.5c-51.5,12.7-35.3,50.3-9.2,52.8c37.2,3.6,124.7-38.3,124.7-38.3
					L46,333.6z"/>
				<path class="st2" d="M41.7,334.6c3.8-13.8,3.3-23.2,13.9-34.7c9-9.8,34.8-13.8,45.7-2.6c3.8,3.8,4.7,9-0.8,10.7
					c-3.8,1.2-15.6,0.3-25,8.3c-7.6,6.5-6.4,13.7-5.6,23.6c1.1,12.7-21.8,15-21.8,15L41.7,334.6z"/>
				<g>
					<g class="st7">
						<defs>
							<filter id="Adobe_OpacityMaskFilter" filterUnits="userSpaceOnUse" x="69" y="330.6" width="56" height="72">
								<feColorMatrix  type="matrix" values="1 0 0 0 0  0 1 0 0 0  0 0 1 0 0  0 0 0 1 0"/>
							</filter>
						</defs>
						
							<mask maskUnits="userSpaceOnUse" x="69" y="330.6" width="56" height="72" id="SVGID_00000033331816849307746720000018348805717860532110_">
							<g class="st8">
							</g>
						</mask>
						<g class="st9">
							<g class="st7">
							</g>
						</g>
					</g>
					<defs>
						
							<filter id="Adobe_OpacityMaskFilter_00000050663665346478177290000007460852096827348622_" filterUnits="userSpaceOnUse" x="82" y="348.6" width="31" height="36">
							<feColorMatrix  type="matrix" values="1 0 0 0 0  0 1 0 0 0  0 0 1 0 0  0 0 0 1 0"/>
						</filter>
					</defs>
					
						<mask maskUnits="userSpaceOnUse" x="82" y="348.6" width="31" height="36" id="SVGID_00000052066629079634578090000009045434075972248254_">
						<g style="filter:url(#Adobe_OpacityMaskFilter_00000050663665346478177290000007460852096827348622_);">
						</g>
					</mask>
					<g class="st11">
						<g class="st12">
						</g>
					</g>
					<g>
						<defs>
							
								<filter id="Adobe_OpacityMaskFilter_00000183945101523497725640000003724580739516910464_" filterUnits="userSpaceOnUse" x="80" y="306.6" width="69" height="76">
								<feColorMatrix  type="matrix" values="1 0 0 0 0  0 1 0 0 0  0 0 1 0 0  0 0 0 1 0"/>
							</filter>
						</defs>
						
							<mask maskUnits="userSpaceOnUse" x="80" y="306.6" width="69" height="76" id="SVGID_00000011753872389979775800000014976006089137823659_">
							<g style="filter:url(#Adobe_OpacityMaskFilter_00000183945101523497725640000003724580739516910464_);">
							</g>
						</mask>
						<g class="st14">
							<g class="st7">
							</g>
						</g>
					</g>
					<defs>
						
							<filter id="Adobe_OpacityMaskFilter_00000119119788499965405740000012174833238585502612_" filterUnits="userSpaceOnUse" x="103" y="331.6" width="23" height="28">
							<feColorMatrix  type="matrix" values="1 0 0 0 0  0 1 0 0 0  0 0 1 0 0  0 0 0 1 0"/>
						</filter>
					</defs>
					
						<mask maskUnits="userSpaceOnUse" x="103" y="331.6" width="23" height="28" id="SVGID_00000142859388558144081450000003254261155657380490_">
						<g style="filter:url(#Adobe_OpacityMaskFilter_00000119119788499965405740000012174833238585502612_);">
						</g>
					</mask>
					<g class="st16">
						<g class="st12">
						</g>
					</g>
					<g>
						<defs>
							
								<filter id="Adobe_OpacityMaskFilter_00000125602939317353087430000013221848376770294696_" filterUnits="userSpaceOnUse" x="111" y="339.6" width="11" height="9">
								<feColorMatrix  type="matrix" values="1 0 0 0 0  0 1 0 0 0  0 0 1 0 0  0 0 0 1 0"/>
							</filter>
						</defs>
						
							<mask maskUnits="userSpaceOnUse" x="111" y="339.6" width="11" height="9" id="SVGID_00000083070970482032919240000004213044124794155947_">
							<g style="filter:url(#Adobe_OpacityMaskFilter_00000125602939317353087430000013221848376770294696_);">
							</g>
						</mask>
						<g class="st18">
							<g class="st12">
							</g>
						</g>
					</g>
					<g>
						<g>
							<defs>
								
									<filter id="Adobe_OpacityMaskFilter_00000082329864201007220920000014619663942767434903_" filterUnits="userSpaceOnUse" x="120" y="347.6" width="10" height="8">
									<feColorMatrix  type="matrix" values="1 0 0 0 0  0 1 0 0 0  0 0 1 0 0  0 0 0 1 0"/>
								</filter>
							</defs>
							
								<mask maskUnits="userSpaceOnUse" x="120" y="347.6" width="10" height="8" id="SVGID_00000049214104068890166960000016485727414649406898_">
								<g style="filter:url(#Adobe_OpacityMaskFilter_00000082329864201007220920000014619663942767434903_);">
								</g>
							</mask>
							<g class="st20">
								<g class="st12">
								</g>
							</g>
						</g>
						<g>
							<defs>
								
									<filter id="Adobe_OpacityMaskFilter_00000003096402255143010120000015529496306963344779_" filterUnits="userSpaceOnUse" x="123" y="349.6" width="4" height="4">
									<feColorMatrix  type="matrix" values="1 0 0 0 0  0 1 0 0 0  0 0 1 0 0  0 0 0 1 0"/>
								</filter>
							</defs>
							
								<mask maskUnits="userSpaceOnUse" x="123" y="349.6" width="4" height="4" id="SVGID_00000168087007048503509070000013584608066193586563_">
								<g style="filter:url(#Adobe_OpacityMaskFilter_00000003096402255143010120000015529496306963344779_);">
								</g>
							</mask>
							<g class="st22">
								<g class="st12">
								</g>
							</g>
						</g>
					</g>
					<g>
						<defs>
							
								<filter id="Adobe_OpacityMaskFilter_00000118394667337703114170000004435309217461643673_" filterUnits="userSpaceOnUse" x="89" y="355.6" width="10" height="10">
								<feColorMatrix  type="matrix" values="1 0 0 0 0  0 1 0 0 0  0 0 1 0 0  0 0 0 1 0"/>
							</filter>
						</defs>
						
							<mask maskUnits="userSpaceOnUse" x="89" y="355.6" width="10" height="10" id="SVGID_00000130630974808258650500000012882148117871565229_">
							<g style="filter:url(#Adobe_OpacityMaskFilter_00000118394667337703114170000004435309217461643673_);">
							</g>
						</mask>
						<g class="st24">
							<g class="st12">
							</g>
						</g>
					</g>
					<g>
						<g>
							<defs>
								
									<filter id="Adobe_OpacityMaskFilter_00000010991158687768875040000013671078213459812258_" filterUnits="userSpaceOnUse" x="97" y="364.6" width="23" height="21">
									<feColorMatrix  type="matrix" values="1 0 0 0 0  0 1 0 0 0  0 0 1 0 0  0 0 0 1 0"/>
								</filter>
							</defs>
							
								<mask maskUnits="userSpaceOnUse" x="97" y="364.6" width="23" height="21" id="SVGID_00000003814674642281081680000017999614258468467375_">
								<g style="filter:url(#Adobe_OpacityMaskFilter_00000010991158687768875040000013671078213459812258_);">
								</g>
							</mask>
							<g class="st26">
								<g class="st12">
								</g>
							</g>
						</g>
						<g>
							<defs>
								
									<filter id="Adobe_OpacityMaskFilter_00000140001945758295263330000013920968938534073238_" filterUnits="userSpaceOnUse" x="104" y="370.6" width="10" height="9">
									<feColorMatrix  type="matrix" values="1 0 0 0 0  0 1 0 0 0  0 0 1 0 0  0 0 0 1 0"/>
								</filter>
							</defs>
							
								<mask maskUnits="userSpaceOnUse" x="104" y="370.6" width="10" height="9" id="SVGID_00000029009170466767918550000017157228299507740333_">
								<g style="filter:url(#Adobe_OpacityMaskFilter_00000140001945758295263330000013920968938534073238_);">
								</g>
							</mask>
							<g class="st28">
								<g class="st12">
								</g>
							</g>
						</g>
					</g>
					<g>
						<g>
							<defs>
								
									<filter id="Adobe_OpacityMaskFilter_00000018229034712675940940000004789841881376878721_" filterUnits="userSpaceOnUse" x="101" y="352.6" width="13" height="12">
									<feColorMatrix  type="matrix" values="1 0 0 0 0  0 1 0 0 0  0 0 1 0 0  0 0 0 1 0"/>
								</filter>
							</defs>
							
								<mask maskUnits="userSpaceOnUse" x="101" y="352.6" width="13" height="12" id="SVGID_00000093896308574126939250000000529457998288058536_">
								<g style="filter:url(#Adobe_OpacityMaskFilter_00000018229034712675940940000004789841881376878721_);">
								</g>
							</mask>
							<g class="st30">
								<g class="st12">
								</g>
							</g>
						</g>
						<g>
							<defs>
								
									<filter id="Adobe_OpacityMaskFilter_00000004546966583608223950000004512875187679100092_" filterUnits="userSpaceOnUse" x="104" y="356.6" width="6" height="5">
									<feColorMatrix  type="matrix" values="1 0 0 0 0  0 1 0 0 0  0 0 1 0 0  0 0 0 1 0"/>
								</filter>
							</defs>
							
								<mask maskUnits="userSpaceOnUse" x="104" y="356.6" width="6" height="5" id="SVGID_00000103239484487337074660000011098280069706239111_">
								<g style="filter:url(#Adobe_OpacityMaskFilter_00000004546966583608223950000004512875187679100092_);">
								</g>
							</mask>
							<g class="st32">
								<g class="st12">
								</g>
							</g>
						</g>
					</g>
					<g>
						<g>
							<defs>
								
									<filter id="Adobe_OpacityMaskFilter_00000103981169852605717620000012689133762199479219_" filterUnits="userSpaceOnUse" x="117" y="327.6" width="18" height="16">
									<feColorMatrix  type="matrix" values="1 0 0 0 0  0 1 0 0 0  0 0 1 0 0  0 0 0 1 0"/>
								</filter>
							</defs>
							
								<mask maskUnits="userSpaceOnUse" x="117" y="327.6" width="18" height="16" id="SVGID_00000005231986572701464990000004476901878032225955_">
								<g style="filter:url(#Adobe_OpacityMaskFilter_00000103981169852605717620000012689133762199479219_);">
								</g>
							</mask>
							<g class="st34">
								<g class="st12">
								</g>
							</g>
						</g>
						<g>
							<defs>
								
									<filter id="Adobe_OpacityMaskFilter_00000160894514842237512130000011151156663447616174_" filterUnits="userSpaceOnUse" x="123" y="333.6" width="5" height="5">
									<feColorMatrix  type="matrix" values="1 0 0 0 0  0 1 0 0 0  0 0 1 0 0  0 0 0 1 0"/>
								</filter>
							</defs>
							
								<mask maskUnits="userSpaceOnUse" x="123" y="333.6" width="5" height="5" id="SVGID_00000136389016310723209450000015253653780868162183_">
								<g style="filter:url(#Adobe_OpacityMaskFilter_00000160894514842237512130000011151156663447616174_);">
								</g>
							</mask>
							<g class="st36">
								<g class="st12">
								</g>
							</g>
						</g>
					</g>
					<g class="st12">
						<g>
							<defs>
								
									<filter id="Adobe_OpacityMaskFilter_00000057122406404769284860000018293474740808804770_" filterUnits="userSpaceOnUse" x="95" y="341.6" width="12" height="11">
									<feColorMatrix  type="matrix" values="1 0 0 0 0  0 1 0 0 0  0 0 1 0 0  0 0 0 1 0"/>
								</filter>
							</defs>
							
								<mask maskUnits="userSpaceOnUse" x="95" y="341.6" width="12" height="11" id="SVGID_00000139290365901709905450000013431774257479664008_">
								<g style="filter:url(#Adobe_OpacityMaskFilter_00000057122406404769284860000018293474740808804770_);">
								</g>
							</mask>
							<g class="st38">
								<g class="st12">
								</g>
							</g>
						</g>
						<g>
							<defs>
								
									<filter id="Adobe_OpacityMaskFilter_00000181804971138251226730000007114413731554035592_" filterUnits="userSpaceOnUse" x="99" y="344.6" width="4" height="4">
									<feColorMatrix  type="matrix" values="1 0 0 0 0  0 1 0 0 0  0 0 1 0 0  0 0 0 1 0"/>
								</filter>
							</defs>
							
								<mask maskUnits="userSpaceOnUse" x="99" y="344.6" width="4" height="4" id="SVGID_00000168811262261991807720000002771730004701689226_">
								<g style="filter:url(#Adobe_OpacityMaskFilter_00000181804971138251226730000007114413731554035592_);">
								</g>
							</mask>
							<g class="st40">
								<g class="st12">
								</g>
							</g>
						</g>
					</g>
					<g class="st12">
						<g>
							<defs>
								
									<filter id="Adobe_OpacityMaskFilter_00000167383090985093318260000009576129774330445708_" filterUnits="userSpaceOnUse" x="85" y="371.6" width="18" height="17">
									<feColorMatrix  type="matrix" values="1 0 0 0 0  0 1 0 0 0  0 0 1 0 0  0 0 0 1 0"/>
								</filter>
							</defs>
							
								<mask maskUnits="userSpaceOnUse" x="85" y="371.6" width="18" height="17" id="SVGID_00000099632967351099923200000015396680507637349027_">
								<g style="filter:url(#Adobe_OpacityMaskFilter_00000167383090985093318260000009576129774330445708_);">
								</g>
							</mask>
							<g class="st42">
								<g class="st12">
								</g>
							</g>
						</g>
						<g>
							<defs>
								
									<filter id="Adobe_OpacityMaskFilter_00000029019103462206028400000015151207611679853227_" filterUnits="userSpaceOnUse" x="92" y="377.6" width="5" height="5">
									<feColorMatrix  type="matrix" values="1 0 0 0 0  0 1 0 0 0  0 0 1 0 0  0 0 0 1 0"/>
								</filter>
							</defs>
							
								<mask maskUnits="userSpaceOnUse" x="92" y="377.6" width="5" height="5" id="SVGID_00000045581928938554174890000010500275398674076310_">
								<g style="filter:url(#Adobe_OpacityMaskFilter_00000029019103462206028400000015151207611679853227_);">
								</g>
							</mask>
							<g class="st44">
								<g class="st12">
								</g>
							</g>
						</g>
					</g>
				</g>
			</g>
			<g>
				<path class="st45" d="M17.6,41.2C11.8,50.8,5.8,66.7,7,83.5c1.4,19.9,10.2,32.7-7.3,54.9s-17.5,56.3,5.7,71.4
					c23.2,15.1,66.1,9.3,66.1,9.3l59.2-29.1L104.4-6.7L17.6,41.2z"/>
				<path class="st2" d="M82.3-19.6c-31.6,5.8-55.6,33-55.8,65.1c0,1,0,2,0.1,3.1c0.3,19.4-0.4,23.2-2.5,30.1
					c-3.7,11.8,0.5,24.9,5.4,37.1c10.8,26.5,23.5,38,26.9,38.3c29.1,2.5,66.2-21,66.2-21s6.7-14.2,8.4-40.9s1.5-41.5,1.5-41.5
					s-15.8-75.8-33.7-73.1C93.7-21.6,88-20.6,82.3-19.6z"/>
				<path class="st2" d="M35.8,207.8c0,0,32.6-5.3,36.3-23.2c3.7-17.9-5.3-36.5-5.3-36.5l54.6-41.9c0,0,3.4,54.9,23.7,67.9
					c12.3,7.9,31,15.5,31,15.5l-38.7,80.2l-114.3-10L35.8,207.8z"/>
				<path class="st46" d="M49.6,102.9c-0.4,0.1-0.8-0.1-1-0.4c-0.7-0.8-1.5-1.2-2.4-1.7s-1.8-0.9-2.5-1.7c-3.3-4-3.1-8.5,0.5-12.1
					c3.1-3.1,6.3-14.7,2.6-23.1c-0.3-0.6,0-1.2,0.6-1.5s1.2,0,1.5,0.6c4,8.9,0.9,21.6-3,25.6c-2.7,2.7-2.9,6-0.4,9.1
					c0.4,0.5,1,0.8,1.8,1.2c1,0.5,2.1,1.1,3.1,2.2c0.4,0.5,0.4,1.2-0.1,1.6C50,102.7,49.8,102.8,49.6,102.9z"/>
				<path class="st46" d="M58.8,100.5c-0.3,0-0.6,0-0.8-0.2c-0.5-0.4-0.6-1.1-0.2-1.6c1.1-1.5,4.2-3.8,8.3-2.2
					c0.6,0.2,0.9,0.9,0.6,1.4c-0.2,0.6-0.9,0.9-1.4,0.6c-3.4-1.3-5.6,1.4-5.7,1.5C59.3,100.3,59,100.5,58.8,100.5z"/>
				<path class="st47" d="M69.4,153.5c0,0,4.1,23.2,3,24.9c0,0,12.5-20,26.9-33.9l3.3-4.3C89.2,149.4,79.8,150.8,69.4,153.5z"/>
				<path class="st46" d="M67.4,71.6L67.4,71.6c-0.7,0-1.2-0.5-1.3-1.1c-0.1-3.3,2.8-6.4,3-6.5c0.4-0.4,1.1-0.5,1.6,0
					c0.4,0.4,0.5,1.1,0,1.6l0,0c-0.7,0.7-2.4,2.9-2.3,4.9C68.3,71.1,67.9,71.5,67.4,71.6z"/>
				<g>
					<path class="st48" d="M43.7,115.7c0,0,5.2-4.4,7.6-4.5c2.4-0.1,2.9,2,6.1,1.4c3.2-0.6,4.9-3.2,7.8-2.4c2.9,0.8,9.3,4.1,9.3,4.1
						S62.3,122.6,43.7,115.7z"/>
					<path class="st48" d="M42.8,115.6c0,0,1.6,4.3,3.7,6.5c1.4,1.4,6.7,5.9,10.7,5.2c10.9-1.8,9.7,0,14.2-3
						c2.3-1.5,8.1-10.9,8.1-10.9S41.9,115.2,42.8,115.6z"/>
				</g>
				<path class="st45" d="M92.6,16.2c0,0,7.3,51.5,34.5,48.5l5.4-1.9c0,0-22.3-3-26.5-30.2C101.6,5.3,95.5-9.6,95.5-9.6l-17,4.5
					L92.6,16.2z"/>
				<path class="st45" d="M84-3.5c0,0-37,41.1-69.2,54l1.7-8.8c0,0-6.1-49.8,43.8-65.9c49.8-16.2,41.3,7.7,41.3,7.7L89.8-6.9L84-3.5
					z"/>
				<path class="st2" d="M119.7,86.4c0,0-0.7-21.2,21-20.4c21.7,0.7,12.5,37-7.1,44.2C114,117.2,119.7,86.4,119.7,86.4z"/>
				<path class="st46" d="M134.5,94.9c-3.4,2.9-7.4-0.6-5.5-4.7c2.8-5.8,6.8-11.2,11.7-9.2C146.3,83.3,140.6,89.7,134.5,94.9z"/>
				<path class="st45" d="M183.7,207.2c0,0,24.8,16,21.9,45.8c-2.9,29.8,0.5,51.7,13.9,62c0,0-31.6-13.9-34.5-39.4
					c-2.9-25.4-32-38.1-32-38.1L183.7,207.2z"/>
			</g>
			<path class="st45" d="M102.9,16.7c0,0,28.6,30.2,29.3,53.3s-17.3,41.1-6.2,88.6c7.1,30.7-42.5,96.9-31.7,120.5
				c10.7,23.6,52.5,53.8,41.4,77.6c0,0,19.5-24.7,13.4-41.3c0,0,2.6,47.8,25.5,62.1c0,0-11.4-32.6-10.3-47.7c0,0,26.5,40.4,20,61.4
				c0,0,20.3-31.5,7.9-69.8s-25.4-65.2-13.8-87.5c11.6-22.2,13.8-30.6,13.9-43.5c0.2-13-9.7-25.3-13.5-39.7
				c-3.8-14.3,2.8-56.3-0.5-70.2c-3.4-13.9-7.5-14.1-15.1-55.5c-7.3-39.4-52.7-59.4-75.2-47.6S65.6-9.1,65.6-9.1l24.8,5.6
				L102.9,16.7z"/>
		</g>
	</g>
	<g>
		<defs>
			<circle id="SVGID_00000072278586666569987050000001237914317415192495_" cx="83.3" cy="83.3" r="83.3"/>
		</defs>
		<clipPath id="SVGID_00000171680026468837442930000008435820357303157142_">
			<use xlink:href="#SVGID_00000072278586666569987050000001237914317415192495_"  style="overflow:visible;"/>
		</clipPath>
		<g style="clip-path:url(#SVGID_00000171680026468837442930000008435820357303157142_);">
			<g>
				<path class="st50" d="M64.4,147.3c8.4-1,62.7-10,59.8-67.8"/>
				<g>
					<polygon class="st51" points="68.2,150.9 68.8,150.1 64.7,147.3 67.9,143.4 67.1,142.8 63.3,147.5 					"/>
				</g>
				<g>
					<polygon class="st51" points="128.4,82.7 127.6,83.4 124.2,79.9 120.9,83.6 120.2,82.9 124.1,78.4 					"/>
				</g>
			</g>
		</g>
	</g>
	<g>
		<defs>
			<circle id="SVGID_00000088119584266753433560000001663328830080121218_" cx="83.3" cy="83.3" r="83.3"/>
		</defs>
		<clipPath id="SVGID_00000178892848616259128260000007759520721971060866_">
			<use xlink:href="#SVGID_00000088119584266753433560000001663328830080121218_"  style="overflow:visible;"/>
		</clipPath>
		<g style="clip-path:url(#SVGID_00000178892848616259128260000007759520721971060866_);">
			<g>
				<path class="st50" d="M68,141.5c7.6-2,53.2-15.6,50.2-57.7"/>
				<g>
					<polygon class="st51" points="72.2,144.5 72.7,143.6 68.3,141.4 70.9,137.1 70,136.6 66.9,141.8 					"/>
				</g>
				<g>
					<polygon class="st51" points="122.3,86.9 121.7,87.6 118.1,84.2 114.9,88 114.2,87.4 118,82.7 					"/>
				</g>
			</g>
		</g>
	</g>
	<g>
		<defs>
			<circle id="SVGID_00000178201139199399790670000016083141502384212364_" cx="83.3" cy="83.3" r="83.3"/>
		</defs>
		<clipPath id="SVGID_00000000204585175006996100000010215416910149938861_">
			<use xlink:href="#SVGID_00000178201139199399790670000016083141502384212364_"  style="overflow:visible;"/>
		</clipPath>
		<g style="clip-path:url(#SVGID_00000000204585175006996100000010215416910149938861_);">
			<g>
				<path class="st50" d="M74,132.1c6.3-1.7,38.8-11.9,36.8-42.2"/>
				<g>
					<polygon class="st51" points="78.3,135 78.8,134.1 74.4,131.9 76.9,127.7 76,127.2 73,132.3 					"/>
				</g>
				<g>
					<polygon class="st51" points="115,93 114.3,93.7 110.8,90.2 107.6,94 106.8,93.3 110.7,88.8 					"/>
				</g>
			</g>
		</g>
	</g>
	<g>
		<defs>
			<circle id="SVGID_00000066493346269790310070000005398997846956431019_" cx="83.3" cy="83.3" r="83.3"/>
		</defs>
		<clipPath id="SVGID_00000091695735366298123690000003952176994960035736_">
			<use xlink:href="#SVGID_00000066493346269790310070000005398997846956431019_"  style="overflow:visible;"/>
		</clipPath>
		<g style="clip-path:url(#SVGID_00000091695735366298123690000003952176994960035736_);">
			<g>
				<path class="st50" d="M72,82.2c4.3-0.6,19.9-3.9,21.2-18.5"/>
				<g>
					<polygon class="st51" points="75.9,85.6 76.5,84.8 72.3,82.1 75.3,78.1 74.5,77.5 70.9,82.3 					"/>
				</g>
				<g>
					<polygon class="st51" points="96.7,67.5 95.9,68.1 93.1,64.1 89.3,67.2 88.6,66.4 93.3,62.6 					"/>
				</g>
			</g>
		</g>
	</g>
	<g>
		<defs>
			<circle id="SVGID_00000134215716033712350900000005086709177260948664_" cx="83.3" cy="83.3" r="83.3"/>
		</defs>
		<clipPath id="SVGID_00000075859275798992413020000016713995946455909795_">
			<use xlink:href="#SVGID_00000134215716033712350900000005086709177260948664_"  style="overflow:visible;"/>
		</clipPath>
		<g style="clip-path:url(#SVGID_00000075859275798992413020000016713995946455909795_);">
			<g>
				<path class="st50" d="M71.4,88.9c4.9-0.7,25.4-4.6,26.9-23.5"/>
				<g>
					<polygon class="st51" points="75.4,92.4 75.9,91.6 71.8,88.8 74.9,84.9 74.1,84.3 70.4,89.1 					"/>
				</g>
				<g>
					<polygon class="st51" points="102,69.2 101.2,69.8 98.3,65.8 94.5,69 93.9,68.3 98.5,64.4 					"/>
				</g>
			</g>
		</g>
	</g>
	<g>
		<defs>
			<circle id="SVGID_00000181801514824881694830000006828133791132998295_" cx="83.3" cy="83.3" r="83.3"/>
		</defs>
		<clipPath id="SVGID_00000152224340324636093640000013515244454647995030_">
			<use xlink:href="#SVGID_00000181801514824881694830000006828133791132998295_"  style="overflow:visible;"/>
		</clipPath>
		<g style="clip-path:url(#SVGID_00000152224340324636093640000013515244454647995030_);">
			<g>
				<path class="st50" d="M97.5,55.7c-5.6-4.4-37.8-27.5-64.3-4.3"/>
				<g>
					<polygon class="st51" points="97.3,50.5 96.3,50.6 97.2,55.5 92.3,56 92.4,57 98.4,56.4 					"/>
				</g>
				<g>
					<polygon class="st51" points="33.1,46.1 34.1,46.3 33.5,51.2 38.5,51.4 38.4,52.4 32.4,52.1 					"/>
				</g>
			</g>
		</g>
	</g>
	<g>
		<defs>
			<circle id="SVGID_00000149340179008704220750000007605842697469878975_" cx="83.3" cy="83.3" r="83.3"/>
		</defs>
		<clipPath id="SVGID_00000039112762798488591590000012760472297606095267_">
			<use xlink:href="#SVGID_00000149340179008704220750000007605842697469878975_"  style="overflow:visible;"/>
		</clipPath>
		<path style="clip-path:url(#SVGID_00000039112762798488591590000012760472297606095267_);fill:#393431;" d="M42.6,47.9
			c0,0,35.2-15.8,38.5-50.9L69.9-1.2C69.9-1.2,70.7,18.9,42.6,47.9z"/>
	</g>
</g>
</svg>
