<?xml version="1.0" encoding="utf-8"?>
<!-- Generator: Adobe Illustrator 25.4.8, SVG Export Plug-In . SVG Version: 6.00 Build 0)  -->
<svg version="1.1" id="Layer_1" xmlns="http://www.w3.org/2000/svg" xmlns:xlink="http://www.w3.org/1999/xlink" x="0px" y="0px"
	 viewBox="0 0 166.6 166.2" style="enable-background:new 0 0 166.6 166.2;" xml:space="preserve">
<style type="text/css">
	.st0{clip-path:url(#SVGID_00000137124122364428901710000016285650258408339886_);}
	.st1{fill:#263238;}
	.st2{fill:#FF735D;}
	.st3{fill:#D69056;}
	.st4{fill:#B4463F;}
	.st5{fill:#AE6D39;}
	.st6{fill:#375A64;}
	.st7{opacity:0.18;fill:url(#SVGID_00000038375833844753952190000017495324802389985950_);}
	.st8{fill:#7A94E6;}
	.st9{fill:#FBBD9D;}
	.st10{fill:#EFB0AC;}
	.st11{opacity:0.39;}
	.st12{opacity:0.67;fill:#EFB0AC;}
	.st13{opacity:0.39;fill:#EFB0AC;}
	.st14{opacity:0.74;fill:#EFB0AC;}
	.st15{fill:#7CCDF3;}
	
		.st16{clip-path:url(#SVGID_00000137124122364428901710000016285650258408339886_);fill:url(#SVGID_00000105413693394946139740000008372090987464771769_);}
	.st17{fill:none;stroke:#FF9C6A;stroke-width:3;stroke-miterlimit:10;}
</style>
<g>
	<g>
		<defs>
			
				<ellipse id="SVGID_1_" transform="matrix(0.7071 -0.7071 0.7071 0.7071 -34.3611 83.2408)" cx="83.3" cy="83.1" rx="83.1" ry="83.1"/>
		</defs>
		<clipPath id="SVGID_00000152263409925007761500000005385766525366245562_">
			<use xlink:href="#SVGID_1_"  style="overflow:visible;"/>
		</clipPath>
		<g style="clip-path:url(#SVGID_00000152263409925007761500000005385766525366245562_);">
			<g>
				<g>
					<g>
						<g>
							<path class="st1" d="M119.4-218.8c-2.5-3.7-6.9-6-11.3-6.1c-1.8-0.1-3.8,0.2-5.2-1c-1-0.8-1.4-2.2-2.1-3.3
								c-2.1-3.4-7.3-4.4-10.4-1.9c-0.8,0.6-1.4,1.4-2.4,1.7c-3.7,1.3-6.6-5.8-10.3-4.5c1.4,0.9,2.8,2.1,3.4,3.6
								c0.6,1.6,0.3,3.6-1.1,4.5c-3.7,2.3-8-4.8-12-3c-2.1,1-2.9,4.2-5.3,4.4c-0.9,0.1-1.8-0.4-2.6-0.6c-3-0.8-6.4,1.2-7.1,4.1
								c-0.7,2.5,0.2,5.9-2,7.3c-1.4,0.9-3.1,0.4-4.7-0.1c-0.3,2.4-0.1,4.8,0.6,7.1c-4.6,1.8-7,7.6-5.1,12.1
								c-2.3,1.3-4.6,2.6-6.2,4.7c-1.6,2.1-2.4,5-1.2,7.3c0.3,0.5,0.6,1,0.8,1.6c0.1,0.6-0.1,1.3-0.3,1.9c-0.9,2.3-2.3,4.5-2.6,7
								c-0.3,2.5,1.1,5.4,3.6,5.6c0.6,0,1.2-0.1,1.7,0.3c0.3,0.3,0.4,0.8,0.4,1.2c0.1,1.8-0.7,3.5-1.2,5.2c-0.5,1.7-0.8,3.6,0,5.2
								c0.8,1.6,3.1,2.5,4.5,1.3c-1.1,2.6-2.2,5.3-3.4,7.9c-0.7,1.6-1.3,3.5-0.3,4.8c1.3,1.8,4.3,1,5.8-0.7c1.5-1.7,2.1-3.9,3.6-5.6
								c0.6-0.7,1.4-1.2,1.8-2c0.4-0.6,0.6-1.4,1.2-1.8c1.2-0.7,2.7,1.1,2.3,2.5c-0.4,1.4-1.7,2.3-2.7,3.3c-1.1,1-2,2.4-1.5,3.8
								c0.3,0.6,0.8,1.1,1.1,1.8c0.8,2.3-2.5,3.8-3.2,6.1c-0.5,1.7,0.5,3.5,1.5,4.9c1.3,1.8,4,3.4,5.3,1.7c0.4-0.6,0.4-1.4,0.8-2.1
								c0.4-0.8,1.3-1.2,2-1.7c1.8-1.2,3.3-3,4.2-5c-2.2,2-4.5,4.6-3.6,7.4c0.4,1.2,1.3,2.1,2,3.1c1.4,2,2.1,4.3,3.4,6.3
								c1.3,2,3.8,3.6,6.1,2.7c-1.1,2.2-0.5,5,1.4,6.5c1.9,1.5,4.8,1.6,6.7,0.1c0.5-0.4,1-0.9,1.6-1.1c0.7-0.2,1.4,0.1,2.1,0.4
								c4,1.4,8.8,0.3,11.8-2.7c-0.7-0.4-1.3-0.7-2-1.1c4.2,0.1,8.6,0.2,12.5-1.7c3.8-1.8,6.8-6.2,5.6-10.2
								c-0.5-1.8-1.8-3.7-0.8-5.2c0.6-1.1,2-1.4,3.3-1.7c5.2-1,10.4-1.9,15.6-2.9c2.5-0.5,5.2-1,7.1-2.7s2.6-5.1,0.7-6.8
								c1.5-2.1,3.6-3.8,6-4.8c2.7-1.1,5.7-1.3,8.4-2.3c2.7-1,5.4-3.1,5.7-6c0.3-2.9-3.3-5.7-5.6-3.9c1.1-4.3,8.8-3.3,10.1-7.5
								c1.1-3.4-3.1-5.9-5-8.9c0.7-1.1,2-1.7,2.7-2.8c1.4-2.3-0.8-5.2-3-6.8c-2.3-1.5-5.1-3.2-5.3-5.9c-0.2-2.8,2.6-5.5,1.5-8.1
								c-0.6-1.4-2.4-2.2-3.9-1.6c-1.2-5.3-11.1-3-13.2-8c-0.2-0.4-0.3-0.8-0.1-1.3c0.1-0.4,0.4-0.6,0.6-0.9
								c1.3-1.2,3.1-1.7,4.6-2.5c1.5-0.9,3-2.5,2.6-4.2c-0.4-1.7-3.5-2.1-3.7-0.4c-1.5-1.9-4.9-1.5-6.1,0.6c-1-1.6-3.3-2-5.1-1.3
								c-1.8,0.7-3.1,2.2-4.3,3.6"/>
						</g>
					</g>
					<g>
						<g>
							<path class="st2" d="M87.4-167.6c2.8-6.8,9.1-11.7,15.6-15c2.8-1.4,5.7-2.7,8.8-2.6c3.1,0.1,6.3,1.7,7.4,4.7l-1.3,5
								c-0.8,8.2-8.3,13.9-12.6,20.9c-1.9,3-3.6,6.8-7.1,7.6c-1.8,0.4-3.8-0.1-5.4-1C86.4-151.7,84.6-160.7,87.4-167.6z"/>
						</g>
					</g>
					<g>
						<g>
							<path class="st1" d="M80-130.4c-3.5-6.9-1-16.2,5.5-20.4c-2.2-4.3-0.1-9.8,3.7-12.9c3.7-3.1,8.6-4.3,13.3-5.5
								c4.5-10.4,18.2-15.7,28.5-11c7.3-7.2,19.5-6.2,28.6-1.5c2.2,1.1,4.4,2.5,6.8,3c1.8,0.3,3.7,0.2,5.5,0.3
								c10.1,0.6,18.4,9.4,20.5,19.2c0.3,1.6,0.5,3.2,1.3,4.6c1,1.9,2.7,3.2,4.1,4.8c3,3.4,4.4,8.2,3.7,12.7
								c-0.6,3.8-2.6,7.6-1.6,11.4c0.5,1.9,1.6,3.6,1.9,5.5c0.8,5.6-6,9.8-6,15.4c0,1.1,0.3,2.3,0.4,3.4c0.2,2.3-0.5,4.7-1.9,6.6
								c-1.1,1.5-2.6,2.7-3.1,4.4c-0.3,1.3,0,2.7,0,4.1c0,3.4-9.4,14.5-12.5,15.7L94.8-85.9c-6.1-2.5-10.1-9.3-9.5-15.8
								c0.1-1.1,0.3-2.3-0.2-3.2c-0.4-0.8-1.3-1.3-2-1.9c-4.8-3.9-4-11.5-2.3-17.4c0.2-0.8,0.5-1.7,0.4-2.6
								C81.3-128.1,80.5-129.2,80-130.4z"/>
						</g>
					</g>
					<g>
						<g>
							<g>
								<path class="st3" d="M103.8-125.6c2.6-14.9,15.2-30.1,31.3-34.4c10.2-2.8,17.4-1.4,22.4-1c11.2,0.8,18.9,8,18.9,8
									c4.4,2,18.3,20.7,15.9,37.7c-2.6,18.8-6.6,41.7-11.7,55.2c-10.2,27-32.3,26.2-32.3,26.2c0,0-2,19.8-2,19.8L86.4-27.2
									L103.8-125.6z"/>
							</g>
						</g>
						<g>
							<path class="st4" d="M139.8-73c0.4-1.4,1.4-2.6,2.6-3.4c2.4-1.5,5.4-1.2,7.4,0.7c2,1.9,2.8,5.2,2,8.1l0,0
								c-1.5,1.5-3.6,2.4-5.7,2.3c-0.3,0-0.7-0.1-1-0.1c-1.6-0.3-3.2-1.1-4.2-2.4C139.8-69.2,139.3-71.2,139.8-73z"/>
						</g>
						<g>
							<g>
								<g>
									<g>
										<g>
											<g>
												<g>
													<g>
														<path class="st5" d="M182.4-93.7c-0.5,0.4-2.8-2.2-6.7-3c-3.8-0.8-7.1,0.6-7.4,0c-0.2-0.3,0.5-1,1.9-1.6
															c1.4-0.6,3.6-1.1,6-0.6c2.4,0.5,4.2,1.8,5.2,2.9C182.4-94.8,182.6-93.8,182.4-93.7z"/>
													</g>
												</g>
											</g>
										</g>
									</g>
								</g>
							</g>
						</g>
						<g>
							<g>
								<g>
									<g>
										<g>
											<g>
												<g>
													<path class="st5" d="M155.1-80.2c0-0.2,2.5-0.1,6.5,0.2c1,0.1,2,0.1,2.3-0.5c0.4-0.7,0.2-1.8-0.1-3
														c-0.4-2.6-0.9-5.3-1.4-8.1c-1.8-11.5-3-20.9-2.5-20.9c0.5-0.1,2.3,9.2,4.2,20.7c0.4,2.8,0.8,5.5,1.2,8.1
														c0.1,1.2,0.5,2.6-0.3,4c-0.4,0.7-1.2,1.1-1.9,1.1c-0.7,0.1-1.2,0-1.7-0.1C157.5-79.5,155-80,155.1-80.2z"/>
												</g>
											</g>
										</g>
									</g>
								</g>
							</g>
						</g>
						<g>
							<g>
								<g>
									<g>
										<g>
											<g>
												<g>
													<g>
														<path class="st5" d="M130.9-104c0.4,0.5,3.4-1,7.3-0.4c3.9,0.6,6.4,3.1,6.9,2.7c0.2-0.2-0.1-1.1-1.2-2.2
															c-1.1-1.1-3-2.3-5.4-2.7c-2.4-0.4-4.6,0.2-5.9,0.9C131.2-105.1,130.7-104.3,130.9-104z"/>
													</g>
												</g>
											</g>
										</g>
									</g>
								</g>
							</g>
						</g>
						<g>
							<g>
								<g>
									<g>
										<g>
											<g>
												<path class="st3" d="M103-98.2c0.4-2.1-1-7.5-3-8.2c-5.3-2-15.3-3.6-18.2,10.3c-4,19,15.9,19.1,16,18.6
													C97.9-77.9,101.5-91,103-98.2z"/>
											</g>
										</g>
									</g>
								</g>
							</g>
						</g>
					</g>
					<g>
						<g>
							<g>
								<g>
									<path class="st1" d="M196.6-114.2c-3.4-3.2-5.1-7-4-11.4c-2.7,0.2-4.6-3.6-5.7-6.1c-1-2.5-2.6-4-2-6.6
										c0.1-0.5,0.3-1.1,0.1-1.6c-0.2-0.8-1.1-1.2-1.8-1.6c-3.8-2.1-6.4-6.2-6.6-10.6c-4.4,0.9-9.1,0.8-13.5-0.5
										c-2.6,2.5-6.4,3.5-9.8,2.6c-3.4-0.9-6.3-3.6-7.4-6.9c-1.6,2.1-4.4,3.2-7.1,3.3c-2.7,0.1-5.4-0.5-8-1.2
										c0.1,5.3-4.4,10.4-9.7,10.9c-0.7,0.1-1.5,0.1-2,0.7c-0.5,0.6-0.3,1.4-0.1,2.2c0.8,4.7-3.2,9.6-8,9.8
										c2.6,3.1,1.2,8.6-2.6,9.9c-0.8,0.3-1.8,0.6-1.8,1.4c0,0.3,0.1,0.6,0.3,0.9c1,2.2,2,4.5,1.7,6.9c-0.3,2.4-2.4,4.7-4.8,4.3
										c1,1.4,1.9,3,1.6,4.7s-2.3,3-3.7,2.1c-0.6-0.4-9.7-4.2-10-4.8c-3.9-8.4,4.5-15.1,6.9-24.1c2.4-9,7.3-17.1,13.5-24
										c2.6-2.9,5.4-5.7,8.6-7.8c3.7-2.4,7.9-4,12-5.6c5.4-2,11-4,16.8-4.2c10.8-0.3,20.7,5.6,29.3,12c3.3,2.4,6.6,5,9.1,8.2
										c3,3.9,4.9,8.5,6.4,13.2c2.2,6.7,3.6,13.8,2.9,20.9"/>
								</g>
							</g>
						</g>
					</g>
					<g>
						<g>
							<g>
								<g>
									<g>
										<path class="st6" d="M79-132.3c0.2,0.8,0.6,1.4,0.9,2.1c0.3,0.7,0.7,1.3,1,2c0.3,0.7,0.4,1.3,0.3,2
											c-0.1,0.7-0.3,1.3-0.5,2c-0.7,2.6-1.2,5-1.3,7.3c-0.1,2.2,0.2,4.2,0.8,5.9c0.6,1.6,1.5,2.9,2.3,3.7
											c0.9,0.8,1.7,1.3,2.1,1.7c0.4,0.4,0.6,0.7,0.6,0.7c0,0-0.1-0.3-0.5-0.8c-0.4-0.5-1.2-0.9-2-1.8c-0.8-0.8-1.7-2-2.2-3.7
											c-0.6-1.6-0.8-3.6-0.7-5.8c0.1-2.2,0.6-4.6,1.3-7.2c0.2-0.6,0.4-1.3,0.5-2c0.1-0.7,0-1.5-0.3-2.2c-0.3-0.7-0.6-1.3-1-2
											c-0.3-0.7-0.6-1.4-0.8-2.1c-1-2.9-1-6.3,0-9.6c1-3.3,3-6.5,6.2-8.6l0.2-0.1l-0.1-0.2c-1-1.9-1.1-4.3-0.5-6.4
											c0.6-2.2,1.9-4.2,3.7-5.8c1.8-1.6,4-2.8,6.3-3.6c2.3-0.9,4.8-1.5,7.3-2.1l0.1,0l0.1-0.1c2.1-4.8,6.4-8.8,11.5-10.8
											c5.1-2.1,11.3-2.4,16.6,0l0.2,0.1l0.2-0.1c0.3-0.3,0.6-0.5,0.9-0.8c2.9-2.6,6.8-3.9,10.5-4.2c1.9-0.2,3.8-0.1,5.7,0.1
											c1.9,0.3,3.7,0.6,5.5,1.2c1.8,0.6,3.5,1.2,5.1,2c1.6,0.8,3.2,1.7,4.9,2.4c0.8,0.4,1.7,0.6,2.6,0.8
											c0.9,0.2,1.8,0.2,2.7,0.2c0.9,0,1.8,0,2.6,0c0.9,0.1,1.7,0.1,2.5,0.3c1.7,0.3,3.2,0.9,4.8,1.5c1.5,0.8,2.9,1.6,4.1,2.6
											c2.6,2,4.6,4.4,6.1,7c1.6,2.6,2.6,5.4,3.1,8.1c0.3,1.4,0.5,2.8,1.1,4.1c0.6,1.3,1.6,2.3,2.5,3.2c0.9,0.9,1.8,1.8,2.5,2.8
											c0.7,1,1.3,2,1.8,3.1c0.9,2.1,1.3,4.3,1.3,6.4c0,2-0.5,3.9-0.9,5.6c-0.5,1.7-0.9,3.3-1,4.7c-0.2,1.5,0,2.8,0.4,3.8
											c0.4,1.1,0.8,1.9,1.1,2.6c0.3,0.7,0.5,1.3,0.6,1.6c0.1,0.4,0.1,0.6,0.1,0.6c0,0,0-0.8-0.6-2.3c-0.3-0.7-0.7-1.6-1-2.6
											c-0.3-1.1-0.5-2.3-0.3-3.8c0.1-1.4,0.6-3,1-4.7c0.5-1.7,1-3.6,1-5.7c0-2.1-0.4-4.3-1.3-6.5c-0.5-1.1-1.1-2.2-1.8-3.2
											c-0.7-1-1.6-1.9-2.6-2.8c-0.9-0.9-1.8-1.9-2.4-3.1c-0.6-1.2-0.8-2.6-1.1-3.9c-0.5-2.8-1.5-5.7-3.1-8.3
											c-1.6-2.6-3.6-5.2-6.2-7.2c-1.3-1.1-2.7-1.9-4.2-2.7c-1.5-0.7-3.2-1.3-4.9-1.6c-0.9-0.2-1.7-0.2-2.6-0.3
											c-0.9,0-1.8,0-2.6-0.1c-1.7,0-3.5-0.3-5.1-1c-1.6-0.7-3.2-1.6-4.9-2.4c-1.6-0.8-3.4-1.5-5.2-2c-1.8-0.6-3.7-0.9-5.6-1.2
											c-1.9-0.2-3.8-0.3-5.8-0.1c-3.9,0.4-7.8,1.7-10.9,4.4c-0.3,0.3-0.6,0.5-0.9,0.8l0.3-0.1c-5.5-2.5-11.8-2.2-17.1,0
											c-5.3,2.1-9.7,6.2-11.8,11.2l0.2-0.2c-2.5,0.6-5,1.3-7.4,2.2c-2.4,0.9-4.6,2.1-6.4,3.8c-1.8,1.7-3.2,3.8-3.8,6.1
											c-0.7,2.3-0.6,4.8,0.5,6.8l0.1-0.3c-3.3,2.2-5.4,5.5-6.4,8.9"/>
									</g>
								</g>
							</g>
						</g>
					</g>
					<g>
						<g>
							<g>
								<g>
									<g>
										<path class="st6" d="M140.7-182.6c0,0,0.6-0.2,1.6-0.5c1-0.3,2.5-0.5,4.4-0.4c1.9,0.1,4.1,0.8,6.1,2.2
											c2,1.4,3.8,3.6,4.6,6.3c0.3,0.8,0.4,1.6,0.5,2.3c0.1,0.8-0.1,1.5-0.5,2l-0.6,0.6l0.8-0.1c2.2-0.2,4.3,0.7,5.7,1.9
											c1.4,1.2,2.2,2.8,2.5,4.2c0.3,1.4,0.2,2.5,0.1,3.3c-0.1,0.8-0.3,1.2-0.2,1.2c0,0,0.1-0.1,0.1-0.3c0.1-0.2,0.2-0.5,0.3-0.9
											c0.2-0.8,0.3-2,0.1-3.4c-0.3-1.4-1-3.1-2.5-4.5c-1.5-1.3-3.7-2.3-6.1-2.1l0.2,0.5c0.7-0.6,0.8-1.6,0.7-2.4
											c-0.1-0.8-0.3-1.7-0.5-2.5c-0.9-2.8-2.8-5.1-4.9-6.6c-2.1-1.5-4.4-2-6.4-2.1c-1.9-0.1-3.5,0.2-4.5,0.6
											c-0.5,0.2-0.9,0.3-1.1,0.5C140.8-182.7,140.7-182.6,140.7-182.6z"/>
									</g>
								</g>
							</g>
						</g>
					</g>
					<g>
						<g>
							<g>
								<g>
									<g>
										<path class="st6" d="M105.4-167c0,0,0.1,0.3,0.5,0.8c0.4,0.5,1,1.2,1.9,1.9c0.9,0.7,2.1,1.5,3.6,1.9
											c1.5,0.4,3.3,0.4,5-0.5L116-163c0.1,0.3,0.3,0.6,0.4,0.9c0.2,0.3,0.3,0.6,0.5,0.9c1.1,1.7,2.6,3.1,4.2,3.9
											c1.5,0.9,3.1,1.3,4.4,1.5c1.3,0.2,2.4,0,3.1-0.1c0.7-0.2,1.1-0.3,1.1-0.3c0-0.1-1.6,0.4-4.2,0c-1.3-0.2-2.7-0.7-4.2-1.5
											c-1.5-0.8-2.9-2.1-3.9-3.8c-0.2-0.3-0.3-0.6-0.5-0.8c-0.1-0.3-0.3-0.6-0.4-0.8l-0.1-0.3l-0.3,0.1
											c-1.5,0.8-3.2,0.8-4.6,0.5c-1.4-0.3-2.6-1-3.5-1.7C106.3-165.9,105.5-167.1,105.4-167z"/>
									</g>
								</g>
							</g>
						</g>
					</g>
					<g>
						<g>
							<g>
								<g>
									<g>
										<path class="st6" d="M91.8-151.4c0,0,0,0.1,0,0.4c0,0.2,0.1,0.6,0.2,1c0.3,0.8,1.2,2,2.7,2.7c1.5,0.7,3.5,0.8,5.6,0.5
											c1-0.2,2.1-0.3,3.2-0.6c1.1-0.3,2.3-0.8,3.1-1.9c0.1-0.1,0.1-0.2,0.2-0.3l-0.5,0c1.5,1.8,3.2,3.4,5,4.5
											c1.8,1.1,3.7,1.6,5.2,1.6c1.6,0,2.8-0.4,3.6-0.8c0.4-0.2,0.7-0.4,0.8-0.6c0.2-0.2,0.3-0.2,0.2-0.3c0,0-0.4,0.3-1.2,0.6
											c-0.8,0.4-2,0.7-3.5,0.6c-1.5-0.1-3.3-0.6-5-1.7c-1.7-1.1-3.3-2.7-4.8-4.5l-0.3-0.3l-0.2,0.3c0,0.1-0.1,0.2-0.2,0.2
											c-0.6,0.9-1.7,1.4-2.8,1.6c-1.1,0.3-2.2,0.4-3.2,0.6c-2,0.3-3.9,0.3-5.3-0.4c-1.4-0.6-2.3-1.6-2.6-2.4
											C91.8-150.9,91.8-151.4,91.8-151.4z"/>
									</g>
								</g>
							</g>
						</g>
					</g>
					<g>
						<g>
							<g>
								<g>
									<g>
										<path class="st6" d="M85.2-223.5c0,0,0.3,0.1,0.9,0.3c0.5,0.3,1.3,0.8,1.8,1.8c0.6,1,0.9,2.4,0.7,3.9
											c-0.2,1.6-0.9,3.3-1.8,5l-0.1,0.3L87-212c2.1,0.4,4.4,1.5,6.2,3.3c1.7,1.9,2.8,4.6,2.3,7.4c-0.4,2.5-2,4.8-4.1,5.8
											l-0.7,0.4l0.8,0.2c2.9,0.6,5.3,2.5,6.6,4.6c1.3,2.2,1.5,4.5,1.2,6.3c-0.3,1.8-1,3.2-1.5,4.1c-0.6,0.9-0.9,1.3-0.9,1.3
											c0,0,0.1-0.1,0.3-0.3c0.2-0.2,0.5-0.5,0.8-0.9c0.6-0.8,1.4-2.2,1.7-4.1c0.3-1.9,0.2-4.3-1.2-6.6c-1.3-2.3-3.8-4.3-6.9-4.9
											l0.1,0.5c2.2-1.1,3.9-3.5,4.4-6.2c0.3-1.5,0.2-3-0.3-4.3c-0.4-1.4-1.2-2.6-2.1-3.5c-1.9-2-4.3-3.1-6.5-3.5l0.2,0.3
											c0.8-1.8,1.5-3.5,1.7-5.2c0.2-1.6-0.2-3.1-0.8-4.1c-0.6-1-1.4-1.6-2-1.8c-0.3-0.1-0.5-0.2-0.7-0.2
											C85.2-223.5,85.2-223.5,85.2-223.5z"/>
									</g>
								</g>
							</g>
						</g>
					</g>
					<g>
						<g>
							<g>
								<g>
									<g>
										<path class="st6" d="M42.8-189.1c0,0,0.1,0.1,0.3,0.2c0.2,0.1,0.5,0.4,0.9,0.6c0.8,0.5,2,1.2,3.7,1.6
											c1.7,0.5,3.8,0.8,6.1,0.5c2.4-0.2,5-1.2,7.3-2.9l-0.4-0.1c1.1,3.1,3.6,6.3,7.4,7.6c4,1.3,8.4-0.1,10.5-3.1l-0.5-0.1
											c0.2,1.4,0.8,2.7,1.6,3.7c0.8,1,1.8,1.8,2.8,2.4c2,1.2,4,1.6,5.7,1.8c1.7,0.2,3,0.2,3.9,0.2c0.9,0,1.4-0.1,1.4-0.1
											c0,0-0.5-0.1-1.4-0.1c-0.9,0-2.2-0.1-3.8-0.3c-1.6-0.2-3.6-0.7-5.5-1.8c-1.9-1.1-3.7-3.1-4.1-5.8l-0.1-0.7l-0.4,0.6
											c-1.9,2.8-6.2,4.1-9.9,2.9c-3.5-1.2-6-4.2-7-7.2l-0.1-0.4l-0.3,0.2c-2.2,1.7-4.7,2.6-7,2.9c-2.3,0.3-4.4,0.1-6-0.4
											C44.4-187.8,42.9-189.2,42.8-189.1z"/>
									</g>
								</g>
							</g>
						</g>
					</g>
					<g>
						<g>
							<g>
								<g>
									<g>
										<path class="st6" d="M57.1-157.2c0,0,0,0.2,0.2,0.4c0.2,0.2,0.5,0.5,1,0.7c1,0.3,2.5,0.5,4.3,0.2c1.8-0.3,3.9-1.3,5.7-3.1
											c1.7-1.8,2.9-4.4,2.9-7.3l0-0.1l-0.5,0.2c2.3,1.8,5,2.5,7.4,2.6c2.5,0.1,4.6-0.6,6.3-1.3c1.7-0.8,2.9-1.7,3.6-2.3
											c0.8-0.7,1.1-1.1,1.1-1.1c-0.1-0.1-1.6,1.6-4.9,3.1c-1.6,0.7-3.7,1.3-6.1,1.2c-2.3-0.1-4.9-0.8-7.1-2.5l-0.5-0.4l0,0.6
											l0,0.1c0,2.7-1.2,5.2-2.7,6.9c-1.6,1.7-3.6,2.7-5.4,3c-1.7,0.4-3.3,0.3-4.2,0C57.4-156.6,57.2-157.3,57.1-157.2z"/>
									</g>
								</g>
							</g>
						</g>
					</g>
					<g>
						<g>
							<g>
								<g>
									<g>
										<path class="st6" d="M126.6-214.3c-0.1,0,0.6,2.4-0.3,6c-0.5,1.8-1.4,3.9-3.1,5.7c-1.7,1.8-4.1,3.3-6.8,3.9
											c-1.6,0.4-3.1,0.4-4.6,0.2l-0.4,0l0,0.4c0.2,2.3,0,4.4-0.6,6.3c-0.5,1.9-1.3,3.4-2.1,4.6c-0.4,0.6-0.8,1.1-1.1,1.5
											c-0.4,0.4-0.8,0.6-1.2,0.6c-0.4,0-0.6-0.2-0.7-0.4c-0.1-0.2-0.1-0.3-0.1-0.3c0,0,0,0.1,0,0.3c0.1,0.2,0.4,0.5,0.8,0.5
											c0.4,0.1,1-0.1,1.4-0.6c0.4-0.4,0.8-0.9,1.2-1.5c0.8-1.2,1.7-2.8,2.2-4.7c0.6-1.9,0.9-4.1,0.6-6.5l-0.3,0.3
											c1.5,0.2,3.2,0.1,4.8-0.2c2.9-0.7,5.4-2.2,7.1-4.1c1.7-1.9,2.6-4.1,3.1-5.9c0.4-1.9,0.4-3.5,0.3-4.5
											c-0.1-0.5-0.1-0.9-0.2-1.2C126.7-214.2,126.6-214.4,126.6-214.3z"/>
									</g>
								</g>
							</g>
						</g>
					</g>
				</g>
				<g>
					<path class="st1" d="M151.5-66.4c0.1,0.2-1.5,1.5-4.7,1.8c-0.8,0.1-1.7,0.1-2.7-0.1c-1-0.2-2.1-0.6-3-1.4
						c-0.8-0.8-1.5-1.8-2-2.9c-0.5-1.1-0.7-2.4-0.5-3.8c0.3-1.3,0.7-2.5,1.5-3.5c0.8-1,1.7-1.8,3-2.2c1.4-0.3,2.3,0,3.2,0.2
						c0.9,0.3,1.7,0.6,2.4,0.9c1.4,0.6,2.5,1.2,3.2,1.7c0.7,0.5,1,0.9,0.9,1c-0.1,0.1-0.5-0.1-1.3-0.3c-0.9-0.3-2.1-0.7-3.4-1.1
						c-0.7-0.2-1.4-0.5-2.3-0.6c-0.8-0.2-1.7-0.3-2.3-0.1c-0.6,0.2-1.4,0.8-1.9,1.5c-0.5,0.7-0.9,1.7-1.1,2.6
						c-0.3,1.8,0.7,3.8,1.8,5c1.1,1.2,2.8,1.3,4.2,1.4C149.6-66,151.4-66.7,151.5-66.4z"/>
				</g>
			</g>
		</g>
		<g style="clip-path:url(#SVGID_00000152263409925007761500000005385766525366245562_);">
			
				<linearGradient id="SVGID_00000047045082391629762120000000286311827734419614_" gradientUnits="userSpaceOnUse" x1="-61.7756" y1="73.2905" x2="218.057" y2="73.2905">
				<stop  offset="0" style="stop-color:#5F74B1"/>
				<stop  offset="0.2466" style="stop-color:#7A90D2"/>
				<stop  offset="0.4903" style="stop-color:#8FA6EB"/>
				<stop  offset="0.7125" style="stop-color:#9CB3FA"/>
				<stop  offset="0.8936" style="stop-color:#A0B7FF"/>
			</linearGradient>
			
				<circle style="opacity:0.18;fill:url(#SVGID_00000047045082391629762120000000286311827734419614_);" cx="78.1" cy="73.3" r="139.9"/>
			<g>
				<path class="st3" d="M238.2-35.7c0,0,12,16.5,19.2,53.7c7.2,37.2,16.6,80.1-2.6,93.3c-10.3,7.1-36-25.8-36-25.8l-7.4-77.3
					l-7.3-23.1L238.2-35.7z"/>
				<path class="st8" d="M232.2,31.5l42.6-14.9c0,0-38.5-81.2-57.8-91.8c-12.9-5.4-32-2.9-32-2.9c-20.3,21.9-52.4,10.9-79.5-10.7
					c-2.1-0.5-48.1,8.4-58.7,16.7C23-53.3,15.2,43.3,15.2,43.3l48.3-6.5l-1.9,75.5l-7.1,10.4c-2.5,3.7-1.3,8.7,2.6,10.9l102.6,57.9
					l50.3-50.1c5.5-5.5,4.1-14.5-2.7-18.2l0,0l22.2-95.8L232.2,31.5z"/>
				<g>
					<path class="st1" d="M113.5,129.1c0,0,0.3,0,0.9,0.1c0.7,0.1,1.6,0.2,2.7,0.3c1.2,0.1,2.6,0.3,4.3,0.5c1.7,0.2,3.5,0.4,5.6,0.5
						c4.2,0.3,9.2,0.6,14.7,0.7c5.5,0.1,11.6,0,18-0.4c6.4-0.4,12.5-1.1,17.9-1.8c5.5-0.8,10.4-1.7,14.5-2.5
						c2.1-0.4,3.9-0.8,5.5-1.2c1.6-0.3,3-0.7,4.2-1c1.1-0.3,2-0.5,2.6-0.6c0.6-0.1,0.9-0.2,0.9-0.2c0,0-0.3,0.1-0.9,0.3
						c-0.7,0.2-1.5,0.4-2.6,0.8c-1.1,0.3-2.5,0.7-4.1,1.1c-1.6,0.4-3.5,0.9-5.5,1.3c-4.1,0.9-9,1.8-14.5,2.7
						c-5.5,0.8-11.6,1.5-18,1.9c-6.4,0.4-12.5,0.5-18.1,0.3c-5.6-0.1-10.6-0.4-14.8-0.9c-2.1-0.2-4-0.4-5.6-0.6
						c-1.7-0.2-3.1-0.4-4.2-0.6c-1.1-0.2-2-0.3-2.7-0.4C113.8,129.2,113.5,129.2,113.5,129.1z"/>
				</g>
			</g>
			<g>
				<path class="st9" d="M86.4,43.3l-1.5-13.4l-56.2,7.4c1.9,15.5,6,36.8,8.5,45.8c6.3,22.7,21.6,53.3,42.7,46.3
					C101,122.5,86.4,43.3,86.4,43.3z"/>
			</g>
			<g>
				<g>
					<g>
						<path class="st1" d="M248.2,316.3c-4.7-23.8-9.9-59.9-9.9-59.9s-6-38-7.6-53.7c-1.9-18.2-18.3-70.9-18.3-70.9
							c-40.3,36.1-157-0.6-157-0.6C14.3,192.3,7.7,269.6,11.3,316.3h114.2l2.5-28.2l7.2,28.2H248.2z"/>
					</g>
				</g>
			</g>
			<g>
				<path class="st6" d="M114.9,156.6c0,0-0.1,0.3-0.4,0.8c-0.3,0.5-0.6,1.3-1.2,2.3c-1.1,1.9-2.9,4.6-5.6,7.6
					c-5.3,6-14.5,12.8-26,16.9c-11.5,4.2-22.6,5.4-30.6,6.1c-4,0.3-7.2,0.5-9.4,0.5c-1,0-1.9,0-2.6,0c-0.6,0-0.9,0-0.9,0
					c0,0,0.3-0.1,0.9-0.1c0.7-0.1,1.5-0.1,2.6-0.2c2.2-0.2,5.4-0.4,9.4-0.8c7.9-0.8,18.9-2.1,30.3-6.2c11.4-4.1,20.5-10.7,25.8-16.6
					c2.7-2.9,4.6-5.5,5.8-7.4C114.3,157.6,114.8,156.6,114.9,156.6z"/>
			</g>
			<g>
				<path class="st6" d="M159.6,160.8c0,0,0,0.3,0,1c-0.1,0.7-0.1,1.7-0.2,2.8c-0.3,2.5-0.6,6-1,10.3c-1,8.8-2.3,20.7-3.7,33.9
					c-1.5,13.2-2.8,25.3-4.5,33.8c-0.8,4.3-1.6,7.7-2.3,10.1c-0.3,1.2-0.6,2.1-0.8,2.7s-0.3,0.9-0.3,0.9c0,0,0-0.3,0.2-1
					c0.2-0.7,0.4-1.6,0.6-2.7c0.5-2.4,1.3-5.8,2-10.1c1.5-8.6,2.8-20.6,4.3-33.8c1.5-13.2,2.9-25.1,3.9-33.9c0.5-4.3,1-7.7,1.3-10.3
					c0.2-1.1,0.3-2.1,0.4-2.8C159.5,161.2,159.5,160.8,159.6,160.8z"/>
			</g>
			<g>
				<path class="st6" d="M226.1,179.9c0,0.1-0.7,0.1-1.8,0.1c-0.6,0-1.3,0-2.2-0.1c-0.8-0.1-1.8-0.1-2.9-0.3
					c-2.1-0.3-4.6-0.9-7.3-1.7c-2.7-0.9-5.5-2.2-8.3-3.8c-2.8-1.7-5.2-3.6-7.3-5.5c-2-1.9-3.7-3.9-5-5.6c-0.7-0.8-1.2-1.7-1.6-2.4
					c-0.5-0.7-0.8-1.3-1.1-1.9c-0.5-1.1-0.8-1.6-0.8-1.7c0.1-0.1,1.3,2.3,3.9,5.6c1.3,1.7,3,3.5,5,5.4c2.1,1.8,4.5,3.7,7.2,5.4
					c2.8,1.6,5.5,2.9,8.2,3.8c2.6,0.9,5,1.5,7.1,1.9C223.5,179.8,226.2,179.7,226.1,179.9z"/>
			</g>
			<path class="st9" d="M78.2,61.7c-1.4,1.4-17.3,26.3-17.3,38.5s3.6,35.3,22.7,30.3c19.1-5,28.8-24.1,43.6-55.8
				c14.8-31.7,45.8-93.1,45.8-93.1l-29.2-17.2L78.2,61.7z"/>
			<g>
				<path class="st10" d="M72.7,114.3c0.1-0.1,0.2-0.2,0.3-0.3c0.2,0,0.3-0.1,0.5-0.2c0.2-0.2,0.4-0.4,0.5-0.6
					c0.1-0.3,0.2-0.5,0.2-0.8c0-0.4-0.1-0.9-0.3-1.3c-0.2-0.4-0.4-0.7-0.6-1.1c0,0-0.1-0.1-0.1-0.1c-0.2-0.2-0.4-0.4-0.6-0.7
					c0,0,0,0-0.1-0.1c-0.1-0.1-0.5-0.4-0.6-0.5c0,0,0,0,0,0c0,0,0,0-0.1-0.1c-0.1,0-0.1-0.1-0.2-0.1c-0.2-0.1-0.3-0.2-0.5-0.3
					c-0.3-0.2-0.7-0.3-1-0.4c-0.3-0.1-0.7-0.1-1,0c-0.2,0.1-0.4,0.2-0.6,0.3c-0.4,0.3-0.6,0.6-0.7,1c0,0.2-0.1,0.5-0.1,0.7
					c0,0,0,0.1,0,0.1c0,0,0,0.1,0,0.1c0,0.2,0,0.5,0.1,0.8c0,0.1,0.1,0.3,0.1,0.4c0,0.1,0.1,0.3,0.1,0.4c0,0,0.3,0.6,0.5,0.9
					c0.2,0.3,0.5,0.6,0.7,0.8c0.3,0.3,0.5,0.4,0.8,0.7c0.4,0.3,0.9,0.4,1.3,0.5C71.9,114.7,72.3,114.6,72.7,114.3z"/>
				<path class="st10" d="M83.2,130.2c0.4,0,0.5,0,0.8-0.3c0.2-0.1,0.3-0.3,0.4-0.4c0.2-0.3,0.3-0.8,0.3-1.2c0-0.2,0-0.5-0.1-0.7
					c0,0,0-0.1,0-0.1c-0.1-0.3-0.1-0.5-0.2-0.8c-0.2-0.5-0.5-1-0.9-1.4c-0.4-0.4-0.8-0.6-1.3-0.8c-0.4-0.2-0.8-0.2-1.3-0.1
					c-0.4,0.1-0.7,0.3-1,0.7c-0.2,0.4-0.4,0.8-0.4,1.2c0,0.5,0.1,1,0.3,1.5c0.2,0.5,0.5,1,0.9,1.4c0,0,0,0,0,0c0,0,0,0,0,0
					c0,0,0,0,0,0c0,0,0.1,0,0.1,0.1c0,0,0,0,0,0c0.2,0.2,0.4,0.3,0.6,0.5c0.2,0.1,0.4,0.2,0.6,0.3C82.8,130.3,82.8,130.3,83.2,130.2
					z"/>
				<g>
					<path class="st10" d="M65.1,126.8c0.1-0.1,0.1-0.1,0.2-0.2c0.2-0.2,0.3-0.4,0.4-0.7c0,0,0,0,0,0c0-0.1,0-0.2,0-0.3
						c0.1-0.4,0.1-0.2,0-0.6c0-0.1,0-0.2,0-0.3c-0.1-0.2-0.1-0.4-0.2-0.6c0,0-0.3-0.6-0.4-0.6c0,0,0,0,0,0c0,0,0,0,0-0.1
						c0,0-0.1-0.1-0.1-0.1c-0.1-0.1,0.1,0-0.4-0.5c0,0,0,0,0,0c0-0.1-0.1-0.1-0.1-0.2c-0.2-0.2-0.3-0.4-0.6-0.5
						c-0.2-0.1-0.4-0.2-0.6-0.3c-0.2,0-0.3-0.1-0.5-0.1c0,0,0,0,0,0c0,0-0.1,0-0.1,0c0,0,0,0,0,0c0,0,0,0,0,0l0,0
						c-0.1,0-0.3,0-0.4,0c-0.1,0-0.2,0.1-0.2,0.1c0,0,0,0-0.1,0c0,0,0,0,0,0c-0.4,0.1-0.6,0.3-0.8,0.6c-0.2,0.3-0.3,0.7-0.3,1.1
						c0,0.4,0,0.6,0.2,0.9c0.1,0.2,0.1,0.4,0.3,0.6c0.1,0.1,0.1,0.2,0.2,0.3c0.2,0.2,0.3,0.4,0.5,0.5c0.2,0.1,0.4,0.3,0.5,0.4
						c0.2,0.1,0.4,0.2,0.6,0.3c0,0,0,0,0,0c0,0,0,0,0,0c0,0,0,0-0.1,0c0,0,0.1,0,0.1,0c0.1,0,0.2,0.1,0.3,0.1
						c0.2,0.1,0.4,0.2,0.6,0.2c0.1,0,0.2,0,0.3,0.1l0.5,0L65.1,126.8z"/>
				</g>
				<g>
					<path class="st10" d="M52.8,89c0,0,0,0.1,0.1,0.1C52.8,89,52.8,89,52.8,89z"/>
					<path class="st10" d="M51.7,92.7c0.2,0,0.4-0.1,0.6-0.2c0.2-0.1,0.3-0.3,0.4-0.5c0,0,0,0,0,0c0-0.1,0.1-0.2,0.1-0.3
						c0-0.1,0.1-0.2,0.1-0.3c0,0,0,0,0,0c0,0,0,0,0-0.1c0,0,0,0,0,0c0-0.1,0.1-0.5,0.1-0.6c0,0,0-0.1,0-0.1c0-0.2,0-0.5-0.1-0.8
						c0-0.2-0.3-0.8-0.3-0.8c0-0.1-0.1-0.1-0.1-0.2c-0.1-0.2-0.3-0.5-0.5-0.6c-0.1-0.1-0.2-0.2-0.3-0.3c-0.1-0.1-0.3-0.2-0.4-0.3
						c-0.1-0.1-0.2-0.2-0.4-0.3c0,0,0,0,0,0c-0.1-0.1-0.5-0.2-0.6-0.3c0,0,0,0,0,0c-0.4-0.1-0.9-0.2-1.3-0.1
						c-0.2,0.1-0.4,0.2-0.6,0.3c0,0,0,0,0,0c0,0,0,0,0,0c-0.1,0.1-0.3,0.3-0.4,0.4c0,0,0,0,0,0c0,0,0,0,0,0c0,0,0,0,0,0.1
						c-0.1,0.1-0.1,0.2-0.1,0.3c0,0.1-0.1,0.2-0.1,0.3c-0.1,0.2-0.1,0.5-0.1,0.7c0,0.2,0,0.5,0.1,0.7c0.1,0.2,0.2,0.5,0.2,0.7
						c0.1,0.2,0.3,0.5,0.4,0.7c0.2,0.3,0.5,0.6,0.8,0.8c0.2,0.2,0.4,0.3,0.6,0.4c0,0,0,0,0.1,0c0,0,0.1,0,0.1,0.1c0,0,0,0,0.1,0
						c0,0,0,0,0,0c0,0,0,0,0,0c0.2,0.1,0.4,0.2,0.6,0.3c0.1,0,0.2,0,0.3,0.1C51.2,92.8,51.4,92.8,51.7,92.7z"/>
				</g>
				<g>
					<g>
						<path class="st10" d="M87.9,120.3c1-0.3,1.9-0.9,2.8-1.4c0.2-0.1,0.4-0.3,0.6-0.4c0.1-0.1,0.2-0.1,0.3-0.2
							c0.2-0.1,0.3-0.1,0.5-0.2c0,0,0.1,0,0.1,0c0.1,0,0.2,0,0.3,0c0,0,0.3,0.1,0.4,0.1c0.3,0.1,0.5,0.2,0.8,0.2
							c0.7,0.2,1.5,0.4,2.2,0.4c5.6,0,6.9-7.5,4.9-11.4c-1.3-2.6-3.3-4.8-6-5.9c-0.7-0.3-1.3-0.4-2-0.4c-0.5-0.8-1.1-1.5-2-2
							c-1.6-1-3.3-1-4.8-0.4c-1,0.2-1.8,0.8-2.3,1.6c0,0,0,0,0,0c-0.3,0.4-0.6,0.8-0.9,1.2c-0.4,0.1-0.8,0.3-1.1,0.6
							c-1.6,1.1-2.6,2.9-3.2,4.7c-1.5,4.8,0.4,10.8,5.2,13C85,120.4,86.5,120.6,87.9,120.3z"/>
					</g>
					<g class="st11">
						<path class="st10" d="M89.7,112.3c2.7-0.1,6.4-1.4,5.9-4.7c-0.2-1.2-0.8-2.4-1.7-3.3c-0.1-0.1-0.1-0.3-0.2-0.4
							c-0.6-0.9-1.4-1.7-2.5-1.9c-1-0.2-2,0.3-2.9,0.6c-0.9,0.3-1.7,0.2-2.6,0.2c-0.9,0-1.7,0-2.5,0.5c-0.9,0.5-1.4,1.4-1.8,2.3
							c-0.5,1.3-0.5,2.8,0.4,4C83.6,111.9,87,112.5,89.7,112.3z"/>
					</g>
					<g class="st11">
						<path class="st10" d="M94.9,113.9c0,0,0-0.1-0.1-0.1c0,0,0-0.1-0.1-0.1C94.8,113.7,94.9,113.8,94.9,113.9z"/>
						<path class="st12" d="M97.1,115.2c0.2-0.1,0.4-0.2,0.6-0.4c0.1-0.2,0.2-0.4,0.3-0.5c0.1-0.2,0.1-0.4,0.1-0.6
							c0-0.6-0.3-1.1-0.7-1.5c0-0.1-0.1-0.1-0.1-0.2c-0.3-0.3-0.6-0.6-1.1-0.6c-0.7-0.1-1.4,0.3-1.6,0.9c-0.1,0.3-0.1,0.5,0,0.8
							c0.1,0.3,0.2,0.6,0.3,0.8c0.2,0.3,0.4,0.7,0.7,0.9c0.2,0.2,0.5,0.4,0.8,0.5C96.6,115.2,96.9,115.3,97.1,115.2z"/>
					</g>
				</g>
				<g>
					<g>
						<path class="st10" d="M104.5,98.2C104.5,98.2,104.4,98.2,104.5,98.2C104.4,98.2,104.5,98.2,104.5,98.2z"/>
						<path class="st10" d="M108.9,101.3c1.7-2,0.9-5.5-1-7.1c-0.5-0.5-1.2-0.8-1.9-1c-1.5-0.6-3.3-0.7-4.8-0.2
							c-0.9,0.3-1.7,0.8-2.3,1.6c-0.7,1-0.7,2.2-0.5,3.3c0.5,2.6,2.5,4.7,5.1,5.2C105.5,103.4,107.6,102.8,108.9,101.3z"/>
					</g>
					<path class="st13" d="M106.8,100.3c0.7-0.5,1.1-1.3,1.3-2.2c0.2-1.1,0.4-2.5-0.7-3.1c-0.6-0.3-1.3-0.4-2.1-0.3
						c-0.1-0.1-0.3-0.2-0.4-0.3c-0.4-0.2-0.8-0.3-1.2,0c-0.3,0.2-0.6,0.5-1,0.3c-0.2-0.1-0.4-0.3-0.5-0.4c-0.2-0.1-0.5-0.2-0.7-0.2
						c-0.6,0-1,0.5-1.3,0.9c-0.6,1-0.2,1.9,0.7,2.5c0.2,0.1,0.4,0.2,0.6,0.3c0,0,0,0,0,0c0,0.1,0,0.2-0.1,0.4c-0.1,0.5,0,1,0.3,1.4
						c0.6,0.8,1.6,1,2.5,1.1C105.1,100.9,106.1,100.8,106.8,100.3z"/>
					<path class="st13" d="M103.7,102.3C103.7,102.3,103.7,102.3,103.7,102.3c0,0,0.1,0,0.1,0c0,0,0,0,0,0c0,0,0.1-0.1,0.1-0.1
						c0,0,0-0.1,0.1-0.1c0,0,0,0,0,0c0,0,0-0.1,0-0.1c0,0,0,0,0,0c0,0,0,0,0,0c0,0,0,0,0-0.1c0,0,0,0,0-0.1c0,0,0-0.1,0-0.1
						c0-0.1-0.1-0.1-0.1-0.2c0,0-0.1-0.1-0.1-0.1c0,0-0.1-0.1-0.1-0.1c0,0,0,0,0,0c0,0-0.1,0-0.1,0c-0.1,0-0.2,0-0.3,0
						c0,0-0.1,0-0.1,0c0,0-0.1,0-0.1,0c0,0,0,0,0,0c0,0,0,0,0,0c0,0-0.1,0-0.1,0.1c0,0,0,0.1,0,0.1c0,0,0,0,0,0c0,0.1,0,0.3,0,0.4
						c0,0.1,0.1,0.2,0.2,0.3c0,0,0,0,0,0c0,0,0.1,0.1,0.1,0.1c0,0,0.1,0.1,0.1,0.1c0,0,0,0,0.1,0c0,0,0.1,0,0.1,0c0,0,0,0,0,0
						C103.6,102.3,103.7,102.3,103.7,102.3z"/>
				</g>
				<g>
					<g>
						<polygon class="st10" points="53.7,103.4 53.7,103.4 53.7,103.4 						"/>
						<path class="st10" d="M53.7,103.6C53.7,103.6,53.7,103.6,53.7,103.6C53.7,103.6,53.7,103.6,53.7,103.6
							C53.7,103.6,53.7,103.6,53.7,103.6z"/>
						<path class="st10" d="M65.3,105.9c1.3-2.1,1.8-5.2,0.4-7.4c-0.3-0.5-0.8-0.9-1.3-1.3c-1.1-0.8-2.5-1.5-3.9-1
							c-1.3,0.5-1.4,2.6-3,2.2c-0.6-0.1-1.1-0.5-1.6-0.8c-2.3-1.1-5.3,0.1-6.2,2.5c-1,2.6,0.3,5.6,2.2,7.5
							C55.6,111.2,62.5,110.3,65.3,105.9z"/>
					</g>
					<g class="st11">
						<path class="st14" d="M62.4,105.1c0.4-1.1,0.3-2.6-0.2-3.6c-1.2-2.3-6.4-0.8-7.9,0.2c-2.7,1.7-1,4.7,1.3,5.7
							C58.1,108.6,61.4,107.8,62.4,105.1z"/>
						<path class="st15" d="M54.8,101.7C54.8,101.7,54.8,101.7,54.8,101.7C54.8,101.7,54.8,101.7,54.8,101.7
							C54.8,101.7,54.8,101.7,54.8,101.7z"/>
					</g>
				</g>
			</g>
		</g>
		<g style="clip-path:url(#SVGID_00000152263409925007761500000005385766525366245562_);">
			<path class="st3" d="M162.7-67.3c1.6-0.2,3.2,0.6,4.1,2c4,6.2,18.5,29.1,19.4,34c1.1,5.7-3.2,7.3-3.2,7.3s1.5,8.1-4.7,11.7
				c0,0,1.3,5.9-4.7,9.2l-1.2,16.3l-26,11.5l-1.7-5.7l6.3-15.1l5.1-19.7l-1.5-28.7c0,0-0.3-6.6,4.3-5.1c0,0-3.6-5-1.3-8.6
				c1.4-2.2,4-1.4,4-1.4s-2.4-3.6-0.9-6.2C161.1-66.8,161.9-67.2,162.7-67.3z"/>
			<g>
				<path class="st3" d="M134.8-65.7c0,0-18.8,31.1-20.3,37.4c-1.4,6.3,2.3,36.2,2.3,36.2l26,14c0,0,9.1-13.4,10.3-24.8
					c1.1-11.4,1.4-16.8,1.4-16.8s4.9-22.5,2.6-25.1c-2.3-2.6-3.7-2-3.7-2s5.8-11.1,4.3-14.3c-1.5-3.1-4.5-3.3-4.5-3.3
					s0.7-4.1-2.3-5.5c-3.5-1.5-6.3,3.1-6.3,3.1S139.4-73.5,134.8-65.7z"/>
				<g>
					<path class="st4" d="M144.6-25.4c0,0,0-0.1,0.1-0.4c0.1-0.3,0.2-0.7,0.4-1.2c0.3-1,0.8-2.5,1.5-4.4c1.4-3.8,3.4-9.2,6.3-15.5
						l0.1-0.1l0.1,0c1-0.1,2,0,2.9,0.6c0.9,0.5,1.5,1.5,1.8,2.5c0.4,2.1,0.1,4.2-0.1,6.3c-0.4,4.3-1.2,8.8-2,13.4
						c-0.2,1-0.4,2-0.5,2.9l0,0c-0.7,6.3-1.3,12.3-1.9,17.8c-0.1,0.7-0.1,1.4-0.2,2c-0.1,0.7-0.2,1.3-0.3,2
						c-0.2,0.6-0.3,1.3-0.5,1.9c-0.2,0.6-0.4,1.2-0.6,1.8c-0.8,2.3-1.7,4.4-2.5,6.3c-1.7,3.7-3.3,6.6-4.5,8.6c-0.6,1-1,1.7-1.4,2.3
						c-0.3,0.5-0.5,0.8-0.5,0.8c0,0,0.1-0.3,0.4-0.8c0.3-0.6,0.7-1.3,1.3-2.3c1.1-2,2.6-4.9,4.3-8.7c0.8-1.9,1.7-4,2.4-6.3
						c0.8-2.3,1.3-4.8,1.5-7.5c0.6-5.5,1.2-11.5,1.8-17.8l0,0l0,0c0.2-0.9,0.3-1.9,0.5-2.9c0.8-4.6,1.5-9.1,2-13.3
						c0.2-2.1,0.5-4.2,0.1-6.1c-0.3-0.9-0.7-1.7-1.5-2.2c-0.7-0.5-1.7-0.6-2.5-0.5l0.2-0.2c-2.9,6.3-5.1,11.6-6.5,15.4
						c-0.7,1.8-1.3,3.3-1.7,4.4c-0.2,0.5-0.3,0.8-0.4,1.1C144.7-25.5,144.6-25.4,144.6-25.4z"/>
				</g>
			</g>
		</g>
		
			<linearGradient id="SVGID_00000008847502455303054120000000434931195335067298_" gradientUnits="userSpaceOnUse" x1="14.4339" y1="-16.4946" x2="90.4378" y2="-16.4946">
			<stop  offset="0" style="stop-color:#DEEAFE"/>
			<stop  offset="1" style="stop-color:#A1C3FC"/>
		</linearGradient>
		
			<path style="clip-path:url(#SVGID_00000152263409925007761500000005385766525366245562_);fill:url(#SVGID_00000008847502455303054120000000434931195335067298_);" d="
			M46.1-71.4C22.3-52.7,14.4,43.9,14.4,43.9l48.3-6.5l25.4-4.3c0,0,6.1-64.7-1.2-89.1c0,0-3.7-19.5-18.3-20.8S46.1-71.4,46.1-71.4z"
			/>
	</g>
	<line class="st17" x1="87.2" y1="48.2" x2="68.2" y2="78.3"/>
</g>
</svg>
