<?xml version="1.0" encoding="utf-8"?>
<!-- Generator: Adobe Illustrator 25.4.8, SVG Export Plug-In . SVG Version: 6.00 Build 0)  -->
<svg version="1.1" id="Layer_1" xmlns="http://www.w3.org/2000/svg" xmlns:xlink="http://www.w3.org/1999/xlink" x="0px" y="0px"
	 viewBox="0 0 166.6 166.2" style="enable-background:new 0 0 166.6 166.2;" xml:space="preserve">
<style type="text/css">
	.st0{clip-path:url(#SVGID_00000078732233725227753610000014537218576722522276_);}
	.st1{fill:#BF632E;}
	.st2{fill:#FDE3D6;}
	.st3{fill:#FBBD9D;}
	.st4{fill:#FFBE51;}
	.st5{fill:#393431;}
	.st6{fill:#DD9F45;}
	.st7{fill:url(#SVGID_00000135650564644283889430000009371357945600808835_);}
	.st8{fill:url(#SVGID_00000096045577143634862500000010132808446286709634_);}
	.st9{fill:url(#SVGID_00000077293106244713550270000004539045336263561370_);}
	.st10{fill:url(#SVGID_00000011743265515428157690000001603212622936122763_);}
	.st11{fill:url(#SVGID_00000040551938523987776710000008701685466105869954_);}
	.st12{fill:url(#SVGID_00000018220276057801365490000016853194775079107240_);}
	.st13{opacity:0.63;}
	.st14{opacity:0.43;}
	.st15{fill:#F99799;}
	.st16{opacity:0.83;}
</style>
<g>
	<defs>
		<circle id="SVGID_1_" cx="83.3" cy="83.1" r="83.1"/>
	</defs>
	<clipPath id="SVGID_00000137833483174999270360000001859288926434097324_">
		<use xlink:href="#SVGID_1_"  style="overflow:visible;"/>
	</clipPath>
	<g style="clip-path:url(#SVGID_00000137833483174999270360000001859288926434097324_);">
		<g>
			<path class="st1" d="M159.8,0.6c9.7,11.6,21,31.3,22.9,53.9c2.3,26.6-6.7,45.4,21.1,71.2c27.8,25.7,35,70.8,7.4,95.7
				c-27.6,24.8-85.6,26.2-85.6,26.2l-84.5-26.2L34.9-44.6L159.8,0.6z"/>
			<path class="st2" d="M61.4-66.3c43.1,1.1,80.5,32,87.4,74.6c0.2,1.3,0.4,2.7,0.6,4.1c3.7,25.8,5.3,30.7,9.6,39.3
				c7.4,14.8,4.6,33,0.6,50.2c-8.7,37.3-23.2,55.2-27.7,56.3c-38.1,9.4-92-14-92-14s-11.8-17.4-19.7-52.5
				c-7.9-35-10.6-54.6-10.6-54.6S14.7-66.4,39-66.6C45.9-66.6,53.7-66.5,61.4-66.3z"/>
			<path class="st2" d="M170.5,225c0,0-44.3-0.1-52.9-23.1c-8.6-22.9-0.6-49.4-0.6-49.4l-81-44.1c0,0,7,73.3-17.2,94.9
				c-14.7,13.1-37.8,27-37.8,27l68.1,98.1l149.2-37.1L170.5,225z"/>
			<path class="st3" d="M130.3,88.9c0.5,0,1-0.2,1.3-0.7c0.7-1.2,1.8-1.9,2.9-2.7c1.1-0.8,2.2-1.6,2.9-2.8c3.5-6,2.3-11.9-3.2-15.9
				c-4.8-3.5-11.4-18.2-8.2-30c0.2-0.8-0.2-1.6-1-1.8c-0.8-0.2-1.6,0.2-1.8,1c-3.5,12.6,3.3,28.8,9.3,33.2c4.2,3,5.1,7.4,2.4,12
				c-0.4,0.7-1.2,1.3-2.1,1.9c-1.2,0.9-2.6,1.9-3.6,3.6c-0.4,0.7-0.2,1.6,0.5,2.1C129.7,88.9,130,88.9,130.3,88.9z"/>
			<path class="st3" d="M117.7,87.7c0.4,0,0.8-0.2,1.1-0.5c0.6-0.6,0.6-1.5,0-2.1c-1.8-1.7-6.4-4.1-11.4-1.2c-0.7,0.4-1,1.3-0.5,2
				c0.4,0.7,1.3,1,2,0.5c4.3-2.5,7.7,0.6,7.8,0.8C117,87.6,117.3,87.7,117.7,87.7z"/>
			<path class="st3" d="M114.7,160.1c0,0-0.6,31.5,1.2,33.6c0,0-20.7-23.9-42.7-39.2l-5.3-5C87.6,158.8,100.3,158.7,114.7,160.1z"/>
			<path class="st4" d="M158.5,201.8c0,0,3.6,85-48,99.5C58.9,315.8,9.6,210.8,9.6,210.8s-115.2,46.8-115.6,85.5
				c-0.5,38.7,8.9,82.8,11.8,82.2c2.9-0.7,132.1-21.8,132.1-21.8l203.6,8.7c0,0,5.6-36.3,17.8-27.5c33.7,24.3,100.4,70.2,126.5,72.4
				c0,0,2-169,0-175.6c-2-6.6-29.6,1.8-44.2-5.3c-14.5-7.1-86.3-26-102.5-32.4C223.1,190.5,158.5,201.8,158.5,201.8z"/>
			<g>
				<path class="st3" d="M140.8,104.6c0,0-7.8-4.7-11.1-4.3c-3.2,0.4-3.4,3.3-7.8,3.2c-4.3-0.1-7.1-3.3-10.8-1.6
					c-3.7,1.7-11.5,7.3-11.5,7.3S117.7,117.6,140.8,104.6z"/>
				<path class="st3" d="M141.9,104.3c0,0-1.2,6-3.6,9.3c-1.6,2.2-7.7,9.2-13.1,9.2c-14.9-0.1-12.8,2-19.4-1
					c-3.3-1.5-13-12.8-13-12.8S143,103.7,141.9,104.3z"/>
			</g>
			<path class="st1" d="M55.3-16.9c0,0,1.2,69.7-35.5,71.5l-7.5-1.4c0,0,28.8-8.6,28.8-45.6s4.9-58,4.9-58L69.5-48L55.3-16.9z"/>
			<path class="st5" d="M62.5-44.6c0,0,57.6,46.7,102.9,57L161.3,1c0,0-2.4-67.1-71.7-78.1c-69.3-11-53.1,18.8-53.1,18.8L54.1-48
				L62.5-44.6z"/>
			<path class="st1" d="M41.7-14c0,0-31.5,46-27.6,76.7c3.9,30.8,31.5,50.8,26.8,116c-3,42.1,76.5,119.3,67.2,152.8
				c-9.3,33.5-58.3,82.2-38.6,111.3c0,0-31-28.7-26.4-51.9c0,0,6.5,63.8-20.8,87.5c0,0,8.3-45.5,3.7-65.3c0,0-26.7,59-13.7,85.5
				c0,0-33.5-37.4-25.1-90.8c8.4-53.4,19.9-91.6,0-118.7c-19.9-27-24.6-37.6-27.5-54.7s7.6-35.6,9.6-55.4c2-19.8-15.5-74-14-93.1
				c1.6-19.1,6.9-20.2,8.4-76.6c1.4-53.7,57.3-89.6,89.6-78.7S85.7-56,85.7-56L54.1-43.5L41.7-14z"/>
			<path class="st2" d="M34,81.7c0,0-3.5-28.2-32-22.7c-28.5,5.5-8.8,51.6,18.6,57C48,121.4,34,81.7,34,81.7z"/>
			<path class="st3" d="M16.2,96.1c5.1,3.1,9.7-2.3,6.2-7.3C17.6,81.6,11.2,75.3,5,79.1C-1.8,83.3,7.1,90.5,16.2,96.1z"/>
			<path class="st5" d="M-25.4,255.1c0,0-29.5,26.4-19.4,65.3c10.1,38.9,10.1,68.6-5.4,85c0,0,38.9-25.1,37.4-59.3
				c-1.5-34.3,34.4-57.2,34.4-57.2L-25.4,255.1z"/>
			<path class="st1" d="M128.1,14.7c0,0-49.9-13.5-61.6-59.3h15.1C81.7-44.6,84.9-17.8,128.1,14.7z"/>
			<path class="st6" d="M249.8,310.4c1.3,0,2.4-0.9,2.6-2.2c4.9-34.8-3.9-62.2-12.1-79c-8.9-18.3-18.9-28.2-19.3-28.6
				c-1-1-2.7-1-3.7,0c-1,1-1,2.7,0,3.6l0,0c0.1,0.1,9.9,9.8,18.4,27.4c7.8,16.1,16.2,42.4,11.5,75.8c-0.2,1.4,0.8,2.7,2.2,2.9
				C249.5,310.4,249.6,310.4,249.8,310.4z"/>
		</g>
		<g>
			<g>
				
					<linearGradient id="SVGID_00000012465330485540642640000006538546460258154661_" gradientUnits="userSpaceOnUse" x1="111.187" y1="-82.737" x2="173.79" y2="-82.737">
					<stop  offset="0" style="stop-color:#E2345A"/>
					<stop  offset="1" style="stop-color:#E55E85"/>
				</linearGradient>
				<path style="fill:url(#SVGID_00000012465330485540642640000006538546460258154661_);" d="M113.1-55.2c-0.5,0-1.1-0.2-1.4-0.7
					c-0.7-0.8-0.6-2,0.2-2.7l58.8-51.2c0.8-0.7,2-0.6,2.7,0.2c0.7,0.8,0.6,2-0.2,2.7l-58.8,51.2C114-55.4,113.5-55.2,113.1-55.2z"/>
			</g>
			<g>
				
					<linearGradient id="SVGID_00000046326085410928392620000012686802048168521127_" gradientUnits="userSpaceOnUse" x1="-3.5732" y1="-124.506" x2="64.0394" y2="-124.506" gradientTransform="matrix(0.7001 -0.714 0.714 0.7001 196.18 21.9172)">
					<stop  offset="0" style="stop-color:#E2345A"/>
					<stop  offset="1" style="stop-color:#E55E85"/>
				</linearGradient>
				<path style="fill:url(#SVGID_00000046326085410928392620000012686802048168521127_);" d="M126-42.7c0,0-0.1,0-0.1,0
					c-1.1-0.1-2-1-1.9-2.2l5-84.1c0.1-1.1,1-2,2.2-1.9c1.1,0.1,2,1,1.9,2.2l-5,84.1C127.9-43.6,127-42.7,126-42.7z"/>
			</g>
			
				<linearGradient id="SVGID_00000014625244486980292830000003209007636484513692_" gradientUnits="userSpaceOnUse" x1="127.4257" y1="-130.8831" x2="135.6209" y2="-130.8831">
				<stop  offset="0" style="stop-color:#E2345A"/>
				<stop  offset="1" style="stop-color:#E55E85"/>
			</linearGradient>
			<circle style="fill:url(#SVGID_00000014625244486980292830000003209007636484513692_);" cx="131.5" cy="-130.9" r="4.1"/>
			
				<linearGradient id="SVGID_00000024718873184890693020000002304349895652956594_" gradientUnits="userSpaceOnUse" x1="168.4012" y1="-108.3468" x2="176.5962" y2="-108.3468">
				<stop  offset="0" style="stop-color:#E2345A"/>
				<stop  offset="1" style="stop-color:#E55E85"/>
			</linearGradient>
			<path style="fill:url(#SVGID_00000024718873184890693020000002304349895652956594_);" d="M176.6-108.3c0,2.3-1.8,4.1-4.1,4.1
				c-2.3,0-4.1-1.8-4.1-4.1c0-2.3,1.8-4.1,4.1-4.1C174.8-112.4,176.6-110.6,176.6-108.3z"/>
		</g>
		
			<linearGradient id="SVGID_00000031186429872922506960000007635112351705956229_" gradientUnits="userSpaceOnUse" x1="217.9339" y1="-216.6704" x2="207.517" y2="-201.2378">
			<stop  offset="0" style="stop-color:#8E4997"/>
			<stop  offset="1" style="stop-color:#712E6F"/>
		</linearGradient>
		<path style="fill:url(#SVGID_00000031186429872922506960000007635112351705956229_);" d="M164.8-74.6c-13.1,0.1-27.9-0.2-42.2,0.4
			c-24.5,1-34.6-3.1-38.2-8.1c5.9-6.3,17.2-10.9,38.1-9.9C147.3-91.1,161.4-84.3,164.8-74.6z"/>
		
			<linearGradient id="SVGID_00000124124131354229895090000004524179326707557263_" gradientUnits="userSpaceOnUse" x1="267.5713" y1="478.4545" x2="267.5713" y2="535.6202">
			<stop  offset="0" style="stop-color:#DB2152"/>
			<stop  offset="1" style="stop-color:#DE5173"/>
		</linearGradient>
		<path style="fill:url(#SVGID_00000124124131354229895090000004524179326707557263_);" d="M436,343H216.6c0,0-26.9-2.8-55.7-12.6
			c-15.2-5.1-46.8-19-64.4-49.1l121.3-87.2c0,0,4.5,80.6,15.7,111.9c1.2,3.3,4.2,5.2,4.2,5.2c4.3,4.3,14,11.5,45.1,10.5
			c20.9-0.7,31.3-1,43.2-6.2c36.1-15.9,50-60.6,53.2-58.9c1,0.5-0.6,4.8-2.3,11.4c-4.3,16-10.8,40.3-1.9,48.2
			c6.1,5.4,18.2,1.9,24.3-1.1c4.8-2.4,12.9-7.8,22.4-31.3c4.6-11.5,10.4-29.2,12.7-52.3c1.9,13,3.4,27.1,4.1,42.2
			C439.5,299.5,438.3,322.9,436,343z"/>
		<g class="st13">
			<g class="st14">
				<g>
					<path class="st15" d="M52,60.5c-4.4,7-11,12.2-12.2,20.8c-1.1,8.1,2.9,15.4,11.1,17.6c4.2,1.1,8.6,0.9,12.9,1.7
						c4.4,0.8,8.7,1.9,13.2,1.9c8.1,0.1,16.2-3.3,19.5-11c3.3-7.6,0-14.8-6.7-19.1c-2.8-1.8-6.1-2.8-8.1-5.7c-2.1-3-3.1-6.4-5.7-9
						c-5.7-5.6-14.5-4.7-20.5,0c-6.8,5.4-8,14.1-8.9,22.2c-0.4,3.4,3,5.7,6,6c4.7,0.4,9.8-0.4,12.6-4.6c2.5-3.7,2.2-9.1-1.4-12.1
						c-9.7-8-19.7,8.1-17.2,16.8c2.9,10.4,19.7,9.8,18.7-1.9c-0.4-4.7-4.8-7.9-9.4-8c-5.3,0-8.8,3.9-11.3,8.2
						c-1.4,2.5-0.9,6.9,2.1,8.1c5.7,2.5,11.5,2,16.5-2c4.7-3.7,7.8-10.2,5.2-16.1c-5.7-12.7-24.1-2.3-17.3,9.2
						c2.9,4.9,9.4,6.5,14.5,4.2c5-2.4,7.7-7.9,7.3-13.3c-0.4-5.7-4.5-11.2-10.5-11.8c-6-0.6-11,4.1-11.1,10.1
						c-0.1,2.8,1.9,4.8,4.4,5.7c6.3,2.5,14.2-0.6,15.9-7.5c1.5-6.4-3.1-13.4-10-13.1c-7.1,0.3-11.8,7.5-8.8,14
						c3.2,6.7,12.3,7.8,18.5,5.2c6.5-2.7,8.8-12,2-15.9c-6-3.5-13.4,0.7-15.4,6.9c-2.1,6.6,2.1,13.8,9.1,14.7
						c8,1,12.6-6.2,11.5-13.3c-0.5-3.3-4.5-4.8-7.3-4.2c-7.6,1.7-18.5,8.4-17.2,17.6c0.6,4.3,4.1,7.4,8.3,7.9
						c4.8,0.6,8.7-2.2,11.7-5.7c3.3-3.7,1.2-10.3-4.2-10.2c-8.5,0.1-19,5.4-14.7,15.7c3.9,9.5,17.7,8.5,21.3-0.7
						c3.3-8.5-4.2-17.6-13.3-14.8c-9.7,2.9-9.3,16.3-0.6,20.2c9.4,4.2,22-5.9,18.6-16.2c-3.9-11.5-19.3-1.8-21.4,6
						c-2.8,10.3,7.9,15.3,16.5,13.7c8.5-1.6,14.9-11.3,8.6-18.9c-7.7-9.1-21.8,2.2-15.7,12c2.7,4.3,8.3,6.3,13.1,4.8
						c5.6-1.8,8.1-7,8.7-12.4c0.5-4.5-5.4-7.4-9-5.1c-7.1,4.4-11,11.1-11.8,19.3c-0.4,3.9,4.1,6.7,7.5,5.7
						c10-2.9,17.5-10.4,20.5-20.4c1.1-3.8-2-7.5-5.7-7.5c-6.1-0.1-11.6,2.1-16,6.4c-5.5,5.4,2.7,13.5,8.4,8.4
						c5.8-5.2,7.2-15.5-1.1-19.2c-7.1-3.2-15.5,4.1-12.1,11.5c3.1,6.8,12.8,6.6,16.6,0.4c3.9-6.3,0.2-15.4-5.7-19.2
						c-5.8-3.7-14.7-1.6-16,5.8c-1.2,6.9,6.1,13.5,12.5,9.2c6.3-4.2,4.4-14.4-3.5-14.8c-3.8-0.2-7.2,2.6-8.5,6
						c-1.5,3.9,0.1,7.7,2.3,10.9c3.4,5,10.7,3,11.1-3c0.5-7-0.1-14.4-6.1-18.9c-4.9-3.6-11.1-3.5-15.8,0.5c-2.5,2.1-4.3,5-6.7,7.2
						c-2.5,2.3-5,4.4-7.1,7.2c-3.3,4.4-4.6,10.1-2.8,15.4c2.2,6.5,8.1,7.9,14.3,8.4c6.1,0.4,10.4,5.5,16.4,6.8
						C86,108.6,97,95.5,93.2,82.5c-2.1-7.3-13.6-4.2-11.5,3.2c2.2,7.6-5.2,9.9-10.7,6.6c-2.5-1.5-4.9-3.1-7.6-4.1
						c-1.4-0.5-2.8-0.8-4.3-1c-1.5-0.2-4.1,0.3-5.5-0.4c-4.1-2,5.1-9.2,6.9-11c1.1-1.1,4.8-6.7,6-6.5c2.9,0.4,1.8,8.2,1.7,9.8
						c3.7-1,7.4-2,11.1-3c-0.3-1.2-0.9-1.6-2-1c-1.5-0.1-1.6,0.4-0.3,1.4c0.2,0.3,0.3,0.7,0.5,1c0.9,2.5,0.5,4.3-1.4,5.5
						c2.8,2.8,5.6,5.6,8.4,8.4c2.2-2.1,4.5-3,7.6-2.9c-1.9-2.5-3.8-5-5.7-7.5c-1.8,6-6.2,10.3-12.1,12c2.5,1.9,5,3.8,7.5,5.7
						c0.4-3.9,2.7-7,5.9-9.1c-3-1.7-6-3.4-9-5.1c-0.4,3.2-4.2,2.1-6.4,3c-0.5,0-1,0-1.5-0.1c-0.1,1.2,0,1.5,0.5,0.8
						c0.4-0.6,1-1,1.6-1.3c1.7-0.8,1.8-1,0.4-0.6c-1.2-0.9-2.4-1.8-3.6-2.7c-0.5-1.1-2,1.2-2.3,1.6c2.9-3.8-4.6,6.2-2.3,0.8
						c-1,2.2,3,1.2,4.4,1.2c-1.4-3.4-2.8-6.8-4.2-10.2c-1.4,1.6-2.5,1.5-0.8,3.4c1.8,2,1.4,0.8,3.1-0.6c1.9-1.5,4.1-2.2,6.4-2.8
						c-2.4-1.4-4.9-2.8-7.3-4.2c3.7-0.6,3.4-2.8-0.9-6.4c-0.6,0.1-1.2,0.1-1.9,0.1c-1.7-0.1-3.1,0.6-4.2,2.3c0.5-1,0.1-1.6-1.2-1.6
						c1.5,1.9,2.9,3.8,4.4,5.7c-0.3,1.2-1.1,1.9-2.3,2c0,0.3,0.1,0.7,0.1,1c-1.7,2.4,1.6-0.3-1.7,2.4c-1.3,1.1-4.4,4.9-6.5,4
						c0.7,2.7,1.4,5.4,2.1,8.1c1.6-2.7,3.5-6,3.5-9.2c1.8-2.5,0.8-4.8-3-7c-0.9,0-1.8,0-2.8-0.2c2,2,4,4,6,6
						c0.4-4.3,0.8-10.7,4.8-13.3c4.3-2.8,5.6,1.7,7.4,4.9c2.2,3.9,5.2,6.6,9,8.8c2.8,1.6,8.3,3.5,5.2,7.5c-2.8,3.6-9.1,2.8-12.9,2.1
						c-5.3-0.9-10.4-1.6-15.7-2.3c-12.5-1.5,3.2-17,6-21.3C66.4,60,56.1,54.1,52,60.5L52,60.5z"/>
				</g>
			</g>
			<g class="st14">
				<g>
					<path class="st15" d="M73.8,62.4C61.5,47.6,38.2,80.5,56.9,86c4.4,1.3,8,2.6,12.1,4.6c4.4,2.1,8.3,1.6,12.2-1.1
						c3.1-2.2,5.5-5.3,5.4-9.3c-0.1-4.1-2.7-6.8-5.2-9.7c-2.5-2.8-3.6-6.5-7-8.5c-3.8-2.2-8.7-2.2-12.5-0.2
						c-6.2,3.2-12.2,13.8-5.1,19.1c7.8,5.9,17.1-6.2,9-12c-6.3-4.5-15.9,3.1-13,10.3c1.8,4.6,6.4,4.5,10.2,6.3
						c4.2,1.9,8.6,4.6,13.4,2.8c4-1.5,5.9-6.4,3.4-10.1c-2.8-4.3-10.7-6-15.2-7.9c-0.5,3.9-1.1,7.8-1.6,11.7
						c4.2,0.5,7.9,2.9,11.5,4.9c3.4,1.9,7.7,0.1,8.7-3.6c3.3-11.3-10.9-13.1-17.7-17.7c-1.5,3.6-3.1,7.3-4.6,10.9
						c3.6,0.6,6.8,1.6,10.1,3.4c4.9,2.7,9.6-1.7,8.7-6.7c-1.3-7.9-9.2-11.4-16.5-10.5c-7.5,0.9-7.6,12.8,0,11.9
						c2.2-0.3,4.6-0.8,5,1.7c2.9-2.2,5.8-4.5,8.7-6.7c-4.1-2.2-8.3-3.8-12.9-4.6c-6.6-1.1-10.4,7-4.6,10.9c2.2,1.4,4.4,2.7,6.7,3.7
						c0.9,0.4,1.9,0.8,2.9,1.2c0.7,0.3,1.5,0.5,2.2,0.8c1.1,0.6,1.2,0.1,0.5-1.5c2.9-1.2,5.8-2.4,8.7-3.6c-5.6-3.2-11-5.7-17.5-6.5
						c-2.9-0.4-5.5,2.6-5.8,5.2c-0.4,3.2,1.5,5.4,4.3,6.5c1.7,0.7,3.5,1.4,5.2,2.2c0.7,0.3,3.8,2.3,3.2,0.9
						c-0.2-1.5-0.4-3.1-0.6-4.6c-0.1,0.2-0.1,0.5-0.2,0.7c1.4-1.4,2.8-2.8,4.2-4.2c-1.6,0.6-5.6-2.3-7.1-2.9
						c-0.8-0.3-2.2-1.1-3.1-1.1c-1.8-0.6-1.9,0.4-0.5,3.1c1.5,3.2,0.6,4.3-2.7,3.2c-0.9-1.2-1.8-2.4-2.7-3.6
						c0.1,0.4,0.2,0.7,0.3,1.1c0.2-1.5,0.4-3.1,0.6-4.6c-0.2,0.3-0.4,0.6-0.6,1c1.2-0.9,2.4-1.8,3.6-2.7c1,0.2,2,0.5,3,0.7
						c0.6,1.4,1.2,2.8,1.7,4.2c-0.1-1.1,0.8-3,2.1-3.1c1.1-0.1,2,2.7,2.6,3.5c0.8,1.1,2.3,3.6,3.6,4.1c0.7,1.3,1.1,1.1,1.1-0.6
						c-0.4,0.7-0.9,0.8-1.3,0.3c-2.4-1.7-9.5-5.4-12.5-4.8c-2-0.7-1.8,0.1,0.7,2.4c0.3-1,0.7-2,1.2-3c0.4-0.9,1-1.7,1.8-2.4
						c1.5-0.6,1.7-1,0.6-0.9C70.3,76.7,78.7,68.2,73.8,62.4L73.8,62.4z"/>
				</g>
			</g>
			<g class="st14">
				<g>
					<path class="st15" d="M66.2,64.1c-4.1-0.4-10.2,1.2-10.1,6.4c0,2.7,1.8,4.8,4.4,5.6c1.9,0.6,3.8,0.5,5.7,0.7
						c-0.8-0.2-1.7-0.5-2.5-0.7c-0.2-0.1-1.2-1.6-0.7-0.6c0.3,0.5,0.7,1.1,1.2,1.5c0.8,0.8,1.9,1.5,3.1,1.7c3,0.6,6.1-1,6.9-4
						c0.7-2.3,0.1-4.7-1.5-6.4C71,66.7,69,66.4,67,65.7c-2.5-0.9-5.6,1-6.2,3.5c-0.6,2.8,0.9,5.2,3.5,6.2c0.5,0.2,1,0.3,1.5,0.4
						c0.2,0,0.3,0.1,0.5,0.1c-1.7-0.5-2.3-2.1-1.7-4.8c0.6-0.6,1.2-1.2,1.8-1.8c0.2-0.1,0.4-0.2,0.6-0.2c0.9,0,1.8,0,2.7,0
						c0.3,0.1,2,2.1,1.5,1c-0.2-0.5-0.7-1-1-1.4c-1-1-2.1-1.7-3.5-1.9c-0.6-0.1-1.9-0.1-2.1-0.1c0.3,0-0.6-0.1-0.7-0.1
						c-0.6-0.1-1.2-0.6-0.2,0c0.6,0.6,1.2,1.2,1.8,1.8c0-0.1-0.1-0.2-0.1-0.3c0.2,0.8,0.5,1.7,0.7,2.5c0-0.1,0-0.2,0-0.4
						c-0.2,0.8-0.5,1.7-0.7,2.5c-2.2,1.3-2.7,1.7-1.4,1.3c0.6-0.1,0.8-0.2,0.5-0.1c0.2,0,1.2,0,1.7,0.1c2.6,0.3,5.1-2.5,5-5
						C71.1,66.1,69,64.3,66.2,64.1L66.2,64.1z"/>
				</g>
			</g>
			<g class="st14">
				<g>
					<path class="st15" d="M67.3,69.8c-0.6-0.3-1.2-0.6-1.9-0.9c-0.5-0.2-0.9-0.4-1.4-0.5c-0.7,0-1.4,0.3-1.7,0.9
						c-0.3,0.5-0.4,1.1-0.2,1.6c0.1,0.6,0.5,1,1,1.3c0.4,0.3,0.9,0.3,1.4,0.4c0.3,0,0.7,0,1,0c-0.1,0-0.3,0-0.4-0.1
						c0.1,0,0.2,0.1,0.4,0.1c-0.1-0.1-0.2-0.1-0.4-0.2c0.1,0.1,0.2,0.1,0.3,0.2c-0.1-0.1-0.2-0.2-0.3-0.2c0.1,0.1,0.2,0.2,0.3,0.3
						c-0.1-0.1-0.2-0.2-0.2-0.3c0.1,0.1,0.1,0.2,0.2,0.4c-0.1-0.1-0.1-0.2-0.2-0.4c0,0.1,0.1,0.2,0.1,0.3c0-0.1,0-0.3-0.1-0.4
						c0,0,0,0,0,0.1c0.9-0.4,1.7-0.7,2.6-1.1c-0.8-0.7-1.6-1.3-2.3-2c-0.5,0.8-1,1.7-1.5,2.5c0.4,0.1,0.7,0.2,1.1,0.4
						c-0.1-0.1-0.2-0.1-0.4-0.2c0.6,0.3,1.2,0.6,1.8,1c-0.1-0.1-0.2-0.2-0.3-0.2c0,0,0.1,0.1,0.1,0.1c0.3,0.3,0.6,0.4,1.1,0.4
						c0.4,0,0.8-0.2,1.1-0.4c0.3-0.3,0.5-0.7,0.4-1.1c0-0.4-0.1-0.8-0.4-1.1c-0.5-0.4-1.1-0.8-1.7-1.1c-0.6-0.3-1.2-0.6-1.9-0.7
						c-0.6-0.2-1.4,0.1-1.7,0.7c-0.1,0.2-0.2,0.5-0.2,0.8c0,0.3,0.2,0.8,0.4,1.1c0.8,0.7,1.6,1.3,2.3,2c0.2,0.2,0.4,0.3,0.7,0.4
						c0.3,0.1,0.7,0.1,1-0.1c0.2-0.1,0.4-0.3,0.6-0.5c0.2-0.2,0.4-0.6,0.3-0.9c-0.1-0.5-0.2-1-0.5-1.4c-0.3-0.4-0.6-0.7-1-1
						c-0.4-0.3-0.9-0.4-1.4-0.4c-0.3,0-0.7,0-1,0c0.1,0,0.3,0,0.4,0.1c-0.1,0-0.2,0-0.4-0.1c0.1,0.1,0.2,0.1,0.4,0.2
						c-0.1,0-0.2-0.1-0.2-0.1c0.1,0.1,0.2,0.2,0.3,0.2c0,0-0.1-0.1-0.1-0.1c0.1,0.1,0.2,0.2,0.2,0.3c0-0.1-0.1-0.1-0.1-0.2
						c0.1,0.1,0.1,0.2,0.2,0.4c0-0.1,0-0.1,0-0.2c0,0.1,0,0.3,0.1,0.4c0,0,0-0.1,0-0.1c0,0.1,0,0.3-0.1,0.4c0,0,0-0.1,0-0.1
						c-0.1,0.1-0.1,0.2-0.2,0.4c0,0,0-0.1,0.1-0.1c-0.1,0.1-0.2,0.2-0.2,0.3c0,0,0,0,0.1-0.1c-0.1,0.1-0.2,0.2-0.3,0.2
						c0,0,0.1-0.1,0.1-0.1c-0.1,0.1-0.2,0.1-0.4,0.2c0,0,0.1,0,0.1,0c-0.1,0-0.3,0-0.4,0.1c0.1,0,0.1,0,0.2,0c-0.1,0-0.3,0-0.4-0.1
						c0.1,0,0.2,0.1,0.3,0.1c-0.1-0.1-0.2-0.1-0.4-0.2c0.7,0.3,1.4,0.7,2.1,1.1c0.4,0.2,0.8,0.3,1.2,0.2c0.3-0.1,0.7-0.4,0.9-0.7
						c0.2-0.3,0.3-0.8,0.2-1.2C67.9,70.3,67.6,70,67.3,69.8L67.3,69.8z"/>
				</g>
			</g>
			<g class="st14">
				<g>
					<path class="st15" d="M66.5,68.4c-0.8-0.4-1.7-0.5-2.6-0.4c-0.7,0.1-1.5,0.5-2,1c-0.5,0.6-0.7,1.4-0.3,2.2
						c0.2,0.4,0.5,0.7,0.8,0.9c0.5,0.5,1.2,0.9,1.8,1.3c0.7,0.4,1.5,0.8,2.4,0.8c1,0.1,2-0.4,2.5-1.3c0.5-1,0.2-2.1-0.6-2.9
						c-0.6-0.5-1.1-1-1.7-1.4c-0.6-0.5-1.3-0.8-2-0.6c-0.9,0.3-1.5,1.2-1.2,2.1c0.2,0.6,0.6,0.9,1,1.3c0.3,0.3,0.6,0.5,1,0.8
						c0.3,0.3,0.6,0.4,1.1,0.4c0.4,0,0.8-0.2,1.1-0.4c0.5-0.6,0.6-1.5,0-2.1c-1.1-1.1-2.6-1.4-4.1-1.2c-0.6,0.1-1,0.7-1.1,1.2
						c-0.1,0.6,0.2,1.2,0.7,1.5c1,0.5,2,0.9,3,1.3c0.7,0.3,1.7-0.3,1.8-1c0.1-0.4,0.1-0.8-0.2-1.2c-0.2-0.3-0.5-0.5-0.9-0.7
						c-0.3-0.1-0.7-0.3-1-0.4c-0.3,1-0.5,1.9-0.8,2.9c0.6,0.2,1.2,0.4,1.8,0.6c0.7,0.2,1.7-0.3,1.8-1c0.2-0.8-0.2-1.6-1-1.8
						c-0.6-0.2-1.2-0.4-1.8-0.6c-0.7-0.2-1.7,0.3-1.8,1C64,71.2,64,71.7,64.2,72c0.2,0.3,0.5,0.5,0.9,0.7c0.3,0.1,0.7,0.3,1,0.4
						c0.3-1,0.5-1.9,0.8-2.9c-0.3-0.1-0.7-0.3-1-0.4c0.1,0.1,0.2,0.1,0.4,0.2c-0.5-0.2-1.1-0.5-1.6-0.8c-0.1,0.9-0.2,1.8-0.4,2.7
						c0.1,0,0.1,0,0.2,0c-0.1,0-0.3,0-0.4,0.1c0.3,0,0.5,0,0.8,0c-0.1,0-0.3,0-0.4-0.1c0.3,0,0.5,0.1,0.8,0.2
						c-0.1-0.1-0.2-0.1-0.4-0.2c0.1,0.1,0.3,0.1,0.4,0.2c0,0,0.3,0.2,0.1,0c-0.2-0.2,0,0,0.1,0.1c0.7-0.7,1.4-1.4,2.1-2.1
						c-0.3-0.2-0.5-0.4-0.8-0.7c-0.1-0.1-0.2-0.2-0.4-0.3c-0.1-0.1-0.1-0.1-0.2-0.2c-0.1-0.1-0.2-0.2,0,0.1c0.1,0.1,0.1,0.2,0.2,0.4
						c0,0,0,0,0-0.1c0,0.1,0,0.3,0.1,0.4c0,0,0,0,0-0.1c0,0.1,0,0.3-0.1,0.4c0,0,0,0,0-0.1c-0.1,0.1-0.1,0.2-0.2,0.4
						c-0.5,0.4-0.6,0.5-0.4,0.4c-0.1,0.1-0.2,0.1-0.4,0.2c0,0,0,0,0.1,0c-0.1,0-0.3,0-0.4,0.1c0,0,0.1,0,0.1,0c-0.1,0-0.3,0-0.4-0.1
						c0,0,0.1,0,0.1,0c-0.1-0.1-0.2-0.1-0.4-0.2c0,0,0.1,0.1,0.1,0.1c0,0-0.3-0.2-0.1-0.1c0.1,0.1,0.2,0.2,0.3,0.3
						c0.2,0.2,0.4,0.4,0.6,0.5c0.2,0.2,0.4,0.3,0.6,0.5c0.1,0.1,0.2,0.1,0.3,0.2c0,0,0.1,0.1,0.1,0.1c0.1,0.1-0.2-0.3-0.1-0.1
						c-0.1-0.1-0.1-0.2-0.2-0.4c0,0.1,0,0.1,0.1,0.2c0-0.1,0-0.3-0.1-0.4c0,0.1,0,0.1,0,0.2c0-0.1,0-0.3,0.1-0.4
						c0,0.1,0,0.1-0.1,0.2c0.1-0.1,0.1-0.2,0.2-0.4c0,0-0.1,0.1-0.1,0.1c0,0,0.3-0.3,0.1-0.1c-0.1,0.1,0.3-0.2,0.1-0.1
						c-0.1,0-0.1,0.1-0.2,0.1c0.1-0.1,0.2-0.1,0.4-0.2c-0.1,0-0.2,0.1-0.3,0.1c0.1,0,0.3,0,0.4-0.1c-0.1,0-0.3,0-0.4,0
						c0.1,0,0.3,0,0.4,0.1c-0.3,0-0.5-0.1-0.8-0.2c0.1,0.1,0.2,0.1,0.4,0.2c-0.5-0.2-1-0.5-1.5-0.8c-0.1,0-0.1-0.1-0.2-0.1
						c-0.2-0.2,0.2,0.2,0.1,0.1c-0.1-0.1-0.2-0.2-0.3-0.3c-0.1-0.1-0.2-0.2-0.3-0.3c0,0-0.1-0.1-0.1-0.1c-0.2-0.2,0.2,0.3,0.1,0.1
						c0.1,0.1,0.1,0.2,0.2,0.4c0,0,0,0,0-0.1c0,0.1,0,0.3,0.1,0.4c0,0,0,0,0-0.1c0,0.1,0,0.3-0.1,0.4c0,0,0-0.1,0-0.1
						c-0.1,0.1-0.1,0.2-0.2,0.4c-0.2,0.2-0.2,0.2-0.1,0.2c0,0,0.1-0.1,0.1-0.1c0,0-0.3,0.2-0.1,0.1c0.1-0.1,0.2-0.1,0.4-0.2
						c-0.1,0.1-0.2,0.1-0.4,0.2c0.2-0.1,0.4-0.1,0.6-0.2c-0.1,0-0.3,0-0.4,0.1c0.2,0,0.5,0,0.7,0c-0.1,0-0.3,0-0.4-0.1
						c0.2,0,0.4,0.1,0.6,0.2C65.1,71,65,71,64.9,70.9c0,0,0.1,0,0.1,0.1c0.4,0.2,0.7,0.3,1.2,0.2c0.3-0.1,0.7-0.4,0.9-0.7
						C67.4,69.8,67.3,68.7,66.5,68.4L66.5,68.4z"/>
				</g>
			</g>
			<g class="st16">
				<g>
					<path class="st15" d="M65.2,72.4C65.2,72.4,65.2,72.4,65.2,72.4c-0.1,0-0.2,0-0.4-0.1c0,0,0.1,0,0.1,0
						c-0.1-0.1-0.2-0.1-0.4-0.2c0.1,0,0.1,0.1,0.2,0.1c-0.1-0.1-0.2-0.2-0.3-0.2c0.1,0.1,0.3,0.2,0.4,0.3c0.1,0.1,0.2,0.1,0.3,0.1
						c0.1,0,0.2,0.1,0.2,0.1c0.1,0,0.2,0,0.2,0c0,0,0.2,0,0.2,0c0.2,0,0.3,0,0.5-0.1c0.1,0,0.2-0.1,0.2-0.1c0,0,0.1-0.1,0.2-0.1
						c0,0,0,0,0,0c0.1,0,0.3-0.2,0.3-0.2c0,0,0,0,0,0c0,0,0.2-0.3,0.2-0.3c0-0.1,0.1-0.1,0.1-0.2c0-0.1,0.1-0.1,0.1-0.2
						c0,0,0.1-0.4,0.1-0.4c0,0,0,0,0,0c0-0.1,0-0.4-0.1-0.4c0,0,0,0,0,0c0-0.1-0.1-0.3-0.2-0.4c0,0-0.2-0.3-0.2-0.3c0,0,0,0,0,0
						c-0.1-0.1-0.2-0.2-0.3-0.2c0,0,0,0,0,0c0,0,0,0-0.1,0c-0.1-0.1-0.3-0.1-0.4-0.2c-0.1,0-0.2-0.1-0.3-0.1
						c-0.2-0.1-0.5-0.1-0.7-0.1c-0.2,0-0.4,0-0.6,0c0,0-0.1,0-0.1,0c0,0,0,0,0,0c-0.1,0-0.3,0.1-0.4,0.2c0,0,0,0,0,0
						c-0.1,0-0.3,0.2-0.3,0.2c0,0,0,0,0,0c0,0,0,0,0,0c0,0-0.2,0.3-0.2,0.3c-0.1,0.1-0.1,0.3-0.2,0.4c0,0-0.1,0.4-0.1,0.4
						c0,0,0,0,0,0c0,0,0,0.4,0.1,0.4c0,0,0,0,0,0c0,0.1,0.1,0.3,0.2,0.4c0,0,0,0,0,0c0,0,0,0,0,0c0,0.1,0.2,0.3,0.2,0.3c0,0,0,0,0,0
						c0.1,0.1,0.2,0.2,0.3,0.3c0,0,0.1,0,0.1,0.1c0.3,0.2,0.6,0.3,0.9,0.4c0,0,0.1,0,0.1,0c0.1,0,0.4,0.1,0.4,0.1c0.1,0,0.2,0,0.3,0
						c0.1,0,0.2,0,0.2,0c0,0,0.3-0.1,0.4-0.2c0,0,0,0,0,0c0,0,0.3-0.2,0.3-0.2c0,0,0,0,0,0c0.1-0.1,0.2-0.2,0.2-0.3c0,0,0,0,0,0
						c0,0,0,0,0,0c0.1-0.1,0.1-0.2,0.2-0.4c0.1-0.3,0.1-0.4,0-0.7c0-0.1,0-0.2,0-0.3c0,0,0,0,0,0c0-0.1-0.1-0.3-0.2-0.4
						c0-0.1-0.1-0.2-0.2-0.3c-0.1-0.1-0.1-0.2-0.2-0.2c-0.1-0.1-0.2-0.2-0.3-0.3c0,0,0,0-0.1,0c-0.1-0.1-0.3-0.1-0.5-0.2
						c0,0-0.1,0-0.1,0c-0.1,0-0.2,0-0.3,0c-0.1,0-0.2,0-0.3,0c-0.2,0-0.4,0-0.6,0.1c-0.2,0.1-0.3,0.2-0.5,0.3
						c-0.1,0.1-0.2,0.3-0.3,0.5c-0.1,0.2-0.1,0.4-0.1,0.6c0,0.1,0,0.3,0.1,0.4c0.1,0.3,0.2,0.5,0.4,0.7c0.1,0.1,0.2,0.2,0.3,0.2
						c0.2,0.1,0.5,0.2,0.8,0.2c0,0,0,0,0.1,0c-0.1,0-0.3,0-0.4-0.1c0.1,0,0.1,0,0.2,0.1c-0.1-0.1-0.2-0.1-0.4-0.2
						c0.1,0,0.1,0.1,0.2,0.1c-0.1-0.1-0.2-0.2-0.3-0.2c0,0,0.1,0.1,0.1,0.1c-0.1-0.1-0.2-0.2-0.2-0.3c0,0,0.1,0.1,0.1,0.1
						c-0.1-0.1-0.1-0.2-0.2-0.4c0,0,0,0.1,0,0.1c0-0.1,0-0.3-0.1-0.4c0,0,0,0,0,0.1c0-0.1,0-0.3,0.1-0.4c0,0,0,0,0,0
						c0.1-0.1,0.1-0.2,0.2-0.4c0,0,0,0,0,0c0.1-0.1,0.2-0.2,0.2-0.3c0,0,0,0,0,0c0.1-0.1,0.2-0.2,0.3-0.2c0,0,0,0,0,0
						c0.1-0.1,0.2-0.1,0.4-0.2c0,0,0,0,0,0c0.1,0,0.3,0,0.4-0.1c0,0,0,0-0.1,0c0.1,0,0.3,0,0.4,0.1c-0.1,0-0.1,0-0.2-0.1
						c0.1,0.1,0.2,0.1,0.4,0.2C66.1,70,66,70,65.9,69.9c-0.1-0.1-0.2-0.1-0.3-0.2c0.1,0.1,0.2,0.2,0.3,0.2c0,0,0,0,0,0
						c0.1,0.1,0.2,0.2,0.2,0.3c0,0,0,0,0-0.1c0.1,0.1,0.1,0.2,0.2,0.4c0,0,0,0,0,0c0,0.1,0,0.3,0.1,0.4c0,0,0,0,0,0
						c0,0.1,0,0.3-0.1,0.4c0,0,0,0,0,0c-0.1,0.1-0.1,0.2-0.2,0.4c0,0,0,0,0,0c-0.1,0.1-0.2,0.2-0.2,0.3c0,0,0,0,0,0
						c-0.1,0.1-0.2,0.2-0.3,0.2c0,0,0,0,0.1,0c-0.1,0.1-0.2,0.1-0.4,0.2c0,0,0.1,0,0.1,0c-0.1,0-0.3,0-0.4,0.1c0.1,0,0.2,0,0.3,0
						c-0.1,0-0.3,0-0.4-0.1c0.2,0,0.3,0.1,0.5,0.1c-0.1-0.1-0.2-0.1-0.4-0.2c0,0,0.1,0,0.1,0.1C65.1,72.1,65,72,64.8,72c0,0,0,0,0,0
						c-0.1-0.1-0.2-0.2-0.2-0.3c0,0,0,0,0,0c-0.1-0.1-0.1-0.2-0.2-0.4c0,0,0,0,0,0c0-0.1,0-0.3-0.1-0.4c0,0,0,0,0,0
						c0-0.1,0-0.3,0.1-0.4c0,0,0,0,0,0c0.1-0.1,0.1-0.2,0.2-0.4c0,0,0,0,0,0c0.1-0.1,0.2-0.2,0.2-0.3c0,0,0,0,0,0
						c0.1-0.1,0.2-0.2,0.3-0.2c0,0,0,0,0,0c0.1-0.1,0.2-0.1,0.4-0.2c0,0,0,0-0.1,0c0.1,0,0.3,0,0.4-0.1c0,0,0,0-0.1,0
						c0.1,0,0.3,0,0.4,0.1c0,0-0.1,0-0.1,0c0.1,0.1,0.2,0.1,0.4,0.2c-0.1,0-0.1-0.1-0.2-0.1c0.1,0.1,0.2,0.2,0.3,0.2
						c-0.1-0.1-0.2-0.2-0.4-0.3c0,0-0.1,0-0.1-0.1c0,0,0,0,0,0c-0.1-0.1-0.3-0.1-0.4-0.2c0,0,0,0,0,0c-0.1,0-0.3,0-0.4-0.1
						c0,0,0,0,0,0c-0.2,0-0.4,0-0.6,0.1c-0.2,0.1-0.3,0.2-0.5,0.3c-0.1,0.1-0.2,0.3-0.3,0.5c-0.1,0.2-0.1,0.4-0.1,0.6
						c0,0.1,0,0.3,0.1,0.4c0.1,0.3,0.2,0.5,0.4,0.7c0.1,0.1,0.2,0.2,0.3,0.2C64.6,72.3,64.9,72.4,65.2,72.4L65.2,72.4z"/>
				</g>
			</g>
			<g class="st14">
				<g>
					<path class="st15" d="M64.5,88.3c-2.1-0.7-4.3-1.2-6.5-1.5c-0.9-0.1-1.8-0.2-2.7,0.2c-1,0.5-1.5,1.7-1.2,2.8
						c0.3,1,1.1,1.6,1.9,2.2c1,0.6,2,1.3,3,1.9c1.8,1.2,3.6,2.5,5.6,3.4c2.1,1,4.2,1.2,6.5,1c0.9-0.1,1.9-0.2,2.6-0.9
						c0.7-0.8,0.9-1.8,0.7-2.8c-0.3-1.9-1.9-3.3-3.4-4.2c-1.9-1.1-4.1-1.5-6.1-2c-1.2-0.3-2.4-0.6-3.6-0.9c-1.1-0.3-2.4-0.8-3.6-0.5
						c-1.2,0.3-2,1.6-1.7,2.9c0.3,1.2,1.2,1.9,2.3,2.2c1.4,0.4,2.5-1.5,1.5-2.5c-0.6-0.6-1.3-1-2.1-1.2c-1.7-0.4-2.5,1.8-1.2,2.7
						c0.7,0.5,1.5,0.7,2.3,0.7c0.8,0,1.5-0.7,1.5-1.5c0-1.7-1.5-2.8-3.2-2.4c-0.8,0.2-1.2,1.1-1,1.8c0.4,1.6,1.7,2.8,3.4,2.9
						c1.7,0.2,3.6-1.4,2.5-3.2c-1.1-1.8-3.8-0.9-4,1.1c-0.1,1.8,1.8,3,3.5,2.5c1.6-0.5,2.5-2.2,1.8-3.7c-0.6-1.6-2.5-2.3-4-1.4
						c-1.5,0.9-1.8,2.8-0.8,4.2c1,1.3,2.8,1.8,4.2,1c1.4-0.7,2-2.5,0.9-3.8c-1-1.2-3-1.3-4.1-0.1c-1.1,1.2-0.9,3.1,0.2,4.2
						c1.2,1.2,3.1,1.3,4.5,0.5c1.4-0.8,2.1-2.8,0.9-4.1c-1-1.1-2.9-1.1-4,0c-2.6,2.8,1.6,7.4,4.5,4.8c1.2-1.1,1.3-3.2-0.2-4.2
						c-1.3-0.9-3.2-0.6-4,0.8c-0.8,1.4-0.3,3.4,1.1,4.2c1.5,0.8,3.4,0.3,4.3-1c0.9-1.3,1-3.5-0.5-4.5c-1.6-1-3.3,0.2-4.2,1.5
						c-0.8,1.3-1.4,3.1-0.1,4.4c1.4,1.3,3.3,0.6,4.6-0.5c1.1-1,2.4-2.8,1.6-4.3c-1-1.8-3.2-1-4,0.5c-0.9,1.5-1,3.4,0.2,4.8
						c1.1,1.3,3,1.5,4.3,0.4c1.3-1,1.7-2.9,1-4.3c-0.7-1.4-2.4-2.1-3.9-1.6c-1.6,0.5-2.3,2.3-1.8,3.9c0.6,1.6,2.2,2.4,3.8,2
						c1.5-0.4,2.7-1.8,2.6-3.3c-0.1-1.9-2.1-2.9-3.7-2c-1.5,0.8-2.1,2.7-1.6,4.3c0.5,1.6,2,2.6,3.6,2.5c1.6,0,3-1.2,3.3-2.7
						c0.4-1.5-0.4-3.6-2.2-3.7c-1.7-0.1-2.9,1.8-2.8,3.3c0.1,1.8,2,2.9,3.6,2c1.7-0.9,1.7-2.9,1.2-4.5c-0.4-1.4-2.5-1.5-2.9,0
						c-0.4,1.7-0.6,4.9,1.7,5.3c1,0.2,1.9-0.5,2.2-1.5c0.1-0.4,0.2-0.9,0-1.4c-0.1-0.3-0.4-0.7-0.4-1.1c0-1.4-2.2-2.2-2.8-0.8
						c-0.4,1-0.5,2.1,0.2,3c0.6,0.8,2.1,1.1,2.6,0c0.9-2,0.1-4.6-2.4-4.8c-2.1-0.1-3.6,2.3-2.5,4.1c0.5,0.8,1.7,1,2.4,0.3
						c1.1-1.2,0.9-3.1-0.5-4c-1.6-0.9-3.5,0.3-3.6,2c-0.2,1.9,2.2,3.5,3.7,2c0.7-0.7,0.8-1.8,0.3-2.6c-0.5-0.8-1.3-1.2-2.2-1.4
						c-1.6-0.3-2.8,1.9-1.2,2.7c1.1,0.6,2.4,0.3,3.1-0.8c0.7-1.1,0.2-2.4-0.5-3.3c-0.6,0.8-1.2,1.6-1.8,2.4c1.5,1.1,2.8,2.5,3.9,4.1
						c0.6-0.7,1.1-1.5,1.7-2.2c-3.2-1.1-6-3-9-4.5c-1.5-0.8-3-1.5-4.7-2c-0.8-0.2-1.7-0.5-2.6-0.5c-1,0.1-1.9,0.9-1.7,1.9
						c0.1,0.8,0.6,1.5,1.5,1.5c0.1,0,0.3,0,0.4,0c1.9,0.1,1.9-2.9,0-3c-0.1,0-0.3,0-0.4,0c0.5,0.5,1,1,1.5,1.5c0-0.1,0-0.1,0-0.2
						c-0.1,0.3-0.1,0.5-0.2,0.8c0,0,0-0.1,0.1-0.1c-0.2,0.2-0.4,0.4-0.5,0.5c-0.3,0.1-0.3,0.1,0,0.1c0.2,0,0.4,0.1,0.5,0.1
						c0.4,0.1,0.7,0.2,1.1,0.3c0.6,0.2,1.1,0.4,1.7,0.6c1.3,0.6,2.6,1.3,3.8,2c2.5,1.4,5,2.8,7.7,3.8c1.2,0.4,2.4-1.1,1.7-2.2
						c-1.4-2-3-3.7-5-5.1c-0.6-0.4-1.5-0.1-1.9,0.4c-0.5,0.6-0.4,1.4,0.1,2c0.1,0.2,0.2,0.1,0.3-0.3c0.3-0.3,0.3-0.4,0-0.3
						c0.3,0,0.5,0,0.8,0c0,0,0,0,0,0c-0.4,0.9-0.8,1.8-1.2,2.7c0.2,0,0.3,0.1,0.5,0.1c-0.1-0.1-0.2-0.2-0.2-0.3
						c0.1-0.3,0.1-0.5,0.2-0.8c0,0,0,0,0,0c0.2-0.1,0.4-0.3,0.7-0.4c0.9-0.4,1.1,1.8,0,1c-0.3-0.2-0.3-0.5-0.1-0.7
						c0.8,0.1,1.6,0.2,2.4,0.3c0.1,0.2-0.3,0.4-0.3,0.4c0,0,0,0,0,0c0,0,0,0.2,0,0.3c0.9,0,1.7,0,2.6,0c-0.2-0.3-0.1-0.1-0.2,0.1
						c-0.9-0.3-1.9-0.5-2.8-0.8c0,0.5,0.1,0.9,0.3,1.3c0,0.1,0.1,0.4,0.2,0.5c0,0,0.1-0.5,0.3-0.5c0.3-0.1,0.5-0.1,0.8-0.2
						c0,0,0,0,0,0c0.2,0.1,0.4,0.3,0.7,0.4c0.1,0.1,0,0.2,0,0c0-0.2-0.1-0.4-0.1-0.6c0-0.4,0-0.8,0.1-1.2c-1,0-1.9,0-2.9,0
						c0.1,0.3,0.1,0.8,0.2,1.1c0,0,0,0,0,0c0.2-0.1,0.5-0.1,0.7,0.3c0,0,0.2,0.1,0.1,0.1c0-0.1,0-0.2,0.1-0.2c-0.3,0-0.7,0-1,0
						c0,0,0,0.1,0,0.1c-0.1,0.2,0,0.4-0.3,0.5c-0.4,0.2-0.8-0.2-0.9-0.6c0-0.2,0.2-0.4,0.2-0.5c0,0.1-0.5-0.5-0.7-0.4
						c0,0,0,0.1,0,0.1c-0.3,0.1-0.3,0.1-0.6,0c-0.1,0,0-0.1,0-0.1c0,0-0.1,0-0.1,0.1c0,0,0.1-0.1,0.1,0c0.1,0.1,0.2,0,0.2,0.2
						c0.1,0.2,0,0.4-0.1,0.5c-0.1,0.1-0.2,0.1-0.2,0.1c-0.3-0.1-0.3-0.5-0.3-0.8c0-0.2,0.1-0.3,0.2-0.5c0.1-0.6,0.4,0.1-0.4-0.1
						c-0.2-0.1-0.4-0.3-0.7-0.4c0,0,0,0,0,0c-0.1-0.3-0.1-0.5-0.2-0.8c0,0.4-0.4,0.8-0.7,1.1c-0.2,0.2-0.4,0.3-0.6,0.5
						c-0.2,0.2-0.2,0-0.1,0.2c0.2,0.1,0.2,0.2,0.2,0.3c0,0.2,0,0.1,0.1-0.2c0.2-0.3,0.3-0.5,0.5-0.8c0,0,0.4-0.5,0.4-0.4
						c0,0.2-0.6-0.3-0.6-0.3c-0.1,0-0.1,0.4-0.2,0.5c-0.1,0.1-0.1,0.1-0.2,0.1c-0.1,0.1-0.3-0.1-0.2,0c-0.2,0,0.1,0.3-0.3,0.1
						c-0.1-0.1-0.2-0.4-0.2-0.4c0-0.1,0.1-0.1,0.2-0.1c0-0.1-0.3-0.1-0.4-0.3c0,0,0-0.2,0-0.2c0-0.1,0-0.1,0,0
						c-0.1,0.1-0.1,0.1-0.3,0.1c-0.3,0-0.2-0.4-0.3-0.5c0.1-0.2,0-0.2,0-0.1c0,0-0.1,0.1-0.1,0.1c-0.1,0-0.3,0.1-0.4,0.1
						c-0.2,0-0.3-0.2-0.5-0.2c-0.1,0-0.3,0.1-0.4,0.1c-0.4-0.1-0.1-0.7-0.2-0.8c0,0-0.5-0.2-0.3-0.1c0,0,0,0-0.1-0.1
						c0-0.1-0.1-0.1,0,0.1c0,0-0.1,0.1-0.1,0.1c0.1,0-0.3-0.2-0.2,0c0-0.1,0-0.3,0-0.3c0.2-0.2,0.8,0.5,0.4,0.8
						c-0.2,0.1-0.4,0.3-0.7,0.4c0,0,0,0,0,0c-0.3-0.1-0.5-0.1-0.8-0.2c0,0-0.1-0.1-0.1-0.1c-0.1-0.3-0.1-0.5-0.2-0.8
						c0,0.1,0,0.1,0,0.2c0.1-0.3,0.1-0.5,0.2-0.8c0.1-0.1,0.3-0.1,0.4-0.2c-0.1,0-0.2,0-0.3,0c-0.1-0.1-0.2,0-0.3-0.2
						c-0.2-0.2-0.3-0.3-0.4-0.6c-0.3,0.6-0.7,1.2-1,1.8c-0.4,0-0.6-0.1-0.6-0.5c0.5-0.5,1-1,1.5-1.5c-0.4,0-0.5-0.1-0.8-0.3
						c-0.4,0.9-0.8,1.8-1.2,2.7c0.3,0.1,0.5,0.2,0.8,0.4c0.5-0.8,1-1.7,1.5-2.5c-0.4-0.1-0.2-0.2-0.4,0.3c-0.3,0.5-0.3,0.4,0.1,0.5
						c0.8,0.2,1.5,0.4,2.3,0.6c1.5,0.4,3.1,0.8,4.6,1.2c1.3,0.3,2.6,0.6,3.8,1.3c0.8,0.4,1.8,1.2,2,2.1c0,0.1,0,0.3,0,0.4
						c0-0.2,0.4-0.2-0.1-0.1c-0.7,0.1-1.4,0.1-2,0.1c-1.4,0-2.6-0.4-3.9-1c-2.6-1.4-5.1-3.1-7.5-4.7c-0.2-0.1-0.5-0.4-0.7-0.5
						c-0.1-0.1-0.1-0.1-0.2-0.2c0,0,0,0,0,0c-0.1,0-0.3,0.7-0.3,0.6c0,0.1,0.9,0,1,0.1c0.4,0,0.8,0.1,1.2,0.2
						c1.7,0.3,3.3,0.7,4.9,1.3C65.6,91.9,66.4,89,64.5,88.3L64.5,88.3z"/>
				</g>
			</g>
			<g class="st14">
				<g>
					<path class="st15" d="M86.1,86.7c-2.5,0.9-5.6,2.2-6,5.2c-0.2,1.4,0.1,3,1.3,3.9c1.2,1,2.8,1.2,4.2,0.7
						c1.3-0.5,2.4-1.4,3.4-2.4c0.9-0.9,2-2,2.2-3.4c0.3-1.6-0.3-3.1-1.5-4.1c-1.2-0.9-2.8-1.1-4.2-0.5c-1.2,0.5-2.4,1.7-3,2.8
						c-0.4,0.7-0.6,1.6-0.4,2.4c0.3,1,1.1,1.6,2.1,1.7c1,0,1.8-0.6,2.1-1.5c0.3-1-0.2-2-1.1-2.5c-0.8-0.5-1.9-0.3-2.7,0.2
						c-0.6,0.4-1,1-1.4,1.5c-0.7,0.8-1,1.8-0.4,2.8c0.5,0.8,1.4,1.2,2.3,1.2c1.5-0.1,3.3-0.9,3.9-2.4c0.6-1.6-0.5-3.5-2.3-3.4
						c-1.6,0.1-3.1,1.6-3.2,3.3c-0.2,1.8,1.6,3,3.2,2.7c1.5-0.2,3.6-1.5,3.3-3.3c-0.1-1-1.1-1.7-2.1-1.7c-0.8,0-1.6,0.5-2.1,1
						c-1.2,1.1-1.8,3.2-0.3,4.4c1.4,1.1,3.5,0.2,4.2-1.3c0.7-1.4,0.3-3.3-1.1-4.1c-1.5-0.8-3.5-0.1-4,1.6c-0.5,1.6,0.6,3.4,2.3,3.7
						c3.2,0.7,5.7-2.7,5.7-5.6c0-0.9-0.4-1.8-1.2-2.3c-0.8-0.4-1.8-0.3-2.6,0.2c-1.3,0.9-2.6,2.5-1.7,4.1c0.5,0.9,1.6,1.2,2.6,0.9
						c0.8-0.3,1.4-0.9,1.9-1.6c0.9-1.2,1.6-3.7-0.2-4.5c-1.7-0.7-3.1,1.4-3.8,2.6c-0.6,1.2-1.6,3.2-0.7,4.4c1.3,1.7,3.7,0,4.5-1.4
						c0.4-0.7,0.5-1.6,0.3-2.4c-0.3-0.9-1-1.5-1.9-1.7c-1.6-0.3-3.3,0.8-3.7,2.4c-0.2,0.9,0,1.8,0.7,2.4c0.7,0.6,1.6,0.8,2.4,0.4
						c1.5-0.6,2.2-2.3,2.2-3.9c0-1-0.5-1.9-1.5-2.3c-0.7-0.3-1.6-0.1-2.2,0.3c-1.4,1-1.8,3.1-0.6,4.4c1,1.1,2.9,1.2,4,0.2
						c1.2-1.1,0.9-3.3-0.6-4c-0.7-0.3-1.7-0.2-2.1,0.5c-0.4,0.7-0.2,1.7,0.5,2.1c0.2,0.1,0,0-0.1-0.1c0.2,0.2,0,0-0.1-0.1
						c0,0.1,0.1,0.3,0-0.1c0,0.1,0,0.3,0-0.1c0,0.1-0.1,0.2,0-0.1c0,0,0.2-0.3,0-0.1c0,0,0.2-0.2,0.1-0.1c-0.1,0.1,0.3-0.2,0-0.1
						c0.3-0.2,0.2-0.1,0.1-0.1c0.4-0.1,0.2,0,0.1,0c-0.3,0,0.1,0,0.1,0c0,0-0.2,0-0.2-0.1c0,0,0.3,0.2,0.1,0c0,0,0.3,0.2,0.1,0
						c0,0,0.2,0.2,0.1,0.1c-0.1-0.1,0.1,0.3,0,0c0,0.1,0,0.1,0,0.2c0,0,0-0.1,0-0.1c0,0,0-0.1,0-0.1c0,0.1,0,0.1,0,0.2
						c0,0,0-0.2,0.1-0.2c0,0-0.1,0.3,0,0.1c0-0.1,0.2-0.2,0,0c0.1-0.1,0.2-0.2-0.1,0c0.1-0.1,0.2-0.1-0.1,0c0.2-0.1,0,0-0.1,0
						c0.3,0-0.1,0-0.1,0c-0.2,0-0.4-0.2-0.5-0.4c0,0-0.2-0.3-0.1-0.3c0,0,0,0.2,0,0.2c0,0.1,0.1,0.2,0-0.1c0,0,0,0.2,0,0.2
						c0,0.2-0.1,0.4-0.1,0.6c0,0.1,0,0.1-0.1,0.2c0.1-0.3,0-0.1,0,0c-0.2,0.3,0,0,0,0c0,0,0,0-0.1,0.1c0,0,0.1-0.1,0.1-0.1
						c-0.2,0.1,0,0,0.1,0c-0.1,0-0.2,0,0.1,0c-0.1,0-0.2-0.1,0.1,0c0.1,0,0.3,0.1,0.4,0.3c0.1,0.1,0.1,0.2,0.1,0.3
						c0.1,0.2,0,0.1,0,0c-0.1,0.4,0,0.1,0,0.1c0-0.3,0,0.1,0,0c0,0,0.1-0.2,0.1-0.2c0,0-0.2,0.3,0,0c0-0.1,0.2-0.2,0,0
						c0,0,0.3-0.2,0.1-0.1c-0.2,0.1,0,0,0.1,0c0.2-0.1-0.1,0-0.1,0c0.2,0,0,0-0.1,0c0.2,0,0,0,0,0c-0.2-0.1-0.1-0.1,0,0
						c-0.1-0.1-0.1-0.1-0.1-0.3c0,0.1,0,0.3,0,0c0,0.3,0-0.1,0,0c-0.1,0.2,0.1-0.2,0,0c0,0-0.2,0.3-0.1,0.1c0.1-0.1,0,0-0.1,0.1
						c-0.1,0.1-0.1,0.1-0.2,0.2c-0.1,0.1-0.3,0.2-0.4,0.4c0.2-0.2,0,0,0,0c0,0,0.1,0,0.1,0c0.9,1.2,1.3,1.6,1.3,1
						c0-0.2-0.1,0.3,0,0.1c0-0.1,0.1-0.2,0.1-0.3c0.1-0.2,0.1-0.4,0.2-0.6c0-0.1,0.1-0.2,0.1-0.2c0.1-0.2-0.1,0.2,0-0.1
						c0.1-0.2,0.2-0.4,0.3-0.5c0.1-0.2,0.2-0.3,0.3-0.5c0-0.1,0.1-0.1,0.1-0.2c0,0,0.2-0.3,0.1-0.2c-0.1,0.1,0.1-0.1,0.1-0.1
						c0.1-0.1,0.1-0.2,0.2-0.2c0.1-0.1,0.1-0.1,0.2-0.2c0.2-0.3-0.3,0.2-0.5,0.2c-0.3-0.1-0.5-0.1-0.8-0.2c-0.2-0.3-0.3-0.6-0.5-0.9
						c0,0.2,0,0.1,0,0c0,0.1-0.1,0.2-0.1,0.4c0,0.1-0.2,0.4,0,0.1c-0.1,0.1-0.1,0.2-0.2,0.3c-0.1,0.1-0.1,0.2-0.2,0.3
						c0.2-0.3-0.1,0-0.1,0.1c0,0-0.4,0.3-0.1,0.1c-0.1,0-0.1,0.1-0.2,0.1c0.2-0.1,0.2-0.1,0,0c0.5-0.1,0.9,0.2,1.1,0.6
						c-0.1-0.2,0,0.2,0,0.3c0,0,0,0.1-0.1,0.1c0.1-0.1,0.1-0.1,0,0c0.1-0.1,0.2-0.2,0.3-0.3c0.1-0.1,0.2-0.2,0.3-0.3
						c0.1-0.1,0.4-0.2,0.1-0.1c0,0,0.1,0,0.1-0.1c0.2-0.1,0.1-0.1,0,0c-0.2,0-0.2,0-0.1,0c-0.1,0-0.2,0-0.3-0.1
						c-0.1-0.1-0.2-0.2-0.3-0.3c-0.1-0.2-0.1-0.2,0,0c0-0.1,0-0.1,0-0.2c0,0.1,0,0.2,0,0.2c0,0.1-0.1,0.5,0,0.1c0,0.1,0,0.3-0.1,0.4
						c0,0.1-0.1,0.3-0.1,0.4c0,0-0.2,0.4,0,0.1c-0.1,0.3-0.3,0.5-0.5,0.8c-0.2,0.3,0.2-0.2-0.1,0.1c-0.1,0.1-0.2,0.2-0.3,0.3
						c0,0-0.4,0.3-0.1,0.1c-0.1,0-0.1,0.1-0.2,0.1c-0.1,0-0.4,0.2-0.1,0.1c-0.1,0-0.2,0.1-0.4,0.1c0.5,0-0.1,0-0.1,0
						c0.2,0,0.2,0,0,0c-0.1,0-0.2,0-0.2-0.1c0.4,0.1-0.2-0.2,0.1,0.1c0,0-0.1-0.1-0.1-0.1c-0.1-0.1-0.1-0.1,0,0
						c-0.1-0.4,0.1,0.3,0-0.1c-0.1-0.3,0,0.3,0,0c0,0.5,0.1-0.2-0.1,0.2c0,0,0-0.1,0.1-0.1c-0.1,0.1-0.1,0.2-0.2,0.2
						c0-0.1,0.4-0.2,0,0c0.2,0,0.1,0-0.1,0c0.1,0,0.1,0,0.2,0c-0.1,0-0.1,0-0.2,0c0.2,0,0.1,0-0.1,0c0.3,0.1-0.1-0.2,0,0
						c-0.3-0.4,0,0,0,0.1c0-0.1,0-0.1-0.1-0.2c0,0.1,0,0.1,0.1,0.2c0-0.1,0-0.1,0-0.2c0,0.1,0,0.1,0,0.2c0-0.1,0-0.1,0-0.2
						c-0.1,0.2,0,0.2,0,0c0,0.1-0.2,0.4,0,0.1c-0.1,0.1-0.1,0.1-0.2,0.2c-0.1,0.1-0.1,0.1,0,0c-0.1,0-0.4,0.2-0.1,0
						c-0.3,0.1,0.3,0.1,0,0c0.1,0,0.1,0,0.2,0c-0.2-0.1-0.1,0,0.3,0.2c0.1,0.1,0.2,0.3,0.2,0.5c0,0.3,0,0.1,0,0
						c-0.1,0.3,0,0,0.1-0.1c0-0.1,0.1-0.1,0.1-0.2c-0.2,0.3,0.1-0.1,0.2-0.1c-0.3,0.2,0,0,0.1,0c0.3-0.2-0.2,0,0,0
						c0.3-0.1-0.3,0,0,0c-0.2,0-0.3-0.1-0.5-0.1c-0.5-0.4-0.6-0.8-0.4-1.3c0,0,0.1-0.1,0.1-0.1c-0.1,0.1-0.1,0.1,0,0
						c-0.1,0.1-0.2,0.2-0.3,0.2c-0.1,0.1-0.2,0.1-0.3,0.2c-0.2,0.1-0.2,0.1,0,0c-0.1,0-0.2,0.1-0.2,0.1c-0.3,0.1,0.3,0-0.1,0
						c-0.4,0,0.3,0.1,0,0c-0.3-0.1,0.2,0.2,0,0c0,0,0.1,0.1,0.1,0.1c-0.1-0.1-0.1-0.1,0,0.1c0,0.1,0,0.1,0.1,0.2c0-0.2,0-0.1,0,0.1
						c-0.1-0.4,0.1,0.3,0,0c0,0,0,0.1-0.1,0.1c0-0.1,0.1-0.1,0.1-0.2c0.1-0.1,0.1-0.1,0,0c0.1-0.1,0.1-0.1,0.2-0.2
						c0.1-0.1,0.3-0.2,0.1-0.1c0,0,0.1,0,0.1-0.1c0.2-0.1,0.1-0.1,0,0c0,0,0.1,0,0.1,0c-0.1,0-0.2,0-0.3,0c-0.2-0.1-0.3-0.2-0.4-0.4
						c0.2,0.3-0.1-0.3,0,0c0-0.1,0-0.1,0-0.2c0,0.2,0,0.1,0-0.1c0,0,0,0.1,0,0.1c-0.1,0.2,0,0.1,0-0.1c-0.1,0.1-0.1,0.1,0,0
						c-0.1,0.1-0.1,0.1-0.2,0.2c0.3-0.2,0,0-0.1,0c0,0-0.4,0.2-0.2,0.1c0.2-0.1-0.2,0.1-0.2,0.1c-0.1,0-0.3,0.1-0.4,0.1
						c0,0-0.1,0-0.1,0c-0.2,0-0.2,0,0,0c0,0-0.1,0-0.1,0c0.2,0,0.2,0,0,0c0.2,0.1,0.3,0.1,0.4,0.3c0.1,0.2,0.1,0.4,0.1,0.6
						c-0.1,0.2-0.1,0.2,0,0c0,0-0.1,0.1-0.1,0.1c0.1-0.1,0.1-0.1,0.2-0.2c0.1-0.1,0.2-0.2,0.3-0.3c0.2-0.2,0.3-0.4,0.5-0.6
						c0,0-0.1,0-0.1,0.1c0.2-0.1,0.2-0.1,0,0c0,0,0.1,0,0.1,0c-0.2,0.1-0.4,0-0.6-0.1c-0.7-0.4-0.2-1.6,0.5-1.6
						c0.2,0,0.4,0.1,0.5,0.2c0.1,0.1,0.2,0.4,0.1,0.2c0.1,0.5,0.1-0.2,0,0.2c0.1-0.4-0.1,0.2,0-0.2c0.1-0.1,0.1-0.2,0.2-0.3
						c0.2-0.4-0.2,0.2,0.1-0.1c0.2-0.2,0.4-0.4,0.6-0.7c0.1-0.1,0.2-0.2,0.3-0.3c0.3-0.3-0.2,0.1,0.1-0.1c0.1-0.1,0.2-0.1,0.3-0.2
						c0.3-0.2-0.3,0.1,0.1,0c0.1,0,0.3-0.1,0.4-0.1c0,0-0.4,0,0,0c0.1,0,0.3,0,0.4,0c-0.2,0-0.2,0,0,0c0.1,0,0.2,0,0.2,0.1
						c0.3,0.1-0.2-0.1,0.1,0c0.1,0.1,0.2,0.1,0.3,0.2c-0.3-0.2,0,0,0.1,0.1c0.1,0.1,0.2,0.4,0.1,0.1c0.1,0.1,0.1,0.2,0.2,0.3
						c-0.2-0.3,0,0,0,0.1c0,0.1,0.1,0.5,0,0.1c0,0.1,0.1,0.4,0,0.5c0-0.1,0-0.1,0-0.2c0,0.1,0,0.2-0.1,0.2c0,0.1-0.2,0.4,0,0.1
						c-0.1,0.2-0.2,0.4-0.4,0.6c0.2-0.3-0.1,0.1-0.1,0.1c-0.1,0.1-0.2,0.2-0.3,0.3c-0.2,0.2-0.4,0.4-0.6,0.7
						c-0.2,0.2-0.5,0.4-0.7,0.7c-0.1,0.1-0.2,0.2-0.3,0.3c-0.1,0.1-0.1,0.1,0,0c-0.1,0.1-0.1,0.1-0.2,0.2c-0.3,0.2-0.5,0.3-0.8,0.5
						c0.3-0.1,0,0-0.1,0c-0.1,0-0.2,0.1-0.4,0.1c-0.4,0.1,0.3,0-0.1,0c-0.1,0-0.4,0-0.5,0c0.3,0.1,0,0-0.1,0c-0.1,0-0.2,0-0.2-0.1
						c0.2,0.1,0.2,0.1,0,0c-0.1,0-0.3-0.3-0.1,0c-0.1-0.1-0.3-0.4-0.1-0.1c0-0.1-0.2-0.2-0.2-0.3c0.1,0.2,0.1,0.2,0,0
						c0-0.1,0-0.1-0.1-0.2c0,0,0-0.1,0-0.1c0-0.2,0-0.1,0,0.1c-0.1-0.1,0-0.3,0-0.5c0-0.4-0.1,0.3,0-0.1c0-0.2,0.1-0.3,0.1-0.5
						c-0.1,0.3,0,0,0-0.1c0.1-0.1,0.2-0.3,0.3-0.4c0.2-0.3-0.2,0.2,0.1-0.1c0.1-0.1,0.2-0.2,0.3-0.4c0.1-0.1,0.2-0.2,0.3-0.2
						c-0.3,0.2,0.1-0.1,0.2-0.1c0.3-0.2,0.6-0.3,0.9-0.5c0.1-0.1,0.3-0.1,0.4-0.2c-0.3,0.1,0.3-0.1,0.3-0.1c0.3-0.1,0.6-0.2,1-0.3
						c0.7-0.3,1.3-1,1-1.8C87.7,87.1,86.9,86.5,86.1,86.7L86.1,86.7z"/>
				</g>
			</g>
			<g class="st14">
				<g>
					<path class="st15" d="M84,89.9c-0.4,0.3-0.8,0.7-1.1,1c-0.4,0.5-0.6,1.1-0.5,1.7c0.1,0.6,0.7,1,1.3,1.2
						c1.1,0.4,2.4,0.2,3.4-0.4c1-0.5,1.6-1.4,2-2.5c0.1-0.4,0.2-0.9,0.1-1.3c-0.1-0.5-0.5-0.9-0.9-1.2c-0.5-0.3-1-0.3-1.5-0.2
						c-0.3,0.1-0.6,0.2-0.9,0.4c-1,0.5-1.9,1.3-2.5,2.2c-0.1,0.2-0.2,0.5-0.2,0.8c0,0.3,0.1,0.6,0.3,0.9c0.4,0.5,1,0.7,1.6,0.5
						c1.1-0.2,2.2-0.6,3.1-1.2c0.6-0.3,0.9-1.1,0.7-1.7c-0.2-0.6-0.8-1.1-1.4-1.1c-0.7,0-1.3,0.2-1.9,0.6c-0.3,0.2-0.6,0.5-0.7,0.9
						c-0.1,0.4-0.1,0.8,0.2,1.2c0.2,0.3,0.5,0.6,0.9,0.7c0.4,0.1,0.8,0.1,1.2-0.2c0.1-0.1,0.2-0.1,0.3-0.2c-0.1,0.1-0.2,0.1-0.4,0.2
						c0.2-0.1,0.3-0.1,0.5-0.1c-0.1,0-0.3,0-0.4,0.1c0.1,0,0.2,0,0.3,0c-0.3-0.9-0.5-1.9-0.8-2.8c-0.3,0.2-0.7,0.3-1,0.5
						c0.1-0.1,0.2-0.1,0.4-0.2c-0.6,0.2-1.2,0.4-1.8,0.5c0.6,0.7,1.1,1.5,1.7,2.2c0-0.1,0.1-0.1,0.1-0.2c-0.1,0.1-0.2,0.2-0.2,0.3
						c0.3-0.4,0.6-0.7,1-1c-0.1,0.1-0.2,0.2-0.3,0.2c0.4-0.3,0.8-0.5,1.2-0.7c-0.1,0.1-0.2,0.1-0.4,0.2c0.1,0,0.2-0.1,0.3-0.1
						c-0.1,0-0.3,0-0.4,0.1c0.1,0,0.1,0,0.2,0c-0.1,0-0.3,0-0.4-0.1c0,0,0.1,0,0.1,0c-0.1-0.1-0.2-0.1-0.4-0.2c0,0,0.1,0,0.1,0.1
						c-0.1-0.1-0.2-0.2-0.3-0.2c0,0,0.1,0,0.1,0.1c-0.1-0.1-0.2-0.2-0.2-0.3c0,0,0,0.1,0.1,0.1c-0.1-0.1-0.1-0.2-0.2-0.4
						c0,0,0,0,0,0.1c0-0.1,0-0.3-0.1-0.4c0,0,0,0.1,0,0.1c0-0.1,0-0.3,0.1-0.4c0,0.2-0.1,0.3-0.2,0.5c0.1-0.1,0.1-0.2,0.2-0.4
						c-0.1,0.2-0.2,0.4-0.4,0.7c0.1-0.1,0.2-0.2,0.2-0.3c-0.2,0.2-0.3,0.4-0.5,0.5c0.1-0.1,0.2-0.2,0.3-0.2
						c-0.2,0.1-0.4,0.3-0.6,0.4c0.1-0.1,0.2-0.1,0.4-0.2c-0.2,0.1-0.4,0.1-0.7,0.2c0.1,0,0.3,0,0.4-0.1c-0.3,0-0.5,0-0.8,0
						c0.1,0,0.3,0,0.4,0.1c-0.2,0-0.4-0.1-0.6-0.1c0.1,0.1,0.2,0.1,0.4,0.2c0,0-0.1,0-0.1-0.1c0.1,0.1,0.2,0.2,0.3,0.2c0,0,0,0,0,0
						c0.1,0.1,0.2,0.2,0.2,0.3c0,0,0,0,0,0c0.1,0.1,0.1,0.2,0.2,0.4c0,0,0,0,0,0c0,0.1,0,0.3,0.1,0.4c0,0,0,0,0-0.1
						c0,0.1,0,0.3-0.1,0.4c0,0,0-0.1,0-0.1c-0.1,0.1-0.1,0.2-0.2,0.4c0,0,0-0.1,0.1-0.1c-0.1,0.1-0.2,0.2-0.2,0.3
						c0.3-0.4,0.7-0.7,1.1-1c0.6-0.5,0.6-1.6,0-2.1C85.5,89.4,84.6,89.4,84,89.9L84,89.9z"/>
				</g>
			</g>
			<g class="st14">
				<g>
					<path class="st15" d="M60.3,92.4c1.2,0.8,2.5,1.6,3.7,2.4c0.6,0.4,1.3,0.8,1.9,1.2c0.8,0.5,1.5,0.9,2.4,0.7
						c0.9-0.1,1.6-0.9,1.9-1.7c0.3-0.8,0.1-1.7-0.4-2.4c-0.8-1.3-2.4-1.9-3.8-2.5c-1.5-0.6-3.2-1.1-4.9-1c-0.8,0.1-1.4,0.5-1.5,1.3
						c-0.1,0.8,0.4,1.4,1.1,1.6c0.3,0.1,0.6,0.2,0.9,0.3c0.1,0,0.2,0.1,0.2,0.1c-0.1-0.1-0.2-0.1-0.1,0c0.1,0.1,0.3,0.1,0.4,0.2
						c0.5,0.3,1,0.5,1.5,0.8c0.2,0.1,0.5,0.3,0.7,0.5c0.1,0.1,0.3,0.2,0.4,0.3c0.3,0.2-0.2-0.1,0.1,0.1c0.5,0.4,0.9,0.8,1.3,1.2
						c0.5,0.5,1.4,0.6,2,0.1c0.6-0.4,0.8-1.3,0.4-1.9c-0.4-0.6-0.9-1.2-1.4-1.8c-0.4,0.9-0.7,1.7-1.1,2.6c-0.2,0,0,0,0.1,0
						c0.1,0,0.2,0.1,0.3,0.1c0.1,0,0.2,0.1,0,0c0.1,0.1,0.2,0.1,0.4,0.2c0.7,0.4,1.7,0.2,2.1-0.5c0.4-0.7,0.2-1.6-0.5-2.1
						c-0.7-0.4-1.5-0.6-2.3-0.7c-0.6-0.1-1.2,0.4-1.4,0.9c-0.2,0.6-0.1,1.2,0.3,1.6c0.2,0.2,0.4,0.4,0.6,0.7c0,0.1,0.1,0.1,0.1,0.2
						c-0.1-0.1-0.1-0.1,0,0c0.1,0.1,0.2,0.3,0.3,0.4c0.8-0.6,1.6-1.2,2.4-1.8c-1.9-2-4.3-3.4-6.9-4.3c-0.1,1-0.3,2-0.4,2.9
						c0.4,0,0.8,0,1.2,0c0.2,0,0.2,0,0,0c0.1,0,0.1,0,0.2,0c0.2,0,0.3,0.1,0.5,0.1c0.7,0.2,1.4,0.4,2.1,0.7c0.2,0.1,0.2,0.1,0,0
						c0.1,0,0.2,0.1,0.3,0.1c0.1,0.1,0.3,0.1,0.4,0.2c0.3,0.2,0.7,0.3,1,0.5c0.1,0,0.3,0.2,0.1,0.1c0.1,0.1,0.3,0.2,0.4,0.4
						c-0.1-0.1-0.1-0.1,0,0c0.1,0.2,0.1,0.1,0,0c0,0.2,0,0.2,0,0c0,0.1,0,0.2,0,0c0-0.1,0-0.1,0,0c0.1-0.2,0.1-0.2,0-0.1
						c0-0.1,0.1-0.2,0.2-0.2c0.2-0.1,0.2-0.1,0.1,0c0.1,0,0.2-0.1,0.3,0c0.1,0.1,0.2,0.1,0.1,0c-0.1-0.1-0.3-0.1-0.4-0.2
						c-0.7-0.4-1.3-0.8-2-1.3c-1.3-0.8-2.6-1.7-3.9-2.5c-0.7-0.4-1.7-0.2-2.1,0.5C59.4,91.1,59.6,91.9,60.3,92.4L60.3,92.4z"/>
				</g>
			</g>
			<g class="st14">
				<g>
					<path class="st15" d="M64.1,92.9c0.2,0.2,0.3,0.4,0.5,0.6c0.2,0.2,0.3,0.3,0.5,0.4c0.2,0.1,0.3,0.3,0.5,0.4
						c0.2,0.1,0.5,0.2,0.8,0.3c0.1,0,0.3,0,0.4,0.1c0.1,0,0.3,0,0.4-0.1c0.1-0.1,0.2-0.1,0.4-0.2c0.2-0.1,0.3-0.2,0.4-0.4
						c0.1-0.1,0.2-0.2,0.2-0.3c0.1-0.1,0.1-0.2,0.1-0.4c0-0.1,0-0.3,0-0.4c0-0.2-0.1-0.4-0.2-0.6c-0.1-0.2-0.3-0.5-0.5-0.7
						c-0.1-0.2-0.3-0.3-0.5-0.4c-0.4-0.3-0.8-0.5-1.3-0.7c-0.1,0-0.3-0.1-0.4-0.1c-0.2,0-0.3,0-0.6,0c-0.3,0-0.4,0.1-0.7,0.2
						c-0.1,0-0.1,0.1-0.2,0.2c-0.2,0.2-0.3,0.2-0.4,0.5c-0.1,0.1-0.1,0.3-0.2,0.4c0,0,0,0,0,0c0,0.1-0.1,0.3-0.1,0.4c0,0,0,0,0,0.1
						c0,0.1,0,0.3,0.1,0.4c0,0.1,0.1,0.2,0.1,0.2c0,0.1,0.1,0.2,0.1,0.2c0.2,0.4,0.5,0.6,0.9,0.8c0.4,0.3,0.8,0.5,1.2,0.8
						c0.4,0.3,1.1,0.3,1.5,0c0.5-0.3,0.7-0.8,0.7-1.3c0-0.4-0.1-0.7-0.3-1.1c-0.1-0.2-0.3-0.5-0.5-0.6c-0.3-0.3-0.6-0.4-1-0.6
						c-0.2-0.1-0.4-0.1-0.6-0.1c-0.2,0-0.4,0-0.6,0.1c-0.1,0.1-0.2,0.1-0.4,0.2c-0.1,0.1-0.2,0.2-0.3,0.2c-0.1,0.1-0.2,0.2-0.2,0.3
						c-0.1,0.2-0.2,0.4-0.2,0.6c0,0.1,0,0.3,0,0.4c0,0.1,0,0.3,0.1,0.4c0,0.1,0.1,0.2,0.2,0.3c0.1,0.2,0.2,0.3,0.4,0.4
						c0.3,0.2,0.6,0.4,0.9,0.6c0.2,0.1,0.4,0.2,0.6,0.2c0.2,0,0.4,0,0.6,0c0.2,0,0.4-0.1,0.5-0.3c0.2-0.1,0.3-0.2,0.4-0.4
						c0.2-0.3,0.3-0.8,0.2-1.2c-0.1-0.1-0.1-0.2-0.2-0.4c-0.1-0.2-0.3-0.4-0.5-0.5c-0.3-0.2-0.6-0.4-0.9-0.6
						c-0.1,0.9-0.2,1.8-0.4,2.7c0,0,0,0,0,0c-0.1,0-0.3,0-0.4,0.1c0.1,0,0.1,0,0.2,0c-0.1,0-0.3,0-0.4-0.1c0.1,0,0.1,0,0.2,0.1
						C65.3,94.1,65.2,94,65,94c0.1,0,0.1,0.1,0.2,0.1c-0.1-0.1-0.2-0.2-0.3-0.2c0.1,0.1,0.1,0.1,0.2,0.2c-0.1-0.1-0.2-0.2-0.2-0.3
						c0.1,0.1,0.1,0.1,0.1,0.2c-0.1-0.1-0.1-0.2-0.2-0.4c0,0.1,0,0.1,0.1,0.2c0-0.1,0-0.3-0.1-0.4c0,0,0,0.1,0,0.1
						c0.8-0.4,1.5-0.9,2.3-1.3c-0.2-0.2-0.5-0.3-0.7-0.5c-0.2-0.1-0.5-0.3-0.7-0.5c0.1,0.1,0.2,0.2,0.3,0.2c0,0-0.1-0.1-0.1-0.1
						c0.1,0.1,0.2,0.2,0.2,0.3c0,0,0,0,0-0.1c0.1,0.1,0.1,0.2,0.2,0.4c0,0,0,0,0-0.1c0,0.1,0,0.3,0.1,0.4c0,0,0,0,0-0.1
						c0,0.1,0,0.3-0.1,0.4c0,0,0,0,0-0.1c-0.1,0.1-0.1,0.2-0.2,0.4c0,0,0,0,0,0c-0.1,0.1-0.2,0.2-0.2,0.3c0,0,0,0,0,0
						c-0.1,0.1-0.2,0.2-0.3,0.2c0,0,0,0,0.1,0c-0.1,0.1-0.2,0.1-0.4,0.2c0,0,0.1,0,0.1,0c-0.1,0-0.3,0-0.4,0.1c0.1,0,0.1,0,0.2,0
						c-0.1,0-0.3,0-0.4-0.1c0.2,0,0.3,0.1,0.5,0.1c-0.1-0.1-0.2-0.1-0.4-0.2c0.2,0.1,0.4,0.2,0.5,0.3c-0.1-0.1-0.2-0.2-0.3-0.2
						c0.2,0.1,0.3,0.3,0.4,0.4c-0.1-0.1-0.2-0.2-0.2-0.3c0.1,0.1,0.1,0.2,0.2,0.3c0.6-0.7,1.1-1.5,1.7-2.2c0,0-0.1,0-0.1,0
						c0.1,0.1,0.2,0.1,0.4,0.2c-0.2-0.1-0.4-0.2-0.7-0.4c0.1,0.1,0.2,0.2,0.3,0.2c-0.2-0.2-0.4-0.3-0.5-0.5c0.1,0.1,0.2,0.2,0.2,0.3
						c0,0-0.1-0.1-0.1-0.1c-0.1-0.2-0.2-0.3-0.4-0.4c-0.1-0.1-0.3-0.2-0.5-0.3c-0.2-0.1-0.4-0.1-0.6,0c-0.2,0-0.4,0.1-0.6,0.2
						c-0.3,0.2-0.6,0.5-0.7,0.9C63.9,92.1,63.9,92.6,64.1,92.9L64.1,92.9z"/>
				</g>
			</g>
			<g class="st14">
				<g>
					<path class="st15" d="M86.5,92.5c0.1-0.1,0.3-0.1,0.4-0.2c0.1-0.1,0.2-0.2,0.3-0.2c0.1-0.1,0.2-0.3,0.3-0.5
						c0.1-0.1,0.1-0.2,0.1-0.4c0-0.2,0-0.4,0-0.6c-0.1-0.1-0.1-0.2-0.2-0.4c-0.1-0.1-0.2-0.2-0.2-0.3c-0.1-0.1-0.3-0.2-0.5-0.3
						c-0.2-0.1-0.4-0.1-0.6-0.1c-0.2,0-0.3,0-0.5,0.1c-0.1,0-0.1,0.1-0.2,0.1c-0.1,0-0.1,0.1-0.2,0.1c-0.1,0-0.1,0.1-0.2,0.1
						c-0.2,0.2-0.3,0.2-0.4,0.5c-0.1,0.1-0.2,0.3-0.2,0.4c0,0.1,0,0.3-0.1,0.4c0,0.2,0,0.4,0.1,0.6c0,0.1,0.1,0.2,0.2,0.3
						c0.1,0.2,0.2,0.3,0.4,0.4c0.1,0.1,0.3,0.1,0.4,0.2c0,0,0.1,0,0.1,0c0.1,0,0.2,0,0.3,0c0.1,0,0.2,0,0.3,0c0,0,0.1,0,0.1,0
						c0.2,0,0.3,0,0.5-0.1c0.1,0,0.1,0,0.2,0c0.2,0,0.4-0.1,0.5-0.3c0.2-0.1,0.3-0.2,0.4-0.4c0.1-0.1,0.1-0.2,0.2-0.4
						c0.1-0.2,0.1-0.4,0-0.6c0-0.1,0-0.3-0.1-0.4c-0.1-0.2-0.2-0.3-0.3-0.5c-0.1-0.1-0.2-0.2-0.3-0.2c-0.2-0.1-0.5-0.2-0.8-0.2
						c-0.1,0-0.2,0-0.3,0c-0.2,0-0.5,0.1-0.7,0.1c-0.3,0.1-0.6,0.2-0.9,0.4c-0.2,0.1-0.3,0.2-0.4,0.4c-0.1,0.1-0.2,0.3-0.3,0.5
						c-0.1,0.2-0.1,0.4,0,0.6c0,0.2,0.1,0.4,0.2,0.6c0.1,0.1,0.2,0.2,0.2,0.3c0.2,0.2,0.4,0.3,0.7,0.4c0.1,0,0.3,0,0.4,0.1
						c0.3,0,0.5-0.1,0.8-0.2c0,0,0.1,0,0.1,0c-0.1,0.1-0.2,0.1-0.4,0.2c0.2-0.1,0.5-0.2,0.7-0.2c-0.1,0-0.3,0-0.4,0.1
						c0.1,0,0.2,0,0.3,0c-0.1-1-0.3-2-0.4-2.9c-0.1,0-0.1,0-0.2,0.1c0.1,0,0.3,0,0.4-0.1c-0.1,0-0.1,0-0.2,0c0.1,0,0.3,0,0.4,0.1
						c-0.1,0-0.1,0-0.2-0.1c0.1,0.1,0.2,0.1,0.4,0.2c0,0,0,0,0,0c0.2,0.6,0.5,1.1,0.7,1.7c0,0,0,0,0,0c-0.1,0.1-0.1,0.2-0.2,0.4
						c0,0,0,0,0-0.1c-0.1,0.1-0.2,0.2-0.2,0.3c0,0,0,0,0,0c-0.1,0.1-0.2,0.2-0.3,0.2c0,0,0,0,0.1,0C86.7,92.4,86.6,92.4,86.5,92.5
						C86.5,92.5,86.5,92.4,86.5,92.5c-0.1,0-0.2,0-0.4,0c0,0,0,0,0,0c-0.3-0.9-0.5-1.9-0.8-2.8c-0.1,0.1-0.3,0.1-0.4,0.2
						c-0.2,0.1-0.3,0.2-0.4,0.4c-0.1,0.1-0.2,0.3-0.3,0.5c-0.1,0.2-0.1,0.4,0,0.6c0,0.2,0.1,0.4,0.2,0.6c0.1,0.1,0.2,0.2,0.2,0.3
						c0.2,0.2,0.4,0.3,0.7,0.4c0.1,0,0.3,0,0.4,0.1C86,92.7,86.3,92.6,86.5,92.5L86.5,92.5z"/>
				</g>
			</g>
			<g class="st14">
				<g>
					<path class="st15" d="M52,60.5c-4.4,7-11,12.2-12.2,20.8c-1.1,8.1,2.9,15.4,11.1,17.6c4.2,1.1,8.6,0.9,12.9,1.7
						c4.4,0.8,8.7,1.9,13.2,1.9c8.1,0.1,16.2-3.3,19.5-11c3.3-7.6,0-14.8-6.7-19.1c-2.8-1.8-6.1-2.8-8.1-5.7c-2.1-3-3.1-6.4-5.7-9
						c-5.7-5.6-14.5-4.7-20.5,0c-6.8,5.4-8,14.1-8.9,22.2c-0.4,3.4,3,5.7,6,6c4.7,0.4,9.8-0.4,12.6-4.6c2.5-3.7,2.2-9.1-1.4-12.1
						c-9.7-8-19.7,8.1-17.2,16.8c2.9,10.4,19.7,9.8,18.7-1.9c-0.4-4.7-4.8-7.9-9.4-8c-5.3,0-8.8,3.9-11.3,8.2
						c-1.4,2.5-0.9,6.9,2.1,8.1c5.7,2.5,11.5,2,16.5-2c4.7-3.7,7.8-10.2,5.2-16.1c-5.7-12.7-24.1-2.3-17.3,9.2
						c2.9,4.9,9.4,6.5,14.5,4.2c5-2.4,7.7-7.9,7.3-13.3c-0.4-5.7-4.5-11.2-10.5-11.8c-6-0.6-11,4.1-11.1,10.1
						c-0.1,2.8,1.9,4.8,4.4,5.7c6.3,2.5,14.2-0.6,15.9-7.5c1.5-6.4-3.1-13.4-10-13.1c-7.1,0.3-11.8,7.5-8.8,14
						c3.2,6.7,12.3,7.8,18.5,5.2c6.5-2.7,8.8-12,2-15.9c-6-3.5-13.4,0.7-15.4,6.9c-2.1,6.6,2.1,13.8,9.1,14.7
						c8,1,12.6-6.2,11.5-13.3c-0.5-3.3-4.5-4.8-7.3-4.2c-7.6,1.7-18.5,8.4-17.2,17.6c0.6,4.3,4.1,7.4,8.3,7.9
						c4.8,0.6,8.7-2.2,11.7-5.7c3.3-3.7,1.2-10.3-4.2-10.2c-8.5,0.1-19,5.4-14.7,15.7c3.9,9.5,17.7,8.5,21.3-0.7
						c3.3-8.5-4.2-17.6-13.3-14.8c-9.7,2.9-9.3,16.3-0.6,20.2c9.4,4.2,22-5.9,18.6-16.2c-3.9-11.5-19.3-1.8-21.4,6
						c-2.8,10.3,7.9,15.3,16.5,13.7c8.5-1.6,14.9-11.3,8.6-18.9c-7.7-9.1-21.8,2.2-15.7,12c2.7,4.3,8.3,6.3,13.1,4.8
						c5.6-1.8,8.1-7,8.7-12.4c0.5-4.5-5.4-7.4-9-5.1c-7.1,4.4-11,11.1-11.8,19.3c-0.4,3.9,4.1,6.7,7.5,5.7
						c10-2.9,17.5-10.4,20.5-20.4c1.1-3.8-2-7.5-5.7-7.5c-6.1-0.1-11.6,2.1-16,6.4c-5.5,5.4,2.7,13.5,8.4,8.4
						c5.8-5.2,7.2-15.5-1.1-19.2c-7.1-3.2-15.5,4.1-12.1,11.5c3.1,6.8,12.8,6.6,16.6,0.4c3.9-6.3,0.2-15.4-5.7-19.2
						c-5.8-3.7-14.7-1.6-16,5.8c-1.2,6.9,6.1,13.5,12.5,9.2c6.3-4.2,4.4-14.4-3.5-14.8c-3.8-0.2-7.2,2.6-8.5,6
						c-1.5,3.9,0.1,7.7,2.3,10.9c3.4,5,10.7,3,11.1-3c0.5-7-0.1-14.4-6.1-18.9c-4.9-3.6-11.1-3.5-15.8,0.5c-2.5,2.1-4.3,5-6.7,7.2
						c-2.5,2.3-5,4.4-7.1,7.2c-3.3,4.4-4.6,10.1-2.8,15.4c2.2,6.5,8.1,7.9,14.3,8.4c6.1,0.4,10.4,5.5,16.4,6.8
						C86,108.6,97,95.5,93.2,82.5c-2.1-7.3-13.6-4.2-11.5,3.2c2.2,7.6-5.2,9.9-10.7,6.6c-2.5-1.5-4.9-3.1-7.6-4.1
						c-1.4-0.5-2.8-0.8-4.3-1c-1.5-0.2-4.1,0.3-5.5-0.4c-4.1-2,5.1-9.2,6.9-11c1.1-1.1,4.8-6.7,6-6.5c2.9,0.4,1.8,8.2,1.7,9.8
						c3.7-1,7.4-2,11.1-3c-0.3-1.2-0.9-1.6-2-1c-1.5-0.1-1.6,0.4-0.3,1.4c0.2,0.3,0.3,0.7,0.5,1c0.9,2.5,0.5,4.3-1.4,5.5
						c2.8,2.8,5.6,5.6,8.4,8.4c2.2-2.1,4.5-3,7.6-2.9c-1.9-2.5-3.8-5-5.7-7.5c-1.8,6-6.2,10.3-12.1,12c2.5,1.9,5,3.8,7.5,5.7
						c0.4-3.9,2.7-7,5.9-9.1c-3-1.7-6-3.4-9-5.1c-0.4,3.2-4.2,2.1-6.4,3c-0.5,0-1,0-1.5-0.1c-0.1,1.2,0,1.5,0.5,0.8
						c0.4-0.6,1-1,1.6-1.3c1.7-0.8,1.8-1,0.4-0.6c-1.2-0.9-2.4-1.8-3.6-2.7c-0.5-1.1-2,1.2-2.3,1.6c2.9-3.8-4.6,6.2-2.3,0.8
						c-1,2.2,3,1.2,4.4,1.2c-1.4-3.4-2.8-6.8-4.2-10.2c-1.4,1.6-2.5,1.5-0.8,3.4c1.8,2,1.4,0.8,3.1-0.6c1.9-1.5,4.1-2.2,6.4-2.8
						c-2.4-1.4-4.9-2.8-7.3-4.2c3.7-0.6,3.4-2.8-0.9-6.4c-0.6,0.1-1.2,0.1-1.9,0.1c-1.7-0.1-3.1,0.6-4.2,2.3c0.5-1,0.1-1.6-1.2-1.6
						c1.5,1.9,2.9,3.8,4.4,5.7c-0.3,1.2-1.1,1.9-2.3,2c0,0.3,0.1,0.7,0.1,1c-1.7,2.4,1.6-0.3-1.7,2.4c-1.3,1.1-4.4,4.9-6.5,4
						c0.7,2.7,1.4,5.4,2.1,8.1c1.6-2.7,3.5-6,3.5-9.2c1.8-2.5,0.8-4.8-3-7c-0.9,0-1.8,0-2.8-0.2c2,2,4,4,6,6
						c0.4-4.3,0.8-10.7,4.8-13.3c4.3-2.8,5.6,1.7,7.4,4.9c2.2,3.9,5.2,6.6,9,8.8c2.8,1.6,8.3,3.5,5.2,7.5c-2.8,3.6-9.1,2.8-12.9,2.1
						c-5.3-0.9-10.4-1.6-15.7-2.3c-12.5-1.5,3.2-17,6-21.3C66.4,60,56.1,54.1,52,60.5L52,60.5z"/>
				</g>
			</g>
			<g class="st14">
				<g>
					<path class="st15" d="M73.8,62.4C61.5,47.6,38.2,80.5,56.9,86c4.4,1.3,8,2.6,12.1,4.6c4.4,2.1,8.3,1.6,12.2-1.1
						c3.1-2.2,5.5-5.3,5.4-9.3c-0.1-4.1-2.7-6.8-5.2-9.7c-2.5-2.8-3.6-6.5-7-8.5c-3.8-2.2-8.7-2.2-12.5-0.2
						c-6.2,3.2-12.2,13.8-5.1,19.1c7.8,5.9,17.1-6.2,9-12c-6.3-4.5-15.9,3.1-13,10.3c1.8,4.6,6.4,4.5,10.2,6.3
						c4.2,1.9,8.6,4.6,13.4,2.8c4-1.5,5.9-6.4,3.4-10.1c-2.8-4.3-10.7-6-15.2-7.9c-0.5,3.9-1.1,7.8-1.6,11.7
						c4.2,0.5,7.9,2.9,11.5,4.9c3.4,1.9,7.7,0.1,8.7-3.6c3.3-11.3-10.9-13.1-17.7-17.7c-1.5,3.6-3.1,7.3-4.6,10.9
						c3.6,0.6,6.8,1.6,10.1,3.4c4.9,2.7,9.6-1.7,8.7-6.7c-1.3-7.9-9.2-11.4-16.5-10.5c-7.5,0.9-7.6,12.8,0,11.9
						c2.2-0.3,4.6-0.8,5,1.7c2.9-2.2,5.8-4.5,8.7-6.7c-4.1-2.2-8.3-3.8-12.9-4.6c-6.6-1.1-10.4,7-4.6,10.9c2.2,1.4,4.4,2.7,6.7,3.7
						c0.9,0.4,1.9,0.8,2.9,1.2c0.7,0.3,1.5,0.5,2.2,0.8c1.1,0.6,1.2,0.1,0.5-1.5c2.9-1.2,5.8-2.4,8.7-3.6c-5.6-3.2-11-5.7-17.5-6.5
						c-2.9-0.4-5.5,2.6-5.8,5.2c-0.4,3.2,1.5,5.4,4.3,6.5c1.7,0.7,3.5,1.4,5.2,2.2c0.7,0.3,3.8,2.3,3.2,0.9
						c-0.2-1.5-0.4-3.1-0.6-4.6c-0.1,0.2-0.1,0.5-0.2,0.7c1.4-1.4,2.8-2.8,4.2-4.2c-1.6,0.6-5.6-2.3-7.1-2.9
						c-0.8-0.3-2.2-1.1-3.1-1.1c-1.8-0.6-1.9,0.4-0.5,3.1c1.5,3.2,0.6,4.3-2.7,3.2c-0.9-1.2-1.8-2.4-2.7-3.6
						c0.1,0.4,0.2,0.7,0.3,1.1c0.2-1.5,0.4-3.1,0.6-4.6c-0.2,0.3-0.4,0.6-0.6,1c1.2-0.9,2.4-1.8,3.6-2.7c1,0.2,2,0.5,3,0.7
						c0.6,1.4,1.2,2.8,1.7,4.2c-0.1-1.1,0.8-3,2.1-3.1c1.1-0.1,2,2.7,2.6,3.5c0.8,1.1,2.3,3.6,3.6,4.1c0.7,1.3,1.1,1.1,1.1-0.6
						c-0.4,0.7-0.9,0.8-1.3,0.3c-2.4-1.7-9.5-5.4-12.5-4.8c-2-0.7-1.8,0.1,0.7,2.4c0.3-1,0.7-2,1.2-3c0.4-0.9,1-1.7,1.8-2.4
						c1.5-0.6,1.7-1,0.6-0.9C70.3,76.7,78.7,68.2,73.8,62.4L73.8,62.4z"/>
				</g>
			</g>
			<g class="st14">
				<g>
					<path class="st15" d="M66.2,64.1c-4.1-0.4-10.2,1.2-10.1,6.4c0,2.7,1.8,4.8,4.4,5.6c1.9,0.6,3.8,0.5,5.7,0.7
						c-0.8-0.2-1.7-0.5-2.5-0.7c-0.2-0.1-1.2-1.6-0.7-0.6c0.3,0.5,0.7,1.1,1.2,1.5c0.8,0.8,1.9,1.5,3.1,1.7c3,0.6,6.1-1,6.9-4
						c0.7-2.3,0.1-4.7-1.5-6.4C71,66.7,69,66.4,67,65.7c-2.5-0.9-5.6,1-6.2,3.5c-0.6,2.8,0.9,5.2,3.5,6.2c0.5,0.2,1,0.3,1.5,0.4
						c0.2,0,0.3,0.1,0.5,0.1c-1.7-0.5-2.3-2.1-1.7-4.8c0.6-0.6,1.2-1.2,1.8-1.8c0.2-0.1,0.4-0.2,0.6-0.2c0.9,0,1.8,0,2.7,0
						c0.3,0.1,2,2.1,1.5,1c-0.2-0.5-0.7-1-1-1.4c-1-1-2.1-1.7-3.5-1.9c-0.6-0.1-1.9-0.1-2.1-0.1c0.3,0-0.6-0.1-0.7-0.1
						c-0.6-0.1-1.2-0.6-0.2,0c0.6,0.6,1.2,1.2,1.8,1.8c0-0.1-0.1-0.2-0.1-0.3c0.2,0.8,0.5,1.7,0.7,2.5c0-0.1,0-0.2,0-0.4
						c-0.2,0.8-0.5,1.7-0.7,2.5c-2.2,1.3-2.7,1.7-1.4,1.3c0.6-0.1,0.8-0.2,0.5-0.1c0.2,0,1.2,0,1.7,0.1c2.6,0.3,5.1-2.5,5-5
						C71.1,66.1,69,64.3,66.2,64.1L66.2,64.1z"/>
				</g>
			</g>
			<g class="st14">
				<g>
					<path class="st15" d="M67.3,69.8c-0.6-0.3-1.2-0.6-1.9-0.9c-0.5-0.2-0.9-0.4-1.4-0.5c-0.7,0-1.4,0.3-1.7,0.9
						c-0.3,0.5-0.4,1.1-0.2,1.6c0.1,0.6,0.5,1,1,1.3c0.4,0.3,0.9,0.3,1.4,0.4c0.3,0,0.7,0,1,0c-0.1,0-0.3,0-0.4-0.1
						c0.1,0,0.2,0.1,0.4,0.1c-0.1-0.1-0.2-0.1-0.4-0.2c0.1,0.1,0.2,0.1,0.3,0.2c-0.1-0.1-0.2-0.2-0.3-0.2c0.1,0.1,0.2,0.2,0.3,0.3
						c-0.1-0.1-0.2-0.2-0.2-0.3c0.1,0.1,0.1,0.2,0.2,0.4c-0.1-0.1-0.1-0.2-0.2-0.4c0,0.1,0.1,0.2,0.1,0.3c0-0.1,0-0.3-0.1-0.4
						c0,0,0,0,0,0.1c0.9-0.4,1.7-0.7,2.6-1.1c-0.8-0.7-1.6-1.3-2.3-2c-0.5,0.8-1,1.7-1.5,2.5c0.4,0.1,0.7,0.2,1.1,0.4
						c-0.1-0.1-0.2-0.1-0.4-0.2c0.6,0.3,1.2,0.6,1.8,1c-0.1-0.1-0.2-0.2-0.3-0.2c0,0,0.1,0.1,0.1,0.1c0.3,0.3,0.6,0.4,1.1,0.4
						c0.4,0,0.8-0.2,1.1-0.4c0.3-0.3,0.5-0.7,0.4-1.1c0-0.4-0.1-0.8-0.4-1.1c-0.5-0.4-1.1-0.8-1.7-1.1c-0.6-0.3-1.2-0.6-1.9-0.7
						c-0.6-0.2-1.4,0.1-1.7,0.7c-0.1,0.2-0.2,0.5-0.2,0.8c0,0.3,0.2,0.8,0.4,1.1c0.8,0.7,1.6,1.3,2.3,2c0.2,0.2,0.4,0.3,0.7,0.4
						c0.3,0.1,0.7,0.1,1-0.1c0.2-0.1,0.4-0.3,0.6-0.5c0.2-0.2,0.4-0.6,0.3-0.9c-0.1-0.5-0.2-1-0.5-1.4c-0.3-0.4-0.6-0.7-1-1
						c-0.4-0.3-0.9-0.4-1.4-0.4c-0.3,0-0.7,0-1,0c0.1,0,0.3,0,0.4,0.1c-0.1,0-0.2,0-0.4-0.1c0.1,0.1,0.2,0.1,0.4,0.2
						c-0.1,0-0.2-0.1-0.2-0.1c0.1,0.1,0.2,0.2,0.3,0.2c0,0-0.1-0.1-0.1-0.1c0.1,0.1,0.2,0.2,0.2,0.3c0-0.1-0.1-0.1-0.1-0.2
						c0.1,0.1,0.1,0.2,0.2,0.4c0-0.1,0-0.1,0-0.2c0,0.1,0,0.3,0.1,0.4c0,0,0-0.1,0-0.1c0,0.1,0,0.3-0.1,0.4c0,0,0-0.1,0-0.1
						c-0.1,0.1-0.1,0.2-0.2,0.4c0,0,0-0.1,0.1-0.1c-0.1,0.1-0.2,0.2-0.2,0.3c0,0,0,0,0.1-0.1c-0.1,0.1-0.2,0.2-0.3,0.2
						c0,0,0.1-0.1,0.1-0.1c-0.1,0.1-0.2,0.1-0.4,0.2c0,0,0.1,0,0.1,0c-0.1,0-0.3,0-0.4,0.1c0.1,0,0.1,0,0.2,0c-0.1,0-0.3,0-0.4-0.1
						c0.1,0,0.2,0.1,0.3,0.1c-0.1-0.1-0.2-0.1-0.4-0.2c0.7,0.3,1.4,0.7,2.1,1.1c0.4,0.2,0.8,0.3,1.2,0.2c0.3-0.1,0.7-0.4,0.9-0.7
						c0.2-0.3,0.3-0.8,0.2-1.2C67.9,70.3,67.6,70,67.3,69.8L67.3,69.8z"/>
				</g>
			</g>
			<g class="st14">
				<g>
					<path class="st15" d="M66.5,68.4c-0.8-0.4-1.7-0.5-2.6-0.4c-0.7,0.1-1.5,0.5-2,1c-0.5,0.6-0.7,1.4-0.3,2.2
						c0.2,0.4,0.5,0.7,0.8,0.9c0.5,0.5,1.2,0.9,1.8,1.3c0.7,0.4,1.5,0.8,2.4,0.8c1,0.1,2-0.4,2.5-1.3c0.5-1,0.2-2.1-0.6-2.9
						c-0.6-0.5-1.1-1-1.7-1.4c-0.6-0.5-1.3-0.8-2-0.6c-0.9,0.3-1.5,1.2-1.2,2.1c0.2,0.6,0.6,0.9,1,1.3c0.3,0.3,0.6,0.5,1,0.8
						c0.3,0.3,0.6,0.4,1.1,0.4c0.4,0,0.8-0.2,1.1-0.4c0.5-0.6,0.6-1.5,0-2.1c-1.1-1.1-2.6-1.4-4.1-1.2c-0.6,0.1-1,0.7-1.1,1.2
						c-0.1,0.6,0.2,1.2,0.7,1.5c1,0.5,2,0.9,3,1.3c0.7,0.3,1.7-0.3,1.8-1c0.1-0.4,0.1-0.8-0.2-1.2c-0.2-0.3-0.5-0.5-0.9-0.7
						c-0.3-0.1-0.7-0.3-1-0.4c-0.3,1-0.5,1.9-0.8,2.9c0.6,0.2,1.2,0.4,1.8,0.6c0.7,0.2,1.7-0.3,1.8-1c0.2-0.8-0.2-1.6-1-1.8
						c-0.6-0.2-1.2-0.4-1.8-0.6c-0.7-0.2-1.7,0.3-1.8,1C64,71.2,64,71.7,64.2,72c0.2,0.3,0.5,0.5,0.9,0.7c0.3,0.1,0.7,0.3,1,0.4
						c0.3-1,0.5-1.9,0.8-2.9c-0.3-0.1-0.7-0.3-1-0.4c0.1,0.1,0.2,0.1,0.4,0.2c-0.5-0.2-1.1-0.5-1.6-0.8c-0.1,0.9-0.2,1.8-0.4,2.7
						c0.1,0,0.1,0,0.2,0c-0.1,0-0.3,0-0.4,0.1c0.3,0,0.5,0,0.8,0c-0.1,0-0.3,0-0.4-0.1c0.3,0,0.5,0.1,0.8,0.2
						c-0.1-0.1-0.2-0.1-0.4-0.2c0.1,0.1,0.3,0.1,0.4,0.2c0,0,0.3,0.2,0.1,0c-0.2-0.2,0,0,0.1,0.1c0.7-0.7,1.4-1.4,2.1-2.1
						c-0.3-0.2-0.5-0.4-0.8-0.7c-0.1-0.1-0.2-0.2-0.4-0.3c-0.1-0.1-0.1-0.1-0.2-0.2c-0.1-0.1-0.2-0.2,0,0.1c0.1,0.1,0.1,0.2,0.2,0.4
						c0,0,0,0,0-0.1c0,0.1,0,0.3,0.1,0.4c0,0,0,0,0-0.1c0,0.1,0,0.3-0.1,0.4c0,0,0,0,0-0.1c-0.1,0.1-0.1,0.2-0.2,0.4
						c-0.5,0.4-0.6,0.5-0.4,0.4c-0.1,0.1-0.2,0.1-0.4,0.2c0,0,0,0,0.1,0c-0.1,0-0.3,0-0.4,0.1c0,0,0.1,0,0.1,0c-0.1,0-0.3,0-0.4-0.1
						c0,0,0.1,0,0.1,0c-0.1-0.1-0.2-0.1-0.4-0.2c0,0,0.1,0.1,0.1,0.1c0,0-0.3-0.2-0.1-0.1c0.1,0.1,0.2,0.2,0.3,0.3
						c0.2,0.2,0.4,0.4,0.6,0.5c0.2,0.2,0.4,0.3,0.6,0.5c0.1,0.1,0.2,0.1,0.3,0.2c0,0,0.1,0.1,0.1,0.1c0.1,0.1-0.2-0.3-0.1-0.1
						c-0.1-0.1-0.1-0.2-0.2-0.4c0,0.1,0,0.1,0.1,0.2c0-0.1,0-0.3-0.1-0.4c0,0.1,0,0.1,0,0.2c0-0.1,0-0.3,0.1-0.4
						c0,0.1,0,0.1-0.1,0.2c0.1-0.1,0.1-0.2,0.2-0.4c0,0-0.1,0.1-0.1,0.1c0,0,0.3-0.3,0.1-0.1c-0.1,0.1,0.3-0.2,0.1-0.1
						c-0.1,0-0.1,0.1-0.2,0.1c0.1-0.1,0.2-0.1,0.4-0.2c-0.1,0-0.2,0.1-0.3,0.1c0.1,0,0.3,0,0.4-0.1c-0.1,0-0.3,0-0.4,0
						c0.1,0,0.3,0,0.4,0.1c-0.3,0-0.5-0.1-0.8-0.2c0.1,0.1,0.2,0.1,0.4,0.2c-0.5-0.2-1-0.5-1.5-0.8c-0.1,0-0.1-0.1-0.2-0.1
						c-0.2-0.2,0.2,0.2,0.1,0.1c-0.1-0.1-0.2-0.2-0.3-0.3c-0.1-0.1-0.2-0.2-0.3-0.3c0,0-0.1-0.1-0.1-0.1c-0.2-0.2,0.2,0.3,0.1,0.1
						c0.1,0.1,0.1,0.2,0.2,0.4c0,0,0,0,0-0.1c0,0.1,0,0.3,0.1,0.4c0,0,0,0,0-0.1c0,0.1,0,0.3-0.1,0.4c0,0,0-0.1,0-0.1
						c-0.1,0.1-0.1,0.2-0.2,0.4c-0.2,0.2-0.2,0.2-0.1,0.2c0,0,0.1-0.1,0.1-0.1c0,0-0.3,0.2-0.1,0.1c0.1-0.1,0.2-0.1,0.4-0.2
						c-0.1,0.1-0.2,0.1-0.4,0.2c0.2-0.1,0.4-0.1,0.6-0.2c-0.1,0-0.3,0-0.4,0.1c0.2,0,0.5,0,0.7,0c-0.1,0-0.3,0-0.4-0.1
						c0.2,0,0.4,0.1,0.6,0.2C65.1,71,65,71,64.9,70.9c0,0,0.1,0,0.1,0.1c0.4,0.2,0.7,0.3,1.2,0.2c0.3-0.1,0.7-0.4,0.9-0.7
						C67.4,69.8,67.3,68.7,66.5,68.4L66.5,68.4z"/>
				</g>
			</g>
			<g class="st16">
				<g>
					<path class="st15" d="M65.2,72.4C65.2,72.4,65.2,72.4,65.2,72.4c-0.1,0-0.2,0-0.4-0.1c0,0,0.1,0,0.1,0
						c-0.1-0.1-0.2-0.1-0.4-0.2c0.1,0,0.1,0.1,0.2,0.1c-0.1-0.1-0.2-0.2-0.3-0.2c0.1,0.1,0.3,0.2,0.4,0.3c0.1,0.1,0.2,0.1,0.3,0.1
						c0.1,0,0.2,0.1,0.2,0.1c0.1,0,0.2,0,0.2,0c0,0,0.2,0,0.2,0c0.2,0,0.3,0,0.5-0.1c0.1,0,0.2-0.1,0.2-0.1c0,0,0.1-0.1,0.2-0.1
						c0,0,0,0,0,0c0.1,0,0.3-0.2,0.3-0.2c0,0,0,0,0,0c0,0,0.2-0.3,0.2-0.3c0-0.1,0.1-0.1,0.1-0.2c0-0.1,0.1-0.1,0.1-0.2
						c0,0,0.1-0.4,0.1-0.4c0,0,0,0,0,0c0-0.1,0-0.4-0.1-0.4c0,0,0,0,0,0c0-0.1-0.1-0.3-0.2-0.4c0,0-0.2-0.3-0.2-0.3c0,0,0,0,0,0
						c-0.1-0.1-0.2-0.2-0.3-0.2c0,0,0,0,0,0c0,0,0,0-0.1,0c-0.1-0.1-0.3-0.1-0.4-0.2c-0.1,0-0.2-0.1-0.3-0.1
						c-0.2-0.1-0.5-0.1-0.7-0.1c-0.2,0-0.4,0-0.6,0c0,0-0.1,0-0.1,0c0,0,0,0,0,0c-0.1,0-0.3,0.1-0.4,0.2c0,0,0,0,0,0
						c-0.1,0-0.3,0.2-0.3,0.2c0,0,0,0,0,0c0,0,0,0,0,0c0,0-0.2,0.3-0.2,0.3c-0.1,0.1-0.1,0.3-0.2,0.4c0,0-0.1,0.4-0.1,0.4
						c0,0,0,0,0,0c0,0,0,0.4,0.1,0.4c0,0,0,0,0,0c0,0.1,0.1,0.3,0.2,0.4c0,0,0,0,0,0c0,0,0,0,0,0c0,0.1,0.2,0.3,0.2,0.3c0,0,0,0,0,0
						c0.1,0.1,0.2,0.2,0.3,0.3c0,0,0.1,0,0.1,0.1c0.3,0.2,0.6,0.3,0.9,0.4c0,0,0.1,0,0.1,0c0.1,0,0.4,0.1,0.4,0.1c0.1,0,0.2,0,0.3,0
						c0.1,0,0.2,0,0.2,0c0,0,0.3-0.1,0.4-0.2c0,0,0,0,0,0c0,0,0.3-0.2,0.3-0.2c0,0,0,0,0,0c0.1-0.1,0.2-0.2,0.2-0.3c0,0,0,0,0,0
						c0,0,0,0,0,0c0.1-0.1,0.1-0.2,0.2-0.4c0.1-0.3,0.1-0.4,0-0.7c0-0.1,0-0.2,0-0.3c0,0,0,0,0,0c0-0.1-0.1-0.3-0.2-0.4
						c0-0.1-0.1-0.2-0.2-0.3c-0.1-0.1-0.1-0.2-0.2-0.2c-0.1-0.1-0.2-0.2-0.3-0.3c0,0,0,0-0.1,0c-0.1-0.1-0.3-0.1-0.5-0.2
						c0,0-0.1,0-0.1,0c-0.1,0-0.2,0-0.3,0c-0.1,0-0.2,0-0.3,0c-0.2,0-0.4,0-0.6,0.1c-0.2,0.1-0.3,0.2-0.5,0.3
						c-0.1,0.1-0.2,0.3-0.3,0.5c-0.1,0.2-0.1,0.4-0.1,0.6c0,0.1,0,0.3,0.1,0.4c0.1,0.3,0.2,0.5,0.4,0.7c0.1,0.1,0.2,0.2,0.3,0.2
						c0.2,0.1,0.5,0.2,0.8,0.2c0,0,0,0,0.1,0c-0.1,0-0.3,0-0.4-0.1c0.1,0,0.1,0,0.2,0.1c-0.1-0.1-0.2-0.1-0.4-0.2
						c0.1,0,0.1,0.1,0.2,0.1c-0.1-0.1-0.2-0.2-0.3-0.2c0,0,0.1,0.1,0.1,0.1c-0.1-0.1-0.2-0.2-0.2-0.3c0,0,0.1,0.1,0.1,0.1
						c-0.1-0.1-0.1-0.2-0.2-0.4c0,0,0,0.1,0,0.1c0-0.1,0-0.3-0.1-0.4c0,0,0,0,0,0.1c0-0.1,0-0.3,0.1-0.4c0,0,0,0,0,0
						c0.1-0.1,0.1-0.2,0.2-0.4c0,0,0,0,0,0c0.1-0.1,0.2-0.2,0.2-0.3c0,0,0,0,0,0c0.1-0.1,0.2-0.2,0.3-0.2c0,0,0,0,0,0
						c0.1-0.1,0.2-0.1,0.4-0.2c0,0,0,0,0,0c0.1,0,0.3,0,0.4-0.1c0,0,0,0-0.1,0c0.1,0,0.3,0,0.4,0.1c-0.1,0-0.1,0-0.2-0.1
						c0.1,0.1,0.2,0.1,0.4,0.2C66.1,70,66,70,65.9,69.9c-0.1-0.1-0.2-0.1-0.3-0.2c0.1,0.1,0.2,0.2,0.3,0.2c0,0,0,0,0,0
						c0.1,0.1,0.2,0.2,0.2,0.3c0,0,0,0,0-0.1c0.1,0.1,0.1,0.2,0.2,0.4c0,0,0,0,0,0c0,0.1,0,0.3,0.1,0.4c0,0,0,0,0,0
						c0,0.1,0,0.3-0.1,0.4c0,0,0,0,0,0c-0.1,0.1-0.1,0.2-0.2,0.4c0,0,0,0,0,0c-0.1,0.1-0.2,0.2-0.2,0.3c0,0,0,0,0,0
						c-0.1,0.1-0.2,0.2-0.3,0.2c0,0,0,0,0.1,0c-0.1,0.1-0.2,0.1-0.4,0.2c0,0,0.1,0,0.1,0c-0.1,0-0.3,0-0.4,0.1c0.1,0,0.2,0,0.3,0
						c-0.1,0-0.3,0-0.4-0.1c0.2,0,0.3,0.1,0.5,0.1c-0.1-0.1-0.2-0.1-0.4-0.2c0,0,0.1,0,0.1,0.1C65.1,72.1,65,72,64.8,72c0,0,0,0,0,0
						c-0.1-0.1-0.2-0.2-0.2-0.3c0,0,0,0,0,0c-0.1-0.1-0.1-0.2-0.2-0.4c0,0,0,0,0,0c0-0.1,0-0.3-0.1-0.4c0,0,0,0,0,0
						c0-0.1,0-0.3,0.1-0.4c0,0,0,0,0,0c0.1-0.1,0.1-0.2,0.2-0.4c0,0,0,0,0,0c0.1-0.1,0.2-0.2,0.2-0.3c0,0,0,0,0,0
						c0.1-0.1,0.2-0.2,0.3-0.2c0,0,0,0,0,0c0.1-0.1,0.2-0.1,0.4-0.2c0,0,0,0-0.1,0c0.1,0,0.3,0,0.4-0.1c0,0,0,0-0.1,0
						c0.1,0,0.3,0,0.4,0.1c0,0-0.1,0-0.1,0c0.1,0.1,0.2,0.1,0.4,0.2c-0.1,0-0.1-0.1-0.2-0.1c0.1,0.1,0.2,0.2,0.3,0.2
						c-0.1-0.1-0.2-0.2-0.4-0.3c0,0-0.1,0-0.1-0.1c0,0,0,0,0,0c-0.1-0.1-0.3-0.1-0.4-0.2c0,0,0,0,0,0c-0.1,0-0.3,0-0.4-0.1
						c0,0,0,0,0,0c-0.2,0-0.4,0-0.6,0.1c-0.2,0.1-0.3,0.2-0.5,0.3c-0.1,0.1-0.2,0.3-0.3,0.5c-0.1,0.2-0.1,0.4-0.1,0.6
						c0,0.1,0,0.3,0.1,0.4c0.1,0.3,0.2,0.5,0.4,0.7c0.1,0.1,0.2,0.2,0.3,0.2C64.6,72.3,64.9,72.4,65.2,72.4L65.2,72.4z"/>
				</g>
			</g>
			<g class="st14">
				<g>
					<path class="st15" d="M64.5,88.3c-2.1-0.7-4.3-1.2-6.5-1.5c-0.9-0.1-1.8-0.2-2.7,0.2c-1,0.5-1.5,1.7-1.2,2.8
						c0.3,1,1.1,1.6,1.9,2.2c1,0.6,2,1.3,3,1.9c1.8,1.2,3.6,2.5,5.6,3.4c2.1,1,4.2,1.2,6.5,1c0.9-0.1,1.9-0.2,2.6-0.9
						c0.7-0.8,0.9-1.8,0.7-2.8c-0.3-1.9-1.9-3.3-3.4-4.2c-1.9-1.1-4.1-1.5-6.1-2c-1.2-0.3-2.4-0.6-3.6-0.9c-1.1-0.3-2.4-0.8-3.6-0.5
						c-1.2,0.3-2,1.6-1.7,2.9c0.3,1.2,1.2,1.9,2.3,2.2c1.4,0.4,2.5-1.5,1.5-2.5c-0.6-0.6-1.3-1-2.1-1.2c-1.7-0.4-2.5,1.8-1.2,2.7
						c0.7,0.5,1.5,0.7,2.3,0.7c0.8,0,1.5-0.7,1.5-1.5c0-1.7-1.5-2.8-3.2-2.4c-0.8,0.2-1.2,1.1-1,1.8c0.4,1.6,1.7,2.8,3.4,2.9
						c1.7,0.2,3.6-1.4,2.5-3.2c-1.1-1.8-3.8-0.9-4,1.1c-0.1,1.8,1.8,3,3.5,2.5c1.6-0.5,2.5-2.2,1.8-3.7c-0.6-1.6-2.5-2.3-4-1.4
						c-1.5,0.9-1.8,2.8-0.8,4.2c1,1.3,2.8,1.8,4.2,1c1.4-0.7,2-2.5,0.9-3.8c-1-1.2-3-1.3-4.1-0.1c-1.1,1.2-0.9,3.1,0.2,4.2
						c1.2,1.2,3.1,1.3,4.5,0.5c1.4-0.8,2.1-2.8,0.9-4.1c-1-1.1-2.9-1.1-4,0c-2.6,2.8,1.6,7.4,4.5,4.8c1.2-1.1,1.3-3.2-0.2-4.2
						c-1.3-0.9-3.2-0.6-4,0.8c-0.8,1.4-0.3,3.4,1.1,4.2c1.5,0.8,3.4,0.3,4.3-1c0.9-1.3,1-3.5-0.5-4.5c-1.6-1-3.3,0.2-4.2,1.5
						c-0.8,1.3-1.4,3.1-0.1,4.4c1.4,1.3,3.3,0.6,4.6-0.5c1.1-1,2.4-2.8,1.6-4.3c-1-1.8-3.2-1-4,0.5c-0.9,1.5-1,3.4,0.2,4.8
						c1.1,1.3,3,1.5,4.3,0.4c1.3-1,1.7-2.9,1-4.3c-0.7-1.4-2.4-2.1-3.9-1.6c-1.6,0.5-2.3,2.3-1.8,3.9c0.6,1.6,2.2,2.4,3.8,2
						c1.5-0.4,2.7-1.8,2.6-3.3c-0.1-1.9-2.1-2.9-3.7-2c-1.5,0.8-2.1,2.7-1.6,4.3c0.5,1.6,2,2.6,3.6,2.5c1.6,0,3-1.2,3.3-2.7
						c0.4-1.5-0.4-3.6-2.2-3.7c-1.7-0.1-2.9,1.8-2.8,3.3c0.1,1.8,2,2.9,3.6,2c1.7-0.9,1.7-2.9,1.2-4.5c-0.4-1.4-2.5-1.5-2.9,0
						c-0.4,1.7-0.6,4.9,1.7,5.3c1,0.2,1.9-0.5,2.2-1.5c0.1-0.4,0.2-0.9,0-1.4c-0.1-0.3-0.4-0.7-0.4-1.1c0-1.4-2.2-2.2-2.8-0.8
						c-0.4,1-0.5,2.1,0.2,3c0.6,0.8,2.1,1.1,2.6,0c0.9-2,0.1-4.6-2.4-4.8c-2.1-0.1-3.6,2.3-2.5,4.1c0.5,0.8,1.7,1,2.4,0.3
						c1.1-1.2,0.9-3.1-0.5-4c-1.6-0.9-3.5,0.3-3.6,2c-0.2,1.9,2.2,3.5,3.7,2c0.7-0.7,0.8-1.8,0.3-2.6c-0.5-0.8-1.3-1.2-2.2-1.4
						c-1.6-0.3-2.8,1.9-1.2,2.7c1.1,0.6,2.4,0.3,3.1-0.8c0.7-1.1,0.2-2.4-0.5-3.3c-0.6,0.8-1.2,1.6-1.8,2.4c1.5,1.1,2.8,2.5,3.9,4.1
						c0.6-0.7,1.1-1.5,1.7-2.2c-3.2-1.1-6-3-9-4.5c-1.5-0.8-3-1.5-4.7-2c-0.8-0.2-1.7-0.5-2.6-0.5c-1,0.1-1.9,0.9-1.7,1.9
						c0.1,0.8,0.6,1.5,1.5,1.5c0.1,0,0.3,0,0.4,0c1.9,0.1,1.9-2.9,0-3c-0.1,0-0.3,0-0.4,0c0.5,0.5,1,1,1.5,1.5c0-0.1,0-0.1,0-0.2
						c-0.1,0.3-0.1,0.5-0.2,0.8c0,0,0-0.1,0.1-0.1c-0.2,0.2-0.4,0.4-0.5,0.5c-0.3,0.1-0.3,0.1,0,0.1c0.2,0,0.4,0.1,0.5,0.1
						c0.4,0.1,0.7,0.2,1.1,0.3c0.6,0.2,1.1,0.4,1.7,0.6c1.3,0.6,2.6,1.3,3.8,2c2.5,1.4,5,2.8,7.7,3.8c1.2,0.4,2.4-1.1,1.7-2.2
						c-1.4-2-3-3.7-5-5.1c-0.6-0.4-1.5-0.1-1.9,0.4c-0.5,0.6-0.4,1.4,0.1,2c0.1,0.2,0.2,0.1,0.3-0.3c0.3-0.3,0.3-0.4,0-0.3
						c0.3,0,0.5,0,0.8,0c0,0,0,0,0,0c-0.4,0.9-0.8,1.8-1.2,2.7c0.2,0,0.3,0.1,0.5,0.1c-0.1-0.1-0.2-0.2-0.2-0.3
						c0.1-0.3,0.1-0.5,0.2-0.8c0,0,0,0,0,0c0.2-0.1,0.4-0.3,0.7-0.4c0.9-0.4,1.1,1.8,0,1c-0.3-0.2-0.3-0.5-0.1-0.7
						c0.8,0.1,1.6,0.2,2.4,0.3c0.1,0.2-0.3,0.4-0.3,0.4c0,0,0,0,0,0c0,0,0,0.2,0,0.3c0.9,0,1.7,0,2.6,0c-0.2-0.3-0.1-0.1-0.2,0.1
						c-0.9-0.3-1.9-0.5-2.8-0.8c0,0.5,0.1,0.9,0.3,1.3c0,0.1,0.1,0.4,0.2,0.5c0,0,0.1-0.5,0.3-0.5c0.3-0.1,0.5-0.1,0.8-0.2
						c0,0,0,0,0,0c0.2,0.1,0.4,0.3,0.7,0.4c0.1,0.1,0,0.2,0,0c0-0.2-0.1-0.4-0.1-0.6c0-0.4,0-0.8,0.1-1.2c-1,0-1.9,0-2.9,0
						c0.1,0.3,0.1,0.8,0.2,1.1c0,0,0,0,0,0c0.2-0.1,0.5-0.1,0.7,0.3c0,0,0.2,0.1,0.1,0.1c0-0.1,0-0.2,0.1-0.2c-0.3,0-0.7,0-1,0
						c0,0,0,0.1,0,0.1c-0.1,0.2,0,0.4-0.3,0.5c-0.4,0.2-0.8-0.2-0.9-0.6c0-0.2,0.2-0.4,0.2-0.5c0,0.1-0.5-0.5-0.7-0.4
						c0,0,0,0.1,0,0.1c-0.3,0.1-0.3,0.1-0.6,0c-0.1,0,0-0.1,0-0.1c0,0-0.1,0-0.1,0.1c0,0,0.1-0.1,0.1,0c0.1,0.1,0.2,0,0.2,0.2
						c0.1,0.2,0,0.4-0.1,0.5c-0.1,0.1-0.2,0.1-0.2,0.1c-0.3-0.1-0.3-0.5-0.3-0.8c0-0.2,0.1-0.3,0.2-0.5c0.1-0.6,0.4,0.1-0.4-0.1
						c-0.2-0.1-0.4-0.3-0.7-0.4c0,0,0,0,0,0c-0.1-0.3-0.1-0.5-0.2-0.8c0,0.4-0.4,0.8-0.7,1.1c-0.2,0.2-0.4,0.3-0.6,0.5
						c-0.2,0.2-0.2,0-0.1,0.2c0.2,0.1,0.2,0.2,0.2,0.3c0,0.2,0,0.1,0.1-0.2c0.2-0.3,0.3-0.5,0.5-0.8c0,0,0.4-0.5,0.4-0.4
						c0,0.2-0.6-0.3-0.6-0.3c-0.1,0-0.1,0.4-0.2,0.5c-0.1,0.1-0.1,0.1-0.2,0.1c-0.1,0.1-0.3-0.1-0.2,0c-0.2,0,0.1,0.3-0.3,0.1
						c-0.1-0.1-0.2-0.4-0.2-0.4c0-0.1,0.1-0.1,0.2-0.1c0-0.1-0.3-0.1-0.4-0.3c0,0,0-0.2,0-0.2c0-0.1,0-0.1,0,0
						c-0.1,0.1-0.1,0.1-0.3,0.1c-0.3,0-0.2-0.4-0.3-0.5c0.1-0.2,0-0.2,0-0.1c0,0-0.1,0.1-0.1,0.1c-0.1,0-0.3,0.1-0.4,0.1
						c-0.2,0-0.3-0.2-0.5-0.2c-0.1,0-0.3,0.1-0.4,0.1c-0.4-0.1-0.1-0.7-0.2-0.8c0,0-0.5-0.2-0.3-0.1c0,0,0,0-0.1-0.1
						c0-0.1-0.1-0.1,0,0.1c0,0-0.1,0.1-0.1,0.1c0.1,0-0.3-0.2-0.2,0c0-0.1,0-0.3,0-0.3c0.2-0.2,0.8,0.5,0.4,0.8
						c-0.2,0.1-0.4,0.3-0.7,0.4c0,0,0,0,0,0c-0.3-0.1-0.5-0.1-0.8-0.2c0,0-0.1-0.1-0.1-0.1c-0.1-0.3-0.1-0.5-0.2-0.8
						c0,0.1,0,0.1,0,0.2c0.1-0.3,0.1-0.5,0.2-0.8c0.1-0.1,0.3-0.1,0.4-0.2c-0.1,0-0.2,0-0.3,0c-0.1-0.1-0.2,0-0.3-0.2
						c-0.2-0.2-0.3-0.3-0.4-0.6c-0.3,0.6-0.7,1.2-1,1.8c-0.4,0-0.6-0.1-0.6-0.5c0.5-0.5,1-1,1.5-1.5c-0.4,0-0.5-0.1-0.8-0.3
						c-0.4,0.9-0.8,1.8-1.2,2.7c0.3,0.1,0.5,0.2,0.8,0.4c0.5-0.8,1-1.7,1.5-2.5c-0.4-0.1-0.2-0.2-0.4,0.3c-0.3,0.5-0.3,0.4,0.1,0.5
						c0.8,0.2,1.5,0.4,2.3,0.6c1.5,0.4,3.1,0.8,4.6,1.2c1.3,0.3,2.6,0.6,3.8,1.3c0.8,0.4,1.8,1.2,2,2.1c0,0.1,0,0.3,0,0.4
						c0-0.2,0.4-0.2-0.1-0.1c-0.7,0.1-1.4,0.1-2,0.1c-1.4,0-2.6-0.4-3.9-1c-2.6-1.4-5.1-3.1-7.5-4.7c-0.2-0.1-0.5-0.4-0.7-0.5
						c-0.1-0.1-0.1-0.1-0.2-0.2c0,0,0,0,0,0c-0.1,0-0.3,0.7-0.3,0.6c0,0.1,0.9,0,1,0.1c0.4,0,0.8,0.1,1.2,0.2
						c1.7,0.3,3.3,0.7,4.9,1.3C65.6,91.9,66.4,89,64.5,88.3L64.5,88.3z"/>
				</g>
			</g>
			<g class="st14">
				<g>
					<path class="st15" d="M86.1,86.7c-2.5,0.9-5.6,2.2-6,5.2c-0.2,1.4,0.1,3,1.3,3.9c1.2,1,2.8,1.2,4.2,0.7
						c1.3-0.5,2.4-1.4,3.4-2.4c0.9-0.9,2-2,2.2-3.4c0.3-1.6-0.3-3.1-1.5-4.1c-1.2-0.9-2.8-1.1-4.2-0.5c-1.2,0.5-2.4,1.7-3,2.8
						c-0.4,0.7-0.6,1.6-0.4,2.4c0.3,1,1.1,1.6,2.1,1.7c1,0,1.8-0.6,2.1-1.5c0.3-1-0.2-2-1.1-2.5c-0.8-0.5-1.9-0.3-2.7,0.2
						c-0.6,0.4-1,1-1.4,1.5c-0.7,0.8-1,1.8-0.4,2.8c0.5,0.8,1.4,1.2,2.3,1.2c1.5-0.1,3.3-0.9,3.9-2.4c0.6-1.6-0.5-3.5-2.3-3.4
						c-1.6,0.1-3.1,1.6-3.2,3.3c-0.2,1.8,1.6,3,3.2,2.7c1.5-0.2,3.6-1.5,3.3-3.3c-0.1-1-1.1-1.7-2.1-1.7c-0.8,0-1.6,0.5-2.1,1
						c-1.2,1.1-1.8,3.2-0.3,4.4c1.4,1.1,3.5,0.2,4.2-1.3c0.7-1.4,0.3-3.3-1.1-4.1c-1.5-0.8-3.5-0.1-4,1.6c-0.5,1.6,0.6,3.4,2.3,3.7
						c3.2,0.7,5.7-2.7,5.7-5.6c0-0.9-0.4-1.8-1.2-2.3c-0.8-0.4-1.8-0.3-2.6,0.2c-1.3,0.9-2.6,2.5-1.7,4.1c0.5,0.9,1.6,1.2,2.6,0.9
						c0.8-0.3,1.4-0.9,1.9-1.6c0.9-1.2,1.6-3.7-0.2-4.5c-1.7-0.7-3.1,1.4-3.8,2.6c-0.6,1.2-1.6,3.2-0.7,4.4c1.3,1.7,3.7,0,4.5-1.4
						c0.4-0.7,0.5-1.6,0.3-2.4c-0.3-0.9-1-1.5-1.9-1.7c-1.6-0.3-3.3,0.8-3.7,2.4c-0.2,0.9,0,1.8,0.7,2.4c0.7,0.6,1.6,0.8,2.4,0.4
						c1.5-0.6,2.2-2.3,2.2-3.9c0-1-0.5-1.9-1.5-2.3c-0.7-0.3-1.6-0.1-2.2,0.3c-1.4,1-1.8,3.1-0.6,4.4c1,1.1,2.9,1.2,4,0.2
						c1.2-1.1,0.9-3.3-0.6-4c-0.7-0.3-1.7-0.2-2.1,0.5c-0.4,0.7-0.2,1.7,0.5,2.1c0.2,0.1,0,0-0.1-0.1c0.2,0.2,0,0-0.1-0.1
						c0,0.1,0.1,0.3,0-0.1c0,0.1,0,0.3,0-0.1c0,0.1-0.1,0.2,0-0.1c0,0,0.2-0.3,0-0.1c0,0,0.2-0.2,0.1-0.1c-0.1,0.1,0.3-0.2,0-0.1
						c0.3-0.2,0.2-0.1,0.1-0.1c0.4-0.1,0.2,0,0.1,0c-0.3,0,0.1,0,0.1,0c0,0-0.2,0-0.2-0.1c0,0,0.3,0.2,0.1,0c0,0,0.3,0.2,0.1,0
						c0,0,0.2,0.2,0.1,0.1c-0.1-0.1,0.1,0.3,0,0c0,0.1,0,0.1,0,0.2c0,0,0-0.1,0-0.1c0,0,0-0.1,0-0.1c0,0.1,0,0.1,0,0.2
						c0,0,0-0.2,0.1-0.2c0,0-0.1,0.3,0,0.1c0-0.1,0.2-0.2,0,0c0.1-0.1,0.2-0.2-0.1,0c0.1-0.1,0.2-0.1-0.1,0c0.2-0.1,0,0-0.1,0
						c0.3,0-0.1,0-0.1,0c-0.2,0-0.4-0.2-0.5-0.4c0,0-0.2-0.3-0.1-0.3c0,0,0,0.2,0,0.2c0,0.1,0.1,0.2,0-0.1c0,0,0,0.2,0,0.2
						c0,0.2-0.1,0.4-0.1,0.6c0,0.1,0,0.1-0.1,0.2c0.1-0.3,0-0.1,0,0c-0.2,0.3,0,0,0,0c0,0,0,0-0.1,0.1c0,0,0.1-0.1,0.1-0.1
						c-0.2,0.1,0,0,0.1,0c-0.1,0-0.2,0,0.1,0c-0.1,0-0.2-0.1,0.1,0c0.1,0,0.3,0.1,0.4,0.3c0.1,0.1,0.1,0.2,0.1,0.3
						c0.1,0.2,0,0.1,0,0c-0.1,0.4,0,0.1,0,0.1c0-0.3,0,0.1,0,0c0,0,0.1-0.2,0.1-0.2c0,0-0.2,0.3,0,0c0-0.1,0.2-0.2,0,0
						c0,0,0.3-0.2,0.1-0.1c-0.2,0.1,0,0,0.1,0c0.2-0.1-0.1,0-0.1,0c0.2,0,0,0-0.1,0c0.2,0,0,0,0,0c-0.2-0.1-0.1-0.1,0,0
						c-0.1-0.1-0.1-0.1-0.1-0.3c0,0.1,0,0.3,0,0c0,0.3,0-0.1,0,0c-0.1,0.2,0.1-0.2,0,0c0,0-0.2,0.3-0.1,0.1c0.1-0.1,0,0-0.1,0.1
						c-0.1,0.1-0.1,0.1-0.2,0.2c-0.1,0.1-0.3,0.2-0.4,0.4c0.2-0.2,0,0,0,0c0,0,0.1,0,0.1,0c0.9,1.2,1.3,1.6,1.3,1
						c0-0.2-0.1,0.3,0,0.1c0-0.1,0.1-0.2,0.1-0.3c0.1-0.2,0.1-0.4,0.2-0.6c0-0.1,0.1-0.2,0.1-0.2c0.1-0.2-0.1,0.2,0-0.1
						c0.1-0.2,0.2-0.4,0.3-0.5c0.1-0.2,0.2-0.3,0.3-0.5c0-0.1,0.1-0.1,0.1-0.2c0,0,0.2-0.3,0.1-0.2c-0.1,0.1,0.1-0.1,0.1-0.1
						c0.1-0.1,0.1-0.2,0.2-0.2c0.1-0.1,0.1-0.1,0.2-0.2c0.2-0.3-0.3,0.2-0.5,0.2c-0.3-0.1-0.5-0.1-0.8-0.2c-0.2-0.3-0.3-0.6-0.5-0.9
						c0,0.2,0,0.1,0,0c0,0.1-0.1,0.2-0.1,0.4c0,0.1-0.2,0.4,0,0.1c-0.1,0.1-0.1,0.2-0.2,0.3c-0.1,0.1-0.1,0.2-0.2,0.3
						c0.2-0.3-0.1,0-0.1,0.1c0,0-0.4,0.3-0.1,0.1c-0.1,0-0.1,0.1-0.2,0.1c0.2-0.1,0.2-0.1,0,0c0.5-0.1,0.9,0.2,1.1,0.6
						c-0.1-0.2,0,0.2,0,0.3c0,0,0,0.1-0.1,0.1c0.1-0.1,0.1-0.1,0,0c0.1-0.1,0.2-0.2,0.3-0.3c0.1-0.1,0.2-0.2,0.3-0.3
						c0.1-0.1,0.4-0.2,0.1-0.1c0,0,0.1,0,0.1-0.1c0.2-0.1,0.1-0.1,0,0c-0.2,0-0.2,0-0.1,0c-0.1,0-0.2,0-0.3-0.1
						c-0.1-0.1-0.2-0.2-0.3-0.3c-0.1-0.2-0.1-0.2,0,0c0-0.1,0-0.1,0-0.2c0,0.1,0,0.2,0,0.2c0,0.1-0.1,0.5,0,0.1c0,0.1,0,0.3-0.1,0.4
						c0,0.1-0.1,0.3-0.1,0.4c0,0-0.2,0.4,0,0.1c-0.1,0.3-0.3,0.5-0.5,0.8c-0.2,0.3,0.2-0.2-0.1,0.1c-0.1,0.1-0.2,0.2-0.3,0.3
						c0,0-0.4,0.3-0.1,0.1c-0.1,0-0.1,0.1-0.2,0.1c-0.1,0-0.4,0.2-0.1,0.1c-0.1,0-0.2,0.1-0.4,0.1c0.5,0-0.1,0-0.1,0
						c0.2,0,0.2,0,0,0c-0.1,0-0.2,0-0.2-0.1c0.4,0.1-0.2-0.2,0.1,0.1c0,0-0.1-0.1-0.1-0.1c-0.1-0.1-0.1-0.1,0,0
						c-0.1-0.4,0.1,0.3,0-0.1c-0.1-0.3,0,0.3,0,0c0,0.5,0.1-0.2-0.1,0.2c0,0,0-0.1,0.1-0.1c-0.1,0.1-0.1,0.2-0.2,0.2
						c0-0.1,0.4-0.2,0,0c0.2,0,0.1,0-0.1,0c0.1,0,0.1,0,0.2,0c-0.1,0-0.1,0-0.2,0c0.2,0,0.1,0-0.1,0c0.3,0.1-0.1-0.2,0,0
						c-0.3-0.4,0,0,0,0.1c0-0.1,0-0.1-0.1-0.2c0,0.1,0,0.1,0.1,0.2c0-0.1,0-0.1,0-0.2c0,0.1,0,0.1,0,0.2c0-0.1,0-0.1,0-0.2
						c-0.1,0.2,0,0.2,0,0c0,0.1-0.2,0.4,0,0.1c-0.1,0.1-0.1,0.1-0.2,0.2c-0.1,0.1-0.1,0.1,0,0c-0.1,0-0.4,0.2-0.1,0
						c-0.3,0.1,0.3,0.1,0,0c0.1,0,0.1,0,0.2,0c-0.2-0.1-0.1,0,0.3,0.2c0.1,0.1,0.2,0.3,0.2,0.5c0,0.3,0,0.1,0,0
						c-0.1,0.3,0,0,0.1-0.1c0-0.1,0.1-0.1,0.1-0.2c-0.2,0.3,0.1-0.1,0.2-0.1c-0.3,0.2,0,0,0.1,0c0.3-0.2-0.2,0,0,0
						c0.3-0.1-0.3,0,0,0c-0.2,0-0.3-0.1-0.5-0.1c-0.5-0.4-0.6-0.8-0.4-1.3c0,0,0.1-0.1,0.1-0.1c-0.1,0.1-0.1,0.1,0,0
						c-0.1,0.1-0.2,0.2-0.3,0.2c-0.1,0.1-0.2,0.1-0.3,0.2c-0.2,0.1-0.2,0.1,0,0c-0.1,0-0.2,0.1-0.2,0.1c-0.3,0.1,0.3,0-0.1,0
						c-0.4,0,0.3,0.1,0,0c-0.3-0.1,0.2,0.2,0,0c0,0,0.1,0.1,0.1,0.1c-0.1-0.1-0.1-0.1,0,0.1c0,0.1,0,0.1,0.1,0.2c0-0.2,0-0.1,0,0.1
						c-0.1-0.4,0.1,0.3,0,0c0,0,0,0.1-0.1,0.1c0-0.1,0.1-0.1,0.1-0.2c0.1-0.1,0.1-0.1,0,0c0.1-0.1,0.1-0.1,0.2-0.2
						c0.1-0.1,0.3-0.2,0.1-0.1c0,0,0.1,0,0.1-0.1c0.2-0.1,0.1-0.1,0,0c0,0,0.1,0,0.1,0c-0.1,0-0.2,0-0.3,0c-0.2-0.1-0.3-0.2-0.4-0.4
						c0.2,0.3-0.1-0.3,0,0c0-0.1,0-0.1,0-0.2c0,0.2,0,0.1,0-0.1c0,0,0,0.1,0,0.1c-0.1,0.2,0,0.1,0-0.1c-0.1,0.1-0.1,0.1,0,0
						c-0.1,0.1-0.1,0.1-0.2,0.2c0.3-0.2,0,0-0.1,0c0,0-0.4,0.2-0.2,0.1c0.2-0.1-0.2,0.1-0.2,0.1c-0.1,0-0.3,0.1-0.4,0.1
						c0,0-0.1,0-0.1,0c-0.2,0-0.2,0,0,0c0,0-0.1,0-0.1,0c0.2,0,0.2,0,0,0c0.2,0.1,0.3,0.1,0.4,0.3c0.1,0.2,0.1,0.4,0.1,0.6
						c-0.1,0.2-0.1,0.2,0,0c0,0-0.1,0.1-0.1,0.1c0.1-0.1,0.1-0.1,0.2-0.2c0.1-0.1,0.2-0.2,0.3-0.3c0.2-0.2,0.3-0.4,0.5-0.6
						c0,0-0.1,0-0.1,0.1c0.2-0.1,0.2-0.1,0,0c0,0,0.1,0,0.1,0c-0.2,0.1-0.4,0-0.6-0.1c-0.7-0.4-0.2-1.6,0.5-1.6
						c0.2,0,0.4,0.1,0.5,0.2c0.1,0.1,0.2,0.4,0.1,0.2c0.1,0.5,0.1-0.2,0,0.2c0.1-0.4-0.1,0.2,0-0.2c0.1-0.1,0.1-0.2,0.2-0.3
						c0.2-0.4-0.2,0.2,0.1-0.1c0.2-0.2,0.4-0.4,0.6-0.7c0.1-0.1,0.2-0.2,0.3-0.3c0.3-0.3-0.2,0.1,0.1-0.1c0.1-0.1,0.2-0.1,0.3-0.2
						c0.3-0.2-0.3,0.1,0.1,0c0.1,0,0.3-0.1,0.4-0.1c0,0-0.4,0,0,0c0.1,0,0.3,0,0.4,0c-0.2,0-0.2,0,0,0c0.1,0,0.2,0,0.2,0.1
						c0.3,0.1-0.2-0.1,0.1,0c0.1,0.1,0.2,0.1,0.3,0.2c-0.3-0.2,0,0,0.1,0.1c0.1,0.1,0.2,0.4,0.1,0.1c0.1,0.1,0.1,0.2,0.2,0.3
						c-0.2-0.3,0,0,0,0.1c0,0.1,0.1,0.5,0,0.1c0,0.1,0.1,0.4,0,0.5c0-0.1,0-0.1,0-0.2c0,0.1,0,0.2-0.1,0.2c0,0.1-0.2,0.4,0,0.1
						c-0.1,0.2-0.2,0.4-0.4,0.6c0.2-0.3-0.1,0.1-0.1,0.1c-0.1,0.1-0.2,0.2-0.3,0.3c-0.2,0.2-0.4,0.4-0.6,0.7
						c-0.2,0.2-0.5,0.4-0.7,0.7c-0.1,0.1-0.2,0.2-0.3,0.3c-0.1,0.1-0.1,0.1,0,0c-0.1,0.1-0.1,0.1-0.2,0.2c-0.3,0.2-0.5,0.3-0.8,0.5
						c0.3-0.1,0,0-0.1,0c-0.1,0-0.2,0.1-0.4,0.1c-0.4,0.1,0.3,0-0.1,0c-0.1,0-0.4,0-0.5,0c0.3,0.1,0,0-0.1,0c-0.1,0-0.2,0-0.2-0.1
						c0.2,0.1,0.2,0.1,0,0c-0.1,0-0.3-0.3-0.1,0c-0.1-0.1-0.3-0.4-0.1-0.1c0-0.1-0.2-0.2-0.2-0.3c0.1,0.2,0.1,0.2,0,0
						c0-0.1,0-0.1-0.1-0.2c0,0,0-0.1,0-0.1c0-0.2,0-0.1,0,0.1c-0.1-0.1,0-0.3,0-0.5c0-0.4-0.1,0.3,0-0.1c0-0.2,0.1-0.3,0.1-0.5
						c-0.1,0.3,0,0,0-0.1c0.1-0.1,0.2-0.3,0.3-0.4c0.2-0.3-0.2,0.2,0.1-0.1c0.1-0.1,0.2-0.2,0.3-0.4c0.1-0.1,0.2-0.2,0.3-0.2
						c-0.3,0.2,0.1-0.1,0.2-0.1c0.3-0.2,0.6-0.3,0.9-0.5c0.1-0.1,0.3-0.1,0.4-0.2c-0.3,0.1,0.3-0.1,0.3-0.1c0.3-0.1,0.6-0.2,1-0.3
						c0.7-0.3,1.3-1,1-1.8C87.7,87.1,86.9,86.5,86.1,86.7L86.1,86.7z"/>
				</g>
			</g>
			<g class="st14">
				<g>
					<path class="st15" d="M84,89.9c-0.4,0.3-0.8,0.7-1.1,1c-0.4,0.5-0.6,1.1-0.5,1.7c0.1,0.6,0.7,1,1.3,1.2
						c1.1,0.4,2.4,0.2,3.4-0.4c1-0.5,1.6-1.4,2-2.5c0.1-0.4,0.2-0.9,0.1-1.3c-0.1-0.5-0.5-0.9-0.9-1.2c-0.5-0.3-1-0.3-1.5-0.2
						c-0.3,0.1-0.6,0.2-0.9,0.4c-1,0.5-1.9,1.3-2.5,2.2c-0.1,0.2-0.2,0.5-0.2,0.8c0,0.3,0.1,0.6,0.3,0.9c0.4,0.5,1,0.7,1.6,0.5
						c1.1-0.2,2.2-0.6,3.1-1.2c0.6-0.3,0.9-1.1,0.7-1.7c-0.2-0.6-0.8-1.1-1.4-1.1c-0.7,0-1.3,0.2-1.9,0.6c-0.3,0.2-0.6,0.5-0.7,0.9
						c-0.1,0.4-0.1,0.8,0.2,1.2c0.2,0.3,0.5,0.6,0.9,0.7c0.4,0.1,0.8,0.1,1.2-0.2c0.1-0.1,0.2-0.1,0.3-0.2c-0.1,0.1-0.2,0.1-0.4,0.2
						c0.2-0.1,0.3-0.1,0.5-0.1c-0.1,0-0.3,0-0.4,0.1c0.1,0,0.2,0,0.3,0c-0.3-0.9-0.5-1.9-0.8-2.8c-0.3,0.2-0.7,0.3-1,0.5
						c0.1-0.1,0.2-0.1,0.4-0.2c-0.6,0.2-1.2,0.4-1.8,0.5c0.6,0.7,1.1,1.5,1.7,2.2c0-0.1,0.1-0.1,0.1-0.2c-0.1,0.1-0.2,0.2-0.2,0.3
						c0.3-0.4,0.6-0.7,1-1c-0.1,0.1-0.2,0.2-0.3,0.2c0.4-0.3,0.8-0.5,1.2-0.7c-0.1,0.1-0.2,0.1-0.4,0.2c0.1,0,0.2-0.1,0.3-0.1
						c-0.1,0-0.3,0-0.4,0.1c0.1,0,0.1,0,0.2,0c-0.1,0-0.3,0-0.4-0.1c0,0,0.1,0,0.1,0c-0.1-0.1-0.2-0.1-0.4-0.2c0,0,0.1,0,0.1,0.1
						c-0.1-0.1-0.2-0.2-0.3-0.2c0,0,0.1,0,0.1,0.1c-0.1-0.1-0.2-0.2-0.2-0.3c0,0,0,0.1,0.1,0.1c-0.1-0.1-0.1-0.2-0.2-0.4
						c0,0,0,0,0,0.1c0-0.1,0-0.3-0.1-0.4c0,0,0,0.1,0,0.1c0-0.1,0-0.3,0.1-0.4c0,0.2-0.1,0.3-0.2,0.5c0.1-0.1,0.1-0.2,0.2-0.4
						c-0.1,0.2-0.2,0.4-0.4,0.7c0.1-0.1,0.2-0.2,0.2-0.3c-0.2,0.2-0.3,0.4-0.5,0.5c0.1-0.1,0.2-0.2,0.3-0.2
						c-0.2,0.1-0.4,0.3-0.6,0.4c0.1-0.1,0.2-0.1,0.4-0.2c-0.2,0.1-0.4,0.1-0.7,0.2c0.1,0,0.3,0,0.4-0.1c-0.3,0-0.5,0-0.8,0
						c0.1,0,0.3,0,0.4,0.1c-0.2,0-0.4-0.1-0.6-0.1c0.1,0.1,0.2,0.1,0.4,0.2c0,0-0.1,0-0.1-0.1c0.1,0.1,0.2,0.2,0.3,0.2c0,0,0,0,0,0
						c0.1,0.1,0.2,0.2,0.2,0.3c0,0,0,0,0,0c0.1,0.1,0.1,0.2,0.2,0.4c0,0,0,0,0,0c0,0.1,0,0.3,0.1,0.4c0,0,0,0,0-0.1
						c0,0.1,0,0.3-0.1,0.4c0,0,0-0.1,0-0.1c-0.1,0.1-0.1,0.2-0.2,0.4c0,0,0-0.1,0.1-0.1c-0.1,0.1-0.2,0.2-0.2,0.3
						c0.3-0.4,0.7-0.7,1.1-1c0.6-0.5,0.6-1.6,0-2.1C85.5,89.4,84.6,89.4,84,89.9L84,89.9z"/>
				</g>
			</g>
			<g class="st14">
				<g>
					<path class="st15" d="M60.3,92.4c1.2,0.8,2.5,1.6,3.7,2.4c0.6,0.4,1.3,0.8,1.9,1.2c0.8,0.5,1.5,0.9,2.4,0.7
						c0.9-0.1,1.6-0.9,1.9-1.7c0.3-0.8,0.1-1.7-0.4-2.4c-0.8-1.3-2.4-1.9-3.8-2.5c-1.5-0.6-3.2-1.1-4.9-1c-0.8,0.1-1.4,0.5-1.5,1.3
						c-0.1,0.8,0.4,1.4,1.1,1.6c0.3,0.1,0.6,0.2,0.9,0.3c0.1,0,0.2,0.1,0.2,0.1c-0.1-0.1-0.2-0.1-0.1,0c0.1,0.1,0.3,0.1,0.4,0.2
						c0.5,0.3,1,0.5,1.5,0.8c0.2,0.1,0.5,0.3,0.7,0.5c0.1,0.1,0.3,0.2,0.4,0.3c0.3,0.2-0.2-0.1,0.1,0.1c0.5,0.4,0.9,0.8,1.3,1.2
						c0.5,0.5,1.4,0.6,2,0.1c0.6-0.4,0.8-1.3,0.4-1.9c-0.4-0.6-0.9-1.2-1.4-1.8c-0.4,0.9-0.7,1.7-1.1,2.6c-0.2,0,0,0,0.1,0
						c0.1,0,0.2,0.1,0.3,0.1c0.1,0,0.2,0.1,0,0c0.1,0.1,0.2,0.1,0.4,0.2c0.7,0.4,1.7,0.2,2.1-0.5c0.4-0.7,0.2-1.6-0.5-2.1
						c-0.7-0.4-1.5-0.6-2.3-0.7c-0.6-0.1-1.2,0.4-1.4,0.9c-0.2,0.6-0.1,1.2,0.3,1.6c0.2,0.2,0.4,0.4,0.6,0.7c0,0.1,0.1,0.1,0.1,0.2
						c-0.1-0.1-0.1-0.1,0,0c0.1,0.1,0.2,0.3,0.3,0.4c0.8-0.6,1.6-1.2,2.4-1.8c-1.9-2-4.3-3.4-6.9-4.3c-0.1,1-0.3,2-0.4,2.9
						c0.4,0,0.8,0,1.2,0c0.2,0,0.2,0,0,0c0.1,0,0.1,0,0.2,0c0.2,0,0.3,0.1,0.5,0.1c0.7,0.2,1.4,0.4,2.1,0.7c0.2,0.1,0.2,0.1,0,0
						c0.1,0,0.2,0.1,0.3,0.1c0.1,0.1,0.3,0.1,0.4,0.2c0.3,0.2,0.7,0.3,1,0.5c0.1,0,0.3,0.2,0.1,0.1c0.1,0.1,0.3,0.2,0.4,0.4
						c-0.1-0.1-0.1-0.1,0,0c0.1,0.2,0.1,0.1,0,0c0,0.2,0,0.2,0,0c0,0.1,0,0.2,0,0c0-0.1,0-0.1,0,0c0.1-0.2,0.1-0.2,0-0.1
						c0-0.1,0.1-0.2,0.2-0.2c0.2-0.1,0.2-0.1,0.1,0c0.1,0,0.2-0.1,0.3,0c0.1,0.1,0.2,0.1,0.1,0c-0.1-0.1-0.3-0.1-0.4-0.2
						c-0.7-0.4-1.3-0.8-2-1.3c-1.3-0.8-2.6-1.7-3.9-2.5c-0.7-0.4-1.7-0.2-2.1,0.5C59.4,91.1,59.6,91.9,60.3,92.4L60.3,92.4z"/>
				</g>
			</g>
			<g class="st14">
				<g>
					<path class="st15" d="M64.1,92.9c0.2,0.2,0.3,0.4,0.5,0.6c0.2,0.2,0.3,0.3,0.5,0.4c0.2,0.1,0.3,0.3,0.5,0.4
						c0.2,0.1,0.5,0.2,0.8,0.3c0.1,0,0.3,0,0.4,0.1c0.1,0,0.3,0,0.4-0.1c0.1-0.1,0.2-0.1,0.4-0.2c0.2-0.1,0.3-0.2,0.4-0.4
						c0.1-0.1,0.2-0.2,0.2-0.3c0.1-0.1,0.1-0.2,0.1-0.4c0-0.1,0-0.3,0-0.4c0-0.2-0.1-0.4-0.2-0.6c-0.1-0.2-0.3-0.5-0.5-0.7
						c-0.1-0.2-0.3-0.3-0.5-0.4c-0.4-0.3-0.8-0.5-1.3-0.7c-0.1,0-0.3-0.1-0.4-0.1c-0.2,0-0.3,0-0.6,0c-0.3,0-0.4,0.1-0.7,0.2
						c-0.1,0-0.1,0.1-0.2,0.2c-0.2,0.2-0.3,0.2-0.4,0.5c-0.1,0.1-0.1,0.3-0.2,0.4c0,0,0,0,0,0c0,0.1-0.1,0.3-0.1,0.4c0,0,0,0,0,0.1
						c0,0.1,0,0.3,0.1,0.4c0,0.1,0.1,0.2,0.1,0.2c0,0.1,0.1,0.2,0.1,0.2c0.2,0.4,0.5,0.6,0.9,0.8c0.4,0.3,0.8,0.5,1.2,0.8
						c0.4,0.3,1.1,0.3,1.5,0c0.5-0.3,0.7-0.8,0.7-1.3c0-0.4-0.1-0.7-0.3-1.1c-0.1-0.2-0.3-0.5-0.5-0.6c-0.3-0.3-0.6-0.4-1-0.6
						c-0.2-0.1-0.4-0.1-0.6-0.1c-0.2,0-0.4,0-0.6,0.1c-0.1,0.1-0.2,0.1-0.4,0.2c-0.1,0.1-0.2,0.2-0.3,0.2c-0.1,0.1-0.2,0.2-0.2,0.3
						c-0.1,0.2-0.2,0.4-0.2,0.6c0,0.1,0,0.3,0,0.4c0,0.1,0,0.3,0.1,0.4c0,0.1,0.1,0.2,0.2,0.3c0.1,0.2,0.2,0.3,0.4,0.4
						c0.3,0.2,0.6,0.4,0.9,0.6c0.2,0.1,0.4,0.2,0.6,0.2c0.2,0,0.4,0,0.6,0c0.2,0,0.4-0.1,0.5-0.3c0.2-0.1,0.3-0.2,0.4-0.4
						c0.2-0.3,0.3-0.8,0.2-1.2c-0.1-0.1-0.1-0.2-0.2-0.4c-0.1-0.2-0.3-0.4-0.5-0.5c-0.3-0.2-0.6-0.4-0.9-0.6
						c-0.1,0.9-0.2,1.8-0.4,2.7c0,0,0,0,0,0c-0.1,0-0.3,0-0.4,0.1c0.1,0,0.1,0,0.2,0c-0.1,0-0.3,0-0.4-0.1c0.1,0,0.1,0,0.2,0.1
						C65.3,94.1,65.2,94,65,94c0.1,0,0.1,0.1,0.2,0.1c-0.1-0.1-0.2-0.2-0.3-0.2c0.1,0.1,0.1,0.1,0.2,0.2c-0.1-0.1-0.2-0.2-0.2-0.3
						c0.1,0.1,0.1,0.1,0.1,0.2c-0.1-0.1-0.1-0.2-0.2-0.4c0,0.1,0,0.1,0.1,0.2c0-0.1,0-0.3-0.1-0.4c0,0,0,0.1,0,0.1
						c0.8-0.4,1.5-0.9,2.3-1.3c-0.2-0.2-0.5-0.3-0.7-0.5c-0.2-0.1-0.5-0.3-0.7-0.5c0.1,0.1,0.2,0.2,0.3,0.2c0,0-0.1-0.1-0.1-0.1
						c0.1,0.1,0.2,0.2,0.2,0.3c0,0,0,0,0-0.1c0.1,0.1,0.1,0.2,0.2,0.4c0,0,0,0,0-0.1c0,0.1,0,0.3,0.1,0.4c0,0,0,0,0-0.1
						c0,0.1,0,0.3-0.1,0.4c0,0,0,0,0-0.1c-0.1,0.1-0.1,0.2-0.2,0.4c0,0,0,0,0,0c-0.1,0.1-0.2,0.2-0.2,0.3c0,0,0,0,0,0
						c-0.1,0.1-0.2,0.2-0.3,0.2c0,0,0,0,0.1,0c-0.1,0.1-0.2,0.1-0.4,0.2c0,0,0.1,0,0.1,0c-0.1,0-0.3,0-0.4,0.1c0.1,0,0.1,0,0.2,0
						c-0.1,0-0.3,0-0.4-0.1c0.2,0,0.3,0.1,0.5,0.1c-0.1-0.1-0.2-0.1-0.4-0.2c0.2,0.1,0.4,0.2,0.5,0.3c-0.1-0.1-0.2-0.2-0.3-0.2
						c0.2,0.1,0.3,0.3,0.4,0.4c-0.1-0.1-0.2-0.2-0.2-0.3c0.1,0.1,0.1,0.2,0.2,0.3c0.6-0.7,1.1-1.5,1.7-2.2c0,0-0.1,0-0.1,0
						c0.1,0.1,0.2,0.1,0.4,0.2c-0.2-0.1-0.4-0.2-0.7-0.4c0.1,0.1,0.2,0.2,0.3,0.2c-0.2-0.2-0.4-0.3-0.5-0.5c0.1,0.1,0.2,0.2,0.2,0.3
						c0,0-0.1-0.1-0.1-0.1c-0.1-0.2-0.2-0.3-0.4-0.4c-0.1-0.1-0.3-0.2-0.5-0.3c-0.2-0.1-0.4-0.1-0.6,0c-0.2,0-0.4,0.1-0.6,0.2
						c-0.3,0.2-0.6,0.5-0.7,0.9C63.9,92.1,63.9,92.6,64.1,92.9L64.1,92.9z"/>
				</g>
			</g>
			<g class="st14">
				<g>
					<path class="st15" d="M86.5,92.5c0.1-0.1,0.3-0.1,0.4-0.2c0.1-0.1,0.2-0.2,0.3-0.2c0.1-0.1,0.2-0.3,0.3-0.5
						c0.1-0.1,0.1-0.2,0.1-0.4c0-0.2,0-0.4,0-0.6c-0.1-0.1-0.1-0.2-0.2-0.4c-0.1-0.1-0.2-0.2-0.2-0.3c-0.1-0.1-0.3-0.2-0.5-0.3
						c-0.2-0.1-0.4-0.1-0.6-0.1c-0.2,0-0.3,0-0.5,0.1c-0.1,0-0.1,0.1-0.2,0.1c-0.1,0-0.1,0.1-0.2,0.1c-0.1,0-0.1,0.1-0.2,0.1
						c-0.2,0.2-0.3,0.2-0.4,0.5c-0.1,0.1-0.2,0.3-0.2,0.4c0,0.1,0,0.3-0.1,0.4c0,0.2,0,0.4,0.1,0.6c0,0.1,0.1,0.2,0.2,0.3
						c0.1,0.2,0.2,0.3,0.4,0.4c0.1,0.1,0.3,0.1,0.4,0.2c0,0,0.1,0,0.1,0c0.1,0,0.2,0,0.3,0c0.1,0,0.2,0,0.3,0c0,0,0.1,0,0.1,0
						c0.2,0,0.3,0,0.5-0.1c0.1,0,0.1,0,0.2,0c0.2,0,0.4-0.1,0.5-0.3c0.2-0.1,0.3-0.2,0.4-0.4c0.1-0.1,0.1-0.2,0.2-0.4
						c0.1-0.2,0.1-0.4,0-0.6c0-0.1,0-0.3-0.1-0.4c-0.1-0.2-0.2-0.3-0.3-0.5c-0.1-0.1-0.2-0.2-0.3-0.2c-0.2-0.1-0.5-0.2-0.8-0.2
						c-0.1,0-0.2,0-0.3,0c-0.2,0-0.5,0.1-0.7,0.1c-0.3,0.1-0.6,0.2-0.9,0.4c-0.2,0.1-0.3,0.2-0.4,0.4c-0.1,0.1-0.2,0.3-0.3,0.5
						c-0.1,0.2-0.1,0.4,0,0.6c0,0.2,0.1,0.4,0.2,0.6c0.1,0.1,0.2,0.2,0.2,0.3c0.2,0.2,0.4,0.3,0.7,0.4c0.1,0,0.3,0,0.4,0.1
						c0.3,0,0.5-0.1,0.8-0.2c0,0,0.1,0,0.1,0c-0.1,0.1-0.2,0.1-0.4,0.2c0.2-0.1,0.5-0.2,0.7-0.2c-0.1,0-0.3,0-0.4,0.1
						c0.1,0,0.2,0,0.3,0c-0.1-1-0.3-2-0.4-2.9c-0.1,0-0.1,0-0.2,0.1c0.1,0,0.3,0,0.4-0.1c-0.1,0-0.1,0-0.2,0c0.1,0,0.3,0,0.4,0.1
						c-0.1,0-0.1,0-0.2-0.1c0.1,0.1,0.2,0.1,0.4,0.2c0,0,0,0,0,0c0.2,0.6,0.5,1.1,0.7,1.7c0,0,0,0,0,0c-0.1,0.1-0.1,0.2-0.2,0.4
						c0,0,0,0,0-0.1c-0.1,0.1-0.2,0.2-0.2,0.3c0,0,0,0,0,0c-0.1,0.1-0.2,0.2-0.3,0.2c0,0,0,0,0.1,0C86.7,92.4,86.6,92.4,86.5,92.5
						C86.5,92.5,86.5,92.4,86.5,92.5c-0.1,0-0.2,0-0.4,0c0,0,0,0,0,0c-0.3-0.9-0.5-1.9-0.8-2.8c-0.1,0.1-0.3,0.1-0.4,0.2
						c-0.2,0.1-0.3,0.2-0.4,0.4c-0.1,0.1-0.2,0.3-0.3,0.5c-0.1,0.2-0.1,0.4,0,0.6c0,0.2,0.1,0.4,0.2,0.6c0.1,0.1,0.2,0.2,0.2,0.3
						c0.2,0.2,0.4,0.3,0.7,0.4c0.1,0,0.3,0,0.4,0.1C86,92.7,86.3,92.6,86.5,92.5L86.5,92.5z"/>
				</g>
			</g>
		</g>
	</g>
</g>
</svg>
