<?xml version="1.0" encoding="utf-8"?>
<!-- Generator: Adobe Illustrator 25.4.8, SVG Export Plug-In . SVG Version: 6.00 Build 0)  -->
<svg version="1.1" id="Layer_1" xmlns="http://www.w3.org/2000/svg" xmlns:xlink="http://www.w3.org/1999/xlink" x="0px" y="0px"
	 viewBox="0 0 166.2 166.2" style="enable-background:new 0 0 166.2 166.2;" xml:space="preserve">
<style type="text/css">
	.st0{fill:#F9C0A5;}
	.st1{opacity:0.1;fill:url(#SVGID_1_);}
	.st2{opacity:0.6;fill:#F49389;}
	.st3{opacity:0.11;fill:#FFFFFF;}
	.st4{opacity:0.38;fill:#F49389;}
</style>
<g>
	<circle class="st0" cx="83.1" cy="83.1" r="83.1"/>
	<radialGradient id="SVGID_1_" cx="83.3096" cy="85.3753" r="50.5501" gradientUnits="userSpaceOnUse">
		<stop  offset="0.7254" style="stop-color:#BE1E2D"/>
		<stop  offset="1" style="stop-color:#F9C0A5"/>
	</radialGradient>
	<path class="st1" d="M43.5,48C37,52.7,31.8,59.6,30.7,67.5c-1,7,1.3,14,1.2,21.1c-0.1,5.8-1.9,11.5-1.2,17.2
		c0.8,7.1,5.5,13.5,11.3,17.6c5.8,4.2,12.8,6.5,19.8,8.1c8.3,1.9,17,2.9,25.2,1c6.1-1.4,11.8-4.3,17.9-6.1c7.2-2.1,15.4-3,20.7-8.2
		c6.5-6.4,6.4-16.7,6.7-25.8c0.2-7.2,1-14.4,2.2-21.5c0.9-4.9,2-9.9,1.3-14.8c-1-7.7-6.7-14.6-14.1-17c-6.4-2.1-13.3-1.1-20.1-1.3
		C80.3,37.3,62,34.3,43.5,48z"/>
	<path class="st2" d="M65.3,70.8c-0.1,2.4,0.4,4.9,0.7,7.3c0.5,4.7,0.1,9.4,0.6,14.1c0.5,4.7,2.1,9.5,5.7,12.5
		c5.2,4.4,13.4,3.7,18.9-0.2c5.5-3.9,8.8-10.4,10.5-16.9c1.9-7.2,2.2-15.2-1.1-21.9C93.1,50.7,65.9,51.7,65.3,70.8z"/>
	<path class="st3" d="M76,62.2c-2.4,1.4-3.9,3.9-4.4,6.6c-0.6,2.7-0.3,5.5,0.2,8.1c0.3,1.5,0.6,3,1.4,4.2c0.8,1.3,2,2.3,3.5,2.6
		c2.7,0.4,5-2,6.3-4.5c1.3-2.4,2.3-5.3,4.6-6.7c1.2-0.7,2.6-1.1,3.6-2.1c1.7-1.7,1.4-4.7-0.2-6.5C87.5,60,80.3,59.7,76,62.2z"/>
	<path class="st4" d="M84.7,100.8c5.7-2.4,10.2-7.2,13-12.7c2.8-5.5,4.7-7.4,5.3-13.6c0.3,7.2,0.8,11.2-1.1,18.1
		c-1.9,6.9-7.2,12.7-13.9,15.3c-3.3,1.2-6.8,1.5-10.3,1.6c-0.8,0-1.6,0.1-2.4-0.2c-1-0.3-1.7-1-2.4-1.7c-4.8-5-7.5-12.9-6.6-19.8
		c0.9,3.5,1,8.3,3.6,11C73.9,102.6,79.8,102.8,84.7,100.8z"/>
</g>
</svg>
