<?xml version="1.0" encoding="utf-8"?>
<!-- Generator: Adobe Illustrator 25.4.8, SVG Export Plug-In . SVG Version: 6.00 Build 0)  -->
<svg version="1.1" id="Layer_1" xmlns="http://www.w3.org/2000/svg" xmlns:xlink="http://www.w3.org/1999/xlink" x="0px" y="0px"
	 viewBox="0 0 177.6 166.6" style="enable-background:new 0 0 177.6 166.6;" xml:space="preserve">
<style type="text/css">
	.st0{clip-path:url(#SVGID_00000124129575824284232750000006693508239013336712_);}
	.st1{opacity:0.18;fill:url(#SVGID_00000010999511805186252750000010916550467000530088_);}
	.st2{fill:#FFBC82;}
	.st3{fill:#FFFFFF;}
	.st4{fill:#89432F;}
	.st5{fill:#EEA475;}
	.st6{fill:#FD9050;}
	.st7{fill:#C3CE86;}
	.st8{fill:#E4937F;}
	.st9{fill:#FABC61;}
	.st10{fill:#EEB45D;}
	.st11{fill:#EA906C;}
	.st12{fill:#F5B09F;}
	.st13{fill:#F39D7B;}
	.st14{fill:#F4A886;}
	.st15{fill:#F7BA92;}
	.st16{fill:#F7B992;}
	.st17{fill:#F7B892;}
	.st18{fill:#DDA857;}
	.st19{opacity:0.59;fill:#EC9A65;}
	.st20{fill:#FF9999;}
	.st21{fill:#FF808C;}
	.st22{fill:#B5B6FF;}
	.st23{fill:#8B8CEB;}
	.st24{fill:#BFCADE;}
	.st25{fill:#363C47;}
	.st26{fill:#B2D1DC;}
	.st27{fill:#FCB4CA;}
	.st28{fill:#DE7F9C;}
	.st29{fill:#424957;}
</style>
<g>
	<g>
		<defs>
			
				<ellipse id="SVGID_1_" transform="matrix(0.7071 -0.7071 0.7071 0.7071 -34.504 83.3)" cx="83.3" cy="83.3" rx="83.3" ry="83.3"/>
		</defs>
		<clipPath id="SVGID_00000102520763369781869000000004504886920529809294_">
			<use xlink:href="#SVGID_1_"  style="overflow:visible;"/>
		</clipPath>
		<g style="clip-path:url(#SVGID_00000102520763369781869000000004504886920529809294_);">
			
				<linearGradient id="SVGID_00000019639801021294177310000006018806608406007436_" gradientUnits="userSpaceOnUse" x1="-26.5313" y1="90.3611" x2="177.5965" y2="90.3611">
				<stop  offset="0" style="stop-color:#5F74B1"/>
				<stop  offset="0.2466" style="stop-color:#7A90D2"/>
				<stop  offset="0.4903" style="stop-color:#8FA6EB"/>
				<stop  offset="0.7125" style="stop-color:#9CB3FA"/>
				<stop  offset="0.8936" style="stop-color:#A0B7FF"/>
			</linearGradient>
			
				<circle style="opacity:0.18;fill:url(#SVGID_00000019639801021294177310000006018806608406007436_);" cx="75.5" cy="90.4" r="102.1"/>
			<g>
				<g id="XMLID_1_">
					<g>
						<path class="st2" d="M123.9,130c10.8-3.5,25.9,10.5,24.1,24.1c-1.8,13.6-7.9,38.3-7.9,38.3h-60h-0.3h-60
							c0,0-6.1-24.7-7.9-38.3C10.2,140.5,25.2,126.5,36,130c10.8,3.5,20.1,1.9,24.6-2.9c2.4-2.6,3.5-10.3,3.9-16.7
							c2.6,1.7,6.4,3.3,11.7,3.2c10.7-0.3,18.9-13.3,18.9-13.3s-0.2,22.1,4.3,26.9C103.9,131.9,113.1,133.4,123.9,130z"/>
						<path class="st3" d="M108.6,61.1c1.4-6.4-0.8-13.5-5-18.7c-4.5-5.7-11.5-9.1-18.6-10.2c-6.4-1-13-0.1-19.2,1.8
							c5.3-3.6,11.7-5.6,18.1-6c8.5-0.5,17.1,1.8,24.3,6.3c0.4,0.4,0.8,0.9,1.1,1.4c2.4,3.5,3.2,7.9,3,12.2
							c-0.2,3.9-1.2,7.7-2.3,11.5C109.3,59.9,108.8,60.5,108.6,61.1z"/>
						<path class="st4" d="M65.7,34c-1.9,1.3-3.6,2.7-5.2,4.3c-1.6,1.6-3.1,3.5-4.3,5.4c-3.2,5.1-5,11-5,17c-0.2-0.4-0.5-0.8-1-1.1
							c-2-8.8-1-18.4,3.3-26.4c4.3-8.2,12-14.6,20.9-17.2c8.9-2.6,18.9-1.1,26.5,4.1c2.4,1.6,4.6,3.6,6,6.1s2.2,5.5,1.7,8.3
							c-0.1-0.1-0.3-0.2-0.4-0.3c-7.2-4.5-15.8-6.8-24.3-6.3C77.4,28.4,71.1,30.5,65.7,34z"/>
						<path class="st5" d="M80,108.3c5-0.1,10.4-3.6,15.1-8c0,0-8.2,13-18.9,13.3c-5.2,0.1-9.1-1.5-11.7-3.2
							c0.4-5.4,0.3-9.9,0.3-10.1C69.6,104.7,75,108.3,80,108.3z"/>
					</g>
					<path class="st5" d="M69.8,112.2v5.3c0,0,7.2,4.9,11.6,16.3c2.5,6.5-2.6,14.4-2.6,14.4l-0.8,47.3L64.1,194l8.3-50.7l-7.9-30.2
						l2-3.6L69.8,112.2z"/>
					<path class="st5" d="M60.1,110.4v5.3c0,0,7.2,4.9,11.6,16.3c2.5,6.5-2.6,14.4-2.6,14.4l-0.8,47.3l-13.8-1.4l8.3-50.7l-7.9-30.2
						l2-3.6L60.1,110.4z"/>
				</g>
				<path class="st6" d="M50.6,76.4c-1-0.8-1.7-2-1.8-3.4c-0.1-1.3,0.5-2.9,1.6-3.6c0.1-0.1,0.1-0.2,0.1-0.3c-0.5-1.9-0.5-3.9-1-5.8
					c-0.2-0.9-0.6-1.8-1.1-2.5c-0.3-0.3-0.6-0.5-1-0.4c-0.4,0.1-0.7,0.4-0.9,0.8C46,62,46,63.1,45.8,64c-0.1,0.3,0.4,0.4,0.5,0.1
					c0.2-0.7,0.2-1.5,0.4-2.2c0.1-0.4,0.3-0.7,0.7-0.9c0.5-0.3,0.8,0.2,1,0.5c0.9,1.5,1.1,3.2,1.3,4.9c0.1,0.9,0.2,1.8,0.4,2.6
					c-1.2,0.8-1.8,2.5-1.7,3.9c0,1.5,0.8,2.9,1.9,3.8C50.5,76.9,50.8,76.6,50.6,76.4z"/>
				<path class="st6" d="M108.8,76.4c1-0.8,1.7-2,1.8-3.4c0.1-1.3-0.5-2.9-1.6-3.6c-0.1-0.1-0.1-0.2-0.1-0.3c0.5-1.9,0.5-3.9,1-5.8
					c0.2-0.9,0.6-1.8,1.1-2.5c0.3-0.3,0.6-0.5,1-0.4c0.4,0.1,0.7,0.4,0.9,0.8c0.5,0.8,0.5,1.9,0.7,2.8c0.1,0.3-0.4,0.4-0.5,0.1
					c-0.2-0.7-0.2-1.5-0.4-2.2c-0.1-0.4-0.3-0.7-0.7-0.9c-0.5-0.3-0.8,0.2-1,0.5c-0.9,1.5-1.1,3.2-1.3,4.9c-0.1,0.9-0.2,1.8-0.4,2.6
					c1.2,0.8,1.8,2.5,1.7,3.9c0,1.5-0.8,2.9-1.9,3.8C108.9,76.9,108.6,76.6,108.8,76.4z"/>
				<path class="st2" d="M83.8,78.3C83.8,78.3,83.8,78.3,83.8,78.3L83.8,78.3C83.8,78.3,83.8,78.3,83.8,78.3z"/>
				<path class="st7" d="M98.3,91.1c-0.9,0-0.9,1.5,0,1.5"/>
				<path class="st3" d="M58.4,30.7c-2.4,2.7-4.2,6-5.1,9.5c-0.2,0.6,0.8,0.9,0.9,0.3c0.9-3.4,2.5-6.5,4.8-9.1
					C59.5,30.9,58.8,30.2,58.4,30.7z"/>
				<path class="st3" d="M67,23.2c-0.1-0.2-0.5-0.3-0.7-0.2c-2,1.3-3.8,2.9-5.4,4.6c-0.4,0.5,0.3,1.2,0.7,0.7
					c1.6-1.7,3.3-3.2,5.2-4.5C67,23.7,67.1,23.4,67,23.2z"/>
				<path class="st3" d="M64,28.8c-0.1-0.2-0.4-0.3-0.7-0.2c-1.8,1.2-3.3,2.7-4.5,4.4c-0.1,0.2,0,0.5,0.2,0.7c0.2,0.1,0.5,0,0.7-0.2
					c1.1-1.6,2.5-3,4.1-4.1C64,29.3,64.1,29.1,64,28.8z"/>
				<path class="st3" d="M95.3,26.5c-4.4-1.6-9.2-1.9-13.8-0.9c-0.6,0.1-0.4,1.1,0.3,0.9c4.4-0.9,9-0.6,13.2,0.9
					C95.6,27.6,95.9,26.7,95.3,26.5z"/>
				<path class="st3" d="M104.8,30.1c-2-1.2-4-2.4-6.3-2.8c-0.3,0-0.5,0.1-0.6,0.3c-0.1,0.2,0.1,0.6,0.3,0.6c2.2,0.4,4.2,1.6,6,2.7
					C104.8,31.3,105.3,30.5,104.8,30.1z"/>
				<path class="st3" d="M101.8,25.6c-2-1.1-4.2-1.7-6.4-2.2c-0.6-0.1-0.9,0.8-0.3,0.9c2.1,0.5,4.3,1,6.1,2.1
					C101.8,26.7,102.3,25.9,101.8,25.6z"/>
			</g>
			<g>
				<path class="st2" d="M107.1,80.1c-0.2,1.4-0.5,2.9-0.8,4.2c-0.9,3.7-5.4,10.5-11.1,16c-4.7,4.5-10.1,8-15.1,8
					c-5-0.1-10.4-3.6-15.1-8c0,0,0,0,0,0c-4.2-4-7.8-8.9-9.7-12.6c-0.7-1.3-1.1-2.4-1.4-3.4c-0.3-1.3-0.6-2.7-0.8-4.2
					c-8.8-2.2-10.1-20.7-6-21.3c1.5-0.2,2.6,0.2,3.3,0.7c0.4,0.3,0.8,0.8,1,1.1c0-6,1.8-11.9,5-17c1.2-2,2.7-3.8,4.3-5.4
					c1.6-1.6,3.4-3.1,5.2-4.3c6.2-1.9,12.8-2.8,19.2-1.8c7.2,1.1,14.1,4.5,18.6,10.2c0.5,0.6,1,1.3,1.5,2c3.2,4.9,4.8,11,3.5,16.7
					c0.3-0.5,0.7-1.2,1.4-1.7c0.7-0.5,1.7-0.7,3.1-0.5C117.1,59.4,115.9,78,107.1,80.1z"/>
				<path class="st8" d="M107,81.7c-0.1,0.1-0.1,0.1-0.2,0.2c0,0,0,0,0,0l0.3,1.5c0.1,0.1,0.2,0.2,0.3,0.2L107,81.7z"/>
				<path class="st8" d="M50.2,83.4c-0.1-0.1-0.1-0.1-0.2-0.2l-0.1,0.5C50,83.6,50.1,83.5,50.2,83.4L50.2,83.4z"/>
				<path class="st9" d="M39.6,60.2c0.2,3,0.8,6,1.7,8.8c0.1,0.4,0.3,0.8,0.4,1.2c-0.2-0.4-0.3-0.8-0.4-1.2
					C40.3,66.2,39.7,63.2,39.6,60.2z"/>
				<path class="st9" d="M70.5-2.3c-0.4,3,0,6.2-1.1,9c-0.1,0.4-0.3,0.7-0.5,1.1C69.5,7.9,70,8,70.6,8.1c1.6,0.4,3.1,0.9,4.6,1.6
					c1.5,0.7,2.9,1.6,4.1,2.6c2.5,2,4.4,4.8,5.5,7.7c-1.8-2.6-3.9-4.9-6.4-6.6c-1.3-0.8-2.6-1.6-4-2.2c-1.4-0.6-2.8-1.1-4.3-1.4
					c-0.8-0.2-1.6-0.3-2.4-0.5c-0.7,0.8-1.4,1.6-2.1,2.4c-1.9,2.3-3.1,4.6-3.3,7.6c-0.1,1.1,0,2.2,0.2,3.3c-5,2-9.5,5.2-12.4,10
					c-3.7,6-5.3,13-5.7,20.1c0,0.3,0,0.5,0,0.6c-0.2,7.4,1.3,13.1,3,17.1c0,0,0,0,0,0c-0.1-3,0.2-5.9,0.8-8.7c0,0,0,0.1,0,0.1
					c-0.3,1.3-0.5,2.6-0.6,3.9c-0.1-1.3-0.1-2.6,0.1-4c0.1-1.3,0.4-2.6,0.8-3.9c0.7-2.6,1.8-5.1,3.1-7.4c2.7-4.6,6.7-8.5,11.1-11.5
					c4.5-3,9.4-5.2,14.5-6.7c5.1-1.5,10.3-2.5,15.6-2.9c-5.1,1.2-10.2,2.5-15.1,4.3l-1.8,0.7c-0.6,0.2-1.2,0.4-1.8,0.7
					c-0.6,0.3-1.2,0.5-1.8,0.8c1.6-0.4,3.4-0.8,5.4-0.9c0.8-0.1,1.7-0.1,2.6-0.1c4.9-0.1,10.6,0.9,16.1,4.4
					c10.5,6.7,15.8,19.9,13.1,33.1c-0.6,3.3-1.5,6.6-2.6,9.7c0.1-0.1,0.1-0.1,0.2-0.2c1.1-0.9,2.1-1.9,3.1-3
					c4.4-4.7,7.7-10.3,9.1-16.5c0.6-2.5,0.8-5,0.7-7.4c-0.1-3.3-0.7-6.5-1.8-9.5c-1-3-2.6-5.8-4.7-8.1c-0.5-0.6-1.1-1.1-1.7-1.6
					c-0.6-0.5-1.2-1-1.9-1.4c-0.6-0.5-1.3-0.8-2-1.2c-0.4-0.2-0.7-0.4-1.1-0.6c-0.3-0.2-0.7-0.3-1-0.5c-2.9-1.3-6.1-2-9.3-2.6
					c2.9-0.2,5.9,0.1,8.8,0.9c0.4,0.1,0.7,0.2,1,0.3c0.8,0.2,1.6,0.6,2.4,0.9c0.1,0.1,0.2,0.1,0.4,0.2c0.8-3.7,1.3-7.3,1.6-11
					c0.1-2,0.2-4,0.1-5.9c-0.1-2-0.2-3.9-0.6-5.9c-0.6-3.9-1.9-7.6-3.9-11c-2-3.4-4.8-6.2-8-8.7c-6.1-3.3-12.6-5.8-19.5-7
					c-2,2.3-3.9,4.7-5.4,7.4C71.8-7.7,70.9-5.2,70.5-2.3z M72.9,25.5c-2.9,0.2-5.7,0.7-8.5,1.5c-1.4,0.4-2.7,0.9-4.1,1.4
					c-1.3,0.5-2.6,1.2-3.9,1.8c-2.6,1.3-5.1,2.9-7.5,4.6c1.9-2.3,4.2-4.3,6.7-5.9c1.3-0.8,2.6-1.5,4-2.2c1.4-0.6,2.8-1.1,4.2-1.6
					c1.5-0.4,2.9-0.7,4.4-0.9c1.5-0.2,3-0.3,4.5-0.2c3,0.1,6,0.6,8.8,1.7C78.7,25.4,75.8,25.3,72.9,25.5z"/>
				<path class="st9" d="M45.1-5.1c-1.8,4.4-1.9,9.5,0.6,13.5C43.2,4.4,43.2-0.7,45.1-5.1z"/>
				<path class="st9" d="M107.5-2.8c1.2,1.7,2.1,3.5,2.9,5.5c0.7,1.9,1.3,3.9,1.6,6c0.6,4.1,0.6,8.2,0.1,12.2c-0.3,2-0.7,4-1.2,6
					c-0.5,1.7-1,3.4-1.7,5c0.6,0.3,1.2,0.6,1.7,1c0.7,0.4,1.4,1,2.1,1.5c0.6,0.6,1.3,1.1,1.9,1.8c1.1,1.3,2.1,2.7,2.9,4.2
					c0.2,0.4,0.4,0.7,0.5,1.1c0.3-0.4,0.6-0.7,0.9-1.1c5.1-5,8.3-12.6,8.7-19.7c0.7-11.2-14.1-21.1-22.1-26.5
					c-1.6-1.1-3.3-2.1-4.9-3.1C103.5-7.5,105.7-5.4,107.5-2.8z"/>
				<path class="st9" d="M41.5,22.6c-0.2-3.1,0.1-6.3,1.2-9.2C41.7,16.3,41.3,19.5,41.5,22.6c0.4,5.1,2.2,9.9,4.3,14.5
					c-3.2,4.7-5.3,10.3-6,16c0.7-5.7,2.8-11.2,6-16C43.7,32.5,41.9,27.7,41.5,22.6z"/>
				<path class="st9" d="M39.5,56c0-1,0.1-1.9,0.3-2.9C39.7,54,39.6,55,39.5,56z"/>
				<path class="st9" d="M51.2,84.3c0,0,0.1,0.1,0.1,0.1c0,0,0,0,0,0C51.3,84.4,51.3,84.3,51.2,84.3C51.2,84.3,51.2,84.3,51.2,84.3z
					"/>
				<path class="st9" d="M50.3,83.4C50.3,83.4,50.3,83.4,50.3,83.4c-0.1-0.1-0.3-0.3-0.4-0.4c0,0,0.1,0.1,0.1,0.1
					C50.1,83.2,50.2,83.3,50.3,83.4C50.2,83.4,50.2,83.4,50.3,83.4z"/>
				<path class="st9" d="M46.6,79.3c0.1,0.1,0.2,0.3,0.3,0.4c0.1,0.2,0.3,0.3,0.4,0.5C47.1,79.9,46.9,79.6,46.6,79.3z"/>
				<path class="st10" d="M51.4,84.4c0-0.1,0-0.1-0.1-0.2c0,0,0,0,0,0.1C51.3,84.3,51.3,84.4,51.4,84.4z"/>
				<path class="st10" d="M47.4,80.3c0.2,0.3,0.5,0.6,0.8,0.9c0,0,0,0,0,0c0.3,0.3,0.5,0.6,0.8,0.9c0,0,0,0,0,0
					c0.3,0.3,0.6,0.6,0.9,0.9c0,0,0,0,0,0c0.1,0.1,0.3,0.3,0.4,0.4c0.2-0.1,0.4-0.3,0.5-0.4c-1.6-4.1-2.6-8.3-3.3-12.6c0,0,0,0,0,0
					c-1.7-4-3.2-9.7-3-17.1c0-0.1,0-0.3,0-0.6c0.4-7,2-14.1,5.7-20.1c2.9-4.7,7.4-7.9,12.4-10c-0.2-1.1-0.3-2.2-0.2-3.3
					c0.2-3,1.4-5.3,3.3-7.6c0.7-0.8,1.4-1.6,2.1-2.4c-0.7-0.1-1.4-0.2-2.1-0.3C64.1,9,62.6,9,61,8.9c-3.1,0-6.2,0.3-9.3,0.7
					c2.9-1.2,6.1-1.9,9.2-2.2c2.6-0.2,5.3-0.1,7.9,0.3c0.2-0.3,0.4-0.7,0.5-1.1c1-2.8,0.7-6,1.1-9c0.4-2.9,1.4-5.4,2.8-8
					c1.6-2.7,3.4-5.1,5.4-7.4c0,0,0,0,0,0c-0.1,0-0.1,0-0.2,0c-0.3-0.1-0.7-0.1-1-0.1c-0.4-0.1-0.8-0.1-1.2-0.2
					c-0.3,0-0.6-0.1-0.9-0.1c-0.5,0-0.9-0.1-1.4-0.1c-0.3,0-0.5,0-0.8-0.1c-0.7,0-1.4-0.1-2.2-0.1C63.6-18.5,55.6-17,49.9-12
					c-1.1,1-2.1,2.1-3,3.4c-0.1,0.2-0.3,0.4-0.4,0.6c-0.4,0.6-0.8,1.3-1.1,2c-0.1,0.3-0.3,0.6-0.4,0.9c-1.8,4.4-1.9,9.5,0.6,13.5
					c-1.3,1.5-2.3,3.2-2.9,5c-1.1,2.9-1.5,6.1-1.2,9.2c0.4,5.1,2.2,9.9,4.3,14.5c-3.2,4.7-5.3,10.3-6,16C39.7,54,39.6,55,39.5,56
					c0,1-0.1,1.9,0,2.9c0,0,0,0.1,0,0.1c0,0.4,0,0.9,0.1,1.3c0.2,3,0.8,6,1.7,8.8c0.1,0.4,0.3,0.8,0.4,1.2c0,0.1,0.1,0.2,0.1,0.3
					c0.1,0.3,0.2,0.6,0.3,0.9c0,0.1,0.1,0.2,0.2,0.4c0.1,0.3,0.2,0.6,0.4,0.8c0.1,0.1,0.1,0.2,0.2,0.3c0.1,0.3,0.3,0.6,0.4,0.8
					c0,0.1,0.1,0.2,0.2,0.3c0.1,0.3,0.3,0.6,0.4,0.8c0,0.1,0.1,0.2,0.1,0.3c0.2,0.3,0.3,0.6,0.5,0.8c0,0.1,0.1,0.1,0.1,0.2
					c0.2,0.3,0.4,0.6,0.5,0.9c0,0.1,0.1,0.1,0.1,0.2c0.2,0.3,0.4,0.6,0.6,0.9c0,0,0.1,0.1,0.1,0.1c0.2,0.3,0.4,0.6,0.6,0.9
					c0,0,0,0.1,0.1,0.1C46.9,79.6,47.1,79.9,47.4,80.3C47.4,80.2,47.4,80.2,47.4,80.3z"/>
				<path class="st4" d="M78.4,37.7c0.2,2.2-0.3,4.5-1,6.6c-0.7,2.1-1.5,4.3-1.7,6.5c-0.3,2.5,0.2,5.1,1.2,7.4
					c-0.7-2-0.5-4.3,0.2-6.4c0.8-2.5,2.1-4.8,3.1-7.2c1-2.4,1.6-5.1,0.8-7.7c-0.2-0.8-0.6-1.5-0.8-2.3c-0.9,0-1.7,0.1-2.6,0.1
					C78,35.7,78.3,36.7,78.4,37.7z"/>
				<path class="st4" d="M76.9,58.2c0.1,0.4,0.3,0.8,0.5,1.2C77.3,59.1,77.1,58.7,76.9,58.2z"/>
				<path class="st11" d="M87.9,89.8c-1,0.3-2.1,0.4-3.1,0.3c-0.5,0-1.1-0.1-1.6-0.2c-0.5-0.1-0.9-0.2-1.4-0.3
					c-1.1,0.2-2.2,0.4-3.3,0.4c-1.1-0.1-2.2-0.2-3.2-0.4c-0.4,0.1-0.9,0.2-1.3,0.3c-0.5,0.1-1,0.2-1.6,0.2c-1.1,0.1-2.1,0-3.1-0.3
					c-0.5-0.1-1-0.3-1.5-0.5c-0.4-0.2-0.8-0.3-1.1-0.6c-0.1-0.1-0.2-0.1-0.2-0.2c0,0,0,0,0,0c0,0,0,0,0,0c0,0,0,0,0,0c0,0,0,0,0,0
					c0,0,0,0-0.1,0c0,0,2.1,2.5,3.6,3.5c1.6,1.1,3.4,1.7,5.7,1.8c1.9,0.1,3.7,0,5.6-0.2c0.8-0.1,1.6-0.1,2.3-0.3
					c3.2-0.8,4.9-2.6,6.6-4.4c-0.3,0.2-0.6,0.3-0.8,0.4C88.9,89.4,88.4,89.6,87.9,89.8z"/>
				<path class="st12" d="M90.5,88.6C90.5,88.6,90.5,88.6,90.5,88.6c0.1,0,0.1-0.1,0.2-0.2C90.7,88.5,90.6,88.5,90.5,88.6z"/>
				<path class="st12" d="M67.7,88.1c-0.4,0.1-0.9,0.2-1.2,0.3c0,0,0,0,0,0h0c0.3-0.2,0.8,0,1.2-0.1c1.3-0.4,2.2-0.8,2.5-1
					c2.9-1.4,4.4-2.2,5.8-2.2c0.3,0,0.6,0,0.9,0.1c0.3,0,0.5,0.1,0.8,0.2c0.1,0,0.3,0.1,0.4,0.1c0.1,0,0.2,0.1,0.2,0.1
					c0.1,0,0.1,0.1,0.2,0.1c0.1,0,0.2,0,0.2-0.1c0.1,0,0.2-0.1,0.3-0.1c0.2-0.1,0.5-0.1,0.7-0.2c0.4-0.1,0.9-0.2,1.3-0.2
					c1.4,0,2.9,0.7,5.8,2.2c0.4,0.2,1.3,0.6,2.5,1c0.4,0.1,0.9,0,1.2,0.1l0,0c-0.3-0.2-0.8-0.2-1.2-0.3c-1.3-0.4-2.2-0.9-2.5-1.1
					c-2.9-1.6-4.4-2.4-5.8-2.4c-0.4,0-0.9,0.1-1.3,0.2c-0.2,0.1-0.5,0.1-0.7,0.2c-0.1,0-0.2,0.1-0.3,0.1c-0.1,0-0.1,0.1-0.2,0.1
					c-0.1,0-0.2,0-0.2-0.1c-0.1,0-0.2-0.1-0.2-0.1c-0.1-0.1-0.3-0.1-0.4-0.2c-0.3-0.1-0.5-0.2-0.8-0.2c-0.3-0.1-0.6-0.1-0.9-0.1
					c-1.4,0-2.9,0.8-5.8,2.4C69.8,87.2,68.9,87.6,67.7,88.1z"/>
				<polygon class="st12" points="90.7,88.4 90.7,88.4 90.7,88.4 				"/>
				<path class="st12" d="M68.7,89.9c0,0.1,0.1,0.1,0.2,0.2c0,0,0,0,0,0C68.8,90,68.8,89.9,68.7,89.9z"/>
				<polygon class="st12" points="68.7,89.9 68.7,89.9 68.7,89.9 				"/>
				<path class="st13" d="M90.5,88.6c0.1-0.1,0.1-0.1,0.2-0.2c0,0,0,0,0,0C90.7,88.5,90.6,88.5,90.5,88.6z"/>
				<path class="st13" d="M68.9,90c0,0-0.1-0.1-0.1-0.2c0,0,0,0,0,0C68.8,89.9,68.8,90,68.9,90z"/>
				<path class="st13" d="M67.8,89.1c0.5,0.2,1,0.3,1.5,0.4c1,0.2,2,0.3,3.1,0.2c0.5-0.1,1-0.1,1.5-0.3c0.5-0.1,1-0.3,1.5-0.4
					c1-0.2,2.1-0.3,3.2-0.3c1.1,0,2.1,0.1,3.2,0.3c0.5,0.1,1,0.2,1.5,0.4c0.5,0.1,1,0.2,1.5,0.3c1,0.1,2.1,0,3.1-0.2
					c0.5-0.1,1-0.3,1.5-0.4c0.2-0.1,0.5-0.2,0.7-0.3c0.2-0.1,0.5-0.2,0.6-0.4c-0.3-0.2-0.8,0-1.2-0.1c-1.3-0.4-2.2-0.8-2.5-1
					c-2.9-1.4-4.4-2.2-5.8-2.2c-0.4,0-0.9,0.1-1.3,0.2c-0.2,0.1-0.5,0.1-0.7,0.2c-0.1,0-0.2,0.1-0.3,0.1c-0.1,0-0.1,0.1-0.2,0.1
					c-0.1,0-0.2,0-0.2-0.1c-0.1,0-0.2-0.1-0.2-0.1c-0.1-0.1-0.3-0.1-0.4-0.1c-0.3-0.1-0.5-0.1-0.8-0.2c-0.3,0-0.6-0.1-0.9-0.1
					c-1.4,0-2.9,0.7-5.8,2.2c-0.4,0.2-1.3,0.6-2.5,1c-0.4,0.1-0.9,0-1.2,0.1c0.1,0.2,0.4,0.3,0.6,0.4C67.3,88.9,67.6,89,67.8,89.1z
					 M82.6,85.5c0.1,0,0.2,0,0.2,0c1.6,0.6,2.9,1.7,4.6,2c-0.2,0.1-0.5,0.1-0.7,0.1c-0.5,0-1-0.1-1.5-0.3c-0.8-0.3-1.5-0.6-2.2-1
					c-0.2-0.1-0.6-0.3-0.7-0.5C82.3,85.6,82.4,85.5,82.6,85.5z"/>
				<path class="st14" d="M90.1,88.8c-0.2,0.1-0.5,0.2-0.7,0.3c-0.5,0.2-1,0.3-1.5,0.4c-1,0.2-2,0.3-3.1,0.2c-0.5-0.1-1-0.1-1.5-0.3
					c-0.5-0.1-1-0.3-1.5-0.4c-1-0.2-2.1-0.3-3.2-0.3c-1.1,0-2.1,0.1-3.2,0.3c-0.5,0.1-1,0.2-1.5,0.4c-0.5,0.1-1,0.2-1.5,0.3
					c-1,0.1-2.1,0-3.1-0.2c-0.5-0.1-1-0.3-1.5-0.4c-0.2-0.1-0.5-0.2-0.7-0.3c-0.2-0.1-0.5-0.2-0.6-0.4h0c0,0,0,0,0,0c0,0,0,0,0,0
					l0,0c0,0.1,0.1,0.1,0.2,0.2c0,0,0,0,0,0c0.3,0.3,0.7,0.4,1.1,0.6c0.5,0.2,1,0.4,1.5,0.5c1,0.3,2.1,0.4,3.1,0.3
					c0.5,0,1.1-0.1,1.6-0.2c0.4-0.1,0.9-0.2,1.3-0.3c1.1,0.2,2.1,0.3,3.2,0.4c1.1-0.1,2.2-0.2,3.3-0.4c0.5,0.1,0.9,0.2,1.4,0.3
					c0.5,0.1,1,0.2,1.6,0.2c1.1,0.1,2.1,0,3.1-0.3c0.5-0.1,1-0.3,1.5-0.5c0.3-0.1,0.6-0.2,0.8-0.4c0.1-0.1,0.2-0.1,0.3-0.2
					c0,0,0,0,0,0c0.1-0.1,0.1-0.1,0.2-0.2c0,0,0,0,0,0c0,0,0,0,0,0c0,0,0,0,0,0l0,0C90.6,88.6,90.3,88.7,90.1,88.8z"/>
				<path class="st14" d="M83.1,86.4c0.7,0.4,1.4,0.7,2.2,1c0.5,0.2,1,0.3,1.5,0.3c0.3,0,0.5,0,0.7-0.1c-1.7-0.3-3-1.4-4.6-2
					c-0.1,0-0.2,0-0.2,0c-0.2,0-0.4,0.1-0.3,0.4C82.5,86.1,82.9,86.3,83.1,86.4z"/>
				<polygon class="st15" points="70.8,68.9 70.8,68.9 70.8,68.9 				"/>
				<polygon class="st15" points="70.8,68.9 70.8,68.9 70.8,68.9 				"/>
				<path class="st16" d="M55.3,66.1c0,0,0-0.1,0-0.1c0,0.1,0,0.2,0,0.3C55.3,66.2,55.3,66.2,55.3,66.1
					C55.3,66.2,55.3,66.2,55.3,66.1z"/>
				<path class="st17" d="M55.3,66.2C55.3,66.2,55.3,66.2,55.3,66.2C55.3,66.2,55.3,66.2,55.3,66.2C55.3,66.2,55.3,66.2,55.3,66.2z"
					/>
				<polygon class="st15" points="84.9,68.9 84.9,68.9 84.9,68.9 				"/>
				<polygon class="st15" points="84.9,68.9 84.9,68.9 84.9,68.9 				"/>
				<path class="st16" d="M100.4,66.2C100.4,66.2,100.4,66.2,100.4,66.2c0,0,0-0.1,0-0.2C100.4,66,100.4,66.1,100.4,66.2
					C100.4,66.2,100.4,66.2,100.4,66.2z"/>
				<path class="st17" d="M100.4,66.1C100.4,66.2,100.4,66.2,100.4,66.1C100.4,66.2,100.4,66.2,100.4,66.1
					C100.4,66.2,100.4,66.2,100.4,66.1z"/>
				<path class="st18" d="M75.8,34.3l1.8-0.7c4.9-1.8,10-3.1,15.1-4.3c-5.3,0.4-10.5,1.3-15.6,2.9c-5.1,1.5-10,3.7-14.5,6.7
					c-4.4,3-8.4,6.9-11.1,11.5c-1.4,2.3-2.5,4.8-3.1,7.4c-0.3,1.3-0.6,2.6-0.8,3.9c-0.1,1.3-0.2,2.7-0.1,4c0.1-1.3,0.3-2.6,0.6-3.9
					c0,0,0-0.1,0-0.1c0.3-1.2,0.6-2.5,1.1-3.6c0.9-2.4,2.1-4.7,3.5-6.9c1.4-2.1,3.1-4.1,4.9-5.9c1.8-1.8,3.8-3.4,6-4.8
					c2.1-1.4,4.4-2.7,6.7-3.8c0.6-0.3,1.1-0.6,1.7-0.8c0.6-0.3,1.2-0.5,1.8-0.8C74.6,34.7,75.2,34.5,75.8,34.3z"/>
				<path class="st18" d="M68.3,24.3c-1.5,0.2-3,0.5-4.4,0.9c-1.4,0.5-2.9,1-4.2,1.6c-1.4,0.6-2.7,1.3-4,2.2
					c-2.5,1.6-4.9,3.6-6.7,5.9c2.4-1.8,4.9-3.3,7.5-4.6c1.3-0.6,2.6-1.3,3.9-1.8c1.3-0.5,2.7-1,4.1-1.4c2.8-0.8,5.6-1.3,8.5-1.5
					c2.9-0.2,5.8-0.1,8.8,0.3c-2.8-1.1-5.8-1.7-8.8-1.7C71.3,24,69.8,24.1,68.3,24.3z"/>
				<path class="st18" d="M74.4,11.3c1.4,0.6,2.7,1.3,4,2.2c2.5,1.7,4.6,4,6.4,6.6c-1.1-2.9-3-5.7-5.5-7.7c-1.2-1-2.6-1.9-4.1-2.6
					c-1.5-0.7-3-1.2-4.6-1.6C70,8,69.5,7.9,68.9,7.8c-2.6-0.4-5.3-0.5-7.9-0.3c-3.2,0.3-6.3,1-9.2,2.2C54.8,9.2,57.9,9,61,8.9
					c1.5,0,3.1,0.1,4.6,0.2c0.7,0.1,1.4,0.2,2.1,0.3c0.8,0.1,1.6,0.3,2.4,0.5C71.6,10.3,73,10.7,74.4,11.3z"/>
				<path class="st18" d="M106.2-2c2,3.4,3.2,7.1,3.9,11c0.3,1.9,0.5,3.9,0.6,5.9c0.1,2,0,3.9-0.1,5.9c-0.3,3.7-0.8,7.3-1.6,11
					c-0.1-0.1-0.2-0.1-0.4-0.2c-0.8-0.3-1.5-0.7-2.4-0.9c-0.3-0.1-0.7-0.2-1-0.3c-2.9-0.8-5.9-1.1-8.8-0.9c3.2,0.6,6.4,1.4,9.3,2.6
					c0.4,0.1,0.7,0.3,1,0.5c0.4,0.2,0.7,0.4,1.1,0.6c0.7,0.4,1.4,0.8,2,1.2c0.7,0.4,1.3,0.9,1.9,1.4c0.6,0.5,1.1,1.1,1.7,1.6
					c2.1,2.3,3.7,5.1,4.7,8.1c1,3,1.6,6.2,1.8,9.5c0,0,0,0,0,0c0.6-3.2,0.4-6.6-0.4-9.9c-0.3-1.3-0.7-2.5-1.3-3.7
					c-0.2-0.4-0.3-0.7-0.5-1.1c-0.8-1.5-1.8-2.9-2.9-4.2c-0.6-0.6-1.2-1.2-1.9-1.8c-0.7-0.5-1.3-1.1-2.1-1.5c-0.5-0.4-1.1-0.7-1.7-1
					c0.7-1.6,1.2-3.3,1.7-5c0.5-2,0.9-3.9,1.2-6c0.6-4,0.6-8.2-0.1-12.2c-0.4-2-0.9-4-1.6-6c-0.7-1.9-1.7-3.8-2.9-5.5
					c-1.7-2.6-4-4.7-6.5-6.4c-0.9-0.6-1.8-1.1-2.7-1.5c0,0,0,0,0,0C101.5-8.2,104.3-5.4,106.2-2z"/>
				<path class="st19" d="M54.8,86.2c0,0,2-0.6,3.5,1.7s0.9,6.3,0.9,6.3s-1.6-2.3-3.1-4.4c-1.5-2.1-1.8-3.5-1.8-3.5L54.8,86.2z"/>
				<path class="st19" d="M64.9,97.2c0,0,2-0.6,3.5,1.7c1.5,2.3,0.9,6.3,0.9,6.3s-1.6-2.3-3.1-4.4c-1.5-2.1-1.8-3.5-1.8-3.5
					L64.9,97.2z"/>
			</g>
			<g id="XMLID_2_">
				<g>
					<path class="st20" d="M66.1,96.6c0.6,0.1,0.8,0.8,0.9,1.4c0.2,1.6-0.1,3.2-1,4.6c-0.2,0.3-0.4,0.5-0.6,0.7
						c-0.3,0.2-0.6,0.3-0.9,0.2c-0.3-0.1-0.6-0.5-0.7-0.8c-0.1-0.4-0.1-0.7,0-1.1l-0.1,0c0.3-1.7,0.6-3.3,1.1-4.3
						C65.1,96.8,65.6,96.4,66.1,96.6z"/>
					<path class="st20" d="M56.1,89c0.3,0.3,0.5,0.7,0.6,1.1c0,0.4,0,0.9-0.1,1.3c-0.2,1-0.4,2-1,2.9c-0.2,0.3-0.4,0.6-0.7,0.6
						c-0.3,0.1-0.7-0.1-0.8-0.4l-0.1,0c0.1-1.1,0.3-2.2,0.4-3.1c0.1-1.1,0.3-1.9,0.4-2.4l0.1,0C55.3,88.7,55.8,88.7,56.1,89z"/>
					<path class="st20" d="M51.5,88.5c0.3,0,0.7,0.2,0.9,0.5c0.2,0.3,0.2,0.7,0.1,1.1c-0.1,0.9-0.2,1.9-0.5,2.8
						c-0.1,0.4-0.2,0.8-0.5,1.1c-0.3,0.3-0.7,0.5-1,0.4c-0.3-0.1-0.6-0.5-0.5-0.8l-0.2,0c0.2-1.3,0.4-2.5,0.6-3.4
						c0.1-0.6,0.2-1,0.3-1.4C50.9,88.5,51.2,88.5,51.5,88.5z"/>
					<path class="st2" d="M52.4,90c0-0.4,0.1-0.8-0.1-1.1c-0.2-0.3-0.5-0.4-0.9-0.5c-0.3,0-0.6,0-0.9,0.1c0.1-0.4,0.2-0.6,0.3-0.7
						c1.1-0.9,3.4,1.9,3.5,3.4l0.1,0c-0.1,0.9-0.3,2-0.4,3.1l0.1,0c0,0.3,0.4,0.5,0.8,0.4c0.3-0.1,0.6-0.4,0.7-0.6
						c0.5-0.9,0.8-1.9,1-2.9c0.1-0.4,0.1-0.9,0.1-1.3c-0.1-0.4-0.2-0.9-0.6-1.1c-0.3-0.3-0.8-0.3-1.2-0.1l-0.1,0
						c0-0.2,0.1-0.3,0.1-0.4c0.4-1.5,6.5-0.5,3.9,16l4,9.7l-0.1-2.1c0,0,0.2-5.9,1-10.6l0.1,0c0,0.4-0.1,0.7,0,1.1
						c0.1,0.4,0.3,0.7,0.7,0.8c0.3,0.1,0.7,0,0.9-0.2c0.3-0.2,0.5-0.4,0.6-0.7c0.8-1.3,1.2-3,1-4.6c-0.1-0.6-0.3-1.2-0.9-1.4
						c-0.5-0.1-1,0.2-1.4,0.6c0.4-1,0.9-1.5,1.5-1.3c3.1,0.9,2.2,6.8,2.2,6.8l0.4,14.6c0,0,6.3,6.2,10.9,14.2
						c4.6,8-1.8,17.2-1.8,17.2l-1.8,43.8H51.1c0,0,11.5-34.1,11.3-44.6c-0.2-10.5-4.6-16.3-7.4-19.6c-2.8-3.4-9.4-19.6-9.3-21.4
						c0.1-1.8,3.1-15.8,3.5-16.7c0.3-0.6,0.7-0.3,0.9,0c-0.2,0.9-0.4,2.1-0.6,3.4l0.2,0c-0.1,0.3,0.2,0.7,0.5,0.8
						c0.4,0.1,0.8-0.1,1-0.4c0.3-0.3,0.4-0.7,0.5-1.1C52.2,91.9,52.3,91,52.4,90z"/>
				</g>
				<path class="st5" d="M57.6,116.8c-1-2-1.9-4.1-2.9-6.1c-0.4-0.9-0.9-1.9-1.3-2.8c-0.5-1.1-0.8-2-0.7-3.2
					c0.5-4.3,1.3-8.3,1.7-12.6c0.1-0.6,0.1-1.5,0-0.9c-0.2,2.3-1.3,5.3-1.7,7.6c-0.4,2.1-0.9,4.3-1,6.4c-0.1,1,0.3,1.9,0.7,2.8
					c0.5,1,0.9,2,1.4,3c1,2.1,2,4.2,3,6.3C57,117.9,57.9,117.4,57.6,116.8z"/>
				<path class="st5" d="M52.9,116.7c-0.8-1.8-1.7-3.6-2.5-5.5c-0.8-1.7-1.9-3.5-1.8-5.4c0-1.9,0.5-3.9,0.7-5.8
					c0.3-2,0.5-6.9,0.8-8.9c0.1-0.6-0.8,2-0.9,2.6c-0.3,2.1-0.6,4.1-0.9,6.2c-0.1,1-0.3,2.1-0.4,3.1c-0.1,1-0.3,2-0.3,3
					c0,1.9,1,3.6,1.8,5.3c0.9,1.9,1.8,3.9,2.7,5.8C52.3,117.7,53.1,117.2,52.9,116.7z"/>
			</g>
			<g>
				<path class="st21" d="M39.3,36.7l-2-5.2l-2,5.4C34.5,38.9,33,40.4,31,41L26,42.8l5.5,2c1.9,0.7,3.5,2.3,4.1,4.2l1.7,5l1.8-4.9
					c0.7-1.8,2-3.3,3.8-4l5.7-2.4l-5.4-2.1C41.4,40,39.9,38.5,39.3,36.7z"/>
				<path class="st21" d="M105.6,11.4l-1.3-3.4l-1.3,3.5c-0.5,1.2-1.4,2.2-2.7,2.6l-3.3,1.1l3.5,1.3c1.2,0.5,2.2,1.5,2.6,2.7
					l1.1,3.2l1.2-3.2c0.4-1.2,1.3-2.1,2.4-2.6l3.6-1.5l-3.4-1.4C107,13.5,106.1,12.6,105.6,11.4z"/>
				<path class="st21" d="M30.7,98.4l-0.8-2.2L29,98.5c-0.3,0.8-0.9,1.4-1.7,1.7l-2.1,0.7l2.3,0.8c0.8,0.3,1.4,0.9,1.7,1.8l0.7,2.1
					l0.7-2.1c0.3-0.8,0.8-1.4,1.6-1.7l2.4-1l-2.2-0.9C31.6,99.7,31,99.2,30.7,98.4z"/>
				<path class="st21" d="M140.1,50.5l-0.8-2.2l-0.8,2.3c-0.3,0.8-0.9,1.4-1.7,1.7l-2.1,0.7l2.3,0.8c0.8,0.3,1.4,0.9,1.7,1.8
					l0.7,2.1l0.7-2.1c0.3-0.8,0.8-1.4,1.6-1.7l2.4-1l-2.2-0.9C141,51.8,140.4,51.2,140.1,50.5z"/>
				<path class="st21" d="M156.5,86l-0.7-1.7l-0.7,1.8c-0.2,0.6-0.7,1.1-1.4,1.3l-1.7,0.6l1.8,0.7c0.6,0.2,1.1,0.7,1.4,1.4l0.6,1.7
					l0.6-1.6c0.2-0.6,0.7-1.1,1.3-1.3l1.9-0.8l-1.8-0.7C157.2,87,156.7,86.6,156.5,86z"/>
				<path class="st21" d="M59.5,138.9l-0.7-1.7l-0.7,1.8c-0.2,0.6-0.7,1.1-1.4,1.3l-1.7,0.6l1.8,0.7c0.6,0.2,1.1,0.7,1.4,1.4
					l0.6,1.7l0.6-1.6c0.2-0.6,0.7-1.1,1.3-1.3l1.9-0.8l-1.8-0.7C60.2,140,59.7,139.5,59.5,138.9z"/>
				<path class="st21" d="M130.4,98l-1.4-3.6l-1.4,3.7c-0.5,1.3-1.5,2.4-2.9,2.8l-3.5,1.2l3.8,1.4c1.3,0.5,2.4,1.6,2.8,2.9l1.2,3.4
					l1.2-3.4c0.5-1.2,1.4-2.2,2.6-2.7l3.9-1.6l-3.7-1.5C131.8,100.2,130.9,99.2,130.4,98z"/>
			</g>
		</g>
	</g>
	<g>
		<g>
			<g>
				<path class="st22" d="M142,113.2c-4.4-5.9-5.3-7.9-5.3-13.7h-18c0,5.8-0.9,7.8-5.3,13.7c-4.4,5.9-5.4,8.8-5.4,13.8v19.9
					c0,1.9,1.6,3.5,3.5,3.5h32.4c1.9,0,3.5-1.6,3.5-3.5v-19.9C147.5,121.9,146.4,119.1,142,113.2z"/>
			</g>
			<g>
				<path class="st23" d="M140.6,114.2h-25.6c-4.3,5.8-5,8.3-5,12.7v19.9c0,0.9,0.8,1.7,1.7,1.7h32.4c0.9,0,1.7-0.8,1.7-1.7v-19.9
					C145.6,122.5,144.9,120.1,140.6,114.2z"/>
			</g>
			<g>
				<g>
					<path class="st24" d="M123,150.4h21c1.9,0,3.5-1.6,3.5-3.5v-19.9c0-5-1-7.9-5.4-13.8c-4.4-5.9-5.3-7.9-5.3-13.7H124l-5.3,2.1
						c0,0,0,0.1,0,0.1c1.1,0.6,10.9,1.2,10.9,1.6c1,7.1,3.5,13.7,6,19C138,127.3,137.9,144.7,123,150.4z"/>
				</g>
			</g>
			<g>
				<path class="st23" d="M136.8,70.1h-18.1c-1.3,0-2.4,1.1-2.4,2.4v26.6c0,1.3,1.1,2.4,2.4,2.4h18.1c1.3,0,2.4-1.1,2.4-2.4V72.5
					C139.2,71.2,138.1,70.1,136.8,70.1z"/>
			</g>
			<g>
				<g>
					<path class="st25" d="M120.5,77.5L120.5,77.5c-1.2,0-2.2-1-2.2-2.2v-0.5c0-1.2,1-2.2,2.2-2.2h0c1.2,0,2.2,1,2.2,2.2v0.5
						C122.7,76.5,121.7,77.5,120.5,77.5z"/>
				</g>
			</g>
			<g>
				<g>
					<path class="st25" d="M120.5,89.9L120.5,89.9c-1.2,0-2.2-1-2.2-2.2v-7.4c0-1.2,1-2.2,2.2-2.2h0c1.2,0,2.2,1,2.2,2.2v7.4
						C122.7,88.9,121.7,89.9,120.5,89.9z"/>
				</g>
			</g>
			<g>
				<g>
					<path class="st24" d="M137.9,70.1H134c0.9,12.6-5.6,26-8.5,31.3h12.4c0.7,0,1.3-0.6,1.3-1.3V71.4
						C139.2,70.7,138.6,70.1,137.9,70.1z"/>
				</g>
			</g>
			<g>
				<g>
					<path class="st24" d="M145.7,138h-21.2c-0.6,0-1.1-0.5-1.1-1.1v-9.4c0-0.6,0.5-1.1,1.1-1.1h21.2c0.6,0,1.1,0.5,1.1,1.1v9.4
						C146.8,137.5,146.3,138,145.7,138z"/>
				</g>
			</g>
			<g>
				<path class="st26" d="M146.4,137.3h-21.2c-0.6,0-1.1-0.5-1.1-1.1v-9.4c0-0.6,0.5-1.1,1.1-1.1h21.2c0.6,0,1.1,0.5,1.1,1.1v9.4
					C147.4,136.8,147,137.3,146.4,137.3z"/>
			</g>
			<g>
				<g>
					<rect x="125" y="128" class="st24" width="12.5" height="2.2"/>
				</g>
			</g>
			<g>
				<g>
					<rect x="125" y="132.1" class="st24" width="21.1" height="0.9"/>
				</g>
			</g>
		</g>
		<g>
			<g>
				<path class="st27" d="M173,150.6h-43.8c-2.5,0-4.6-2.1-4.6-4.6v-21.8c0-2.5,2.1-4.6,4.6-4.6H173c2.5,0,4.6,2.1,4.6,4.6v21.8
					C177.6,148.5,175.5,150.6,173,150.6z"/>
			</g>
			<g>
				<path class="st28" d="M167.4,111.8h-32.6c-1.4,0-2.6,1.2-2.6,2.6v2.5c0,1.4,1.2,2.6,2.6,2.6h32.6c1.4,0,2.6-1.2,2.6-2.6v-2.5
					C170,113,168.8,111.8,167.4,111.8z"/>
			</g>
			<g>
				<g>
					<path class="st25" d="M141.7,116.4h-6.5c-0.7,0-1.3-0.6-1.3-1.3v-0.8c0-0.7,0.6-1.3,1.3-1.3h6.5c0.7,0,1.3,0.6,1.3,1.3v0.8
						C143,115.8,142.4,116.4,141.7,116.4z"/>
				</g>
			</g>
			<g>
				<g>
					<path class="st25" d="M145.6,116.4h-0.8c-0.7,0-1.3-0.6-1.3-1.3v-0.8c0-0.7,0.6-1.3,1.3-1.3h0.8c0.7,0,1.3,0.6,1.3,1.3v0.8
						C146.8,115.8,146.3,116.4,145.6,116.4z"/>
				</g>
			</g>
			<g>
				<path class="st3" d="M157.9,144.1h-27.5c-1.4,0-2.6-1.2-2.6-2.6v-13.7c0-1.4,1.2-2.6,2.6-2.6h27.5c1.4,0,2.6,1.2,2.6,2.6v13.7
					C160.6,143,159.4,144.1,157.9,144.1z"/>
			</g>
			<g>
				<g>
					<path class="st24" d="M173.2,119.5h-4.6c0.8-0.1,1.5-0.8,1.5-1.7v-4.4c0-0.9-0.8-1.7-1.7-1.7h-10.7c-0.1,0-0.1,0.1-0.1,0.1
						c0.6,4.1-2.3,7.6-2.3,7.6h4.9c0.1,4.6-1.4,23.6-16.6,31.1h29.6c2.4,0,4.4-2,4.4-4.4v-22.3C177.6,121.5,175.6,119.5,173.2,119.5
						z"/>
				</g>
			</g>
			<g>
				<g>
					<path class="st29" d="M133.6,148h-1.4c-1.3,0-2.3-1-2.3-2.3v-14.7c0-1.3,1-2.3,2.3-2.3h1.4c1.3,0,2.3,1,2.3,2.3v14.7
						C135.9,146.9,134.9,148,133.6,148z"/>
				</g>
			</g>
			<g>
				<g>
					<path class="st29" d="M133.6,127.3h-1.4c-1.3,0-2.3-1-2.3-2.3v-1.4c0-1.3,1-2.3,2.3-2.3h1.4c1.3,0,2.3,1,2.3,2.3v1.4
						C135.9,126.3,134.9,127.3,133.6,127.3z"/>
				</g>
			</g>
		</g>
	</g>
</g>
</svg>
