<?xml version="1.0" encoding="utf-8"?>
<!-- Generator: Adobe Illustrator 25.4.8, SVG Export Plug-In . SVG Version: 6.00 Build 0)  -->
<svg version="1.1" id="Layer_1" xmlns="http://www.w3.org/2000/svg" xmlns:xlink="http://www.w3.org/1999/xlink" x="0px" y="0px"
	 viewBox="0 0 166.6 166.6" style="enable-background:new 0 0 166.6 166.6;" xml:space="preserve">
<style type="text/css">
	.st0{opacity:0.18;fill:url(#SVGID_1_);enable-background:new    ;}
	.st1{fill:#FFA47C;}
	.st2{fill:#EAF2F2;}
	.st3{fill:#EF956D;}
	.st4{fill:#FFCAAA;}
	.st5{fill:#FFBF99;}
	.st6{fill:#FFFFFA;}
	.st7{fill:#39666E;}
	.st8{fill:#DCA06F;}
	.st9{fill:#FFFFFF;}
</style>
<g id="Layer_1_00000054264547416604876150000006472794676067225778_">
</g>
<g>
	<linearGradient id="SVGID_1_" gradientUnits="userSpaceOnUse" x1="0.1499" y1="83.15" x2="166.4501" y2="83.15">
		<stop  offset="0" style="stop-color:#5F74B1"/>
		<stop  offset="0.2466" style="stop-color:#7A90D2"/>
		<stop  offset="0.4903" style="stop-color:#8FA6EB"/>
		<stop  offset="0.7125" style="stop-color:#9CB3FA"/>
		<stop  offset="0.8936" style="stop-color:#A0B7FF"/>
	</linearGradient>
	<circle class="st0" cx="83.3" cy="83.2" r="83.2"/>
	<g>
		<path class="st1" d="M35.8,151.2c13.5,9.5,30,15.1,47.8,15.1c18.4,0,35.3-6,49.1-16.1c-11.5-3.5-28.3-5.7-47.1-5.7
			C65.2,144.5,47.2,147.1,35.8,151.2z"/>
		<path class="st2" d="M80.9,5.7C63.8,5.9,52.8,10,49.3,15.9c-3.5,5.9-2,17.1,1.2,18.3l59.7-8.1c0,0,2.6-5.9,1.9-12.2
			C111.3,7.6,95.7,5.6,80.9,5.7z"/>
		<path class="st1" d="M104.7,106.4c0.2-9-38.2-10.1-38.4-1c-0.6,33.6-13.8,41.5-13.8,41.5s9.2,16.9,33.6,16.9
			c22,0,31.1-16.8,31.1-16.8S104.1,139.9,104.7,106.4z"/>
		<path class="st3" d="M65.4,112c0,0-0.5,10.1-3.2,19.9c-2.4,8.7-9.7,15-9.7,15s3.9,6.2,9.6,9.9c7.9,5,13.9,5.9,13.9,5.9l29.8-36.9
			l-1.3-15.7L65.4,112z"/>
		<path class="st4" d="M84.8,22.3c-22.2,0-43.1,23.5-40.1,52.2c3.1,30.3,25.1,54.2,40.1,54.2c14.7,0,36.8-24.4,40.2-54.2
			C128.2,45.8,107,22.3,84.8,22.3z"/>
		<path class="st5" d="M45.4,77c2.9,27.1,23.7,50.4,38.1,51.7c-11.1-8.4-21.7-24.9-23.7-44.1c-2.8-26.5,17.2-48.2,38.4-48.2
			c2.2,0,4.4,0.3,6.6,0.7c-6-4.2-12.9-6.6-19.9-6.6C63.6,30.6,42.6,50.5,45.4,77z"/>
		<path class="st6" d="M104.7,23.5c-12.8-7-29-3.5-37.7,2.1c-8.7,5.6-9.6,19.2-9.6,19.2s34.8,1.1,46.8,9.4
			c15.9,10.9,18.6,31.3,18.6,31.3s4.6-9.8,2.7-28.5C124,41.4,113.7,28.4,104.7,23.5z"/>
		<path class="st6" d="M64.9,18.6C43.6,28.7,42.5,48.1,41.5,59.3c-0.9,11.2,4.5,23.5,4.5,23.5s1.8-8.3,8.4-17.4
			c10.1-14.2,27-19.5,37.3-22c10.8-2.6,27.2-5.6,27.2-5.6s2.5-13.2-1.8-19.3S86.3,8.5,64.9,18.6z"/>
		<path class="st2" d="M117.5,33.2c-1.7,2.3-9.8,2-19.9,3.7c-20.6,3.4-35.2,10.6-44.1,23.7c-8.9,13.1-7.4,22.3-7.4,22.3
			s1.8-8.3,8.4-17.4c10.1-14.2,27-19.5,37.3-22c10.8-2.6,27.2-5.6,27.2-5.6s1.1-5.8,0.6-11.5C119.5,26.6,119.1,31,117.5,33.2z"/>
		<path class="st2" d="M87.3,43.4l-8.1,3.4l0,0c9.5,1.4,19.6,3.6,25.1,7.4c15.9,10.9,18.6,31.3,18.6,31.3s1.5-14.1-8.2-27.2
			C103.7,43.5,87.3,43.4,87.3,43.4z"/>
		<path class="st7" d="M84.1,52.5c-19,0-33.3,19.9-32.2,29.7c2.9,25.9,20.1,45.1,33,45.1c12.6,0,30.4-20.5,33.3-46
			C119.2,72.5,103,52.5,84.1,52.5z"/>
		<path class="st4" d="M68.3,75.7c-5.5,0-9.9,3.6-9.9,8s4.4,8,9.9,8c5.5,0,9.9-3.6,9.9-8S73.8,75.7,68.3,75.7z"/>
		<path class="st4" d="M101.5,75.7c-5.5,0-9.9,3.6-9.9,8s4.4,8,9.9,8c5.5,0,9.9-3.6,9.9-8S106.9,75.7,101.5,75.7z"/>
		<path class="st4" d="M84.8,108.9c-5.5,0-9.9,2.6-9.9,5.8c0,3.2,4.4,5.8,9.9,5.8c5.5,0,9.9-2.6,9.9-5.8
			C94.7,111.5,90.3,108.9,84.8,108.9z"/>
	</g>
	<path class="st8" d="M52.3,96.7c-1.1-2.9,1.4-16.2-1.2-24.3c-2.7-8.2-13.3-11.6-16.1-13.1c-2.8-1.5-10.2-13.6-10.2-13.6L9.3,56.8
		c0,0,11.9,11.9,13.9,13.7c1.9,1.8,15.6,26.1,16.9,28.6c1.4,2.6,18.1,18.2,19.2,19.3c2.7,2.7,4.1,5.6,6,5.3
		c2.9-0.5,0.3-7.4-1.6-10.3C62.4,111.4,53.4,99.6,52.3,96.7z"/>
	<path class="st8" d="M56.7,86.6c-1.4-2-2.8-3.4-3.2-4.6c-1.2-3.5-0.9-8.5-3.2-13.7c-1.3-3-6.9-7.8-11.3-7c-4.4,0.8-5.4,5.4-5.1,7.4
		c0.3,2,7.9,12.6,9.4,13.6c1.5,1,6.9,7.1,9,9.1c1.8,1.7,4.8,6.1,6.1,6.4c1.3,0.3,2.9-1.3,2.2-3.7C60,91.8,58.1,88.6,56.7,86.6z"/>
	<path class="st8" d="M135.9,59.3c-2.8,1.5-13.4,4.9-16.1,13.1c-2.7,8.2-0.1,21.4-1.2,24.3c-1.1,2.9-10.1,14.7-11.4,16.7
		c-1.9,2.9-4.5,9.7-1.6,10.3c1.9,0.4,3.2-2.6,6-5.3c1.1-1.1,17.9-16.7,19.2-19.3c1.4-2.6,15-26.8,16.9-28.6
		c1.9-1.8,13.9-13.7,13.9-13.7l-15.4-11.1C146.2,45.7,138.8,57.8,135.9,59.3z"/>
	<path class="st8" d="M131.9,61.3c-4.4-0.7-9.9,4-11.3,7c-2.3,5.2-2,10.3-3.2,13.7c-0.4,1.2-1.7,2.6-3.2,4.6c-1.4,2-3.3,5.1-4,7.5
		c-0.7,2.4,0.9,4,2.2,3.7c1.3-0.3,4.3-4.7,6.1-6.4c2.1-2,7.6-8.1,9-9.1c1.5-1,9.1-11.6,9.4-13.6C137.2,66.7,136.3,62.1,131.9,61.3z"
		/>
	<path class="st9" d="M134.7,52l22.5,19.9l7.5-8.5c-2.6-10.9-7.4-20.9-13.9-29.6L134.7,52z"/>
	<path class="st9" d="M3.8,60.9l11.7,10.4l19.9-22.5L17.6,33C11.3,41.2,6.6,50.7,3.8,60.9z"/>
</g>
</svg>
