<?xml version="1.0" encoding="utf-8"?>
<!-- Generator: Adobe Illustrator 25.4.8, SVG Export Plug-In . SVG Version: 6.00 Build 0)  -->
<svg version="1.1" id="Layer_1" xmlns="http://www.w3.org/2000/svg" xmlns:xlink="http://www.w3.org/1999/xlink" x="0px" y="0px"
	 viewBox="0 0 166.2 166.2" style="enable-background:new 0 0 166.2 166.2;" xml:space="preserve">
<style type="text/css">
	.st0{fill:#F4CA9F;}
	.st1{opacity:0.5;fill:url(#SVGID_1_);}
	.st2{opacity:0.5;fill:url(#SVGID_00000179607701086302763280000016261415438130802057_);}
	.st3{opacity:0.5;}
	.st4{fill:url(#SVGID_00000127045877770334317360000003453803358789955718_);}
	.st5{fill:url(#SVGID_00000096741762480449129400000001134478634219164330_);}
	.st6{fill:url(#SVGID_00000054228476700987973570000007043555485340132516_);}
	.st7{fill:url(#SVGID_00000150791032734588940880000014383340722335110816_);}
	.st8{fill:url(#SVGID_00000069386856321441915540000006279507501132644992_);}
	.st9{fill:#E9B6B5;}
	.st10{fill:url(#SVGID_00000182511825295641801800000002756162258237718408_);}
	.st11{fill:url(#SVGID_00000117654808836646291930000015189881088174452376_);}
	.st12{fill:url(#SVGID_00000002348312555763787700000007790164190497843128_);}
	.st13{fill:url(#SVGID_00000085968674471387006970000009581614432403074738_);}
	.st14{fill:url(#SVGID_00000030465689915062551610000011085451203105612180_);}
	.st15{fill:url(#SVGID_00000178916769634358864170000010761342435795933348_);}
	.st16{fill:url(#SVGID_00000003817416201975649880000012022686369209862832_);}
	.st17{fill:url(#SVGID_00000039103648315785328890000001126339323223478672_);}
	.st18{fill:url(#SVGID_00000004532295225158807290000015976445304373529741_);}
	.st19{fill:#EDC5C4;}
</style>
<g>
	
		<ellipse transform="matrix(0.7071 -0.7071 0.7071 0.7071 -34.4203 83.0979)" class="st0" cx="83.1" cy="83.1" rx="83.1" ry="83.1"/>
	<g>
		<radialGradient id="SVGID_1_" cx="76.7886" cy="54.049" r="22.3066" gradientUnits="userSpaceOnUse">
			<stop  offset="0" style="stop-color:#C6534E"/>
			<stop  offset="0.158" style="stop-color:#CD6864"/>
			<stop  offset="0.4869" style="stop-color:#DF9F9C"/>
			<stop  offset="0.9558" style="stop-color:#FCF6F6"/>
			<stop  offset="1" style="stop-color:#FFFFFF"/>
		</radialGradient>
		<path class="st1" d="M91.3,29.8c-2.4-1.2-5.7-1-8.1-0.1c-1.6,0.6-2.9,1.3-4.2,2.3c-0.8,0.6-1.5,1.2-2.3,1.8
			c0.1-0.1-2.4,1.2-2.5,1.4c0.4-0.6-0.2-1.1-0.8-0.7c-0.1,0.1-0.2,0.2-0.3,0.3c-1.2-0.9-2.3-2-4-1.2c-2,0.8-2.9,3.8-3.5,5.6
			c-0.9,2.7,0.1,5.7,0.9,8.3c0.8,2.5,1.7,5,0.4,7.6c-0.7,1.4-2.1,2.5-3,3.8c-1.7,2.3-2.9,4.7-2.9,7.6c0,3.4,3.1,6.5,5.5,8.6
			c4.1,3.6,10.7,3.1,14.8,0.1c5-3.7,9.3-7.1,11-12.5c1-3.1,1-7.3,2.8-9.9c1.8-2.7,2.1-5.4,2.2-8.5C97.5,38.8,96.5,32.5,91.3,29.8z"
			/>
		
			<radialGradient id="SVGID_00000114035942915357607820000013415014959314810017_" cx="96.4993" cy="118.9398" r="25.9359" gradientUnits="userSpaceOnUse">
			<stop  offset="0" style="stop-color:#C6534E"/>
			<stop  offset="0.158" style="stop-color:#CD6864"/>
			<stop  offset="0.4869" style="stop-color:#DF9F9C"/>
			<stop  offset="0.9558" style="stop-color:#FCF6F6"/>
			<stop  offset="1" style="stop-color:#FFFFFF"/>
		</radialGradient>
		<path style="opacity:0.5;fill:url(#SVGID_00000114035942915357607820000013415014959314810017_);" d="M117.1,108.6
			c-4.4-6.7-9.7-8.9-17.4-12.7c-0.6-0.3-1.1-0.8-1.5-1.5c-1-0.3-2-0.7-3-0.9c-3.7-0.6-5.4,2.4-8.6,3.2c-3.2,0.9-7.4,0.8-8.2,4.5
			c0.3,0.5,0.6,1,0.9,1.5c0.4,0.7,0.7,1.3,0.9,2c-1.6,1.9-2.8,4-3.5,6.3c-0.7,2.6,0.2,5.2,1,7.7c0.6,1.9-0.2,4.1,0.5,6
			c0.6,1.7,2.1,2.3,3.2,3.7c2.2,2.9-1.3,6.2-1.7,8.9c-0.8,5.9,5.6,5.9,9.5,5.1c5.1-0.9,5.9-5.3,9.4-8.9c1.7-1.8,4.2-2.6,6.4-3.8
			c2.5-1.3,4.1-0.1,6.3-1.9C115.5,124.3,120.6,113.9,117.1,108.6z"/>
		<g class="st3">
			
				<radialGradient id="SVGID_00000116204543743880783110000016482599212407711616_" cx="61.6751" cy="51.3486" r="34.8466" gradientUnits="userSpaceOnUse">
				<stop  offset="0" style="stop-color:#C6534E"/>
				<stop  offset="0.158" style="stop-color:#CD6864"/>
				<stop  offset="0.4869" style="stop-color:#DF9F9C"/>
				<stop  offset="0.9558" style="stop-color:#FCF6F6"/>
				<stop  offset="1" style="stop-color:#FFFFFF"/>
			</radialGradient>
			<path style="fill:url(#SVGID_00000116204543743880783110000016482599212407711616_);" d="M75.1,61C75.1,61,75.1,60.9,75.1,61
				C75.1,61,75.1,61,75.1,61z"/>
			
				<radialGradient id="SVGID_00000059298160258064756740000008259478533637194429_" cx="61.4177" cy="51.4474" r="35.1639" gradientUnits="userSpaceOnUse">
				<stop  offset="0" style="stop-color:#C6534E"/>
				<stop  offset="0.158" style="stop-color:#CD6864"/>
				<stop  offset="0.4869" style="stop-color:#DF9F9C"/>
				<stop  offset="0.9558" style="stop-color:#FCF6F6"/>
				<stop  offset="1" style="stop-color:#FFFFFF"/>
			</radialGradient>
			<path style="fill:url(#SVGID_00000059298160258064756740000008259478533637194429_);" d="M82,59.8C81.8,59.8,81.8,59.9,82,59.8
				L82,59.8z"/>
			
				<radialGradient id="SVGID_00000020397387701239214360000003754248872553247140_" cx="61.5526" cy="51.4002" r="34.989" gradientUnits="userSpaceOnUse">
				<stop  offset="0" style="stop-color:#C6534E"/>
				<stop  offset="0.158" style="stop-color:#CD6864"/>
				<stop  offset="0.4869" style="stop-color:#DF9F9C"/>
				<stop  offset="0.9558" style="stop-color:#FCF6F6"/>
				<stop  offset="1" style="stop-color:#FFFFFF"/>
			</radialGradient>
			<path style="fill:url(#SVGID_00000020397387701239214360000003754248872553247140_);" d="M67.1,54.9c1.5,0.3,2.9-0.8,3.7-2
				c0.7-0.9,0.9-2.1,0.9-3.3c-0.1-1.4-1.5-2.4-2.9-2.1c-1.1,0.2-2.1,1-2.6,2c-0.7,0.6-1.2,1.5-1.3,2.4c-0.1,0.6,0,1.2,0.3,1.8
				C65.7,54.4,66.3,54.8,67.1,54.9z"/>
			
				<radialGradient id="SVGID_00000101791588310222195520000005681173515644198066_" cx="61.5976" cy="51.4012" r="34.8715" gradientUnits="userSpaceOnUse">
				<stop  offset="0" style="stop-color:#C6534E"/>
				<stop  offset="0.158" style="stop-color:#CD6864"/>
				<stop  offset="0.4869" style="stop-color:#DF9F9C"/>
				<stop  offset="0.9558" style="stop-color:#FCF6F6"/>
				<stop  offset="1" style="stop-color:#FFFFFF"/>
			</radialGradient>
			<path style="fill:url(#SVGID_00000101791588310222195520000005681173515644198066_);" d="M73.4,47.8c0.1,0,0.1-0.1,0.1-0.1
				C73.4,47.8,73.3,47.8,73.4,47.8z"/>
			
				<radialGradient id="SVGID_00000048503031252782013340000015996093738725329048_" cx="61.5509" cy="51.4005" r="34.9966" gradientUnits="userSpaceOnUse">
				<stop  offset="0" style="stop-color:#C6534E"/>
				<stop  offset="0.158" style="stop-color:#CD6864"/>
				<stop  offset="0.4869" style="stop-color:#DF9F9C"/>
				<stop  offset="0.9558" style="stop-color:#FCF6F6"/>
				<stop  offset="1" style="stop-color:#FFFFFF"/>
			</radialGradient>
			<path style="fill:url(#SVGID_00000048503031252782013340000015996093738725329048_);" d="M90.9,55.4c-0.3-0.4-0.8-0.5-1.3-0.5
				c0.2-0.2,0.4-0.4,0.5-0.6c0.1-0.2,0.2-0.4,0.3-0.7c0,0,0,0,0,0c0,0,0,0,0,0c0.4-0.4,0.7-0.9,0.6-1.4c-0.1-0.6-0.5-1.1-1.2-1.1
				c-0.1,0-0.1,0-0.2,0c-0.2-0.1-0.3-0.1-0.6-0.1c-0.9,0-1.9,0.6-2.5,1.4c-0.1-0.1-0.1-0.2-0.2-0.2c-0.7-0.6-1.5-0.5-2.2-0.2
				c-0.6,0.3-1.2,0.9-1.5,1.5c-0.5,0.3-1,0.7-1.4,1.2c0.3-0.6,0.7-1.3,0.9-1.8c0.2-0.2,0.3-0.5,0.4-0.7c0.4-0.3,1.3-0.8,2.2-1.3
				c0.5-0.1,1-0.2,1.4-0.4c0.9-0.4,1.6-1,2.2-1.7c2-1.5,3.4-4.1,1.6-6.3c-1.6-2-4.3-5.9-7.4-5.5c-0.7,0.1-1.4,0.3-2.1,0.6
				c-0.6,0.2-1.2,0.5-1.7,1c-0.8,0.6-1.4,1.4-1.6,2.3c-0.3,0.3-0.6,0.6-0.8,0.9c-0.1,0.1-0.1,0.2-0.2,0.3c-0.2-0.6-0.5-1.2-0.9-1.7
				c-0.6-0.7-1.4-1.5-2.4-1.5c-0.1,0-0.3,0-0.4,0.1c-0.4-0.3-0.9-0.4-1.3-0.3c-2.3,0.5-3,2.8-2.9,4.8c0.1,1.5,0.9,3.4,2.5,3.9
				c2,0.6,4.5-0.8,5.3-2.8c0.1,0.2,0.3,0.5,0.5,0.6c0.5,0.4,1,0.5,1.5,0.5c-0.3,0.4-0.5,0.9-0.7,1.4c-0.2-0.1-0.5-0.2-0.8-0.3
				c-0.7-0.1-1.3,0.1-1.9,0.3c-0.3,0.1-0.6,0.3-0.8,0.5c-0.2,0.2-0.4,0.3-0.4,0.4c-0.1,0.1-0.3,0.2-0.4,0.4c-0.6,0.7-1,1.7-0.6,2.6
				c0.2,0.4,0.5,0.6,0.8,0.9c0,0.1,0,0.2,0,0.3c-0.7,0.7-1.3,1.5-2.1,1.8c-0.8,0.3-4.1,1.2-4.2,2.6c0,0.1-0.1,0.1-0.1,0.2
				c-0.1,0.1-0.1,0.3-0.1,0.4c0,0.2,0,0.3,0,0.4c-0.7,0.5-1,1.3-1.8,1.6c-1.3,0.4-2,2.1-2,3.5c0,0.8,0.3,1.4,0.6,2.2
				c0.3,0.8,0.4,2.1,0.9,2.8c1,1.2,2.9,1.2,4.2,0.4c0.7-0.4,1.3-0.9,1.9-1.5c0.6-0.6,1.3-0.1,2,0.2c0.1,0.6,0.3,1.1,0.7,1.6
				c0.7,0.9,2,1.3,3.1,1.3c1.8,0,3.2-0.9,4.4-2.1c0.3,0,0.6-0.1,0.9-0.2c0.9,0.5,2.5,1,3.1,0.9c1.3-0.3,2.3-1.1,3.1-2.1
				c0.4-0.5,0.7-1,1-1.6c0,0,0.1-0.1,0.1-0.1c0.6-0.5,1.1-1.1,1.4-1.8c0.1-0.4,0.2-0.8,0.1-1.2c0-0.2-0.1-0.5-0.3-0.7
				C91,59.3,92.4,57.1,90.9,55.4z M81.5,59.9c0.3-0.1,0.5-0.1,0.8-0.2c-0.2,0.1-0.3,0.1-0.3,0.1c0.1,0,0.1,0,0.2,0
				c0.5,0,0.9-0.1,1.3-0.2c-0.1,0.2-0.2,0.5-0.2,0.7c-0.3,0.4-0.6,0.9-0.7,1.5c-0.1,0.1-0.2,0.1-0.3,0.2c-0.3-0.9-0.8-1.5-1.6-2
				C80.9,60,81.2,60,81.5,59.9z M77.3,59.3c-0.6,0.3-1,0.6-1.4,1c0.7-0.6-0.6,0.6-0.7,0.7c-0.2,0.2-0.3,0.4-0.5,0.6
				c0-0.2-0.1-0.4-0.2-0.6c0,0,0,0,0-0.1c0,0,0,0,0,0c0-0.1,0-0.2,0-0.2c0,0,0,0,0-0.1c0-0.3,0-0.5-0.1-0.8
				c-0.3-0.4-0.3-0.4-0.1-0.1c-0.9-1.3-2.6-0.1-3,1c-0.1,0.1-0.1,0.3-0.1,0.4C71,60.9,70.9,61,70.9,61c0,0,0,0,0,0
				c-0.1-0.3-0.3-0.6-0.5-0.8c0.1-0.1,0.1-0.1,0.2-0.2c0.1-0.2,0.2-0.4,0.3-0.6c0.9-0.2,1.8-0.7,2.5-1.3c0.8,0.8,2.1,1.2,3.1,1.1
				c1.3-0.1,2.4-0.7,3.2-1.6c-0.1,0.4-0.1,0.7,0,1.1c0.1,0.3,0.2,0.6,0.4,0.9c-0.1-0.1-0.2-0.1-0.4-0.2c-0.3-0.1-0.6-0.2-0.8-0.2
				C78.4,59,77.8,59,77.3,59.3z"/>
		</g>
		<g>
			<path class="st9" d="M75,61.4C75,61.3,75,61.3,75,61.4C75,61.4,75,61.4,75,61.4z"/>
			<path class="st9" d="M81.9,60.2C81.7,60.2,81.7,60.2,81.9,60.2L81.9,60.2z"/>
			<path class="st9" d="M67,55.3c1.5,0.3,2.9-0.8,3.7-2c0.7-0.9,0.9-2.1,0.9-3.3c-0.1-1.4-1.5-2.4-2.9-2.1c-1.1,0.2-2.1,1-2.6,2
				c-0.7,0.6-1.2,1.5-1.4,2.4c-0.1,0.6,0,1.2,0.3,1.8C65.6,54.8,66.2,55.1,67,55.3z"/>
			<path class="st9" d="M73.3,48.2c0.1,0,0.1-0.1,0.1-0.1C73.3,48.2,73.2,48.2,73.3,48.2z"/>
			<path class="st9" d="M90.8,55.7c-0.3-0.4-0.8-0.5-1.3-0.5c0.2-0.2,0.4-0.4,0.5-0.6c0.1-0.2,0.2-0.4,0.3-0.7c0,0,0,0,0,0
				c0,0,0,0,0,0c0.4-0.4,0.7-0.9,0.6-1.4c-0.1-0.6-0.5-1.1-1.2-1.1c-0.1,0-0.1,0-0.2,0c-0.2-0.1-0.3-0.1-0.6-0.1
				c-0.9,0-1.9,0.6-2.5,1.4c-0.1-0.1-0.1-0.2-0.2-0.2c-0.7-0.6-1.5-0.5-2.2-0.2c-0.6,0.3-1.2,0.9-1.5,1.5c-0.5,0.3-1,0.7-1.4,1.2
				c0.3-0.6,0.7-1.2,0.9-1.8c0.2-0.2,0.3-0.5,0.4-0.7c0.4-0.3,1.3-0.8,2.2-1.3c0.5-0.1,1-0.2,1.4-0.4c0.9-0.4,1.6-1,2.2-1.7
				c2-1.5,3.4-4.1,1.6-6.3c-1.6-2-4.3-5.9-7.4-5.5c-0.7,0.1-1.4,0.3-2.1,0.6c-0.6,0.2-1.2,0.5-1.7,1c-0.8,0.6-1.4,1.4-1.6,2.3
				c-0.3,0.3-0.6,0.6-0.8,0.9c-0.1,0.1-0.1,0.2-0.2,0.3c-0.2-0.6-0.5-1.2-0.9-1.7c-0.6-0.7-1.4-1.5-2.4-1.5c-0.1,0-0.3,0-0.4,0.1
				C72,39,71.5,38.9,71.1,39c-2.3,0.5-3,2.8-2.9,4.8c0.1,1.5,0.9,3.4,2.5,3.9c2,0.6,4.5-0.8,5.3-2.8c0.1,0.2,0.3,0.5,0.5,0.6
				c0.5,0.4,1,0.5,1.5,0.5c-0.3,0.4-0.5,0.9-0.7,1.4c-0.2-0.1-0.5-0.2-0.8-0.3c-0.7-0.1-1.3,0.1-1.9,0.3c-0.3,0.1-0.6,0.3-0.8,0.5
				c-0.2,0.2-0.4,0.3-0.4,0.4c-0.1,0.1-0.3,0.2-0.4,0.4c-0.6,0.7-1,1.7-0.6,2.6c0.2,0.4,0.5,0.6,0.8,0.9c0,0.1,0,0.2,0,0.3
				c-0.7,0.7-1.3,1.5-2.1,1.8c-0.8,0.3-4.1,1.2-4.2,2.6c0,0.1-0.1,0.1-0.1,0.2c-0.1,0.1-0.1,0.3-0.1,0.4c0,0.2,0,0.3,0,0.4
				c-0.7,0.5-1,1.3-1.8,1.6c-1.3,0.4-2,2.1-2,3.5c0,0.8,0.3,1.4,0.6,2.2c0.3,0.8,0.4,2.1,0.9,2.8c1,1.2,2.9,1.2,4.2,0.4
				c0.7-0.4,1.3-0.9,1.9-1.4c0.6-0.6,1.3-0.1,2,0.2c0.1,0.6,0.3,1.1,0.7,1.6c0.7,0.9,2,1.3,3.1,1.3c1.8,0,3.2-0.9,4.4-2.1
				c0.3,0,0.6-0.1,0.9-0.2c0.9,0.5,2.5,1,3.1,0.9c1.3-0.3,2.3-1.1,3.1-2.1c0.4-0.5,0.7-1,1-1.6c0,0,0.1-0.1,0.1-0.1
				c0.6-0.5,1.1-1.1,1.4-1.8c0.1-0.4,0.2-0.8,0.1-1.2c0-0.2-0.1-0.5-0.3-0.7C90.9,59.7,92.3,57.5,90.8,55.7z M81.4,60.3
				c0.3-0.1,0.5-0.1,0.8-0.2c-0.2,0.1-0.3,0.1-0.3,0.1c0.1,0,0.1,0,0.2,0c0.5,0,0.9-0.1,1.3-0.2c-0.1,0.2-0.2,0.5-0.2,0.7
				c-0.3,0.4-0.6,0.9-0.7,1.5c-0.1,0.1-0.2,0.1-0.3,0.2c-0.3-0.9-0.8-1.5-1.6-2C80.8,60.3,81.1,60.4,81.4,60.3z M77.2,59.7
				c-0.6,0.3-1,0.6-1.4,1c0.7-0.6-0.6,0.6-0.7,0.7c-0.2,0.2-0.3,0.4-0.5,0.6c0-0.2-0.1-0.4-0.2-0.6c0,0,0,0,0-0.1c0,0,0,0,0,0
				c0-0.1,0-0.2,0-0.2c0,0,0,0,0-0.1c0-0.3,0-0.5-0.1-0.8c-0.3-0.4-0.3-0.4-0.1-0.1c-0.9-1.3-2.6-0.1-3,1C71.1,61,71,61.1,71,61.3
				c-0.1,0.1-0.2,0.1-0.3,0.1c0,0,0,0,0,0c-0.1-0.3-0.3-0.6-0.5-0.8c0.1-0.1,0.1-0.1,0.2-0.2c0.1-0.2,0.2-0.4,0.3-0.6
				c0.9-0.2,1.8-0.7,2.5-1.3c0.8,0.8,2.1,1.2,3.1,1.1c1.3-0.1,2.4-0.7,3.2-1.6c-0.1,0.4-0.1,0.7,0,1.1c0.1,0.3,0.2,0.6,0.4,0.9
				c-0.1-0.1-0.2-0.1-0.4-0.2c-0.3-0.1-0.6-0.2-0.8-0.2C78.3,59.4,77.7,59.4,77.2,59.7z"/>
		</g>
		<g>
			<g class="st3">
				
					<radialGradient id="SVGID_00000115480980396824255430000014662263813433514895_" cx="78.3049" cy="97.0436" r="48.7658" gradientUnits="userSpaceOnUse">
					<stop  offset="0" style="stop-color:#C6534E"/>
					<stop  offset="0.158" style="stop-color:#CD6864"/>
					<stop  offset="0.4869" style="stop-color:#DF9F9C"/>
					<stop  offset="0.9558" style="stop-color:#FCF6F6"/>
					<stop  offset="1" style="stop-color:#FFFFFF"/>
				</radialGradient>
				<path style="fill:url(#SVGID_00000115480980396824255430000014662263813433514895_);" d="M90.1,105.9c0-1.3,0-3.3-1.6-3.8
					c-0.3-0.1-0.6-0.1-0.9,0c-0.2-0.2-0.3-0.3-0.5-0.4c-1.3-0.8-2.5,0.6-3.3,1.5c-1.3,1.5-2.2,3.8-1.4,5.7c0.4,1.1,1.1,3.2,2.3,3.6
					c1.9,0.6,3.8-0.7,4.7-2.4C90.1,108.8,90.1,107.4,90.1,105.9z"/>
				
					<radialGradient id="SVGID_00000125575242011917104770000008094743384324531848_" cx="78.3051" cy="97.0453" r="48.762" gradientUnits="userSpaceOnUse">
					<stop  offset="0" style="stop-color:#C6534E"/>
					<stop  offset="0.158" style="stop-color:#CD6864"/>
					<stop  offset="0.4869" style="stop-color:#DF9F9C"/>
					<stop  offset="0.9558" style="stop-color:#FCF6F6"/>
					<stop  offset="1" style="stop-color:#FFFFFF"/>
				</radialGradient>
				<path style="fill:url(#SVGID_00000125575242011917104770000008094743384324531848_);" d="M84.1,113.1c-0.4-0.6-1.5-0.4-2-0.1
					c0,0-0.1,0-0.1,0.1c0,0,0,0,0-0.1c0,0,0-0.1,0-0.1c0-0.1,0-0.1-0.1-0.2c0,0,0,0,0,0c-0.2-0.3-0.5-0.5-0.8-0.6
					c-0.9-0.1-1.7,0.7-2,1.5c-0.5,1.5-0.3,6.7,2.5,5.9C84,118.7,85.8,115.2,84.1,113.1z"/>
				
					<radialGradient id="SVGID_00000170245263079467543140000012743661709428635292_" cx="78.3046" cy="97.0434" r="48.7676" gradientUnits="userSpaceOnUse">
					<stop  offset="0" style="stop-color:#C6534E"/>
					<stop  offset="0.158" style="stop-color:#CD6864"/>
					<stop  offset="0.4869" style="stop-color:#DF9F9C"/>
					<stop  offset="0.9558" style="stop-color:#FCF6F6"/>
					<stop  offset="1" style="stop-color:#FFFFFF"/>
				</radialGradient>
				<path style="fill:url(#SVGID_00000170245263079467543140000012743661709428635292_);" d="M106.4,103.3c-0.4-1.6-1.4-2-2.7-2.2
					c-0.3-0.3-0.6-0.7-1.1-0.9c-0.7-0.4-1.4-0.9-2.1-1.3c-1.2-0.7-2.5-0.9-3.9-0.8c-0.6,0-1.1,0.3-1.6,0.8c-1.1-0.1-2.1,0.4-2.9,1.1
					c-0.3,0-0.6,0.1-0.9,0.4c-2,1.7-1.1,4.3-0.2,6.4c0.9,2,3.2,3.3,5.2,2.5c0.1,0,0.2,0,0.4,0c0.6-0.2,1.2-0.4,1.8-0.6
					c0.7-0.3,1.7,0.3,2.4,0.4c1.7,0.2,3.4,0,4.6-1.5C106.4,106.3,106.8,104.9,106.4,103.3z"/>
				<g>
					
						<radialGradient id="SVGID_00000013875443777754035030000000966415908456286081_" cx="78.305" cy="97.0403" r="48.7729" gradientUnits="userSpaceOnUse">
						<stop  offset="0" style="stop-color:#C6534E"/>
						<stop  offset="0.158" style="stop-color:#CD6864"/>
						<stop  offset="0.4869" style="stop-color:#DF9F9C"/>
						<stop  offset="0.9558" style="stop-color:#FCF6F6"/>
						<stop  offset="1" style="stop-color:#FFFFFF"/>
					</radialGradient>
					<path style="fill:url(#SVGID_00000013875443777754035030000000966415908456286081_);" d="M82.2,120c-0.1,0-0.5-0.1-0.5-0.1
						c-0.4,0-0.8,0.1-1.2,0.3l0,0c-0.3,0.1-0.5,0.3-0.7,0.5c-0.4,0.4-0.9,1.5-0.2,2c1,0.7,2.2,0.3,3-0.6
						C83.1,121.4,83.3,120.2,82.2,120z"/>
					
						<radialGradient id="SVGID_00000070834094648047347770000000179867964982747274_" cx="78.2682" cy="96.2951" r="50.3246" gradientUnits="userSpaceOnUse">
						<stop  offset="0" style="stop-color:#C6534E"/>
						<stop  offset="0.158" style="stop-color:#CD6864"/>
						<stop  offset="0.4869" style="stop-color:#DF9F9C"/>
						<stop  offset="0.9558" style="stop-color:#FCF6F6"/>
						<stop  offset="1" style="stop-color:#FFFFFF"/>
					</radialGradient>
					<path style="fill:url(#SVGID_00000070834094648047347770000000179867964982747274_);" d="M82.2,120C82.2,120,82.2,120,82.2,120
						C82.3,120,82.3,120,82.2,120z"/>
				</g>
				
					<radialGradient id="SVGID_00000121968559165254090110000011178412138904447385_" cx="78.3032" cy="97.0421" r="48.7697" gradientUnits="userSpaceOnUse">
					<stop  offset="0" style="stop-color:#C6534E"/>
					<stop  offset="0.158" style="stop-color:#CD6864"/>
					<stop  offset="0.4869" style="stop-color:#DF9F9C"/>
					<stop  offset="0.9558" style="stop-color:#FCF6F6"/>
					<stop  offset="1" style="stop-color:#FFFFFF"/>
				</radialGradient>
				<path style="fill:url(#SVGID_00000121968559165254090110000011178412138904447385_);" d="M116.7,114.3c-0.3-1-0.3-2.4-1.2-3.1
					c-1-0.9-2.4-0.7-3.4,0.1c-0.6,0.4-0.9,1.1-1.1,1.7c-1,1.2-0.8,2.9-0.3,4.5c0.5,1.6,1.1,4.1,3.2,4.1c0.8,0,1.8-0.5,2.1-1.3
					c0.2-0.5,0.4-0.9,0.5-1.4c0-0.1,0-0.3,0-0.4c0,0,0-0.1,0.1-0.4C117.1,116.7,117.1,115.7,116.7,114.3z"/>
				
					<radialGradient id="SVGID_00000163787273886047582910000010181060481685433989_" cx="78.3068" cy="97.0426" r="48.7649" gradientUnits="userSpaceOnUse">
					<stop  offset="0" style="stop-color:#C6534E"/>
					<stop  offset="0.158" style="stop-color:#CD6864"/>
					<stop  offset="0.4869" style="stop-color:#DF9F9C"/>
					<stop  offset="0.9558" style="stop-color:#FCF6F6"/>
					<stop  offset="1" style="stop-color:#FFFFFF"/>
				</radialGradient>
				<path style="fill:url(#SVGID_00000163787273886047582910000010181060481685433989_);" d="M112.4,107.1c-0.7-1.3-2.3-2.3-3.7-1.6
					c-0.7,0.3-1.5,1.2-1.6,2c0,0,0,0,0,0c0,0.2,0,0.4,0.1,0.5c-0.1,0.2-0.3,0.3-0.4,0.5c-0.5,0.8-0.8,2-0.3,2.9
					c0.8,1.8,3,1.3,4.3,0.3C112.1,110.8,113.3,108.9,112.4,107.1z"/>
				
					<radialGradient id="SVGID_00000140707197714186093890000013974636489302696874_" cx="78.3046" cy="97.044" r="48.7677" gradientUnits="userSpaceOnUse">
					<stop  offset="0" style="stop-color:#C6534E"/>
					<stop  offset="0.158" style="stop-color:#CD6864"/>
					<stop  offset="0.4869" style="stop-color:#DF9F9C"/>
					<stop  offset="0.9558" style="stop-color:#FCF6F6"/>
					<stop  offset="1" style="stop-color:#FFFFFF"/>
				</radialGradient>
				<path style="fill:url(#SVGID_00000140707197714186093890000013974636489302696874_);" d="M110,120.2c-1,0-2,0.4-2.8,0.9
					c0.1-0.6,0.1-1.2-0.2-1.7c-0.6-1.3-1.8-2.1-3.2-2.2c-0.9-0.6-2.1-0.5-3.3-0.6c-0.3,0-0.6,0-0.9,0.1c0.2-0.2,0.4-0.3,0.6-0.5
					c0.1-0.1,0.2-0.3,0.3-0.5c1.1,0.6,2.7,0.2,3.9-0.5c-0.1,0-0.1,0.1-0.2,0.1c1.4-0.7,2.4-2.1,2.2-3.6c-0.1-1-1-1.9-1.9-2.2
					c-1.2-0.4-2.4,0.2-3.1,1.2c-0.3,0.1-0.5,0.2-0.8,0.4c-0.2,0.1-0.4,0.3-0.6,0.5c-0.1-0.4-0.2-0.8-0.5-1c-1.1-0.8-2.5-0.3-3.6,0.5
					c-0.5-0.3-1.2-0.4-1.8-0.3c-0.1-0.5-0.3-0.9-0.7-1.2c-0.5-0.4-1-0.4-1.5-0.2c-0.4,0-0.9,0.2-1.2,0.4c-0.5,0.3-0.8,0.8-1,1.4
					c0,0,0,0.1,0,0.1c0,0.2-0.1,0.4,0,0.6c0.1,0.5,0.3,0.9,0.6,1.2c0,0,0,0,0,0c-0.7-0.7-1.7-0.6-2.7-0.2c-0.9,0.4-1.8,1.1-2.3,2.1
					c-0.2,0.3-0.4,0.7-0.4,1c-0.1,0.6,0.1,1.1,0.5,1.5c0.1,0.1,0.2,0.2,0.2,0.3c0.1,0.3,0,1-0.1,1.5c-0.5,0.7-0.7,1.5-0.3,2.4
					c-1-0.4-2.1-0.1-2.8,0.7c-1.3,1.6-1.7,4.3-0.4,6.1c0.6,0.8,1.3,1.4,2.2,1.6c0.2,0.3,0.4,0.6,0.6,1c0.4,0.6,0.4,1.6,0.6,2.3
					c0,0.1,0,0.1,0.1,0.2c-1.4,2.5-1.1,6.2,2.5,6c2.1-0.1,4.8-0.9,5.9-2.9c0.5-0.9,0.8-1.7,0.8-2.7c0,0,0.1-0.8,0-1c0,0,0,0,0,0
					c0.3-0.1,0.6-0.1,0.9-0.2c0.2-0.1,0.5-0.2,0.7-0.5c1.9,0.2,3.9-1.2,5.1-2.3c1.1-1.1,2-2.3,2.8-3.6c0.2,0.5,0.5,0.9,1.1,1.1
					c1.4,0.5,3-0.5,4-1.4c-0.6,0.6,0.9-0.8,0.9-0.7c0.6-0.6,1-1.2,1.3-1.9C112.4,122.2,111.7,120.2,110,120.2z M88.7,123.5
					c0.4,0,0.8-0.1,1.2-0.3c-0.3,0.4-0.5,0.8-0.6,1.2C89.1,124.1,88.9,123.7,88.7,123.5z M96.1,122.8c-0.6,0.5-1.1,1.1-1.5,1.7
					c-0.1,0-0.1,0-0.2,0c-0.1,0-0.1,0-0.1,0c0,0,0,0,0-0.1c-0.4-1.1-1.2-2.1-2.2-2.3c0.1-0.1,0.2-0.1,0.4-0.2c0.2-0.1,0.4-0.6,0-0.6
					c-1.2,0.3-2.5,0.3-3.7,0c0.2-0.2,0.4-0.4,0.6-0.6c0.4,0.1,0.9,0.2,1.3,0.1c0.4-0.1,0.8-0.2,1.1-0.4c0.5-0.4,0.6-0.9,1.1-1.3
					c0.1-0.1,0.1-0.2,0-0.3c0,0,0-0.1,0-0.1c0.3,0.1,0.6,0.2,0.9,0.2c-0.5,0.5-1,1.2-1,1.9c0,0.6,0,1.1,0.5,1.5
					c0.4,0.4,1,0.4,1.5,0.3c0,0,0,0,0.1,0c0.5-0.1,1-0.4,1.4-0.8C96.1,122.2,96.1,122.5,96.1,122.8z M97.1,118.9
					C97.1,118.9,97,118.9,97.1,118.9c-0.1-0.2-0.2-0.4-0.3-0.5c0.4-0.2,0.8-0.5,1.1-0.9c0.1,0,0.3-0.1,0.4-0.1
					C97.8,117.9,97.4,118.4,97.1,118.9z"/>
				
					<radialGradient id="SVGID_00000176758157115880412690000017039114332921525649_" cx="78.3029" cy="97.0403" r="48.7722" gradientUnits="userSpaceOnUse">
					<stop  offset="0" style="stop-color:#C6534E"/>
					<stop  offset="0.158" style="stop-color:#CD6864"/>
					<stop  offset="0.4869" style="stop-color:#DF9F9C"/>
					<stop  offset="0.9558" style="stop-color:#FCF6F6"/>
					<stop  offset="1" style="stop-color:#FFFFFF"/>
				</radialGradient>
				<path style="fill:url(#SVGID_00000176758157115880412690000017039114332921525649_);" d="M109.4,113.7c-0.3-0.5-0.9-0.7-1.4-0.6
					c-1.3,0.3-2.3,1.7-1.9,3l0,0c0.2,0.6,0.9,0.7,1.4,0.6c0.8-0.2,1.6-0.9,1.8-1.7c0,0,0,0,0,0C109.5,114.6,109.6,114.1,109.4,113.7
					z"/>
			</g>
			<g>
				<path class="st9" d="M89.9,105.3c0-1.3,0-3.3-1.6-3.8c-0.3-0.1-0.6-0.1-0.9,0c-0.2-0.2-0.3-0.3-0.5-0.4
					c-1.3-0.8-2.5,0.6-3.3,1.5c-1.3,1.5-2.2,3.8-1.4,5.7c0.4,1.1,1.1,3.2,2.3,3.6c1.9,0.6,3.8-0.7,4.7-2.4
					C89.9,108.2,90,106.8,89.9,105.3z"/>
				<path class="st9" d="M83.9,112.5c-0.4-0.6-1.5-0.4-2-0.1c0,0-0.1,0.1-0.1,0.1c0,0,0,0,0-0.1c0,0,0-0.1,0-0.1
					c0-0.1,0-0.1-0.1-0.2c0,0,0,0,0,0c-0.2-0.3-0.5-0.5-0.8-0.6c-0.9-0.1-1.7,0.7-2,1.5c-0.5,1.5-0.3,6.7,2.5,5.9
					C83.8,118.2,85.6,114.7,83.9,112.5z"/>
				<path class="st9" d="M106.2,102.7c-0.4-1.6-1.4-2-2.7-2.2c-0.3-0.3-0.6-0.7-1.1-0.9c-0.7-0.4-1.4-0.9-2.1-1.3
					c-1.2-0.7-2.5-0.9-3.9-0.8c-0.6,0-1.1,0.3-1.6,0.8c-1.1-0.1-2.1,0.4-2.9,1.1c-0.3,0-0.6,0.1-0.9,0.4c-2,1.7-1.1,4.3-0.2,6.4
					c0.9,2,3.2,3.3,5.2,2.5c0.1,0,0.2,0,0.4,0c0.6-0.2,1.2-0.4,1.8-0.6c0.7-0.3,1.7,0.3,2.4,0.4c1.7,0.2,3.4,0,4.6-1.5
					C106.3,105.7,106.6,104.3,106.2,102.7z"/>
				<g>
					<path class="st9" d="M82,119.4c-0.1,0-0.5-0.1-0.5-0.1c-0.4,0-0.8,0.1-1.2,0.3l0,0c-0.3,0.1-0.5,0.3-0.7,0.5
						c-0.4,0.4-0.9,1.5-0.2,2c1,0.7,2.2,0.3,3-0.6C82.9,120.8,83.1,119.7,82,119.4z"/>
					<path class="st9" d="M82,119.4C82,119.4,82,119.4,82,119.4C82.1,119.4,82.1,119.4,82,119.4z"/>
				</g>
				<path class="st9" d="M116.5,113.7c-0.3-1-0.3-2.4-1.2-3.1c-1-0.9-2.4-0.7-3.4,0.1c-0.6,0.4-0.9,1.1-1.1,1.7
					c-1,1.2-0.8,2.9-0.3,4.5c0.5,1.6,1.1,4.1,3.2,4.1c0.8,0,1.8-0.5,2.1-1.3c0.2-0.5,0.4-0.9,0.5-1.4c0-0.1,0-0.3,0-0.4
					c0,0,0-0.1,0.1-0.4C117,116.1,116.9,115.2,116.5,113.7z"/>
				<path class="st9" d="M112.2,106.6c-0.7-1.3-2.3-2.3-3.7-1.6c-0.7,0.3-1.5,1.2-1.6,2c0,0,0,0,0,0c0,0.2,0,0.4,0.1,0.5
					c-0.1,0.2-0.3,0.3-0.4,0.5c-0.5,0.8-0.8,2-0.3,2.9c0.8,1.8,3,1.3,4.3,0.3C111.9,110.2,113.1,108.3,112.2,106.6z"/>
				<path class="st9" d="M109.8,119.6c-1,0-2,0.4-2.8,0.9c0.1-0.6,0.1-1.2-0.2-1.7c-0.6-1.3-1.8-2.1-3.2-2.2
					c-0.9-0.6-2.1-0.5-3.3-0.6c-0.3,0-0.6,0-0.9,0.1c0.2-0.2,0.4-0.3,0.6-0.5c0.1-0.1,0.2-0.3,0.3-0.5c1.1,0.6,2.7,0.2,3.9-0.5
					c-0.1,0-0.1,0.1-0.2,0.1c1.4-0.7,2.4-2.1,2.2-3.6c-0.1-1-1-1.9-1.9-2.2c-1.2-0.4-2.4,0.2-3.1,1.2c-0.3,0.1-0.5,0.2-0.8,0.4
					c-0.2,0.1-0.4,0.3-0.6,0.5c-0.1-0.4-0.2-0.8-0.5-1c-1.1-0.8-2.5-0.3-3.6,0.5c-0.5-0.3-1.2-0.4-1.8-0.3c-0.1-0.5-0.3-0.9-0.7-1.2
					c-0.5-0.4-1-0.4-1.5-0.2c-0.4,0-0.9,0.2-1.2,0.4c-0.5,0.3-0.8,0.8-1,1.4c0,0,0,0.1,0,0.1c0,0.2-0.1,0.4,0,0.6
					c0.1,0.5,0.3,0.9,0.6,1.2c0,0,0,0,0,0c-0.7-0.7-1.7-0.6-2.7-0.2c-0.9,0.4-1.8,1.1-2.3,2.1c-0.2,0.3-0.4,0.7-0.4,1
					c-0.1,0.6,0.1,1.1,0.5,1.5c0.1,0.1,0.2,0.2,0.2,0.3c0.1,0.3,0,1-0.1,1.5c-0.5,0.7-0.7,1.5-0.3,2.4c-0.9-0.4-2.1-0.1-2.8,0.7
					c-1.3,1.6-1.7,4.3-0.4,6.1c0.6,0.8,1.3,1.4,2.2,1.6c0.2,0.3,0.4,0.6,0.6,1c0.4,0.6,0.4,1.6,0.6,2.3c0,0.1,0,0.1,0.1,0.2
					c-1.4,2.5-1.1,6.2,2.5,6c2.1-0.1,4.8-0.9,5.9-2.9c0.5-0.9,0.8-1.7,0.8-2.7c0,0,0.1-0.8,0-1c0,0,0,0,0,0c0.3-0.1,0.6-0.1,0.9-0.2
					c0.2-0.1,0.5-0.2,0.7-0.5c1.9,0.2,3.9-1.2,5.1-2.3c1.1-1.1,2-2.3,2.8-3.6c0.2,0.5,0.5,0.9,1.1,1.1c1.4,0.5,3-0.5,4-1.5
					c-0.6,0.6,0.9-0.8,0.9-0.7c0.6-0.6,1-1.2,1.3-1.9C112.2,121.6,111.5,119.6,109.8,119.6z M88.5,122.9c0.4,0,0.8-0.1,1.2-0.3
					c-0.3,0.4-0.5,0.8-0.6,1.2C88.9,123.5,88.7,123.2,88.5,122.9z M95.9,122.3c-0.6,0.5-1.1,1.1-1.5,1.7c-0.1,0-0.1,0-0.2,0
					c0,0-0.1,0-0.1,0c0,0,0,0,0-0.1c-0.4-1.1-1.2-2.1-2.2-2.3c0.1-0.1,0.2-0.1,0.4-0.2c0.2-0.1,0.4-0.6,0-0.6
					c-1.2,0.3-2.5,0.3-3.7,0c0.2-0.2,0.4-0.4,0.6-0.6c0.4,0.1,0.9,0.2,1.3,0.1c0.4-0.1,0.8-0.2,1.1-0.4c0.5-0.4,0.6-0.9,1.1-1.3
					c0.1-0.1,0.1-0.2,0-0.3c0,0,0-0.1,0-0.1c0.3,0.1,0.6,0.2,0.9,0.2c-0.5,0.5-1,1.2-1,1.9c0,0.6,0,1.1,0.5,1.5
					c0.4,0.4,1,0.4,1.5,0.3c0,0,0,0,0.1,0c0.5-0.1,1-0.4,1.4-0.8C95.9,121.7,95.9,122,95.9,122.3z M96.9,118.4
					C96.9,118.4,96.9,118.3,96.9,118.4c-0.1-0.2-0.2-0.4-0.3-0.5c0.4-0.2,0.8-0.5,1.1-0.9c0.1,0,0.3-0.1,0.4-0.1
					C97.6,117.3,97.2,117.8,96.9,118.4z"/>
				<path class="st9" d="M109.2,113.1c-0.3-0.5-0.9-0.7-1.4-0.6c-1.3,0.3-2.3,1.7-1.9,3l0,0c0.2,0.6,0.9,0.7,1.4,0.6
					c0.8-0.2,1.6-0.9,1.8-1.7c0,0,0,0,0,0C109.3,114,109.4,113.6,109.2,113.1z"/>
			</g>
		</g>
		<path class="st19" d="M77.9,51.8c-0.1-0.4-0.2-0.7-0.5-1c-0.5-0.5-1.3-0.3-1.8-0.1c-0.7,0.3-1.5,1.3-1.7,2.2
			c-0.3,0.4-0.5,0.9-0.6,1.4c-0.1,0.6,0.1,1.7,0.8,1.9c1,0.3,1.8-0.3,2.5-0.9C77.5,54.7,78.2,53,77.9,51.8z"/>
		<g>
			<path class="st19" d="M76.6,48.8C76.6,48.9,76.6,48.9,76.6,48.8C76.6,48.8,76.6,48.8,76.6,48.8z"/>
			<path class="st19" d="M76.4,48c-0.2-0.2-0.5-0.3-1-0.2c-0.4,0.1-0.8,0.4-1.1,0.8c-0.2,0.4-0.4,1,0,1.4c0.7,0.5,1.6,0.2,2.1-0.5
				c0-0.1,0.1-0.2,0.1-0.2c0,0,0-0.2,0-0.3c0-0.2,0-0.4-0.1-0.5C76.5,48.2,76.5,48.1,76.4,48z"/>
		</g>
		<path class="st19" d="M68.9,59.4c-0.9-0.1-1.8,0.4-2.3,1.2c-0.1,0.1-0.2,0.2-0.3,0.3c0-0.1-0.1-0.2-0.3-0.3c-0.1,0-0.3-0.2-0.1,0
			c-0.8-0.5-2,0.9-1.1,1.4c0.3,0.2,0.5,0.1,0.7,0c-0.3,0.8-0.3,1.8-0.2,2.6c-0.1,0.2,0,0.3,0.1,0.4c0,0.2-0.1,0.5,0,0.7
			c0.1,0.7,0.7,1.1,1.3,1.2c2.4,0.2,3.5-3.3,3.6-5.2C70.3,60.7,70.1,59.5,68.9,59.4z"/>
		<path class="st19" d="M69.6,57.3c-0.1-0.1-0.3-0.4-0.4-0.4c-0.3,0-0.6,0.2-0.7,0.5c0,0.1-0.1,0.3,0.1,0.4c0.1,0.1,0.2,0.1,0.3,0.2
			c0.2,0.1,0.5-0.1,0.6-0.4C69.5,57.6,69.7,57.5,69.6,57.3z"/>
		<path class="st19" d="M70.5,49.4c-0.3-0.9-1-1.2-1.7-1c0,0-0.1-0.1-0.2-0.1c-1.7-0.2-2.4,1.5-2.8,2.9c-0.2,0.7-0.3,1.7,0.2,2.3
			c0.4,0.6,1.5,0.8,2.2,0.5c0.9-0.4,1.4-1.2,1.8-2C70.3,51.3,70.7,50.2,70.5,49.4z"/>
		<path class="st19" d="M71.9,40.6c-0.2-0.2-0.6-0.2-0.9,0c-0.3,0.3-0.5,0.5-0.5,0.9c0,0.3,0.1,0.6,0.5,0.7c0.2,0,0.4,0,0.6-0.1
			c0.3-0.2,0.6-0.5,0.6-0.9C72.1,41.1,72.1,40.8,71.9,40.6z"/>
		<path class="st19" d="M79.4,61.5c-0.7-1.1-2.6-0.6-3.5-0.2c-0.3,0.1-0.7,0.3-1,0.6c0-0.3-0.2-0.5-0.4-0.7
			c-0.8-0.8-2.1-0.1-2.7,0.6c-0.5,0.5-0.7,1-0.7,1.6c-0.3,0.5-0.5,1.1-0.3,1.6c0.2,0.8,0.8,1.2,1.6,1c0.4-0.1,0.7-0.2,1-0.4
			c0.2,0.4,0.4,0.7,0.6,1.1c0.2,0.5,0.4,1.3,1.1,1.5c0.7,0.3,1.4,0.1,2.1-0.1c1.3-0.5,2.9-1.8,3.1-3.3C80.4,63.7,80,62.3,79.4,61.5z
			 M78,64.9c-0.2,0.2-0.6,0.2-0.9,0.3c0-0.1-0.1-0.1-0.1-0.2c0.4-0.2,0.7-0.4,0.9-0.7c0,0,0.1-0.1,0.1-0.1c0,0,0,0,0,0
			c0,0.2,0.1,0.3,0.1,0.5c0,0,0,0.1,0,0.1C78.2,64.8,78.1,64.8,78,64.9z"/>
		<g>
			<path class="st19" d="M86.5,60.6C86.5,60.6,86.5,60.6,86.5,60.6c0-0.1-0.1-0.2-0.1-0.3c0-0.1-0.1-0.2-0.3-0.2
				c-0.2-0.1-0.6-0.1-0.8,0c-0.3,0.2-0.6,0.4-0.7,0.8c0,0-0.1,0.1-0.1,0.1c-0.5,0.4-1,1.2-0.4,1.8c0.2,0.2,0.5,0.2,0.9,0.2
				c0.4-0.1,0.7-0.4,0.9-0.7c0,0,0,0,0,0c0.1-0.1,0.3-0.3,0.4-0.4C86.4,61.4,86.6,61,86.5,60.6z"/>
			<path class="st19" d="M85.9,62.2C85.9,62.2,85.9,62.2,85.9,62.2C85.9,62.2,85.9,62.2,85.9,62.2z"/>
		</g>
		<path class="st19" d="M85,64.5c-0.7,0-1.4,1.4-0.5,1.4C85.2,65.9,85.9,64.5,85,64.5z"/>
		<path class="st19" d="M87.4,55.5C87.4,55.5,87.4,55.5,87.4,55.5c0-0.5-0.6-0.5-0.9-0.5c-0.2,0-0.3,0-0.4,0c-0.1,0-0.1,0-0.2,0
			c0,0,0,0,0,0c-1.3-0.5-2.5,1.1-2.4,2.2c0.1,1.2,1.1,2,2.3,1.7c0.8-0.2,1.5-0.7,1.9-1.3C88.1,56.9,88.1,56,87.4,55.5z"/>
		<path class="st19" d="M85.1,41.8c-0.1-0.8-0.5-1.7-1.2-2.2c-0.5-0.3-1.1-0.2-1.5,0.1c-1.6-0.2-3.3,1.3-3.7,2.8
			c-0.3,1.1,0.1,1.8,0.9,2.5c0.7,0.6,1.6,1.2,2.6,1.3C84.5,46.6,85.4,43.7,85.1,41.8z"/>
		<path class="st19" d="M84.2,47.7c-0.3-1.1-1.3-1.5-2.3-0.9c-0.4,0.2-0.8,0.5-1.1,0.9c0,0-0.1,0-0.1,0c-0.9,0.5-1.6,1.4-1.5,2.4
			c0.1,0.8,0.9,1.1,1.5,1.3c1.7,0.3,3.1-0.8,3.4-2.4C84.3,48.6,84.3,48.1,84.2,47.7z"/>
		<path class="st19" d="M87,46.2c-0.2-0.3-0.7,0.1-0.7,0.4c0,0,0,0.1,0,0.1c0,0.1,0.1,0.2,0.2,0.2c0.3,0,0.6-0.3,0.6-0.6
			C87.1,46.2,87,46.2,87,46.2z"/>
		<path class="st19" d="M88.2,102.9c-0.8-0.7-1.8-0.5-2.7-0.2c-0.6,0.2-1.1,0.6-1.4,1.1c-0.3,0.3-0.6,0.7-0.8,1.1
			c-0.3,0.6-0.5,1.2-0.6,1.8c0,0.6,0.1,1,0.3,1.5c0.3,1.1,1.3,1.7,2.4,1.5c1.5-0.3,2.4-1.5,3-2.8c0.4-0.8,0.6-1.7,0.5-2.6
			C88.8,103.8,88.6,103.3,88.2,102.9z"/>
		<path class="st19" d="M95,101.3c-0.2-0.5-0.8-0.6-1.2-0.5c0,0-0.1,0-0.1,0c-1.1,0.2-2.3,1.8-1.4,2.8c0,0,0,0.1,0.1,0.1
			c0.5,0.5,1.4,0.2,1.8-0.1c0.3-0.2,0.5-0.4,0.7-0.7C95.1,102.4,95.3,101.8,95,101.3z"/>
		<path class="st19" d="M92.2,113.3c-0.8-0.7-1.7-0.5-2.5,0.1c-0.1,0-0.1,0-0.2,0c-1.5-0.2-2.4,1.9-1.7,3.1c0.9,1.6,3.2,0.9,4.2-0.3
			C92.5,115.4,93,114.1,92.2,113.3z"/>
		<path class="st19" d="M94.7,112.1C94.7,112.1,94.7,112.1,94.7,112.1c-0.1-0.1-0.1-0.1-0.1-0.1c-0.2-0.5-1.6,0.1-1.2,0.8
			c0.2,0.4,0.6,0.4,1,0.1C94.6,112.8,94.9,112.4,94.7,112.1z"/>
		<path class="st19" d="M88.6,124.4c0-0.2-0.1-0.2-0.1,0.1c0-0.2,0-0.3,0-0.5c-0.1-1.2-1.4-2-2.5-1.6c-0.9,0.3-2,1.2-2.3,2.2
			c-0.2,0.4-0.3,0.8-0.3,1.3c0.1,1,0.8,1.4,1.5,1.9c0.4,0.3,1,0.6,1.5,0.5c0.8-0.2,1.2-0.7,1.7-1.3c0.3-0.4,0.5-1.1,0.5-1.6
			C88.7,124.9,88.7,124.6,88.6,124.4z"/>
		<path class="st19" d="M92.2,128.9c0.2-0.1,0.4-0.3,0.5-0.4c0.7-0.8,1.6-2.4,0.5-3.2c-0.5-0.4-1.2-0.3-1.8-0.1c0,0-0.1-0.1-0.1-0.1
			c0,0.1,0,0.1,0.1,0.2c0,0,0,0,0,0h0c-0.4,0.2-0.8,0.4-1.2,0.5c0,0.1,0,0.2,0.1,0.3c-0.5,0.6-0.8,1.3-0.8,2
			c-0.2,0.1-0.5,0.1-0.7,0.3c-1.6,0.9-2.1,2.5-2,4.3c0,0.3,0.1,0.5,0.1,0.8c0,0.1,0.1,0.4,0.2,0.6c0,0.2,0.1,0.4,0.1,0.6
			c-0.2,0.4-0.4,0.8-0.3,1.4c0.1,0.8,0.6,1.3,1.4,1.3c1.5,0.1,3.1-1.4,3.7-2.6c0.7-1.3,1.5-3.4,0.9-4.9
			C92.6,129.4,92.4,129.1,92.2,128.9z"/>
		<path class="st19" d="M100.6,123.4c-0.8-0.6-1.9-0.6-2.8-0.5c-1.1,0.2-2.2,1-2.9,1.8c-0.6,0.6-1.2,1.7-1,2.6
			c0,0.2,0.1,0.4,0.2,0.5c0.1,0.5,0.3,0.9,0.7,1.3c0.9,0.8,2.5,0.7,3.5,0.2c1.1-0.5,2.1-1.5,2.6-2.5
			C101.5,125.8,101.6,124.3,100.6,123.4z"/>
		<path class="st19" d="M99.3,120c0-0.1-0.1-0.2-0.2-0.2c-0.1,0-0.1,0-0.2,0c-0.5,0-1.4,0.8-0.8,1.3c0.5,0.5,1.4-0.4,1.3-0.9
			C99.3,120.1,99.3,120.1,99.3,120z"/>
		<path class="st19" d="M96.2,119c-0.7-0.5-2,0.6-1.6,1.4c0.1,0.2,0.3,0.3,0.5,0.4c0.7,0.4,1.4-0.6,1.4-1.2
			C96.5,119.4,96.4,119.2,96.2,119z"/>
		<path class="st19" d="M104.1,110.2c-0.6-0.5-1.3-0.1-1.7,0.3c-0.4,0.4-0.8,1.2-0.6,1.8c0.3,0.8,1.3,0.4,1.8-0.1
			c0.1-0.1,0.2-0.3,0.2-0.5C104.3,111.4,104.6,110.6,104.1,110.2z"/>
		<path class="st19" d="M110.8,107.2c0-0.1-0.1-0.2-0.2-0.2c0.2-0.1,0.3-0.3,0.3-0.5c0-0.2-0.1-0.2-0.3-0.2c-0.1,0-0.3-0.2-0.4-0.2
			c-0.2-0.1-0.4-0.2-0.7-0.2c-0.6,0-1.1,0.3-1.5,0.7c-0.8,0.7-1.1,1.8-1.1,2.8c0,0.4,0.1,0.8,0.3,1.1c0.4,0.6,1,0.7,1.7,0.4
			C110.4,110.6,111.4,108.5,110.8,107.2z"/>
		<path class="st19" d="M115,112.9c-0.3-0.5-0.8-0.7-1.3-0.6c-0.3,0.1-0.6,0.2-0.8,0.4c-0.6,0-1.4,0.5-1.7,1c-0.4,0.8-0.5,1.4,0,2.2
			c0.2,0.4,0.5,0.8,0.8,1.1c0.8,0.6,1.9,0.2,2.5-0.5C115.3,115.6,115.6,114,115,112.9z"/>
		<path class="st19" d="M109.1,120.9c-0.9-0.4-1.7,0-2.4,0.5c-0.3,0.1-0.5,0.2-0.7,0.3c-0.8,0.5-1.2,1.3-1.4,2.3
			c-0.2,0.8,0.3,1.9,1.1,2.1c1.6,0.4,3-0.7,3.9-2C110.3,123.1,110.4,121.4,109.1,120.9z"/>
		<path class="st19" d="M82.1,113.7c-0.5-0.3-1.4,0.1-1.8,0.4c-0.6,0.4-1.1,1.1-1.1,1.8c-0.1,0.6,0.2,1.2,0.7,1.4
			c0.6,0.2,1.3,0,1.8-0.4C82.7,116.3,83.6,114.7,82.1,113.7z"/>
		<path class="st19" d="M96.7,105.2c-0.1-0.2-0.2-0.3-0.3-0.5c-0.4-0.7-1.7,0.5-0.9,1c0.2,0.1,0.3,0.2,0.5,0.2
			C96.4,106.2,96.9,105.6,96.7,105.2z"/>
	</g>
</g>
</svg>
