<?xml version="1.0" encoding="utf-8"?>
<!-- Generator: Adobe Illustrator 25.4.8, SVG Export Plug-In . SVG Version: 6.00 Build 0)  -->
<svg version="1.1" id="Layer_1" xmlns="http://www.w3.org/2000/svg" xmlns:xlink="http://www.w3.org/1999/xlink" x="0px" y="0px"
	 viewBox="0 0 166.6 166.6" style="enable-background:new 0 0 166.6 166.6;" xml:space="preserve">
<style type="text/css">
	.st0{clip-path:url(#SVGID_00000078727668043701471060000009362227582510729133_);}
	.st1{opacity:0.51;fill:url(#SVGID_00000003088439241775140590000001413805878072983946_);}
	.st2{fill:#FFC8B1;}
	.st3{fill:#3E1314;}
	.st4{fill:#F09982;}
	.st5{fill:#B1E2F4;}
	.st6{fill:#FFFFF9;}
	.st7{fill:#E9F1F1;}
	.st8{fill:#FBE18D;}
</style>
<g>
	<defs>
		<ellipse id="SVGID_1_" transform="matrix(0.7071 -0.7071 0.7071 0.7071 -34.504 83.3)" cx="83.3" cy="83.3" rx="83.3" ry="83.3"/>
	</defs>
	<clipPath id="SVGID_00000093892299042620633360000013379904594159787920_">
		<use xlink:href="#SVGID_1_"  style="overflow:visible;"/>
	</clipPath>
	<g style="clip-path:url(#SVGID_00000093892299042620633360000013379904594159787920_);">
		
			<linearGradient id="SVGID_00000076586612755196774580000001567592850455960471_" gradientUnits="userSpaceOnUse" x1="-4.5133" y1="85.7215" x2="171.7012" y2="85.7215">
			<stop  offset="0" style="stop-color:#5F74B1"/>
			<stop  offset="0.2466" style="stop-color:#7A90D2"/>
			<stop  offset="0.4903" style="stop-color:#8FA6EB"/>
			<stop  offset="0.7125" style="stop-color:#9CB3FA"/>
			<stop  offset="0.8936" style="stop-color:#A0B7FF"/>
		</linearGradient>
		
			<circle style="opacity:0.51;fill:url(#SVGID_00000076586612755196774580000001567592850455960471_);" cx="83.6" cy="85.7" r="88.1"/>
		<g>
			<path class="st2" d="M148,157.8c-6.4-5.6-31.3-7.8-40.1-8.4c-2.1-0.1-4-1.5-4.7-3.5c-3.2-8.9-2.1-23.5-2.1-23.5l-15.5-6.6
				l-15.5,6.6c0,0,1.2,14.6-2.1,23.5c-0.7,2-2.6,3.4-4.7,3.5c-8.7,0.6-33.6,2.9-40.1,8.4c-3,2.6-5.7,7.2-7.8,12.4h140.1
				C153.6,165,151,160.4,148,157.8z"/>
			<path class="st3" d="M118.8,55.7c-7-11-20.6-14.9-33.2-12c-12.5-2.9-26.1,1-33.2,12c-2.4,3.7-13.7,26.9-0.5,44.4
				c2.7,3.5,5.4,7.4,8.8,10.3c4.8,4.1,9.7,3.6,14.9,6c3.8,1.8,6.7,4.7,9.5,7.7c0.2,0.2,0.3,0.3,0.5,0.5l0,0l0,0l0,0l0,0
				c0.2-0.2,0.3-0.3,0.5-0.5c2.9-3,5.8-5.9,9.5-7.7c5.2-2.5,10.1-2,14.9-6c3.4-2.9,6.1-6.7,8.8-10.3
				C132.5,82.7,121.2,59.5,118.8,55.7z"/>
			<path class="st4" d="M101.1,122.3l-15.5-6.6l-15.5,6.6c0,0,1.3,15.7-2.4,24.5c4.7,1.7,15.7,0.3,21-1.9c5.9-2.4,8-5.9,12.4-10.5
				C100.7,128,101.1,122.3,101.1,122.3z"/>
			<g>
				<path class="st2" d="M59.2,97.4c0,0-3.3-3.1-5.3-1.6c-0.7,0.5-1.8,2.2-0.9,4.4c2.6,6.6,3.3,11.5,5.7,12.5
					c1.9,0.8,4.7-1.8,4.7-1.8L59.2,97.4z"/>
				<path class="st4" d="M60.8,108c-0.4-9.6-6.1-9.6-6.1-9.6c1.4,1.9,1.8,3.3,2.1,5.3c0.1,0.7,0.4,2.6,0.3,3.4
					C56.7,111.4,61,111.7,60.8,108z"/>
			</g>
			<g>
				<path class="st2" d="M112.2,97.4c0,0,3.3-3.1,5.3-1.6c0.7,0.5,1.8,2.2,0.9,4.4c-2.6,6.6-3.3,11.5-5.7,12.5
					c-1.9,0.8-4.7-1.8-4.7-1.8L112.2,97.4z"/>
				<path class="st4" d="M110.5,108c0.4-9.6,6.1-9.6,6.1-9.6c-1.4,1.9-1.8,3.3-2.1,5.3c-0.1,0.7-0.4,2.6-0.3,3.4
					C114.6,111.4,110.3,111.7,110.5,108z"/>
			</g>
			<path class="st2" d="M85.7,53.9c0,0-17.2-2.3-30.8,7.9c0,0,1.3,44.9,5.5,55.5c4.2,10.6,18.6,22.3,25.3,22.3
				c6.7,0,21-11.7,25.3-22.3c4.2-10.6,5.5-55.5,5.5-55.5C102.8,51.6,85.7,53.9,85.7,53.9z"/>
			<path class="st5" d="M95,71.8c-6.8-0.4-33.7-2.9-37.7,7.1c0.7,13.2,2.1,31.2,4.6,37.3c4,10,17.6,21.1,23.9,21.1
				c6.3,0,19.9-11.1,23.9-21.1c2.3-5.8,3.7-22.6,4.5-35.7C109.3,74.2,103.7,72.3,95,71.8z"/>
			<path class="st2" d="M74.5,78.9c-3.1-0.5-6.4,0-9.2,0.6c-2,0.5-4.1,1.6-5.4,3.3c-0.4,0.5-0.7,1.1-0.9,1.7c-1.1,3.2,1.7,15.8,8,17
				c4.6,0.9,12.3,1.2,14.5-6.1c0.8-2.8,1.2-7.1,0.3-10.5c-0.4-1.7-1.1-3-2.5-4.1C77.9,79.8,76.2,79.2,74.5,78.9z"/>
			<path class="st2" d="M96.9,78.9c3.1-0.5,6.4,0,9.2,0.6c2,0.5,4.1,1.6,5.4,3.3c0.4,0.5,0.7,1.1,0.9,1.7c1.1,3.2-1.7,15.8-8,17
				c-4.6,0.9-12.3,1.2-14.5-6.1c-0.8-2.8-1.2-7.1-0.3-10.5c0.4-1.7,1.1-3,2.5-4.1C93.4,79.8,95.1,79.2,96.9,78.9z"/>
			<path class="st2" d="M95.9,120.2c-0.3-1.1-1-1.9-2.3-2.6c-1.3-0.7-2.9-1-4.5-1.2c-1.1-0.1-2.3-0.1-3.4-0.1c-1.2,0-2.3,0-3.4,0.1
				c-1.6,0.2-3.2,0.5-4.5,1.2c-1.3,0.7-2,1.5-2.3,2.6c-1.1,3.8,1.4,6.4,4.5,7.8c3.6,1.7,7.9,1.7,11.5,0
				C94.5,126.5,97,123.9,95.9,120.2z"/>
			<g>
				<path class="st3" d="M110.9,86.4c0,0-4.7-1.2-6.4-1.2c-1.7,0-9.1,3.9-11.6,2.7c-2.5-1.3-1.6-5.1-0.4-5.3
					c3.4-0.4,11-0.7,12.7-0.5C107,82.3,114,86.1,110.9,86.4z"/>
				<path class="st3" d="M60.4,86.4c0,0,4.7-1.2,6.4-1.2c1.7,0,9.1,3.9,11.6,2.7c2.5-1.3,1.6-5.1,0.4-5.3c-3.4-0.4-11-0.7-12.7-0.5
					C64.4,82.3,57.4,86.1,60.4,86.4z"/>
			</g>
			<g>
				<g>
					<path class="st4" d="M94.2,121.9c0,0-1.6,2.5-3.5,3.6c-1.9,1.1-7.7,0.8-10-0.3c-2.3-1.1-3.9-3.3-3.9-3.3l4.9-1.2L94.2,121.9z"
						/>
					<path class="st4" d="M94,121.6c1.1-0.8-3.2-3.4-5-3.7c-0.7-0.2-2.5,1-3.3,0.9c-0.7-0.1-1.9-0.9-2.7-0.9c-1.9,0-3.3,2.7-6.1,3.5
						c2.1,2.4,6.9-0.3,8.8,0.5c0.4,0.2,1.3,0.2,1.7,0.1C88.5,121.8,94,121.6,94,121.6z"/>
				</g>
			</g>
		</g>
		<g>
			<path class="st6" d="M47.7,100.3c0,0,5.7,2.8,8.4-0.7c0,0,4.1-21.7,11.9-27.3c16.6-12,24.1-12.6,36.1-12.6
				c0,0,6.5,18.9,11.1,34.5c1.6,5.6,4.5,6,4.5,6s6,1.2,9.6-9.6c5.3-15.6,8.7-38.4-6-46.3c-14.7-8-11.2-2.8-15.2-12.7
				c-4-9.9-20.7-23.7-38-13.1C52.8,29.2,38.8,28.6,44.3,44.7C49.9,60.8,21.8,62.7,47.7,100.3z"/>
			<path class="st7" d="M114.7,86.7c-1.7-6.8-2.6-13.5-5.5-20c-0.9-2.2-3-9.6-6.3-9.5c-3.5,0.1-6.9,0.6-10.5,1
				c-7.8,0.9-14.7,3.5-20.9,8.2c-2.5,1.9-14.1,6.1-18.6,34.8c1.1-0.1,2.3-0.6,3.1-1.7c0,0,4.1-21.7,11.9-27.3
				c16.6-12,24.1-12.6,36.1-12.6c0,0,6.5,18.9,11.1,34.5c1.6,5.6,4.5,6,4.5,6s1.7,0.3,3.8-1C119.3,97.1,116.2,92.9,114.7,86.7z"/>
			<path class="st7" d="M109.8,36.3c0,0-26.8,14.7-43.6,11.8c0,0,26.6,7.4,48.1-8.1C114.3,40,110.6,38.5,109.8,36.3z"/>
			<path class="st7" d="M101.1,59.8l2.9,0l1.1,3.2c0,0,12.7-10.2-11.9-17.2C93.2,45.7,105.5,51,101.1,59.8z"/>
			<path class="st7" d="M45,50.5c0,0,13.3,7,27.5,6.5c0,0-12.3,5.7-29.4-1.1C43.1,55.8,44.7,53.2,45,50.5z"/>
			<path class="st7" d="M133.7,64.4c-5.2,0.4-11.5,0.6-17.8-1.1c0,0,6.7,5,17.7,6.1C133.7,69.4,133.8,66,133.7,64.4z"/>
			<path class="st7" d="M63.9,22c0,0,4.3,10.4,18.7,10.1c0,0-14.4-5.9-14.5-12.4C68.1,19.7,64.4,21.7,63.9,22z"/>
		</g>
		<g>
			<path class="st8" d="M133,116.9l-2-5.2l-2,5.4c-0.7,1.9-2.3,3.4-4.2,4.1l-5.1,1.8l5.5,2c1.9,0.7,3.5,2.3,4.1,4.2l1.7,5l1.8-4.9
				c0.7-1.8,2-3.3,3.8-4l5.7-2.4l-5.4-2.1C135.1,120.1,133.7,118.7,133,116.9z"/>
			<path class="st8" d="M44.1,54.6l-2-5.2l-2,5.4c-0.7,1.9-2.3,3.4-4.2,4.1l-5.1,1.8l5.5,2c1.9,0.7,3.5,2.3,4.1,4.2l1.7,5l1.8-4.9
				c0.7-1.8,2-3.2,3.8-4l5.7-2.4L48,58.5C46.2,57.8,44.8,56.4,44.1,54.6z"/>
			<path class="st8" d="M112.6,23.2l-1.3-3.4l-1.3,3.5c-0.5,1.2-1.4,2.2-2.7,2.6l-3.3,1.1l3.5,1.3c1.2,0.5,2.2,1.5,2.6,2.7l1.1,3.2
				l1.2-3.2c0.4-1.2,1.3-2.1,2.4-2.6l3.6-1.5l-3.4-1.4C113.9,25.3,113,24.4,112.6,23.2z"/>
			<path class="st8" d="M37.6,110.2l-0.8-2.2l-0.8,2.3c-0.3,0.8-0.9,1.4-1.7,1.7l-2.1,0.7l2.3,0.8c0.8,0.3,1.4,0.9,1.7,1.8l0.7,2.1
				l0.7-2.1c0.3-0.8,0.8-1.4,1.6-1.7l2.4-1l-2.2-0.9C38.5,111.5,37.9,110.9,37.6,110.2z"/>
			<path class="st8" d="M136.5,45.6l-0.8-2.2l-0.8,2.3c-0.3,0.8-0.9,1.4-1.7,1.7l-2.1,0.7l2.3,0.8c0.8,0.3,1.4,0.9,1.7,1.8l0.7,2.1
				l0.7-2.1c0.3-0.8,0.8-1.4,1.6-1.7l2.4-1l-2.2-0.9C137.4,46.9,136.8,46.3,136.5,45.6z"/>
			<path class="st8" d="M80.1,48.7l-0.7-1.7l-0.7,1.8c-0.2,0.6-0.7,1.1-1.4,1.3l-1.7,0.6l1.8,0.7c0.6,0.2,1.1,0.7,1.4,1.4l0.6,1.7
				l0.6-1.6c0.2-0.6,0.7-1.1,1.3-1.3l1.9-0.8l-1.8-0.7C80.8,49.7,80.4,49.2,80.1,48.7z"/>
			<path class="st8" d="M66.5,140.2l-0.7-1.7l-0.7,1.8c-0.2,0.6-0.7,1.1-1.4,1.3l-1.7,0.6l1.8,0.7c0.6,0.2,1.1,0.7,1.4,1.4l0.6,1.7
				l0.6-1.6c0.2-0.6,0.7-1.1,1.3-1.3l1.9-0.8l-1.8-0.7C67.2,141.3,66.7,140.8,66.5,140.2z"/>
			<path class="st8" d="M100.1,148.8l-1.4-3.6l-1.4,3.7c-0.5,1.3-1.5,2.4-2.9,2.8l-3.5,1.2l3.8,1.4c1.3,0.5,2.4,1.6,2.8,2.9l1.2,3.4
				l1.2-3.4c0.5-1.2,1.4-2.2,2.6-2.7l3.9-1.6l-3.7-1.5C101.5,151,100.6,150,100.1,148.8z"/>
		</g>
	</g>
</g>
</svg>
