<?xml version="1.0" encoding="utf-8"?>
<!-- Generator: Adobe Illustrator 25.4.8, SVG Export Plug-In . SVG Version: 6.00 Build 0)  -->
<svg version="1.1" id="Layer_1" xmlns="http://www.w3.org/2000/svg" xmlns:xlink="http://www.w3.org/1999/xlink" x="0px" y="0px"
	 viewBox="0 0 166.6 169.7" style="enable-background:new 0 0 166.6 169.7;" xml:space="preserve">
<style type="text/css">
	
		.st0{opacity:0.33;clip-path:url(#SVGID_00000155865952721579428320000008372781135305120388_);fill:url(#SVGID_00000154412561687830783520000018236232177049456527_);}
	
		.st1{clip-path:url(#SVGID_00000155865952721579428320000008372781135305120388_);fill:url(#SVGID_00000000206313148240968610000000517116915462511001_);}
	
		.st2{clip-path:url(#SVGID_00000155865952721579428320000008372781135305120388_);fill:url(#SVGID_00000140005519086753096960000014604648641363620531_);}
	.st3{clip-path:url(#SVGID_00000155865952721579428320000008372781135305120388_);fill:#686B99;}
	.st4{clip-path:url(#SVGID_00000155865952721579428320000008372781135305120388_);fill:#23286B;}
	
		.st5{clip-path:url(#SVGID_00000155865952721579428320000008372781135305120388_);fill:url(#SVGID_00000164473160660044409820000016124989638103414961_);}
	
		.st6{clip-path:url(#SVGID_00000155865952721579428320000008372781135305120388_);fill:url(#SVGID_00000080165648115191513590000000986609781223353277_);}
	
		.st7{clip-path:url(#SVGID_00000155865952721579428320000008372781135305120388_);fill:url(#SVGID_00000093895465292077209850000012495767636150444730_);}
	.st8{clip-path:url(#SVGID_00000155865952721579428320000008372781135305120388_);fill:#F8CDB5;}
	
		.st9{opacity:0.45;clip-path:url(#SVGID_00000155865952721579428320000008372781135305120388_);fill:url(#SVGID_00000000203748462933934230000000488930369373163166_);}
</style>
<g>
	<defs>
		<path id="SVGID_1_" d="M168.7,84.3c0,46.6-37.8,84.3-84.3,84.3C37.8,168.7,0,130.9,0,84.3c0-8.6,1.3-16.9,3.7-24.7
			c0.9-3,2-6,3.3-8.9C19.9,20.9,49.7,0,84.3,0C130.9,0,168.7,37.8,168.7,84.3z"/>
	</defs>
	<clipPath id="SVGID_00000035508782588450400070000012349982319287895445_">
		<use xlink:href="#SVGID_1_"  style="overflow:visible;"/>
	</clipPath>
	
		<linearGradient id="SVGID_00000109726425565626028440000006696026440980105113_" gradientUnits="userSpaceOnUse" x1="-9.6441" y1="81.1834" x2="197.1273" y2="81.1834">
		<stop  offset="0" style="stop-color:#5F74B1"/>
		<stop  offset="0.2466" style="stop-color:#7A90D2"/>
		<stop  offset="0.4903" style="stop-color:#8FA6EB"/>
		<stop  offset="0.7125" style="stop-color:#9CB3FA"/>
		<stop  offset="0.8936" style="stop-color:#A0B7FF"/>
	</linearGradient>
	
		<circle style="opacity:0.33;clip-path:url(#SVGID_00000035508782588450400070000012349982319287895445_);fill:url(#SVGID_00000109726425565626028440000006696026440980105113_);" cx="93.7" cy="81.2" r="103.4"/>
	<g style="clip-path:url(#SVGID_00000035508782588450400070000012349982319287895445_);">
		<image style="overflow:visible;" width="71" height="76" xlink:href="5F9C66A6.png"  transform="matrix(1 0 0 1 29 87.6792)">
		</image>
	</g>
	<g style="clip-path:url(#SVGID_00000035508782588450400070000012349982319287895445_);">
		<image style="overflow:visible;" width="128" height="192" xlink:href="5F9C66AA.png"  transform="matrix(1 0 0 1 25 -28.3208)">
		</image>
	</g>
	
		<linearGradient id="SVGID_00000182524854433711175570000009769799417792118168_" gradientUnits="userSpaceOnUse" x1="34.8049" y1="55.6923" x2="127.3667" y2="55.6923">
		<stop  offset="0" style="stop-color:#5F74B1"/>
		<stop  offset="0.2466" style="stop-color:#7A90D2"/>
		<stop  offset="0.4903" style="stop-color:#8FA6EB"/>
		<stop  offset="0.7125" style="stop-color:#9CB3FA"/>
		<stop  offset="0.8936" style="stop-color:#A0B7FF"/>
	</linearGradient>
	
		<path style="clip-path:url(#SVGID_00000035508782588450400070000012349982319287895445_);fill:url(#SVGID_00000182524854433711175570000009769799417792118168_);" d="
		M34.8,41c7.3-2,20.7-4.7,36.2-1.6c3,0.6,8.9,2,15.6,5c0.9,0.4,1.9,0.9,2.8,1.3c16,7.9,28.2,21.9,34.3,38.6l0,0.1
		c0.4-1.4,0.7-2.9,1-4.4c1.2-5.4,2-10.5,2.6-15.4c-0.8-0.8-2-2-3.4-3.5c-3-3.2-4.2-5.1-6.3-7.5c-2.2-2.6-4-4.2-6.8-6.6
		c-6.7-6-13.8-10.7-16.7-12.3c-10-5.7-27.7-9.1-48.7-7.2L34.8,41z"/>
	
		<linearGradient id="SVGID_00000045610756989050201620000011899925815649375617_" gradientUnits="userSpaceOnUse" x1="113.8307" y1="115.4624" x2="109.2063" y2="124.9834">
		<stop  offset="0.146" style="stop-color:#999999"/>
		<stop  offset="0.5767" style="stop-color:#FFFFFF"/>
		<stop  offset="0.8936" style="stop-color:#999999"/>
	</linearGradient>
	
		<polygon style="clip-path:url(#SVGID_00000035508782588450400070000012349982319287895445_);fill:url(#SVGID_00000045610756989050201620000011899925815649375617_);" points="
		119.2,119.9 115.9,126.5 103.9,120.4 107.3,113.8 	"/>
	
		<rect x="107.8" y="113.4" transform="matrix(0.4534 -0.8913 0.8913 0.4534 -46.0943 165.1051)" style="clip-path:url(#SVGID_00000035508782588450400070000012349982319287895445_);fill:#686B99;" width="7.4" height="13.5"/>
	
		<rect x="140.3" y="106.3" transform="matrix(0.4534 -0.8913 0.8913 0.4534 -42.9621 204.3875)" style="clip-path:url(#SVGID_00000035508782588450400070000012349982319287895445_);fill:#23286B;" width="9.8" height="61.9"/>
	<path style="clip-path:url(#SVGID_00000035508782588450400070000012349982319287895445_);fill:#23286B;" d="M70.4,55.7
		c-22.8,0-41.2,18.4-41.2,41.2s18.4,41.2,41.2,41.2c22.8,0,41.2-18.4,41.2-41.2S93.1,55.7,70.4,55.7z M70.4,136.3
		c-21.7,0-39.4-17.6-39.4-39.4s17.6-39.4,39.4-39.4c21.7,0,39.4,17.6,39.4,39.4S92.1,136.3,70.4,136.3z"/>
	
		<linearGradient id="SVGID_00000022542722620437671950000011687783726956927145_" gradientUnits="userSpaceOnUse" x1="95.5595" y1="69.0554" x2="40.3654" y2="129.3331">
		<stop  offset="0.1262" style="stop-color:#EEB18D"/>
		<stop  offset="0.9777" style="stop-color:#E29D79"/>
	</linearGradient>
	
		<circle style="clip-path:url(#SVGID_00000035508782588450400070000012349982319287895445_);fill:url(#SVGID_00000022542722620437671950000011687783726956927145_);" cx="70.1" cy="96.8" r="39.4"/>
	
		<linearGradient id="SVGID_00000010290140359672019210000011774986700209193120_" gradientUnits="userSpaceOnUse" x1="101.009" y1="79.1143" x2="35.9042" y2="116.4725">
		<stop  offset="0" style="stop-color:#FCCBAB"/>
		<stop  offset="0.3342" style="stop-color:#EEB18D"/>
		<stop  offset="0.9777" style="stop-color:#E29D79"/>
	</linearGradient>
	
		<circle style="clip-path:url(#SVGID_00000035508782588450400070000012349982319287895445_);fill:url(#SVGID_00000010290140359672019210000011774986700209193120_);" cx="70.1" cy="96.8" r="39.4"/>
	
		<linearGradient id="SVGID_00000062894138334659880670000003942605094358895240_" gradientUnits="userSpaceOnUse" x1="117.431" y1="73.9956" x2="38.1808" y2="112.2605">
		<stop  offset="0.1262" style="stop-color:#EEB18D"/>
		<stop  offset="0.9777" style="stop-color:#E29D79"/>
	</linearGradient>
	
		<path style="clip-path:url(#SVGID_00000035508782588450400070000012349982319287895445_);fill:url(#SVGID_00000062894138334659880670000003942605094358895240_);" d="
		M70.1,57.5c-21.7,0-39.4,17.6-39.4,39.4c0,21.7,17.6,39.4,39.4,39.4c21.7,0,39.4-17.6,39.4-39.4C109.5,75.1,91.9,57.5,70.1,57.5z
		 M70.7,134.6c-20.8,0-37.7-16.9-37.7-37.7c0-20.8,16.9-37.7,37.7-37.7s37.7,16.9,37.7,37.7C108.4,117.7,91.5,134.6,70.7,134.6z"/>
	<path style="clip-path:url(#SVGID_00000035508782588450400070000012349982319287895445_);fill:#F8CDB5;" d="M62.3,69.7
		c0,0,0,4.4,3.3,9.8c3.3,5.4,4.6,10.7,4.6,10.7s-3.9-6.9-6.2-10.2C61.5,76.6,62.3,69.7,62.3,69.7z"/>
	<path style="clip-path:url(#SVGID_00000035508782588450400070000012349982319287895445_);fill:#F8CDB5;" d="M81.1,98.5
		c0,0,0,2.3,1.7,5.1c1.7,2.8,2.4,5.6,2.4,5.6s-2-3.6-3.2-5.3C80.8,102.1,81.1,98.5,81.1,98.5z"/>
	<path style="clip-path:url(#SVGID_00000035508782588450400070000012349982319287895445_);fill:#F8CDB5;" d="M55,120.2
		c0,0,3.8,4.4,5.6,7.7c1.8,3.3,3.8,5.2,3.8,5.2s-3.4-2.1-5.8-6.3C56.2,122.8,55,120.2,55,120.2z"/>
	<path style="clip-path:url(#SVGID_00000035508782588450400070000012349982319287895445_);fill:#F8CDB5;" d="M87.5,78
		c0,0,1.8,4.7,2.9,6.4c1.1,1.7,2.7,4.6,2.7,4.6s-0.5-2.2-1.6-5.5S88.4,78.6,87.5,78z"/>
	<path style="clip-path:url(#SVGID_00000035508782588450400070000012349982319287895445_);fill:#F8CDB5;" d="M95.6,96.9
		c1.8,4.3,5.1,11.6,5.1,11.6s0-3.6-2.5-7.6C95.6,96.9,95.6,96.9,95.6,96.9z"/>
	<path style="clip-path:url(#SVGID_00000035508782588450400070000012349982319287895445_);fill:#F8CDB5;" d="M79.5,114.3
		c1.2,2.8,3.3,7.4,3.3,7.4s0-2.3-1.6-4.9C79.5,114.3,79.5,114.3,79.5,114.3z"/>
	<path style="clip-path:url(#SVGID_00000035508782588450400070000012349982319287895445_);fill:#F8CDB5;" d="M73.4,79.9
		c0,0,4.2,10.2,7.7,16c3.5,5.8,3.5,5.8,3.5,5.8s-1.7-7.5-5.6-12.7S73.4,79.9,73.4,79.9z"/>
	<path style="clip-path:url(#SVGID_00000035508782588450400070000012349982319287895445_);fill:#F8CDB5;" d="M63.9,87.8
		c0,0,3.1,3.1,4.6,9.2c1.5,6.2,4.3,10.8,4.3,10.8s-2.1-7.6-2.9-11.6C69.3,92.1,63.9,87.8,63.9,87.8z"/>
	<path style="clip-path:url(#SVGID_00000035508782588450400070000012349982319287895445_);fill:#F8CDB5;" d="M70.9,121.5
		c0,0,1.6,1.6,2.4,4.8c0.8,3.2,2.3,5.6,2.3,5.6s-1.1-4-1.5-6.1C73.7,123.8,70.9,121.5,70.9,121.5z"/>
	<path style="clip-path:url(#SVGID_00000035508782588450400070000012349982319287895445_);fill:#F8CDB5;" d="M59,103.1
		c0,0,5.2,9.7,7.5,16.1c2.2,6.4,2.2,6.4,2.2,6.4s-4.7-6.1-6.2-12.4C61,106.9,59,103.1,59,103.1z"/>
	
		<radialGradient id="SVGID_00000138563502446435836210000016168864463227602057_" cx="104.7346" cy="66.55" r="70.519" gradientUnits="userSpaceOnUse">
		<stop  offset="0" style="stop-color:#FFFFFF"/>
		<stop  offset="0.854" style="stop-color:#000000"/>
	</radialGradient>
	
		<path style="opacity:0.45;clip-path:url(#SVGID_00000035508782588450400070000012349982319287895445_);fill:url(#SVGID_00000138563502446435836210000016168864463227602057_);" d="
		M59.8,62.9c3.3-1,11-3,20.4-0.6c2.9,0.7,11.5,3.1,18.4,11.2c8.1,9.6,8.1,20.5,8,23.4l-10.9,13.2C95.7,110.2,100.7,72.9,59.8,62.9z"
		/>
</g>
</svg>
