<?xml version="1.0" encoding="utf-8"?>
<!-- Generator: Adobe Illustrator 25.4.8, SVG Export Plug-In . SVG Version: 6.00 Build 0)  -->
<svg version="1.1" id="Layer_1" xmlns="http://www.w3.org/2000/svg" xmlns:xlink="http://www.w3.org/1999/xlink" x="0px" y="0px"
	 viewBox="0 0 166.6 166.6" style="enable-background:new 0 0 166.6 166.6;" xml:space="preserve">
<style type="text/css">
	.st0{clip-path:url(#SVGID_00000015339351015519822160000003972279242927309233_);}
	.st1{opacity:0.18;}
	.st2{fill:url(#SVGID_00000025439553750483339330000012409580363012245691_);}
	.st3{fill:#FBBD9D;}
	.st4{fill:#FF9C6A;}
	.st5{fill:#263238;}
	.st6{fill:#FF735D;}
	.st7{fill:#375A64;}
	.st8{opacity:0.84;}
	.st9{fill:#E2BE8E;}
	.st10{fill:#171111;}
	.st11{fill:#222220;}
	.st12{fill:#C63B38;}
</style>
<g>
	<g>
		<defs>
			<circle id="SVGID_1_" cx="83.3" cy="83.3" r="83.3"/>
		</defs>
		<clipPath id="SVGID_00000060022144619389460850000016793059054595212456_">
			<use xlink:href="#SVGID_1_"  style="overflow:visible;"/>
		</clipPath>
		<g style="clip-path:url(#SVGID_00000060022144619389460850000016793059054595212456_);">
			<g class="st1">
				
					<linearGradient id="SVGID_00000106847024171155469640000013486987618500715162_" gradientUnits="userSpaceOnUse" x1="1.2969" y1="996.6967" x2="166.5003" y2="996.6967" gradientTransform="matrix(1 0 0 1 0 -912)">
					<stop  offset="0" style="stop-color:#5F74B1"/>
					<stop  offset="0.2466" style="stop-color:#7A90D2"/>
					<stop  offset="0.4903" style="stop-color:#8FA6EB"/>
					<stop  offset="0.7125" style="stop-color:#9CB3FA"/>
					<stop  offset="0.8936" style="stop-color:#A0B7FF"/>
				</linearGradient>
				<circle style="fill:url(#SVGID_00000106847024171155469640000013486987618500715162_);" cx="83.9" cy="84.7" r="82.6"/>
			</g>
			<g>
				<g>
					<path class="st3" d="M140.2,113.8c-10.2-9.8-23.1-16.1-37-18.6c-13.8-2.5-30.7-7-33-14.6c-3.6-11.6-1.5-27.6-1.5-27.6
						l-54.6-7.4c0,0-4.5,32.7-12.8,39.6s-34.9,12-40.6,16.6c-5.6,4.6-32.4,40.3-32.4,40.3S-52,201.5-51,209.4
						c0.9,7.9,15.7,82,15.7,92.9c-0.1,10.9-9.1,28.5-9.1,28.5h159.3l-9.7-32c1.2-3.1,18.8-109.9,22.3-123.6c0.2,0.3,0.4,0.5,0.5,0.6
						l18.5-53.6C145.8,120,143.4,116.9,140.2,113.8z"/>
				</g>
				<g>
					<g>
						<g>
							<path class="st4" d="M37.2,303c-0.2,0-0.6-19.4-0.9-43.3c-0.3-23.9-0.4-43.3-0.2-43.3c0.2,0,0.6,19.4,0.9,43.3
								C37.3,283.6,37.4,303,37.2,303z"/>
						</g>
					</g>
				</g>
				<g>
					<g>
						<g>
							<path class="st4" d="M20.1,163.2c0,0,0,0.8-0.1,2.3c0,0.7-0.1,1.6-0.3,2.7c-0.2,1-0.3,2.2-0.6,3.5c-0.3,1.3-0.6,2.7-1,4.2
								c-0.4,1.5-1,3.1-1.6,4.7c-1.3,3.3-3,6.7-5.1,10.2c-2.2,3.4-4.6,6.4-6.9,9c-1.2,1.2-2.4,2.5-3.6,3.5c-1.1,1.1-2.3,2-3.3,2.8
								c-1,0.8-2,1.5-2.9,2.1s-1.6,1.1-2.3,1.4c-1.3,0.7-2,1.1-2,1.1s0.6-0.5,1.9-1.3c0.6-0.4,1.4-0.9,2.2-1.5s1.8-1.3,2.8-2.1
								c1-0.8,2.1-1.7,3.2-2.8c1.2-1,2.3-2.2,3.5-3.5c2.3-2.6,4.7-5.6,6.8-8.9c2.1-3.4,3.8-6.8,5.1-10c0.6-1.6,1.2-3.2,1.6-4.6
								c0.5-1.5,0.8-2.9,1.1-4.1c0.3-1.3,0.5-2.4,0.7-3.5c0.2-1,0.3-1.9,0.4-2.6C19.9,164,20,163.2,20.1,163.2z"/>
						</g>
					</g>
				</g>
				<g>
					<g>
						<path class="st3" d="M105.3,96.7c0,0,43.4,6.5,52.9,35.7c11.2,34.6,30.3,167.1,27.5,183.3c-0.4,2.4-2.5,15.3-2.5,15.3h-46.5
							l1.7-23.1c0,0-17.7-101.1-18.7-107.5s-6.9-6.4-6.9-6.4L105.3,96.7z"/>
					</g>
					<g>
						<g>
							<path class="st4" d="M128.3,155.8c0,0,0,0.3,0,0.8c0,0.5-0.1,1.3-0.2,2.2c-0.2,1.9-0.4,4.6-0.8,8c-0.7,6.7-1.9,16-3.5,26.1
								s-3.4,19.4-4.8,25.9c-0.7,3.3-1.3,6-1.7,7.8c-0.2,0.9-0.4,1.6-0.5,2.1c-0.1,0.5-0.2,0.7-0.2,0.7s0-0.3,0.1-0.8
								c0.1-0.5,0.2-1.2,0.4-2.1c0.4-1.9,0.9-4.6,1.6-7.9c1.3-6.6,3-15.8,4.6-25.9s2.8-19.4,3.6-26.1c0.4-3.3,0.7-6,0.9-8
								c0.1-0.9,0.2-1.6,0.3-2.2C128.2,156.1,128.3,155.8,128.3,155.8z"/>
						</g>
					</g>
				</g>
				<g>
					<g>
						<path class="st3" d="M-25,96.1c0,0-48.8,8.7-64.5,37.5c-17.5,31.9-28.5,163.7-25.7,179.9c0.4,2.4,2.8,17.5,2.8,17.5h46.4
							l-1.9-25.3c0,0,17.7-101.1,18.7-107.5c1-6.5,6.9-6.4,6.9-6.4L-25,96.1z"/>
					</g>
					<g>
						<g>
							<path class="st4" d="M-59.7,156.2c0,0,0.1,0.3,0.1,0.8c0.1,0.6,0.2,1.3,0.3,2.3c0.2,2,0.6,4.8,1.1,8.4
								c1,7.1,2.5,16.8,4.4,27.4c1.9,10.7,3.6,20.4,4.7,27.3c0.6,3.5,1,6.4,1.3,8.3c0.1,1,0.2,1.7,0.3,2.3c0.1,0.5,0.1,0.8,0.1,0.8
								s-0.1-0.3-0.2-0.8c-0.1-0.6-0.2-1.3-0.4-2.3c-0.3-2-0.8-4.8-1.4-8.3c-1.3-7.1-3-16.7-4.9-27.3c-1.9-10.7-3.4-20.4-4.2-27.4
								c-0.4-3.5-0.8-6.4-0.9-8.4c-0.1-1-0.1-1.7-0.2-2.3C-59.7,156.5-59.7,156.2-59.7,156.2z"/>
						</g>
					</g>
				</g>
			</g>
			<g>
				<g>
					<g>
						<path class="st3" d="M104.7,29.3c3.2-16.9,7.8-67.9,1.1-67.9L30.6,9.1C22.2,28.9,10.3,72,10.3,72l66.2,18.7
							c-5.4-6.8-7.8-13.2-6.1-19.4c0,0,7.3-1.1,10.6-1.7c6.2-1.2,13.5-9,16.3-14.6C99.9,49.7,104.3,31.4,104.7,29.3z"/>
					</g>
				</g>
				<g>
					<g>
						<path class="st5" d="M85.5,5.6c2.6-1.1,5.5-1.2,8.1-0.3c1.6,0.6,2.5,1.4,3.2,3.3c1.1,3.1,1.5,6.5,1,9.8c-0.1,1-0.3,2,0.5,2.8
							c0.8,0.8,2.1,0.7,2.9,0c1.5-1.1,1.7-3.1,1.8-4.8c0.6-9.2,3.5-21.3,4.1-30.6l0,0c0.2-0.9,0.3-1.9,0.5-2.8
							c1.9-12.8,2.1-21.5-4.8-36.5c-6.9-15.1-27.8-22.3-39.2-25c-11.4-2.7-26.3-1-42.9,7.8C4.1-62.2-3.9-31.2-3.9-31.2
							s-2.2,5.1-2,19.4C-5.8,2.4-5,3.2,1.8,24.2c6.7,21,17.4,25.1,17.4,25.1l35.2-1.6c6.5-2.2,10.3-8.7,12.7-14.9
							c2.4-6.3,4.4-12.3,7.4-17.4C74.4,15.5,77.8,8.9,85.5,5.6z"/>
					</g>
				</g>
				<g>
					<g>
						<path class="st6" d="M4.4-62.1c8.1-3.5,16-2.6,21.3,4.7c4.6,6.2,6.8,13.1,5,20.5c-1.8,7.5-8.9,13.6-16.6,13.5
							c-4.8,0.1-9.3-2.2-12.8-5.4c-5.1-4.8-8-12.1-7-19C-4.6-54.8-2.4-60,4.4-62.1"/>
					</g>
				</g>
				<g>
					<g>
						<path class="st5" d="M27.6-41.4c-3.7-9.4-7.3-19.2-18.3-22.1c-18.5-6.4-24.7-3.3-33.6,1c-5.3,2.5-10.2,11.7-11.8,17.3
							c-1.8,6.5,0.1,13.6,4.2,18.9s10.2,8.8,16.7,10.4c1.6,0.4,3.4,0.8,4.7,1.8c2.7,2.2,2.5,6.7,0.4,9.5s-5.4,4.4-8.6,5.8
							c8.8,3.7,20,0.4,25.4-7.4C7-1.8,5.2,2.8,2.1,6.1c9.5-3.4,18-9.9,22.9-18.6S31.3-32.1,27.6-41.4z"/>
					</g>
				</g>
				<g>
					<g>
						<g>
							<path class="st7" d="M9.4-63.5c0,0,0.1,0,0.4,0.1c0.3,0.1,0.7,0.2,1.2,0.3c1,0.3,2.5,0.9,4.2,1.9s3.7,2.7,5.4,4.9
								c1.8,2.3,3.4,5.1,4.8,8.4c0.7,1.6,1.4,3.4,2.2,5.2c0.7,1.8,1.4,3.8,1.9,5.9c0.9,4.2,1,8.8,0.1,13.5
								c-0.9,4.7-2.8,9.5-5.8,13.7c-3,4.3-6.9,8.1-11.5,11.1c-3.2,2.1-6.5,3.7-10,5L0.8,7l1-1.1C5,2.5,6.6-2.1,6.5-6.4l0.7,0.2
								C4-1.7-0.8,1.1-5.5,2.2s-9.4,0.7-13.2-0.9l-0.6-0.2l0.6-0.2c3.6-1.6,6.9-3.3,8.7-6c1.7-2.6,1.7-5.7,0.7-7.6
								c-1.1-1.9-3-2.5-4.1-2.8c-0.5-0.2-1-0.3-1.3-0.4C-15-16-15.1-16-15.1-16s0.2,0,0.5,0.1c0.3,0.1,0.7,0.2,1.3,0.3
								c0.6,0.1,1.3,0.3,2.1,0.7c0.8,0.4,1.6,1.1,2.2,2.1c1.2,2,1.2,5.2-0.6,8s-5.2,4.6-8.8,6.2V0.9c3.6,1.4,8.1,1.9,12.7,0.7
								c4.6-1.1,9.2-3.8,12.3-8.2l0.6-0.8v1.1C7.3-1.9,5.6,2.8,2.4,6.4L2,5.8C5.4,4.6,8.7,3,11.8,0.9c4.5-3,8.4-6.7,11.3-10.9
								s4.8-8.9,5.7-13.5c0.9-4.6,0.8-9.2,0-13.3c-0.4-2.1-1.1-4-1.8-5.8s-1.4-3.6-2.1-5.2c-1.4-3.3-3-6.1-4.7-8.4
								c-1.7-2.3-3.6-3.9-5.3-5C11.6-63,9.3-63.4,9.4-63.5z"/>
						</g>
					</g>
				</g>
				<g>
					<g>
						<g>
							<path class="st7" d="M24.2-41.3c0,0,0,0.1-0.1,0.3c-0.1,0.2-0.2,0.5-0.4,0.9c-0.3,0.8-0.9,1.9-1.6,3.3
								c-1.6,2.8-4.1,6.7-8.4,10.5C11.7-24.4,9-22.6,6-21.2c-3.1,1.4-6.7,2.4-10.5,2.6s-7.9-0.4-11.6-2.2c-3.8-1.7-7.1-4.8-9.3-8.6
								s-3.2-8.2-2.6-12.4c0.5-4.2,2.7-7.8,5.3-10.6c2.6-2.8,5.7-4.8,8.7-6.2s6.1-2.3,8.9-2.8c5.6-1,10.3-0.4,13.4,0.3
								c0.8,0.2,1.5,0.4,2,0.5c0.6,0.2,1.1,0.3,1.5,0.5c0.4,0.1,0.6,0.3,0.9,0.3c0.2,0.1,0.3,0.1,0.3,0.1s-0.1,0-0.3-0.1
								c-0.2-0.1-0.5-0.2-0.9-0.3c-0.4-0.1-0.9-0.3-1.5-0.4c-0.6-0.2-1.3-0.3-2-0.5C5.2-61.5,0.5-61.9-5-60.9
								c-2.8,0.5-5.8,1.4-8.8,2.8s-6,3.4-8.5,6.1s-4.6,6.2-5.1,10.2s0.4,8.3,2.6,11.9c2.1,3.7,5.3,6.6,9,8.3
								c3.6,1.7,7.6,2.3,11.3,2.2s7.2-1.1,10.2-2.4c3-1.4,5.6-3.1,7.7-4.9c4.3-3.7,6.9-7.6,8.5-10.3c0.8-1.4,1.4-2.5,1.7-3.2
								c0.2-0.3,0.3-0.6,0.4-0.9C24.1-41.2,24.1-41.3,24.2-41.3z"/>
						</g>
					</g>
				</g>
				<g>
					<g>
						<g>
							<path class="st7" d="M28.1-43.9c0,0,0.3-0.1,0.9-0.2c0.6-0.1,1.4-0.3,2.6-0.3c2.2-0.2,5.5-0.4,9.5-0.1
								c8,0.5,18.9,3.4,29.6,9.2s19.5,12.8,25.5,17.8c3.1,2.6,5.5,4.7,7.2,6.1c0.8,0.7,1.4,1.3,1.9,1.7c0.4,0.4,0.7,0.6,0.6,0.6
								c0,0-0.3-0.2-0.7-0.5c-0.5-0.4-1.2-0.9-2-1.6c-1.8-1.5-4.3-3.5-7.3-6c-6.2-5-14.9-11.8-25.5-17.6S49-43.5,41.1-44.1
								c-4-0.4-7.2-0.3-9.4-0.2c-1.1,0-2,0.2-2.6,0.2C28.4-43.9,28.1-43.9,28.1-43.9z"/>
						</g>
					</g>
				</g>
				<g>
					<g>
						<g>
							<path class="st7" d="M105.8-45.4c0,0-0.3,0-0.8-0.2c-0.6-0.2-1.3-0.4-2.1-0.7c-0.9-0.3-2.1-0.7-3.4-1.1
								c-1.3-0.4-2.8-0.9-4.5-1.4c-1.7-0.5-3.5-1-5.6-1.4c-2-0.5-4.2-0.9-6.4-1.3c-4.6-0.8-9.6-1.4-15-1.7
								c-5.3-0.3-10.4-0.2-15.1,0.1c-2.3,0.2-4.5,0.3-6.6,0.6c-2.1,0.2-4,0.5-5.7,0.8c-1.7,0.2-3.3,0.6-4.7,0.8
								c-1.4,0.2-2.5,0.5-3.5,0.7c-0.9,0.2-1.6,0.4-2.2,0.5c-0.5,0.1-0.8,0.1-0.8,0.1s0.3-0.1,0.7-0.3c0.6-0.2,1.3-0.4,2.2-0.6
								c0.9-0.3,2.1-0.6,3.5-0.9c1.4-0.3,2.9-0.7,4.7-0.9c1.7-0.3,3.6-0.6,5.7-0.9c2.1-0.3,4.3-0.5,6.6-0.7
								c4.7-0.3,9.8-0.4,15.2-0.1s10.5,1,15,1.8c2.3,0.5,4.5,0.9,6.5,1.4s3.9,1,5.6,1.5s3.2,1,4.5,1.5c1.3,0.4,2.5,0.9,3.4,1.2
								s1.5,0.6,2.1,0.9C105.5-45.5,105.8-45.4,105.8-45.4z"/>
						</g>
					</g>
				</g>
				<g>
					<g>
						<g>
							<path class="st4" d="M71.5,48c0.1,0-0.2,1.8-0.5,4.8c-0.4,2.9-0.8,7-1,11.5c-0.2,4.5,0,8.6,0.3,11.5s0.5,4.7,0.4,4.8
								c0,0-0.2-0.4-0.3-1.2c-0.2-0.8-0.4-2-0.6-3.5c-0.4-2.9-0.7-7-0.5-11.6c0.2-4.5,0.7-8.6,1.2-11.5c0.3-1.5,0.5-2.6,0.7-3.4
								C71.3,48.4,71.4,48,71.5,48z"/>
						</g>
					</g>
				</g>
				<g>
					<g>
						<g>
							<path class="st4" d="M82.6,38.5c0,0-0.4,0-1.1-0.4c-0.6-0.4-1.4-1.3-1.9-2.5c-0.5-1.3-0.6-2.9-0.7-4.6
								c-0.1-1.7-0.1-3.6,0-5.6c0.2-4,0.2-7.6,1.2-10.2c0.5-1.3,1.1-2.2,1.7-2.7s0.9-0.7,1-0.6c0.1,0.1-1.4,1-2.1,3.5
								c-0.8,2.4-0.8,6.1-0.9,10.1c0,2,0,3.9,0,5.6c0,1.7,0.1,3.3,0.5,4.5c0.4,1.2,1.1,2,1.6,2.5C82.2,38.3,82.6,38.4,82.6,38.5z"/>
						</g>
					</g>
				</g>
				<g>
					<g>
						<g>
							<path class="st4" d="M86.8,22c0,0-0.1-0.4-0.1-1c0-0.7,0.1-1.6,0.3-2.8c0.1-0.6,0.3-1.2,0.6-1.8c0.3-0.6,0.6-1.4,1.2-2
								c0.3-0.3,0.8-0.5,1.3-0.5s1,0.2,1.3,0.5c0.8,0.6,1.1,1.6,1.3,2.5c0.2,0.9,0.3,1.8,0.1,2.7c-0.1,0.9-0.8,1.7-1.5,2.1
								c-0.7,0.4-1.4,0.6-1.8,1.1c-0.4,0.4-0.5,1-0.5,1.6c0.1,1.1,0.7,1.8,1.2,2.2c0.5,0.4,0.8,0.6,0.7,0.7c0,0-0.4-0.1-0.9-0.5
								s-1.3-1.1-1.5-2.4c-0.1-0.6,0.1-1.4,0.6-2c0.5-0.6,1.3-0.9,1.9-1.3c1.3-0.7,1.4-2.5,1-4.1c-0.2-0.8-0.5-1.6-1-2.1
								c-0.6-0.5-1.3-0.5-1.8-0.1c-0.5,0.4-0.8,1.1-1.1,1.7c-0.3,0.6-0.5,1.2-0.7,1.7C86.9,20.6,86.9,22,86.8,22z"/>
						</g>
					</g>
				</g>
			</g>
			<g class="st8">
				<g>
					<g>
						<g>
							<g>
								<path class="st9" d="M62.3,122.9c-0.3-0.2-0.7-0.7-0.7-1.1c0-0.2,0.1-0.4,0.2-0.6c0.9-2,2.9-3.4,4.9-4.1
									c2.1-0.8,4.5-0.9,6.6-0.4c0.6,0.1,1,0.3,1.3,0.8c0.2,0.3,0.2,0.9,0.1,1.3c-0.1,1.3-0.2,2.5-0.3,3.8c-2.2,0.4-4.4,0.7-6.7,1
									c-0.9,0.1-1.9,0.2-2.8,0.2C63.9,123.7,62.9,123.5,62.3,122.9z"/>
								<path class="st10" d="M65.4,124.2c-0.2,0-0.4,0-0.6,0c-1.1-0.1-2.1-0.4-2.8-1l0,0c-0.3-0.2-0.8-0.8-0.9-1.3
									c0-0.3,0.1-0.5,0.2-0.7c1.1-2.5,3.7-3.8,5.1-4.3c2-0.8,4.5-0.9,6.8-0.4c0.6,0.1,1.2,0.3,1.5,1c0.2,0.3,0.2,0.8,0.2,1.5
									c-0.1,0.6-0.1,1.3-0.1,1.9c0,0.6-0.1,1.2-0.1,1.9c0,0.2-0.1,0.3-0.3,0.3c-2.2,0.4-4.5,0.7-6.7,1
									C67,124,66.2,124.2,65.4,124.2z M70.5,116.8c-1.4,0-2.7,0.2-3.8,0.7c-1.3,0.5-3.7,1.7-4.7,4c-0.1,0.1-0.1,0.3-0.1,0.4
									c0,0.2,0.3,0.6,0.6,0.8l0,0c0.6,0.5,1.4,0.8,2.4,0.8c0.9,0.1,1.7,0,2.7-0.2c2.1-0.3,4.3-0.6,6.4-1c0-0.6,0.1-1.1,0.1-1.6
									c0-0.6,0.1-1.2,0.1-1.9c0-0.5,0-0.9-0.1-1.1c-0.2-0.3-0.5-0.5-1-0.6C72.3,116.8,71.4,116.8,70.5,116.8z"/>
							</g>
							<g>
								<path class="st11" d="M74.3,117.3c0.3,0.4,0.4,1.2,0.4,1.8c0.1,1.3-0.1,2.3-0.4,3.5c0,0.1,0,0.1,0,0.2s-0.1,0.1-0.2,0.1
									c-1.9,0.3-3.8,0.6-5.6,0.8c0.1-0.9,0.1-1.9,0.2-2.8c2-0.2,4-1,5.3-2.8C74,117.8,74.1,117.4,74.3,117.3z"/>
								<path class="st11" d="M68.4,123.9c-0.1,0-0.2,0-0.2-0.1c-0.1-0.1-0.1-0.2-0.1-0.3l0.2-2.8c0-0.2,0.1-0.3,0.3-0.3
									c1.6-0.2,3.7-0.8,5.1-2.7c0-0.1,0.1-0.1,0.1-0.2c0.1-0.2,0.2-0.4,0.4-0.5c0.1-0.1,0.2-0.1,0.2-0.1c0.1,0,0.2,0.1,0.2,0.1
									c0.4,0.5,0.5,1.3,0.5,2c0.1,1.3-0.1,2.4-0.4,3.6c0,0.1,0,0.2-0.1,0.3c-0.1,0.2-0.3,0.2-0.4,0.2
									C72.2,123.4,70.3,123.7,68.4,123.9L68.4,123.9z M68.9,121.1l-0.1,2.1c1.7-0.2,3.5-0.5,5.2-0.8l0,0c0.3-1.1,0.5-2.1,0.4-3.4
									c0-0.3,0-0.7-0.1-1.1c0,0.1-0.1,0.1-0.1,0.2C72.7,120.1,70.6,120.8,68.9,121.1z"/>
							</g>
						</g>
						<g>
							<g>
								<path class="st9" d="M111.3,142.2c0.3-0.4,0.3-0.9,0.2-1.4c-0.1-0.5-0.4-0.9-0.7-1.3c-0.6-0.9-1.3-1.9-2.2-2.5
									c-0.8-0.4-1.7-0.6-2.5-0.7c-1.7-0.2-3.3-0.5-5-0.2c-0.2,1.2-0.4,2.5-0.6,3.7c-0.1,0.7-0.2,1.3,0,2c0.3,0.8,1.1,1.3,1.9,1.6
									c1.6,0.7,3.4,0.9,5,0.5c1.1-0.3,2-0.7,3-1.2C110.8,142.6,111.1,142.4,111.3,142.2z"/>
								<path class="st10" d="M105.7,144.5c-1.1,0-2.3-0.2-3.3-0.7c-0.9-0.4-1.8-0.8-2.1-1.8c-0.3-0.7-0.1-1.5,0-2.1l0.6-3.7
									c0-0.1,0.1-0.3,0.3-0.3c1.7-0.3,3.4,0,5.1,0.2c0.9,0.1,1.8,0.3,2.6,0.7c1.1,0.6,1.7,1.7,2.3,2.6c0.3,0.4,0.6,0.9,0.7,1.4
									c0.2,0.6,0.1,1.3-0.3,1.7l0,0c-0.2,0.3-0.6,0.5-0.9,0.6c-1,0.5-2,0.9-3.1,1.2C107,144.4,106.4,144.5,105.7,144.5z
									 M101.5,136.4l-0.5,3.5c-0.1,0.6-0.2,1.2,0,1.8c0.2,0.7,1,1.1,1.8,1.4c1.6,0.7,3.3,0.8,4.8,0.4c1-0.3,2-0.6,2.9-1.1
									c0.2-0.1,0.5-0.3,0.7-0.5l0,0c0.2-0.3,0.3-0.7,0.1-1.1c-0.1-0.4-0.4-0.8-0.6-1.2c-0.6-0.9-1.2-1.8-2.1-2.4
									c-0.7-0.4-1.6-0.5-2.4-0.7C104.5,136.4,103,136.2,101.5,136.4z M111.3,142.2L111.3,142.2L111.3,142.2z"/>
							</g>
							<g>
								<path class="st11" d="M100.5,139.4c-0.1,0.5-0.2,1-0.2,1.5c0,0.5,0.2,1,0.5,1.4c0-1,0.5-2,1.3-2.6s1.7-0.7,2.8-0.7
									c1.2,0,2.4,0.2,3.5,0.7c0.2-0.7,0.3-1.5,0.3-2.3c-2.3-1.3-5.1-1.7-7.7-1.1C100.8,137.4,100.7,138.3,100.5,139.4z"/>
								<path class="st11" d="M100.9,142.6c-0.1,0-0.2,0-0.2-0.1c-0.4-0.4-0.6-0.9-0.6-1.6c0-0.5,0.1-1.1,0.2-1.6
									c0.1-0.5,0.2-1,0.3-1.5c0.1-0.5,0.2-1,0.3-1.6c0-0.1,0.1-0.2,0.2-0.3c2.7-0.6,5.6-0.2,8,1.1c0.1,0.1,0.2,0.2,0.2,0.3
									c0,0.8-0.2,1.6-0.3,2.3c0,0.1-0.1,0.2-0.2,0.2c-0.1,0-0.2,0-0.3,0c-1-0.5-2.2-0.8-3.3-0.7c-1,0-1.8,0.1-2.6,0.7
									c-0.8,0.6-1.2,1.5-1.2,2.3c0,0.1-0.1,0.3-0.2,0.3C101,142.6,100.9,142.6,100.9,142.6z M101.3,136.6
									c-0.1,0.5-0.2,0.9-0.2,1.3c-0.1,0.5-0.2,1-0.3,1.6l0,0c-0.1,0.5-0.2,0.9-0.2,1.4c0,0.1,0,0.2,0,0.3c0.2-0.7,0.7-1.3,1.3-1.8
									c0.9-0.7,1.9-0.7,2.9-0.8c1.1,0,2.2,0.2,3.2,0.6c0.1-0.5,0.2-1.1,0.2-1.6C106.2,136.5,103.7,136.1,101.3,136.6z
									 M100.5,139.4L100.5,139.4L100.5,139.4z"/>
							</g>
						</g>
					</g>
					<g>
						<g>
							<path class="st12" d="M88.3,146.6c1.2-0.8,2.5-1.4,3.8-2c5-2.3,10-4.9,13.7-8.9c3.8-4,6.3-9.5,5.4-14.9
								c-0.2-1.5-0.8-3-1.7-4.2c-0.7-0.9-1.2-1.6-2.4-2.4c-1-0.7-2-1.1-3.2-1.6c-4-1.4-8.7-0.6-11.7,2.3c-2-3.1-4.7-4.7-7.8-5.3
								c-3.2-0.6-6.6,0.3-8.9,2.6c-1.5,1.5-2.7,3.6-3.4,5.7c-0.5,1.9-0.6,3.8-0.5,5.7c0.1,2.6,1.1,5.1,2.3,7.4c2.3,4.5,6,8,9.6,11.5
								C85,144.1,86.6,145.5,88.3,146.6z"/>
							<path class="st10" d="M88.3,147l-0.2-0.1c-1.7-1.2-3.3-2.6-4.8-4c-3.4-3.3-7.3-7-9.7-11.6c-1.5-2.8-2.2-5.2-2.3-7.6
								c-0.1-1.8-0.1-3.8,0.5-5.8c0.6-2.1,1.9-4.3,3.4-5.8c2.3-2.3,5.8-3.3,9.2-2.7c3.3,0.6,6,2.4,7.8,5.1c3.1-2.7,7.7-3.5,11.8-2.1
								c1.3,0.4,2.3,0.9,3.3,1.6c1.2,0.9,1.8,1.6,2.4,2.5c0.9,1.2,1.5,2.6,1.7,4.4c0.8,5.1-1.2,10.8-5.5,15.2
								c-3.9,4.1-9.2,6.8-13.9,8.9l-0.3,0.1C90.5,145.7,89.3,146.2,88.3,147L88.3,147z M82.4,109.9c-2.5,0-5,0.9-6.7,2.7
								c-1.5,1.5-2.7,3.5-3.3,5.6c-0.6,1.9-0.5,3.8-0.5,5.6c0.1,2.3,0.8,4.6,2.2,7.3c2.4,4.5,6.2,8.2,9.5,11.4
								c1.4,1.3,2.9,2.7,4.5,3.8c1.1-0.7,2.2-1.2,3.4-1.7l0.3-0.1c4.6-2.1,9.8-4.7,13.6-8.8c4.1-4.3,6.1-9.8,5.3-14.7
								c-0.3-1.6-0.8-3-1.6-4.1c-0.7-0.9-1.2-1.6-2.3-2.4c-1-0.7-1.9-1.1-3.1-1.5c-3.9-1.3-8.5-0.4-11.4,2.2l-0.3,0.3l-0.2-0.3
								c-1.8-2.8-4.3-4.5-7.6-5.2C83.6,110,83,109.9,82.4,109.9z"/>
						</g>
						<g>
							<path class="st11" d="M93.3,118.3c-0.2,0-0.3-0.1-0.3-0.3c0-0.5-0.2-1-0.4-1.4c-0.3-0.6-0.4-0.9-0.8-1.4
								c-0.1-0.1-0.1-0.4,0.1-0.5c0.1-0.1,0.4-0.1,0.5,0.1c0.4,0.6,0.6,0.9,0.9,1.5c0.2,0.5,0.4,1.1,0.4,1.7
								C93.6,118.1,93.5,118.2,93.3,118.3L93.3,118.3z"/>
						</g>
					</g>
				</g>
				<g>
					<g>
						<g>
							<g>
								<path class="st9" d="M67.6,123.6c-1.1,0.2-2.3,0.3-3.4,0.1c-1.1-0.2-2.2-0.8-2.7-1.8c-0.6,4.2-1.2,8.4-0.9,12.6
									c0,0.6,0.1,1.2,0.6,1.6c0.3,0.3,1.1,0.7,1.5,0.8c3.3,0.8,6.2,0.8,9.5,0.1c1.1-0.2,2.2-0.6,3.4-0.9c1.1-0.3,2.2-0.4,3.3-0.6
									c5.5-0.7,11.2-1.2,16.6-0.2c0.5-2,0.9-4.1,1.1-6.1c0.3-2.5,0.8-5.1-0.3-7.3c-0.1-0.2-0.4-0.4-0.6-0.6
									c-0.2-0.1-0.5-0.3-0.7-0.4c-1.4-0.3-2.7-0.6-4.1-0.8c-3.2-0.3-6.4,0.2-9.5,0.8C76.8,121.9,72.2,123,67.6,123.6z"/>
								<path class="st10" d="M67.6,137.9c-1.7,0-3.3-0.2-5.1-0.7c-0.4-0.1-1.3-0.6-1.6-0.9c-0.5-0.5-0.6-1.2-0.7-1.8
									c-0.3-4.3,0.3-8.5,0.9-12.7c0-0.1,0.1-0.3,0.3-0.3c0.1,0,0.3,0,0.3,0.2c0.5,0.8,1.4,1.4,2.5,1.6c1.1,0.2,2.1,0.1,3.3-0.1
									l0,0c3.4-0.5,6.9-1.2,10.2-1.9c1.2-0.2,2.4-0.5,3.6-0.7c3.1-0.6,6.4-1.2,9.6-0.8c1.4,0.2,2.8,0.5,4.2,0.8
									c0.3,0.1,0.6,0.2,0.9,0.4c0.3,0.2,0.6,0.4,0.7,0.7c1,2.2,0.7,4.7,0.4,7l-0.1,0.5c-0.2,1.9-0.6,4-1.2,6.2
									c0,0.2-0.2,0.3-0.4,0.2c-5.5-1-11.2-0.5-16.5,0.2c-1.1,0.1-2.2,0.3-3.3,0.5c-0.5,0.1-1,0.3-1.5,0.4
									c-0.6,0.2-1.2,0.3-1.8,0.5C70.6,137.7,69.1,137.9,67.6,137.9z M61.8,122.8c-0.6,3.8-1.1,7.8-0.8,11.7c0,0.5,0.1,1.1,0.5,1.4
									c0.2,0.2,1,0.6,1.4,0.7c3.2,0.8,6.1,0.8,9.4,0.1c0.6-0.1,1.2-0.3,1.8-0.5c0.5-0.1,1-0.3,1.5-0.4c1.1-0.3,2.2-0.4,3.3-0.6
									c5.3-0.7,11-1.2,16.4-0.3c0.5-2,0.8-4,1.1-5.8l0.1-0.5c0.3-2.3,0.6-4.6-0.3-6.6c-0.1-0.2-0.4-0.4-0.5-0.5
									c-0.2-0.1-0.4-0.2-0.6-0.3c-1.3-0.3-2.7-0.6-4.1-0.8c-3.1-0.3-6.4,0.2-9.4,0.8c-1.2,0.2-2.4,0.5-3.6,0.7
									c-3.3,0.7-6.8,1.4-10.3,1.9l0,0c-1.1,0.2-2.3,0.3-3.5,0.1C63.1,123.8,62.4,123.4,61.8,122.8z M67.6,123.6L67.6,123.6
									L67.6,123.6z"/>
							</g>
							<g>
								<g>
									<path class="st9" d="M91.2,127.7c-0.8,0.1-1.6,0.2-2.3-0.1c-0.7-0.3-1.3-1.1-1.2-1.8c0.1-0.3,0.2-0.5,0.4-0.8
										c0.7-0.9,1.8-1.3,2.9-1.6c1.1-0.2,2.2-0.3,3.3-0.7c0.7-0.2,1.4-0.6,1.6-1.3c0.5,0.2,0.8,1,0.9,1.5c0.2,1,0.3,1.8,0.3,2.7
										c0,0.1,0,0.2-0.1,0.3c-0.1,0.1-0.3,0.1-0.4,0.2C94.9,126.9,93,127.4,91.2,127.7z"/>
									<path class="st10" d="M90,128.2c-0.4,0-0.9-0.1-1.3-0.2c-0.8-0.3-1.6-1.3-1.4-2.2c0.1-0.3,0.2-0.6,0.5-0.9
										c0.7-0.8,1.7-1.3,3.1-1.7c0.4-0.1,0.8-0.2,1.2-0.2c0.7-0.1,1.4-0.2,2-0.5c0.5-0.2,1.2-0.5,1.4-1.1c0-0.1,0.1-0.2,0.2-0.2
										c0.1,0,0.2,0,0.3,0c0.7,0.4,1,1.6,1,1.7c0.2,1,0.3,1.8,0.3,2.8c0,0.1,0,0.3-0.1,0.4c-0.1,0.2-0.3,0.2-0.5,0.3h-0.1
										c-1.7,0.7-3.6,1.3-5.5,1.6l0,0C90.8,128.1,90.4,128.2,90,128.2z M96,122c-0.3,0.5-0.8,0.8-1.6,1.1
										c-0.7,0.2-1.4,0.4-2.1,0.5c-0.4,0.1-0.8,0.1-1.2,0.2c-1.3,0.3-2.2,0.8-2.8,1.4c-0.2,0.2-0.3,0.4-0.3,0.6
										c-0.1,0.6,0.4,1.2,1,1.5c0.7,0.3,1.4,0.2,2.2,0.1l0,0c1.8-0.3,3.6-0.8,5.3-1.5c0,0,0.1,0,0.2-0.1h0.1c0,0,0,0,0-0.1
										c0-0.9-0.1-1.7-0.3-2.7C96.4,122.7,96.2,122.3,96,122z"/>
								</g>
								<g>
									<path class="st9" d="M115.2,134.8c0.4-1.6,1.1-3.1,1.4-4.7c0.3-1.6,0.1-3.5-1-4.6c-0.6-0.6-1.4-0.9-2.2-1.2
										c-2.1-0.7-4.3-1-6.5-0.8c-5.8,0.4-11,3.8-16.8,4.3c-0.6,0.1-1.1,0.1-1.6-0.2c-0.6-0.3-1-1.2-0.9-1.9
										c-1.9,3-2.9,6.9-2.8,10.5c0,0.9,0.1,2,0.8,2.6c0.5,0.5,1.2,0.6,1.9,0.6c0.7,0,1.4-0.3,2-0.5c4.8-1.6,9.9-3,15-2.4
										c1.6,0.2,3.3,0.6,4.6,1.5c1.4,0.9,2.2,2.7,2.2,4.4c1.4-0.3,2.6-1.9,3-3.3C114.7,137.7,114.9,136.2,115.2,134.8z"/>
									<path class="st10" d="M111.3,142.7c-0.1,0-0.2,0-0.2-0.1c-0.1-0.1-0.1-0.2-0.1-0.3c0-1.6-0.8-3.3-2-4.1
										c-1.1-0.8-2.6-1.2-4.5-1.5c-5.1-0.6-10.3,1-14.8,2.4c-0.7,0.2-1.4,0.5-2.1,0.5c-0.9,0-1.7-0.2-2.2-0.7
										c-0.8-0.8-0.9-1.9-0.9-2.9c-0.1-3.8,1-7.7,2.9-10.7c0.1-0.1,0.3-0.2,0.4-0.1c0.1,0.1,0.2,0.2,0.2,0.4
										c-0.1,0.5,0.3,1.3,0.7,1.5c0.4,0.2,1,0.2,1.4,0.2c2.8-0.3,5.5-1.2,8.1-2.1c2.8-1,5.7-2,8.6-2.2c2.2-0.2,4.5,0.1,6.6,0.8
										c0.8,0.3,1.7,0.6,2.3,1.3c1.1,1.1,1.5,2.9,1.1,4.9c-0.2,0.9-0.5,1.7-0.8,2.6c-0.2,0.7-0.5,1.5-0.7,2.2l0,0
										c-0.1,0.6-0.2,1.1-0.3,1.7c-0.1,0.8-0.3,1.7-0.5,2.6C114.2,140.6,113,142.3,111.3,142.7
										C111.4,142.7,111.4,142.7,111.3,142.7z M102.4,136c0.8,0,1.5,0,2.3,0.1c2,0.2,3.6,0.7,4.8,1.6c1.3,0.9,2.2,2.5,2.3,4.2
										c1.1-0.4,2-1.7,2.4-2.9c0.3-0.8,0.4-1.6,0.5-2.5c0.1-0.6,0.2-1.2,0.3-1.8l0,0c0.2-0.8,0.4-1.5,0.7-2.3
										c0.3-0.8,0.6-1.6,0.7-2.5c0.4-1.8,0-3.4-0.9-4.3c-0.6-0.6-1.4-0.9-2.1-1.1c-2-0.7-4.2-1-6.4-0.8c-2.9,0.2-5.7,1.2-8.5,2.1
										c-2.7,0.9-5.4,1.9-8.3,2.2c-0.6,0.1-1.3,0.1-1.8-0.2c-0.4-0.2-0.7-0.7-0.9-1.2c-1.5,2.7-2.4,6.1-2.3,9.5
										c0,0.8,0.1,1.8,0.7,2.4c0.4,0.4,1,0.6,1.7,0.5c0.6,0,1.3-0.2,1.9-0.5C93.5,137.3,97.9,136,102.4,136z"/>
								</g>
							</g>
						</g>
					</g>
					<g>
						<g>
							<g>
								<g>
									<path class="st10" d="M70.9,133c-0.1,0-0.3-0.1-0.3-0.2c-0.5-1.6-1-3.3-1.4-5c-0.5,1-0.9,2-1.2,3.1c0,0.1-0.1,0.2-0.3,0.2
										c-0.1,0-0.3,0-0.3-0.2l-0.7-1.1c-0.2-0.4-0.5-0.8-0.7-1.1s-0.5-0.6-0.7-0.9l-0.9,4.7c0,0.2-0.2,0.3-0.4,0.3
										c-0.2,0-0.3-0.2-0.3-0.4l1-5.4c0-0.1,0.1-0.2,0.2-0.3c0.1,0,0.2,0,0.3,0.1c0.4,0.5,0.8,1,1.2,1.5c0.3,0.4,0.5,0.8,0.7,1.1
										l0.3,0.5c0.4-1.1,0.8-2.2,1.4-3.2c0.1-0.1,0.2-0.2,0.3-0.2c0.1,0,0.2,0.1,0.3,0.2c0.5,1.9,1,3.9,1.6,5.8
										C71.3,132.7,71.2,132.9,70.9,133C71,133,71,133,70.9,133z"/>
								</g>
								<g>
									<g>
										<path class="st10" d="M63.9,133c-0.2,0-0.5,0-0.7-0.1c-0.1,0-0.2-0.1-0.3-0.3c0-0.1,0-0.3,0.2-0.4
											c0.1-0.1,0.3-0.1,0.4-0.1c0.1,0,0.1,0.1,0.2,0.1c0.4,0,0.8,0,1.2-0.1c0.2-0.1,0.4,0,0.4,0.2c0.1,0.2,0,0.4-0.2,0.4
											C64.6,132.9,64.2,133,63.9,133z M63.2,132.8L63.2,132.8L63.2,132.8z"/>
									</g>
									<g>
										<path class="st10" d="M70,133.2c-0.2,0-0.3-0.1-0.3-0.3c0-0.2,0.1-0.3,0.3-0.4l1.6-0.1c0.2,0,0.3,0.1,0.4,0.3
											c0,0.2-0.1,0.3-0.3,0.4L70,133.2L70,133.2z"/>
									</g>
									<g>
										<path class="st10" d="M66.9,131.4c-0.2,0-0.3-0.1-0.3-0.3c0-0.2,0.1-0.4,0.3-0.4l1.6-0.3c0.2,0,0.4,0.1,0.4,0.3
											s-0.1,0.4-0.3,0.4L66.9,131.4L66.9,131.4z"/>
									</g>
								</g>
							</g>
							<g>
								<g>
									<path class="st10" d="M85.2,131.9c-0.1,0-0.3-0.1-0.3-0.2c-0.5-1.6-1-3.3-1.4-5c-0.5,1-0.9,2-1.2,3.1
										c0,0.1-0.1,0.2-0.3,0.2c-0.1,0-0.3,0-0.3-0.2l-0.7-1.1c-0.2-0.4-0.5-0.8-0.7-1.1c-0.2-0.3-0.5-0.6-0.7-0.9l-0.9,4.7
										c0,0.2-0.2,0.3-0.4,0.3s-0.3-0.2-0.3-0.4l1-5.4c0-0.1,0.1-0.2,0.2-0.3c0.1,0,0.2,0,0.3,0.1c0.4,0.5,0.8,1,1.2,1.5
										c0.3,0.4,0.5,0.8,0.7,1.1l0.3,0.5c0.4-1.1,0.8-2.2,1.4-3.2c0.1-0.1,0.2-0.2,0.3-0.2c0.1,0,0.2,0.1,0.3,0.2
										c0.5,1.9,1,3.9,1.6,5.8C85.6,131.6,85.5,131.8,85.2,131.9L85.2,131.9z"/>
								</g>
								<g>
									<g>
										<path class="st10" d="M77.7,132.1c-0.2,0-0.3-0.1-0.3-0.3c0-0.2,0.1-0.4,0.3-0.4l1.7-0.3c0.2,0,0.4,0.1,0.4,0.3
											s-0.1,0.4-0.3,0.4L77.7,132.1C77.8,132.1,77.8,132.1,77.7,132.1z"/>
									</g>
									<g>
										<path class="st10" d="M81.4,130.3c-0.1,0-0.2,0-0.3,0c-0.2,0-0.3-0.2-0.3-0.3c0-0.2,0.2-0.3,0.3-0.3c0.5,0,0.9,0,1.4-0.1
											c0.2,0,0.4,0.1,0.4,0.3c0,0.2-0.1,0.4-0.3,0.4C82.2,130.3,81.8,130.3,81.4,130.3z"/>
									</g>
									<g>
										<path class="st10" d="M83.8,131.8c-0.2,0-0.3-0.1-0.3-0.3c0-0.2,0.1-0.4,0.3-0.4l1.5-0.3c0.2,0,0.4,0.1,0.4,0.3
											c0,0.2-0.1,0.4-0.3,0.4L83.8,131.8L83.8,131.8z"/>
									</g>
								</g>
							</g>
							<g>
								<g>
									<path class="st10" d="M75.3,132.3c-0.4,0-0.9-0.1-1.2-0.2c-0.8-0.3-1.5-0.7-1.9-1.3c-0.5-0.7-0.7-1.6-0.4-2.3
										c0.1-0.3,0.3-0.5,0.5-0.8c0.2-0.3,0.6-0.6,0.9-0.8c1-0.6,2.3-0.4,3.2,0.4c0.8,0.7,1.2,1.9,1,3.1l0,0
										c-0.1,0.7-0.5,1.3-1,1.6C76.2,132.2,75.7,132.3,75.3,132.3z M74.7,127.2c-0.3,0-0.7,0.1-1,0.3s-0.6,0.5-0.8,0.7
										c-0.2,0.2-0.3,0.4-0.4,0.6c-0.2,0.5-0.1,1.2,0.3,1.7c0.3,0.4,0.9,0.8,1.6,1c0.4,0.1,1.3,0.3,1.9-0.1
										c0.5-0.3,0.6-0.9,0.7-1.2l0,0c0.2-0.9-0.1-1.9-0.8-2.4C75.7,127.4,75.2,127.2,74.7,127.2z M77.2,130.3L77.2,130.3
										L77.2,130.3z"/>
								</g>
								<g>
									<path class="st10" d="M73.5,131.4L73.5,131.4c-0.3-0.1-0.4-0.3-0.4-0.4v-3.6c0-0.2,0.1-0.3,0.3-0.3l0,0
										c0.2,0,0.3,0.1,0.3,0.3v3.5l0,0c0.1,0.1,0.1,0.3,0,0.5C73.7,131.4,73.6,131.4,73.5,131.4z"/>
								</g>
							</g>
						</g>
						<g>
							<g>
								<g>
									<g>
										<path class="st10" d="M96.6,134.4c-0.1,0-0.2,0-0.2-0.1c-0.1-0.1-0.2-0.3,0-0.5c1.5-1.8,2.8-3.8,3.8-5.9
											c0.1-0.1,0.2-0.2,0.3-0.2s0.3,0.1,0.3,0.3c0.2,1.3,0.8,2.5,1.5,3.8c0.2,0.5,0.5,1,0.5,1.6c0,0.2-0.1,0.3-0.3,0.3
											c-0.2,0-0.3-0.1-0.3-0.3c0-0.4-0.2-0.9-0.5-1.3c-0.5-1-1.1-2-1.4-3.1c-1,1.9-2.1,3.6-3.4,5.2
											C96.8,134.3,96.7,134.4,96.6,134.4z"/>
									</g>
									<g>
										<path class="st10" d="M98.5,132.2c-0.1,0-0.2-0.1-0.3-0.2c-0.1-0.2,0-0.4,0.1-0.4c0.9-0.5,2-0.8,3.1-0.8
											c0.2,0,0.3,0.1,0.3,0.3c0,0.2-0.1,0.3-0.3,0.3C100.4,131.4,99.5,131.7,98.5,132.2C98.6,132.1,98.5,132.2,98.5,132.2z"/>
									</g>
								</g>
								<g>
									<g>
										<path class="st10" d="M95.8,134.5c-0.2,0-0.3-0.1-0.3-0.3c0-0.2,0.1-0.4,0.3-0.4c0.6-0.1,1.1-0.2,1.7-0.4
											c0.2,0,0.4,0.1,0.4,0.2c0,0.2-0.1,0.4-0.2,0.4C97.1,134.3,96.5,134.4,95.8,134.5C95.9,134.5,95.9,134.5,95.8,134.5z"/>
									</g>
									<g>
										<path class="st10" d="M101.7,134c-0.2,0-0.3-0.1-0.3-0.3s0.1-0.3,0.3-0.4l1.4-0.2c0.2,0,0.3,0.1,0.4,0.3
											c0,0.2-0.1,0.3-0.3,0.4L101.7,134L101.7,134z"/>
									</g>
									<g>
										<path class="st10" d="M99.4,128.4c-0.1,0-0.2,0-0.2-0.1c-0.1-0.1-0.1-0.2-0.1-0.3c0-0.1,0.1-0.3,0.3-0.3
											c0.1-0.1,0.3-0.1,0.4,0l0,0l1.2-0.3c0.2,0,0.4,0.1,0.4,0.2c0,0.2-0.1,0.4-0.2,0.4L99.4,128.4
											C99.5,128.4,99.4,128.4,99.4,128.4z M99.5,128.3L99.5,128.3L99.5,128.3z"/>
									</g>
								</g>
							</g>
							<g>
								<g>
									<path class="st10" d="M91,135.8c-0.1,0-0.2,0-0.3,0h-0.1c-0.1,0.1-0.2,0-0.3,0c-0.1-0.1-0.2-0.2-0.1-0.4
										c0.7-1.9,1.2-3.8,1.6-5.8c0-0.1,0.1-0.2,0.2-0.3c1.1-0.3,2-0.2,2.7,0.2c0.8,0.5,1.3,1.5,1.3,2.8c0,0.3,0,0.6-0.1,0.9
										c-0.2,0.5-0.6,1-1.2,1.4C93.6,135.3,92.4,135.7,91,135.8C91.1,135.8,91.1,135.8,91,135.8z M91,135.1L91,135.1
										c1.2,0,2.3-0.4,3.3-1c0.5-0.3,0.8-0.7,1-1.1c0.1-0.2,0.1-0.5,0.1-0.7c0-1-0.4-1.9-1-2.2c-0.5-0.3-1.2-0.4-2-0.2
										C92.1,131.7,91.6,133.4,91,135.1z"/>
								</g>
								<g>
									<path class="st10" d="M91.6,135.8c-0.1,0-0.1,0-0.2-0.1s-0.2-0.3-0.1-0.5c0.7-1.8,1.1-3.6,1.3-5.5c0-0.2,0.2-0.3,0.4-0.3
										c0.2,0,0.3,0.2,0.3,0.4c-0.2,1.9-0.6,3.8-1.3,5.6c0,0.1,0,0.3-0.1,0.4C91.7,135.7,91.6,135.8,91.6,135.8z M91.8,135.4
										L91.8,135.4L91.8,135.4z"/>
								</g>
							</g>
							<g>
								<g>
									<path class="st10" d="M104.1,133.7c-0.1,0-0.1,0-0.2,0c-0.1-0.1-0.2-0.2-0.2-0.4c0.6-1.9,1-3.9,1.2-5.8
										c0-0.1,0.1-0.2,0.2-0.3c1.1-0.3,1.9-0.3,2.7,0.1c0.8,0.4,1.4,1.4,1.5,2.7c0,0.3,0,0.6-0.1,0.9c-0.1,0.5-0.5,1-1.2,1.5
										c-1,0.8-2.3,1.2-3.6,1.4C104.3,133.8,104.2,133.8,104.1,133.7L104.1,133.7C104.3,133.7,104.2,133.7,104.1,133.7z
										 M104.6,133L104.6,133c1.2-0.1,2.3-0.5,3.2-1.2c0.5-0.4,0.8-0.7,0.9-1.1c0.1-0.2,0.1-0.5,0-0.7c-0.1-1-0.5-1.8-1.1-2.2
										c-0.5-0.3-1.2-0.3-2-0.1C105.4,129.5,105.1,131.3,104.6,133z"/>
								</g>
								<g>
									<path class="st10" d="M104.9,133.7L104.9,133.7c-0.3-0.1-0.4-0.2-0.3-0.4c0.1-0.3,0.2-0.7,0.3-1c0.5-1.6,0.7-3.3,0.9-5
										c0-0.2,0.2-0.3,0.4-0.3s0.3,0.2,0.3,0.4c-0.1,1.7-0.4,3.5-0.9,5.1c-0.1,0.2-0.1,0.4-0.2,0.6c0,0.1,0,0.1,0,0.2l-0.1,0.3
										C105.2,133.6,105.1,133.7,104.9,133.7z"/>
								</g>
							</g>
						</g>
					</g>
				</g>
			</g>
		</g>
	</g>
</g>
</svg>
