<?xml version="1.0" encoding="utf-8"?>
<!-- Generator: Adobe Illustrator 25.4.8, SVG Export Plug-In . SVG Version: 6.00 Build 0)  -->
<svg version="1.1" id="Layer_1" xmlns="http://www.w3.org/2000/svg" xmlns:xlink="http://www.w3.org/1999/xlink" x="0px" y="0px"
	 viewBox="0 0 166.6 166.6" style="enable-background:new 0 0 166.6 166.6;" xml:space="preserve">
<style type="text/css">
	.st0{opacity:0.18;}
	.st1{fill:url(#SVGID_1_);}
	.st2{clip-path:url(#SVGID_00000056426898103978708750000005247224861327237553_);}
	.st3{clip-path:url(#SVGID_00000160168892342977139690000006799316200311356591_);}
	.st4{fill:url(#SVGID_00000012456837342774236810000004145576382409829046_);}
	.st5{fill:#4A407F;}
	.st6{opacity:0.3;}
	.st7{fill:#FDA687;}
	.st8{opacity:0.1;}
	.st9{opacity:0.7;}
	.st10{opacity:0.2;}
	.st11{opacity:0.3;fill:#FFEEE0;}
	.st12{fill:#F67F79;}
	.st13{fill:#D35A5A;}
	.st14{opacity:0.2;fill:#FFFFFF;}
	.st15{fill:#4AF5FF;}
	.st16{clip-path:url(#SVGID_00000157287472056474717010000014303085465333407878_);}
	.st17{fill:#888888;}
	.st18{fill:#444444;}
	.st19{fill:#595959;}
	.st20{fill:#FFDF47;}
	.st21{clip-path:url(#SVGID_00000059995731096359386410000009817755994831902094_);}
	.st22{fill:#D9A197;}
	.st23{fill:#A85D45;}
	.st24{fill:#B16D57;}
	.st25{fill:#9C4529;}
	.st26{fill:#FFF51F;}
	.st27{clip-path:url(#SVGID_00000020382490532855198790000000342331915080885405_);}
	.st28{fill:url(#SVGID_00000171709015695549205780000016516319942048855429_);}
	.st29{fill:#F08262;}
	.st30{fill:#FFF500;}
	.st31{clip-path:url(#SVGID_00000010302372794498585380000002855423005449475481_);}
	.st32{fill:url(#SVGID_00000115496183670437986900000001481614049437182133_);}
	.st33{fill:#4A00FF;}
	.st34{clip-path:url(#SVGID_00000076568162370565405190000010275095507775797169_);}
	.st35{fill:#FFD5FF;}
	.st36{fill:#FC8C9D;}
	.st37{fill:#FDA6B3;}
</style>
<g class="st0">
	<linearGradient id="SVGID_1_" gradientUnits="userSpaceOnUse" x1="922.5443" y1="434.1245" x2="1232.7933" y2="434.1245">
		<stop  offset="0" style="stop-color:#5F74B1"/>
		<stop  offset="0.2466" style="stop-color:#7A90D2"/>
		<stop  offset="0.4903" style="stop-color:#8FA6EB"/>
		<stop  offset="0.7125" style="stop-color:#9CB3FA"/>
		<stop  offset="0.8936" style="stop-color:#A0B7FF"/>
	</linearGradient>
	<circle class="st1" cx="1077.7" cy="434.1" r="155.1"/>
</g>
<g>
	<defs>
		<circle id="SVGID_00000171696121019047476300000009420292691339159230_" cx="83.3" cy="83.3" r="83.3"/>
	</defs>
	<clipPath id="SVGID_00000030474894828465451120000004148760782196948128_">
		<use xlink:href="#SVGID_00000171696121019047476300000009420292691339159230_"  style="overflow:visible;"/>
	</clipPath>
	<g style="clip-path:url(#SVGID_00000030474894828465451120000004148760782196948128_);">
		<defs>
			<rect id="SVGID_00000064335899118943815280000003922933484549774983_" x="-2.1" y="-4.6" width="57.3" height="90.7"/>
		</defs>
		<clipPath id="SVGID_00000092433638008683801090000012711985974719520702_">
			<use xlink:href="#SVGID_00000064335899118943815280000003922933484549774983_"  style="overflow:visible;"/>
		</clipPath>
		<g style="clip-path:url(#SVGID_00000092433638008683801090000012711985974719520702_);">
			
				<linearGradient id="SVGID_00000018948380921654695640000013571763413200436633_" gradientUnits="userSpaceOnUse" x1="-0.6805" y1="43.9756" x2="72.0724" y2="43.9756">
				<stop  offset="0" style="stop-color:#5F74B1"/>
				<stop  offset="0.2723" style="stop-color:#7A90D2"/>
				<stop  offset="0.5413" style="stop-color:#8FA6EB"/>
				<stop  offset="0.7867" style="stop-color:#9CB3FA"/>
				<stop  offset="0.9866" style="stop-color:#A0B7FF"/>
			</linearGradient>
			
				<rect x="-0.7" y="-5.6" style="fill:url(#SVGID_00000018948380921654695640000013571763413200436633_);" width="72.8" height="99.2"/>
			<g>
				<path class="st5" d="M96.4,7.6c-0.3,4-0.9,8.1-1.5,12c-0.5,3.5-0.9,7.2-2.7,10.3c-0.7,1.2-1.6,2.2-2.6,3
					c-2.9,3.1-7.3,4-11.4,3.2c-5-1-9.2-4.1-13.2-7.2c-3.8-2.9-7.9-6-12.8-6.7c-4.9-0.7-9.5,1.6-13.5,4.1c-4.2,2.5-8.4,5.3-13.4,6.1
					C22.8,33,20.3,32.9,18,32c-2-0.8-3.8-2.1-5.3-3.7C9.7,24.9,7.7,20.4,6.6,16C5.4,11.2,5.2,6.2,6,1.4c0.4-2.5,1.1-4.8,2-7.1
					c0.9-2.4,0.5-12.2,0.9-14.6c2.7-15.1,18.1-18.6,23-20c4.9-1.3,9.5-3.4,14.5-4.6c2.4-0.6,4.9-0.9,7.4-0.7
					c2.5,0.2,4.9,0.8,7.2,1.7c2.4,0.9,4.6,2.1,6.8,3.3c2.1,1.2,4.3,2.4,6.4,3.6c4.2,2.5,8.2,5.2,11.6,8.6c4.2,4.4,7,9.8,8.6,15.5
					C96.7-6.3,97,0.8,96.4,7.6z"/>
				<path class="st6" d="M63.8-23.5c1.7-1.4,4.2-3.3,5.8-4.8c1.6-1.5,3.8-3.8,5.3-5.4C73-28.8,68.7-24.9,63.8-23.5L63.8-23.5z"/>
				<path class="st6" d="M65.8-23.4c5.1-2.7,9.7-6.6,14.7-9.4c0,0-0.6,1.6-0.6,1.6c-1.5,4.1-4.8,7.6-8.9,9.4c0,0-0.3-1.1-0.3-1.1
					c2.4-0.2,4.8-0.6,7.2-1.2c2.3-0.7,4.9-1,6.6-2.9c-0.6,1.1-1.7,1.8-2.9,2.4c-4.5,2.1-9.6,2.9-14.5,3.5c0,0,3.4-1.6,3.4-1.6
					c3.7-1.8,6.7-4.9,8.3-8.7c0,0,0.8,0.7,0.8,0.7C75.1-28.5,70.8-25.2,65.8-23.4L65.8-23.4z"/>
				<path class="st6" d="M42.3-22.8c-7-2.1-13.1-7-18-12.3c0,0,1.1-0.4,1.1-0.4c0.3,4.4,2.6,8.7,6.2,11.3c0,0,1.5,1.1,1.5,1.1
					l-1.9,0c-6-0.1-12.1-2.9-15.9-7.5c4.3,4,10,6.4,15.9,6.3c0,0-0.3,1.1-0.3,1.1c-3-2.1-5.2-5.2-6.2-8.7c-0.5-1.7-0.6-3.6-0.6-5.3
					c2.7,3.2,5.7,6.2,9,8.8C35.9-26.2,39-24.1,42.3-22.8L42.3-22.8z"/>
				<path class="st6" d="M14.7-27.3c3.7,2.5,7.7,4.2,12.1,5C22.3-21.2,17.1-23.4,14.7-27.3L14.7-27.3z"/>
				<path class="st6" d="M12.5-22.4c4.1,1.1,8.1,1.4,12.3,1C21-19.2,15.8-19.6,12.5-22.4L12.5-22.4z"/>
			</g>
			<g>
				<path class="st7" d="M94.5,28.2c0,0.9-0.1,1.8-0.3,2.7c-0.2,0.9-0.5,1.7-0.8,2.6c-1.2,3.3-2.6,6.5-3.9,9.7
					c-0.2,0.5-0.4,1.1-0.8,1.6c-1,1.7-3,2.8-5,2.7c-0.1,0-0.1,0-0.2,0h0c-0.5,2.4-0.9,4.8-1.4,7.2c-0.8,4.3-1.8,8.9-4.1,12.6
					c-0.4,0.6-0.9,1.3-1.4,1.9c-1.3,1.5-2.8,2.7-4.4,3.8c-0.1,0-0.1,0.1-0.2,0.1c0,0,0,0,0,0c-1,0.7-2,1.3-3.1,2
					c-2.1,1.3-4.1,2.5-6.2,3.8c-3.1,1.9-6.5,3.9-10.1,4.2l0,0.1c-4.4,0.6-8.6-1.8-12.4-4.1c-2.1-1.3-4.1-2.5-6.2-3.8
					c-1-0.6-2.1-1.3-3.1-2c0,0,0,0,0,0c-1.7-1.1-3.3-2.4-4.6-3.9c-0.5-0.6-0.9-1.2-1.3-1.8c0,0,0,0,0,0v0c-2.3-3.7-3.2-8.2-4.1-12.6
					c-0.5-2.4-0.9-4.8-1.4-7.2h0c-0.1,0-0.1,0-0.2,0c-2,0-3.9-1.1-5-2.7c-0.3-0.5-0.5-1-0.8-1.6c-1.3-3.2-2.7-6.4-3.9-9.7
					c-0.3-0.8-0.6-1.7-0.8-2.6c-0.2-0.9-0.3-1.8-0.3-2.7c0-0.9,0.1-1.7,0.2-2.5c0.2-1.3,0.7-2.6,1.7-3.5c0.9-0.9,2.2-1.3,3.3-1
					c2.4-4.6,2-10,2.1-15.2c0.2-8,1.8-16.4,7.2-22.4c1.6-1.8,3.6-3.4,5.9-4.3c3.5-1.4,7.5-1.1,11.2-0.6c3.8,0.5,18.9,0.3,22.6-0.1
					c3.8-0.5,7.7-0.8,11.2,0.6c2.3,0.9,4.2,2.5,5.9,4.3c5.3,6,7,14.4,7.2,22.4c0.1,5.2-0.3,10.6,2.1,15.2c1.2-0.3,2.5,0.1,3.3,1
					c0.9,0.9,1.4,2.2,1.7,3.5C94.4,26.5,94.5,27.4,94.5,28.2z"/>
				<path class="st6" d="M19.6,47.6c-1.6-1.4-1.8-3.3-1.8-3.3c-1.7,0.6-4.9-0.9-4.7-5.9c0.2-5-0.1-7.1-1.4-8.2c-1.3-1-1.5,1-1.5,1
					c-1.5-5.3-0.2-6.6-0.2-6.6c2.1-1.6,5.6,9.4,4.6,12.8c-1,3.5,0.7,6.1,2.2,5.4c0.9-0.4,0.3-6.4-0.3-11.6c1,6,2.4,13.2,2.8,15.5
					l0,0.2l0,0.2l0,0.2l0,0.1L19.6,47.6z"/>
				<path class="st8" d="M31,73.2C31,73.2,31,73.2,31,73.2c-1.7-1.1-3.3-2.4-4.6-3.9c-0.5-0.6-0.9-1.2-1.3-1.8c0,0,0,0,0,0v0
					c-2.3-3.7-3.2-8.2-4.1-12.6c-0.5-2.4-0.9-4.8-1.4-7.2h0c-0.1,0-0.1,0-0.2,0l-2.8-15c0-0.3-0.1-0.6-0.1-0.9
					c0.4,0.5,2.8,3.2,6.4,5.7c4,2.7,7.9,7.2,5.7,17.2C26.5,64.6,31,73.2,31,73.2z"/>
				<path class="st6" d="M34.9,62.6c0,0-1.8-2.5-1.1-6.4c0.7-3.9,5.5-7.4,5.5-7.4S33.6,54.3,34.9,62.6z"/>
				<path class="st9" d="M45.3,45.7c-2.1,0.7-4-2.2-2.5-3.9C42.7,43.6,43.6,45,45.3,45.7z"/>
				<path class="st6" d="M34.5,0c-2.6,0.8-5.4,0.8-8,0C29.1-0.4,31.8-0.4,34.5,0z"/>
				<path class="st6" d="M25.8-9.6c8.7,1.3,17.2-4.1,25.9-2C43-12.5,34.5-7.1,25.8-9.6z"/>
				<path class="st6" d="M51.3-1.7c-1.8,0-4.4,0-6.2,0.1c-1.8,0.1-4.4,0.5-6.2,0.7C42.7-2.7,47.3-3,51.3-1.7z"/>
				<path class="st6" d="M92.8,31.1c0,0-0.1-2-1.5-1c-1.3,1-1.6,3.2-1.4,8.2c0.2,5-3,6.5-4.7,5.9c0,0-0.2,1.8-1.8,3.3l0-0.1l0-0.1
					l0-0.2l0-0.2c0.4-2.1,1.8-9.5,2.9-15.7c-0.6,5.2-1.2,11.2-0.3,11.6c1.5,0.7,3.2-1.9,2.2-5.4c-1-3.5,2.5-14.5,4.6-12.8
					C93,24.5,94.3,25.8,92.8,31.1z"/>
				<path class="st8" d="M86.6,31.6c0,0.3-0.1,0.6-0.1,0.9l-2.8,15c-0.1,0-0.1,0-0.2,0h0c-0.5,2.4-0.9,4.8-1.4,7.2
					c-0.8,4.3-1.8,8.9-4.1,12.6c-0.4,0.6-0.9,1.3-1.4,1.9c-1.3,1.5-2.8,2.7-4.4,3.8c-0.1,0-0.1,0.1-0.2,0.1c0,0,0,0,0,0
					c0.1-0.2,4.6-8.7,2.4-18.6c-2.2-10,1.8-14.5,5.7-17.2C83.8,34.8,86.2,32.1,86.6,31.6z"/>
				<path class="st6" d="M78.1,20.7c-9.4,7.9-17.9,2.4-17.9,2.4c3.8-7.1,14-5.5,14-5.5c-1.5-1.5-4.9-2.1-8.2-1.5
					c-3.1,0.6-5.2,3.6-5.4,3.9c0.2-0.4,2.9-6,9.2-6C76.3,14.1,78.1,20.7,78.1,20.7z"/>
				<path class="st9" d="M58.9,44.2c-0.2,0.1-0.4,0-0.5,0c-0.7-0.2-1.4-0.3-2.1-0.3c0,0,0,0,0,0c-0.9,0.6-1.8,1.5-2.9,1.7
					c0,0,0,0-0.1,0c-0.3,0.1-0.6,0.1-0.8,0.2c-0.7,0-1.4,0.1-2.1-0.1c-0.2,0-0.4-0.1-0.5-0.2c-0.4-0.1-0.8-0.3-1.2-0.6
					c-0.6-0.4-1-0.8-1.5-1.1c0,0,0,0,0,0c-0.7,0-1.5,0.1-2.2,0.3c-0.1,0-0.3,0.1-0.5,0c-0.7-0.3-0.3-1,0.2-1.3
					c1.6-0.9,3.1,0.6,4.3,1.4c0.5,0.3,1,0.5,1.5,0.6c0.7,0.1,1.5,0.1,2.2,0c0.1,0,0.2-0.1,0.3-0.1c1.9-0.4,3.5-3,5.6-1.9
					C59.1,43.2,59.6,43.9,58.9,44.2z"/>
				<path class="st9" d="M57.8,45.5c1.6-0.7,2.6-2.1,2.5-3.9C61.8,43.3,60,46.2,57.8,45.5z"/>
				<path class="st10" d="M50.6,45.9c0.2,1.1,0.2,2.1,0.2,3.2c-0.2,1.5-0.1,2.8,1.5,3.1c-0.8,0.9-2.4,0.3-2.8-1
					c-0.3-0.8-0.2-1.6,0-2.4C49.8,47.8,50.1,46.8,50.6,45.9L50.6,45.9z"/>
				<path class="st10" d="M61.2,71.7C61,71.5,58.9,68,51.6,68c-7.4,0-9.5,3.5-9.6,3.7c0.4-1.3,1.4-2.9,2.9-4c1.5-1.2,2-1.5,0.3-3.1
					c-1-1-1.4-2.1-1.6-2.8c1.8,2.1,3.4,2.7,8,2.7s6.2-0.6,8-2.7c-0.1,0.7-0.5,1.9-1.6,2.8c-1.7,1.6-1.1,1.9,0.3,3.1
					C59.8,68.8,60.7,70.3,61.2,71.7z"/>
				<path class="st11" d="M51.7,43.5c6.6,0,2.1-14.5,1.5-19.1c-0.6-4.6-1.6-4.7-1.6-4.7s-1,0.1-1.6,4.7s-5.1,19.1,1.5,19.1H51.7z"/>
				<path class="st6" d="M42.9,23.3c-0.6,3.6-15.7,11.4-10.2,5.8c-2.2-0.1-5.7,0.1-7-2c-0.1-1.3,1.7-1.4,2.6-1.5
					c3.1-0.1,6.4,0.3,9.3-0.5c-2.2,0.3-4.9,0.1-7.8-1.1c-0.4-0.1-2-1.1-2.4-1.2c-3.6-0.8-4.8-0.3-5.9,0.3c-0.4,0.2-0.7,0.7-1.2,0.6
					c-0.5-0.1-0.5-0.6-0.2-0.9c0.5-0.6,1.2-1.1,1.9-1.5c-0.9-0.3-1.7-0.7-2.4-1.4c-0.3-0.3-0.8-0.6-0.6-1.1c0.2-0.5,0.7-0.3,1.1-0.2
					c0.6,0.2,1.1,0.4,1.7,0.7c0.4,0.2,0.8,0.3,1.3,0.5c0.1,0,0.1,0,0.2,0.1c0.1,0,0.1,0,0.2,0.1c0.8,0.2,1.6-0.1,2.2-0.6
					c1-2,3.3-5,7.6-5c6.3,0,9,5.7,9.2,6c-0.2-0.2-2.2-3.2-5.4-3.9c-3.3-0.6-6.7,0-8.2,1.5C28.9,17.8,39,16.1,42.9,23.3L42.9,23.3z"
					/>
				<g>
					<path class="st12" d="M62.9,57.4c0,0-1.6,2.2-3.4,4.3c0,0,0,0,0,0c-1.8,2.1-3.4,2.7-8,2.7s-6.2-0.6-8-2.7c0,0,0,0,0,0
						c-1.8-2.1-3.4-4.3-3.4-4.3c2.5-0.1,6.2-3.3,7.8-3.4c0.7,0,1.7,0.3,2.5,0.5c0.7,0.2,1.4,0.2,2.1,0c0.8-0.3,1.9-0.5,2.5-0.5
						C56.7,54.1,60.5,57.3,62.9,57.4z"/>
					<path class="st13" d="M64.5,56.7c-1.5,1.8-4.2,2.1-6.4,1.8c-1.1-0.1-2.2-0.2-3.1,0.1c-1.1,0.4-2.2,0.7-3.4,0.7
						c-1.2,0-2.3-0.4-3.4-0.7c-2.1-0.5-4.4,0.4-6.6-0.2c-1.1-0.3-2.2-0.9-2.9-1.7c0.9,0.6,2,1,3,1.1c2.3,0.2,4.4-0.9,6.7-0.4
						c1,0.3,2,0.7,3.1,0.6c1.1,0.1,2.1-0.3,3.1-0.6c2.4-0.5,4.5,0.6,6.7,0.4C62.5,57.7,63.6,57.3,64.5,56.7L64.5,56.7z"/>
					<path class="st14" d="M53.2,63.6c-2.8,0.4-8.4-0.5-6.5-3c0.1-0.1,0.2-0.2,0.3-0.3c0.4-0.3,1-0.4,1.5-0.3c4,1.1,6-1,7.9,0.2
						C57.8,61.6,54.7,63.5,53.2,63.6z"/>
				</g>
				<path class="st8" d="M43,35c-0.4,1-1,1.9-1.6,2.7c-1.3,1.7-3,3-4.9,3.8c-2.1,0.8-4.4,0.9-6.5,0.1c-2-0.7-3.6-2.3-4.8-4
					c-0.6-0.9-1.2-1.9-1.2-3c0.1-1.1,0.9-1.8,1.9-2c0.6-0.1,1.3,0,1.9,0c0.7,0.1,1.3,0.1,2,0.2c1,0.1,2,0.1,3,0.1
					c1.7-0.1,3.5-0.5,5.1-1.1c0.6-0.2,1.2-0.4,1.7-0.7c0.5-0.2,1.1-0.5,1.6-0.6c1-0.2,1.9,0.4,2.3,1.3C43.8,32.9,43.4,34,43,35z"/>
			</g>
			<g>
				<g>
					<path class="st15" d="M27.9,29.5c2.3,0.4,4.5,0.4,6.7-0.2c2.4-0.6,4.7-1.6,7.1-2.1c1.2-0.3,2.8-0.5,3.8,0.5
						c1.1,1.1,1.2,3,1.1,4.4c-0.2,3-1.9,5.6-3.8,7.9c-1.7,2-3.5,3.9-5,6.1c-1.3,2-1.9,4.6-3.6,6.4c-1,1-2.4,1.5-3.8,1.8
						c-1.8,0.4-3.5,0.3-4.9-0.9c-2.2-1.8-2.8-4.9-3.3-7.5c-0.7-3.3-1.2-6.8-0.8-10.1c0.2-1.7,0.7-3.6,2-4.9
						C24.6,29.8,26.3,29.3,27.9,29.5c0.4,0.1,0.6-0.5,0.2-0.6c-2.5-0.3-4.9,0.8-6.1,3.1c-1.5,2.9-1.3,6.5-1,9.6
						c0.6,4.8,1.7,14.3,8.5,13.6c2.9-0.3,5.2-1.5,6.6-4c0.7-1.2,1.2-2.5,1.8-3.7c0.9-1.6,2-3,3.2-4.3c2-2.4,4.2-4.7,5.4-7.6
						c0.9-2.3,1.4-5.8-0.3-7.9c-1.9-2.3-5.9-0.6-8.1,0.1c-1.5,0.5-2.9,1-4.4,1.3c-1.9,0.4-3.7,0.4-5.6,0
						C27.7,28.8,27.5,29.4,27.9,29.5L27.9,29.5z"/>
				</g>
			</g>
			<g>
				<path class="st15" d="M34.9,34.7c-0.8-1.2,1.9-2.5,2.3-0.9C37.6,35.1,35.7,35.4,34.9,34.7z"/>
				<path class="st15" d="M26.5,36.4c0.2,0.7-0.9,1.1-1.2,0.5C24.8,35.9,26.2,35.4,26.5,36.4z"/>
				<path class="st15" d="M31.4,45.5c0,1.1-1.6,1.2-1.7,0.1C29.6,44.5,31.4,44.3,31.4,45.5z"/>
				<path class="st15" d="M33.6,45.2c0.3,0.9-1.2,1.4-1.4,0.4C32,44.7,33.4,44.3,33.6,45.2z"/>
				<path class="st15" d="M30.5,34.9c-0.3-0.6,0.7-1,0.9-0.4C31.6,35.1,30.7,35.5,30.5,34.9z"/>
				<path class="st15" d="M29.9,48.4c-0.6,0-0.7-1,0-1C30.5,47.5,30.5,48.4,29.9,48.4z"/>
				<path class="st15" d="M31.4,36.7c0.7,0.1,0.7,1.1,0,1.3c-0.6,0.2-1-0.6-0.6-1.1c0,0,0,0,0,0C31,36.8,31.2,36.7,31.4,36.7z"/>
				<path class="st15" d="M34.4,39.1c0.5,1.7-2.7,2.9-3.1,1.1C31.7,39.6,34,37.7,34.4,39.1z"/>
				<path class="st15" d="M35.8,36.7c-0.2,1-1.7,0.4-1.3-0.5C34.8,35.5,36,35.9,35.8,36.7z"/>
				<path class="st15" d="M37.1,40.6c0.2,0.7-0.8,0.8-1,0.2C35.9,40.1,36.9,40,37.1,40.6z"/>
				<path class="st15" d="M38.6,37.8c0.6,0,0.7,1,0,1C38,38.8,37.9,37.8,38.6,37.8"/>
				<path class="st15" d="M32.4,47c0.4,0.6-0.5,1.3-1,0.8c-0.5-0.3-0.2-1.3,0.4-1.1C32.1,46.7,32.3,46.8,32.4,47z"/>
				<path class="st15" d="M29,35.3c0.3,0.6-0.3,1.3-0.9,1C26.8,35.8,28.3,34.1,29,35.3z"/>
				<path class="st15" d="M39.9,35.3c-0.9,0-1-1.4,0-1.4C40.8,33.9,40.8,35.3,39.9,35.3z"/>
				<path class="st15" d="M41.2,36.9c-0.2,0.7-1.4,0.7-1.6,0C39.4,35.5,41.7,35.5,41.2,36.9z"/>
				<path class="st15" d="M36.9,38.5c-0.6,0-0.7-1,0-1C37.4,37.5,37.5,38.5,36.9,38.5z"/>
				<path class="st15" d="M28.9,37.8c0.7,0.6-0.3,1.6-0.9,1C27.3,38.3,28.2,37.3,28.9,37.8z"/>
			</g>
		</g>
	</g>
	<g style="clip-path:url(#SVGID_00000030474894828465451120000004148760782196948128_);">
		<defs>
			<rect id="SVGID_00000155827534468668512910000011885949365823884186_" x="53.6" y="-4.6" width="57.3" height="90.7"/>
		</defs>
		<clipPath id="SVGID_00000014615533206678640670000014101731007557233077_">
			<use xlink:href="#SVGID_00000155827534468668512910000011885949365823884186_"  style="overflow:visible;"/>
		</clipPath>
		<g style="clip-path:url(#SVGID_00000014615533206678640670000014101731007557233077_);">
			<rect x="55" y="-5.6" width="72.8" height="99.2"/>
			<g>
				<path class="st17" d="M152.1,7.6c-0.3,4-0.9,8.1-1.5,12c-0.5,3.5-0.9,7.2-2.7,10.3c-0.7,1.2-1.6,2.2-2.6,3
					c-2.9,3.1-7.3,4-11.4,3.2c-5-1-9.2-4.1-13.2-7.2c-3.8-2.9-7.9-6-12.8-6.7c-4.9-0.7-9.5,1.6-13.5,4.1c-4.2,2.5-8.4,5.3-13.4,6.1
					C78.5,33,76,32.9,73.7,32c-2-0.8-3.8-2.1-5.3-3.7c-3.1-3.4-5.1-7.9-6.2-12.3c-1.2-4.8-1.4-9.7-0.6-14.6c0.4-2.5,1.1-4.8,2-7.1
					c0.9-2.4,0.5-12.2,0.9-14.6c2.7-15.1,18.1-18.6,23-20c4.9-1.3,9.5-3.4,14.5-4.6c2.4-0.6,4.9-0.9,7.4-0.7
					c2.5,0.2,4.9,0.8,7.2,1.7c2.4,0.9,4.6,2.1,6.8,3.3c2.1,1.2,4.3,2.4,6.4,3.6c4.2,2.5,8.2,5.2,11.6,8.6c4.2,4.4,7,9.8,8.6,15.5
					C152.4-6.3,152.6,0.8,152.1,7.6z"/>
				<path class="st6" d="M119.5-23.5c1.7-1.4,4.2-3.3,5.8-4.8c1.6-1.5,3.8-3.8,5.3-5.4C128.7-28.8,124.4-24.9,119.5-23.5L119.5-23.5
					z"/>
				<path class="st6" d="M121.5-23.4c5.1-2.7,9.7-6.6,14.7-9.4c0,0-0.6,1.6-0.6,1.6c-1.5,4.1-4.8,7.6-8.9,9.4c0,0-0.3-1.1-0.3-1.1
					c2.4-0.2,4.8-0.6,7.2-1.2c2.3-0.7,4.9-1,6.6-2.9c-0.6,1.1-1.7,1.8-2.9,2.4c-4.5,2.1-9.6,2.9-14.5,3.5c0,0,3.4-1.6,3.4-1.6
					c3.7-1.8,6.7-4.9,8.3-8.7c0,0,0.8,0.7,0.8,0.7C130.8-28.5,126.5-25.2,121.5-23.4L121.5-23.4z"/>
				<path class="st6" d="M98-22.8c-7-2.1-13.1-7-18-12.3c0,0,1.1-0.4,1.1-0.4c0.3,4.4,2.6,8.7,6.2,11.3c0,0,1.5,1.1,1.5,1.1l-1.9,0
					c-6-0.1-12.1-2.9-15.9-7.5c4.3,4,10,6.4,15.9,6.3c0,0-0.3,1.1-0.3,1.1c-3-2.1-5.2-5.2-6.2-8.7c-0.5-1.7-0.6-3.6-0.6-5.3
					c2.7,3.2,5.7,6.2,9,8.8C91.6-26.2,94.6-24.1,98-22.8L98-22.8z"/>
				<path class="st6" d="M70.3-27.3c3.7,2.5,7.7,4.2,12.1,5C78-21.2,72.8-23.4,70.3-27.3L70.3-27.3z"/>
				<path class="st6" d="M68.1-22.4c4.1,1.1,8.1,1.4,12.3,1C76.7-19.2,71.4-19.6,68.1-22.4L68.1-22.4z"/>
			</g>
			<g>
				<path class="st18" d="M150.2,28.2c0,0.9-0.1,1.8-0.3,2.7c-0.2,0.9-0.5,1.7-0.8,2.6c-1.2,3.3-2.6,6.5-3.9,9.7
					c-0.2,0.5-0.4,1.1-0.8,1.6c-1,1.7-3,2.8-5,2.7c-0.1,0-0.1,0-0.2,0h0c-0.5,2.4-0.9,4.8-1.4,7.2c-0.8,4.3-1.8,8.9-4.1,12.6
					c-0.4,0.6-0.9,1.3-1.4,1.9c-1.3,1.5-2.8,2.7-4.4,3.8c-0.1,0-0.1,0.1-0.2,0.1c0,0,0,0,0,0c-1,0.7-2,1.3-3.1,2
					c-2.1,1.3-4.1,2.5-6.2,3.8c-3.1,1.9-6.5,3.9-10.1,4.2l0,0.1C104,83.7,99.8,81.3,96,79c-2.1-1.3-4.1-2.5-6.2-3.8
					c-1-0.6-2.1-1.3-3.1-2c0,0,0,0,0,0c-1.7-1.1-3.3-2.4-4.6-3.9c-0.5-0.6-0.9-1.2-1.3-1.8c0,0,0,0,0,0v0c-2.3-3.7-3.2-8.2-4.1-12.6
					c-0.5-2.4-0.9-4.8-1.4-7.2h0c-0.1,0-0.1,0-0.2,0c-2,0-3.9-1.1-5-2.7c-0.3-0.5-0.5-1-0.8-1.6c-1.3-3.2-2.7-6.4-3.9-9.7
					c-0.3-0.8-0.6-1.7-0.8-2.6c-0.2-0.9-0.3-1.8-0.3-2.7c0-0.9,0.1-1.7,0.2-2.5c0.2-1.3,0.7-2.6,1.7-3.5c0.9-0.9,2.2-1.3,3.3-1
					c2.4-4.6,2-10,2.1-15.2c0.2-8,1.8-16.4,7.2-22.4c1.6-1.8,3.6-3.4,5.9-4.3c3.5-1.4,7.5-1.1,11.2-0.6c3.8,0.5,18.9,0.3,22.6-0.1
					c3.8-0.5,7.7-0.8,11.2,0.6c2.3,0.9,4.2,2.5,5.9,4.3c5.3,6,7,14.4,7.2,22.4c0.1,5.2-0.3,10.6,2.1,15.2c1.2-0.3,2.5,0.1,3.3,1
					c0.9,0.9,1.4,2.2,1.7,3.5C150.1,26.5,150.2,27.4,150.2,28.2z"/>
				<path class="st6" d="M75.3,47.6c-1.6-1.4-1.8-3.3-1.8-3.3c-1.7,0.6-4.9-0.9-4.7-5.9c0.2-5-0.1-7.1-1.4-8.2c-1.3-1-1.5,1-1.5,1
					c-1.5-5.3-0.2-6.6-0.2-6.6c2.1-1.6,5.6,9.4,4.6,12.8c-1,3.5,0.7,6.1,2.2,5.4c0.9-0.4,0.3-6.4-0.3-11.6c1,6,2.4,13.2,2.8,15.5
					l0,0.2l0,0.2l0,0.2l0,0.1L75.3,47.6z"/>
				<path class="st8" d="M86.7,73.2C86.7,73.2,86.7,73.2,86.7,73.2c-1.7-1.1-3.3-2.4-4.6-3.9c-0.5-0.6-0.9-1.2-1.3-1.8c0,0,0,0,0,0
					v0c-2.3-3.7-3.2-8.2-4.1-12.6c-0.5-2.4-0.9-4.8-1.4-7.2h0c-0.1,0-0.1,0-0.2,0l-2.8-15c0-0.3-0.1-0.6-0.1-0.9
					c0.4,0.5,2.8,3.2,6.4,5.7c4,2.7,7.9,7.2,5.7,17.2C82.1,64.6,86.7,73.2,86.7,73.2z"/>
				<path class="st6" d="M90.6,62.6c0,0-1.8-2.5-1.1-6.4c0.7-3.9,5.5-7.4,5.5-7.4S89.3,54.3,90.6,62.6z"/>
				<path class="st9" d="M100.9,45.7c-2.1,0.7-4-2.2-2.5-3.9C98.4,43.6,99.3,45,100.9,45.7z"/>
				<path class="st6" d="M90.1,0c-2.6,0.8-5.4,0.8-8,0C84.8-0.4,87.4-0.4,90.1,0z"/>
				<path class="st6" d="M81.5-9.6c8.7,1.3,17.2-4.1,25.9-2C98.6-12.5,90.1-7.1,81.5-9.6z"/>
				<path class="st6" d="M106.9-1.7c-1.8,0-4.4,0-6.2,0.1c-1.8,0.1-4.4,0.5-6.2,0.7C98.4-2.7,102.9-3,106.9-1.7z"/>
				<path class="st6" d="M148.5,31.1c0,0-0.1-2-1.5-1c-1.3,1-1.6,3.2-1.4,8.2c0.2,5-3,6.5-4.7,5.9c0,0-0.2,1.8-1.8,3.3l0-0.1l0-0.1
					l0-0.2l0-0.2c0.4-2.1,1.8-9.5,2.9-15.7c-0.6,5.2-1.2,11.2-0.3,11.6c1.5,0.7,3.2-1.9,2.2-5.4c-1-3.5,2.5-14.5,4.6-12.8
					C148.7,24.5,150,25.8,148.5,31.1z"/>
				<path class="st8" d="M142.3,31.6c0,0.3-0.1,0.6-0.1,0.9l-2.8,15c-0.1,0-0.1,0-0.2,0h0c-0.5,2.4-0.9,4.8-1.4,7.2
					c-0.8,4.3-1.8,8.9-4.1,12.6c-0.4,0.6-0.9,1.3-1.4,1.9c-1.3,1.5-2.8,2.7-4.4,3.8c-0.1,0-0.1,0.1-0.2,0.1c0,0,0,0,0,0
					c0.1-0.2,4.6-8.7,2.4-18.6c-2.2-10,1.8-14.5,5.7-17.2C139.5,34.8,141.9,32.1,142.3,31.6z"/>
				<path class="st6" d="M133.8,20.7c-9.4,7.9-17.9,2.4-17.9,2.4c3.8-7.1,14-5.5,14-5.5c-1.5-1.5-4.9-2.1-8.2-1.5
					c-3.1,0.6-5.2,3.6-5.4,3.9c0.2-0.4,2.9-6,9.2-6C132,14.1,133.8,20.7,133.8,20.7z"/>
				<path class="st9" d="M114.6,44.2c-0.2,0.1-0.4,0-0.5,0c-0.7-0.2-1.4-0.3-2.1-0.3c0,0,0,0,0,0c-0.9,0.6-1.8,1.5-2.9,1.7
					c0,0,0,0-0.1,0c-0.3,0.1-0.6,0.1-0.8,0.2c-0.7,0-1.4,0.1-2.1-0.1c-0.2,0-0.4-0.1-0.5-0.2c-0.4-0.1-0.8-0.3-1.2-0.6
					c-0.6-0.4-1-0.8-1.5-1.1c0,0,0,0,0,0c-0.7,0-1.5,0.1-2.2,0.3c-0.1,0-0.3,0.1-0.5,0c-0.7-0.3-0.3-1,0.2-1.3
					c1.6-0.9,3.1,0.6,4.3,1.4c0.5,0.3,1,0.5,1.5,0.6c0.7,0.1,1.5,0.1,2.2,0c0.1,0,0.2-0.1,0.3-0.1c1.9-0.4,3.5-3,5.6-1.9
					C114.8,43.2,115.3,43.9,114.6,44.2z"/>
				<path class="st9" d="M113.5,45.5c1.6-0.7,2.6-2.1,2.5-3.9C117.5,43.3,115.6,46.2,113.5,45.5z"/>
				<path class="st10" d="M106.3,45.9c0.2,1.1,0.2,2.1,0.2,3.2c-0.2,1.5-0.1,2.8,1.5,3.1c-0.8,0.9-2.4,0.3-2.8-1
					c-0.3-0.8-0.2-1.6,0-2.4C105.5,47.8,105.8,46.8,106.3,45.9L106.3,45.9z"/>
				<path class="st10" d="M116.8,71.7c-0.1-0.2-2.3-3.7-9.6-3.7c-7.4,0-9.5,3.5-9.6,3.7c0.4-1.3,1.4-2.9,2.9-4
					c1.5-1.2,2-1.5,0.3-3.1c-1-1-1.4-2.1-1.6-2.8c1.8,2.1,3.4,2.7,8,2.7s6.2-0.6,8-2.7c-0.1,0.7-0.5,1.9-1.6,2.8
					c-1.7,1.6-1.1,1.9,0.3,3.1C115.4,68.8,116.4,70.3,116.8,71.7z"/>
				<path class="st11" d="M107.4,43.5c6.6,0,2.1-14.5,1.5-19.1c-0.6-4.6-1.6-4.7-1.6-4.7s-1,0.1-1.6,4.7s-5.1,19.1,1.5,19.1H107.4z"
					/>
				<path class="st6" d="M98.6,23.3c-0.6,3.6-15.7,11.4-10.2,5.8c-2.2-0.1-5.7,0.1-7-2c-0.1-1.3,1.7-1.4,2.6-1.5
					c3.1-0.1,6.4,0.3,9.3-0.5c-2.2,0.3-4.9,0.1-7.8-1.1c-0.4-0.1-2-1.1-2.4-1.2c-3.6-0.8-4.8-0.3-5.9,0.3c-0.4,0.2-0.7,0.7-1.2,0.6
					c-0.5-0.1-0.5-0.6-0.2-0.9c0.5-0.6,1.2-1.1,1.9-1.5c-0.9-0.3-1.7-0.7-2.4-1.4c-0.3-0.3-0.8-0.6-0.6-1.1c0.2-0.5,0.7-0.3,1.1-0.2
					c0.6,0.2,1.1,0.4,1.7,0.7c0.4,0.2,0.8,0.3,1.3,0.5c0.1,0,0.1,0,0.2,0.1c0.1,0,0.1,0,0.2,0.1c0.8,0.2,1.6-0.1,2.2-0.6
					c1-2,3.3-5,7.6-5c6.3,0,9,5.7,9.2,6C98,20,95.9,17,92.8,16.4c-3.3-0.6-6.7,0-8.2,1.5C84.6,17.8,94.7,16.1,98.6,23.3L98.6,23.3z"
					/>
				<g>
					<path class="st19" d="M118.6,57.4c0,0-1.6,2.2-3.4,4.3c0,0,0,0,0,0c-1.8,2.1-3.4,2.7-8,2.7s-6.2-0.6-8-2.7c0,0,0,0,0,0
						c-1.8-2.1-3.4-4.3-3.4-4.3c2.5-0.1,6.2-3.3,7.8-3.4c0.7,0,1.7,0.3,2.5,0.5c0.7,0.2,1.4,0.2,2.1,0c0.8-0.3,1.9-0.5,2.5-0.5
						C112.3,54.1,116.1,57.3,118.6,57.4z"/>
					<path class="st14" d="M108.9,63.6c-2.8,0.4-8.4-0.5-6.5-3c0.1-0.1,0.2-0.2,0.3-0.3c0.4-0.3,1-0.4,1.5-0.3c4,1.1,6-1,7.9,0.2
						C113.5,61.6,110.4,63.5,108.9,63.6z"/>
				</g>
				<path class="st8" d="M98.6,35c-0.4,1-1,1.9-1.6,2.7c-1.3,1.7-3,3-4.9,3.8c-2.1,0.8-4.4,0.9-6.5,0.1c-2-0.7-3.6-2.3-4.8-4
					c-0.6-0.9-1.2-1.9-1.2-3c0.1-1.1,0.9-1.8,1.9-2c0.6-0.1,1.3,0,1.9,0c0.7,0.1,1.3,0.1,2,0.2c1,0.1,2,0.1,3,0.1
					c1.7-0.1,3.5-0.5,5.1-1.1c0.6-0.2,1.2-0.4,1.7-0.7c0.5-0.2,1.1-0.5,1.6-0.6c1-0.2,1.9,0.4,2.3,1.3C99.5,32.9,99.1,34,98.6,35z"
					/>
			</g>
			<g>
				<g>
					<path class="st15" d="M83.6,29.5c2.3,0.4,4.5,0.4,6.7-0.2c2.4-0.6,4.7-1.6,7.1-2.1c1.2-0.3,2.8-0.5,3.8,0.5
						c1.1,1.1,1.2,3,1.1,4.4c-0.2,3-1.9,5.6-3.8,7.9c-1.7,2-3.5,3.9-5,6.1c-1.3,2-1.9,4.6-3.6,6.4c-1,1-2.4,1.5-3.8,1.8
						c-1.8,0.4-3.5,0.3-4.9-0.9c-2.2-1.8-2.8-4.9-3.3-7.5c-0.7-3.3-1.2-6.8-0.8-10.1c0.2-1.7,0.7-3.6,2-4.9
						C80.3,29.8,82,29.3,83.6,29.5c0.4,0.1,0.6-0.5,0.2-0.6c-2.5-0.3-4.9,0.8-6.1,3.1c-1.5,2.9-1.3,6.5-1,9.6
						c0.6,4.8,1.7,14.3,8.5,13.6c2.9-0.3,5.2-1.5,6.6-4c0.7-1.2,1.2-2.5,1.8-3.7c0.9-1.6,2-3,3.2-4.3c2-2.4,4.2-4.7,5.4-7.6
						c0.9-2.3,1.4-5.8-0.3-7.9c-1.9-2.3-5.9-0.6-8.1,0.1c-1.5,0.5-2.9,1-4.4,1.3c-1.9,0.4-3.7,0.4-5.6,0
						C83.3,28.8,83.2,29.4,83.6,29.5L83.6,29.5z"/>
				</g>
			</g>
			<g>
				<path class="st20" d="M90.6,34.7c-0.8-1.2,1.9-2.5,2.3-0.9C93.3,35.1,91.4,35.4,90.6,34.7z"/>
				<path class="st20" d="M82.1,36.4c0.2,0.7-0.9,1.1-1.2,0.5C80.5,35.9,81.9,35.4,82.1,36.4z"/>
				<path class="st20" d="M87.1,45.5c0,1.1-1.6,1.2-1.7,0.1C85.3,44.5,87,44.3,87.1,45.5z"/>
				<path class="st20" d="M89.3,45.2c0.3,0.9-1.2,1.4-1.4,0.4C87.7,44.7,89,44.3,89.3,45.2z"/>
				<path class="st20" d="M86.1,34.9c-0.3-0.6,0.7-1,0.9-0.4C87.3,35.1,86.4,35.5,86.1,34.9z"/>
				<path class="st20" d="M85.5,48.4c-0.6,0-0.7-1,0-1C86.1,47.5,86.2,48.4,85.5,48.4z"/>
				<path class="st20" d="M87.1,36.7c0.7,0.1,0.7,1.1,0,1.3c-0.6,0.2-1-0.6-0.6-1.1c0,0,0,0,0,0C86.7,36.8,86.9,36.7,87.1,36.7z"/>
				<path class="st20" d="M90.1,39.1c0.5,1.7-2.7,2.9-3.1,1.1C87.4,39.6,89.7,37.7,90.1,39.1z"/>
				<path class="st20" d="M91.5,36.7c-0.2,1-1.7,0.4-1.3-0.5C90.5,35.5,91.7,35.9,91.5,36.7z"/>
				<path class="st20" d="M92.7,40.6c0.2,0.7-0.8,0.8-1,0.2C91.6,40.1,92.6,40,92.7,40.6z"/>
				<path class="st20" d="M94.2,37.8c0.6,0,0.7,1,0,1C93.7,38.8,93.6,37.8,94.2,37.8"/>
				<path class="st20" d="M88.1,47c0.4,0.6-0.5,1.3-1,0.8c-0.5-0.3-0.2-1.3,0.4-1.1C87.7,46.7,88,46.8,88.1,47z"/>
				<path class="st20" d="M84.7,35.3c0.3,0.6-0.3,1.3-0.9,1C82.5,35.8,84,34.1,84.7,35.3z"/>
				<path class="st20" d="M95.6,35.3c-0.9,0-1-1.4,0-1.4C96.4,33.9,96.5,35.3,95.6,35.3z"/>
				<path class="st20" d="M96.9,36.9c-0.2,0.7-1.4,0.7-1.6,0C95,35.5,97.3,35.5,96.9,36.9z"/>
				<path class="st20" d="M92.5,38.5c-0.6,0-0.7-1,0-1S93.2,38.5,92.5,38.5z"/>
				<path class="st20" d="M84.5,37.8c0.7,0.6-0.3,1.6-0.9,1C82.9,38.3,83.9,37.3,84.5,37.8z"/>
			</g>
		</g>
	</g>
	<g style="clip-path:url(#SVGID_00000030474894828465451120000004148760782196948128_);">
		<defs>
			<rect id="SVGID_00000178198930387332817070000016633094649273596820_" x="109.3" y="-4.6" width="57.3" height="90.7"/>
		</defs>
		<clipPath id="SVGID_00000140715227762128139790000002255018414603924362_">
			<use xlink:href="#SVGID_00000178198930387332817070000016633094649273596820_"  style="overflow:visible;"/>
		</clipPath>
		<g style="clip-path:url(#SVGID_00000140715227762128139790000002255018414603924362_);">
			<rect x="110.7" y="-5.6" class="st22" width="72.8" height="99.2"/>
			<g>
				<path class="st23" d="M207.7,7.6c-0.3,4-0.9,8.1-1.5,12c-0.5,3.5-0.9,7.2-2.7,10.3c-0.7,1.2-1.6,2.2-2.6,3
					c-2.9,3.1-7.3,4-11.4,3.2c-5-1-9.2-4.1-13.2-7.2c-3.8-2.9-7.9-6-12.8-6.7c-4.9-0.7-9.5,1.6-13.5,4.1c-4.2,2.5-8.4,5.3-13.4,6.1
					c-2.4,0.4-4.9,0.3-7.1-0.6c-2-0.8-3.8-2.1-5.3-3.7c-3.1-3.4-5.1-7.9-6.2-12.3c-1.2-4.8-1.4-9.7-0.6-14.6c0.4-2.5,1.1-4.8,2-7.1
					c0.9-2.4,0.5-12.2,0.9-14.6c2.7-15.1,18.1-18.6,23-20c4.9-1.3,9.5-3.4,14.5-4.6c2.4-0.6,4.9-0.9,7.4-0.7
					c2.5,0.2,4.9,0.8,7.2,1.7c2.4,0.9,4.6,2.1,6.8,3.3c2.1,1.2,4.3,2.4,6.4,3.6c4.2,2.5,8.2,5.2,11.6,8.6c4.2,4.4,7,9.8,8.6,15.5
					C208.1-6.3,208.3,0.8,207.7,7.6z"/>
				<path class="st6" d="M175.1-23.5c1.7-1.4,4.2-3.3,5.8-4.8c1.6-1.5,3.8-3.8,5.3-5.4C184.4-28.8,180.1-24.9,175.1-23.5L175.1-23.5
					z"/>
				<path class="st6" d="M177.2-23.4c5.1-2.7,9.7-6.6,14.7-9.4c0,0-0.6,1.6-0.6,1.6c-1.5,4.1-4.8,7.6-8.9,9.4c0,0-0.3-1.1-0.3-1.1
					c2.4-0.2,4.8-0.6,7.2-1.2c2.3-0.7,4.9-1,6.6-2.9c-0.6,1.1-1.7,1.8-2.9,2.4c-4.5,2.1-9.6,2.9-14.5,3.5c0,0,3.4-1.6,3.4-1.6
					c3.7-1.8,6.7-4.9,8.3-8.7c0,0,0.8,0.7,0.8,0.7C186.4-28.5,182.2-25.2,177.2-23.4L177.2-23.4z"/>
				<path class="st6" d="M153.7-22.8c-7-2.1-13.1-7-18-12.3c0,0,1.1-0.4,1.1-0.4c0.3,4.4,2.6,8.7,6.2,11.3c0,0,1.5,1.1,1.5,1.1
					l-1.9,0c-6-0.1-12.1-2.9-15.9-7.5c4.3,4,10,6.4,15.9,6.3c0,0-0.3,1.1-0.3,1.1c-3-2.1-5.2-5.2-6.2-8.7c-0.5-1.7-0.6-3.6-0.6-5.3
					c2.7,3.2,5.7,6.2,9,8.8C147.3-26.2,150.3-24.1,153.7-22.8L153.7-22.8z"/>
				<path class="st6" d="M126-27.3c3.7,2.5,7.7,4.2,12.1,5C133.6-21.2,128.4-23.4,126-27.3L126-27.3z"/>
				<path class="st6" d="M123.8-22.4c4.1,1.1,8.1,1.4,12.3,1C132.4-19.2,127.1-19.6,123.8-22.4L123.8-22.4z"/>
			</g>
			<g>
				<path class="st24" d="M205.8,28.2c0,0.9-0.1,1.8-0.3,2.7c-0.2,0.9-0.5,1.7-0.8,2.6c-1.2,3.3-2.6,6.5-3.9,9.7
					c-0.2,0.5-0.4,1.1-0.8,1.6c-1,1.7-3,2.8-5,2.7c-0.1,0-0.1,0-0.2,0h0c-0.5,2.4-0.9,4.8-1.4,7.2c-0.8,4.3-1.8,8.9-4.1,12.6
					c-0.4,0.6-0.9,1.3-1.4,1.9c-1.3,1.5-2.8,2.7-4.4,3.8c-0.1,0-0.1,0.1-0.2,0.1c0,0,0,0,0,0c-1,0.7-2,1.3-3.1,2
					c-2.1,1.3-4.1,2.5-6.2,3.8c-3.1,1.9-6.5,3.9-10.1,4.2l0,0.1c-4.4,0.6-8.6-1.8-12.4-4.1c-2.1-1.3-4.1-2.5-6.2-3.8
					c-1-0.6-2.1-1.3-3.1-2c0,0,0,0,0,0c-1.7-1.1-3.3-2.4-4.6-3.9c-0.5-0.6-0.9-1.2-1.3-1.8c0,0,0,0,0,0v0c-2.3-3.7-3.2-8.2-4.1-12.6
					c-0.5-2.4-0.9-4.8-1.4-7.2h0c-0.1,0-0.1,0-0.2,0c-2,0-3.9-1.1-5-2.7c-0.3-0.5-0.5-1-0.8-1.6c-1.3-3.2-2.7-6.4-3.9-9.7
					c-0.3-0.8-0.6-1.7-0.8-2.6c-0.2-0.9-0.3-1.8-0.3-2.7c0-0.9,0.1-1.7,0.2-2.5c0.2-1.3,0.7-2.6,1.7-3.5c0.9-0.9,2.2-1.3,3.3-1
					c2.4-4.6,2-10,2.1-15.2c0.2-8,1.8-16.4,7.2-22.4c1.6-1.8,3.6-3.4,5.9-4.3c3.5-1.4,7.5-1.1,11.2-0.6c3.8,0.5,18.9,0.3,22.6-0.1
					c3.8-0.5,7.7-0.8,11.2,0.6c2.3,0.9,4.2,2.5,5.9,4.3c5.3,6,7,14.4,7.2,22.4c0.1,5.2-0.3,10.6,2.1,15.2c1.2-0.3,2.5,0.1,3.3,1
					c0.9,0.9,1.4,2.2,1.7,3.5C205.8,26.5,205.9,27.4,205.8,28.2z"/>
				<path class="st6" d="M131,47.6c-1.6-1.4-1.8-3.3-1.8-3.3c-1.7,0.6-4.9-0.9-4.7-5.9c0.2-5-0.1-7.1-1.4-8.2c-1.3-1-1.5,1-1.5,1
					c-1.5-5.3-0.2-6.6-0.2-6.6c2.1-1.6,5.6,9.4,4.6,12.8c-1,3.5,0.7,6.1,2.2,5.4c0.9-0.4,0.3-6.4-0.3-11.6c1,6,2.4,13.2,2.8,15.5
					l0,0.2l0,0.2l0,0.2l0,0.1L131,47.6z"/>
				<path class="st8" d="M142.4,73.2C142.4,73.2,142.4,73.2,142.4,73.2c-1.7-1.1-3.3-2.4-4.6-3.9c-0.5-0.6-0.9-1.2-1.3-1.8
					c0,0,0,0,0,0v0c-2.3-3.7-3.2-8.2-4.1-12.6c-0.5-2.4-0.9-4.8-1.4-7.2h0c-0.1,0-0.1,0-0.2,0l-2.8-15c0-0.3-0.1-0.6-0.1-0.9
					c0.4,0.5,2.8,3.2,6.4,5.7c4,2.7,7.9,7.2,5.7,17.2C137.8,64.6,142.4,73.2,142.4,73.2z"/>
				<path class="st6" d="M146.3,62.6c0,0-1.8-2.5-1.1-6.4c0.7-3.9,5.5-7.4,5.5-7.4S145,54.3,146.3,62.6z"/>
				<path class="st9" d="M156.6,45.7c-2.1,0.7-4-2.2-2.5-3.9C154.1,43.6,155,45,156.6,45.7z"/>
				<path class="st6" d="M145.8,0c-2.6,0.8-5.4,0.8-8,0C140.4-0.4,143.1-0.4,145.8,0z"/>
				<path class="st6" d="M137.1-9.6c8.7,1.3,17.2-4.1,25.9-2C154.3-12.5,145.8-7.1,137.1-9.6z"/>
				<path class="st6" d="M162.6-1.7c-1.8,0-4.4,0-6.2,0.1c-1.8,0.1-4.4,0.5-6.2,0.7C154-2.7,158.6-3,162.6-1.7z"/>
				<path class="st6" d="M204.2,31.1c0,0-0.1-2-1.5-1c-1.3,1-1.6,3.2-1.4,8.2c0.2,5-3,6.5-4.7,5.9c0,0-0.2,1.8-1.8,3.3l0-0.1l0-0.1
					l0-0.2l0-0.2c0.4-2.1,1.8-9.5,2.9-15.7c-0.6,5.2-1.2,11.2-0.3,11.6c1.5,0.7,3.2-1.9,2.2-5.4c-1-3.5,2.5-14.5,4.6-12.8
					C204.3,24.5,205.7,25.8,204.2,31.1z"/>
				<path class="st8" d="M198,31.6c0,0.3-0.1,0.6-0.1,0.9l-2.8,15c-0.1,0-0.1,0-0.2,0h0c-0.5,2.4-0.9,4.8-1.4,7.2
					c-0.8,4.3-1.8,8.9-4.1,12.6c-0.4,0.6-0.9,1.3-1.4,1.9c-1.3,1.5-2.8,2.7-4.4,3.8c-0.1,0-0.1,0.1-0.2,0.1c0,0,0,0,0,0
					c0.1-0.2,4.6-8.7,2.4-18.6c-2.2-10,1.8-14.5,5.7-17.2C195.1,34.8,197.6,32.1,198,31.6z"/>
				<path class="st6" d="M189.5,20.7c-9.4,7.9-17.9,2.4-17.9,2.4c3.8-7.1,14-5.5,14-5.5c-1.5-1.5-4.9-2.1-8.2-1.5
					c-3.1,0.6-5.2,3.6-5.4,3.9c0.2-0.4,2.9-6,9.2-6C187.7,14.1,189.5,20.7,189.5,20.7z"/>
				<path class="st9" d="M170.2,44.2c-0.2,0.1-0.4,0-0.5,0c-0.7-0.2-1.4-0.3-2.1-0.3c0,0,0,0,0,0c-0.9,0.6-1.8,1.5-2.9,1.7
					c0,0,0,0-0.1,0c-0.3,0.1-0.6,0.1-0.8,0.2c-0.7,0-1.4,0.1-2.1-0.1c-0.2,0-0.4-0.1-0.5-0.2c-0.4-0.1-0.8-0.3-1.2-0.6
					c-0.6-0.4-1-0.8-1.5-1.1c0,0,0,0,0,0c-0.7,0-1.5,0.1-2.2,0.3c-0.1,0-0.3,0.1-0.5,0c-0.7-0.3-0.3-1,0.2-1.3
					c1.6-0.9,3.1,0.6,4.3,1.4c0.5,0.3,1,0.5,1.5,0.6c0.7,0.1,1.5,0.1,2.2,0c0.1,0,0.2-0.1,0.3-0.1c1.9-0.4,3.5-3,5.6-1.9
					C170.5,43.2,171,43.9,170.2,44.2z"/>
				<path class="st9" d="M169.2,45.5c1.6-0.7,2.6-2.1,2.5-3.9C173.2,43.3,171.3,46.2,169.2,45.5z"/>
				<path class="st10" d="M162,45.9c0.2,1.1,0.2,2.1,0.2,3.2c-0.2,1.5-0.1,2.8,1.5,3.1c-0.8,0.9-2.4,0.3-2.8-1
					c-0.3-0.8-0.2-1.6,0-2.4C161.2,47.8,161.4,46.8,162,45.9L162,45.9z"/>
				<path class="st10" d="M172.5,71.7c-0.1-0.2-2.3-3.7-9.6-3.7c-7.4,0-9.5,3.5-9.6,3.7c0.4-1.3,1.4-2.9,2.9-4
					c1.5-1.2,2-1.5,0.3-3.1c-1-1-1.4-2.1-1.6-2.8c1.8,2.1,3.4,2.7,8,2.7c4.6,0,6.2-0.6,8-2.7c-0.1,0.7-0.5,1.9-1.6,2.8
					c-1.7,1.6-1.1,1.9,0.3,3.1C171.1,68.8,172.1,70.3,172.5,71.7z"/>
				<path class="st11" d="M163.1,43.5c6.6,0,2.1-14.5,1.5-19.1s-1.6-4.7-1.6-4.7s-1,0.1-1.6,4.7s-5.1,19.1,1.5,19.1H163.1z"/>
				<path class="st6" d="M154.2,23.3c-0.6,3.6-15.7,11.4-10.2,5.8c-2.2-0.1-5.7,0.1-7-2c-0.1-1.3,1.7-1.4,2.6-1.5
					c3.1-0.1,6.4,0.3,9.3-0.5c-2.2,0.3-4.9,0.1-7.8-1.1c-0.4-0.1-2-1.1-2.4-1.2c-3.6-0.8-4.8-0.3-5.9,0.3c-0.4,0.2-0.7,0.7-1.2,0.6
					c-0.5-0.1-0.5-0.6-0.2-0.9c0.5-0.6,1.2-1.1,1.9-1.5c-0.9-0.3-1.7-0.7-2.4-1.4c-0.3-0.3-0.8-0.6-0.6-1.1c0.2-0.5,0.7-0.3,1.1-0.2
					c0.6,0.2,1.1,0.4,1.7,0.7c0.4,0.2,0.8,0.3,1.3,0.5c0.1,0,0.1,0,0.2,0.1c0.1,0,0.1,0,0.2,0.1c0.8,0.2,1.6-0.1,2.2-0.6
					c1-2,3.3-5,7.6-5c6.3,0,9,5.7,9.2,6c-0.2-0.2-2.2-3.2-5.4-3.9c-3.3-0.6-6.7,0-8.2,1.5C140.3,17.8,150.4,16.1,154.2,23.3
					L154.2,23.3z"/>
				<g>
					<path class="st25" d="M174.3,57.4c0,0-1.6,2.2-3.4,4.3c0,0,0,0,0,0c-1.8,2.1-3.4,2.7-8,2.7c-4.6,0-6.2-0.6-8-2.7c0,0,0,0,0,0
						c-1.8-2.1-3.4-4.3-3.4-4.3c2.5-0.1,6.2-3.3,7.8-3.4c0.7,0,1.7,0.3,2.5,0.5c0.7,0.2,1.4,0.2,2.1,0c0.8-0.3,1.9-0.5,2.5-0.5
						C168,54.1,171.8,57.3,174.3,57.4z"/>
					<path class="st6" d="M175.8,56.7c-1.5,1.8-4.2,2.1-6.4,1.8c-1.1-0.1-2.2-0.2-3.1,0.1c-1.1,0.4-2.2,0.7-3.4,0.7
						c-1.2,0-2.3-0.4-3.4-0.7c-2.1-0.5-4.4,0.4-6.6-0.2c-1.1-0.3-2.2-0.9-2.9-1.7c0.9,0.6,2,1,3,1.1c2.3,0.2,4.4-0.9,6.7-0.4
						c1,0.3,2,0.7,3.1,0.6c1.1,0.1,2.1-0.3,3.1-0.6c2.4-0.5,4.5,0.6,6.7,0.4C173.9,57.7,174.9,57.3,175.8,56.7L175.8,56.7z"/>
					<path class="st14" d="M164.5,63.6c-2.8,0.4-8.4-0.5-6.5-3c0.1-0.1,0.2-0.2,0.3-0.3c0.4-0.3,1-0.4,1.5-0.3c4,1.1,6-1,7.9,0.2
						C169.2,61.6,166,63.5,164.5,63.6z"/>
				</g>
				<path class="st8" d="M154.3,35c-0.4,1-1,1.9-1.6,2.7c-1.3,1.7-3,3-4.9,3.8c-2.1,0.8-4.4,0.9-6.5,0.1c-2-0.7-3.6-2.3-4.8-4
					c-0.6-0.9-1.2-1.9-1.2-3c0.1-1.1,0.9-1.8,1.9-2c0.6-0.1,1.3,0,1.9,0c0.7,0.1,1.3,0.1,2,0.2c1,0.1,2,0.1,3,0.1
					c1.7-0.1,3.5-0.5,5.1-1.1c0.6-0.2,1.2-0.4,1.7-0.7c0.5-0.2,1.1-0.5,1.6-0.6c1-0.2,1.9,0.4,2.3,1.3C155.2,32.9,154.8,34,154.3,35
					z"/>
			</g>
			<g>
				<g>
					<path class="st15" d="M139.2,29.5c2.3,0.4,4.5,0.4,6.7-0.2c2.4-0.6,4.7-1.6,7.1-2.1c1.2-0.3,2.8-0.5,3.8,0.5
						c1.1,1.1,1.2,3,1.1,4.4c-0.2,3-1.9,5.6-3.8,7.9c-1.7,2-3.5,3.9-5,6.1c-1.3,2-1.9,4.6-3.6,6.4c-1,1-2.4,1.5-3.8,1.8
						c-1.8,0.4-3.5,0.3-4.9-0.9c-2.2-1.8-2.8-4.9-3.3-7.5c-0.7-3.3-1.2-6.8-0.8-10.1c0.2-1.7,0.7-3.6,2-4.9
						C136,29.8,137.6,29.3,139.2,29.5c0.4,0.1,0.6-0.5,0.2-0.6c-2.5-0.3-4.9,0.8-6.1,3.1c-1.5,2.9-1.3,6.5-1,9.6
						c0.6,4.8,1.7,14.3,8.5,13.6c2.9-0.3,5.2-1.5,6.6-4c0.7-1.2,1.2-2.5,1.8-3.7c0.9-1.6,2-3,3.2-4.3c2-2.4,4.2-4.7,5.4-7.6
						c0.9-2.3,1.4-5.8-0.3-7.9c-1.9-2.3-5.9-0.6-8.1,0.1c-1.5,0.5-2.9,1-4.4,1.3c-1.9,0.4-3.7,0.4-5.6,0
						C139,28.8,138.8,29.4,139.2,29.5L139.2,29.5z"/>
				</g>
			</g>
			<g>
				<path class="st26" d="M146.3,34.7c-0.8-1.2,1.9-2.5,2.3-0.9C149,35.1,147.1,35.4,146.3,34.7z"/>
				<path class="st26" d="M137.8,36.4c0.2,0.7-0.9,1.1-1.2,0.5C136.1,35.9,137.6,35.4,137.8,36.4z"/>
				<path class="st26" d="M142.8,45.5c0,1.1-1.6,1.2-1.7,0.1C141,44.5,142.7,44.3,142.8,45.5z"/>
				<path class="st26" d="M145,45.2c0.3,0.9-1.2,1.4-1.4,0.4C143.3,44.7,144.7,44.3,145,45.2z"/>
				<path class="st26" d="M141.8,34.9c-0.3-0.6,0.7-1,0.9-0.4C143,35.1,142,35.5,141.8,34.9z"/>
				<path class="st26" d="M141.2,48.4c-0.6,0-0.7-1,0-1C141.8,47.5,141.8,48.4,141.2,48.4z"/>
				<path class="st26" d="M142.7,36.7c0.7,0.1,0.7,1.1,0,1.3c-0.6,0.2-1-0.6-0.6-1.1c0,0,0,0,0,0C142.3,36.8,142.5,36.7,142.7,36.7z
					"/>
				<path class="st26" d="M145.8,39.1c0.5,1.7-2.7,2.9-3.1,1.1C143.1,39.6,145.4,37.7,145.8,39.1z"/>
				<path class="st26" d="M147.1,36.7c-0.2,1-1.7,0.4-1.3-0.5C146.2,35.5,147.4,35.9,147.1,36.7z"/>
				<path class="st26" d="M148.4,40.6c0.2,0.7-0.8,0.8-1,0.2C147.2,40.1,148.2,40,148.4,40.6z"/>
				<path class="st26" d="M149.9,37.8c0.6,0,0.7,1,0,1C149.3,38.8,149.3,37.8,149.9,37.8"/>
				<path class="st26" d="M143.8,47c0.4,0.6-0.5,1.3-1,0.8c-0.5-0.3-0.2-1.3,0.4-1.1C143.4,46.7,143.7,46.8,143.8,47z"/>
				<path class="st26" d="M140.4,35.3c0.3,0.6-0.3,1.3-0.9,1C138.2,35.8,139.7,34.1,140.4,35.3z"/>
				<path class="st26" d="M151.2,35.3c-0.9,0-1-1.4,0-1.4C152.1,33.9,152.2,35.3,151.2,35.3z"/>
				<path class="st26" d="M152.5,36.9c-0.2,0.7-1.4,0.7-1.6,0C150.7,35.5,153,35.5,152.5,36.9z"/>
				<path class="st26" d="M148.2,38.5c-0.6,0-0.7-1,0-1C148.8,37.5,148.8,38.5,148.2,38.5z"/>
				<path class="st26" d="M140.2,37.8c0.7,0.6-0.3,1.6-0.9,1C138.6,38.3,139.6,37.3,140.2,37.8z"/>
			</g>
		</g>
	</g>
	<g style="clip-path:url(#SVGID_00000030474894828465451120000004148760782196948128_);">
		<defs>
			<rect id="SVGID_00000145739513983589362830000017838420430235526542_" x="-2.1" y="86.1" width="57.3" height="90.7"/>
		</defs>
		<clipPath id="SVGID_00000116193507874148633730000011261484610801213071_">
			<use xlink:href="#SVGID_00000145739513983589362830000017838420430235526542_"  style="overflow:visible;"/>
		</clipPath>
		<g style="clip-path:url(#SVGID_00000116193507874148633730000011261484610801213071_);">
			
				<linearGradient id="SVGID_00000160156869731443678880000002442920530255830188_" gradientUnits="userSpaceOnUse" x1="-0.6805" y1="134.6333" x2="72.0724" y2="134.6333">
				<stop  offset="0" style="stop-color:#5F74B1"/>
				<stop  offset="0.2723" style="stop-color:#7A90D2"/>
				<stop  offset="0.5413" style="stop-color:#8FA6EB"/>
				<stop  offset="0.7867" style="stop-color:#9CB3FA"/>
				<stop  offset="0.9866" style="stop-color:#A0B7FF"/>
			</linearGradient>
			
				<rect x="-0.7" y="85" style="fill:url(#SVGID_00000160156869731443678880000002442920530255830188_);" width="72.8" height="99.2"/>
			<g>
				<path class="st5" d="M96.4,98.3c-0.3,4-0.9,8.1-1.5,12c-0.5,3.5-0.9,7.2-2.7,10.3c-0.7,1.2-1.6,2.2-2.6,3
					c-2.9,3.1-7.3,4-11.4,3.2c-5-1-9.2-4.1-13.2-7.2c-3.8-2.9-7.9-6-12.8-6.7c-4.9-0.7-9.5,1.6-13.5,4.1c-4.2,2.5-8.4,5.3-13.4,6.1
					c-2.4,0.4-4.9,0.3-7.1-0.6c-2-0.8-3.8-2.1-5.3-3.7c-3.1-3.4-5.1-7.9-6.2-12.3C5.4,101.9,5.2,96.9,6,92c0.4-2.5,1.1-4.8,2-7.1
					c0.9-2.4,0.5-12.2,0.9-14.6c2.7-15.1,18.1-18.6,23-20c4.9-1.3,9.5-3.4,14.5-4.6c2.4-0.6,4.9-0.9,7.4-0.7
					c2.5,0.2,4.9,0.8,7.2,1.7c2.4,0.9,4.6,2.1,6.8,3.3c2.1,1.2,4.3,2.4,6.4,3.6c4.2,2.5,8.2,5.2,11.6,8.6c4.2,4.4,7,9.8,8.6,15.5
					C96.7,84.4,97,91.4,96.4,98.3z"/>
				<path class="st6" d="M63.8,67.2c1.7-1.4,4.2-3.3,5.8-4.8c1.6-1.5,3.8-3.8,5.3-5.4C73,61.8,68.7,65.7,63.8,67.2L63.8,67.2z"/>
				<path class="st6" d="M65.8,67.2c5.1-2.7,9.7-6.6,14.7-9.4c0,0-0.6,1.6-0.6,1.6c-1.5,4.1-4.8,7.6-8.9,9.4c0,0-0.3-1.1-0.3-1.1
					c2.4-0.2,4.8-0.6,7.2-1.2c2.3-0.7,4.9-1,6.6-2.9c-0.6,1.1-1.7,1.8-2.9,2.4c-4.5,2.1-9.6,2.9-14.5,3.5c0,0,3.4-1.6,3.4-1.6
					c3.7-1.8,6.7-4.9,8.3-8.7c0,0,0.8,0.7,0.8,0.7C75.1,62.2,70.8,65.5,65.8,67.2L65.8,67.2z"/>
				<path class="st6" d="M42.3,67.9c-7-2.1-13.1-7-18-12.3c0,0,1.1-0.4,1.1-0.4c0.3,4.4,2.6,8.7,6.2,11.3c0,0,1.5,1.1,1.5,1.1
					l-1.9,0c-6-0.1-12.1-2.9-15.9-7.5c4.3,4,10,6.4,15.9,6.3c0,0-0.3,1.1-0.3,1.1c-3-2.1-5.2-5.2-6.2-8.7c-0.5-1.7-0.6-3.6-0.6-5.3
					c2.7,3.2,5.7,6.2,9,8.8C35.9,64.5,39,66.5,42.3,67.9L42.3,67.9z"/>
				<path class="st6" d="M14.7,63.3c3.7,2.5,7.7,4.2,12.1,5C22.3,69.4,17.1,67.3,14.7,63.3L14.7,63.3z"/>
				<path class="st6" d="M12.5,68.2c4.1,1.1,8.1,1.4,12.3,1C21,71.5,15.8,71,12.5,68.2L12.5,68.2z"/>
			</g>
			<g>
				<path class="st7" d="M94.5,118.9c0,0.9-0.1,1.8-0.3,2.7c-0.2,0.9-0.5,1.7-0.8,2.6c-1.2,3.3-2.6,6.5-3.9,9.7
					c-0.2,0.5-0.4,1.1-0.8,1.6c-1,1.7-3,2.8-5,2.7c-0.1,0-0.1,0-0.2,0h0c-0.5,2.4-0.9,4.8-1.4,7.2c-0.8,4.3-1.8,8.9-4.1,12.6
					c-0.4,0.6-0.9,1.3-1.4,1.9c-1.3,1.5-2.8,2.7-4.4,3.8c-0.1,0-0.1,0.1-0.2,0.1c0,0,0,0,0,0c-1,0.7-2,1.3-3.1,2
					c-2.1,1.3-4.1,2.5-6.2,3.8c-3.1,1.9-6.5,3.9-10.1,4.2l0,0.1c-4.4,0.6-8.6-1.8-12.4-4.1c-2.1-1.3-4.1-2.5-6.2-3.8
					c-1-0.6-2.1-1.3-3.1-2c0,0,0,0,0,0c-1.7-1.1-3.3-2.4-4.6-3.9c-0.5-0.6-0.9-1.2-1.3-1.8c0,0,0,0,0,0v0c-2.3-3.7-3.2-8.2-4.1-12.6
					c-0.5-2.4-0.9-4.8-1.4-7.2h0c-0.1,0-0.1,0-0.2,0c-2,0-3.9-1.1-5-2.7c-0.3-0.5-0.5-1-0.8-1.6c-1.3-3.2-2.7-6.4-3.9-9.7
					c-0.3-0.8-0.6-1.7-0.8-2.6c-0.2-0.9-0.3-1.8-0.3-2.7c0-0.9,0.1-1.7,0.2-2.5c0.2-1.3,0.7-2.6,1.7-3.5c0.9-0.9,2.2-1.3,3.3-1
					c2.4-4.6,2-10,2.1-15.2c0.2-8,1.8-16.4,7.2-22.4c1.6-1.8,3.6-3.4,5.9-4.3c3.5-1.4,7.5-1.1,11.2-0.6c3.8,0.5,18.9,0.3,22.6-0.1
					c3.8-0.5,7.7-0.8,11.2,0.6c2.3,0.9,4.2,2.5,5.9,4.3c5.3,6,7,14.4,7.2,22.4c0.1,5.2-0.3,10.6,2.1,15.2c1.2-0.3,2.5,0.1,3.3,1
					c0.9,0.9,1.4,2.2,1.7,3.5C94.4,117.2,94.5,118,94.5,118.9z"/>
				<path class="st6" d="M19.6,138.3c-1.6-1.4-1.8-3.3-1.8-3.3c-1.7,0.6-4.9-0.9-4.7-5.9c0.2-5-0.1-7.1-1.4-8.2c-1.3-1-1.5,1-1.5,1
					c-1.5-5.3-0.2-6.6-0.2-6.6c2.1-1.6,5.6,9.4,4.6,12.8c-1,3.5,0.7,6.1,2.2,5.4c0.9-0.4,0.3-6.4-0.3-11.6c1,6,2.4,13.2,2.8,15.5
					l0,0.2l0,0.2l0,0.2l0,0.1L19.6,138.3z"/>
				<path class="st8" d="M31,163.9C31,163.9,31,163.9,31,163.9c-1.7-1.1-3.3-2.4-4.6-3.9c-0.5-0.6-0.9-1.2-1.3-1.8c0,0,0,0,0,0v0
					c-2.3-3.7-3.2-8.2-4.1-12.6c-0.5-2.4-0.9-4.8-1.4-7.2h0c-0.1,0-0.1,0-0.2,0l-2.8-15c0-0.3-0.1-0.6-0.1-0.9
					c0.4,0.5,2.8,3.2,6.4,5.7c4,2.7,7.9,7.2,5.7,17.2C26.5,155.3,31,163.9,31,163.9z"/>
				<path class="st6" d="M34.9,153.3c0,0-1.8-2.5-1.1-6.4c0.7-3.9,5.5-7.4,5.5-7.4S33.6,145,34.9,153.3z"/>
				<path class="st9" d="M45.3,136.3c-2.1,0.7-4-2.2-2.5-3.9C42.7,134.2,43.6,135.7,45.3,136.3z"/>
				<path class="st6" d="M34.5,90.7c-2.6,0.8-5.4,0.8-8,0C29.1,90.3,31.8,90.3,34.5,90.7z"/>
				<path class="st6" d="M25.8,81c8.7,1.3,17.2-4.1,25.9-2C43,78.1,34.5,83.6,25.8,81z"/>
				<path class="st6" d="M51.3,88.9c-1.8,0-4.4,0-6.2,0.1c-1.8,0.1-4.4,0.5-6.2,0.7C42.7,87.9,47.3,87.6,51.3,88.9z"/>
				<path class="st6" d="M92.8,121.8c0,0-0.1-2-1.5-1c-1.3,1-1.6,3.2-1.4,8.2c0.2,5-3,6.5-4.7,5.9c0,0-0.2,1.8-1.8,3.3l0-0.1l0-0.1
					l0-0.2l0-0.2c0.4-2.1,1.8-9.5,2.9-15.7c-0.6,5.2-1.2,11.2-0.3,11.6c1.5,0.7,3.2-1.9,2.2-5.4c-1-3.5,2.5-14.5,4.6-12.8
					C93,115.2,94.3,116.4,92.8,121.8z"/>
				<path class="st8" d="M86.6,122.2c0,0.3-0.1,0.6-0.1,0.9l-2.8,15c-0.1,0-0.1,0-0.2,0h0c-0.5,2.4-0.9,4.8-1.4,7.2
					c-0.8,4.3-1.8,8.9-4.1,12.6c-0.4,0.6-0.9,1.3-1.4,1.9c-1.3,1.5-2.8,2.7-4.4,3.8c-0.1,0-0.1,0.1-0.2,0.1c0,0,0,0,0,0
					c0.1-0.2,4.6-8.7,2.4-18.6c-2.2-10,1.8-14.5,5.7-17.2C83.8,125.5,86.2,122.7,86.6,122.2z"/>
				<path class="st6" d="M78.1,111.4c-9.4,7.9-17.9,2.4-17.9,2.4c3.8-7.1,14-5.5,14-5.5c-1.5-1.5-4.9-2.1-8.2-1.5
					c-3.1,0.6-5.2,3.6-5.4,3.9c0.2-0.4,2.9-6,9.2-6C76.3,104.7,78.1,111.4,78.1,111.4z"/>
				<path class="st9" d="M58.9,134.9c-0.2,0.1-0.4,0-0.5,0c-0.7-0.2-1.4-0.3-2.1-0.3c0,0,0,0,0,0c-0.9,0.6-1.8,1.5-2.9,1.7
					c0,0,0,0-0.1,0c-0.3,0.1-0.6,0.1-0.8,0.2c-0.7,0-1.4,0.1-2.1-0.1c-0.2,0-0.4-0.1-0.5-0.2c-0.4-0.1-0.8-0.3-1.2-0.6
					c-0.6-0.4-1-0.8-1.5-1.1c0,0,0,0,0,0c-0.7,0-1.5,0.1-2.2,0.3c-0.1,0-0.3,0.1-0.5,0c-0.7-0.3-0.3-1,0.2-1.3
					c1.6-0.9,3.1,0.6,4.3,1.4c0.5,0.3,1,0.5,1.5,0.6c0.7,0.1,1.5,0.1,2.2,0c0.1,0,0.2-0.1,0.3-0.1c1.9-0.4,3.5-3,5.6-1.9
					C59.1,133.8,59.6,134.6,58.9,134.9z"/>
				<path class="st9" d="M57.8,136.2c1.6-0.7,2.6-2.1,2.5-3.9C61.8,133.9,60,136.9,57.8,136.2z"/>
				<path class="st10" d="M50.6,136.5c0.2,1.1,0.2,2.1,0.2,3.2c-0.2,1.5-0.1,2.8,1.5,3.1c-0.8,0.9-2.4,0.3-2.8-1
					c-0.3-0.8-0.2-1.6,0-2.4C49.8,138.4,50.1,137.5,50.6,136.5L50.6,136.5z"/>
				<path class="st10" d="M61.2,162.3c-0.1-0.2-2.3-3.7-9.6-3.7c-7.4,0-9.5,3.5-9.6,3.7c0.4-1.3,1.4-2.9,2.9-4
					c1.5-1.2,2-1.5,0.3-3.1c-1-1-1.4-2.1-1.6-2.8c1.8,2.1,3.4,2.7,8,2.7s6.2-0.6,8-2.7c-0.1,0.7-0.5,1.9-1.6,2.8
					c-1.7,1.6-1.1,1.9,0.3,3.1C59.8,159.5,60.7,161,61.2,162.3z"/>
				<path class="st11" d="M51.7,134.1c6.6,0,2.1-14.5,1.5-19.1c-0.6-4.6-1.6-4.7-1.6-4.7s-1,0.1-1.6,4.7c-0.6,4.6-5.1,19.1,1.5,19.1
					H51.7z"/>
				<path class="st6" d="M42.9,114c-0.6,3.6-15.7,11.4-10.2,5.8c-2.2-0.1-5.7,0.1-7-2c-0.1-1.3,1.7-1.4,2.6-1.5
					c3.1-0.1,6.4,0.3,9.3-0.5c-2.2,0.3-4.9,0.1-7.8-1.1c-0.4-0.1-2-1.1-2.4-1.2c-3.6-0.8-4.8-0.3-5.9,0.3c-0.4,0.2-0.7,0.7-1.2,0.6
					c-0.5-0.1-0.5-0.6-0.2-0.9c0.5-0.6,1.2-1.1,1.9-1.5c-0.9-0.3-1.7-0.7-2.4-1.4c-0.3-0.3-0.8-0.6-0.6-1.1c0.2-0.5,0.7-0.3,1.1-0.2
					c0.6,0.2,1.1,0.4,1.7,0.7c0.4,0.2,0.8,0.3,1.3,0.5c0.1,0,0.1,0,0.2,0.1c0.1,0,0.1,0,0.2,0.1c0.8,0.2,1.6-0.1,2.2-0.6
					c1-2,3.3-5,7.6-5c6.3,0,9,5.7,9.2,6c-0.2-0.2-2.2-3.2-5.4-3.9c-3.3-0.6-6.7,0-8.2,1.5C28.9,108.5,39,106.8,42.9,114L42.9,114z"
					/>
				<g>
					<path class="st12" d="M62.9,148.1c0,0-1.6,2.2-3.4,4.3c0,0,0,0,0,0c-1.8,2.1-3.4,2.7-8,2.7s-6.2-0.6-8-2.7c0,0,0,0,0,0
						c-1.8-2.1-3.4-4.3-3.4-4.3c2.5-0.1,6.2-3.3,7.8-3.4c0.7,0,1.7,0.3,2.5,0.5c0.7,0.2,1.4,0.2,2.1,0c0.8-0.3,1.9-0.5,2.5-0.5
						C56.7,144.7,60.5,148,62.9,148.1z"/>
					<path class="st13" d="M64.5,147.3c-1.5,1.8-4.2,2.1-6.4,1.8c-1.1-0.1-2.2-0.2-3.1,0.1c-1.1,0.4-2.2,0.7-3.4,0.7
						c-1.2,0-2.3-0.4-3.4-0.7c-2.1-0.5-4.4,0.4-6.6-0.2c-1.1-0.3-2.2-0.9-2.9-1.7c0.9,0.6,2,1,3,1.1c2.3,0.2,4.4-0.9,6.7-0.4
						c1,0.3,2,0.7,3.1,0.6c1.1,0.1,2.1-0.3,3.1-0.6c2.4-0.5,4.5,0.6,6.7,0.4C62.5,148.3,63.6,147.9,64.5,147.3L64.5,147.3z"/>
					<path class="st14" d="M53.2,154.2c-2.8,0.4-8.4-0.5-6.5-3c0.1-0.1,0.2-0.2,0.3-0.3c0.4-0.3,1-0.4,1.5-0.3c4,1.1,6-1,7.9,0.2
						C57.8,152.2,54.7,154.2,53.2,154.2z"/>
				</g>
				<path class="st29" d="M83.5,138.2c-0.7,4.2-1.3,8.4-2.2,12.6c-0.7,3.1-1.9,6.3-3.8,8.9c-2,2.6-4.7,4.5-7.5,6.2l-5.4,3.4
					c-3.6,2.2-7.4,4.8-11.8,5.2c0,0,0.6-0.7,0.6-0.7l0,0.1l0.1,0.6c-5.9,1-11.2-2.8-15.9-5.7c-3.3-2.2-7.3-4.2-10.1-7
					c-1-1-1.9-2.1-2.6-3.3l0.4,0.2c-0.1,0-0.2,0-0.3-0.1c-0.1-0.1-0.2-0.2-0.2-0.4c0,0,0.1,0.2,0.1,0.2c-1.8-3-2.7-6.4-3.4-9.8
					c-0.6-3-1.2-7.2-1.7-10.2c0,0,0,0,0,0c0,0,0,0,0,0c0.7,3,1.5,7.1,2.2,10.1c0.8,3.3,1.8,6.7,3.7,9.6c0,0,0,0.1,0,0.1
					c0-0.2-0.2-0.5-0.4-0.4c0,0,0.4,0.2,0.4,0.2c2,3.3,5.9,5.6,9.1,7.6c0,0,3.5,2.1,3.5,2.1c3.5,2,6.8,4.4,10.7,5.3
					c1.3,0.3,2.6,0.4,3.8,0.2l-0.6,0.7l0-0.1l-0.1-0.6l0.7-0.1c4.1-0.4,7.7-2.9,11.3-5c0,0,5.5-3.3,5.5-3.3c2.7-1.6,5.4-3.3,7.3-5.8
					c2-2.5,3.1-5.4,4-8.4C81.8,146.5,82.5,142.3,83.5,138.2L83.5,138.2z"/>
				<path class="st8" d="M43,125.7c-0.4,1-1,1.9-1.6,2.7c-1.3,1.7-3,3-4.9,3.8c-2.1,0.8-4.4,0.9-6.5,0.1c-2-0.7-3.6-2.3-4.8-4
					c-0.6-0.9-1.2-1.9-1.2-3c0.1-1.1,0.9-1.8,1.9-2c0.6-0.1,1.3,0,1.9,0c0.7,0.1,1.3,0.1,2,0.2c1,0.1,2,0.1,3,0.1
					c1.7-0.1,3.5-0.5,5.1-1.1c0.6-0.2,1.2-0.4,1.7-0.7c0.5-0.2,1.1-0.5,1.6-0.6c1-0.2,1.9,0.4,2.3,1.3
					C43.8,123.5,43.4,124.7,43,125.7z"/>
			</g>
			<g>
				<g>
					<path class="st15" d="M27.9,120.1c2.3,0.4,4.5,0.4,6.7-0.2c2.4-0.6,4.7-1.6,7.1-2.1c1.2-0.3,2.8-0.5,3.8,0.5
						c1.1,1.1,1.2,3,1.1,4.4c-0.2,3-1.9,5.6-3.8,7.9c-1.7,2-3.5,3.9-5,6.1c-1.3,2-1.9,4.6-3.6,6.4c-1,1-2.4,1.5-3.8,1.8
						c-1.8,0.4-3.5,0.3-4.9-0.9c-2.2-1.8-2.8-4.9-3.3-7.5c-0.7-3.3-1.2-6.8-0.8-10.1c0.2-1.7,0.7-3.6,2-4.9
						C24.6,120.4,26.3,119.9,27.9,120.1c0.4,0.1,0.6-0.5,0.2-0.6c-2.5-0.3-4.9,0.8-6.1,3.1c-1.5,2.9-1.3,6.5-1,9.6
						c0.6,4.8,1.7,14.3,8.5,13.6c2.9-0.3,5.2-1.5,6.6-4c0.7-1.2,1.2-2.5,1.8-3.7c0.9-1.6,2-3,3.2-4.3c2-2.4,4.2-4.7,5.4-7.6
						c0.9-2.3,1.4-5.8-0.3-7.9c-1.9-2.3-5.9-0.6-8.1,0.1c-1.5,0.5-2.9,1-4.4,1.3c-1.9,0.4-3.7,0.4-5.6,0
						C27.7,119.5,27.5,120.1,27.9,120.1L27.9,120.1z"/>
				</g>
			</g>
			<g>
				<path class="st30" d="M34.9,125.4c-0.8-1.2,1.9-2.5,2.3-0.9C37.6,125.7,35.7,126,34.9,125.4z"/>
				<path class="st30" d="M26.5,127c0.2,0.7-0.9,1.1-1.2,0.5C24.8,126.6,26.2,126.1,26.5,127z"/>
				<path class="st30" d="M31.4,136.1c0,1.1-1.6,1.2-1.7,0.1C29.6,135.1,31.4,135,31.4,136.1z"/>
				<path class="st30" d="M33.6,135.9c0.3,0.9-1.2,1.4-1.4,0.4C32,135.4,33.4,134.9,33.6,135.9z"/>
				<path class="st30" d="M30.5,125.6c-0.3-0.6,0.7-1,0.9-0.4C31.6,125.7,30.7,126.2,30.5,125.6z"/>
				<path class="st30" d="M29.9,139.1c-0.6,0-0.7-1,0-1C30.5,138.1,30.5,139.1,29.9,139.1z"/>
				<path class="st30" d="M31.4,127.4c0.7,0.1,0.7,1.1,0,1.3c-0.6,0.2-1-0.6-0.6-1.1c0,0,0,0,0,0C31,127.4,31.2,127.4,31.4,127.4z"
					/>
				<path class="st30" d="M34.4,129.8c0.5,1.7-2.7,2.9-3.1,1.1C31.7,130.2,34,128.4,34.4,129.8z"/>
				<path class="st30" d="M35.8,127.3c-0.2,1-1.7,0.4-1.3-0.5C34.8,126.1,36,126.6,35.8,127.3z"/>
				<path class="st30" d="M37.1,131.3c0.2,0.7-0.8,0.8-1,0.2C35.9,130.8,36.9,130.6,37.1,131.3z"/>
				<path class="st30" d="M38.6,128.5c0.6,0,0.7,1,0,1C38,129.4,37.9,128.5,38.6,128.5"/>
				<path class="st30" d="M32.4,137.7c0.4,0.6-0.5,1.3-1,0.8c-0.5-0.3-0.2-1.3,0.4-1.1C32.1,137.3,32.3,137.4,32.4,137.7z"/>
				<path class="st30" d="M29,126c0.3,0.6-0.3,1.3-0.9,1C26.8,126.5,28.3,124.7,29,126z"/>
				<path class="st30" d="M39.9,126c-0.9,0-1-1.4,0-1.4C40.8,124.5,40.8,126,39.9,126z"/>
				<path class="st30" d="M41.2,127.5c-0.2,0.7-1.4,0.7-1.6,0C39.4,126.2,41.7,126.1,41.2,127.5z"/>
				<path class="st30" d="M36.9,129.2c-0.6,0-0.7-1,0-1C37.4,128.2,37.5,129.2,36.9,129.2z"/>
				<path class="st30" d="M28.9,128.5c0.7,0.6-0.3,1.6-0.9,1C27.3,128.9,28.2,127.9,28.9,128.5z"/>
			</g>
		</g>
	</g>
	<g style="clip-path:url(#SVGID_00000030474894828465451120000004148760782196948128_);">
		<defs>
			<rect id="SVGID_00000031912783450486778660000013944370512499622835_" x="53.6" y="86.1" width="57.3" height="90.7"/>
		</defs>
		<clipPath id="SVGID_00000084523439559090469870000011327686274360972727_">
			<use xlink:href="#SVGID_00000031912783450486778660000013944370512499622835_"  style="overflow:visible;"/>
		</clipPath>
		<g style="clip-path:url(#SVGID_00000084523439559090469870000011327686274360972727_);">
			
				<linearGradient id="SVGID_00000026876977402051214520000008498763614521067170_" gradientUnits="userSpaceOnUse" x1="54.9896" y1="134.6333" x2="127.7425" y2="134.6333">
				<stop  offset="0" style="stop-color:#5F74B1"/>
				<stop  offset="0.2723" style="stop-color:#7A90D2"/>
				<stop  offset="0.5413" style="stop-color:#8FA6EB"/>
				<stop  offset="0.7867" style="stop-color:#9CB3FA"/>
				<stop  offset="0.9866" style="stop-color:#A0B7FF"/>
			</linearGradient>
			
				<rect x="55" y="85" style="fill:url(#SVGID_00000026876977402051214520000008498763614521067170_);" width="72.8" height="99.2"/>
			<g>
				<path class="st5" d="M152.1,98.3c-0.3,4-0.9,8.1-1.5,12c-0.5,3.5-0.9,7.2-2.7,10.3c-0.7,1.2-1.6,2.2-2.6,3
					c-2.9,3.1-7.3,4-11.4,3.2c-5-1-9.2-4.1-13.2-7.2c-3.8-2.9-7.9-6-12.8-6.7c-4.9-0.7-9.5,1.6-13.5,4.1c-4.2,2.5-8.4,5.3-13.4,6.1
					c-2.4,0.4-4.9,0.3-7.1-0.6c-2-0.8-3.8-2.1-5.3-3.7c-3.1-3.4-5.1-7.9-6.2-12.3c-1.2-4.8-1.4-9.7-0.6-14.6c0.4-2.5,1.1-4.8,2-7.1
					c0.9-2.4,0.5-12.2,0.9-14.6c2.7-15.1,18.1-18.6,23-20c4.9-1.3,9.5-3.4,14.5-4.6c2.4-0.6,4.9-0.9,7.4-0.7
					c2.5,0.2,4.9,0.8,7.2,1.7c2.4,0.9,4.6,2.1,6.8,3.3c2.1,1.2,4.3,2.4,6.4,3.6c4.2,2.5,8.2,5.2,11.6,8.6c4.2,4.4,7,9.8,8.6,15.5
					C152.4,84.4,152.6,91.4,152.1,98.3z"/>
				<path class="st6" d="M119.5,67.2c1.7-1.4,4.2-3.3,5.8-4.8c1.6-1.5,3.8-3.8,5.3-5.4C128.7,61.8,124.4,65.7,119.5,67.2L119.5,67.2
					z"/>
				<path class="st6" d="M121.5,67.2c5.1-2.7,9.7-6.6,14.7-9.4c0,0-0.6,1.6-0.6,1.6c-1.5,4.1-4.8,7.6-8.9,9.4c0,0-0.3-1.1-0.3-1.1
					c2.4-0.2,4.8-0.6,7.2-1.2c2.3-0.7,4.9-1,6.6-2.9c-0.6,1.1-1.7,1.8-2.9,2.4c-4.5,2.1-9.6,2.9-14.5,3.5c0,0,3.4-1.6,3.4-1.6
					c3.7-1.8,6.7-4.9,8.3-8.7c0,0,0.8,0.7,0.8,0.7C130.8,62.2,126.5,65.5,121.5,67.2L121.5,67.2z"/>
				<path class="st6" d="M98,67.9c-7-2.1-13.1-7-18-12.3c0,0,1.1-0.4,1.1-0.4c0.3,4.4,2.6,8.7,6.2,11.3c0,0,1.5,1.1,1.5,1.1l-1.9,0
					c-6-0.1-12.1-2.9-15.9-7.5c4.3,4,10,6.4,15.9,6.3c0,0-0.3,1.1-0.3,1.1c-3-2.1-5.2-5.2-6.2-8.7c-0.5-1.7-0.6-3.6-0.6-5.3
					c2.7,3.2,5.7,6.2,9,8.8C91.6,64.5,94.6,66.5,98,67.9L98,67.9z"/>
				<path class="st6" d="M70.3,63.3c3.7,2.5,7.7,4.2,12.1,5C78,69.4,72.8,67.3,70.3,63.3L70.3,63.3z"/>
				<path class="st6" d="M68.1,68.2c4.1,1.1,8.1,1.4,12.3,1C76.7,71.5,71.4,71,68.1,68.2L68.1,68.2z"/>
			</g>
			<g>
				<path class="st7" d="M150.2,118.9c0,0.9-0.1,1.8-0.3,2.7c-0.2,0.9-0.5,1.7-0.8,2.6c-1.2,3.3-2.6,6.5-3.9,9.7
					c-0.2,0.5-0.4,1.1-0.8,1.6c-1,1.7-3,2.8-5,2.7c-0.1,0-0.1,0-0.2,0h0c-0.5,2.4-0.9,4.8-1.4,7.2c-0.8,4.3-1.8,8.9-4.1,12.6
					c-0.4,0.6-0.9,1.3-1.4,1.9c-1.3,1.5-2.8,2.7-4.4,3.8c-0.1,0-0.1,0.1-0.2,0.1c0,0,0,0,0,0c-1,0.7-2,1.3-3.1,2
					c-2.1,1.3-4.1,2.5-6.2,3.8c-3.1,1.9-6.5,3.9-10.1,4.2l0,0.1c-4.4,0.6-8.6-1.8-12.4-4.1c-2.1-1.3-4.1-2.5-6.2-3.8
					c-1-0.6-2.1-1.3-3.1-2c0,0,0,0,0,0c-1.7-1.1-3.3-2.4-4.6-3.9c-0.5-0.6-0.9-1.2-1.3-1.8c0,0,0,0,0,0v0c-2.3-3.7-3.2-8.2-4.1-12.6
					c-0.5-2.4-0.9-4.8-1.4-7.2h0c-0.1,0-0.1,0-0.2,0c-2,0-3.9-1.1-5-2.7c-0.3-0.5-0.5-1-0.8-1.6c-1.3-3.2-2.7-6.4-3.9-9.7
					c-0.3-0.8-0.6-1.7-0.8-2.6c-0.2-0.9-0.3-1.8-0.3-2.7c0-0.9,0.1-1.7,0.2-2.5c0.2-1.3,0.7-2.6,1.7-3.5c0.9-0.9,2.2-1.3,3.3-1
					c2.4-4.6,2-10,2.1-15.2c0.2-8,1.8-16.4,7.2-22.4c1.6-1.8,3.6-3.4,5.9-4.3c3.5-1.4,7.5-1.1,11.2-0.6c3.8,0.5,18.9,0.3,22.6-0.1
					c3.8-0.5,7.7-0.8,11.2,0.6c2.3,0.9,4.2,2.5,5.9,4.3c5.3,6,7,14.4,7.2,22.4c0.1,5.2-0.3,10.6,2.1,15.2c1.2-0.3,2.5,0.1,3.3,1
					c0.9,0.9,1.4,2.2,1.7,3.5C150.1,117.2,150.2,118,150.2,118.9z"/>
				<path class="st6" d="M75.3,138.3c-1.6-1.4-1.8-3.3-1.8-3.3c-1.7,0.6-4.9-0.9-4.7-5.9c0.2-5-0.1-7.1-1.4-8.2c-1.3-1-1.5,1-1.5,1
					c-1.5-5.3-0.2-6.6-0.2-6.6c2.1-1.6,5.6,9.4,4.6,12.8c-1,3.5,0.7,6.1,2.2,5.4c0.9-0.4,0.3-6.4-0.3-11.6c1,6,2.4,13.2,2.8,15.5
					l0,0.2l0,0.2l0,0.2l0,0.1L75.3,138.3z"/>
				<path class="st8" d="M86.7,163.9C86.7,163.9,86.7,163.9,86.7,163.9c-1.7-1.1-3.3-2.4-4.6-3.9c-0.5-0.6-0.9-1.2-1.3-1.8
					c0,0,0,0,0,0v0c-2.3-3.7-3.2-8.2-4.1-12.6c-0.5-2.4-0.9-4.8-1.4-7.2h0c-0.1,0-0.1,0-0.2,0l-2.8-15c0-0.3-0.1-0.6-0.1-0.9
					c0.4,0.5,2.8,3.2,6.4,5.7c4,2.7,7.9,7.2,5.7,17.2C82.1,155.3,86.7,163.9,86.7,163.9z"/>
				<path class="st6" d="M90.6,153.3c0,0-1.8-2.5-1.1-6.4c0.7-3.9,5.5-7.4,5.5-7.4S89.3,145,90.6,153.3z"/>
				<path class="st9" d="M100.9,136.3c-2.1,0.7-4-2.2-2.5-3.9C98.4,134.2,99.3,135.7,100.9,136.3z"/>
				<path class="st6" d="M90.1,90.7c-2.6,0.8-5.4,0.8-8,0C84.8,90.3,87.4,90.3,90.1,90.7z"/>
				<path class="st6" d="M81.5,81c8.7,1.3,17.2-4.1,25.9-2C98.6,78.1,90.1,83.6,81.5,81z"/>
				<path class="st6" d="M106.9,88.9c-1.8,0-4.4,0-6.2,0.1c-1.8,0.1-4.4,0.5-6.2,0.7C98.4,87.9,102.9,87.6,106.9,88.9z"/>
				<path class="st6" d="M148.5,121.8c0,0-0.1-2-1.5-1c-1.3,1-1.6,3.2-1.4,8.2c0.2,5-3,6.5-4.7,5.9c0,0-0.2,1.8-1.8,3.3l0-0.1l0-0.1
					l0-0.2l0-0.2c0.4-2.1,1.8-9.5,2.9-15.7c-0.6,5.2-1.2,11.2-0.3,11.6c1.5,0.7,3.2-1.9,2.2-5.4c-1-3.5,2.5-14.5,4.6-12.8
					C148.7,115.2,150,116.4,148.5,121.8z"/>
				<path class="st8" d="M142.3,122.2c0,0.3-0.1,0.6-0.1,0.9l-2.8,15c-0.1,0-0.1,0-0.2,0h0c-0.5,2.4-0.9,4.8-1.4,7.2
					c-0.8,4.3-1.8,8.9-4.1,12.6c-0.4,0.6-0.9,1.3-1.4,1.9c-1.3,1.5-2.8,2.7-4.4,3.8c-0.1,0-0.1,0.1-0.2,0.1c0,0,0,0,0,0
					c0.1-0.2,4.6-8.7,2.4-18.6c-2.2-10,1.8-14.5,5.7-17.2C139.5,125.5,141.9,122.7,142.3,122.2z"/>
				<path class="st6" d="M133.8,111.4c-9.4,7.9-17.9,2.4-17.9,2.4c3.8-7.1,14-5.5,14-5.5c-1.5-1.5-4.9-2.1-8.2-1.5
					c-3.1,0.6-5.2,3.6-5.4,3.9c0.2-0.4,2.9-6,9.2-6C132,104.7,133.8,111.4,133.8,111.4z"/>
				<path class="st9" d="M114.6,134.9c-0.2,0.1-0.4,0-0.5,0c-0.7-0.2-1.4-0.3-2.1-0.3c0,0,0,0,0,0c-0.9,0.6-1.8,1.5-2.9,1.7
					c0,0,0,0-0.1,0c-0.3,0.1-0.6,0.1-0.8,0.2c-0.7,0-1.4,0.1-2.1-0.1c-0.2,0-0.4-0.1-0.5-0.2c-0.4-0.1-0.8-0.3-1.2-0.6
					c-0.6-0.4-1-0.8-1.5-1.1c0,0,0,0,0,0c-0.7,0-1.5,0.1-2.2,0.3c-0.1,0-0.3,0.1-0.5,0c-0.7-0.3-0.3-1,0.2-1.3
					c1.6-0.9,3.1,0.6,4.3,1.4c0.5,0.3,1,0.5,1.5,0.6c0.7,0.1,1.5,0.1,2.2,0c0.1,0,0.2-0.1,0.3-0.1c1.9-0.4,3.5-3,5.6-1.9
					C114.8,133.8,115.3,134.6,114.6,134.9z"/>
				<path class="st9" d="M113.5,136.2c1.6-0.7,2.6-2.1,2.5-3.9C117.5,133.9,115.6,136.9,113.5,136.2z"/>
				<path class="st10" d="M106.3,136.5c0.2,1.1,0.2,2.1,0.2,3.2c-0.2,1.5-0.1,2.8,1.5,3.1c-0.8,0.9-2.4,0.3-2.8-1
					c-0.3-0.8-0.2-1.6,0-2.4C105.5,138.4,105.8,137.5,106.3,136.5L106.3,136.5z"/>
				<path class="st10" d="M116.8,162.3c-0.1-0.2-2.3-3.7-9.6-3.7c-7.4,0-9.5,3.5-9.6,3.7c0.4-1.3,1.4-2.9,2.9-4
					c1.5-1.2,2-1.5,0.3-3.1c-1-1-1.4-2.1-1.6-2.8c1.8,2.1,3.4,2.7,8,2.7s6.2-0.6,8-2.7c-0.1,0.7-0.5,1.9-1.6,2.8
					c-1.7,1.6-1.1,1.9,0.3,3.1C115.4,159.5,116.4,161,116.8,162.3z"/>
				<path class="st11" d="M107.4,134.1c6.6,0,2.1-14.5,1.5-19.1c-0.6-4.6-1.6-4.7-1.6-4.7s-1,0.1-1.6,4.7
					c-0.6,4.6-5.1,19.1,1.5,19.1H107.4z"/>
				<path class="st6" d="M98.6,114c-0.6,3.6-15.7,11.4-10.2,5.8c-2.2-0.1-5.7,0.1-7-2c-0.1-1.3,1.7-1.4,2.6-1.5
					c3.1-0.1,6.4,0.3,9.3-0.5c-2.2,0.3-4.9,0.1-7.8-1.1c-0.4-0.1-2-1.1-2.4-1.2c-3.6-0.8-4.8-0.3-5.9,0.3c-0.4,0.2-0.7,0.7-1.2,0.6
					c-0.5-0.1-0.5-0.6-0.2-0.9c0.5-0.6,1.2-1.1,1.9-1.5c-0.9-0.3-1.7-0.7-2.4-1.4c-0.3-0.3-0.8-0.6-0.6-1.1c0.2-0.5,0.7-0.3,1.1-0.2
					c0.6,0.2,1.1,0.4,1.7,0.7c0.4,0.2,0.8,0.3,1.3,0.5c0.1,0,0.1,0,0.2,0.1c0.1,0,0.1,0,0.2,0.1c0.8,0.2,1.6-0.1,2.2-0.6
					c1-2,3.3-5,7.6-5c6.3,0,9,5.7,9.2,6c-0.2-0.2-2.2-3.2-5.4-3.9c-3.3-0.6-6.7,0-8.2,1.5C84.6,108.5,94.7,106.8,98.6,114L98.6,114z
					"/>
				<g>
					<path class="st12" d="M118.6,148.1c0,0-1.6,2.2-3.4,4.3c0,0,0,0,0,0c-1.8,2.1-3.4,2.7-8,2.7s-6.2-0.6-8-2.7c0,0,0,0,0,0
						c-1.8-2.1-3.4-4.3-3.4-4.3c2.5-0.1,6.2-3.3,7.8-3.4c0.7,0,1.7,0.3,2.5,0.5c0.7,0.2,1.4,0.2,2.1,0c0.8-0.3,1.9-0.5,2.5-0.5
						C112.3,144.7,116.1,148,118.6,148.1z"/>
					<path class="st13" d="M120.2,147.3c-1.5,1.8-4.2,2.1-6.4,1.8c-1.1-0.1-2.2-0.2-3.1,0.1c-1.1,0.4-2.2,0.7-3.4,0.7
						c-1.2,0-2.3-0.4-3.4-0.7c-2.1-0.5-4.4,0.4-6.6-0.2c-1.1-0.3-2.2-0.9-2.9-1.7c0.9,0.6,2,1,3,1.1c2.3,0.2,4.4-0.9,6.7-0.4
						c1,0.3,2,0.7,3.1,0.6c1.1,0.1,2.1-0.3,3.1-0.6c2.4-0.5,4.5,0.6,6.7,0.4C118.2,148.3,119.2,147.9,120.2,147.3L120.2,147.3z"/>
					<path class="st14" d="M108.9,154.2c-2.8,0.4-8.4-0.5-6.5-3c0.1-0.1,0.2-0.2,0.3-0.3c0.4-0.3,1-0.4,1.5-0.3c4,1.1,6-1,7.9,0.2
						C113.5,152.2,110.4,154.2,108.9,154.2z"/>
				</g>
				<path class="st29" d="M139.2,138.2c-0.7,4.2-1.3,8.4-2.2,12.6c-0.7,3.1-1.9,6.3-3.8,8.9c-2,2.6-4.7,4.5-7.5,6.2l-5.4,3.4
					c-3.6,2.2-7.4,4.8-11.8,5.2c0,0,0.6-0.7,0.6-0.7l0,0.1l0.1,0.6c-5.9,1-11.2-2.8-15.9-5.7c-3.3-2.2-7.3-4.2-10.1-7
					c-1-1-1.9-2.1-2.6-3.3l0.4,0.2c-0.1,0-0.2,0-0.3-0.1c-0.1-0.1-0.2-0.2-0.2-0.4c0,0,0.1,0.2,0.1,0.2c-1.8-3-2.7-6.4-3.4-9.8
					c-0.6-3-1.2-7.2-1.7-10.2c0,0,0,0,0,0c0,0,0,0,0,0c0.7,3,1.5,7.1,2.2,10.1c0.8,3.3,1.8,6.7,3.7,9.6c0,0,0,0.1,0,0.1
					c0-0.2-0.2-0.5-0.4-0.4c0,0,0.4,0.2,0.4,0.2c2,3.3,5.9,5.6,9.1,7.6c0,0,3.5,2.1,3.5,2.1c3.5,2,6.8,4.4,10.7,5.3
					c1.3,0.3,2.6,0.4,3.8,0.2l-0.6,0.7l0-0.1l-0.1-0.6l0.7-0.1c4.1-0.4,7.7-2.9,11.3-5c0,0,5.5-3.3,5.5-3.3c2.7-1.6,5.4-3.3,7.3-5.8
					c2-2.5,3.1-5.4,4-8.4C137.5,146.5,138.2,142.3,139.2,138.2L139.2,138.2z"/>
				<path class="st8" d="M98.6,125.7c-0.4,1-1,1.9-1.6,2.7c-1.3,1.7-3,3-4.9,3.8c-2.1,0.8-4.4,0.9-6.5,0.1c-2-0.7-3.6-2.3-4.8-4
					c-0.6-0.9-1.2-1.9-1.2-3c0.1-1.1,0.9-1.8,1.9-2c0.6-0.1,1.3,0,1.9,0c0.7,0.1,1.3,0.1,2,0.2c1,0.1,2,0.1,3,0.1
					c1.7-0.1,3.5-0.5,5.1-1.1c0.6-0.2,1.2-0.4,1.7-0.7c0.5-0.2,1.1-0.5,1.6-0.6c1-0.2,1.9,0.4,2.3,1.3
					C99.5,123.5,99.1,124.7,98.6,125.7z"/>
			</g>
			<g>
				<g>
					<path class="st15" d="M83.6,120.1c2.3,0.4,4.5,0.4,6.7-0.2c2.4-0.6,4.7-1.6,7.1-2.1c1.2-0.3,2.8-0.5,3.8,0.5
						c1.1,1.1,1.2,3,1.1,4.4c-0.2,3-1.9,5.6-3.8,7.9c-1.7,2-3.5,3.9-5,6.1c-1.3,2-1.9,4.6-3.6,6.4c-1,1-2.4,1.5-3.8,1.8
						c-1.8,0.4-3.5,0.3-4.9-0.9c-2.2-1.8-2.8-4.9-3.3-7.5c-0.7-3.3-1.2-6.8-0.8-10.1c0.2-1.7,0.7-3.6,2-4.9
						C80.3,120.4,82,119.9,83.6,120.1c0.4,0.1,0.6-0.5,0.2-0.6c-2.5-0.3-4.9,0.8-6.1,3.1c-1.5,2.9-1.3,6.5-1,9.6
						c0.6,4.8,1.7,14.3,8.5,13.6c2.9-0.3,5.2-1.5,6.6-4c0.7-1.2,1.2-2.5,1.8-3.7c0.9-1.6,2-3,3.2-4.3c2-2.4,4.2-4.7,5.4-7.6
						c0.9-2.3,1.4-5.8-0.3-7.9c-1.9-2.3-5.9-0.6-8.1,0.1c-1.5,0.5-2.9,1-4.4,1.3c-1.9,0.4-3.7,0.4-5.6,0
						C83.3,119.5,83.2,120.1,83.6,120.1L83.6,120.1z"/>
				</g>
			</g>
			<g>
				<path class="st33" d="M90.6,125.4c-0.8-1.2,1.9-2.5,2.3-0.9C93.3,125.7,91.4,126,90.6,125.4z"/>
				<path class="st33" d="M82.1,127c0.2,0.7-0.9,1.1-1.2,0.5C80.5,126.6,81.9,126.1,82.1,127z"/>
				<path class="st33" d="M87.1,136.1c0,1.1-1.6,1.2-1.7,0.1C85.3,135.1,87,135,87.1,136.1z"/>
				<path class="st33" d="M89.3,135.9c0.3,0.9-1.2,1.4-1.4,0.4C87.7,135.4,89,134.9,89.3,135.9z"/>
				<path class="st33" d="M86.1,125.6c-0.3-0.6,0.7-1,0.9-0.4C87.3,125.7,86.4,126.2,86.1,125.6z"/>
				<path class="st33" d="M85.5,139.1c-0.6,0-0.7-1,0-1C86.1,138.1,86.2,139.1,85.5,139.1z"/>
				<path class="st33" d="M87.1,127.4c0.7,0.1,0.7,1.1,0,1.3c-0.6,0.2-1-0.6-0.6-1.1c0,0,0,0,0,0C86.7,127.4,86.9,127.4,87.1,127.4z
					"/>
				<path class="st33" d="M90.1,129.8c0.5,1.7-2.7,2.9-3.1,1.1C87.4,130.2,89.7,128.4,90.1,129.8z"/>
				<path class="st33" d="M91.5,127.3c-0.2,1-1.7,0.4-1.3-0.5C90.5,126.1,91.7,126.6,91.5,127.3z"/>
				<path class="st33" d="M92.7,131.3c0.2,0.7-0.8,0.8-1,0.2C91.6,130.8,92.6,130.6,92.7,131.3z"/>
				<path class="st33" d="M94.2,128.5c0.6,0,0.7,1,0,1C93.7,129.4,93.6,128.5,94.2,128.5"/>
				<path class="st33" d="M88.1,137.7c0.4,0.6-0.5,1.3-1,0.8c-0.5-0.3-0.2-1.3,0.4-1.1C87.7,137.3,88,137.4,88.1,137.7z"/>
				<path class="st33" d="M84.7,126c0.3,0.6-0.3,1.3-0.9,1C82.5,126.5,84,124.7,84.7,126z"/>
				<path class="st33" d="M95.6,126c-0.9,0-1-1.4,0-1.4C96.4,124.5,96.5,126,95.6,126z"/>
				<path class="st33" d="M96.9,127.5c-0.2,0.7-1.4,0.7-1.6,0C95,126.2,97.3,126.1,96.9,127.5z"/>
				<path class="st33" d="M92.5,129.2c-0.6,0-0.7-1,0-1S93.2,129.2,92.5,129.2z"/>
				<path class="st33" d="M84.5,128.5c0.7,0.6-0.3,1.6-0.9,1C82.9,128.9,83.9,127.9,84.5,128.5z"/>
			</g>
		</g>
	</g>
	<g style="clip-path:url(#SVGID_00000030474894828465451120000004148760782196948128_);">
		<defs>
			<rect id="SVGID_00000164475544114741767280000010876326166708919228_" x="109.3" y="86.1" width="57.3" height="90.7"/>
		</defs>
		<clipPath id="SVGID_00000126311156177347772320000011149921184022134439_">
			<use xlink:href="#SVGID_00000164475544114741767280000010876326166708919228_"  style="overflow:visible;"/>
		</clipPath>
		<g style="clip-path:url(#SVGID_00000126311156177347772320000011149921184022134439_);">
			<rect x="110.7" y="85" class="st35" width="72.8" height="99.2"/>
			<g>
				<path class="st36" d="M207.7,98.3c-0.3,4-0.9,8.1-1.5,12c-0.5,3.5-0.9,7.2-2.7,10.3c-0.7,1.2-1.6,2.2-2.6,3
					c-2.9,3.1-7.3,4-11.4,3.2c-5-1-9.2-4.1-13.2-7.2c-3.8-2.9-7.9-6-12.8-6.7c-4.9-0.7-9.5,1.6-13.5,4.1c-4.2,2.5-8.4,5.3-13.4,6.1
					c-2.4,0.4-4.9,0.3-7.1-0.6c-2-0.8-3.8-2.1-5.3-3.7c-3.1-3.4-5.1-7.9-6.2-12.3c-1.2-4.8-1.4-9.7-0.6-14.6c0.4-2.5,1.1-4.8,2-7.1
					c0.9-2.4,0.5-12.2,0.9-14.6c2.7-15.1,18.1-18.6,23-20c4.9-1.3,9.5-3.4,14.5-4.6c2.4-0.6,4.9-0.9,7.4-0.7
					c2.5,0.2,4.9,0.8,7.2,1.7c2.4,0.9,4.6,2.1,6.8,3.3c2.1,1.2,4.3,2.4,6.4,3.6c4.2,2.5,8.2,5.2,11.6,8.6c4.2,4.4,7,9.8,8.6,15.5
					C208.1,84.4,208.3,91.4,207.7,98.3z"/>
				<path class="st6" d="M175.1,67.2c1.7-1.4,4.2-3.3,5.8-4.8c1.6-1.5,3.8-3.8,5.3-5.4C184.4,61.8,180.1,65.7,175.1,67.2L175.1,67.2
					z"/>
				<path class="st6" d="M177.2,67.2c5.1-2.7,9.7-6.6,14.7-9.4c0,0-0.6,1.6-0.6,1.6c-1.5,4.1-4.8,7.6-8.9,9.4c0,0-0.3-1.1-0.3-1.1
					c2.4-0.2,4.8-0.6,7.2-1.2c2.3-0.7,4.9-1,6.6-2.9c-0.6,1.1-1.7,1.8-2.9,2.4c-4.5,2.1-9.6,2.9-14.5,3.5c0,0,3.4-1.6,3.4-1.6
					c3.7-1.8,6.7-4.9,8.3-8.7c0,0,0.8,0.7,0.8,0.7C186.4,62.2,182.2,65.5,177.2,67.2L177.2,67.2z"/>
				<path class="st6" d="M153.7,67.9c-7-2.1-13.1-7-18-12.3c0,0,1.1-0.4,1.1-0.4c0.3,4.4,2.6,8.7,6.2,11.3c0,0,1.5,1.1,1.5,1.1
					l-1.9,0c-6-0.1-12.1-2.9-15.9-7.5c4.3,4,10,6.4,15.9,6.3c0,0-0.3,1.1-0.3,1.1c-3-2.1-5.2-5.2-6.2-8.7c-0.5-1.7-0.6-3.6-0.6-5.3
					c2.7,3.2,5.7,6.2,9,8.8C147.3,64.5,150.3,66.5,153.7,67.9L153.7,67.9z"/>
				<path class="st6" d="M126,63.3c3.7,2.5,7.7,4.2,12.1,5C133.6,69.4,128.4,67.3,126,63.3L126,63.3z"/>
				<path class="st6" d="M123.8,68.2c4.1,1.1,8.1,1.4,12.3,1C132.4,71.5,127.1,71,123.8,68.2L123.8,68.2z"/>
			</g>
			<g>
				<path class="st37" d="M205.8,118.9c0,0.9-0.1,1.8-0.3,2.7c-0.2,0.9-0.5,1.7-0.8,2.6c-1.2,3.3-2.6,6.5-3.9,9.7
					c-0.2,0.5-0.4,1.1-0.8,1.6c-1,1.7-3,2.8-5,2.7c-0.1,0-0.1,0-0.2,0h0c-0.5,2.4-0.9,4.8-1.4,7.2c-0.8,4.3-1.8,8.9-4.1,12.6
					c-0.4,0.6-0.9,1.3-1.4,1.9c-1.3,1.5-2.8,2.7-4.4,3.8c-0.1,0-0.1,0.1-0.2,0.1c0,0,0,0,0,0c-1,0.7-2,1.3-3.1,2
					c-2.1,1.3-4.1,2.5-6.2,3.8c-3.1,1.9-6.5,3.9-10.1,4.2l0,0.1c-4.4,0.6-8.6-1.8-12.4-4.1c-2.1-1.3-4.1-2.5-6.2-3.8
					c-1-0.6-2.1-1.3-3.1-2c0,0,0,0,0,0c-1.7-1.1-3.3-2.4-4.6-3.9c-0.5-0.6-0.9-1.2-1.3-1.8c0,0,0,0,0,0v0c-2.3-3.7-3.2-8.2-4.1-12.6
					c-0.5-2.4-0.9-4.8-1.4-7.2h0c-0.1,0-0.1,0-0.2,0c-2,0-3.9-1.1-5-2.7c-0.3-0.5-0.5-1-0.8-1.6c-1.3-3.2-2.7-6.4-3.9-9.7
					c-0.3-0.8-0.6-1.7-0.8-2.6c-0.2-0.9-0.3-1.8-0.3-2.7c0-0.9,0.1-1.7,0.2-2.5c0.2-1.3,0.7-2.6,1.7-3.5c0.9-0.9,2.2-1.3,3.3-1
					c2.4-4.6,2-10,2.1-15.2c0.2-8,1.8-16.4,7.2-22.4c1.6-1.8,3.6-3.4,5.9-4.3c3.5-1.4,7.5-1.1,11.2-0.6c3.8,0.5,18.9,0.3,22.6-0.1
					c3.8-0.5,7.7-0.8,11.2,0.6c2.3,0.9,4.2,2.5,5.9,4.3c5.3,6,7,14.4,7.2,22.4c0.1,5.2-0.3,10.6,2.1,15.2c1.2-0.3,2.5,0.1,3.3,1
					c0.9,0.9,1.4,2.2,1.7,3.5C205.8,117.2,205.9,118,205.8,118.9z"/>
				<path class="st6" d="M131,138.3c-1.6-1.4-1.8-3.3-1.8-3.3c-1.7,0.6-4.9-0.9-4.7-5.9c0.2-5-0.1-7.1-1.4-8.2c-1.3-1-1.5,1-1.5,1
					c-1.5-5.3-0.2-6.6-0.2-6.6c2.1-1.6,5.6,9.4,4.6,12.8c-1,3.5,0.7,6.1,2.2,5.4c0.9-0.4,0.3-6.4-0.3-11.6c1,6,2.4,13.2,2.8,15.5
					l0,0.2l0,0.2l0,0.2l0,0.1L131,138.3z"/>
				<path class="st8" d="M142.4,163.9C142.4,163.9,142.4,163.9,142.4,163.9c-1.7-1.1-3.3-2.4-4.6-3.9c-0.5-0.6-0.9-1.2-1.3-1.8
					c0,0,0,0,0,0v0c-2.3-3.7-3.2-8.2-4.1-12.6c-0.5-2.4-0.9-4.8-1.4-7.2h0c-0.1,0-0.1,0-0.2,0l-2.8-15c0-0.3-0.1-0.6-0.1-0.9
					c0.4,0.5,2.8,3.2,6.4,5.7c4,2.7,7.9,7.2,5.7,17.2C137.8,155.3,142.4,163.9,142.4,163.9z"/>
				<path class="st6" d="M146.3,153.3c0,0-1.8-2.5-1.1-6.4c0.7-3.9,5.5-7.4,5.5-7.4S145,145,146.3,153.3z"/>
				<path class="st9" d="M156.6,136.3c-2.1,0.7-4-2.2-2.5-3.9C154.1,134.2,155,135.7,156.6,136.3z"/>
				<path class="st6" d="M145.8,90.7c-2.6,0.8-5.4,0.8-8,0C140.4,90.3,143.1,90.3,145.8,90.7z"/>
				<path class="st6" d="M137.1,81c8.7,1.3,17.2-4.1,25.9-2C154.3,78.1,145.8,83.6,137.1,81z"/>
				<path class="st6" d="M162.6,88.9c-1.8,0-4.4,0-6.2,0.1c-1.8,0.1-4.4,0.5-6.2,0.7C154,87.9,158.6,87.6,162.6,88.9z"/>
				<path class="st6" d="M204.2,121.8c0,0-0.1-2-1.5-1c-1.3,1-1.6,3.2-1.4,8.2c0.2,5-3,6.5-4.7,5.9c0,0-0.2,1.8-1.8,3.3l0-0.1l0-0.1
					l0-0.2l0-0.2c0.4-2.1,1.8-9.5,2.9-15.7c-0.6,5.2-1.2,11.2-0.3,11.6c1.5,0.7,3.2-1.9,2.2-5.4c-1-3.5,2.5-14.5,4.6-12.8
					C204.3,115.2,205.7,116.4,204.2,121.8z"/>
				<path class="st8" d="M198,122.2c0,0.3-0.1,0.6-0.1,0.9l-2.8,15c-0.1,0-0.1,0-0.2,0h0c-0.5,2.4-0.9,4.8-1.4,7.2
					c-0.8,4.3-1.8,8.9-4.1,12.6c-0.4,0.6-0.9,1.3-1.4,1.9c-1.3,1.5-2.8,2.7-4.4,3.8c-0.1,0-0.1,0.1-0.2,0.1c0,0,0,0,0,0
					c0.1-0.2,4.6-8.7,2.4-18.6c-2.2-10,1.8-14.5,5.7-17.2C195.1,125.5,197.6,122.7,198,122.2z"/>
				<path class="st6" d="M189.5,111.4c-9.4,7.9-17.9,2.4-17.9,2.4c3.8-7.1,14-5.5,14-5.5c-1.5-1.5-4.9-2.1-8.2-1.5
					c-3.1,0.6-5.2,3.6-5.4,3.9c0.2-0.4,2.9-6,9.2-6C187.7,104.7,189.5,111.4,189.5,111.4z"/>
				<path class="st9" d="M170.2,134.9c-0.2,0.1-0.4,0-0.5,0c-0.7-0.2-1.4-0.3-2.1-0.3c0,0,0,0,0,0c-0.9,0.6-1.8,1.5-2.9,1.7
					c0,0,0,0-0.1,0c-0.3,0.1-0.6,0.1-0.8,0.2c-0.7,0-1.4,0.1-2.1-0.1c-0.2,0-0.4-0.1-0.5-0.2c-0.4-0.1-0.8-0.3-1.2-0.6
					c-0.6-0.4-1-0.8-1.5-1.1c0,0,0,0,0,0c-0.7,0-1.5,0.1-2.2,0.3c-0.1,0-0.3,0.1-0.5,0c-0.7-0.3-0.3-1,0.2-1.3
					c1.6-0.9,3.1,0.6,4.3,1.4c0.5,0.3,1,0.5,1.5,0.6c0.7,0.1,1.5,0.1,2.2,0c0.1,0,0.2-0.1,0.3-0.1c1.9-0.4,3.5-3,5.6-1.9
					C170.5,133.8,171,134.6,170.2,134.9z"/>
				<path class="st9" d="M169.2,136.2c1.6-0.7,2.6-2.1,2.5-3.9C173.2,133.9,171.3,136.9,169.2,136.2z"/>
				<path class="st10" d="M162,136.5c0.2,1.1,0.2,2.1,0.2,3.2c-0.2,1.5-0.1,2.8,1.5,3.1c-0.8,0.9-2.4,0.3-2.8-1
					c-0.3-0.8-0.2-1.6,0-2.4C161.2,138.4,161.4,137.5,162,136.5L162,136.5z"/>
				<path class="st10" d="M172.5,162.3c-0.1-0.2-2.3-3.7-9.6-3.7c-7.4,0-9.5,3.5-9.6,3.7c0.4-1.3,1.4-2.9,2.9-4
					c1.5-1.2,2-1.5,0.3-3.1c-1-1-1.4-2.1-1.6-2.8c1.8,2.1,3.4,2.7,8,2.7c4.6,0,6.2-0.6,8-2.7c-0.1,0.7-0.5,1.9-1.6,2.8
					c-1.7,1.6-1.1,1.9,0.3,3.1C171.1,159.5,172.1,161,172.5,162.3z"/>
				<path class="st11" d="M163.1,134.1c6.6,0,2.1-14.5,1.5-19.1c-0.6-4.6-1.6-4.7-1.6-4.7s-1,0.1-1.6,4.7
					c-0.6,4.6-5.1,19.1,1.5,19.1H163.1z"/>
				<path class="st6" d="M154.2,114c-0.6,3.6-15.7,11.4-10.2,5.8c-2.2-0.1-5.7,0.1-7-2c-0.1-1.3,1.7-1.4,2.6-1.5
					c3.1-0.1,6.4,0.3,9.3-0.5c-2.2,0.3-4.9,0.1-7.8-1.1c-0.4-0.1-2-1.1-2.4-1.2c-3.6-0.8-4.8-0.3-5.9,0.3c-0.4,0.2-0.7,0.7-1.2,0.6
					c-0.5-0.1-0.5-0.6-0.2-0.9c0.5-0.6,1.2-1.1,1.9-1.5c-0.9-0.3-1.7-0.7-2.4-1.4c-0.3-0.3-0.8-0.6-0.6-1.1c0.2-0.5,0.7-0.3,1.1-0.2
					c0.6,0.2,1.1,0.4,1.7,0.7c0.4,0.2,0.8,0.3,1.3,0.5c0.1,0,0.1,0,0.2,0.1c0.1,0,0.1,0,0.2,0.1c0.8,0.2,1.6-0.1,2.2-0.6
					c1-2,3.3-5,7.6-5c6.3,0,9,5.7,9.2,6c-0.2-0.2-2.2-3.2-5.4-3.9c-3.3-0.6-6.7,0-8.2,1.5C140.3,108.5,150.4,106.8,154.2,114
					L154.2,114z"/>
				<g>
					<path class="st12" d="M174.3,148.1c0,0-1.6,2.2-3.4,4.3c0,0,0,0,0,0c-1.8,2.1-3.4,2.7-8,2.7c-4.6,0-6.2-0.6-8-2.7c0,0,0,0,0,0
						c-1.8-2.1-3.4-4.3-3.4-4.3c2.5-0.1,6.2-3.3,7.8-3.4c0.7,0,1.7,0.3,2.5,0.5c0.7,0.2,1.4,0.2,2.1,0c0.8-0.3,1.9-0.5,2.5-0.5
						C168,144.7,171.8,148,174.3,148.1z"/>
					<path class="st13" d="M175.8,147.3c-1.5,1.8-4.2,2.1-6.4,1.8c-1.1-0.1-2.2-0.2-3.1,0.1c-1.1,0.4-2.2,0.7-3.4,0.7
						c-1.2,0-2.3-0.4-3.4-0.7c-2.1-0.5-4.4,0.4-6.6-0.2c-1.1-0.3-2.2-0.9-2.9-1.7c0.9,0.6,2,1,3,1.1c2.3,0.2,4.4-0.9,6.7-0.4
						c1,0.3,2,0.7,3.1,0.6c1.1,0.1,2.1-0.3,3.1-0.6c2.4-0.5,4.5,0.6,6.7,0.4C173.9,148.3,174.9,147.9,175.8,147.3L175.8,147.3z"/>
					<path class="st14" d="M164.5,154.2c-2.8,0.4-8.4-0.5-6.5-3c0.1-0.1,0.2-0.2,0.3-0.3c0.4-0.3,1-0.4,1.5-0.3c4,1.1,6-1,7.9,0.2
						C169.2,152.2,166,154.2,164.5,154.2z"/>
				</g>
				<path class="st8" d="M154.3,125.7c-0.4,1-1,1.9-1.6,2.7c-1.3,1.7-3,3-4.9,3.8c-2.1,0.8-4.4,0.9-6.5,0.1c-2-0.7-3.6-2.3-4.8-4
					c-0.6-0.9-1.2-1.9-1.2-3c0.1-1.1,0.9-1.8,1.9-2c0.6-0.1,1.3,0,1.9,0c0.7,0.1,1.3,0.1,2,0.2c1,0.1,2,0.1,3,0.1
					c1.7-0.1,3.5-0.5,5.1-1.1c0.6-0.2,1.2-0.4,1.7-0.7c0.5-0.2,1.1-0.5,1.6-0.6c1-0.2,1.9,0.4,2.3,1.3
					C155.2,123.5,154.8,124.7,154.3,125.7z"/>
			</g>
			<g>
				<g>
					<path class="st15" d="M139.2,120.1c2.3,0.4,4.5,0.4,6.7-0.2c2.4-0.6,4.7-1.6,7.1-2.1c1.2-0.3,2.8-0.5,3.8,0.5
						c1.1,1.1,1.2,3,1.1,4.4c-0.2,3-1.9,5.6-3.8,7.9c-1.7,2-3.5,3.9-5,6.1c-1.3,2-1.9,4.6-3.6,6.4c-1,1-2.4,1.5-3.8,1.8
						c-1.8,0.4-3.5,0.3-4.9-0.9c-2.2-1.8-2.8-4.9-3.3-7.5c-0.7-3.3-1.2-6.8-0.8-10.1c0.2-1.7,0.7-3.6,2-4.9
						C136,120.4,137.6,119.9,139.2,120.1c0.4,0.1,0.6-0.5,0.2-0.6c-2.5-0.3-4.9,0.8-6.1,3.1c-1.5,2.9-1.3,6.5-1,9.6
						c0.6,4.8,1.7,14.3,8.5,13.6c2.9-0.3,5.2-1.5,6.6-4c0.7-1.2,1.2-2.5,1.8-3.7c0.9-1.6,2-3,3.2-4.3c2-2.4,4.2-4.7,5.4-7.6
						c0.9-2.3,1.4-5.8-0.3-7.9c-1.9-2.3-5.9-0.6-8.1,0.1c-1.5,0.5-2.9,1-4.4,1.3c-1.9,0.4-3.7,0.4-5.6,0
						C139,119.5,138.8,120.1,139.2,120.1L139.2,120.1z"/>
				</g>
			</g>
			<g>
				<path class="st15" d="M146.3,125.4c-0.8-1.2,1.9-2.5,2.3-0.9C149,125.7,147.1,126,146.3,125.4z"/>
				<path class="st15" d="M137.8,127c0.2,0.7-0.9,1.1-1.2,0.5C136.1,126.6,137.6,126.1,137.8,127z"/>
				<path class="st15" d="M142.8,136.1c0,1.1-1.6,1.2-1.7,0.1C141,135.1,142.7,135,142.8,136.1z"/>
				<path class="st15" d="M145,135.9c0.3,0.9-1.2,1.4-1.4,0.4C143.3,135.4,144.7,134.9,145,135.9z"/>
				<path class="st15" d="M141.8,125.6c-0.3-0.6,0.7-1,0.9-0.4C143,125.7,142,126.2,141.8,125.6z"/>
				<path class="st15" d="M141.2,139.1c-0.6,0-0.7-1,0-1C141.8,138.1,141.8,139.1,141.2,139.1z"/>
				<path class="st15" d="M142.7,127.4c0.7,0.1,0.7,1.1,0,1.3c-0.6,0.2-1-0.6-0.6-1.1c0,0,0,0,0,0
					C142.3,127.4,142.5,127.4,142.7,127.4z"/>
				<path class="st15" d="M145.8,129.8c0.5,1.7-2.7,2.9-3.1,1.1C143.1,130.2,145.4,128.4,145.8,129.8z"/>
				<path class="st15" d="M147.1,127.3c-0.2,1-1.7,0.4-1.3-0.5C146.2,126.1,147.4,126.6,147.1,127.3z"/>
				<path class="st15" d="M148.4,131.3c0.2,0.7-0.8,0.8-1,0.2C147.2,130.8,148.2,130.6,148.4,131.3z"/>
				<path class="st15" d="M149.9,128.5c0.6,0,0.7,1,0,1C149.3,129.4,149.3,128.5,149.9,128.5"/>
				<path class="st15" d="M143.8,137.7c0.4,0.6-0.5,1.3-1,0.8c-0.5-0.3-0.2-1.3,0.4-1.1C143.4,137.3,143.7,137.4,143.8,137.7z"/>
				<path class="st15" d="M140.4,126c0.3,0.6-0.3,1.3-0.9,1C138.2,126.5,139.7,124.7,140.4,126z"/>
				<path class="st15" d="M151.2,126c-0.9,0-1-1.4,0-1.4C152.1,124.5,152.2,126,151.2,126z"/>
				<path class="st15" d="M152.5,127.5c-0.2,0.7-1.4,0.7-1.6,0C150.7,126.2,153,126.1,152.5,127.5z"/>
				<path class="st15" d="M148.2,129.2c-0.6,0-0.7-1,0-1C148.8,128.2,148.8,129.2,148.2,129.2z"/>
				<path class="st15" d="M140.2,128.5c0.7,0.6-0.3,1.6-0.9,1C138.6,128.9,139.6,127.9,140.2,128.5z"/>
			</g>
		</g>
	</g>
</g>
</svg>
