<?xml version="1.0" encoding="utf-8"?>
<!-- Generator: Adobe Illustrator 25.4.8, SVG Export Plug-In . SVG Version: 6.00 Build 0)  -->
<svg version="1.1" id="Layer_1" xmlns="http://www.w3.org/2000/svg" xmlns:xlink="http://www.w3.org/1999/xlink" x="0px" y="0px"
	 viewBox="0 0 166.6 166.6" style="enable-background:new 0 0 166.6 166.6;" xml:space="preserve">
<style type="text/css">
	.st0{clip-path:url(#SVGID_00000162350628497616090000000013524293410134736828_);}
	.st1{opacity:0.18;fill:url(#SVGID_00000140692566305240101730000017312253039996003245_);}
	.st2{fill:#4A407F;}
	.st3{opacity:0.3;}
	.st4{fill:#FDA687;}
	.st5{opacity:0.1;}
	.st6{opacity:0.7;}
	.st7{opacity:0.2;}
	.st8{opacity:0.3;fill:#FFEEE0;}
	.st9{fill:#F67F79;}
	.st10{fill:#D35A5A;}
	.st11{opacity:0.2;fill:#FFFFFF;}
	.st12{fill:#F08262;}
	.st13{opacity:0.4;}
	.st14{fill:#C4574B;}
</style>
<g>
	<defs>
		<circle id="SVGID_1_" cx="83.3" cy="83.3" r="83.3"/>
	</defs>
	<clipPath id="SVGID_00000044872750971048226000000008078890450809532072_">
		<use xlink:href="#SVGID_1_"  style="overflow:visible;"/>
	</clipPath>
	<g style="clip-path:url(#SVGID_00000044872750971048226000000008078890450809532072_);">
		
			<linearGradient id="SVGID_00000098209228756126788110000011221188756186248125_" gradientUnits="userSpaceOnUse" x1="-10.0309" y1="78.5084" x2="179.4607" y2="78.5084">
			<stop  offset="0" style="stop-color:#5F74B1"/>
			<stop  offset="0.2466" style="stop-color:#7A90D2"/>
			<stop  offset="0.4903" style="stop-color:#8FA6EB"/>
			<stop  offset="0.7125" style="stop-color:#9CB3FA"/>
			<stop  offset="0.8936" style="stop-color:#A0B7FF"/>
		</linearGradient>
		
			<circle style="opacity:0.18;fill:url(#SVGID_00000098209228756126788110000011221188756186248125_);" cx="84.7" cy="78.5" r="94.7"/>
		<g>
			<path class="st2" d="M126.3,61c-0.3,3.9-0.9,7.8-1.5,11.7c-0.5,3.4-0.9,7-2.7,10c-0.7,1.2-1.5,2.1-2.5,2.9
				c-2.8,3-7.1,3.9-11.1,3.1c-4.9-1-8.9-4-12.8-7C92,79,88,76,83.3,75.3c-4.8-0.7-9.2,1.6-13.2,3.9c-4.1,2.4-8.2,5.2-13,6
				c-2.3,0.4-4.7,0.3-7-0.6c-2-0.7-3.7-2-5.1-3.6c-3-3.3-4.9-7.7-6-12c-1.2-4.6-1.4-9.5-0.6-14.2c0.4-2.4,1.1-4.7,1.9-6.9
				c0.9-2.3,0.5-11.8,0.9-14.2C43.8,19,58.8,15.6,63.6,14.3c4.8-1.3,9.3-3.3,14.1-4.4C80,9.3,82.5,9,84.9,9.2c2.4,0.2,4.8,0.8,7,1.6
				c2.3,0.9,4.5,2,6.6,3.2c2.1,1.2,4.2,2.3,6.2,3.5c4,2.4,8,5,11.3,8.4c4.1,4.2,6.8,9.5,8.4,15.1C126.6,47.4,126.9,54.3,126.3,61z"
				/>
			<path class="st3" d="M94.6,30.7c1.7-1.3,4.1-3.2,5.7-4.7c1.6-1.4,3.7-3.7,5.2-5.2C103.6,25.5,99.4,29.3,94.6,30.7L94.6,30.7z"/>
			<path class="st3" d="M96.6,30.7c5-2.6,9.4-6.4,14.3-9.1c0,0-0.6,1.5-0.6,1.5c-1.5,4-4.7,7.4-8.7,9.1c0,0-0.3-1.1-0.3-1.1
				c2.4-0.2,4.7-0.6,7-1.2c2.2-0.6,4.8-1,6.4-2.8c-0.6,1.1-1.7,1.8-2.8,2.3c-4.4,2.1-9.4,2.8-14.1,3.4c0,0,3.3-1.6,3.3-1.6
				c3.6-1.7,6.5-4.8,8.1-8.5c0,0,0.8,0.7,0.8,0.7C105.6,25.9,101.5,29.1,96.6,30.7L96.6,30.7z"/>
			<path class="st3" d="M73.7,31.4c-6.8-2.1-12.7-6.8-17.5-12c0,0,1-0.4,1-0.4c0.3,4.3,2.6,8.5,6,11c0,0,1.5,1.1,1.5,1.1l-1.8,0
				c-5.9-0.1-11.8-2.8-15.5-7.3c4.2,3.9,9.8,6.2,15.5,6.2c0,0-0.3,1.1-0.3,1.1c-2.9-2-5-5.1-6-8.4c-0.5-1.6-0.6-3.5-0.6-5.2
				c2.6,3.1,5.5,6,8.7,8.5C67.5,28.1,70.5,30.1,73.7,31.4L73.7,31.4z"/>
			<path class="st3" d="M46.8,27c3.6,2.5,7.5,4.1,11.8,4.9C54.3,32.9,49.2,30.8,46.8,27L46.8,27z"/>
			<path class="st3" d="M44.7,31.7c4,1,7.9,1.3,12,1C53,34.9,47.9,34.5,44.7,31.7L44.7,31.7z"/>
		</g>
		<path class="st2" d="M137,150.8c0.1,7-2.1,14-6.1,19.7c-4,5.7-9.9,10.1-16.6,12.3c0-6.2-4.6-11.3-8.2-16.3
			c-8.5-11.9-12.3-27-10.5-41.5c1.7-14.1,8.8-27.4,19.3-36.9c-0.3,11,5.1,21.4,10.5,31C130.9,129.1,136.8,139.4,137,150.8z"/>
		<g>
			<path class="st4" d="M124.5,81c0,0.9-0.1,1.8-0.3,2.6c-0.2,0.8-0.5,1.7-0.8,2.5c-1.2,3.2-2.5,6.3-3.8,9.4
				c-0.2,0.5-0.4,1.1-0.7,1.5c-1,1.6-2.9,2.7-4.8,2.7c-0.1,0-0.1,0-0.2,0h0c-0.4,2.3-0.9,4.7-1.3,7c-0.8,4.2-1.7,8.6-4,12.2
				c-0.4,0.6-0.8,1.2-1.3,1.8c-1.2,1.5-2.7,2.7-4.3,3.7c-0.1,0-0.1,0.1-0.2,0.1c0,0,0,0,0,0c-1,0.7-2,1.3-3,1.9c-2,1.2-4,2.5-6,3.7
				c-3,1.9-6.3,3.8-9.8,4.1l0,0.1c-4.3,0.6-8.4-1.8-12-4c-2-1.2-4-2.5-6-3.7c-1-0.6-2-1.2-3-1.9c0,0,0,0,0,0
				c-1.6-1.1-3.2-2.3-4.4-3.8c-0.5-0.6-0.9-1.2-1.3-1.8c0,0,0,0,0,0v0c-2.3-3.6-3.2-8-4-12.2c-0.4-2.3-0.9-4.7-1.3-7h0
				c-0.1,0-0.1,0-0.2,0c-1.9,0-3.8-1-4.8-2.7c-0.3-0.5-0.5-1-0.7-1.5c-1.3-3.1-2.6-6.3-3.8-9.4c-0.3-0.8-0.6-1.6-0.8-2.5
				C41.1,82.9,41,82,41,81.1c0-0.8,0.1-1.7,0.2-2.5c0.2-1.3,0.7-2.5,1.6-3.4c0.8-0.8,2.1-1.3,3.3-1c2.3-4.4,2-9.8,2.1-14.8
				c0.2-7.8,1.8-16,7-21.7c1.6-1.8,3.5-3.3,5.7-4.2c3.4-1.4,7.3-1.1,10.9-0.6c3.7,0.5,18.4,0.3,22-0.1c3.7-0.5,7.5-0.7,10.9,0.6
				c2.2,0.9,4.1,2.4,5.7,4.2c5.2,5.8,6.8,14,7,21.7c0.1,5-0.3,10.3,2.1,14.8c1.1-0.3,2.4,0.1,3.3,1c0.9,0.9,1.4,2.2,1.6,3.4
				C124.4,79.3,124.5,80.2,124.5,81z"/>
			<path class="st3" d="M51.7,99.9c-1.5-1.4-1.7-3.2-1.7-3.2c-1.6,0.5-4.7-0.9-4.6-5.7c0.2-4.9-0.1-6.9-1.4-8c-1.3-1-1.4,1-1.4,1
				c-1.5-5.2-0.1-6.4-0.1-6.4c2-1.6,5.4,9.1,4.5,12.5c-0.9,3.4,0.7,5.9,2.2,5.2c0.8-0.4,0.3-6.2-0.3-11.2c1,5.9,2.3,12.8,2.7,15.1
				l0,0.2l0,0.2l0,0.2l0,0.1L51.7,99.9z"/>
			<path class="st5" d="M62.8,124.7C62.8,124.7,62.8,124.7,62.8,124.7c-1.6-1.1-3.2-2.3-4.5-3.8c-0.5-0.6-0.9-1.2-1.3-1.8
				c0,0,0,0,0,0v0c-2.3-3.6-3.2-8-4-12.2c-0.4-2.3-0.9-4.7-1.3-7h0c-0.1,0-0.1,0-0.2,0l-2.8-14.6c0-0.3-0.1-0.6-0.1-0.9
				c0.4,0.5,2.8,3.1,6.2,5.5c3.8,2.7,7.7,7,5.6,16.7C58.3,116.4,62.8,124.7,62.8,124.7z"/>
			<path class="st3" d="M66.6,114.4c0,0-1.7-2.5-1.1-6.2c0.7-3.8,5.4-7.2,5.4-7.2S65.3,106.3,66.6,114.4z"/>
			<path class="st6" d="M76.6,98c-2.1,0.7-3.9-2.2-2.4-3.8C74.1,95.9,75,97.3,76.6,98z"/>
			<path class="st3" d="M66.1,53.6c-2.5,0.8-5.3,0.8-7.8,0C60.9,53.2,63.5,53.2,66.1,53.6z"/>
			<path class="st3" d="M57.6,44.2c8.5,1.3,16.7-4,25.2-2C74.4,41.4,66.1,46.7,57.6,44.2z"/>
			<path class="st3" d="M82.4,51.8c-1.8,0-4.3,0-6,0.1c-1.7,0.1-4.2,0.5-6,0.7C74.1,50.9,78.5,50.6,82.4,51.8z"/>
			<path class="st3" d="M122.8,83.8c0,0-0.1-2-1.4-1c-1.3,1-1.5,3.1-1.4,8c0.2,4.9-2.9,6.3-4.6,5.7c0,0-0.2,1.8-1.7,3.2l0-0.1l0-0.1
				l0-0.2l0-0.2c0.4-2,1.8-9.2,2.8-15.3c-0.6,5-1.1,10.9-0.3,11.2c1.5,0.6,3.1-1.9,2.2-5.2c-0.9-3.4,2.5-14.1,4.5-12.5
				C123,77.4,124.3,78.6,122.8,83.8z"/>
			<path class="st5" d="M116.8,84.3c0,0.3-0.1,0.6-0.1,0.9L114,99.7c-0.1,0-0.1,0-0.2,0h0c-0.4,2.3-0.9,4.7-1.3,7
				c-0.8,4.2-1.7,8.6-4,12.2c-0.4,0.6-0.8,1.2-1.3,1.8c-1.2,1.5-2.7,2.7-4.3,3.7c-0.1,0-0.1,0.1-0.2,0.1c0,0,0,0,0,0
				c0.1-0.2,4.4-8.5,2.3-18.1c-2.1-9.7,1.7-14.1,5.6-16.7C114.1,87.4,116.4,84.7,116.8,84.3z"/>
			<path class="st3" d="M108.6,73.7C99.4,81.4,91.1,76,91.1,76c3.7-7,13.6-5.3,13.6-5.3c-1.5-1.5-4.8-2.1-8-1.4
				c-3.1,0.6-5,3.5-5.2,3.8c0.2-0.3,2.8-5.8,8.9-5.8C106.8,67.2,108.6,73.7,108.6,73.7z"/>
			<path class="st6" d="M89.8,96.5c-0.2,0.1-0.4,0-0.5,0c-0.7-0.2-1.4-0.3-2.1-0.3c0,0,0,0,0,0c-0.9,0.6-1.8,1.4-2.8,1.7
				c0,0,0,0-0.1,0c-0.3,0.1-0.6,0.1-0.8,0.2c-0.7,0-1.4,0.1-2-0.1c-0.2,0-0.3-0.1-0.5-0.2c-0.4-0.1-0.8-0.3-1.2-0.6
				c-0.5-0.3-1-0.7-1.5-1.1c0,0,0,0,0,0c-0.7,0-1.4,0.1-2.1,0.3c-0.1,0-0.3,0.1-0.5,0c-0.7-0.3-0.3-1,0.2-1.2c1.6-0.9,3,0.6,4.2,1.3
				c0.5,0.3,1,0.5,1.5,0.6c0.7,0.1,1.4,0.1,2.1,0c0.1,0,0.2-0.1,0.3-0.1c1.9-0.4,3.4-2.9,5.5-1.9C90.1,95.5,90.6,96.2,89.8,96.5z"/>
			<path class="st6" d="M88.8,97.8c1.6-0.6,2.5-2.1,2.4-3.8C92.7,95.6,90.9,98.5,88.8,97.8z"/>
			<path class="st7" d="M81.8,98.1c0.2,1,0.2,2,0.2,3.1c-0.2,1.5-0.1,2.8,1.5,3c-0.8,0.9-2.3,0.3-2.7-1c-0.3-0.8-0.1-1.6,0-2.3
				C81,100,81.3,99,81.8,98.1L81.8,98.1z"/>
			<path class="st7" d="M92.1,123.2c-0.1-0.2-2.2-3.6-9.4-3.6c-7.2,0-9.2,3.4-9.4,3.6c0.4-1.3,1.4-2.8,2.8-3.9
				c1.4-1.1,1.9-1.5,0.3-3c-1-0.9-1.4-2-1.5-2.7c1.7,2,3.3,2.6,7.8,2.6c4.5,0,6.1-0.5,7.8-2.6c-0.1,0.7-0.5,1.8-1.5,2.7
				c-1.6,1.5-1.1,1.9,0.3,3C90.7,120.4,91.6,122,92.1,123.2z"/>
			<path class="st8" d="M82.9,95.8c6.4,0,2-14.1,1.4-18.5c-0.6-4.5-1.6-4.6-1.6-4.6s-1,0.1-1.6,4.6c-0.6,4.5-5,18.5,1.4,18.5H82.9z"
				/>
			<path class="st3" d="M74.3,76.2c-0.6,3.5-15.3,11.1-9.9,5.6c-2.2-0.1-5.6,0.1-6.8-2c-0.1-1.3,1.6-1.4,2.6-1.4
				c3-0.1,6.2,0.3,9-0.5c-2.1,0.3-4.8,0.1-7.6-1.1c-0.4-0.1-1.9-1-2.3-1.1c-3.5-0.8-4.7-0.3-5.7,0.3c-0.4,0.2-0.7,0.6-1.1,0.6
				c-0.5-0.1-0.5-0.6-0.2-0.9c0.5-0.6,1.1-1.1,1.8-1.4c-0.9-0.3-1.7-0.7-2.3-1.3c-0.3-0.2-0.8-0.6-0.6-1c0.2-0.4,0.7-0.3,1.1-0.2
				c0.5,0.2,1.1,0.4,1.6,0.6c0.4,0.2,0.8,0.3,1.2,0.5c0.1,0,0.1,0,0.2,0.1c0.1,0,0.1,0,0.2,0.1c0.8,0.2,1.5-0.1,2.1-0.6
				c1-1.9,3.2-4.9,7.4-4.9c6.1,0,8.8,5.5,8.9,5.8c-0.2-0.2-2.2-3.2-5.2-3.8c-3.2-0.6-6.5,0-8,1.4C60.7,70.9,70.5,69.2,74.3,76.2
				L74.3,76.2z"/>
			<g>
				<path class="st9" d="M93.8,109.4c0,0-1.5,2.2-3.3,4.2c0,0,0,0,0,0c-1.7,2-3.3,2.6-7.8,2.6c-4.5,0-6.1-0.5-7.8-2.6c0,0,0,0,0,0
					c-1.7-2-3.3-4.2-3.3-4.2c2.4-0.1,6.1-3.3,7.5-3.3c0.7,0,1.7,0.3,2.5,0.5c0.7,0.2,1.4,0.2,2.1,0c0.8-0.3,1.8-0.5,2.5-0.5
					C87.7,106.1,91.4,109.3,93.8,109.4z"/>
				<path class="st10" d="M95.3,108.6c-1.5,1.7-4.1,2-6.2,1.7c-1.1-0.1-2.1-0.2-3,0.1c-1.1,0.4-2.2,0.7-3.3,0.7
					c-1.1,0-2.2-0.3-3.3-0.7c-2.1-0.5-4.2,0.4-6.4-0.1c-1.1-0.3-2.1-0.9-2.9-1.7c0.9,0.6,1.9,1,3,1c2.2,0.2,4.2-0.9,6.5-0.4
					c1,0.3,2,0.6,3,0.6c1.1,0.1,2-0.3,3-0.6c2.3-0.5,4.3,0.6,6.5,0.4C93.4,109.6,94.4,109.2,95.3,108.6L95.3,108.6z"/>
				<path class="st11" d="M84.3,115.4c-2.7,0.4-8.2-0.5-6.3-2.9c0.1-0.1,0.2-0.2,0.2-0.2c0.4-0.3,1-0.4,1.5-0.3
					c3.9,1.1,5.8-1,7.7,0.2C88.8,113.4,85.8,115.3,84.3,115.4z"/>
			</g>
			<path class="st12" d="M113.8,99.7c-0.7,4.1-1.3,8.2-2.2,12.2c-0.7,3-1.8,6.1-3.7,8.6c-1.9,2.5-4.6,4.4-7.2,6l-5.3,3.3
				c-3.5,2.2-7.2,4.6-11.5,5.1c0,0,0.6-0.7,0.6-0.7l0,0.1l0.1,0.6c-5.8,1-10.9-2.8-15.5-5.6c-3.2-2.1-7.1-4.1-9.9-6.8
				c-1-0.9-1.8-2-2.5-3.2l0.4,0.2c-0.1,0-0.2,0-0.3-0.1c-0.1-0.1-0.2-0.2-0.2-0.4c0,0,0.1,0.2,0.1,0.2c-1.8-2.9-2.7-6.2-3.3-9.6
				c-0.6-2.9-1.2-7-1.7-9.9c0,0,0,0,0,0c0,0,0,0,0,0c0.7,2.9,1.5,6.9,2.2,9.8c0.8,3.2,1.7,6.5,3.6,9.3c0,0,0,0.1,0,0.1
				c0-0.2-0.2-0.4-0.4-0.4c0,0,0.4,0.2,0.4,0.2c2,3.2,5.7,5.5,8.9,7.4c0,0,3.4,2,3.4,2c3.4,2,6.6,4.3,10.4,5.2
				c1.2,0.3,2.5,0.4,3.7,0.2l-0.5,0.7l0-0.1l-0.1-0.6l0.6-0.1c4-0.4,7.5-2.8,11-4.8c0,0,5.3-3.2,5.3-3.2c2.6-1.6,5.2-3.2,7.1-5.6
				c1.9-2.4,3-5.3,3.8-8.2C112.1,107.8,112.8,103.7,113.8,99.7L113.8,99.7z"/>
			<path class="st5" d="M74.4,87.6c-0.4,0.9-0.9,1.8-1.6,2.6c-1.2,1.6-2.9,2.9-4.8,3.7c-2,0.8-4.3,0.8-6.4,0.1
				c-2-0.7-3.5-2.2-4.7-3.9c-0.6-0.9-1.2-1.9-1.1-3c0.1-1,0.8-1.7,1.8-1.9c0.6-0.1,1.2,0,1.9,0c0.6,0.1,1.3,0.1,1.9,0.2
				c1,0.1,1.9,0.1,2.9,0.1c1.7-0.1,3.4-0.5,5-1.1c0.6-0.2,1.1-0.4,1.7-0.7c0.5-0.2,1-0.5,1.6-0.6c1-0.2,1.9,0.4,2.2,1.3
				C75.2,85.5,74.8,86.6,74.4,87.6z"/>
			<g>
				<path class="st13" d="M67.4,86.9c-0.8-1.2,1.8-2.4,2.2-0.9C70,87.2,68.1,87.5,67.4,86.9z"/>
				<path class="st13" d="M59.1,88.5c0.2,0.7-0.9,1.1-1.2,0.5C57.5,88.1,58.9,87.5,59.1,88.5z"/>
				<path class="st13" d="M64,97.3c0,1.1-1.5,1.1-1.7,0.1C62.2,96.3,63.9,96.2,64,97.3z"/>
				<path class="st13" d="M66.1,97.1c0.3,0.9-1.1,1.3-1.4,0.4C64.5,96.6,65.8,96.2,66.1,97.1z"/>
				<path class="st13" d="M63,87.1c-0.3-0.5,0.6-1,0.9-0.4C64.2,87.2,63.2,87.6,63,87.1z"/>
				<path class="st13" d="M62.4,100.2c-0.6,0-0.6-0.9,0-0.9C63,99.3,63,100.2,62.4,100.2z"/>
				<path class="st13" d="M63.9,88.8c0.6,0.1,0.7,1.1,0,1.2c-0.6,0.2-1-0.6-0.6-1c0,0,0,0,0,0C63.5,88.9,63.7,88.8,63.9,88.8z"/>
				<path class="st13" d="M66.9,91.2c0.5,1.6-2.6,2.8-3,1C64.2,91.6,66.5,89.8,66.9,91.2z"/>
				<path class="st13" d="M68.2,88.8c-0.2,0.9-1.7,0.4-1.2-0.5C67.2,87.6,68.4,88,68.2,88.8z"/>
				<path class="st13" d="M69.4,92.6c0.2,0.7-0.8,0.8-1,0.2C68.3,92.1,69.3,92,69.4,92.6z"/>
				<path class="st13" d="M70.9,90.8c-0.6,0-0.6-0.9,0-0.9C71.5,89.9,71.5,90.8,70.9,90.8z"/>
				<path class="st13" d="M64.9,98.8c0.4,0.6-0.5,1.3-1,0.8c-0.5-0.3-0.2-1.3,0.4-1.1C64.6,98.5,64.8,98.6,64.9,98.8z"/>
				<path class="st13" d="M61.6,87.4c0.3,0.6-0.3,1.2-0.9,1C59.4,87.9,60.9,86.2,61.6,87.4z"/>
				<path class="st13" d="M72.2,87.4c-0.9,0-1-1.4,0-1.4C73,86,73.1,87.4,72.2,87.4z"/>
				<path class="st13" d="M73.4,88.9c-0.2,0.7-1.3,0.7-1.5,0C71.6,87.6,73.9,87.6,73.4,88.9z"/>
				<path class="st13" d="M69.2,90.5c-0.6,0-0.6-0.9,0-0.9C69.8,89.6,69.8,90.5,69.2,90.5z"/>
				<path class="st13" d="M61.4,89.9c0.7,0.6-0.3,1.6-0.9,1C59.9,90.3,60.8,89.3,61.4,89.9z"/>
			</g>
		</g>
		<g>
			<path class="st4" d="M180.6,203.1H-14.7v-0.1c-2.1-8.5-1.6-18,3.2-25.3c1.3-2,3-3.9,4.8-5.5c7.9-7.2,18.4-10.5,28.8-13
				c10.1-2.4,20.5-4.2,29.8-8.8c0.2-0.1,0.5-0.2,0.7-0.4c1.4-0.7,2.8-1.5,4.1-2.4c1.2-9.3,0.9-19.7,0.4-28.4
				c0.4,0.6,0.8,1.2,1.3,1.8c2,2.4,4.8,4.1,7.5,5.7c2,1.2,4,2.5,6,3.7c3.7,2.3,7.8,4.6,12,4l0-0.1c3.5-0.3,6.8-2.2,9.8-4.1
				c2-1.2,4-2.5,6-3.7c2.7-1.6,5.4-3.3,7.5-5.7c0.5-0.6,0.9-1.2,1.3-1.8c-0.2,4.5-0.4,9.5-0.4,14.6c0,5.4,0.3,10.8,1.1,15.9
				c1.2,0.9,2.5,1.6,3.9,2.3c9.5,4.8,20.1,6.7,30.5,9.2c10.3,2.5,20.9,5.8,28.8,13c1.8,1.6,3.4,3.5,4.8,5.5
				C181.6,186.2,182.2,195,180.6,203.1z"/>
			<path class="st3" d="M115,164.2c-4.6-7.1-5.5-14.7-5.5-14.7l4.1,2.4C113.6,157.2,115,164.2,115,164.2z"/>
			<path class="st3" d="M56.6,147.5c0,0-0.4,4-2.4,8.8c-0.8,1.9-1.8,3.9-3,5.8c0,0,0.4-2,0.8-4.7c0.3-2.3,0.6-5.1,0.6-7.5
				L56.6,147.5z"/>
			<path class="st3" d="M70.1,185.8c-1.9,0.5-4,0.6-6,0.4c-4.1-0.4-7.9-2.1-11.3-4c-1.8-1-3.6-2-5.2-3.2c-1.5-1-2.9-2.1-4.4-3.1
				c-1.5-0.9-3.1-1.8-4.8-2.2c-0.9-0.2-1.8-0.4-2.7-0.7c-0.8-0.3-1.9-0.6-2.5-1.3c-0.7-0.8,0-1.6,0.9-2c0.9-0.3,1.9-0.3,2.8-0.2
				c1.5,0.2,3,0.5,4.5,0.9c1.4,0.2,2.7,0.6,4.1,1.1c1.9,0.7,3.7,1.6,5.5,2.5c1.8,0.9,3.6,1.9,5.5,2.7c1.9,0.8,3.9,1.4,5.9,2
				c2,0.6,4.1,1.1,6.2,1.6c1,0.2,2,0.4,3,0.7c0.9,0.3,1.9,0.7,2.2,1.6C74.4,184.5,71.6,185.3,70.1,185.8z"/>
			<path class="st3" d="M95.4,185.8c1.9,0.5,4,0.6,6,0.4c4.1-0.4,7.9-2.1,11.3-4c1.8-1,3.6-2,5.2-3.2c1.5-1,2.9-2.1,4.4-3.1
				c1.5-0.9,3.1-1.8,4.8-2.2c0.9-0.2,1.8-0.4,2.7-0.7c0.8-0.3,1.9-0.6,2.5-1.3c0.7-0.8,0-1.6-0.9-2c-0.9-0.3-1.9-0.3-2.8-0.2
				c-1.5,0.2-3,0.5-4.5,0.9c-1.4,0.2-2.7,0.6-4.1,1.1c-1.9,0.7-3.7,1.6-5.5,2.5c-1.8,0.9-3.6,1.9-5.5,2.7c-1.9,0.8-3.9,1.4-5.9,2
				c-2,0.6-4.1,1.1-6.2,1.6c-1,0.2-2,0.4-3,0.7c-0.9,0.3-1.9,0.7-2.2,1.6C91.1,184.5,93.9,185.3,95.4,185.8z"/>
			<path class="st3" d="M108.4,120.2c-0.2,4.2-0.4,8.7-0.3,13.3c-0.1,0.2-0.3,0.4-0.4,0.6c-2.9,4-6.6,7.4-10.9,9.9
				c-4.6,2.6-9.7,4.2-14.8,5.4c-5.2,1.2-10.5,1.9-15.8,3.1c-4.1,0.9-8.2,2.1-12.1,3.9c2-4.9,2.4-8.8,2.4-8.8
				c0.3-2.2,0.5-4.5,0.6-6.8c0.4-7.4,0.2-15-0.2-21.6c0.4,0.6,0.8,1.2,1.3,1.8c2,2.4,4.8,4.1,7.5,5.7c2,1.2,4,2.5,6,3.7
				c3.7,2.3,7.8,4.6,12,4l0-0.1c3.5-0.3,6.8-2.2,9.8-4.1c2-1.2,4-2.5,6-3.7c2.7-1.6,5.4-3.3,7.5-5.7c0.5-0.6,0.9-1.2,1.3-1.8
				C108.4,119.4,108.4,119.8,108.4,120.2z"/>
			<path class="st3" d="M108.5,119c0,0.4,0,0.8-0.1,1.2c0,0,0,0,0,0.1c-2.6,3.9-5.8,7.3-9.4,10.2c-3.6,2.9-7.7,5.3-12,7
				c-5,2-10.3,3.2-15.7,3.7c-2.7,0.2-5.4,0.3-8.1,0.1c-1.3-0.1-2.7-0.2-4-0.3c-0.6-0.1-1.3-0.1-2-0.2c0.4-7.4,0.2-15-0.2-21.6
				c0.4,0.6,0.8,1.2,1.3,1.8c2,2.4,4.8,4.1,7.5,5.7c2,1.2,4,2.5,6,3.7c3.7,2.3,7.8,4.6,12,4l0-0.1c3.5-0.3,6.8-2.2,9.8-4.1
				c2-1.2,4-2.5,6-3.7c2.7-1.6,5.4-3.3,7.5-5.7C107.6,120.2,108.1,119.6,108.5,119z"/>
		</g>
		<g>
			<path class="st2" d="M110,118.2c-0.3,7-2.7,13.8-4.8,20.6s-4,13.8-3.3,20.8s4.7,14.1,11.7,17.5c-0.4-1-0.3-2,0.2-3
				c2.3,6.3,8.4,11.4,15.7,13c-3.7-7.3-3.1-15.7-1.8-23.7c1.3-7.9,3.4-15.9,2.5-23.9c-1.1-9.8-7-19.1-15.8-25.2L110,118.2z"/>
			<path class="st3" d="M125.4,184.2c-8-20.5,4.6-43.7-7.8-63.3c-0.8-1.2-1.7-2.4-2.7-3.5l0.7-0.4c3.7,8.7,4.3,18.4,1.7,27.4
				c-1.9,6.7-5.1,13.2-5.2,20.2c-0.1,2.3,0.2,4.6,1,6.8c-0.8-2.2-1.2-4.5-1.2-6.8c0-7,3-13.6,4.9-20.3c2.8-9.7,1.6-20.1-2.8-29.3
				c0,0,1.7,1.9,1.7,1.9c4.1,4.6,6.5,10.2,7.6,15.9C126.7,149.8,119.6,167.4,125.4,184.2L125.4,184.2z"/>
			<path class="st3" d="M112.4,117.6c0.9,17.1-14.2,34.2-5,51c0.6,1,1.3,2,2.1,3c-0.9-0.9-1.6-1.8-2.3-2.9
				C97,152.1,112.2,134.7,112.4,117.6L112.4,117.6z"/>
			<path class="st3" d="M109.2,169c-3.2-4.7-4.3-10.6-2.8-15.9C106.2,158.5,107.1,163.9,109.2,169L109.2,169z"/>
		</g>
	</g>
	<g style="clip-path:url(#SVGID_00000044872750971048226000000008078890450809532072_);">
		<path class="st14" d="M82.6,199.2c-0.1,0-0.2-0.1-0.2-0.2v-2.5c0-0.1,0.1-0.2,0.2-0.2s0.2,0.1,0.2,0.2v2.5
			C82.8,199.1,82.7,199.2,82.6,199.2z M82.6,193.5c-0.1,0-0.2-0.1-0.2-0.2v-3.2c0-0.1,0.1-0.2,0.2-0.2s0.2,0.1,0.2,0.2v3.2
			C82.8,193.4,82.7,193.5,82.6,193.5z M82.6,187.2c-0.1,0-0.2-0.1-0.2-0.2v-3.2c0-0.1,0.1-0.2,0.2-0.2s0.2,0.1,0.2,0.2v3.2
			C82.8,187.1,82.7,187.2,82.6,187.2z M82.6,180.8c-0.1,0-0.2-0.1-0.2-0.2v-3.2c0-0.1,0.1-0.2,0.2-0.2s0.2,0.1,0.2,0.2v3.2
			C82.8,180.7,82.7,180.8,82.6,180.8z M82.6,174.4c-0.1,0-0.2-0.1-0.2-0.2v-3.2c0-0.1,0.1-0.2,0.2-0.2s0.2,0.1,0.2,0.2v3.2
			C82.8,174.4,82.7,174.4,82.6,174.4z M82.6,168.1c-0.1,0-0.2-0.1-0.2-0.2v-3.2c0-0.1,0.1-0.2,0.2-0.2s0.2,0.1,0.2,0.2v3.2
			C82.8,168,82.7,168.1,82.6,168.1z M82.6,161.7c-0.1,0-0.2-0.1-0.2-0.2v-3.2c0-0.1,0.1-0.2,0.2-0.2s0.2,0.1,0.2,0.2v3.2
			C82.8,161.6,82.7,161.7,82.6,161.7z M82.6,155.4c-0.1,0-0.2-0.1-0.2-0.2V152c0-0.1,0.1-0.2,0.2-0.2s0.2,0.1,0.2,0.2v3.2
			C82.8,155.3,82.7,155.4,82.6,155.4z M82.6,149c-0.1,0-0.2-0.1-0.2-0.2v-3.2c0-0.1,0.1-0.2,0.2-0.2s0.2,0.1,0.2,0.2v3.2
			C82.8,148.9,82.7,149,82.6,149z M82.6,142.6c-0.1,0-0.2-0.1-0.2-0.2v-3.2c0-0.1,0.1-0.2,0.2-0.2s0.2,0.1,0.2,0.2v3.2
			C82.8,142.5,82.7,142.6,82.6,142.6z M82.6,136.3c-0.1,0-0.2-0.1-0.2-0.2v-3.2c0-0.1,0.1-0.2,0.2-0.2s0.2,0.1,0.2,0.2v3.2
			C82.8,136.2,82.7,136.3,82.6,136.3z M82.6,129.9c-0.1,0-0.2-0.1-0.2-0.2v-3.2c0-0.1,0.1-0.2,0.2-0.2s0.2,0.1,0.2,0.2v3.2
			C82.8,129.8,82.7,129.9,82.6,129.9z M82.6,123.5c-0.1,0-0.2-0.1-0.2-0.2v-3.2c0-0.1,0.1-0.2,0.2-0.2s0.2,0.1,0.2,0.2v3.2
			C82.8,123.5,82.7,123.5,82.6,123.5z M82.6,117.2c-0.1,0-0.2-0.1-0.2-0.2v-3.2c0-0.1,0.1-0.2,0.2-0.2s0.2,0.1,0.2,0.2v3.2
			C82.8,117.1,82.7,117.2,82.6,117.2z M82.6,110.8c-0.1,0-0.2-0.1-0.2-0.2v-3.2c0-0.1,0.1-0.2,0.2-0.2s0.2,0.1,0.2,0.2v3.2
			C82.8,110.7,82.7,110.8,82.6,110.8z M82.6,104.5c-0.1,0-0.2-0.1-0.2-0.2v-3.2c0-0.1,0.1-0.2,0.2-0.2s0.2,0.1,0.2,0.2v3.2
			C82.8,104.4,82.7,104.5,82.6,104.5z M82.6,98.1c-0.1,0-0.2-0.1-0.2-0.2v-3.2c0-0.1,0.1-0.2,0.2-0.2s0.2,0.1,0.2,0.2v3.2
			C82.8,98,82.7,98.1,82.6,98.1z M82.6,91.7c-0.1,0-0.2-0.1-0.2-0.2v-3.2c0-0.1,0.1-0.2,0.2-0.2s0.2,0.1,0.2,0.2v3.2
			C82.8,91.6,82.7,91.7,82.6,91.7z M82.6,85.4c-0.1,0-0.2-0.1-0.2-0.2V82c0-0.1,0.1-0.2,0.2-0.2s0.2,0.1,0.2,0.2v3.2
			C82.8,85.3,82.7,85.4,82.6,85.4z M82.6,79c-0.1,0-0.2-0.1-0.2-0.2v-3.2c0-0.1,0.1-0.2,0.2-0.2s0.2,0.1,0.2,0.2v3.2
			C82.8,78.9,82.7,79,82.6,79z M82.6,72.7c-0.1,0-0.2-0.1-0.2-0.2v-3.2c0-0.1,0.1-0.2,0.2-0.2s0.2,0.1,0.2,0.2v3.2
			C82.8,72.6,82.7,72.7,82.6,72.7z M82.6,66.3c-0.1,0-0.2-0.1-0.2-0.2v-3.2c0-0.1,0.1-0.2,0.2-0.2s0.2,0.1,0.2,0.2v3.2
			C82.8,66.2,82.7,66.3,82.6,66.3z M82.6,59.9c-0.1,0-0.2-0.1-0.2-0.2v-3.2c0-0.1,0.1-0.2,0.2-0.2s0.2,0.1,0.2,0.2v3.2
			C82.8,59.8,82.7,59.9,82.6,59.9z M82.6,53.6c-0.1,0-0.2-0.1-0.2-0.2v-3.2c0-0.1,0.1-0.2,0.2-0.2s0.2,0.1,0.2,0.2v3.2
			C82.8,53.5,82.7,53.6,82.6,53.6z M82.6,47.2c-0.1,0-0.2-0.1-0.2-0.2v-3.2c0-0.1,0.1-0.2,0.2-0.2s0.2,0.1,0.2,0.2V47
			C82.8,47.1,82.7,47.2,82.6,47.2z M82.6,40.8c-0.1,0-0.2-0.1-0.2-0.2v-3.2c0-0.1,0.1-0.2,0.2-0.2s0.2,0.1,0.2,0.2v3.2
			C82.8,40.8,82.7,40.8,82.6,40.8z M82.6,34.5c-0.1,0-0.2-0.1-0.2-0.2v-3.2c0-0.1,0.1-0.2,0.2-0.2s0.2,0.1,0.2,0.2v3.2
			C82.8,34.4,82.7,34.5,82.6,34.5z M82.6,28.1c-0.1,0-0.2-0.1-0.2-0.2v-3.2c0-0.1,0.1-0.2,0.2-0.2s0.2,0.1,0.2,0.2v3.2
			C82.8,28,82.7,28.1,82.6,28.1z M82.6,21.8c-0.1,0-0.2-0.1-0.2-0.2v-3.2c0-0.1,0.1-0.2,0.2-0.2s0.2,0.1,0.2,0.2v3.2
			C82.8,21.7,82.7,21.8,82.6,21.8z M82.6,15.4c-0.1,0-0.2-0.1-0.2-0.2V12c0-0.1,0.1-0.2,0.2-0.2s0.2,0.1,0.2,0.2v3.2
			C82.8,15.3,82.7,15.4,82.6,15.4z M82.6,9c-0.1,0-0.2-0.1-0.2-0.2V5.7c0-0.1,0.1-0.2,0.2-0.2s0.2,0.1,0.2,0.2v3.2
			C82.8,8.9,82.7,9,82.6,9z"/>
	</g>
</g>
</svg>
