<?xml version="1.0" encoding="utf-8"?>
<!-- Generator: Adobe Illustrator 25.4.8, SVG Export Plug-In . SVG Version: 6.00 Build 0)  -->
<svg version="1.1" id="Layer_1" xmlns="http://www.w3.org/2000/svg" xmlns:xlink="http://www.w3.org/1999/xlink" x="0px" y="0px"
	 viewBox="0 0 166.61 166.61" style="enable-background:new 0 0 166.61 166.61;" xml:space="preserve">
<style type="text/css">
	.st0{clip-path:url(#SVGID_00000122679489516711761720000018013238912639550622_);}
	.st1{fill:#383838;}
	.st2{fill:#6D6D79;}
	.st3{fill:#FFFFFF;}
	.st4{fill:#1B3A5F;}
	.st5{fill:#ADD0F4;}
	.st6{opacity:0.22;}
	.st7{fill:#20A0E8;}
	.st8{opacity:0.56;}
	.st9{fill:#D5EAF7;}
	.st10{fill:#FFA93F;}
	.st11{fill:#66BDE7;}
	.st12{opacity:0.3;fill:#FFFFFF;}
	.st13{fill:#9B4611;}
	.st14{fill:#FCB796;}
	.st15{fill:#F89A7A;}
	.st16{fill:#263238;}
	.st17{fill:#FFB470;}
	.st18{opacity:0.2;enable-background:new    ;}
	.st19{fill:#007CFF;}
	.st20{fill:#5F74B2;}
	.st21{opacity:0.3;enable-background:new    ;}
	.st22{fill:#6F320A;}
	.st23{fill:#F89698;}
	.st24{opacity:0.7;enable-background:new    ;}
	.st25{fill:#262626;}
	.st26{opacity:0.17;}
	.st27{opacity:0.32;clip-path:url(#XMLID_00000066478441822817427820000002833351163353878196_);fill:#FFC399;}
	.st28{clip-path:url(#XMLID_00000066478441822817427820000002833351163353878196_);fill:#F89A7A;}
	.st29{fill:#FFD8BF;}
	.st30{fill:#BE7A2E;}
	.st31{fill:#B17047;}
	.st32{opacity:0.1;enable-background:new    ;}
	.st33{fill:#2D538C;}
</style>
<g>
	<defs>
		<circle id="SVGID_1_" cx="83.31" cy="83.31" r="82.92"/>
	</defs>
	
		<linearGradient id="SVGID_00000088115243130214790230000010816710862262083462_" gradientUnits="userSpaceOnUse" x1="0.3821" y1="83.3065" x2="166.2309" y2="83.3065">
		<stop  offset="0" style="stop-color:#5F74B1"/>
		<stop  offset="0.2466" style="stop-color:#7A90D2"/>
		<stop  offset="0.4903" style="stop-color:#8FA6EB"/>
		<stop  offset="0.7125" style="stop-color:#9CB3FA"/>
		<stop  offset="0.8936" style="stop-color:#A0B7FF"/>
	</linearGradient>
	
		<use xlink:href="#SVGID_1_"  style="overflow:visible;opacity:0.18;fill:url(#SVGID_00000088115243130214790230000010816710862262083462_);"/>
	<clipPath id="SVGID_00000101072657533665475550000009362737592850159781_">
		<use xlink:href="#SVGID_1_"  style="overflow:visible;opacity:0.18;"/>
	</clipPath>
	<g style="clip-path:url(#SVGID_00000101072657533665475550000009362737592850159781_);">
		<g>
			<g>
				<g>
					<path class="st1" d="M211.34,2.74c0,0.25,0.15,0.45,0.37,0.59c0.01,0.01,0.02,0.01,0.03,0.02c0.02,0.01,0.03,0.02,0.05,0.03
						c0.22,0.14,0.52,0.23,0.92,0.23c7.17,0,14.34,0,21.51,0c31.32,0,62.64,0,93.95,0c19.66,0,39.32,0,58.97,0
						c0.74,0,1.36-0.4,1.36-0.86c0-5.25,0-10.5,0-15.76c0-0.47-0.63-0.86-1.36-0.86c-7.17,0-14.34,0-21.51,0
						c-31.32,0-62.64,0-93.95,0c-19.66,0-39.32,0-58.97,0c-0.74,0-1.36,0.4-1.36,0.86C211.34-7.76,211.34-2.51,211.34,2.74z
						 M214.06,1.88c0-4.68,0-9.36,0-14.04c6.71,0,13.43,0,20.14,0c31.32,0,62.64,0,93.95,0c19.2,0,38.41,0,57.61,0
						c0,4.68,0,9.36,0,14.04c-6.71,0-13.43,0-20.14,0c-31.32,0-62.64,0-93.95,0C252.47,1.88,233.27,1.88,214.06,1.88z"/>
				</g>
			</g>
		</g>
		<g>
			<rect x="153.23" y="-13.59" class="st1" width="2.78" height="24.3"/>
			<rect x="37.04" y="9" class="st2" width="133.71" height="81.28"/>
			<rect x="45.58" y="12.11" class="st3" width="121.03" height="73.57"/>
			<rect x="37.04" y="9" class="st1" width="4.57" height="81.28"/>
		</g>
		<g>
			<g>
				
					<rect x="196.49" y="1.06" transform="matrix(0.7748 -0.6322 0.6322 0.7748 37.9317 126.7718)" class="st4" width="0.84" height="18.17"/>
			</g>
			<g>
				
					<rect x="363.14" y="9.37" transform="matrix(0.4854 -0.8743 0.8743 0.4854 181.9354 328.7048)" class="st4" width="14.15" height="0.84"/>
			</g>
			<g>
				<g>
					<path class="st5" d="M346.73,52.19c-17.22,1.95-40.89,4.18-59.38,4.18c-9.34,0-19.53-0.44-29.56-1.09
						c-13.08-0.86-25.9-2.08-36.26-3.2c-12.31-1.33-21.51-11.72-21.54-23.91c0-0.58,0.02-1.17,0.06-1.76l0.79-11.45
						c0,0,59.86,7.24,87.94,7.24c0.64,0,1.28,0,1.94-0.01c15.75-0.18,38.28-2.48,54.82-4.44c12.61-1.49,21.74-2.78,21.74-2.78
						l0.82,11.53C369.02,39.39,359.59,50.73,346.73,52.19z"/>
				</g>
				<g class="st6">
					<path class="st7" d="M290.72,22.18c-4.15,2.92-8.54,5.58-13.35,7.2c-5.87,1.99-12.16,2.36-18.36,2.54
						c-19.73,0.57-39.52-0.69-59.03-3.76c0-0.58,0.02-1.17,0.06-1.76l0.79-11.45c0,0,59.86,7.24,87.94,7.24
						C289.41,22.19,290.06,22.18,290.72,22.18z"/>
				</g>
				<g class="st8">
					<path class="st9" d="M346.73,52.19c-17.22,1.95-40.89,4.18-59.38,4.18c-9.34,0-19.53-0.44-29.56-1.09
						c11.52-3.14,22.93-6.64,34.24-10.49c12.87-4.38,25.65-9.24,37.45-15.98c5.65-3.22,11.08-6.9,16.07-11.07
						c12.61-1.49,21.74-2.78,21.74-2.78l0.82,11.53C369.02,39.39,359.59,50.73,346.73,52.19z"/>
				</g>
				<g>
					<g>
						<path class="st3" d="M238.54,32.55l-0.13,1.27l-1.49-0.15l0.14-1.35c0.13-1.27-0.3-2.09-1.45-2.21
							c-1.13-0.12-1.73,0.6-1.86,1.87l-0.76,7.47c-0.13,1.27,0.32,2.09,1.45,2.21c1.15,0.12,1.73-0.6,1.86-1.87l0.19-1.84l1.49,0.15
							l-0.18,1.76c-0.22,2.14-1.37,3.45-3.55,3.22c-2.16-0.22-3.02-1.74-2.8-3.88l0.75-7.3c0.22-2.14,1.37-3.45,3.53-3.23
							C237.9,28.89,238.76,30.41,238.54,32.55z"/>
					</g>
					<g>
						<path class="st3" d="M242.69,32.94c0.19-2.16,1.39-3.46,3.55-3.27c2.18,0.19,3.13,1.68,2.94,3.85l-0.65,7.31
							c-0.19,2.14-1.39,3.46-3.57,3.27c-2.16-0.19-3.11-1.7-2.92-3.84L242.69,32.94z M243.58,40.48c-0.12,1.29,0.36,2.09,1.5,2.19
							c1.15,0.1,1.74-0.6,1.86-1.89l0.67-7.48c0.11-1.27-0.34-2.09-1.5-2.19c-1.13-0.1-1.75,0.62-1.86,1.89L243.58,40.48z"/>
					</g>
					<g>
						<path class="st3" d="M254.08,44.72l-1.42-0.1l1.03-14.16l2,0.15l2.54,10.47l0.74-10.24l1.4,0.1l-1.03,14.16l-1.64-0.12
							l-2.79-11.71L254.08,44.72z"/>
					</g>
					<g>
						<path class="st3" d="M269.16,38.06l-0.08,1.44l-3.26-0.17l-0.32,6.14l-1.58-0.08l0.74-14.18l5.63,0.29l-0.08,1.44l-4.05-0.21
							l-0.27,5.16L269.16,38.06z"/>
					</g>
					<g>
						<path class="st3" d="M279.12,38.07l-0.03,1.42l-3.47-0.08l-0.12,5.05l4.26,0.1l-0.04,1.44l-5.84-0.14l0.35-14.19l5.84,0.14
							l-0.04,1.44l-4.26-0.1l-0.12,4.84L279.12,38.07z"/>
					</g>
					<g>
						<path class="st3" d="M287.49,31.78c2.23-0.03,3.18,1.09,3.21,3.2l0.02,1.16c0.02,1.56-0.51,2.54-1.73,2.94
							c1.3,0.37,1.8,1.42,1.82,2.94l0.03,2.21c0.01,0.63,0.04,1.22,0.31,1.7l-1.6,0.02c-0.19-0.4-0.27-0.77-0.29-1.72L289.22,42
							c-0.02-1.6-0.78-2.1-2.1-2.08l-1.12,0.01l0.08,6.06l-1.58,0.02l-0.19-14.2L287.49,31.78z M287.17,38.48
							c1.26-0.02,2-0.43,1.98-1.97l-0.02-1.36c-0.02-1.28-0.49-1.94-1.67-1.93l-1.54,0.02l0.07,5.25L287.17,38.48z"/>
					</g>
					<g>
						<path class="st3" d="M300.2,37.7l0.06,1.42l-3.47,0.14l0.2,5.05l4.26-0.17l0.06,1.44l-5.84,0.23l-0.55-14.19l5.84-0.23
							l0.06,1.44l-4.26,0.17l0.19,4.84L300.2,37.7z"/>
					</g>
					<g>
						<path class="st3" d="M307.12,45.27l-1.42,0.08l-0.84-14.17l2-0.12l3.89,10.05l-0.61-10.24l1.4-0.08l0.84,14.17l-1.64,0.1
							l-4.3-11.24L307.12,45.27z"/>
					</g>
					<g>
						<g>
							<path class="st3" d="M322.41,33.43l0.1,1.27l-1.5,0.11l-0.1-1.35c-0.1-1.27-0.66-2-1.81-1.92c-1.13,0.09-1.6,0.89-1.5,2.17
								l0.57,7.48c0.1,1.27,0.68,2,1.81,1.92c1.15-0.09,1.6-0.89,1.5-2.17l-0.14-1.84l1.5-0.11l0.13,1.76
								c0.16,2.14-0.74,3.63-2.92,3.8c-2.16,0.16-3.28-1.17-3.44-3.32l-0.55-7.32c-0.16-2.14,0.74-3.63,2.9-3.8
								C321.13,29.95,322.25,31.29,322.41,33.43z"/>
						</g>
					</g>
					<g>
						<path class="st3" d="M331.99,35.48l0.12,1.41l-3.45,0.31l0.44,5.03l4.24-0.37l0.13,1.43l-5.82,0.51l-1.25-14.14l5.82-0.51
							l0.13,1.43l-4.24,0.38l0.43,4.83L331.99,35.48z"/>
					</g>
				</g>
			</g>
		</g>
		<g>
			<path class="st5" d="M148.17,27.7l-13.62,16.58c0,0-4.32-13.55-6.46-20.46c-6.27,1.99-11.46,6.81-13.75,13.25
				c-0.35,0.99-0.63,2.01-0.84,3.07c-0.11,0.58-0.2,1.16-0.27,1.74c-0.03,0.28-0.06,0.55-0.08,0.83c-0.12,1.62-0.06,3.21,0.18,4.76
				c0.35,2.34,1.08,4.58,2.15,6.64c0.03,0.06,0.06,0.11,0.09,0.17c2.92,5.54,8.22,9.76,14.85,11.07
				c11.63,2.29,22.91-5.28,25.2-16.91C157.18,40.41,154.07,32.55,148.17,27.7z"/>
			<path class="st10" d="M128.08,23.81c-7.23,2.29-13.02,8.35-14.59,16.32c-0.11,0.58-0.2,1.16-0.27,1.74l21.32,2.41
				C134.55,44.28,130.23,30.73,128.08,23.81z"/>
			<path class="st11" d="M134.55,44.28l-20.21-7.21c-0.35,0.99-0.63,2.01-0.84,3.07c-0.11,0.58-0.2,1.16-0.27,1.74
				c-0.03,0.28-0.06,0.55-0.08,0.83c-0.12,1.62-0.06,3.21,0.18,4.76c0.65,2.72,1.43,5.2,2.15,6.64c0.03,0.06,0.06,0.11,0.09,0.17
				L134.55,44.28z"/>
		</g>
		<path class="st12" d="M91.78,85.68h18.44c12.05-18.63,32.2-49.53,48.67-73.57h-28.54L91.78,85.68z"/>
	</g>
	<g style="clip-path:url(#SVGID_00000101072657533665475550000009362737592850159781_);">
		<path class="st13" d="M36.51,70.86c0.24,2.45,1.9,4.64,4.04,5.86c2.15,1.22,4.71,1.54,7.17,1.27c3.03-0.33,5.96-1.53,8.34-3.43
			c3.24-2.58,6.42-4.67,8.69-8.11c2.34-3.55,5.2-6.45,9.58-7.13c1.03-0.16,14.29-0.59,13.74,1.65c0.11-0.45,0.15-0.89,0.13-1.33
			c-0.07-1.81-1.1-3.58-2.16-5.13c-0.52-0.76-1.07-1.55-1.54-2.36c-0.71-1.23-1.22-2.53-1.18-3.93c0.06-1.61,0.85-3.03,1.75-4.41
			c1.21-1.87,2.63-3.7,2.7-5.87c0.03-0.82-0.14-1.62-0.44-2.38c-0.44-1.13-1.17-2.17-1.96-3.1c-1.18-1.4-2.6-2.48-4.08-3.49
			c-3.24-2.22-6.72-4.08-8.31-8.08c-0.56-1.4-1.27-2.78-2.41-3.77c-0.14-0.12-0.29-0.24-0.45-0.35c-0.61-0.43-1.33-0.74-2.07-0.83
			c-0.44-0.05-1.1,0.19-1.48,0.1c-0.45-0.11-0.62-0.62-1.02-0.71c-1.03-0.24-1.83,1.22-2.5,1.86c-1.68,1.62-3.35,3.49-5.32,4.76
			c-2.31,1.49-4.84,2.72-5.85,5.49c-1.71,4.67,1.72,11.16-3.63,14.18c-1.31,0.74-2.78,1.25-3.88,2.28
			c-1.95,1.81-2.29,4.76-2.18,7.42c0.09,2.2,0.66,4.91-0.09,7.04c-0.7,2.01-2.45,3.75-3.53,5.65
			C37.39,66.11,36.28,68.44,36.51,70.86z"/>
		<g>
			<g>
				<path class="st1" d="M22.4,259.47c-0.45-1.22-1.11-2.36-1.94-3.36l0,0c0,0-3.26-6.26,0-16.73l-4.67-4.53
					c-1.27-0.2-2.6,0.52-3.63,1.3c-0.71,0.9-1.23,1.13-1.81,2.12c-1.94,2.98-6.19,9.83-6.19,9.83l0.71,0.45
					c1.38-2.03,2.89-3.97,4.51-5.81c1.69-1.72,1.5,1.48,0.78,4.18c-0.73,2.69,0.82,7.07,5.33,10.11
					C20.7,260.58,23.04,261.75,22.4,259.47z"/>
				<g>
					<path class="st14" d="M14.16,244.52c-0.09,1.8-1.45,4.91,0.04,7.37c1.34,2.29,3.64,3.84,6.26,4.23c0,0-2.55-4.87-0.89-13.22
						c0.21-1.1,0.51-2.28,0.89-3.51c0,0-4.08-3.33-6.01-3.87l-1.16,2.74c0.04,1.92,0.43,4.08,0.8,5.5
						C14.16,243.98,14.18,244.23,14.16,244.52z"/>
				</g>
			</g>
			<path class="st14" d="M13.28,238.26c0.04,1.92,0.43,4.08,0.8,5.5c0.07,0.21,0.09,0.47,0.07,0.76l3.92,1.89l1.49-3.52l5.3-12.53
				l-6.84-3.3l-3.58,8.46L13.28,238.26z"/>
			<path class="st15" d="M18.02,227.06l6.84,3.3l-2.7,6.37h-0.09c-2.62,0-5.11-1.14-6.83-3.12l0,0L18.02,227.06z"/>
		</g>
		<g>
			<g>
				<path class="st16" d="M75.86,258.05c-1.04-0.78-2.21-1.38-3.45-1.77l0,0c0,0-6.12-3.52-9.01-14.09l-6.49-1.64
					c-1.18,0.51-2.1,1.49-2.54,2.69c-0.11,1.14-0.15,2.29-0.11,3.43c-0.06,3.58,0.08,12.84,0.08,12.84h0.84
					c0.08-2.44,0.31-6.09,0.68-8.5c0.49-2.35,2.06,0.43,2.91,3.09c0.84,2.67,4.5,5.5,9.94,5.64
					C75.07,259.88,77.66,259.6,75.86,258.05z"/>
			</g>
			<g>
				<path class="st17" d="M57.71,245.78c0.67,1.32,1.57,2.51,2.67,3.53c1.26,1.06,1.49,5.32,4.48,6.78
					c2.36,1.19,5.14,1.26,7.55,0.18c0,0-4.61-2.65-7.72-10.29c-0.72-1.76-0.85-3.72-0.39-5.57l2.97-11.94l-7.9-1.42l-2.7,14.37
					C56.55,243.49,56.94,244.86,57.71,245.78z"/>
				<path class="st18" d="M68.12,223.92l-2.35,10.56l-0.7,0.12c-2.41,0.43-4.89-0.21-6.8-1.75l0,0l1.85-10.25L68.12,223.92z"/>
			</g>
		</g>
		<g>
			<path class="st19" d="M49.66,56.51c0.02-0.3,0.06-0.61,0.11-0.91c0.89-5.4,5.99-9.06,11.39-8.17h0.17
				c0.67,0.11,1.35,0.24,2.02,0.38c4.58,0.82,9.1,1.97,13.52,3.43c0.75,0.24,1.52,0.52,2.27,0.82c1.02,0.4,2.04,0.81,3,1.22
				c4.56,1.92,7.01,6.92,5.72,11.7c-1.38,5.11-3.22,13.3-9.36,24.12c-1.41,2.49-1.86,7.65-3.11,10.75l-29.78-7.55l-0.05,0.06
				C47.51,83.03,48.9,66.99,49.66,56.51z"/>
			<g>
				<g>
					<path class="st20" d="M45.57,92.36l0.05-0.06l29.77,7.55c1.13-2.82,1.94-7.76,2.9-10.22c0.26-0.68,0.52-1.33,0.77-1.97
						c2.6-6.61,4.6-11.31,6.09-15.03c1.22-3.04,2.11-5.42,2.71-7.65c1.28-4.78-1.16-9.78-5.72-11.7c-0.97-0.41-1.98-0.82-3-1.22
						c-0.75-0.29-1.52-0.58-2.27-0.82c-4.42-1.46-8.94-2.61-13.52-3.43c-0.67-0.14-1.35-0.26-2.02-0.38h-0.17
						c-5.4-0.89-10.5,2.77-11.39,8.17c-0.05,0.3-0.09,0.6-0.11,0.91C48.9,66.99,47.51,83.03,45.57,92.36z"/>
				</g>
			</g>
		</g>
		<path class="st16" d="M75.39,99.85c0,0,2.73,36.54,2.79,66.11c0.05,23.5-9.37,65.27-9.37,65.27s-6.04,1.63-12.17-2.29
			c-0.25,1.74-0.05-31.76,2.3-54.34c0.35-3.39,0.17-6.82-0.56-10.15c-6.83-31.08-16.11-59.86-6.91-70.82L75.39,99.85z"/>
		<path class="st21" d="M60,121.7l-12.06-7.68c1.11,11.72,4.95,26.57,8.63,42.41C60.61,144.2,62.83,131.33,60,121.7z"/>
		<path class="st1" d="M15.87,228.67l1.22,1.24c1.29,1.3,2.92,2.23,4.71,2.66l3.76,0.91c0,0,9.1-20.21,17-40.66
			c5.13-13.28,9.75-26.66,11.05-34.68c6.68-28.25,16.34-57.61,16.34-57.61L44.9,93.72c-11.24,9.1-11.49,37.15-12.85,66
			c-0.15,3.19-0.48,6.37-0.99,9.51c-0.73,4.53-1.83,8.99-3.27,13.36C21.73,200.89,15.87,228.67,15.87,228.67z"/>
		<path class="st22" d="M76.2,40.7c-0.1,0.08-0.21,0.16-0.32,0.24c-1.04,0.81-2.11,1.65-2.79,2.79c-0.62,1.04-0.86,2.26-0.96,3.46
			c-0.12,1.35-0.03,2.85,0.88,3.86c1.08,1.19,2.88,1.28,4.48,1.44c2.91,0.3,4.23,2.32,6.29,4.03c0.38,0.32,4.44,3.12,4.34,3.38
			c0.03-0.09,0.06-0.17,0.09-0.26c-0.07-1.81-1.1-3.58-2.16-5.13c-0.52-0.76-1.07-1.55-1.54-2.36c-0.45-0.31-0.92-0.6-1.4-0.86
			c-0.87-0.49-1.58-1.52-1.75-2.51c-0.1-0.6-0.01-1.21,0.13-1.8c0.21-0.92,0.53-1.8,0.92-2.65c1.01-2.23,2.51-4.25,3.79-6.31
			c0.48-0.78,0.86-1.61,1.14-2.47c0.72-2.19,0.87-4.59,0.79-6.87c-0.08-2.39-0.61-4.77-1.83-6.85c-1.18-2.01-3.08-2.99-4.79-4.51
			c0.27,1.72,0.55,3.39,0.86,5.06c0.37,1.95-0.35,4.02-0.87,5.9c-0.06,0.23-0.13,0.45-0.19,0.68c-0.75,2.54-1.66,5.07-2.21,7.67
			C78.62,38.86,77.91,39.37,76.2,40.7z"/>
		<path class="st23" d="M127.21,91.5c0,0-31.12,2.33-35.54-0.82c0,0-2.17-2.25-3.85-8.22c0,0-6.07,12.04-6.25,19.14
			c-0.12,4.68-0.24,14.71-0.31,20.99v0c-0.04,3.25-0.06,5.51-0.06,5.51l-2.58,10.15l-14.72-6.46c0,0,0.16-0.8,0.45-2.19
			c0.51-2.43,1.4-6.67,2.46-11.64c1.29-5.98,2.83-13.01,4.28-19.2c0.09-0.32,0.19-0.64,0.29-0.96c0.1-0.32,0.2-0.64,0.3-0.96
			c0.09-0.3,0.19-0.6,0.29-0.9c0.01-0.04,0.03-0.09,0.04-0.13c0.09-0.29,0.19-0.58,0.29-0.87c0-0.02,0.01-0.03,0.01-0.05
			c0.1-0.29,0.2-0.58,0.3-0.87c0.09-0.26,0.18-0.53,0.27-0.79c0.1-0.29,0.2-0.58,0.31-0.87c0.15-0.44,0.31-0.87,0.47-1.31
			c0.15-0.42,0.3-0.83,0.44-1.25c1.94-5.7,3.1-11.89,3.15-18.01c0.18-1.74,0.31-3.49,0.4-5.24c0.2-3.63-0.38-7.12-0.7-10.59
			c-0.14-1.54-0.23-3.09-0.19-4.64c0.09,0.02,0.19,0.05,0.28,0.07c0.2,0.05,0.39,0.1,0.58,0.16c2.43,0.66,4.85,1.58,7.09,2.8
			c1.57,0.85,3.04,1.85,4.37,3.02c1.58,1.39,2.95,3.03,3.99,4.93c2.06,3.76,3.4,7.83,4.93,11.83c0.7,1.84,1.44,3.66,2.3,5.42
			c0,0,18.61,0.64,23.22-1.11c0,0,0.91,8.67,2.99,12.16C126.73,90.95,126.96,91.26,127.21,91.5z"/>
		<path class="st23" d="M64.2,129.51c0.05,0.03,0.1,0.06,0.15,0.09c4.2,2.36,13.09,2.04,13.09,2.04s0.17-4.03,0.3-9.97
			c0.17-7.56,0.29-18.21-0.06-27.56c-0.04-1.21,0.05-2.26,0.25-3.2c1.16-5.37,5.92-7.14,9.1-14.6c0,0,0,0,0,0
			c0.49-2.36,0.84-4.62,1.06-6.73c0.76-7.05,0.17-12.3-0.92-13.26c-0.68-0.61-1.51-1.3-2.43-1.97c-2.14-1.56-4.84-3.07-7.72-3.58
			c0.03,0,0.04,0.23,0.05,0.62c0.01,0.89-0.04,2.64-0.09,4.57c-0.11,3.66-0.27,7.98-0.19,8.48c0.36,2.41,0.51,4.88,0.49,7.36
			c-0.06,6.12-1.21,12.31-3.15,18.01c-0.14,0.42-0.29,0.84-0.44,1.25c-0.95,2.6-1.81,5.15-2.57,7.71c-0.95,3.19-1.76,6.41-2.45,9.79
			l-1.98,9.33L64.2,129.51z"/>
		<path class="st24" d="M62.86,47.44c0,0-0.08,14.42-0.82,24.94c-0.74-7.51-3.02-14.76-2.84-17.11c0.78-0.37,1.54-0.79,2.26-1.27
			c-0.8-0.74-1.69-1.37-2.65-1.9c0-1.07,0-4.99,0.18-5.31C61.08,47.09,62.86,47.44,62.86,47.44z"/>
		<g>
			<path class="st3" d="M62.9,56.62c-0.55-1.99-1.87-4.02-2.24-6c-0.5-2.73,1.89-5.1,4.51-5.48c0.88-0.13,1.76,0.24,2.57,0.61
				c2.9,1.32,6.46,2.27,8.58,4.81c2.72,3.26,2.88,7.75,3.01,11.77c0.01,0.19,0,0.41-0.13,0.54c-0.11,0.1-0.27,0.13-0.41,0.14
				c-1.05,0.07-2.05-0.41-3-0.87c-1.47-0.72-2.96-1.45-4.13-2.59c-0.63,0.86-1.81,1.03-2.83,1.35c-1.6,0.5-2.84,1.87-4.42,2.53
				C64.61,63.34,63.08,57.27,62.9,56.62z"/>
			<g>
				<path class="st14" d="M67.54,39c-0.63,3.72-1.86,7.45-4.18,8.79c0,0-2.53,2.85,5.01,8.98c1.24,1.1,3.11,2.3,4.35,1.2
					c2.59-2.39,2.74-4.7,2.44-6.17c-0.17-0.81-0.65-1.5-1.23-2.1c-1.65-1.71-0.45-3.53,1.5-9.18l-3.52-2.45
					c-0.8-1.09-2.34-1.32-3.43-0.52C68.01,37.9,67.67,38.42,67.54,39z"/>
				<path class="st15" d="M71.91,38.03c-0.81-1.09-2.34-1.32-3.43-0.51c-0.39,0.29-0.69,0.69-0.85,1.15
					c1.14,3.04,3.19,5.66,5.87,7.5c0.22-1.5,1.46-2.96,2.09-4.33c0.2-0.45-0.39-0.9-0.14-1.33L71.91,38.03z"/>
			</g>
		</g>
		<g>
			<path class="st13" d="M71.08,35.89c1.39,2.78,3.31,5.4,5.97,7c0.43,0.26,0.89,0.49,1.36,0.68c-0.08-2.23,0.14-4.48,0.61-6.64
				c0.58-2.7,1.5-5.32,2.27-7.97c0.07-0.23,0.13-0.45,0.19-0.68c0.52-1.88,1.24-3.95,0.87-5.9c-0.32-1.68-0.6-3.34-0.86-5.06
				c1.71,1.51,3.6,2.5,4.79,4.51c1.23,2.08,1.75,4.46,1.83,6.85c0.08,2.28-0.07,4.68-0.79,6.87c-0.28,0.86-0.66,1.69-1.14,2.47
				c-0.98,1.58-2.63,3.33-3.19,5.11c-0.53,1.69,0.93,2.67,0.65,4.47c0.14-0.89,0.3-1.82,0.83-2.54c0.23-0.32,0.53-0.58,0.82-0.84
				c1.82-1.62,3.43-2.99,4.54-5.2c1.87-3.68,2.25-8.03,1.38-12.06c-0.87-4.03-2.94-7.76-5.66-10.86c-1.56-1.77-3.39-3.39-5.61-4.19
				c-2.22-0.8-4.89-0.66-6.72,0.83c0,0-1.49,1.11-3.21,4.18C66.42,23.35,69.27,32.26,71.08,35.89z"/>
		</g>
		<path class="st14" d="M66.13,35.76c1.06,3.62,3.98,5.62,7.02,7.6c1.52,0.99,4.46,1.3,6.19,0.67c1.76-0.64,3.7-3.19,4.44-4.83
			c1.49-3.28,2.57-6.37,2.7-9.75c0.04-1.1-0.02-2.24-0.2-3.42c-0.58-3.75-2.25-7.56-5.7-9.49c-1.9-1.06-3.87-1.47-5.72-1.34
			c-4.88,0.35-8.98,4.42-9.18,9.91C65.57,28.61,65.14,32.37,66.13,35.76z"/>
		<path class="st15" d="M68.13,42.8c-1.71-4.18-1.36-9.15,0.93-13.04c-0.06-1.33-0.51-2.78-1.64-3.48
			c-0.74-0.47-1.74-0.67-2.49-0.22c-0.78,0.47-1.04,1.46-1.22,2.35c-0.46,2.28-0.86,4.68-0.2,6.92c0.65,2.24,2.66,4.25,4.99,4.13"/>
		<path class="st15" d="M68.6,29.03c0.06,0.39,0.12,0.77,0.18,1.15c0.94-1.21,2.24-2.89,3.63-3.6c1.13-0.57,2.58-0.73,3.79-1.21
			c1.83-0.72,3.32-1.7,4.6-3.18c0.36-0.42,2.06-2.09,1.64-2.7c2.05,2.98,3.43,6.42,4.05,9.98c0.04-1.1-0.02-2.24-0.2-3.42
			c-0.58-3.75-2.25-7.56-5.7-9.49c-1.9-1.06-3.87-1.47-5.72-1.34c-1.16,1.06-2.16,2.31-3.2,3.5c-1,1.13-2.06,2.24-2.75,3.59
			C67.84,24.4,68.23,26.77,68.6,29.03z"/>
		<path class="st22" d="M66.49,19.11c-0.23,0.32-0.4,0.64-0.52,0.98C66.15,19.77,66.32,19.44,66.49,19.11z"/>
		<path class="st22" d="M62.11,51.95c0.17-0.19,0.37-0.33,0.57-0.45c0.25-0.42,0.48-0.85,0.68-1.29
			C63.03,50.84,62.61,51.43,62.11,51.95z"/>
		<path class="st22" d="M63.37,50.21c-0.3,0.55-0.65,1.07-1.07,1.54c1.72-1.92,3.2-5.26,2.45-7.77c-0.43-1.46-1.49-2.81-2-4.35
			c0.17,0.5,0.34,1,0.5,1.51c0.74,1.45,1.17,3.05,1.19,4.67C64.45,47.32,64.09,48.86,63.37,50.21z"/>
		<path class="st25" d="M32.05,159.72c-0.15,3.19-0.48,6.37-0.99,9.51c2.82,8.42,6.43,16.52,11.51,23.58
			c5.13-13.28,9.75-26.66,11.05-34.68c6.68-28.25,16.34-57.61,16.34-57.61L44.9,93.72C33.65,102.82,33.41,130.87,32.05,159.72z"/>
		<path class="st23" d="M62.82,69.17c-0.32,6.7-1.68,13.28-3.15,19.81c-0.36,1.6-0.72,3.19-1.08,4.78
			c-0.81,3.61-1.59,7.24-2.17,10.91c-0.4,2.47-0.7,4.96-0.88,7.46c-0.22,3.15-0.91,7.85-0.59,11.72c0.12,1.44,0.38,2.77,0.86,3.86
			c-1.9,0.21-3.85,0.1-5.82-0.14c-3.12-0.38-6.27-1.08-9.27-1.37c-1.69-0.16-6.85-1.32-9.88-3.11c-1.28-0.76-2.18-1.63-2.28-2.59
			c-0.21-1.96-0.31-3.91-0.31-5.86c0-3.35,0.28-6.68,0.78-9.98c0.98-6.47,2.81-12.84,4.99-19.08c0.29-0.82,0.58-1.64,0.88-2.46
			c1.46-4.02,3.04-7.99,4.59-11.9c2.17-5.45,11.58-31.27,21.39-23.85c0.21,0.16,0.57,0.98,0.94,2.28
			C63.47,55.49,63.11,63.13,62.82,69.17z"/>
		<path class="st13" d="M59.96,41.88c0.33,1.41,0.78,2.8,0.86,4.24c0.14,2.61-1.04,5.27-3.08,6.91c1.12-0.9,3.32-0.9,4.68-1.38
			c2.11-0.74,3.15-2.27,4.03-4.34c1.11-2.6,1.24-5.03,0.77-7.8c-0.34-2-1.47-3.91-1.44-5.95c0.05-4.37,4.66-7.06,8.2-8.53
			c9.15-3.79,10.34-10.58,0.16-13.03c-1.65-0.4-3.03-1.08-4.78-0.6c-1.6,0.44-2.83,1.66-3.89,2.87c-1.56,1.79-2.89,3.78-4.29,5.69
			c-0.51,0.69-1.16,1.23-1.38,2.08c-0.2,0.78-0.14,1.85-0.29,2.69c-0.14,0.79-0.25,1.59-0.34,2.39c1.4-1.25,3.03-2.33,4.4-3.61
			c0.91-1.06,1.71-2.22,2.4-3.44c-0.4,1.11-0.33,2.32-0.75,3.55c-0.97,2.85-3.15,5.14-4.31,7.91c-1.29,3.09-1.74,6.45-1.07,9.76
			C59.87,41.5,59.91,41.69,59.96,41.88z"/>
		<g class="st26">
			<path d="M66.67,117.88c2.52,1.41,5.78,2.27,8.13,3.29c0.32,0.14,1.6,0.31,2.94,0.5c1.71,0.25,3.52,0.56,3.52,0.92
				c0.07-6.29,0.19-16.31,0.31-20.99c0.18-7.1,6.25-19.14,6.25-19.14c1.68,5.97,3.85,8.22,3.85,8.22
				c4.42,3.15,35.54,0.82,35.54,0.82c-0.25-0.24-0.48-0.55-0.69-0.91c-5.46-0.01-10.93-0.09-16.33-0.88
				c-5.01-0.73-12.38-2.01-16.3-5.52c-1.82-1.62-2.73-4.43-3.55-6.7c-0.35-0.96-1.52-7.66-2.1-7.89c-0.05-0.02-0.09-0.03-0.13-0.03
				c-0.45-0.04-0.72,0.66-0.74,1.19c-0.06,1.79-0.14,3.66-0.32,5.54c0,0,0,0,0,0c-0.32,3.34-0.94,6.71-2.29,9.75
				c-1.58,3.54-4.07,4.99-6.81,4.86c-1.24-0.06-2.53-0.44-3.82-1.11c-0.14,0.42-0.29,0.84-0.44,1.25c-2.14,5.84-3.79,11.4-5.02,17.5
				L66.67,117.88z"/>
		</g>
		<g class="st26">
			<path d="M30.83,123.09c3.03,1.79,8.19,2.95,9.88,3.11c3,0.29,6.15,0.99,9.27,1.37c2.15-1.01,3.76-2.27,4.96-3.72
				c-0.32-3.87,0.37-8.57,0.6-11.72c0.17-2.5,0.48-4.99,0.88-7.46c0.58-3.66,1.36-7.3,2.17-10.91c0.36-1.59,0.72-3.18,1.08-4.78
				c-1.61-4.22-3.3-8.41-4.99-12.59c-1.76-4.36-4.43-8.5-6.19-12.86c0.31,0.77-0.66,3.36-0.79,4.27c-0.8,5.66-1.3,11.39-0.89,17.11
				c0.41,5.59,3.94,11.03,3.25,16.62c-0.32,2.61-2.31,4.73-4.52,6.16c-3.83,2.5-9.13,4.28-11.93,8.12
				c-1.28,1.76-1.98,3.88-2.53,5.98C30.98,122.21,30.87,122.65,30.83,123.09z"/>
		</g>
		<g>
			<g>
				<defs>
					<path id="XMLID_00000077307827933702273270000002951487613900287671_" d="M83.5,104.61l-5.36-3c0,0-4.18,3.44-2.45,8.3
						l5.9,1.33c0,0,3.73,1.98,6.86,0.74c3.14-1.24,6.53,1.82,6.53,1.82s-2.54,0.03-2.73,0.72c-0.2,0.68,1.25,1.73,3.98,1.01
						c0,0,1.18,0.42,1.89-0.71c0,0,1.84,0.43,2.8-1.67c0.96-2.1,1.14-3.72,0.19-4.54c-0.95-0.82-3.26-2.79-3.26-2.79
						s10.3,1.16,11.45-1.71c0,0-13.83-1.57-14.76-1.45C93.46,102.81,83.5,104.61,83.5,104.61z"/>
				</defs>
				<use xlink:href="#XMLID_00000077307827933702273270000002951487613900287671_"  style="overflow:visible;fill:#FFC399;"/>
				<clipPath id="XMLID_00000075149590646840724420000000339312075740512643_">
					<use xlink:href="#XMLID_00000077307827933702273270000002951487613900287671_"  style="overflow:visible;"/>
				</clipPath>
				<path style="opacity:0.32;clip-path:url(#XMLID_00000075149590646840724420000000339312075740512643_);fill:#FFC399;" d="
					M97.86,115.75l0.28-0.91c0,0,1.76-4.26,1.57-4.55c-0.19-0.29-2.58-2.92-2.58-2.92s3.36,2.83,3.19,3.4
					c-0.17,0.57-2.52,4.51-0.3,3.92C102.24,114.1,97.86,115.75,97.86,115.75z"/>
				<path style="opacity:0.32;clip-path:url(#XMLID_00000075149590646840724420000000339312075740512643_);fill:#FFC399;" d="
					M95.7,116.26l0.55-0.7c0,0,0.61-0.79,1.36-3.1c0,0,0.58-1.1,0.27-1.62c-0.3-0.52-1.89-2.46-1.89-2.46s2.43,2.39,2.34,2.87
					c-0.1,0.49-1.69,4.88-0.63,4.51C98.76,115.4,95.7,116.26,95.7,116.26z"/>
				<path style="opacity:0.32;clip-path:url(#XMLID_00000075149590646840724420000000339312075740512643_);fill:#FFC399;" d="
					M94.43,113.65c-0.06,0.17,1.45,0.21,1.45,0.21s-1.34,0.01-0.96-0.75c0,0-0.62,0.08-2.12-1.16c-1.5-1.24-4.14-0.83-5.81-0.23
					c-1.67,0.6-4.94-1.52-4.94-1.52s-8-1.3-7.12-5.05c0.88-3.75-3.12,2.29-3.12,2.29l2.2,4.32l7.86,2.11l7.83-0.03L94.43,113.65z"/>
				<path style="opacity:0.32;clip-path:url(#XMLID_00000075149590646840724420000000339312075740512643_);fill:#FFC399;" d="
					M98.98,106.35l-1.09-0.5l-0.73-0.78c0,0,10.64,1.52,11.95,0.01c1.32-1.51-4.44,3.09-4.44,3.09l-2.58-0.39l-2.94-1.37"/>
				<path style="clip-path:url(#XMLID_00000075149590646840724420000000339312075740512643_);fill:#F89A7A;" d="M101.83,108.93
					c0,0,0,1.65-1.86,1.18c0,0-0.91,1.54-1.84,0.71c0,0-2.35,1.09-4.21-0.5s-6.79-1.13-9.29-0.9c-2.5,0.23-9.95-3.67-4.67-8.92
					c5.28-5.25-7.85-1.4-7.85-1.4l-1.28,8.15l5.14,6.32l8.58,4.08l12.5,0.58l5.46-3.85l1.28-3.09L101.83,108.93z"/>
			</g>
			<path class="st29" d="M107.03,103.82c0,0,0.35,0.9,2.33,0.48C109.36,104.3,109.95,103.88,107.03,103.82z"/>
		</g>
		<path class="st23" d="M85.5,104.32c-4,1.93-7.14,5.58-8.45,9.83c-0.08,0.24-0.19,0.53-0.44,0.58c-0.29,0.06-0.51-0.24-0.65-0.49
			c-4.89-8.68-13.53-13.58-20.98-19.72c-6.55-5.4-6.87-14.4-7.71-22.2c-0.71-6.58-0.47-14.1,4.47-19.12
			c2.21-2.25,4.13-2.27,5.67-1.15c2.17,1.57,3.61,5.4,4.12,8.5c0.05,0.3,0.09,0.6,0.12,0.88c0.59,5.31,1.17,10.63,1.76,15.94
			c0.69,6.23,4.03,8.87,7.87,12.34c0.02,0.02,0.04,0.03,0.05,0.05c0.5,0.45,1,0.91,1.51,1.4c0.24,0.23,0.47,0.46,0.71,0.69
			c3.92,3.92,8.38,7.14,12.6,10.7c0.15,0.12,0.3,0.25,0.37,0.43C86.75,103.56,86.06,104.05,85.5,104.32z"/>
	</g>
	<g style="clip-path:url(#SVGID_00000101072657533665475550000009362737592850159781_);">
		<g>
			<g>
				<path class="st30" d="M91.78,118.57h28.85c2.49,0,4.69-2.02,4.91-4.52l1.65-18.85c0.22-2.49-1.63-4.52-4.12-4.52H94.22
					c-2.49,0-4.69,2.02-4.91,4.52l-1.65,18.85C87.44,116.55,89.29,118.57,91.78,118.57z"/>
				<g>
					<g>
						<path class="st16" d="M92.81,118.57h28.85c2.49,0,4.69-2.02,4.91-4.52l1.65-18.85c0.22-2.49-1.63-4.52-4.12-4.52H95.25
							c-2.49,0-4.69,2.02-4.91,4.52l-1.65,18.85C88.47,116.55,90.32,118.57,92.81,118.57z"/>
					</g>
					<path class="st10" d="M89.83,117.35c0.74,0.76,1.78,1.22,2.98,1.22h28.85c2.49,0,4.69-2.02,4.91-4.52l1.65-18.85
						c0.14-1.6-0.57-3.01-1.76-3.81c-0.66-0.45-1.47-0.7-2.36-0.7H95.25c-2.49,0-4.69,2.02-4.91,4.52l-1.65,18.85
						C88.57,115.36,89.02,116.53,89.83,117.35z"/>
				</g>
			</g>
			<path class="st12" d="M89.83,117.35c0.74,0.76,1.78,1.22,2.98,1.22h16.76c3.8-6.04,11.14-17.75,16.89-27.18
				c-0.66-0.45-1.47-0.7-2.36-0.7h-13.74L89.83,117.35z"/>
			<path class="st3" d="M106.4,105.93c-0.15,1.66,1.08,3.01,2.75,3.01c1.66,0,3.13-1.35,3.27-3.01c0.15-1.66-1.08-3.01-2.75-3.01
				C108.01,102.92,106.55,104.27,106.4,105.93z"/>
		</g>
		<g>
			<g>
				<path class="st1" d="M85.19,118.57h1.64V90.31c0-12.86-4.53-25.4-12.75-35.29l-7.93-9.53l-1.26,1.05l7.93,9.53
					c7.98,9.6,12.38,21.76,12.38,34.24V118.57z"/>
			</g>
			<path class="st1" d="M64.09,47.33c0,1.74,1.41,3.15,3.15,3.15c1.74,0,3.15-1.41,3.15-3.15c0-1.74-1.41-3.15-3.15-3.15
				C65.5,44.18,64.09,45.59,64.09,47.33z"/>
		</g>
		<g id="Cabinet--inject-166_00000057147407846220731700000001689427804820161946_">
			<polygon class="st19" points="131.56,121.61 40.63,121.61 47.71,257.79 124.48,257.79 			"/>
			<polygon class="st31" points="131.56,121.61 40.63,121.61 47.71,257.79 124.48,257.79 			"/>
			<polygon class="st32" points="75.65,121.61 40.63,121.61 47.71,257.79 77.27,257.79 			"/>
			<g>
				<path class="st22" d="M121.53,133.45H85.16l0.13,115.71h31.5L121.53,133.45z"/>
			</g>
			<path class="st13" d="M38.14,121.61h95.91c1.67,0,3.03-1.36,3.03-3.03l0,0c0-1.67-1.36-3.03-3.03-3.04H38.14
				c-1.68,0.01-3.03,1.37-3.04,3.04l0,0C35.11,120.25,36.46,121.6,38.14,121.61z"/>
			<path class="st22" d="M38.14,121.61h40.02c1.67,0,3.03-1.36,3.04-3.03l0,0c-0.01-1.68-1.37-3.03-3.04-3.04H38.14
				c-1.68,0.01-3.03,1.37-3.04,3.04l0,0C35.11,120.25,36.46,121.6,38.14,121.61z"/>
		</g>
		<rect x="-12.5" y="257.79" class="st33" width="149.59" height="24.15"/>
		
			<rect x="-12.5" y="257.92" transform="matrix(-1 -4.501167e-11 4.501167e-11 -1 52.5459 539.8542)" class="st21" width="77.55" height="24.02"/>
	</g>
</g>
</svg>
