<?xml version="1.0" encoding="utf-8"?>
<!-- Generator: Adobe Illustrator 25.4.8, SVG Export Plug-In . SVG Version: 6.00 Build 0)  -->
<svg version="1.1" id="Layer_1" xmlns="http://www.w3.org/2000/svg" xmlns:xlink="http://www.w3.org/1999/xlink" x="0px" y="0px"
	 viewBox="0 0 166.61 166.61" style="enable-background:new 0 0 166.61 166.61;" xml:space="preserve">
<style type="text/css">
	.st0{fill:#E39371;}
	.st1{fill:url(#SVGID_1_);}
	.st2{fill:url(#SVGID_00000027593029808093560250000003833646501804117687_);}
	.st3{fill:url(#SVGID_00000051358735681457150710000006480280539676318396_);}
</style>
<g>
	<circle class="st0" cx="83.31" cy="83.31" r="83.31"/>
	<g>
		<linearGradient id="SVGID_1_" gradientUnits="userSpaceOnUse" x1="73.6273" y1="45.9795" x2="159.1959" y2="162.7556">
			<stop  offset="0" style="stop-color:#F7D5CA"/>
			<stop  offset="0.8843" style="stop-color:#EBB3A6"/>
		</linearGradient>
		<path class="st1" d="M139.95,71.37c-7.26-4.89,1.08-13.18,4.21-17.65c2.44-3.49,5.05-8.47,1.94-12.39
			c-1.23-1.55-4.14-2.18-5.99-1.99c-2.27,0.23-4.08,1.29-5.79,2.75c-1.75,1.5-3.11,3.45-4.43,5.33c-2.34,3.32-5.07,6.05-8.01,8.84
			c-1.17,1.11-2.19,2.21-3.2,3.46c-1.15,1.43-2.79,2.5-4.12,3.77c-2.47,2.35-4,0.44-4.82-1.7c-0.44-1.15-2.77-5.47-1.06-6.3
			c1.04-0.5,2.33-1.35,2.34-2.67c0.01-1.97-3.46-2.74-4.71-3.79c-0.94-0.79-2.45-1.21-3.5-1.89c-1.33-0.86-1.96-2.1-2.97-3.26
			c-1.8-2.07-4.78-2.66-7.32-3.36c-2.45-0.68-4.87-1.44-7.32-2.12c-2.68-0.74-5.33-0.42-8,0.18c-3.54,0.81-7.09,2.6-7.46,6.58
			c-0.09,0.97,0.13,1.98,0.39,2.9c0.08,0.29,0.5,0.63,0.88,0.99c-0.8,0.95-1.45,1.94-1.86,3.16c-0.08,0.24-0.15,0.48-0.22,0.72
			c-0.38,0.47-0.76,0.95-1.11,1.47c-1.03,1.51-3.67,6.47-1.26,7.77c-0.54,1.95-0.73,3.78-3.1,4.44c-1.35,0.38-2.88-0.09-4.26,0.04
			c-2.12,0.2-3.56,1.08-4.72,2.84c-0.62,0.94-1.01,2.03-1.36,3.09c-0.88,2.7-3.34,4.2-6.12,4.08c-1.68-0.07-3.35-0.67-4.94-1.15
			c-1.98-0.59-3.81-0.8-5.86-0.98c-4.64-0.41-9.96-0.59-11.47,4.73c-1.55,5.44,4.18,7.3,8.35,6.26c3.16-0.79,5.79-2.91,9.05-3.56
			c3.56-0.71,6.13,2.18,9.53,2.42c5.39,0.39,11.01-5.12,14.84-8.23c2.99-2.43,6.26-4.53,9.91-5.83c2.57-0.91,9.45-0.22,9.79,3.31
			c0.12,1.23-2.23,2.98-3.04,3.88c-0.73,0.81-1.47,1.85-1.93,2.85c-1.11,2.42-0.71,4.36,0.93,6.43c1.96,2.48,4.85,3.4,5.89,6.68
			c0.7,2.21-0.85,3.83-0.85,5.84c0,1.95,0,3.9,0,5.86c0,3.15,0.31,6.22,1.9,9c1.53,2.67,3.85,4.83,6.42,6.48
			c2.31,1.49,5,2.31,7.73,2.52c2.8,0.22,5.07-1.35,7.26-2.88c2.15-1.51,5.23-1.91,7.11-3.82c1.82-1.85,2.69-4.19,3.27-6.69
			c0.76-3.23-0.09-6.75,1.27-9.87c0.76-1.74,3.41-2.05,4.98-2.75c1.79-0.79,3.54-1.65,5.26-2.57c4.2-2.27,9.41-5.69,11.65-10.08
			c0.48-0.94,1.08-2.09,1.18-3.16c0.09-1.01,0.81-2.87,0.33-3.9C144.19,74.5,142.64,73.18,139.95,71.37z"/>
		
			<linearGradient id="SVGID_00000053547770545109390210000014271079971180586124_" gradientUnits="userSpaceOnUse" x1="30.4634" y1="77.6076" x2="116.033" y2="194.385">
			<stop  offset="0" style="stop-color:#F7D5CA"/>
			<stop  offset="0.8843" style="stop-color:#EBB3A6"/>
		</linearGradient>
		<path style="fill:url(#SVGID_00000053547770545109390210000014271079971180586124_);" d="M79.53,94.93
			c-0.79-2-3.12-3.21-5.09-3.84c-2.56-0.81-3.13,3.58-5.16,3.31c0.05-0.17,0.02-0.29-0.13-0.29c-0.02,0-0.04,0-0.06,0
			c0-0.97-0.14-1.92-0.66-2.62c-1.4-1.88-3.79-1.9-5.75-0.96c-1.37,0.66-1.89,2.25-2.28,3.59c-0.44,1.51-0.5,2.93-2.94,2.77
			c-0.54-0.03-1.01-0.06-1.55-0.02c-1.78,0.15-3.51,0.24-5.23,0.76c-2.55,0.77-4.85,2.09-6.93,3.74c-1.11,0.88-2.08,1.92-3.13,2.86
			c-1.44,1.28-2.27,3.26-4.47,2.94c-5.17-0.75-9.78-7.51-15.27-3.55c-2.49,1.8-3.07,6.66-1.28,9.03c1.26,1.67,5.06,1.06,6.81,1.07
			c3.4,0,6.94-0.31,10.28,0.47c3.7,0.87,4.27,4.01,4.97,7.19c0.73,3.29,2.3,6.59,4.05,9.46c2.68,4.39,8.87,1.52,11.38-1.59
			c1.35-1.67,0.33-4.67,0.14-6.53c-0.13-1.26-0.26-2.53-0.26-3.8c-0.01-3.5,2.96-3.33,5.5-3.76c3.26-0.55,6.09-1.36,9.17-2.53
			c1.76-0.67,2.78-2.07,3.37-3.84c0.54-1.64,0.88-3.29,1.15-4.99c0.22-1.38-0.04-4.17,1.23-5.03C78.5,98.01,80.16,96.53,79.53,94.93
			z"/>
		
			<linearGradient id="SVGID_00000078751851548795584970000003450942984061405099_" gradientUnits="userSpaceOnUse" x1="56.0218" y1="58.879" x2="141.5921" y2="175.6574">
			<stop  offset="0" style="stop-color:#F7D5CA"/>
			<stop  offset="0.8843" style="stop-color:#EBB3A6"/>
		</linearGradient>
		<path style="fill:url(#SVGID_00000078751851548795584970000003450942984061405099_);" d="M73.88,74.21
			c-2.32,0.31-4.02,2.5-5.63,3.99c-0.57,0.53-1.41,1.41-1.82,2.32c-0.73,0.71-1.31,1.5-1.32,2.39c-0.01,1.53,2.14,3.84,3.75,3.48
			c1-0.23,1.85-1.08,2.59-1.74c0.73-0.65,1.51-1.31,2.38-1.78c0.57-0.31,1.3-0.44,1.81-0.87c1.36-1.15,2.17-2.26,2.27-4.08
			C78.06,75.39,76.33,73.88,73.88,74.21z"/>
	</g>
</g>
</svg>
