<?xml version="1.0" encoding="utf-8"?>
<!-- Generator: Adobe Illustrator 25.4.8, SVG Export Plug-In . SVG Version: 6.00 Build 0)  -->
<svg version="1.1" id="Layer_1" xmlns="http://www.w3.org/2000/svg" xmlns:xlink="http://www.w3.org/1999/xlink" x="0px" y="0px"
	 viewBox="0 0 166.6 166.6" style="enable-background:new 0 0 166.6 166.6;" xml:space="preserve">
<style type="text/css">
	.st0{opacity:0.51;fill:url(#SVGID_1_);}
	.st1{fill:#D3884A;}
	.st2{fill:#E9F1F1;}
	.st3{fill:#AE6D39;}
	.st4{fill:#D69056;}
	.st5{fill:#FFFFF9;}
	.st6{fill:#DCA06F;}
	.st7{fill:#FBE18D;}
</style>
<g>
	<g>
		<linearGradient id="SVGID_1_" gradientUnits="userSpaceOnUse" x1="0" y1="83.1691" x2="166.61" y2="83.1691">
			<stop  offset="0" style="stop-color:#5F74B1"/>
			<stop  offset="0.2466" style="stop-color:#7A90D2"/>
			<stop  offset="0.4903" style="stop-color:#8FA6EB"/>
			<stop  offset="0.7125" style="stop-color:#9CB3FA"/>
			<stop  offset="0.8936" style="stop-color:#A0B7FF"/>
		</linearGradient>
		<circle class="st0" cx="83.3" cy="83.2" r="83.3"/>
		<g>
			<path class="st1" d="M35.8,151.6c13.6,9.5,30.1,15.2,47.9,15.2c18.4,0,35.4-6,49.2-16.1c-11.5-3.5-28.4-5.8-47.2-5.8
				C65.4,144.9,47.3,147.5,35.8,151.6z"/>
			<path class="st2" d="M78.8,6c-17.1,0.2-28.2,4.3-31.7,10.2s-2.1,17.1,1.2,18.3l59.8-8.1c0,0,2.6-5.9,1.9-12.2
				C109.3,7.9,93.6,5.8,78.8,6z"/>
			<path class="st1" d="M102.6,106.9c0.2-9.1-38.3-10.1-38.4-1c-0.6,33.6-13.9,41.5-13.9,41.5s9.2,16.9,33.6,16.9
				c22.1,0,31.2-16.9,31.2-16.9S102,140.4,102.6,106.9z"/>
			<path class="st3" d="M63.3,112.5c0,0-0.5,10.2-3.2,19.9c-2.4,8.7-9.7,15-9.7,15s3.9,6.2,9.7,9.9c7.9,5.1,14,6,14,6l29.9-36.9
				l-1.3-15.7L63.3,112.5z"/>
			<path class="st4" d="M82.8,22.6c-22.2,0-43.2,23.6-40.2,52.3c3.1,30.3,25.1,54.3,40.2,54.3c14.8,0,36.9-24.5,40.2-54.3
				C126.2,46.2,105,22.6,82.8,22.6z"/>
			<path class="st1" d="M43.3,77.4c2.9,27.2,23.8,50.5,38.1,51.8c-11.1-8.4-21.7-24.9-23.8-44.2c-2.8-26.5,17.2-48.3,38.5-48.3
				c2.2,0,4.4,0.3,6.6,0.7c-6-4.2-12.9-6.6-20-6.6C61.5,30.9,40.4,50.9,43.3,77.4z"/>
			<path class="st5" d="M102.7,23.8c-12.8-7.1-29.1-3.5-37.8,2.1c-8.7,5.6-9.6,19.2-9.6,19.2s34.8,1.1,46.9,9.4
				c16,10.9,18.6,31.4,18.6,31.4s4.6-9.8,2.7-28.6C122,41.8,111.6,28.7,102.7,23.8z"/>
			<path class="st5" d="M62.8,18.9C41.5,29,40.3,48.4,39.4,59.7c-0.9,11.3,4.5,23.6,4.5,23.6s1.9-8.3,8.4-17.5
				c10.1-14.3,27-19.5,37.4-22.1c10.9-2.6,27.2-5.6,27.2-5.6s2.5-13.2-1.8-19.3C110.9,12.7,84.2,8.8,62.8,18.9z"/>
			<path class="st2" d="M115.5,33.5c-1.7,2.3-9.8,2-20,3.7C74.8,40.6,60.3,47.8,51.3,61c-8.9,13.2-7.4,22.3-7.4,22.3
				s1.9-8.3,8.4-17.5c10.1-14.3,27-19.5,37.4-22.1c10.9-2.6,27.2-5.6,27.2-5.6s1.1-5.8,0.6-11.5C117.4,26.9,117.1,31.3,115.5,33.5z"
				/>
			<path class="st2" d="M85.2,43.7l-8.2,3.4l0,0c9.5,1.4,19.7,3.6,25.2,7.4c16,10.9,18.6,31.4,18.6,31.4s1.5-14.1-8.2-27.3
				C101.6,43.8,85.2,43.7,85.2,43.7z"/>
			<path class="st1" d="M51,104.4c-2.7,0.4-3.4,8-3.4,8l5.6,19c0,0,0.7-15.4,0.6-18.8C53.6,109.1,53.7,104,51,104.4z"/>
			<path class="st6" d="M52.5,89.1c0.9-3.4,1.2-10.7-1.8-10.3c-1.9,0.3-2.2,3.5-4,6.9c-0.7,1.4-11.5,21.6-12,24.5
				c-0.5,2.9-5.6,30.3-6.8,32.6c-0.7,1.4-3.7,7.4-6,12c-1.4,2.8,0.1,6.3,3.1,7.2l7.2,2.2c2.8,0.8,5.7-0.8,6.5-3.6
				c1.1-4.2,2.7-9.6,4-11c2.2-2.3,11.1-9,11-17.6c-0.1-8.6-6.8-20.4-6.7-23.5C47.2,105.5,51.9,91.4,52.5,89.1z"/>
			<path class="st1" d="M113.2,104.4c-2.7-0.4-2.7,4.7-2.8,8.2c-0.1,3.4,0.6,18.8,0.6,18.8l5.6-19
				C116.7,112.4,116,104.8,113.2,104.4z"/>
			<path class="st6" d="M136.3,142.9c-1.2-2.3-6.3-29.7-6.8-32.6c-0.5-2.9-11.3-23.1-12-24.5c-1.7-3.4-2-6.7-4-6.9
				c-2.9-0.4-2.6,6.9-1.8,10.3c0.6,2.3,5.3,16.4,5.4,19.5c0.1,3.1-6.6,14.8-6.7,23.5c-0.1,8.6,8.8,15.3,11,17.6
				c1.3,1.3,2.9,6.6,4,10.8c0.8,2.9,3.8,4.6,6.7,3.7l6.8-2.1c3.2-1,4.7-4.5,3.2-7.5C139.9,150.1,137,144.3,136.3,142.9z"/>
			<g>
				<path class="st7" d="M134.1,70.7l-2-5.2l-2,5.4c-0.7,1.9-2.3,3.4-4.2,4.1l-5.1,1.8l5.5,2c1.9,0.7,3.5,2.3,4.1,4.2l1.7,5l1.8-4.9
					c0.7-1.8,2-3.3,3.8-4l5.7-2.4l-5.4-2.1C136.2,74,134.8,72.5,134.1,70.7z"/>
				<path class="st7" d="M38.3,45.7l-2-5.2l-2,5.4C33.5,47.8,32,49.3,30,50l-5.1,1.8l5.5,2c1.9,0.7,3.5,2.3,4.1,4.2l1.7,5l1.8-4.9
					c0.7-1.8,2-3.3,3.8-4l5.7-2.4l-5.4-2.1C40.4,48.9,38.9,47.5,38.3,45.7z"/>
				<path class="st7" d="M106.7,14.3l-1.3-3.4l-1.3,3.5c-0.5,1.2-1.4,2.2-2.7,2.6l-3.3,1.1l3.5,1.3c1.2,0.5,2.2,1.5,2.6,2.7l1.1,3.2
					l1.2-3.2c0.4-1.2,1.3-2.1,2.4-2.6l3.6-1.5l-3.4-1.4C108,16.4,107.1,15.5,106.7,14.3z"/>
				<path class="st7" d="M31.8,101.3l-0.8-2.2l-0.8,2.3c-0.3,0.8-0.9,1.4-1.7,1.7l-2.1,0.7l2.3,0.8c0.8,0.3,1.4,0.9,1.7,1.8l0.7,2.1
					l0.7-2.1c0.3-0.8,0.8-1.4,1.6-1.7l2.4-1l-2.2-0.9C32.6,102.6,32,102,31.8,101.3z"/>
				<path class="st7" d="M130.6,36.7l-0.8-2.2l-0.8,2.3c-0.3,0.8-0.9,1.4-1.7,1.7l-2.1,0.7l2.3,0.8c0.8,0.3,1.4,0.9,1.7,1.8l0.7,2.1
					l0.7-2.1c0.3-0.8,0.8-1.4,1.6-1.7l2.4-1l-2.2-0.9C131.5,38,130.9,37.4,130.6,36.7z"/>
				<path class="st7" d="M74.3,39.7L73.6,38l-0.7,1.8c-0.2,0.6-0.7,1.1-1.4,1.3l-1.7,0.6l1.8,0.7c0.6,0.2,1.1,0.7,1.4,1.4l0.6,1.7
					l0.6-1.6c0.2-0.6,0.7-1.1,1.3-1.3l1.9-0.8L75.5,41C75,40.8,74.5,40.3,74.3,39.7z"/>
				<path class="st7" d="M60.6,131.3l-0.7-1.7l-0.7,1.8c-0.2,0.6-0.7,1.1-1.4,1.3l-1.7,0.6L58,134c0.6,0.2,1.1,0.7,1.4,1.4l0.6,1.7
					l0.6-1.6c0.2-0.6,0.7-1.1,1.3-1.3l1.9-0.8l-1.8-0.7C61.3,132.4,60.8,131.9,60.6,131.3z"/>
				<path class="st7" d="M94.2,139.9l-1.4-3.6l-1.4,3.7c-0.5,1.3-1.5,2.4-2.9,2.8l-3.5,1.2l3.8,1.4c1.3,0.5,2.4,1.6,2.8,2.9l1.2,3.4
					l1.2-3.4c0.5-1.2,1.4-2.2,2.6-2.7l3.9-1.6l-3.7-1.5C95.7,142.1,94.7,141.1,94.2,139.9z"/>
			</g>
		</g>
	</g>
</g>
</svg>
