<?xml version="1.0" encoding="utf-8"?>
<!-- Generator: Adobe Illustrator 25.4.8, SVG Export Plug-In . SVG Version: 6.00 Build 0)  -->
<svg version="1.1" id="Layer_1" xmlns="http://www.w3.org/2000/svg" xmlns:xlink="http://www.w3.org/1999/xlink" x="0px" y="0px"
	 viewBox="0 0 166.6 166.6" style="enable-background:new 0 0 166.6 166.6;" xml:space="preserve">
<style type="text/css">
	.st0{clip-path:url(#SVGID_00000148639688710552253900000002590330095139669645_);}
	.st1{opacity:0.18;fill:url(#SVGID_00000044898142483428637760000003103021519459745684_);enable-background:new    ;}
	.st2{fill:#F1AC96;}
	.st3{fill:#FBC3AD;}
	.st4{fill:#58595B;}
	.st5{fill:#414042;}
	.st6{fill:#5F74B2;}
</style>
<g>
	<g>
		<g>
			<defs>
				<circle id="SVGID_1_" cx="83.3" cy="83.6" r="83"/>
			</defs>
			<clipPath id="SVGID_00000112609802012946995150000011264847366864457894_">
				<use xlink:href="#SVGID_1_"  style="overflow:visible;"/>
			</clipPath>
			<g style="clip-path:url(#SVGID_00000112609802012946995150000011264847366864457894_);">
				
					<linearGradient id="SVGID_00000000190564874590801250000015970475313646549942_" gradientUnits="userSpaceOnUse" x1="-15.6848" y1="106.3605" x2="180.3013" y2="106.3605" gradientTransform="matrix(1 0 0 -1 0 168)">
					<stop  offset="0" style="stop-color:#5F74B1"/>
					<stop  offset="0.2466" style="stop-color:#7A90D2"/>
					<stop  offset="0.4903" style="stop-color:#8FA6EB"/>
					<stop  offset="0.7125" style="stop-color:#9CB3FA"/>
					<stop  offset="0.8936" style="stop-color:#A0B7FF"/>
				</linearGradient>
				
					<circle style="opacity:0.18;fill:url(#SVGID_00000000190564874590801250000015970475313646549942_);enable-background:new    ;" cx="82.3" cy="61.6" r="98"/>
				<g>
					<path class="st2" d="M169.5,177.6H-4.7c-2.2,0-4-1.8-4-4V99.4c0-2.2,1.8-4,4-4h174.2c2.2,0,4,1.8,4,4v74.2
						C173.5,175.8,171.7,177.6,169.5,177.6z"/>
				</g>
				<g>
					<path class="st3" d="M173.5,114.8c-15.2,0-15.2,13.8-30.4,13.8s-15.2-13.8-30.4-13.8s-15.2,13.8-30.4,13.8
						c-15.2,0-15.2-13.8-30.4-13.8s-15.2,13.8-30.4,13.8c-15.2,0-15.2-13.8-30.4-13.8V99.1c0-2.1,1.7-3.7,3.7-3.7h174.7
						c2.1,0,3.7,1.7,3.7,3.7L173.5,114.8L173.5,114.8z"/>
				</g>
				<g>
					<g>
						<path class="st4" d="M110.6,22.3c1.7-3-2.6-5.8-4.7-3.1C77.6,57.1,63.1,97,62.8,139.4c0,6.6,5,11.9,11.1,11.9
							c5.4,0,9.8-4.1,10.9-9.5c0.2-1.2,0.2-2.4,0.1-3.7C80.5,99.5,89.2,60.6,110.6,22.3z"/>
					</g>
					<g>
						<path class="st5" d="M105.9,19.2c-1.1,1.4-2.1,2.8-3.1,4.2c-19.1,36.5-26.7,73.3-22.6,110c0.1,1.2,0.1,2.5-0.1,3.7
							c-1,5.4-5.5,9.5-10.9,9.5c-1.8,0-3.4-0.5-4.9-1.2c1.9,3.5,5.5,5.9,9.5,5.9c5.4,0,9.8-4.1,10.9-9.5c0.2-1.2,0.2-2.4,0.1-3.7
							c-4.3-38.6,4.3-77.5,25.8-115.8C112.3,19.2,108,16.4,105.9,19.2z"/>
					</g>
				</g>
				<g>
					<g>
						<path class="st4" d="M180.4,22.3c1.7-3-2.6-5.8-4.7-3.1c-28.4,37.8-42.8,77.8-43.1,120.1c0,6.6,5,11.9,11.1,11.9
							c5.4,0,9.8-4.1,10.9-9.5c0.2-1.2,0.2-2.4,0.1-3.7C150.3,99.5,159,60.6,180.4,22.3z"/>
					</g>
					<g>
						<path class="st5" d="M175.7,19.2c-1.1,1.4-2.1,2.8-3.1,4.2c-19.1,36.5-26.7,73.3-22.6,110c0.1,1.2,0.1,2.5-0.1,3.7
							c-1,5.4-5.5,9.5-10.9,9.5c-1.8,0-3.4-0.5-4.9-1.2c1.9,3.5,5.5,5.9,9.5,5.9c5.4,0,9.8-4.1,10.9-9.5c0.2-1.2,0.2-2.4,0.1-3.7
							c-4.3-38.6,4.3-77.5,25.8-115.8C182.1,19.2,177.8,16.4,175.7,19.2z"/>
					</g>
				</g>
				<g>
					<g>
						<path class="st4" d="M33.1,22.3c1.7-3-2.6-5.8-4.7-3.1C0,57.1-14.5,97-14.7,139.4c0,6.6,5,11.9,11.1,11.9
							c5.4,0,9.8-4.1,10.9-9.5c0.2-1.2,0.2-2.4,0.1-3.7C3,99.5,11.6,60.6,33.1,22.3z"/>
					</g>
					<g>
						<path class="st5" d="M28.4,19.2c-1.1,1.4-2.1,2.8-3.1,4.2C6.2,59.9-1.5,96.8,2.6,133.5c0.1,1.2,0.1,2.5-0.1,3.7
							c-1,5.4-5.5,9.5-10.9,9.5c-1.8,0-3.4-0.5-4.9-1.2c1.9,3.5,5.5,5.9,9.5,5.9c5.4,0,9.8-4.1,10.9-9.5c0.2-1.2,0.2-2.4,0.1-3.7
							C3,99.5,11.6,60.6,33,22.3C34.8,19.2,30.5,16.4,28.4,19.2z"/>
					</g>
				</g>
			</g>
		</g>
	</g>
	<g>
		<g>
			<g>
				<g>
					<path class="st6" d="M142.9,23.3v45.1c0,0.9-0.9,1.6-1.9,1.6h-14.6c-1.1,0-1.9-0.7-1.9-1.6V23.3L142.9,23.3z"/>
				</g>
			</g>
		</g>
		<g>
			<g>
				<g>
					<path class="st6" d="M148.1,28.8h-28.9c-1.5,0-2.4-1.6-1.6-2.9L132,1.5c0.7-1.2,2.5-1.2,3.2,0l14.4,24.5
						C150.4,27.2,149.5,28.8,148.1,28.8z"/>
				</g>
			</g>
		</g>
	</g>
</g>
</svg>
