<?xml version="1.0" encoding="utf-8"?>
<!-- Generator: Adobe Illustrator 25.4.8, SVG Export Plug-In . SVG Version: 6.00 Build 0)  -->
<svg version="1.1" id="Layer_1" xmlns="http://www.w3.org/2000/svg" xmlns:xlink="http://www.w3.org/1999/xlink" x="0px" y="0px"
	 viewBox="0 0 166.61 166.61" style="enable-background:new 0 0 166.61 166.61;" xml:space="preserve">
<style type="text/css">
	.st0{fill:#FFC9A9;}
	.st1{fill:#FF6F8A;}
	.st2{fill:#FF688A;}
	.st3{fill:#A80000;}
	.st4{fill:#FFFFFF;}
</style>
<g>
	<g>
		<g>
			
				<ellipse transform="matrix(0.9871 -0.1602 0.1602 0.9871 -12.2685 14.4199)" class="st0" cx="83.31" cy="83.31" rx="83.06" ry="83.06"/>
			<g>
				<g>
					<circle class="st1" cx="99.12" cy="56.83" r="10.98"/>
					<path class="st2" d="M92.36,50.07c-3.41,3.41-3.41,8.95,0,12.36c3.41,3.41,8.95,3.41,12.36,0c3.41-3.41,3.41-8.95,0-12.36
						C101.31,46.66,95.78,46.66,92.36,50.07z"/>
					<circle class="st3" cx="98.69" cy="56.39" r="5.89"/>
					
						<ellipse transform="matrix(0.7071 -0.7071 0.7071 0.7071 -10.3034 88.3456)" class="st4" cx="101.49" cy="56.61" rx="1.63" ry="1.52"/>
				</g>
				<g>
					<path class="st1" d="M134.33,54.1c-2.89,2.89-2.89,7.57,0,10.46c2.89,2.89,7.57,2.89,10.46,0c2.89-2.89,2.89-7.57,0-10.46
						C141.9,51.21,137.22,51.21,134.33,54.1z"/>
					<circle class="st2" cx="139.17" cy="58.95" r="5.89"/>
					<path class="st3" d="M136.46,56.23c-1.55,1.55-1.55,4.07,0,5.62c1.55,1.55,4.07,1.55,5.62,0c1.55-1.55,1.55-4.07,0-5.62
						C140.53,54.68,138.01,54.68,136.46,56.23z"/>
					
						<ellipse transform="matrix(0.7071 -0.7071 0.7071 0.7071 -0.5081 117.1485)" class="st4" cx="141.16" cy="59.19" rx="1.1" ry="1.03"/>
				</g>
				<g>
					<circle class="st1" cx="73.28" cy="144.67" r="7.4"/>
					<circle class="st2" cx="72.89" cy="144.28" r="5.89"/>
					<circle class="st3" cx="72.99" cy="144.38" r="3.97"/>
					<path class="st4" d="M74.15,143.8c-0.43,0.43-0.45,1.1-0.05,1.5c0.4,0.4,1.07,0.38,1.5-0.05c0.43-0.43,0.45-1.1,0.05-1.5
						C75.25,143.35,74.58,143.37,74.15,143.8z"/>
				</g>
				<g>
					<path class="st1" d="M29.17,72.06c-4.33,4.33-4.33,11.36,0,15.69c4.33,4.33,11.36,4.33,15.69,0c4.33-4.33,4.33-11.36,0-15.69
						C40.53,67.73,33.51,67.73,29.17,72.06z"/>
					<path class="st2" d="M30.19,73.08c-3.45,3.45-3.45,9.05,0,12.5c3.45,3.45,9.05,3.45,12.5,0c3.45-3.45,3.45-9.05,0-12.5
						C39.24,69.63,33.64,69.63,30.19,73.08z"/>
					<path class="st3" d="M32.37,75.26c-2.33,2.33-2.33,6.1,0,8.43c2.33,2.33,6.1,2.33,8.43,0c2.33-2.33,2.33-6.1,0-8.43
						C38.47,72.93,34.7,72.93,32.37,75.26z"/>
					<path class="st4" d="M38.33,78.6c-0.64,0.64-0.67,1.65-0.07,2.25c0.6,0.6,1.61,0.57,2.25-0.07c0.64-0.64,0.67-1.65,0.07-2.25
						C39.98,77.93,38.97,77.96,38.33,78.6z"/>
				</g>
				<g>
					<path class="st1" d="M31.93,29.23c-2.25,2.25-2.25,5.91,0,8.16c2.25,2.25,5.91,2.25,8.16,0c2.25-2.25,2.25-5.91,0-8.16
						C37.84,26.97,34.19,26.97,31.93,29.23z"/>
					<path class="st2" d="M32.46,29.76c-1.8,1.79-1.8,4.71,0,6.5c1.8,1.8,4.71,1.8,6.5,0c1.8-1.8,1.8-4.71,0-6.5
						C37.17,27.96,34.26,27.96,32.46,29.76z"/>
					<path class="st3" d="M33.59,30.89c-1.21,1.21-1.21,3.17,0,4.38c1.21,1.21,3.17,1.21,4.38,0c1.21-1.21,1.21-3.17,0-4.38
						C36.77,29.68,34.81,29.68,33.59,30.89z"/>
					<path class="st4" d="M36.69,32.63c-0.33,0.33-0.35,0.86-0.04,1.17c0.31,0.31,0.84,0.3,1.17-0.04c0.33-0.33,0.35-0.86,0.04-1.17
						C37.55,32.28,37.03,32.3,36.69,32.63z"/>
				</g>
				<g>
					<path class="st1" d="M60.67,43.87c-3.08,3.08-3.08,8.07,0,11.15c3.08,3.08,8.07,3.08,11.15,0c3.08-3.08,3.08-8.07,0-11.15
						C68.74,40.79,63.75,40.79,60.67,43.87z"/>
					<path class="st2" d="M61.39,44.59c-2.45,2.45-2.45,6.43,0,8.88c2.45,2.45,6.43,2.45,8.88,0c2.45-2.45,2.45-6.43,0-8.88
						C67.82,42.14,63.84,42.14,61.39,44.59z"/>
					<path class="st3" d="M62.94,46.14c-1.65,1.65-1.65,4.33,0,5.99c1.65,1.65,4.33,1.65,5.99,0c1.65-1.65,1.65-4.33,0-5.99
						C67.27,44.49,64.59,44.49,62.94,46.14z"/>
					<path class="st4" d="M67.17,48.52c-0.46,0.46-0.48,1.17-0.05,1.6c0.43,0.43,1.14,0.4,1.6-0.05s0.48-1.17,0.05-1.6
						C68.34,48.04,67.63,48.06,67.17,48.52z"/>
				</g>
				<g>
					<circle class="st1" cx="145.7" cy="101.45" r="6.58"/>
					<path class="st2" d="M141.65,97.4c-2.05,2.05-2.05,5.36,0,7.41c2.05,2.05,5.36,2.05,7.41,0c2.05-2.05,2.05-5.36,0-7.41
						C147.01,95.35,143.7,95.35,141.65,97.4z"/>
					<path class="st3" d="M142.94,98.69c-1.38,1.38-1.38,3.62,0,5c1.38,1.38,3.62,1.38,5,0c1.38-1.38,1.38-3.62,0-5
						C146.56,97.31,144.32,97.31,142.94,98.69z"/>
					<path class="st4" d="M146.48,100.67c-0.38,0.38-0.4,0.98-0.04,1.34c0.36,0.36,0.95,0.34,1.34-0.04
						c0.38-0.38,0.4-0.98,0.04-1.34C147.45,100.27,146.86,100.29,146.48,100.67z"/>
				</g>
				<g>
					<circle class="st1" cx="34.65" cy="121.54" r="6.58"/>
					<path class="st2" d="M30.6,117.5c-2.05,2.05-2.05,5.36,0,7.41c2.05,2.05,5.36,2.05,7.41,0c2.05-2.05,2.05-5.36,0-7.41
						C35.97,115.45,32.65,115.45,30.6,117.5z"/>
					<circle class="st3" cx="34.4" cy="121.29" r="3.53"/>
					<path class="st4" d="M35.43,120.77c-0.38,0.38-0.4,0.98-0.04,1.34c0.36,0.36,0.95,0.34,1.34-0.04c0.38-0.38,0.4-0.98,0.04-1.34
						C36.41,120.37,35.81,120.39,35.43,120.77z"/>
				</g>
				<g>
					<circle class="st1" cx="110.05" cy="131.68" r="5.62"/>
					<path class="st2" d="M106.59,128.22c-1.75,1.75-1.75,4.58,0,6.33c1.75,1.75,4.58,1.75,6.33,0c1.75-1.75,1.75-4.58,0-6.33
						C111.18,126.47,108.34,126.47,106.59,128.22z"/>
					<path class="st3" d="M107.7,129.32c-1.18,1.18-1.18,3.09,0,4.27c1.18,1.18,3.09,1.18,4.27,0c1.18-1.18,1.18-3.09,0-4.27
						S108.88,128.14,107.7,129.32z"/>
					<path class="st4" d="M110.72,131.02c-0.33,0.33-0.34,0.84-0.04,1.14c0.3,0.3,0.82,0.29,1.14-0.04
						c0.33-0.33,0.34-0.84,0.04-1.14C111.55,130.67,111.04,130.69,110.72,131.02z"/>
				</g>
				<g>
					<path class="st1" d="M91.36,14.22c-2.89,2.89-2.89,7.57,0,10.46c2.89,2.89,7.57,2.89,10.46,0c2.89-2.89,2.89-7.57,0-10.46
						C98.93,11.33,94.25,11.33,91.36,14.22z"/>
					<circle class="st2" cx="96.2" cy="19.06" r="5.89"/>
					<path class="st3" d="M93.49,16.35c-1.55,1.55-1.55,4.07,0,5.62c1.55,1.55,4.07,1.55,5.62,0c1.55-1.55,1.55-4.07,0-5.62
						C97.55,14.8,95.04,14.8,93.49,16.35z"/>
					<path class="st4" d="M97.46,18.58c-0.43,0.43-0.45,1.1-0.05,1.5c0.4,0.4,1.07,0.38,1.5-0.05c0.43-0.43,0.45-1.1,0.05-1.5
						C98.56,18.13,97.89,18.15,97.46,18.58z"/>
				</g>
				<g>
					<path class="st1" d="M106.82,86.03c-3.78,3.78-3.78,9.9,0,13.67c3.78,3.78,9.9,3.78,13.67,0s3.78-9.9,0-13.67
						C116.71,82.26,110.59,82.26,106.82,86.03z"/>
					<path class="st2" d="M107.7,86.92c-3.01,3.01-3.01,7.88,0,10.89c3.01,3.01,7.88,3.01,10.89,0c3.01-3.01,3.01-7.88,0-10.89
						C115.58,83.91,110.71,83.91,107.7,86.92z"/>
					<path class="st3" d="M109.6,88.82c-2.03,2.03-2.03,5.31,0,7.34c2.03,2.03,5.31,2.03,7.34,0c2.03-2.03,2.03-5.31,0-7.34
						C114.92,86.79,111.63,86.79,109.6,88.82z"/>
					<path class="st4" d="M114.79,91.73c-0.56,0.56-0.59,1.44-0.06,1.96c0.52,0.52,1.4,0.5,1.96-0.06s0.59-1.44,0.06-1.96
						C116.23,91.14,115.35,91.17,114.79,91.73z"/>
				</g>
				<g>
					<path class="st1" d="M67.08,94.6c-5.19,5.19-5.19,13.59,0,18.78c5.19,5.19,13.59,5.19,18.78,0c5.19-5.19,5.19-13.59,0-18.78
						C80.67,89.41,72.26,89.41,67.08,94.6z"/>
					<path class="st2" d="M68.3,95.82c-4.13,4.13-4.13,10.82,0,14.95c4.13,4.13,10.82,4.13,14.95,0c4.13-4.13,4.13-10.82,0-14.95
						C79.12,91.69,72.43,91.69,68.3,95.82z"/>
					<circle class="st3" cx="75.95" cy="103.47" r="7.13"/>
					<path class="st4" d="M78.03,102.42c-0.77,0.77-0.81,1.98-0.09,2.7c0.72,0.72,1.93,0.68,2.7-0.09c0.77-0.77,0.81-1.97,0.09-2.7
						C80.01,101.62,78.8,101.66,78.03,102.42z"/>
				</g>
			</g>
		</g>
	</g>
</g>
</svg>
