<?xml version="1.0" encoding="utf-8"?>
<!-- Generator: Adobe Illustrator 25.4.8, SVG Export Plug-In . SVG Version: 6.00 Build 0)  -->
<svg version="1.1" id="Layer_1" xmlns="http://www.w3.org/2000/svg" xmlns:xlink="http://www.w3.org/1999/xlink" x="0px" y="0px"
	 viewBox="0 0 168.45 168.45" style="enable-background:new 0 0 168.45 168.45;" xml:space="preserve">
<style type="text/css">
	.st0{fill:#F4CA9F;}
	.st1{opacity:0.5;fill:url(#SVGID_1_);}
	.st2{opacity:0.5;fill:url(#SVGID_00000007409954713091343300000008841130887962233258_);}
	.st3{opacity:0.5;fill:url(#SVGID_00000174596159868257846020000014967375356354701725_);}
	.st4{opacity:0.5;fill:url(#SVGID_00000065064786478271114220000017232293088731556779_);}
	.st5{opacity:0.5;fill:url(#SVGID_00000078045921691704615560000008859114566296818822_);}
	.st6{opacity:0.5;}
	.st7{fill:url(#SVGID_00000129901711120971367500000001254057127555977888_);}
	.st8{fill:url(#SVGID_00000042698430559345179010000000240989462747103360_);}
	.st9{fill:url(#SVGID_00000013150620054649447840000007200089554465586361_);}
	.st10{fill:url(#SVGID_00000177469479590891601130000013149307691348265904_);}
	.st11{fill:url(#SVGID_00000023983476569890173770000003483442263178808484_);}
	.st12{fill:url(#SVGID_00000057110083212101916970000017380225457775508412_);}
	.st13{fill:url(#SVGID_00000046297551506378792240000012516446783382700936_);}
	.st14{fill:url(#SVGID_00000072275773137609864650000015732332536167326882_);}
	.st15{fill:url(#SVGID_00000165938593794441823890000006925687818242181781_);}
	.st16{fill:url(#SVGID_00000032614612876912555950000003540859303572606088_);}
	.st17{fill:url(#SVGID_00000075853972554475838270000013364285108581096108_);}
	.st18{opacity:0.5;fill:url(#SVGID_00000090976247094075101030000013137131105834227342_);}
	.st19{fill:#E6ABA9;}
	.st20{fill:#E9B6B5;}
	.st21{fill:url(#SVGID_00000056429408948834309100000007662735712013722786_);}
	.st22{fill:url(#SVGID_00000040540049841306989860000007239554152595371418_);}
	.st23{fill:url(#SVGID_00000165215474285263948170000013144040509398238378_);}
	.st24{fill:url(#SVGID_00000101080816466411705480000011459983944987683714_);}
	.st25{fill:url(#SVGID_00000182494951040981434090000013857233271720167614_);}
	.st26{fill:url(#SVGID_00000134970679607977298170000001066238203184225952_);}
	.st27{fill:url(#SVGID_00000178189474882270651740000015536452003756415874_);}
	.st28{fill:url(#SVGID_00000082338855162746329060000008107470634508962717_);}
	.st29{fill:url(#SVGID_00000116213553663934154070000009935370512303626131_);}
	.st30{fill:#EDC5C4;}
</style>
<g>
	
		<ellipse transform="matrix(0.7071 -0.7071 0.7071 0.7071 -34.8865 84.2235)" class="st0" cx="84.22" cy="84.22" rx="84.22" ry="84.22"/>
	<g>
		<radialGradient id="SVGID_1_" cx="16.7011" cy="61.8261" r="33.7434" gradientUnits="userSpaceOnUse">
			<stop  offset="0" style="stop-color:#C6534E"/>
			<stop  offset="0.158" style="stop-color:#CD6864"/>
			<stop  offset="0.4869" style="stop-color:#DF9F9C"/>
			<stop  offset="0.9558" style="stop-color:#FCF6F6"/>
			<stop  offset="1" style="stop-color:#FFFFFF"/>
		</radialGradient>
		<path class="st1" d="M38.38,60.35c-1.65-4.68,1.41-9.44,0.43-14.19c-0.68-3.31-3.25-7.27-7.07-6.34
			c-7.95,1.94-9.14,13.84-8.68,18.85c0.63,6.86-3.58,21.6,3.06,26.27c5.45,3.83,16.03-0.62,15.76-7.88
			c-0.12-3.3-0.04-6.87-0.8-10.07c-0.32-1.35-0.75-2.71-1.34-3.97C39.33,62.12,38.71,61.29,38.38,60.35z"/>
		
			<radialGradient id="SVGID_00000011741325564967285670000006988811612842467222_" cx="60.4645" cy="100.6918" r="37.5896" gradientUnits="userSpaceOnUse">
			<stop  offset="0" style="stop-color:#C6534E"/>
			<stop  offset="0.158" style="stop-color:#CD6864"/>
			<stop  offset="0.4869" style="stop-color:#DF9F9C"/>
			<stop  offset="0.9558" style="stop-color:#FCF6F6"/>
			<stop  offset="1" style="stop-color:#FFFFFF"/>
		</radialGradient>
		<path style="opacity:0.5;fill:url(#SVGID_00000011741325564967285670000006988811612842467222_);" d="M94.16,85.56
			c-1.74-5.03-4.87-8.69-10.64-10.59c-1.66-0.55-3.32-1.1-5.01-1.56c-1.83-0.5-4.04-0.8-5.65-1.74c-2.61-1.53-3.32-4.42-6.13-5.91
			c-5.51-2.92-11.47-1.83-16.61,1.17c-2.15,1.25-3.97,2.74-5.08,4.78c-0.46,0.85-0.54,1.85-0.36,2.75c0.09,0.42,0.4,0.86,0.62,1.23
			c0.59,1.02-0.85,1.43-1.46,1.87c-1.86,1.32-3.2,2.76-4.36,4.59c-0.53,0.84-1.09,1.67-1.65,2.49c-0.51,0.43-0.98,0.9-1.37,1.41
			c-1.8,2.37-3.16,4.78-3.84,7.57c-0.73,3.02,0,5.21,0.88,8.07c1.01,3.3-0.13,6.84-0.22,10.22c-0.05,1.77-0.14,4.06,1.25,5.51
			c2.23,2.31,5.72,3.69,8.15,5.9c2.44,2.23,4.75,4.5,6.16,7.34c1.35,2.71,3.43,4.32,5.64,6.51c3.61,3.58,8.74-0.43,14.29-2.17
			c5.29-1.66,10.37-0.79,12.83-4.99c1.13-1.93,2.67-4.21,2.43-6.46c-0.29-2.72,2.02-2.19,1.39-4.76c-0.67-2.74,1.66-6.1,3.33-8.21
			c0.79-1.01-1.78-4.05-1.11-5.12c0.95-1.5,3.05-1.84,4.33-3.03C96.61,98.11,95.95,90.72,94.16,85.56z"/>
		
			<radialGradient id="SVGID_00000181046742961222912480000007181894497157471913_" cx="114.4866" cy="64.849" r="17.4313" gradientUnits="userSpaceOnUse">
			<stop  offset="0" style="stop-color:#C6534E"/>
			<stop  offset="0.158" style="stop-color:#CD6864"/>
			<stop  offset="0.4869" style="stop-color:#DF9F9C"/>
			<stop  offset="0.9558" style="stop-color:#FCF6F6"/>
			<stop  offset="1" style="stop-color:#FFFFFF"/>
		</radialGradient>
		<path style="opacity:0.5;fill:url(#SVGID_00000181046742961222912480000007181894497157471913_);" d="M125.79,45.9
			c-1.85-0.96-4.48-0.74-6.37-0.05c-1.23,0.45-2.25,1.02-3.28,1.82c-0.6,0.46-1.19,0.93-1.8,1.37c0.09-0.07-1.84,0.96-1.92,1.09
			c0.27-0.46-0.15-0.88-0.59-0.55c-0.09,0.07-0.17,0.13-0.24,0.2c-0.93-0.67-1.76-1.56-3.16-0.97c-1.54,0.65-2.28,2.99-2.74,4.4
			c-0.7,2.14,0.06,4.44,0.72,6.48c0.63,1.96,1.35,3.94,0.32,5.9c-0.59,1.11-1.61,1.96-2.34,2.97c-1.3,1.81-2.3,3.66-2.26,5.92
			c0.04,2.63,2.45,5.12,4.27,6.73c3.17,2.81,8.34,2.44,11.6,0.04c3.9-2.87,7.29-5.53,8.6-9.75c0.74-2.39,0.78-5.71,2.17-7.73
			c1.44-2.08,1.61-4.18,1.73-6.65C130.7,52.91,129.91,48.03,125.79,45.9z"/>
		
			<radialGradient id="SVGID_00000013182160684125321840000018353328632259542658_" cx="125.2005" cy="35.9485" r="10.7635" gradientUnits="userSpaceOnUse">
			<stop  offset="0" style="stop-color:#C6534E"/>
			<stop  offset="0.158" style="stop-color:#CD6864"/>
			<stop  offset="0.4869" style="stop-color:#DF9F9C"/>
			<stop  offset="0.9558" style="stop-color:#FCF6F6"/>
			<stop  offset="1" style="stop-color:#FFFFFF"/>
		</radialGradient>
		<path style="opacity:0.5;fill:url(#SVGID_00000013182160684125321840000018353328632259542658_);" d="M132.11,24.09
			c-1.08-0.58-2.32-0.24-3.52,0.42c-0.22-0.16-0.62-0.21-1.26-0.09c-2.93,0.53-6.01,2.38-7.8,4.79c-1.16,1.57-2.01,3.23-2.68,5.06
			c-0.86,2.34-0.38,4.84-0.76,7.27c-0.6,3.82,3.9,5.47,6.78,6.31c7.28,2.11,9.67-10.17,10.77-14.84
			C134.32,30.09,135.38,25.84,132.11,24.09z"/>
		
			<radialGradient id="SVGID_00000133507450980549430900000010541408571537307054_" cx="129.8893" cy="115.5575" r="20.2674" gradientUnits="userSpaceOnUse">
			<stop  offset="0" style="stop-color:#C6534E"/>
			<stop  offset="0.158" style="stop-color:#CD6864"/>
			<stop  offset="0.4869" style="stop-color:#DF9F9C"/>
			<stop  offset="0.9558" style="stop-color:#FCF6F6"/>
			<stop  offset="1" style="stop-color:#FFFFFF"/>
		</radialGradient>
		<path style="opacity:0.5;fill:url(#SVGID_00000133507450980549430900000010541408571537307054_);" d="M146.01,107.47
			c-3.43-5.21-7.55-6.96-13.61-9.93c-0.48-0.24-0.83-0.66-1.15-1.14c-0.77-0.26-1.54-0.52-2.38-0.67c-2.9-0.51-4.2,1.85-6.72,2.53
			c-2.47,0.66-5.75,0.64-6.38,3.51c0.23,0.39,0.47,0.77,0.73,1.15c0.35,0.53,0.55,1.04,0.68,1.54c-1.22,1.47-2.21,3.13-2.7,4.96
			c-0.55,2.06,0.17,4.05,0.75,6.01c0.45,1.52-0.14,3.19,0.37,4.68c0.46,1.32,1.66,1.82,2.48,2.87c1.76,2.26-1.04,4.83-1.33,6.97
			c-0.64,4.63,4.4,4.57,7.46,4.01c3.97-0.73,4.61-4.16,7.31-6.97c1.35-1.41,3.29-2.05,5.03-2.96c1.93-1.01,3.2-0.05,4.88-1.48
			C144.72,119.77,148.72,111.59,146.01,107.47z"/>
		<g class="st6">
			
				<radialGradient id="SVGID_00000153704855252452726360000007773779532970996912_" cx="111.676" cy="36.1352" r="23.0182" gradientUnits="userSpaceOnUse">
				<stop  offset="0" style="stop-color:#C6534E"/>
				<stop  offset="0.158" style="stop-color:#CD6864"/>
				<stop  offset="0.4869" style="stop-color:#DF9F9C"/>
				<stop  offset="0.9558" style="stop-color:#FCF6F6"/>
				<stop  offset="1" style="stop-color:#FFFFFF"/>
			</radialGradient>
			<path style="fill:url(#SVGID_00000153704855252452726360000007773779532970996912_);" d="M125.7,36.53
				c-0.29-0.27-0.69-0.3-1.07-0.23c-0.16,0.03-0.33,0.1-0.49,0.19c-0.13-0.01-0.37-0.02-0.16-0.02c-0.1,0-0.21-0.02-0.31-0.03
				c-0.65-0.06-1.26,0.4-1.58,0.93c-0.38,0.62-0.28,1.19,0.15,1.71c0.62,0.76,1.92,0.93,2.69,0.34c0.57-0.43,1.06-1.08,1.09-1.82
				C126.03,37.23,126,36.81,125.7,36.53z"/>
			
				<radialGradient id="SVGID_00000113340920666176589060000001753129106103535762_" cx="111.6743" cy="36.1359" r="23.0205" gradientUnits="userSpaceOnUse">
				<stop  offset="0" style="stop-color:#C6534E"/>
				<stop  offset="0.158" style="stop-color:#CD6864"/>
				<stop  offset="0.4869" style="stop-color:#DF9F9C"/>
				<stop  offset="0.9558" style="stop-color:#FCF6F6"/>
				<stop  offset="1" style="stop-color:#FFFFFF"/>
			</radialGradient>
			<path style="fill:url(#SVGID_00000113340920666176589060000001753129106103535762_);" d="M133.21,29.83
				c-0.24-1.14-1.03-2-2.06-2.52c-1.19-0.6-3.04,0.2-3.21,1.56c-0.06,0.51,0.21,0.73,0.39,1.07c0.06,0.12,0.12,0.25,0.16,0.37
				c-0.17-0.04-0.36-0.05-0.57-0.02c-0.88,0.12-1.56,0.83-1.96,1.7c-0.29,0-0.59,0.1-0.86,0.28c0.24-0.4,0.48-0.8,0.7-1.2
				c0.7-1.27,0.74-2.66-0.67-3.36c-1.15-0.57-2.42,0.91-2.98,1.68c-0.07,0.09-0.12,0.19-0.18,0.28c-0.04,0.03-0.1,0.06-0.14,0.09
				c-1.52,0.98-2.95,2.17-3.53,3.94c-0.51,1.55,0.28,2.9,1.93,2.98c1.29,0.06,2.69-0.9,3.36-1.95c0.18-0.28,0.35-0.57,0.53-0.85
				c0,0.27,0.09,0.53,0.3,0.75c0.23,0.24,0.64,0.23,0.94,0.12c0.08,0.45,0.3,0.92,0.6,1.38c0.5,0.79,1.3,1.36,2.09,1.1
				c-0.04,0.1-0.09,0.2-0.12,0.3c-0.18,0.07-0.35,0.17-0.51,0.29c-0.48,0.1-0.97,0.51-1.18,0.86c-0.32,0.53-0.35,0.97-0.35,1.56
				c0,0.1,0,0.19,0,0.29c0.05-0.09,0.05-0.06-0.01,0.08c-0.02,0.06-0.04,0.12-0.05,0.18c-0.65-0.38-1.39-0.3-2.1-0.47
				c-0.16-0.09-0.37-0.16-0.66-0.19c-0.04,0-0.09,0-0.14,0c-0.08-0.05-0.16-0.11-0.26-0.15c-0.46-0.21-0.9-0.24-1.28-0.14
				c0.01-0.04,0.02-0.07,0.03-0.11c0.09-0.34,0.17-0.69,0.2-1.05c0.06-0.72-0.52-1.15-1.19-1.17c-0.1,0-0.2,0-0.29,0
				c-1.09-0.27-2.24,0.59-2.43,1.79c-0.17,1.04,0.62,2.07,1.63,2.32c0.19,0.05,0.37,0.05,0.53,0.01c-0.09,0.52-0.02,1.07,0.11,1.57
				c0.24,0.87,0.77,1.36,1.52,1.83c1.72,1.05,3.67-0.28,4.68-1.63c0.18-0.24,0.3-0.53,0.36-0.84c0.32,0.04,0.7-0.1,0.97-0.26
				c0.7-0.42,1.4-1.09,1.81-1.8c0.08-0.13,0.14-0.28,0.2-0.43c1.47,0.01,2.7-1.54,2.6-2.93c-0.06-0.86-0.71-1.4-1.48-1.32
				c-0.27-0.09-0.59-0.1-0.82-0.05c-0.2,0.04-0.4,0.12-0.6,0.23c0.24-0.53,0.35-1.13,0.42-1.7c0.01-0.09,0.02-0.19,0.03-0.29
				c0.07,0.34,0.18,0.66,0.36,0.94c-0.02,0.52,0.39,0.73,0.82,0.66c0.32,0.06,0.7-0.14,0.9-0.37c0.48-0.54,0.58-1.17,0.51-1.87
				c-0.03-0.33-0.13-0.69-0.31-0.97C132.87,31.98,133.46,31.02,133.21,29.83z"/>
		</g>
		<g class="st6">
			
				<radialGradient id="SVGID_00000091725434223245347740000008288809402154167481_" cx="102.6763" cy="62.7389" r="27.2306" gradientUnits="userSpaceOnUse">
				<stop  offset="0" style="stop-color:#C6534E"/>
				<stop  offset="0.158" style="stop-color:#CD6864"/>
				<stop  offset="0.4869" style="stop-color:#DF9F9C"/>
				<stop  offset="0.9558" style="stop-color:#FCF6F6"/>
				<stop  offset="1" style="stop-color:#FFFFFF"/>
			</radialGradient>
			<path style="fill:url(#SVGID_00000091725434223245347740000008288809402154167481_);" d="M113.15,70.26
				c0.01-0.01,0.03-0.03,0.04-0.05C113.14,70.27,113.14,70.27,113.15,70.26z"/>
			
				<radialGradient id="SVGID_00000052802289220975286610000018124186900519526062_" cx="102.4751" cy="62.816" r="27.4786" gradientUnits="userSpaceOnUse">
				<stop  offset="0" style="stop-color:#C6534E"/>
				<stop  offset="0.158" style="stop-color:#CD6864"/>
				<stop  offset="0.4869" style="stop-color:#DF9F9C"/>
				<stop  offset="0.9558" style="stop-color:#FCF6F6"/>
				<stop  offset="1" style="stop-color:#FFFFFF"/>
			</radialGradient>
			<path style="fill:url(#SVGID_00000052802289220975286610000018124186900519526062_);" d="M118.53,69.35
				C118.4,69.37,118.38,69.4,118.53,69.35L118.53,69.35z"/>
			
				<radialGradient id="SVGID_00000078751496334717503270000004467889559498214832_" cx="102.5805" cy="62.7791" r="27.3419" gradientUnits="userSpaceOnUse">
				<stop  offset="0" style="stop-color:#C6534E"/>
				<stop  offset="0.158" style="stop-color:#CD6864"/>
				<stop  offset="0.4869" style="stop-color:#DF9F9C"/>
				<stop  offset="0.9558" style="stop-color:#FCF6F6"/>
				<stop  offset="1" style="stop-color:#FFFFFF"/>
			</radialGradient>
			<path style="fill:url(#SVGID_00000078751496334717503270000004467889559498214832_);" d="M106.94,65.51
				c1.19,0.2,2.25-0.66,2.89-1.56c0.52-0.72,0.74-1.67,0.69-2.54c-0.06-1.1-1.19-1.89-2.23-1.68c-0.84,0.17-1.62,0.8-2.02,1.57
				c-0.55,0.49-0.95,1.17-1.05,1.86c-0.08,0.49,0.03,0.97,0.26,1.4C105.81,65.15,106.29,65.4,106.94,65.51z"/>
			
				<radialGradient id="SVGID_00000181052542268425471300000015184513257098004617_" cx="102.6157" cy="62.7799" r="27.25" gradientUnits="userSpaceOnUse">
				<stop  offset="0" style="stop-color:#C6534E"/>
				<stop  offset="0.158" style="stop-color:#CD6864"/>
				<stop  offset="0.4869" style="stop-color:#DF9F9C"/>
				<stop  offset="0.9558" style="stop-color:#FCF6F6"/>
				<stop  offset="1" style="stop-color:#FFFFFF"/>
			</radialGradient>
			<path style="fill:url(#SVGID_00000181052542268425471300000015184513257098004617_);" d="M111.84,59.95
				c0.04-0.03,0.07-0.07,0.11-0.11C111.82,59.97,111.79,60,111.84,59.95z"/>
			
				<radialGradient id="SVGID_00000136373339753588619780000014337328601641715350_" cx="102.5792" cy="62.7794" r="27.3478" gradientUnits="userSpaceOnUse">
				<stop  offset="0" style="stop-color:#C6534E"/>
				<stop  offset="0.158" style="stop-color:#CD6864"/>
				<stop  offset="0.4869" style="stop-color:#DF9F9C"/>
				<stop  offset="0.9558" style="stop-color:#FCF6F6"/>
				<stop  offset="1" style="stop-color:#FFFFFF"/>
			</radialGradient>
			<path style="fill:url(#SVGID_00000136373339753588619780000014337328601641715350_);" d="M125.53,65.87
				c-0.24-0.29-0.61-0.4-1.01-0.41c0.14-0.15,0.28-0.3,0.37-0.46c0.09-0.17,0.18-0.34,0.26-0.51c0.01-0.02,0.01-0.01,0.01-0.03
				c0.01-0.01,0.01-0.02,0.02-0.03c0.29-0.31,0.53-0.7,0.45-1.13c-0.09-0.5-0.43-0.83-0.94-0.85c-0.04,0-0.08,0.01-0.13,0.02
				c-0.12-0.05-0.26-0.1-0.43-0.1c-0.7-0.04-1.47,0.44-1.98,1.11c-0.05-0.06-0.12-0.13-0.2-0.19c-0.53-0.44-1.15-0.39-1.76-0.13
				c-0.47,0.2-0.96,0.66-1.19,1.19c-0.4,0.22-0.76,0.54-1.08,0.91c0.22-0.48,0.52-0.98,0.72-1.4c0.14-0.18,0.25-0.37,0.35-0.57
				c0.31-0.21,1-0.6,1.68-0.99c0.41-0.04,0.81-0.15,1.13-0.31c0.68-0.34,1.25-0.8,1.71-1.34c1.57-1.19,2.66-3.19,1.27-4.91
				c-1.28-1.59-3.36-4.59-5.78-4.27c-0.53,0.07-1.11,0.23-1.67,0.47c-0.48,0.16-0.93,0.41-1.33,0.77c-0.62,0.49-1.1,1.1-1.25,1.83
				c-0.24,0.2-0.46,0.44-0.6,0.67c-0.04,0.07-0.08,0.15-0.12,0.23c-0.13-0.48-0.37-0.92-0.69-1.35c-0.45-0.58-1.13-1.18-1.9-1.15
				c-0.1,0.01-0.21,0.03-0.31,0.05c-0.27-0.24-0.67-0.31-1.04-0.23c-1.77,0.35-2.34,2.16-2.24,3.73c0.07,1.21,0.67,2.67,1.94,3.02
				c1.6,0.45,3.54-0.66,4.16-2.22c0.08,0.18,0.2,0.36,0.36,0.5c0.36,0.31,0.78,0.42,1.21,0.39c-0.24,0.35-0.43,0.71-0.55,1.1
				c-0.18-0.11-0.39-0.2-0.64-0.23c-0.53-0.07-1,0.07-1.5,0.24c-0.24,0.08-0.46,0.24-0.66,0.38c-0.17,0.16-0.27,0.25-0.32,0.28
				c-0.11,0.09-0.22,0.18-0.31,0.29c-0.46,0.53-0.8,1.33-0.48,2.01c0.14,0.3,0.39,0.51,0.65,0.68c0.02,0.08,0.02,0.17,0.03,0.26
				c-0.55,0.52-1.05,1.21-1.62,1.44c-0.66,0.27-3.22,0.91-3.3,2.06c-0.03,0.04-0.05,0.09-0.08,0.14c-0.06,0.1-0.1,0.2-0.11,0.31
				c-0.02,0.14-0.02,0.24-0.01,0.31c-0.55,0.39-0.77,1.04-1.38,1.24c-1.04,0.34-1.58,1.68-1.53,2.7c0.03,0.64,0.21,1.12,0.45,1.72
				c0.26,0.63,0.28,1.66,0.73,2.19c0.81,0.95,2.23,0.96,3.28,0.33c0.54-0.33,1.04-0.7,1.5-1.13c0.47-0.45,1.04-0.09,1.57,0.19
				c0.08,0.44,0.25,0.86,0.56,1.26c0.55,0.7,1.56,1.01,2.42,1.02c1.4,0.01,2.46-0.7,3.43-1.64c0.25-0.01,0.49-0.06,0.72-0.14
				c0.67,0.43,1.97,0.81,2.4,0.72c1.03-0.22,1.78-0.83,2.44-1.63c0.3-0.36,0.58-0.79,0.8-1.24c0.04-0.03,0.07-0.05,0.11-0.08
				c0.46-0.37,0.87-0.85,1.08-1.41c0.11-0.29,0.15-0.59,0.11-0.9c-0.02-0.19-0.08-0.36-0.2-0.51
				C125.57,68.95,126.67,67.23,125.53,65.87z M118.2,69.43c0.2-0.04,0.4-0.1,0.6-0.18c-0.12,0.05-0.2,0.08-0.26,0.1
				c0.04,0,0.08-0.01,0.14-0.01c0.36,0.01,0.69-0.06,1.02-0.18c-0.07,0.18-0.12,0.37-0.14,0.55c-0.26,0.34-0.44,0.73-0.57,1.14
				c-0.08,0.05-0.16,0.1-0.25,0.14c-0.22-0.68-0.66-1.2-1.24-1.59C117.71,69.47,117.95,69.49,118.2,69.43z M114.86,68.96
				c-0.45,0.21-0.77,0.45-1.13,0.79c0.51-0.49-0.49,0.45-0.58,0.51c-0.13,0.13-0.25,0.29-0.37,0.43c-0.04-0.17-0.09-0.34-0.15-0.51
				c0-0.02,0-0.03,0-0.05c0-0.01,0.01-0.02,0.01-0.04c0-0.06,0-0.13,0-0.19c0-0.01,0-0.03,0.01-0.08c0.03-0.22,0-0.42-0.09-0.62
				c-0.21-0.29-0.24-0.32-0.08-0.11c-0.69-1-2-0.1-2.33,0.77c-0.04,0.11-0.07,0.21-0.09,0.31c-0.07,0.04-0.14,0.08-0.2,0.12
				c-0.01-0.01-0.01-0.02-0.02-0.04c-0.11-0.22-0.24-0.44-0.39-0.64c0.05-0.05,0.09-0.1,0.13-0.15c0.1-0.14,0.18-0.3,0.25-0.47
				c0.73-0.18,1.43-0.51,1.95-1.03c0.6,0.63,1.64,0.91,2.45,0.87c0.99-0.05,1.86-0.52,2.46-1.24c-0.05,0.28-0.06,0.57-0.01,0.85
				c0.05,0.27,0.17,0.5,0.34,0.67c-0.09-0.05-0.18-0.1-0.28-0.14c-0.22-0.1-0.44-0.15-0.66-0.17
				C115.72,68.72,115.31,68.75,114.86,68.96z"/>
		</g>
		<g class="st6">
			
				<radialGradient id="SVGID_00000026122049520288312370000014866599280369215408_" cx="44.5535" cy="113.6698" r="63.6809" gradientUnits="userSpaceOnUse">
				<stop  offset="0" style="stop-color:#C6534E"/>
				<stop  offset="0.158" style="stop-color:#CD6864"/>
				<stop  offset="0.4869" style="stop-color:#DF9F9C"/>
				<stop  offset="0.9558" style="stop-color:#FCF6F6"/>
				<stop  offset="1" style="stop-color:#FFFFFF"/>
			</radialGradient>
			<path style="fill:url(#SVGID_00000026122049520288312370000014866599280369215408_);" d="M46.36,98.06
				c0.14-0.46,0.2-1.01-0.24-1.23c-0.04-0.02-0.08-0.02-0.13-0.03c-0.06-0.15-0.14-0.3-0.25-0.43c-0.51-0.62-1.24-0.5-1.86-0.15
				c0.05-0.56,0.08-1.09,0.09-1.53c0.01-0.6-0.08-1.24-0.27-1.86c0.52-1.15,1.26-1.87,0.78-3.21c-0.09-0.25-0.42-0.43-0.67-0.43
				c-0.59,0-1.16-0.21-1.74-0.3c-0.05-0.58-0.04-1.3,0.2-1.62c0.35-0.48,0.44-0.89,0.24-1.44c-0.43-1.17-2.25,0-2.7,0.49
				c-0.43,0.47-0.51,1.12-0.95,1.56c-0.57,0.57-0.92,1.21-1.09,1.99c-0.04,0.18-0.07,0.43-0.08,0.71c-0.55,0.8-0.95,1.69-1.02,2.44
				c-0.24,2.39,1.47,12.54,5.51,8.32c0.44-0.46,0.76-1.1,1.02-1.82c0.03-0.03,0.05-0.06,0.07-0.09c0.09,0.08,0.18,0.16,0.28,0.22
				c-0.01,0.14-0.03,0.28-0.03,0.4c0,0.8,0.34,1.68,1.31,1.54c1-0.15,1.8-1.05,1.99-2.02C46.94,99,46.74,98.46,46.36,98.06z"/>
			
				<radialGradient id="SVGID_00000073686886043535016310000006741210422245767093_" cx="44.5534" cy="113.6724" r="63.6858" gradientUnits="userSpaceOnUse">
				<stop  offset="0" style="stop-color:#C6534E"/>
				<stop  offset="0.158" style="stop-color:#CD6864"/>
				<stop  offset="0.4869" style="stop-color:#DF9F9C"/>
				<stop  offset="0.9558" style="stop-color:#FCF6F6"/>
				<stop  offset="1" style="stop-color:#FFFFFF"/>
			</radialGradient>
			<path style="fill:url(#SVGID_00000073686886043535016310000006741210422245767093_);" d="M44.87,79.84
				c-0.86-0.14-1.7,0.53-2.25,1.09c-0.24,0.25-0.53,0.65-0.71,1.09c-0.05,0.07-0.1,0.14-0.14,0.22c-0.34,0.65-0.41,2.12,0.44,2.46
				c0.88,0.35,1.68-0.57,2.1-1.2c0.2-0.31,0.37-0.67,0.53-1c0.06-0.12,0.11-0.24,0.16-0.36c-0.13,0.14-0.08,0.06,0.16-0.22
				c-0.13,0.12-0.07,0.03,0.19-0.27c0.08-0.15,0.15-0.31,0.22-0.46C45.84,80.57,45.51,79.95,44.87,79.84z"/>
			
				<radialGradient id="SVGID_00000140711033535248852560000007866370794837130425_" cx="44.5515" cy="113.6692" r="63.6819" gradientUnits="userSpaceOnUse">
				<stop  offset="0" style="stop-color:#C6534E"/>
				<stop  offset="0.158" style="stop-color:#CD6864"/>
				<stop  offset="0.4869" style="stop-color:#DF9F9C"/>
				<stop  offset="0.9558" style="stop-color:#FCF6F6"/>
				<stop  offset="1" style="stop-color:#FFFFFF"/>
			</radialGradient>
			<path style="fill:url(#SVGID_00000140711033535248852560000007866370794837130425_);" d="M77.73,81.07
				c-0.39-1.12-1.72-2.86-3.1-2.51c-0.23,0.06-0.44,0.15-0.63,0.26c-1.83,0.32-3.18,2.68-2.49,4.41c0.49,1.24,2.01,2.12,3.3,2.16
				c1.14,0.03,2.27-0.72,2.85-1.66C78.2,82.85,78.05,81.98,77.73,81.07z"/>
			
				<radialGradient id="SVGID_00000123407738147219668330000000215521368422780061_" cx="44.5527" cy="113.6693" r="63.6809" gradientUnits="userSpaceOnUse">
				<stop  offset="0" style="stop-color:#C6534E"/>
				<stop  offset="0.158" style="stop-color:#CD6864"/>
				<stop  offset="0.4869" style="stop-color:#DF9F9C"/>
				<stop  offset="0.9558" style="stop-color:#FCF6F6"/>
				<stop  offset="1" style="stop-color:#FFFFFF"/>
			</radialGradient>
			<path style="fill:url(#SVGID_00000123407738147219668330000000215521368422780061_);" d="M86.78,103.48
				c1.55-1.02,3.06-3.34,2.78-5.28c-0.22-1.57-1.39-2.88-1.75-4.37c-0.22-0.91-0.86-1.81-1.91-1.49c-0.52,0.15-1.09,0.76-1.47,1.47
				c-0.11,0.06-0.21,0.14-0.32,0.21c0.24-0.62,0.46-1.25,0.56-1.95c0.22-1.46,0.04-3.97-1.01-5.42c-0.08-0.26-0.17-0.52-0.3-0.77
				c-0.47-0.87-1.34-1.08-2.26-0.94c-0.97,0.15-1.75,0.66-2.3,1.39c-0.41-0.32-0.88-0.53-1.46-0.53c-0.72,0.01-1.29,0.29-1.78,0.68
				c-0.59-0.3-1.27-0.4-1.99-0.34c-0.11-0.14-0.23-0.27-0.37-0.38c-1.2-0.96-2.82,0.03-3.69,1.01c-0.04-0.64-0.18-1.27-0.44-1.83
				c-0.46-0.98-1.45-1.08-2.39-1c-0.07,0-0.13,0.03-0.2,0.04c-0.32-0.08-0.65-0.15-0.97-0.21c0.08-0.3,0.14-0.6,0.23-0.89
				c0.04-0.11,0.07-0.2,0.1-0.26c0.47-0.13,0.93-0.3,1.38-0.54c1.11,0.12,2.14-0.33,2.95-1.14c0.49-0.49,0.77-1.17,0.8-1.84
				c0.47-0.46,0.58-1.26-0.03-1.62c0.26,0.15-0.16-0.11-0.28-0.15c-0.13-0.04-0.26-0.07-0.39-0.11c-0.07-0.02-0.15-0.03-0.22-0.05
				c-0.52-0.35-1.22-0.51-1.83-0.36c0.21-0.7,0.08-1.46-0.59-2.11c-0.61-0.59-1.61-0.8-2.4-0.97c-0.6-0.12-1.28-0.03-1.88-0.02
				c-0.54,0.01-1.03-0.2-1.58-0.12c-1.89,0.26-3.37,2.49-3.74,4.22c-0.12,0.53-0.02,1.24,0.24,1.9c-0.1,0.27-0.18,0.55-0.24,0.84
				c-0.36-0.26-0.81-0.46-1.37-0.61c-0.12-0.03-0.24-0.04-0.35-0.06c0.13-0.1,0.25-0.2,0.35-0.32c0.95-1.05,1.03-2.56,0.52-3.83
				c-0.5-1.25-1.87-1.49-3.06-1.25c-1.04,0.21-1.95,1.2-2.08,2.25c-0.05,0.44,0.04,0.91,0.38,1.22c0.09,0.08,0.18,0.14,0.27,0.19
				c0.05,0.44,0.17,0.88,0.31,1.24c0.02,0.06,0.06,0.1,0.09,0.15c-0.11,0-0.23,0.01-0.37,0.06c-0.22,0.07-0.41,0.15-0.6,0.25
				c-0.08-0.27-0.19-0.53-0.33-0.77c-0.02-0.06-0.04-0.12-0.06-0.19c-0.38-1.17-1.29-2.72-2.56-2.54c-0.31-0.06-0.68,0.03-1.03,0.36
				c-1.25,1.16-0.6,2.95-1.14,4.15c-0.27,0.25-0.5,0.53-0.72,0.82c-0.96,0.67-1.9,1.51-2.07,2.66c-0.46,0.69-0.78,1.49-0.91,2.45
				c-0.33,2.32,1.82,2.98,3.62,2.32c0.19-0.07,0.38-0.16,0.58-0.27c0.02,0.24,0.06,0.47,0.12,0.71c-0.21-0.09-0.44-0.17-0.68-0.2
				c-0.96-0.15-1.74,0.69-2.11,1.45c-0.05,0.11-0.08,0.24-0.09,0.37c-0.02,0.06-0.04,0.13-0.06,0.19c-0.15,0.64,0.31,1.23,0.59,1.78
				c0.14,0.28,0.31,0.55,0.49,0.8c0.31,0.42,0.61,0.73,1.16,0.8c0.86,0.11,1.6-0.73,1.92-1.41c0.19-0.4,0.28-0.9,0.28-1.4
				c0.28,0.24,0.57,0.45,0.89,0.62c-0.55,0.61-0.92,1.37-1.09,2.19c-0.93,0.31-1.67,0.96-1.82,2.14c-0.11,0.91,0.74,2.06,1.15,2.8
				c0.55,0.98,0.44,2.17,0.83,3.22c0.46,1.25,1.59,1.59,2.68,1.35c-0.28,0.37-0.53,0.75-0.69,1.2c-0.13,0.36-0.24,0.79-0.3,1.23
				c-0.3-0.25-0.63-0.46-1.14-0.36c-0.02,0-0.04,0.01-0.06,0.02c-0.15-0.68-0.34-1.29-0.72-1.79c0.23-1.69,0.08-3.27-1.72-3.31
				c-2.85-0.06-4.76,2.13-6.61,3.96c-2.5,2.47-0.31,4.65,1.53,6.44c-0.85-0.47-2.26,0.24-2.75,1.15c-0.85,1.58-0.42,2.93,0.83,4.11
				c0.84,0.79,1.75,1.11,2.68,1.02c-0.29,0.73-0.22,1.48,0.04,2.27c-0.21-0.64,0.1,0.4,0.22,0.62c0.21,0.39,0.64,0.82,1.06,0.99
				c0.94,0.36,1.98,0.15,2.88-0.39c-0.55,1.71-0.56,3.62,0.66,5.01c2.11,2.4,6.72,2.68,9.61,1.1c1.53,1.12,4.29,1.41,5.83,1.65
				c0.3,0.98,1.11,1.69,2.14,2.09c1.32,0.52,2.87,0.05,4.13-0.39c1.51-0.53,2.76-1.62,3.59-2.96c2.01,0.6,3.77-0.4,4.99-2.07
				c0.66-0.9,0.78-2.38,0.14-3.32c-0.08-0.12-0.18-0.24-0.27-0.36c0,0,0,0,0.01,0c0.04,0.04,0.03,0.03,0.01,0
				c0.15-0.05,0.3-0.11,0.44-0.19c0.06-0.03,0.11-0.06,0.17-0.1c1.05-0.62,1.93-1.36,2.36-2.55c0.18-0.49,0.25-0.99,0.19-1.51
				c-0.07-0.47-0.26-0.79-0.53-1.06c0,0,0,0,0.01,0c0.18,0,0.35-0.01,0.52-0.05c1.21-0.24,2.46-1.12,3.19-2.22
				c0.06-0.03,0.11-0.07,0.17-0.11c0.01,0,0.3-0.17,0.87-0.51c1.51-1.09,2.45-2.59,2.41-4.47c-0.02-1.01-0.69-1.84-1.49-2.39
				c-0.6-0.42-1.28-0.55-1.93-0.83c0.15-0.47,0.28-1.05,0.36-1.68C85.4,104.27,86.21,103.86,86.78,103.48z M48.97,114.13
				c0.45-0.83,0.72-1.78,0.86-2.76c0.72,0.13,1.52,0.07,2.23-0.16c0.05,0.42,0.19,0.84,0.48,1.25c0.04,0.06,0.09,0.1,0.13,0.15
				C51.49,112.71,50.12,113.27,48.97,114.13z M55.23,95.36c-0.11,0.26-0.22,0.51-0.31,0.77c-0.1-0.3-0.19-0.61-0.22-0.9
				C54.87,95.3,55.04,95.34,55.23,95.36z M56.19,113.03c-0.06,0.16-0.1,0.32-0.16,0.48c-0.16-0.12-0.34-0.22-0.51-0.32
				c0.29-0.13,0.58-0.3,0.84-0.52C56.3,112.78,56.24,112.9,56.19,113.03z M57.28,101.25c-0.22,0.1-0.43,0.22-0.62,0.35
				c-0.07,0-0.14,0-0.21,0c-0.65,0-1.4,0.16-2.07,0.44c0.37-0.59,0.68-1.21,0.88-1.87c0.59,0.66,1.48,0.92,2.45,0.92
				C57.56,101.14,57.43,101.19,57.28,101.25z M57.59,87.51c-0.28-0.17-0.59-0.31-0.9-0.44c0.72-0.5,1.3-1.39,1.61-2.35
				c0.15,0.42,0.34,0.81,0.57,1.17C58.35,86.4,57.93,86.94,57.59,87.51z M63.08,107.52c-0.7,0.26-1.38,0.66-1.98,1.14
				c0-0.05,0.01-0.09,0-0.14c-0.1-1.27-0.41-2.43-0.57-3.66c0.86,0.67,2.13,0.72,3.39,0.5C63.42,106,63.12,106.8,63.08,107.52z
				 M69.44,112.56c-0.49-0.19-1.09-0.15-1.67,0.13c-0.01,0-0.01,0-0.02,0c0.19-0.1,0.39-0.22,0.58-0.35
				c0.45-0.31,0.85-0.67,1.24-1.05c-0.05,0.22-0.1,0.45-0.14,0.69C69.41,112.18,69.42,112.37,69.44,112.56z M73.58,95.88
				c-0.23,0.06-0.47,0.14-0.69,0.24c0.01-0.57-0.05-1.15-0.21-1.7c0.1-0.03,0.21-0.07,0.3-0.1c0.29-0.1,0.61-0.35,0.88-0.66
				C73.65,94.37,73.54,95.14,73.58,95.88z"/>
		</g>
		
			<radialGradient id="SVGID_00000104691723989093117470000011719762451457013150_" cx="21.5752" cy="69.0672" r="22.9852" gradientUnits="userSpaceOnUse">
			<stop  offset="0" style="stop-color:#C6534E"/>
			<stop  offset="0.158" style="stop-color:#CD6864"/>
			<stop  offset="0.4869" style="stop-color:#DF9F9C"/>
			<stop  offset="0.9558" style="stop-color:#FCF6F6"/>
			<stop  offset="1" style="stop-color:#FFFFFF"/>
		</radialGradient>
		<path style="opacity:0.5;fill:url(#SVGID_00000104691723989093117470000011719762451457013150_);" d="M40.37,76.19
			c-0.47-0.37-1.07-0.1-1.44,0.3c-0.16,0.09-0.32,0.2-0.44,0.35c0.02-0.61-0.16-1.26-0.62-1.67c0.03,0.01,0.05,0.03,0.08,0.03
			c0.11,0.07,0.24,0.13,0.38,0.16c0.46,0.1,0.88-0.42,1-0.82c0.6-0.73,0.58-1.98,0.56-2.83c-0.02-1.04-0.64-2.21-1.59-2.68
			c-0.38-0.19-0.79,0.19-0.99,0.46c-0.74,1.01-0.38,2.42-0.28,3.55c0.03,0.33,0.09,0.72,0.2,1.08c0.03,0.39,0.14,0.66,0.3,0.84
			c-0.41-0.17-0.87-0.09-1.26,0.13c-0.31-0.15-0.84,0.03-1.09,0.33c-0.09,0.11-0.16,0.23-0.22,0.35c-0.07-0.11-0.14-0.22-0.23-0.29
			c-0.31-0.26-1.23-0.63-1.1-0.98c0.05-0.13,0.06-0.24,0.07-0.35c0.13,0.01,0.25,0.01,0.37-0.01c1.27-0.13,2.06-1.72,2.43-2.74
			c0.31-0.83,0.08-1.65,0.56-2.43c0.3-0.49,0.25-1.09,0.13-1.62c-0.05-0.23-0.15-0.43-0.27-0.61c0.61,0.26,1.27-0.28,1.65-0.68
			c0.48-0.49,0.65-1.4,0.39-2.03c-0.33-0.79-0.96-1.51-1.59-2.19c0.09-0.16,0.13-0.35,0.1-0.51c-0.11-0.63-0.59-0.81-1.04-1.16
			c0.01-0.14,0.05-0.27,0.08-0.41c0.02-0.08,0.01-0.15,0.02-0.22c0.35-0.82,0.23-1.72,0.23-2.61c0-0.28,0.07-0.58,0.17-0.88
			c0.28-0.59,0.5-1.18,0.58-1.88c0.07-0.66-0.07-1.54-0.91-1.47c-0.31,0.03-0.58,0.14-0.83,0.31c0.01-0.32-0.09-0.64-0.34-0.87
			c-0.38-0.34-0.96-0.15-1.34,0.09c-0.02,0.02-0.05,0.04-0.07,0.06c0.01-0.32-0.06-0.66-0.16-1c0.2,0.02,0.41,0.02,0.58,0.01
			c0.23-0.01,0.9,0.25,1.04,0.41c0.28,0.32,0.51,0.66,0.94,0.8c0.76,0.25,1.32-0.42,1.47-1.08c0.17-0.71-0.31-1.46-0.73-1.96
			c-0.2-0.23-0.44-0.41-0.69-0.56c0.29,0.01,0.57,0,0.8,0.02c0.45,0.04,0.9-0.42,0.95-0.85c0.06-0.56,0.37-1.26,0.03-1.77
			c-0.17-0.25-0.42-0.39-0.67-0.54c-0.29-0.16-0.54-0.37-0.84-0.52c-0.69-0.34-1.36,0.13-1.66,0.74c0.27-0.65,0.05-1.2-0.43-1.61
			c-0.38-1.32-1.72-1.75-3.03-1.75c-1.74-0.01-3.04,1.27-3.9,2.66c-0.39,0.63-0.37,1.37-0.67,2.03c-0.01,0.03-0.02,0.07-0.03,0.1
			c-0.07,0.1-0.15,0.19-0.21,0.29c-0.43,0.62-0.74,1.47-0.59,2.21c-0.03-0.03-0.05-0.07-0.1-0.08c-0.06-0.02-0.1-0.04-0.14-0.06
			c0,0,0-0.01,0-0.02c0.01-0.36-0.2-0.6-0.58-0.53c-0.28,0.05-0.5,0.19-0.66,0.38c-0.31,0.19-0.56,0.53-0.6,0.87
			c-0.08,0.66,0.45,0.95,1.02,0.74c0.2-0.08,0.35-0.22,0.47-0.38c0.18-0.09,0.35-0.21,0.49-0.37c0.06-0.07,0.13-0.2,0.15-0.33
			c0.08,0.23,0.2,0.45,0.4,0.63c0.04,0.04,0.09,0.06,0.13,0.1c-0.5,0.21-0.9,0.59-1.12,1.04c-0.45,0.53-0.64,1.26-0.19,1.82
			c0.37,0.47,1.25,0.71,1.81,0.48c0.65-0.27,1.06-0.7,1.29-1.26c0.07,0.18,0.11,0.38,0.09,0.69c-0.04,0.54,0.1,1.03,0.27,1.53
			c0.07,0.2,0.16,0.4,0.28,0.59c-0.21-0.12-0.45-0.2-0.71-0.25c-0.04-0.07-0.08-0.13-0.12-0.17c-0.13-0.12-0.35-0.17-0.52-0.14
			c-0.11,0.02-0.24,0.03-0.37,0.03c-0.14-0.07-0.29-0.15-0.44-0.22c-0.41-0.2-0.81-0.39-1.28-0.3c-0.9,0.18-1.41,1.26-1.48,2.08
			c-0.07,0.82,0.29,2.03,1.21,2.23c0,0,0,0,0,0c0.21,0.19,0.48,0.31,0.84,0.33c0.55,0.04,1.12-0.11,1.65-0.37
			c-0.01,0.19,0.03,0.38,0.16,0.58c0.14,0.22,0.33,0.28,0.58,0.24c0.08-0.01,0.14-0.04,0.21-0.06c-0.23,0.13-0.44,0.28-0.61,0.44
			c-0.36,0.33-0.72,0.82-0.88,1.34c-0.14-0.49-0.3-0.98-0.43-1.44c-0.08-0.26-0.28-0.41-0.51-0.41c-0.02-0.02-0.04-0.05-0.05-0.05
			c-0.51-0.26-0.62-0.21-1.12,0.06c-0.92,0.49-1.08,1.57-0.95,2.48c0.24,1.75-1.27,2.71-1.15,4.41c0.06,0.81,0.1,1.62,0.23,2.42
			c0.1,0.62-0.19,1.46,0.1,2.06c0.15,0.31,0.31,0.51,0.47,0.66c-0.04,0.03-0.08,0.08-0.12,0.11c-0.23-0.05-0.49,0.08-0.64,0.25
			c-0.37,0.43-0.52,1.16-0.06,1.59c0.2,0.19,0.45,0.15,0.67,0.03c-0.15,0.26-0.29,0.51-0.39,0.75c-0.53,1.23-0.87,2.93,0.23,3.94
			c0.26,0.24,0.55,0.5,0.87,0.73c-0.24,0.04-0.49,0.29-0.55,0.49c-0.27,0.87,0.32,1.71,0.81,2.41c0.33,0.46,0.36,0.72,0.38,1.26
			c0.02,0.41,0.44,0.76,0.77,0.94c0.97,0.53,1.65,0.97,2.79,0.73c0.81-0.17,1.53-0.71,1.82-1.49c0.11-0.29,0.04-0.56-0.23-0.72
			c-1-0.6-1.96,0.41-2.76-0.44c0,0,0,0,0,0c0.46,0.13,0.86,0.13,1.29-0.11c0.83-0.46,1.31-1.51,0.97-2.4
			c-0.13-0.33-0.33-0.69-0.59-0.99c0.01-0.12,0.01-0.24,0.01-0.36c-0.01-0.48-0.45-1-0.92-0.61c0,0-0.01,0.01-0.01,0.01
			c-0.1-0.01-0.2-0.01-0.29-0.01c-0.17-0.1-0.33-0.2-0.5-0.3c0.06-0.47,0.06-0.98,0.02-1.49c0.05,0.22,0.15,0.42,0.34,0.61
			c0.49,0.5,1.22,0.06,1.58-0.36c0.14-0.16,0.23-0.35,0.3-0.55c0.01,0.11,0.02,0.22,0.03,0.33c-0.2,1.36-0.06,2.72,1.24,3.39
			c0.79,0.41,2.13,0.25,2.93-0.06c0.33-0.13,0.63-0.46,0.86-0.85c0.43,0.71,1.54,0.93,2.25,0.64c0.37-0.15,0.66-0.43,0.88-0.77
			c0.01,0.12,0.05,0.24,0.09,0.35c0,0,0,0.01,0,0.01c-0.03,0.06-0.26,0.54-0.06,0.37c-0.02,0.02-0.04,0.03-0.06,0.05
			c-0.04-0.04-0.07-0.09-0.11-0.12c-0.08-0.08-0.23,0.06-0.21,0.15c0.01,0.07,0.01,0.13,0.01,0.2c-0.11,0.08-0.22,0.15-0.34,0.22
			c-0.35-0.41-1.08-0.21-1.54-0.03c-0.24,0.09-0.43,0.22-0.62,0.36c-0.23-0.04-0.5-0.06-0.84-0.02c-0.81,0.08-1.4,0.28-2.2-0.01
			c-0.81-0.29-1.45,0.75-1.45,1.41c0,0.83,0.16,1.35,0.97,1.68c0.26,0.1,0.27,0.22,0.42,0.05c-0.13,0.15-0.27,0.28-0.42,0.42
			c-0.29,0.3-0.42,0.73-0.31,1.12c0.07,0.26,0.2,0.38,0.47,0.43c0.67,0.12,1.29-0.29,1.81-0.76c0.03,0.05,0.06,0.09,0.09,0.14
			c0.47,0.57,1.29,0.38,1.88,0.15c0.53-0.21,1.02-0.62,1.42-1.01c0.52-0.51,0.63-1.26,1.07-1.8c0.14-0.17,0.32-0.41,0.46-0.66
			c0.36-0.2,0.69-0.44,0.95-0.79c0.35-0.45,0.51-0.92,0.65-1.47c0.06-0.26,0.19-0.54,0.21-0.81c0-0.02,0.02-0.15,0.04-0.29
			C40.62,77.25,40.83,76.55,40.37,76.19z M35.94,65.14c0.08,0.2,0.15,0.39,0.23,0.59c0.06,0.13,0.11,0.26,0.16,0.37
			c-0.2-0.15-0.41-0.29-0.64-0.4C35.81,65.53,35.88,65.34,35.94,65.14z M30.24,56.83c0.45,0.31,0.95,0.45,1.43,0.34
			c-0.37,0.48-0.6,1.04-0.59,1.76c0,0.14,0.02,0.28,0.06,0.42c-0.46-0.15-1-0.1-1.51,0.07C30.44,58.85,30.79,57.74,30.24,56.83z
			 M32.03,69.86c-0.25,0.78-0.51,1.61-0.48,2.43c0,0.05,0.02,0.09,0.02,0.14c-0.64-0.07-1.32,0.3-1.55,0.94
			c-0.12,0.35-0.18,0.7-0.21,1.06c0-0.01-0.01-0.03-0.02-0.04c-0.06-0.2-0.12-0.36-0.26-0.54c-0.05-0.07-0.14-0.1-0.24-0.11
			c-0.01-0.01-0.02-0.02-0.04-0.03c-0.32-0.18-0.58,0.03-0.74,0.3c-0.09-0.17-0.2-0.33-0.36-0.47c-0.32-0.27-0.44-0.57-0.61-0.95
			c-0.23-0.51-0.9-1.27-1.47-1.37c-0.06-0.01-0.11,0.01-0.17,0c0.62-0.76,1.09-1.89,1.16-2.51c0.07-0.62-0.2-1.47-0.01-2.13
			c0.17,0.49,0.25,0.84,0.8,1.13c0.28,0.15,0.69,0.16,1.1,0.1c-0.12,0.02-0.23,0.05-0.32,0.09c-0.28,0.14-0.49,0.34-0.66,0.56
			c-0.21,0-0.42,0.08-0.6,0.26c-0.63,0.68-0.15,1.46,0.02,2.2c-0.14,0.28-0.17,0.59-0.02,0.97c0.23,0.58,1.36,0.7,1.87,0.63
			c1.39-0.19,1.92-1.78,1.94-2.98c0.01-0.49-0.38-1.4-0.87-1.59c-0.33-0.13-0.84-0.21-1.26-0.16c0.38-0.06,0.74-0.17,0.99-0.28
			c0.64-0.26,1.15-0.62,1.47-1.05c0,0.01-0.01,0.02-0.01,0.03c-0.19,0.96-0.35,1.86,0.3,2.65c0.1,0.12,0.2,0.23,0.29,0.34
			C32.09,69.6,32.08,69.72,32.03,69.86z M33.27,48.48c0.6-0.5,1.01-1.07,1.25-1.7c0.23-0.24,0.4-0.47,0.51-0.69
			c-0.14,0.32-0.29,0.66-0.25,1c-0.07,0.21-0.05,0.44,0.12,0.64c0.01,0.02,0.03,0.03,0.05,0.04c0,0.29,0.07,0.57,0.32,0.79
			c-0.1,0-0.2-0.01-0.3,0c-0.34,0.05-0.65,0.27-0.85,0.54c-0.01,0.01-0.01,0.02-0.02,0.04c-0.18,0.11-0.35,0.26-0.5,0.43
			c-0.07-0.25-0.26-0.63-0.46-0.99C33.17,48.55,33.22,48.52,33.27,48.48z M32.85,56.14c0.1-0.15,0.19-0.31,0.25-0.48
			c0.06-0.17,0.07-0.33,0.07-0.48c0.04-0.41-0.03-0.82-0.24-1.27c-0.02-0.04-0.05-0.06-0.07-0.09c0.13-0.07,0.24-0.14,0.34-0.22
			c-0.09,0.34-0.03,0.7,0.27,1.01c0.26,0.26,0.55,0.31,0.85,0.22c-0.01,0.01-0.02,0.02-0.03,0.02c-0.11,0.13-0.2,0.26-0.28,0.4
			c-0.35,0.29-0.68,0.58-1.09,0.84C32.9,56.11,32.87,56.12,32.85,56.14z"/>
		<path class="st19" d="M40.37,75.85c-0.47-0.37-1.07-0.1-1.44,0.3c-0.16,0.09-0.32,0.2-0.44,0.35c0.02-0.61-0.16-1.26-0.62-1.67
			c0.03,0.01,0.05,0.03,0.08,0.03c0.11,0.07,0.24,0.13,0.38,0.16c0.46,0.1,0.88-0.42,1-0.83c0.6-0.73,0.58-1.97,0.56-2.83
			c-0.02-1.04-0.64-2.21-1.59-2.68c-0.38-0.19-0.79,0.19-0.99,0.46c-0.74,1-0.38,2.42-0.28,3.55c0.03,0.33,0.09,0.72,0.2,1.08
			c0.03,0.39,0.14,0.66,0.3,0.84c-0.41-0.17-0.87-0.09-1.26,0.13c-0.31-0.15-0.84,0.03-1.09,0.33c-0.09,0.11-0.16,0.23-0.22,0.35
			c-0.07-0.11-0.14-0.22-0.23-0.3c-0.31-0.26-1.23-0.63-1.1-0.98c0.05-0.13,0.06-0.24,0.07-0.35c0.13,0.01,0.25,0.01,0.37,0
			c1.27-0.13,2.06-1.72,2.43-2.74c0.31-0.83,0.08-1.65,0.56-2.43c0.3-0.49,0.25-1.09,0.13-1.62c-0.05-0.23-0.15-0.43-0.27-0.61
			c0.61,0.26,1.27-0.28,1.65-0.68c0.48-0.49,0.65-1.4,0.39-2.03c-0.33-0.79-0.96-1.51-1.59-2.19c0.09-0.16,0.13-0.35,0.1-0.51
			c-0.11-0.63-0.59-0.81-1.04-1.16c0.01-0.14,0.05-0.27,0.08-0.41c0.02-0.08,0.01-0.15,0.02-0.22c0.35-0.82,0.23-1.72,0.23-2.61
			c0-0.28,0.07-0.58,0.17-0.88c0.28-0.59,0.5-1.18,0.58-1.88c0.07-0.66-0.07-1.54-0.91-1.47c-0.31,0.03-0.58,0.14-0.83,0.31
			c0.01-0.32-0.09-0.64-0.34-0.87c-0.38-0.34-0.96-0.15-1.34,0.09c-0.02,0.02-0.05,0.04-0.07,0.06c0.01-0.32-0.06-0.66-0.16-1
			c0.2,0.02,0.41,0.02,0.58,0.01c0.23-0.01,0.9,0.25,1.04,0.41c0.28,0.32,0.51,0.66,0.94,0.8c0.76,0.25,1.32-0.42,1.47-1.08
			c0.17-0.71-0.31-1.46-0.73-1.96c-0.2-0.23-0.44-0.41-0.69-0.56c0.29,0.01,0.57,0,0.8,0.02c0.45,0.04,0.9-0.42,0.95-0.85
			c0.06-0.56,0.37-1.26,0.03-1.77c-0.17-0.25-0.42-0.39-0.67-0.54c-0.29-0.16-0.54-0.37-0.84-0.52c-0.69-0.34-1.36,0.13-1.66,0.74
			c0.27-0.65,0.05-1.2-0.43-1.61c-0.38-1.32-1.72-1.75-3.03-1.75c-1.74-0.01-3.04,1.27-3.9,2.66c-0.39,0.63-0.37,1.37-0.67,2.03
			c-0.01,0.03-0.02,0.07-0.03,0.1c-0.07,0.1-0.15,0.19-0.21,0.29c-0.43,0.62-0.74,1.47-0.59,2.21c-0.03-0.03-0.05-0.07-0.1-0.08
			c-0.06-0.02-0.1-0.04-0.14-0.06c0,0,0-0.01,0-0.02c0.01-0.36-0.2-0.6-0.58-0.53c-0.28,0.05-0.5,0.19-0.66,0.38
			c-0.31,0.19-0.56,0.53-0.6,0.87c-0.08,0.66,0.45,0.95,1.02,0.74c0.2-0.08,0.35-0.22,0.47-0.38c0.18-0.09,0.35-0.2,0.49-0.37
			c0.06-0.07,0.13-0.2,0.15-0.33c0.08,0.23,0.2,0.45,0.4,0.63c0.04,0.04,0.09,0.06,0.13,0.1c-0.5,0.21-0.9,0.59-1.12,1.04
			c-0.45,0.53-0.64,1.26-0.19,1.82c0.37,0.47,1.25,0.71,1.81,0.48c0.65-0.27,1.06-0.7,1.29-1.26c0.07,0.18,0.11,0.38,0.09,0.69
			c-0.04,0.54,0.1,1.03,0.27,1.53c0.07,0.2,0.16,0.4,0.28,0.59c-0.21-0.12-0.45-0.2-0.71-0.25c-0.04-0.07-0.08-0.13-0.12-0.17
			c-0.13-0.12-0.35-0.17-0.52-0.14c-0.11,0.02-0.24,0.03-0.37,0.03c-0.14-0.07-0.29-0.15-0.44-0.22c-0.41-0.2-0.81-0.39-1.28-0.3
			c-0.9,0.18-1.41,1.26-1.48,2.08c-0.07,0.82,0.29,2.03,1.21,2.23c0,0,0,0,0,0c0.21,0.19,0.48,0.31,0.84,0.33
			c0.55,0.04,1.12-0.11,1.65-0.37c-0.01,0.19,0.03,0.38,0.16,0.58c0.14,0.22,0.33,0.28,0.58,0.24c0.08-0.01,0.14-0.04,0.21-0.06
			c-0.23,0.13-0.44,0.28-0.61,0.44c-0.36,0.33-0.72,0.82-0.88,1.34c-0.14-0.49-0.3-0.98-0.43-1.44c-0.08-0.26-0.28-0.41-0.51-0.41
			c-0.02-0.02-0.04-0.05-0.05-0.05c-0.51-0.26-0.62-0.21-1.12,0.06c-0.92,0.49-1.08,1.57-0.95,2.48c0.24,1.75-1.27,2.71-1.15,4.41
			c0.06,0.81,0.1,1.62,0.23,2.42c0.1,0.62-0.19,1.46,0.1,2.06c0.15,0.31,0.31,0.51,0.47,0.66c-0.04,0.03-0.08,0.08-0.12,0.11
			c-0.23-0.05-0.49,0.08-0.64,0.25c-0.37,0.43-0.52,1.16-0.06,1.59c0.2,0.19,0.45,0.15,0.67,0.03c-0.15,0.26-0.29,0.51-0.39,0.75
			c-0.53,1.23-0.87,2.93,0.23,3.94c0.26,0.24,0.55,0.5,0.87,0.73c-0.24,0.04-0.49,0.29-0.55,0.49c-0.27,0.87,0.32,1.71,0.81,2.41
			c0.33,0.47,0.36,0.72,0.38,1.26c0.02,0.41,0.44,0.76,0.77,0.94c0.97,0.53,1.65,0.97,2.79,0.72c0.81-0.17,1.53-0.71,1.82-1.49
			c0.11-0.29,0.04-0.56-0.23-0.72c-1-0.6-1.96,0.41-2.76-0.44c0,0,0,0,0,0c0.46,0.13,0.86,0.13,1.29-0.11
			c0.83-0.46,1.31-1.51,0.97-2.4c-0.13-0.33-0.33-0.69-0.59-0.99c0.01-0.12,0.01-0.24,0.01-0.36c-0.01-0.48-0.45-1-0.92-0.61
			c0,0-0.01,0.01-0.01,0.01c-0.1-0.01-0.2-0.01-0.29-0.01c-0.17-0.1-0.33-0.2-0.5-0.3c0.06-0.47,0.06-0.98,0.02-1.49
			c0.05,0.22,0.15,0.42,0.34,0.61c0.49,0.5,1.22,0.06,1.58-0.36c0.14-0.16,0.23-0.35,0.3-0.55c0.01,0.11,0.02,0.22,0.03,0.33
			c-0.2,1.36-0.06,2.72,1.24,3.39c0.79,0.41,2.13,0.25,2.93-0.06c0.33-0.13,0.63-0.46,0.86-0.85c0.43,0.71,1.54,0.93,2.25,0.64
			c0.37-0.15,0.66-0.43,0.88-0.76c0.01,0.12,0.05,0.24,0.09,0.35c0,0,0,0.01,0,0.01c-0.03,0.06-0.26,0.54-0.06,0.37
			c-0.02,0.02-0.04,0.03-0.06,0.05c-0.04-0.04-0.07-0.09-0.11-0.12c-0.08-0.08-0.23,0.06-0.21,0.16c0.01,0.07,0.01,0.13,0.01,0.2
			c-0.11,0.08-0.22,0.15-0.34,0.22c-0.35-0.41-1.08-0.21-1.54-0.03c-0.24,0.09-0.43,0.22-0.62,0.36c-0.23-0.04-0.5-0.06-0.84-0.02
			c-0.81,0.08-1.4,0.28-2.2-0.01c-0.81-0.29-1.45,0.75-1.45,1.41c0,0.83,0.16,1.35,0.97,1.68c0.26,0.1,0.27,0.22,0.42,0.05
			c-0.13,0.15-0.27,0.28-0.42,0.42c-0.29,0.3-0.42,0.73-0.31,1.12c0.07,0.26,0.2,0.38,0.47,0.43c0.67,0.12,1.29-0.29,1.81-0.76
			c0.03,0.05,0.06,0.09,0.09,0.14c0.47,0.57,1.29,0.38,1.88,0.15c0.53-0.21,1.02-0.62,1.42-1.01c0.52-0.51,0.63-1.26,1.07-1.8
			c0.14-0.17,0.32-0.41,0.46-0.66c0.36-0.2,0.69-0.44,0.95-0.79c0.35-0.45,0.51-0.92,0.65-1.47c0.06-0.26,0.19-0.54,0.21-0.81
			c0-0.02,0.02-0.15,0.04-0.29C40.62,76.92,40.83,76.22,40.37,75.85z M35.94,64.81c0.08,0.2,0.15,0.39,0.23,0.59
			c0.06,0.13,0.11,0.26,0.16,0.37c-0.2-0.15-0.41-0.29-0.64-0.4C35.81,65.2,35.88,65,35.94,64.81z M30.24,56.49
			c0.45,0.31,0.95,0.45,1.43,0.34c-0.37,0.48-0.6,1.04-0.59,1.76c0,0.14,0.02,0.28,0.06,0.42c-0.46-0.15-1-0.1-1.51,0.07
			C30.44,58.52,30.79,57.4,30.24,56.49z M32.03,69.53c-0.25,0.78-0.51,1.61-0.48,2.43c0,0.05,0.02,0.09,0.02,0.14
			c-0.64-0.07-1.32,0.3-1.55,0.94c-0.12,0.35-0.18,0.7-0.21,1.06c0-0.01-0.01-0.03-0.02-0.04c-0.06-0.2-0.12-0.36-0.26-0.54
			c-0.05-0.07-0.14-0.1-0.24-0.11c-0.01-0.01-0.02-0.02-0.04-0.03c-0.32-0.18-0.58,0.03-0.74,0.3c-0.09-0.17-0.2-0.33-0.36-0.47
			c-0.32-0.27-0.44-0.57-0.61-0.95c-0.23-0.51-0.9-1.27-1.47-1.37c-0.06-0.01-0.11,0.01-0.17,0c0.62-0.76,1.09-1.89,1.16-2.51
			c0.07-0.62-0.2-1.47-0.01-2.13c0.17,0.49,0.25,0.84,0.8,1.13c0.28,0.15,0.69,0.15,1.1,0.09c-0.12,0.02-0.23,0.05-0.32,0.09
			c-0.28,0.14-0.49,0.34-0.66,0.56c-0.21,0-0.42,0.08-0.6,0.26c-0.63,0.68-0.15,1.46,0.02,2.2c-0.14,0.28-0.17,0.59-0.02,0.97
			c0.23,0.58,1.36,0.7,1.87,0.63c1.39-0.19,1.92-1.78,1.94-2.98c0.01-0.49-0.38-1.4-0.87-1.59c-0.33-0.13-0.84-0.21-1.26-0.16
			c0.38-0.06,0.74-0.18,0.99-0.28c0.64-0.26,1.15-0.62,1.47-1.05c0,0.01-0.01,0.02-0.01,0.03c-0.19,0.96-0.35,1.85,0.3,2.65
			c0.1,0.12,0.2,0.23,0.29,0.34C32.09,69.27,32.08,69.39,32.03,69.53z M33.27,48.15c0.6-0.5,1.01-1.07,1.25-1.7
			c0.23-0.24,0.4-0.47,0.51-0.69c-0.14,0.32-0.29,0.66-0.25,1c-0.07,0.21-0.05,0.44,0.12,0.64c0.01,0.02,0.03,0.03,0.05,0.04
			c0,0.29,0.07,0.57,0.32,0.79c-0.1,0-0.2-0.01-0.3,0c-0.34,0.05-0.65,0.27-0.85,0.54c-0.01,0.01-0.01,0.02-0.02,0.04
			c-0.18,0.11-0.35,0.26-0.5,0.43c-0.07-0.25-0.26-0.63-0.46-0.99C33.17,48.21,33.22,48.19,33.27,48.15z M32.85,55.81
			c0.1-0.15,0.19-0.31,0.25-0.48c0.06-0.17,0.07-0.33,0.07-0.48c0.04-0.41-0.03-0.83-0.24-1.27c-0.02-0.04-0.05-0.06-0.07-0.09
			c0.13-0.06,0.24-0.14,0.34-0.22c-0.09,0.34-0.03,0.7,0.27,1.01c0.26,0.26,0.55,0.31,0.85,0.22c-0.01,0.01-0.02,0.01-0.03,0.02
			c-0.11,0.13-0.2,0.26-0.28,0.4c-0.35,0.29-0.68,0.58-1.09,0.84C32.9,55.77,32.87,55.79,32.85,55.81z"/>
		<g>
			<path class="st20" d="M45.7,97.94c0.14-0.46,0.2-1.01-0.24-1.23c-0.04-0.02-0.08-0.02-0.13-0.03c-0.06-0.15-0.14-0.3-0.25-0.43
				c-0.51-0.62-1.24-0.5-1.86-0.15c0.05-0.56,0.09-1.09,0.09-1.53c0.01-0.6-0.08-1.24-0.27-1.86c0.53-1.15,1.26-1.86,0.78-3.21
				c-0.09-0.25-0.42-0.43-0.67-0.43c-0.59,0-1.17-0.21-1.74-0.3c-0.05-0.58-0.04-1.3,0.2-1.62c0.35-0.48,0.44-0.89,0.24-1.44
				c-0.43-1.17-2.25,0.01-2.7,0.49c-0.43,0.47-0.51,1.12-0.95,1.56c-0.57,0.57-0.92,1.21-1.09,1.99c-0.04,0.18-0.07,0.43-0.08,0.71
				c-0.55,0.8-0.95,1.69-1.02,2.44c-0.24,2.38,1.47,12.54,5.51,8.32c0.44-0.46,0.76-1.1,1.02-1.82c0.03-0.03,0.05-0.06,0.07-0.09
				c0.09,0.08,0.18,0.16,0.28,0.22c-0.01,0.14-0.03,0.28-0.03,0.41c0,0.8,0.34,1.68,1.31,1.54c1-0.15,1.8-1.05,1.99-2.02
				C46.28,98.87,46.07,98.34,45.7,97.94z"/>
			<path class="st20" d="M44.2,79.71c-0.86-0.14-1.7,0.53-2.25,1.09c-0.24,0.24-0.53,0.65-0.71,1.09c-0.05,0.07-0.1,0.14-0.14,0.22
				c-0.34,0.65-0.41,2.12,0.44,2.46c0.88,0.35,1.68-0.57,2.1-1.21c0.2-0.31,0.37-0.67,0.53-1c0.06-0.12,0.11-0.24,0.16-0.36
				c-0.13,0.14-0.08,0.06,0.16-0.22c-0.13,0.12-0.07,0.03,0.19-0.26c0.08-0.15,0.15-0.31,0.22-0.46
				C45.17,80.44,44.85,79.82,44.2,79.71z"/>
			<path class="st20" d="M77.06,80.95c-0.39-1.12-1.72-2.86-3.1-2.51c-0.23,0.06-0.44,0.15-0.63,0.26
				c-1.83,0.32-3.18,2.68-2.49,4.41c0.49,1.24,2.01,2.12,3.3,2.16c1.13,0.03,2.27-0.72,2.85-1.66
				C77.53,82.72,77.38,81.85,77.06,80.95z"/>
			<path class="st20" d="M86.12,103.36c1.54-1.02,3.06-3.34,2.78-5.28c-0.22-1.57-1.39-2.88-1.75-4.37
				c-0.22-0.91-0.86-1.81-1.91-1.49c-0.52,0.16-1.09,0.76-1.47,1.47c-0.11,0.06-0.21,0.14-0.32,0.21c0.24-0.62,0.46-1.25,0.56-1.95
				c0.22-1.46,0.04-3.97-1.01-5.42c-0.08-0.26-0.17-0.52-0.3-0.77c-0.47-0.87-1.34-1.08-2.26-0.94c-0.97,0.15-1.75,0.65-2.3,1.39
				c-0.41-0.32-0.88-0.53-1.46-0.53c-0.72,0.01-1.29,0.29-1.78,0.68c-0.59-0.3-1.27-0.4-1.99-0.34c-0.11-0.14-0.23-0.27-0.37-0.38
				c-1.2-0.96-2.82,0.03-3.69,1.01c-0.04-0.64-0.18-1.27-0.44-1.83c-0.46-0.98-1.45-1.08-2.39-1c-0.07,0.01-0.13,0.03-0.2,0.04
				c-0.32-0.08-0.65-0.15-0.97-0.21c0.08-0.3,0.14-0.6,0.23-0.89c0.04-0.11,0.07-0.2,0.1-0.27c0.47-0.13,0.93-0.3,1.38-0.54
				c1.11,0.12,2.14-0.33,2.95-1.14c0.49-0.49,0.77-1.17,0.8-1.84c0.47-0.46,0.58-1.26-0.03-1.62c0.26,0.15-0.16-0.12-0.28-0.15
				c-0.13-0.04-0.26-0.07-0.39-0.11c-0.07-0.02-0.15-0.03-0.22-0.05c-0.52-0.35-1.22-0.51-1.83-0.36c0.21-0.7,0.08-1.47-0.59-2.11
				c-0.61-0.59-1.61-0.81-2.4-0.97c-0.6-0.12-1.28-0.03-1.88-0.02c-0.54,0.01-1.03-0.2-1.58-0.12c-1.89,0.26-3.37,2.49-3.74,4.22
				c-0.12,0.53-0.02,1.24,0.24,1.9c-0.1,0.27-0.18,0.55-0.24,0.84c-0.36-0.26-0.81-0.46-1.37-0.6c-0.12-0.03-0.24-0.04-0.35-0.06
				c0.12-0.1,0.25-0.2,0.35-0.32c0.95-1.05,1.03-2.56,0.52-3.83c-0.5-1.25-1.87-1.49-3.06-1.25c-1.04,0.21-1.95,1.2-2.08,2.25
				c-0.05,0.44,0.04,0.91,0.38,1.22c0.09,0.08,0.18,0.14,0.28,0.19c0.05,0.44,0.16,0.88,0.31,1.24c0.02,0.06,0.06,0.1,0.09,0.15
				c-0.11,0-0.23,0.01-0.37,0.05c-0.22,0.07-0.41,0.15-0.6,0.25c-0.08-0.27-0.19-0.53-0.33-0.77c-0.02-0.06-0.04-0.12-0.06-0.19
				c-0.38-1.17-1.29-2.72-2.56-2.54c-0.31-0.06-0.68,0.03-1.03,0.36c-1.25,1.16-0.61,2.95-1.14,4.15c-0.27,0.25-0.5,0.53-0.72,0.82
				c-0.96,0.67-1.9,1.51-2.07,2.66c-0.46,0.69-0.78,1.49-0.91,2.45c-0.33,2.32,1.82,2.98,3.62,2.32c0.19-0.07,0.38-0.16,0.58-0.27
				c0.02,0.24,0.06,0.47,0.12,0.71c-0.22-0.09-0.44-0.17-0.68-0.2c-0.96-0.15-1.74,0.69-2.11,1.45c-0.05,0.11-0.08,0.24-0.09,0.37
				c-0.02,0.06-0.04,0.13-0.06,0.19c-0.15,0.65,0.31,1.23,0.59,1.78c0.14,0.28,0.31,0.55,0.49,0.8c0.31,0.42,0.61,0.73,1.16,0.8
				c0.86,0.11,1.6-0.73,1.92-1.42c0.19-0.4,0.28-0.9,0.28-1.4c0.28,0.24,0.57,0.45,0.89,0.62c-0.55,0.61-0.92,1.37-1.09,2.19
				c-0.93,0.31-1.67,0.96-1.82,2.14c-0.11,0.91,0.74,2.06,1.15,2.8c0.55,0.98,0.44,2.17,0.82,3.22c0.46,1.25,1.59,1.59,2.68,1.35
				c-0.28,0.37-0.53,0.75-0.69,1.19c-0.13,0.36-0.24,0.8-0.3,1.23c-0.3-0.24-0.63-0.46-1.14-0.36c-0.02,0-0.04,0.01-0.06,0.02
				c-0.15-0.68-0.34-1.29-0.72-1.79c0.23-1.69,0.08-3.27-1.72-3.31c-2.85-0.06-4.76,2.13-6.62,3.96c-2.5,2.47-0.31,4.65,1.53,6.44
				c-0.85-0.47-2.26,0.24-2.75,1.15c-0.85,1.58-0.42,2.93,0.83,4.11c0.84,0.79,1.75,1.11,2.68,1.02c-0.29,0.73-0.22,1.48,0.04,2.27
				c-0.21-0.64,0.1,0.4,0.22,0.62c0.2,0.39,0.64,0.82,1.06,0.99c0.94,0.36,1.98,0.15,2.88-0.39c-0.55,1.71-0.56,3.62,0.66,5.01
				c2.11,2.4,6.72,2.68,9.61,1.11c1.53,1.12,4.29,1.41,5.83,1.65c0.3,0.98,1.11,1.69,2.14,2.1c1.32,0.52,2.87,0.05,4.13-0.39
				c1.51-0.53,2.76-1.62,3.59-2.96c2.01,0.6,3.77-0.4,4.99-2.07c0.66-0.9,0.78-2.38,0.14-3.32c-0.08-0.12-0.18-0.24-0.27-0.36
				c0,0,0,0,0.01,0c0.04,0.04,0.03,0.03,0.01,0c0.15-0.05,0.3-0.11,0.44-0.19c0.06-0.03,0.11-0.06,0.17-0.1
				c1.06-0.62,1.93-1.36,2.36-2.55c0.18-0.49,0.25-0.99,0.19-1.51c-0.07-0.47-0.26-0.79-0.53-1.06c0,0,0,0,0.01,0
				c0.18,0,0.35-0.01,0.52-0.05c1.21-0.24,2.46-1.12,3.19-2.22c0.06-0.03,0.11-0.07,0.17-0.11c0.01,0,0.3-0.17,0.87-0.51
				c1.51-1.09,2.45-2.59,2.41-4.47c-0.02-1.01-0.69-1.84-1.49-2.39c-0.6-0.42-1.28-0.55-1.93-0.83c0.14-0.47,0.28-1.05,0.36-1.68
				C84.74,104.14,85.54,103.74,86.12,103.36z M48.31,114c0.45-0.83,0.72-1.78,0.86-2.76c0.72,0.13,1.52,0.07,2.23-0.15
				c0.05,0.42,0.19,0.84,0.48,1.25c0.04,0.06,0.09,0.1,0.13,0.15C50.83,112.59,49.46,113.15,48.31,114z M54.56,95.23
				c-0.11,0.26-0.22,0.51-0.31,0.77c-0.1-0.3-0.19-0.61-0.22-0.9C54.2,95.17,54.38,95.21,54.56,95.23z M55.53,112.9
				c-0.06,0.16-0.1,0.32-0.16,0.48c-0.16-0.12-0.34-0.22-0.52-0.32c0.29-0.13,0.58-0.3,0.84-0.52
				C55.64,112.66,55.58,112.77,55.53,112.9z M56.62,101.13c-0.22,0.1-0.43,0.22-0.62,0.35c-0.07,0-0.14,0-0.21,0
				c-0.65,0-1.4,0.16-2.07,0.44c0.37-0.59,0.68-1.22,0.88-1.87c0.59,0.66,1.48,0.92,2.45,0.92
				C56.9,101.02,56.76,101.06,56.62,101.13z M56.92,87.39c-0.28-0.17-0.59-0.31-0.9-0.44c0.72-0.5,1.3-1.39,1.61-2.35
				c0.15,0.42,0.34,0.81,0.57,1.17C57.68,86.28,57.26,86.81,56.92,87.39z M62.42,107.39c-0.71,0.26-1.38,0.66-1.98,1.14
				c0-0.05,0.01-0.09,0-0.14c-0.1-1.27-0.41-2.43-0.57-3.66c0.85,0.67,2.13,0.72,3.39,0.5C62.76,105.88,62.45,106.68,62.42,107.39z
				 M68.77,112.44c-0.49-0.19-1.09-0.15-1.67,0.13c-0.01,0-0.01,0-0.02,0c0.19-0.1,0.39-0.22,0.58-0.35
				c0.45-0.31,0.85-0.67,1.24-1.05c-0.06,0.22-0.1,0.45-0.14,0.69C68.75,112.05,68.75,112.25,68.77,112.44z M72.91,95.75
				c-0.23,0.06-0.47,0.14-0.69,0.24c0.01-0.57-0.05-1.15-0.21-1.7c0.1-0.03,0.21-0.07,0.3-0.1c0.29-0.1,0.61-0.35,0.88-0.66
				C72.99,94.24,72.88,95.01,72.91,95.75z"/>
		</g>
		<g>
			<path class="st20" d="M113.07,70.56c0.01-0.01,0.02-0.03,0.04-0.05C113.06,70.56,113.06,70.57,113.07,70.56z"/>
			<path class="st20" d="M118.45,69.64C118.32,69.66,118.3,69.69,118.45,69.64L118.45,69.64z"/>
			<path class="st20" d="M106.86,65.81c1.19,0.2,2.25-0.66,2.89-1.56c0.52-0.72,0.74-1.66,0.69-2.54c-0.06-1.1-1.19-1.89-2.23-1.68
				c-0.84,0.17-1.61,0.8-2.02,1.57c-0.55,0.49-0.95,1.17-1.05,1.86c-0.08,0.49,0.03,0.97,0.26,1.4
				C105.73,65.45,106.21,65.7,106.86,65.81z"/>
			<path class="st20" d="M111.76,60.25c0.04-0.03,0.07-0.07,0.11-0.1C111.74,60.26,111.71,60.29,111.76,60.25z"/>
			<path class="st20" d="M125.45,66.16c-0.24-0.29-0.61-0.4-1.01-0.41c0.15-0.15,0.28-0.3,0.37-0.46c0.09-0.17,0.18-0.34,0.26-0.51
				c0.01-0.02,0.01-0.01,0.01-0.03c0-0.01,0.01-0.02,0.02-0.03c0.29-0.31,0.53-0.69,0.45-1.13c-0.09-0.5-0.43-0.83-0.94-0.85
				c-0.04,0-0.08,0.01-0.13,0.02c-0.13-0.05-0.26-0.1-0.43-0.1c-0.7-0.04-1.47,0.44-1.98,1.11c-0.06-0.06-0.12-0.13-0.2-0.19
				c-0.53-0.44-1.15-0.39-1.76-0.13c-0.47,0.2-0.96,0.67-1.19,1.19c-0.4,0.22-0.76,0.54-1.08,0.91c0.22-0.48,0.52-0.98,0.72-1.4
				c0.14-0.18,0.25-0.37,0.35-0.57c0.31-0.21,1-0.6,1.68-0.99c0.41-0.04,0.81-0.15,1.13-0.31c0.68-0.34,1.25-0.8,1.7-1.34
				c1.57-1.19,2.66-3.19,1.27-4.91c-1.28-1.59-3.36-4.59-5.78-4.27c-0.53,0.07-1.11,0.23-1.67,0.47c-0.48,0.16-0.93,0.41-1.33,0.77
				c-0.62,0.49-1.1,1.1-1.25,1.83c-0.24,0.2-0.46,0.44-0.6,0.67c-0.05,0.07-0.08,0.15-0.12,0.23c-0.13-0.48-0.37-0.92-0.69-1.34
				c-0.45-0.58-1.13-1.18-1.9-1.15c-0.1,0-0.21,0.03-0.31,0.05c-0.27-0.24-0.67-0.31-1.04-0.23c-1.77,0.35-2.34,2.16-2.24,3.73
				c0.07,1.21,0.67,2.67,1.94,3.02c1.6,0.45,3.54-0.66,4.16-2.22c0.08,0.19,0.2,0.36,0.36,0.5c0.35,0.31,0.78,0.42,1.2,0.39
				c-0.24,0.35-0.43,0.71-0.55,1.1c-0.18-0.11-0.39-0.2-0.64-0.23c-0.53-0.07-1,0.07-1.5,0.24c-0.24,0.08-0.46,0.24-0.66,0.38
				c-0.17,0.16-0.27,0.25-0.32,0.28c-0.11,0.09-0.22,0.18-0.31,0.29c-0.46,0.53-0.8,1.33-0.48,2.01c0.14,0.3,0.39,0.51,0.65,0.68
				c0.02,0.08,0.02,0.17,0.03,0.26c-0.55,0.52-1.05,1.2-1.62,1.44c-0.66,0.27-3.22,0.91-3.3,2.06c-0.03,0.04-0.05,0.08-0.08,0.14
				c-0.06,0.1-0.1,0.2-0.11,0.31c-0.02,0.14-0.02,0.24-0.01,0.31c-0.55,0.39-0.77,1.04-1.38,1.24c-1.04,0.34-1.58,1.68-1.53,2.7
				c0.03,0.64,0.21,1.12,0.45,1.72c0.26,0.63,0.28,1.66,0.73,2.19c0.81,0.95,2.23,0.96,3.28,0.33c0.54-0.33,1.04-0.7,1.5-1.13
				c0.47-0.45,1.04-0.09,1.57,0.19c0.08,0.44,0.25,0.86,0.56,1.26c0.55,0.7,1.56,1.01,2.42,1.02c1.4,0.01,2.46-0.7,3.43-1.64
				c0.25-0.01,0.49-0.06,0.72-0.14c0.67,0.43,1.97,0.81,2.4,0.72c1.03-0.22,1.78-0.83,2.44-1.63c0.3-0.36,0.59-0.79,0.8-1.24
				c0.04-0.03,0.08-0.05,0.11-0.08c0.46-0.37,0.87-0.85,1.08-1.41c0.11-0.29,0.15-0.59,0.11-0.9c-0.02-0.19-0.08-0.36-0.2-0.51
				C125.49,69.24,126.59,67.52,125.45,66.16z M118.12,69.72c0.2-0.04,0.4-0.1,0.6-0.18c-0.12,0.05-0.2,0.08-0.26,0.1
				c0.04-0.01,0.08-0.01,0.14-0.01c0.36,0.01,0.7-0.06,1.02-0.18c-0.07,0.18-0.12,0.37-0.14,0.55c-0.26,0.34-0.44,0.73-0.57,1.14
				c-0.08,0.05-0.16,0.1-0.25,0.15c-0.22-0.68-0.66-1.2-1.24-1.59C117.63,69.77,117.87,69.78,118.12,69.72z M114.78,69.25
				c-0.45,0.21-0.77,0.45-1.13,0.79c0.51-0.49-0.49,0.45-0.58,0.51c-0.13,0.14-0.25,0.29-0.37,0.43c-0.04-0.17-0.09-0.34-0.15-0.51
				c0-0.02,0-0.03,0-0.05c0-0.01,0.01-0.02,0.01-0.04c0-0.06,0-0.13,0-0.19c0-0.01,0-0.03,0.01-0.08c0.03-0.22,0-0.42-0.09-0.62
				c-0.21-0.29-0.24-0.32-0.08-0.1c-0.69-1-2-0.1-2.33,0.77c-0.04,0.11-0.07,0.21-0.09,0.32c-0.07,0.04-0.14,0.08-0.2,0.12
				c-0.01-0.01-0.01-0.02-0.02-0.03c-0.11-0.22-0.24-0.44-0.39-0.64c0.05-0.05,0.09-0.1,0.13-0.15c0.1-0.14,0.18-0.3,0.25-0.47
				c0.73-0.18,1.43-0.51,1.95-1.03c0.6,0.63,1.64,0.91,2.45,0.87c0.99-0.05,1.87-0.52,2.46-1.24c-0.05,0.28-0.06,0.57-0.01,0.85
				c0.05,0.27,0.17,0.5,0.34,0.67c-0.09-0.05-0.18-0.1-0.28-0.14c-0.22-0.1-0.44-0.15-0.66-0.17
				C115.64,69.01,115.23,69.04,114.78,69.25z"/>
		</g>
		<g>
			<path class="st20" d="M125.55,35.94c-0.29-0.27-0.69-0.3-1.07-0.23c-0.16,0.03-0.33,0.1-0.49,0.19
				c-0.13-0.01-0.37-0.02-0.16-0.02c-0.1,0-0.21-0.02-0.31-0.03c-0.65-0.06-1.26,0.4-1.58,0.93c-0.38,0.62-0.28,1.19,0.15,1.71
				c0.62,0.76,1.92,0.93,2.69,0.34c0.57-0.43,1.05-1.08,1.09-1.82C125.88,36.64,125.85,36.22,125.55,35.94z"/>
			<path class="st20" d="M133.06,29.23c-0.24-1.14-1.03-2-2.06-2.52c-1.19-0.6-3.04,0.2-3.21,1.56c-0.06,0.51,0.21,0.73,0.39,1.07
				c0.06,0.12,0.12,0.25,0.16,0.37c-0.17-0.04-0.36-0.05-0.57-0.02c-0.88,0.12-1.56,0.83-1.96,1.7c-0.29,0-0.59,0.1-0.86,0.28
				c0.24-0.4,0.48-0.8,0.7-1.2c0.7-1.27,0.74-2.66-0.67-3.36c-1.15-0.57-2.42,0.91-2.98,1.68c-0.07,0.09-0.12,0.19-0.18,0.29
				c-0.04,0.03-0.1,0.06-0.14,0.09c-1.52,0.98-2.95,2.17-3.53,3.94c-0.51,1.55,0.28,2.9,1.93,2.98c1.29,0.06,2.69-0.89,3.36-1.95
				c0.18-0.28,0.35-0.57,0.53-0.85c0,0.27,0.09,0.53,0.3,0.75c0.23,0.24,0.64,0.23,0.94,0.12c0.08,0.45,0.3,0.92,0.6,1.38
				c0.5,0.79,1.3,1.36,2.09,1.1c-0.05,0.1-0.09,0.2-0.13,0.3c-0.18,0.07-0.35,0.17-0.51,0.29c-0.48,0.1-0.97,0.51-1.18,0.86
				c-0.32,0.53-0.35,0.97-0.36,1.56c0,0.1,0,0.19,0,0.29c0.05-0.09,0.05-0.06-0.01,0.08c-0.02,0.06-0.04,0.12-0.05,0.18
				c-0.65-0.38-1.39-0.29-2.1-0.47c-0.16-0.09-0.37-0.16-0.66-0.19c-0.04,0-0.09,0-0.14,0c-0.08-0.05-0.16-0.11-0.26-0.15
				c-0.46-0.21-0.9-0.24-1.28-0.14c0.01-0.04,0.02-0.07,0.03-0.11c0.09-0.34,0.17-0.69,0.2-1.05c0.06-0.72-0.52-1.15-1.19-1.17
				c-0.1,0-0.2,0-0.29,0c-1.09-0.27-2.24,0.59-2.43,1.79c-0.17,1.04,0.62,2.07,1.63,2.32c0.19,0.05,0.37,0.05,0.53,0.02
				c-0.09,0.52-0.02,1.07,0.11,1.57c0.24,0.87,0.77,1.36,1.52,1.83c1.72,1.05,3.67-0.28,4.68-1.63c0.18-0.24,0.3-0.53,0.36-0.84
				c0.32,0.04,0.7-0.1,0.97-0.26c0.7-0.42,1.4-1.09,1.81-1.8c0.08-0.13,0.14-0.28,0.2-0.43c1.47,0.01,2.7-1.54,2.6-2.93
				c-0.06-0.86-0.71-1.4-1.48-1.32c-0.27-0.09-0.59-0.1-0.82-0.05c-0.2,0.04-0.4,0.12-0.6,0.23c0.24-0.53,0.35-1.13,0.42-1.71
				c0.01-0.09,0.02-0.19,0.03-0.29c0.07,0.34,0.18,0.66,0.36,0.94c-0.02,0.52,0.39,0.73,0.82,0.66c0.32,0.06,0.7-0.14,0.9-0.37
				c0.48-0.54,0.58-1.17,0.51-1.87c-0.03-0.32-0.13-0.69-0.31-0.97C132.73,31.39,133.31,30.43,133.06,29.23z"/>
		</g>
		<g>
			<g class="st6">
				
					<radialGradient id="SVGID_00000051383625791888106960000003086677472564529584_" cx="115.6715" cy="98.4468" r="38.1076" gradientUnits="userSpaceOnUse">
					<stop  offset="0" style="stop-color:#C6534E"/>
					<stop  offset="0.158" style="stop-color:#CD6864"/>
					<stop  offset="0.4869" style="stop-color:#DF9F9C"/>
					<stop  offset="0.9558" style="stop-color:#FCF6F6"/>
					<stop  offset="1" style="stop-color:#FFFFFF"/>
				</radialGradient>
				<path style="fill:url(#SVGID_00000051383625791888106960000003086677472564529584_);" d="M124.91,105.36
					c-0.02-1.02-0.02-2.62-1.24-2.95c-0.23-0.06-0.47-0.07-0.72-0.02c-0.12-0.12-0.26-0.24-0.43-0.34c-1-0.62-1.99,0.47-2.58,1.17
					c-1.01,1.19-1.69,2.96-1.1,4.48c0.32,0.83,0.86,2.53,1.83,2.83c1.48,0.46,3.01-0.54,3.69-1.85
					C124.91,107.61,124.92,106.54,124.91,105.36z"/>
				
					<radialGradient id="SVGID_00000171694003753705678980000004154069887179218872_" cx="115.6716" cy="98.4482" r="38.1047" gradientUnits="userSpaceOnUse">
					<stop  offset="0" style="stop-color:#C6534E"/>
					<stop  offset="0.158" style="stop-color:#CD6864"/>
					<stop  offset="0.4869" style="stop-color:#DF9F9C"/>
					<stop  offset="0.9558" style="stop-color:#FCF6F6"/>
					<stop  offset="1" style="stop-color:#FFFFFF"/>
				</radialGradient>
				<path style="fill:url(#SVGID_00000171694003753705678980000004154069887179218872_);" d="M120.22,110.97
					c-0.33-0.44-1.14-0.3-1.55-0.12c-0.04,0.02-0.07,0.04-0.11,0.06c0-0.02-0.01-0.04-0.02-0.05c-0.01-0.03-0.02-0.06-0.03-0.08
					c-0.02-0.05-0.03-0.1-0.05-0.15c0,0.01-0.01,0.02-0.01,0.02c-0.13-0.24-0.35-0.43-0.65-0.45c-0.68-0.04-1.36,0.54-1.56,1.15
					c-0.4,1.19-0.23,5.2,1.96,4.58C120.09,115.39,121.5,112.67,120.22,110.97z"/>
				
					<radialGradient id="SVGID_00000036210877480953527570000002914809977359885205_" cx="115.6713" cy="98.4467" r="38.109" gradientUnits="userSpaceOnUse">
					<stop  offset="0" style="stop-color:#C6534E"/>
					<stop  offset="0.158" style="stop-color:#CD6864"/>
					<stop  offset="0.4869" style="stop-color:#DF9F9C"/>
					<stop  offset="0.9558" style="stop-color:#FCF6F6"/>
					<stop  offset="1" style="stop-color:#FFFFFF"/>
				</radialGradient>
				<path style="fill:url(#SVGID_00000036210877480953527570000002914809977359885205_);" d="M137.6,103.33
					c-0.31-1.23-1.06-1.54-2.1-1.68c-0.27-0.26-0.5-0.53-0.83-0.73c-0.55-0.34-1.07-0.71-1.64-1.02c-0.97-0.53-1.94-0.69-3.03-0.61
					c-0.47,0.04-0.89,0.27-1.24,0.6c-0.85-0.07-1.67,0.29-2.28,0.89c-0.26,0.03-0.5,0.11-0.7,0.28c-1.57,1.35-0.87,3.37-0.15,5.01
					c0.71,1.59,2.5,2.6,4.08,1.92c0.09,0.01,0.18,0,0.28-0.03c0.47-0.15,0.93-0.31,1.39-0.5c0.58-0.24,1.29,0.24,1.85,0.32
					c1.31,0.19,2.68-0.03,3.59-1.13C137.66,105.65,137.91,104.57,137.6,103.33z"/>
				<g>
					
						<radialGradient id="SVGID_00000045595842663472881430000006598503796412906661_" cx="115.6716" cy="98.4443" r="38.1132" gradientUnits="userSpaceOnUse">
						<stop  offset="0" style="stop-color:#C6534E"/>
						<stop  offset="0.158" style="stop-color:#CD6864"/>
						<stop  offset="0.4869" style="stop-color:#DF9F9C"/>
						<stop  offset="0.9558" style="stop-color:#FCF6F6"/>
						<stop  offset="1" style="stop-color:#FFFFFF"/>
					</radialGradient>
					<path style="fill:url(#SVGID_00000045595842663472881430000006598503796412906661_);" d="M118.72,116.38
						c-0.11-0.02-0.37-0.07-0.43-0.07c-0.34,0.01-0.66,0.1-0.96,0.25l0,0c-0.21,0.1-0.4,0.24-0.53,0.38
						c-0.29,0.32-0.7,1.19-0.19,1.53c0.8,0.54,1.73,0.21,2.34-0.48C119.43,117.45,119.56,116.57,118.72,116.38z"/>
					
						<radialGradient id="SVGID_00000170979249995620276620000000260060732278883747_" cx="115.6428" cy="97.8619" r="39.3258" gradientUnits="userSpaceOnUse">
						<stop  offset="0" style="stop-color:#C6534E"/>
						<stop  offset="0.158" style="stop-color:#CD6864"/>
						<stop  offset="0.4869" style="stop-color:#DF9F9C"/>
						<stop  offset="0.9558" style="stop-color:#FCF6F6"/>
						<stop  offset="1" style="stop-color:#FFFFFF"/>
					</radialGradient>
					<path style="fill:url(#SVGID_00000170979249995620276620000000260060732278883747_);" d="M118.71,116.38
						C118.72,116.38,118.72,116.38,118.71,116.38C118.78,116.39,118.79,116.4,118.71,116.38z"/>
				</g>
				
					<radialGradient id="SVGID_00000182488165341177400500000011995934386081618870_" cx="115.6701" cy="98.4457" r="38.1107" gradientUnits="userSpaceOnUse">
					<stop  offset="0" style="stop-color:#C6534E"/>
					<stop  offset="0.158" style="stop-color:#CD6864"/>
					<stop  offset="0.4869" style="stop-color:#DF9F9C"/>
					<stop  offset="0.9558" style="stop-color:#FCF6F6"/>
					<stop  offset="1" style="stop-color:#FFFFFF"/>
				</radialGradient>
				<path style="fill:url(#SVGID_00000182488165341177400500000011995934386081618870_);" d="M145.68,111.93
					c-0.23-0.82-0.26-1.85-0.94-2.45c-0.78-0.69-1.86-0.53-2.63,0.07c-0.45,0.35-0.73,0.86-0.82,1.34
					c-0.79,0.96-0.63,2.24-0.22,3.54c0.38,1.23,0.88,3.22,2.48,3.19c0.66-0.01,1.37-0.39,1.68-1c0.18-0.36,0.31-0.68,0.38-1.09
					c0-0.1,0-0.21,0-0.31c0.01,0.03,0.04-0.06,0.09-0.29C146.02,113.81,146,113.06,145.68,111.93z"/>
				
					<radialGradient id="SVGID_00000004541051918971006470000010561924057990987707_" cx="115.673" cy="98.446" r="38.107" gradientUnits="userSpaceOnUse">
					<stop  offset="0" style="stop-color:#C6534E"/>
					<stop  offset="0.158" style="stop-color:#CD6864"/>
					<stop  offset="0.4869" style="stop-color:#DF9F9C"/>
					<stop  offset="0.9558" style="stop-color:#FCF6F6"/>
					<stop  offset="1" style="stop-color:#FFFFFF"/>
				</radialGradient>
				<path style="fill:url(#SVGID_00000004541051918971006470000010561924057990987707_);" d="M142.29,106.34
					c-0.53-1.05-1.76-1.76-2.9-1.27c-0.58,0.25-1.2,0.93-1.22,1.59c0,0.01,0,0.01,0,0.02c0,0.13,0.01,0.28,0.04,0.42
					c-0.11,0.13-0.21,0.26-0.29,0.39c-0.38,0.65-0.59,1.53-0.26,2.25c0.63,1.38,2.37,1.02,3.33,0.27
					C142.1,109.16,142.99,107.72,142.29,106.34z"/>
				
					<radialGradient id="SVGID_00000051341689703900460640000015664546022765565601_" cx="115.6712" cy="98.4472" r="38.1092" gradientUnits="userSpaceOnUse">
					<stop  offset="0" style="stop-color:#C6534E"/>
					<stop  offset="0.158" style="stop-color:#CD6864"/>
					<stop  offset="0.4869" style="stop-color:#DF9F9C"/>
					<stop  offset="0.9558" style="stop-color:#FCF6F6"/>
					<stop  offset="1" style="stop-color:#FFFFFF"/>
				</radialGradient>
				<path style="fill:url(#SVGID_00000051341689703900460640000015664546022765565601_);" d="M140.47,116.51
					c-0.8-0.01-1.55,0.3-2.21,0.74c0.08-0.45,0.05-0.9-0.15-1.32c-0.49-1-1.43-1.63-2.48-1.68c-0.67-0.47-1.66-0.41-2.59-0.48
					c-0.26-0.02-0.5,0.01-0.73,0.08c0.17-0.12,0.33-0.26,0.49-0.4c0.1-0.09,0.19-0.23,0.26-0.37c0.88,0.51,2.12,0.17,3.02-0.38
					c-0.05,0.03-0.09,0.06-0.13,0.1c1.09-0.53,1.86-1.6,1.74-2.84c-0.08-0.78-0.75-1.49-1.47-1.73c-0.95-0.31-1.9,0.13-2.4,0.95
					c-0.2,0.07-0.41,0.17-0.6,0.31c-0.16,0.12-0.3,0.26-0.43,0.41c-0.06-0.32-0.17-0.61-0.38-0.76c-0.83-0.61-1.96-0.21-2.83,0.43
					c-0.42-0.27-0.92-0.33-1.42-0.24c-0.06-0.39-0.25-0.7-0.56-0.95c-0.36-0.3-0.77-0.28-1.18-0.16c-0.33,0.02-0.68,0.17-0.91,0.33
					c-0.36,0.25-0.64,0.64-0.75,1.07c-0.01,0.03-0.02,0.06-0.03,0.08c-0.03,0.15-0.04,0.31-0.03,0.47c0.04,0.42,0.23,0.73,0.49,0.96
					c0,0,0,0,0,0c-0.53-0.51-1.35-0.46-2.12-0.13c-0.69,0.29-1.42,0.89-1.79,1.62c-0.16,0.24-0.28,0.52-0.31,0.79
					c-0.05,0.44,0.09,0.85,0.38,1.16c0.06,0.08,0.12,0.16,0.19,0.22c0.11,0.22,0,0.8-0.07,1.2c-0.41,0.55-0.58,1.2-0.25,1.91
					c-0.74-0.3-1.68-0.06-2.19,0.56c-1.02,1.24-1.32,3.36-0.35,4.74c0.45,0.64,1.03,1.06,1.7,1.26c0.16,0.24,0.34,0.49,0.5,0.76
					c0.28,0.45,0.33,1.25,0.5,1.77c0.01,0.05,0.03,0.09,0.05,0.13c-1.07,1.94-0.86,4.87,1.93,4.71c1.67-0.1,3.71-0.72,4.6-2.27
					c0.38-0.67,0.64-1.31,0.65-2.09c0,0.01,0.06-0.65,0.03-0.76c0.01-0.01,0.02-0.02,0.03-0.04c0.25-0.04,0.49-0.08,0.74-0.14
					c0.18-0.04,0.41-0.19,0.56-0.38c1.47,0.15,3.05-0.92,4.02-1.83c0.89-0.83,1.6-1.8,2.2-2.84c0.15,0.38,0.43,0.7,0.89,0.87
					c1.09,0.41,2.37-0.38,3.1-1.13c-0.44,0.45,0.73-0.63,0.67-0.57c0.46-0.44,0.75-0.94,1.02-1.52
					C142.33,118.09,141.76,116.53,140.47,116.51z M123.77,119.09c0.29-0.03,0.6-0.11,0.92-0.22c-0.22,0.29-0.36,0.61-0.43,0.95
					C124.13,119.55,123.96,119.31,123.77,119.09z M129.59,118.6c-0.49,0.39-0.88,0.84-1.21,1.33c-0.04,0-0.08-0.01-0.13-0.02
					c-0.04,0-0.08,0-0.12,0c0-0.01-0.01-0.03-0.02-0.04c-0.28-0.89-0.9-1.68-1.68-1.81c0.1-0.05,0.19-0.1,0.28-0.15
					c0.17-0.09,0.31-0.5,0-0.43c-0.96,0.2-1.96,0.21-2.9-0.03c0.18-0.14,0.35-0.3,0.5-0.48c0.33,0.09,0.67,0.13,1,0.06
					c0.31-0.06,0.6-0.14,0.86-0.33c0.38-0.27,0.49-0.71,0.83-1c0.06-0.05,0.11-0.18,0-0.2c-0.01,0-0.01-0.05-0.02-0.11
					c0.24,0.08,0.49,0.14,0.72,0.18c-0.43,0.41-0.81,0.91-0.82,1.52c-0.01,0.44,0.01,0.84,0.36,1.16c0.33,0.31,0.76,0.33,1.19,0.27
					c0.02,0,0.03,0,0.05-0.01c0.42-0.06,0.8-0.3,1.13-0.61C129.6,118.13,129.59,118.36,129.59,118.6z M130.32,115.55
					c0-0.01-0.01-0.02-0.01-0.03c-0.04-0.14-0.12-0.25-0.21-0.33c0.32-0.16,0.61-0.39,0.84-0.67c0.11-0.04,0.22-0.07,0.32-0.11
					C130.89,114.73,130.57,115.13,130.32,115.55z"/>
				
					<radialGradient id="SVGID_00000086652561887842424090000006135439392226261932_" cx="115.6699" cy="98.4442" r="38.1127" gradientUnits="userSpaceOnUse">
					<stop  offset="0" style="stop-color:#C6534E"/>
					<stop  offset="0.158" style="stop-color:#CD6864"/>
					<stop  offset="0.4869" style="stop-color:#DF9F9C"/>
					<stop  offset="0.9558" style="stop-color:#FCF6F6"/>
					<stop  offset="1" style="stop-color:#FFFFFF"/>
				</radialGradient>
				<path style="fill:url(#SVGID_00000086652561887842424090000006135439392226261932_);" d="M139.94,111.48
					c-0.2-0.42-0.68-0.55-1.11-0.46c-1.02,0.21-1.78,1.32-1.45,2.32l0.01,0.03c0.14,0.43,0.72,0.53,1.1,0.46
					c0.62-0.12,1.28-0.68,1.44-1.29c0-0.01,0.01-0.02,0.01-0.04C140.04,112.15,140.11,111.81,139.94,111.48z"/>
			</g>
			<g>
				<path class="st20" d="M124.76,104.92c-0.02-1.03-0.02-2.62-1.24-2.96c-0.23-0.06-0.47-0.07-0.72-0.02
					c-0.12-0.12-0.26-0.24-0.43-0.34c-1-0.62-1.99,0.47-2.58,1.17c-1.01,1.19-1.69,2.96-1.1,4.48c0.32,0.83,0.86,2.53,1.83,2.83
					c1.48,0.46,3.01-0.54,3.69-1.85C124.76,107.16,124.78,106.1,124.76,104.92z"/>
				<path class="st20" d="M120.08,110.52c-0.33-0.45-1.14-0.3-1.55-0.12c-0.04,0.02-0.07,0.04-0.11,0.06c0-0.02-0.01-0.03-0.02-0.05
					c-0.01-0.03-0.02-0.06-0.03-0.08c-0.02-0.05-0.03-0.1-0.05-0.15c0,0.01-0.01,0.01-0.01,0.02c-0.13-0.24-0.35-0.43-0.65-0.45
					c-0.68-0.04-1.36,0.54-1.56,1.16c-0.4,1.19-0.23,5.2,1.96,4.58C119.94,114.95,121.35,112.23,120.08,110.52z"/>
				<path class="st20" d="M137.45,102.89c-0.31-1.23-1.06-1.54-2.1-1.68c-0.27-0.26-0.5-0.53-0.83-0.73
					c-0.55-0.34-1.07-0.71-1.64-1.02c-0.97-0.53-1.94-0.69-3.03-0.61c-0.47,0.04-0.89,0.27-1.24,0.6c-0.85-0.07-1.67,0.29-2.28,0.89
					c-0.26,0.03-0.5,0.11-0.7,0.27c-1.57,1.35-0.87,3.38-0.15,5.01c0.71,1.59,2.5,2.6,4.08,1.92c0.09,0.01,0.18,0,0.28-0.03
					c0.47-0.15,0.93-0.32,1.39-0.5c0.58-0.24,1.29,0.25,1.85,0.32c1.31,0.19,2.68-0.03,3.59-1.13
					C137.51,105.21,137.76,104.13,137.45,102.89z"/>
				<g>
					<path class="st20" d="M118.58,115.94c-0.11-0.02-0.37-0.07-0.43-0.07c-0.34,0.01-0.66,0.1-0.96,0.25l0.01,0
						c-0.21,0.1-0.4,0.24-0.53,0.38c-0.3,0.32-0.7,1.19-0.19,1.53c0.8,0.54,1.73,0.21,2.34-0.48
						C119.28,117.01,119.42,116.13,118.58,115.94z"/>
					<path class="st20" d="M118.57,115.94C118.57,115.94,118.57,115.94,118.57,115.94C118.63,115.95,118.65,115.95,118.57,115.94z"
						/>
				</g>
				<path class="st20" d="M145.54,111.49c-0.23-0.82-0.26-1.85-0.94-2.45c-0.78-0.69-1.86-0.53-2.63,0.07
					c-0.45,0.35-0.73,0.86-0.82,1.34c-0.79,0.96-0.63,2.24-0.22,3.55c0.38,1.23,0.88,3.22,2.48,3.19c0.66-0.01,1.37-0.39,1.68-1
					c0.18-0.37,0.31-0.69,0.38-1.09c0-0.1,0-0.21,0-0.31c0.01,0.03,0.04-0.06,0.09-0.29C145.88,113.36,145.86,112.61,145.54,111.49z
					"/>
				<path class="st20" d="M142.15,105.89c-0.53-1.05-1.76-1.76-2.9-1.27c-0.58,0.25-1.2,0.93-1.22,1.59c0,0.01,0,0.01,0,0.02
					c0,0.13,0.01,0.28,0.04,0.42c-0.11,0.13-0.21,0.26-0.29,0.39c-0.38,0.65-0.59,1.53-0.26,2.25c0.63,1.38,2.37,1.02,3.33,0.27
					C141.95,108.72,142.84,107.27,142.15,105.89z"/>
				<path class="st20" d="M140.32,116.07c-0.8-0.01-1.55,0.3-2.21,0.74c0.08-0.45,0.05-0.9-0.15-1.32
					c-0.49-1.01-1.43-1.63-2.48-1.68c-0.67-0.47-1.66-0.41-2.59-0.48c-0.26-0.02-0.5,0.01-0.73,0.08c0.17-0.12,0.33-0.25,0.49-0.4
					c0.1-0.09,0.19-0.23,0.26-0.37c0.88,0.51,2.12,0.17,3.02-0.38c-0.04,0.03-0.09,0.06-0.13,0.1c1.09-0.53,1.86-1.6,1.74-2.84
					c-0.08-0.78-0.75-1.49-1.47-1.73c-0.95-0.31-1.9,0.13-2.4,0.95c-0.2,0.07-0.41,0.17-0.6,0.31c-0.16,0.12-0.3,0.26-0.43,0.41
					c-0.06-0.32-0.17-0.61-0.38-0.76c-0.83-0.61-1.96-0.21-2.83,0.43c-0.42-0.27-0.92-0.33-1.42-0.24c-0.06-0.39-0.25-0.7-0.56-0.95
					c-0.36-0.3-0.77-0.28-1.18-0.16c-0.33,0.02-0.68,0.17-0.91,0.33c-0.36,0.25-0.64,0.64-0.75,1.07c-0.01,0.03-0.02,0.05-0.03,0.08
					c-0.03,0.16-0.04,0.31-0.03,0.47c0.04,0.42,0.23,0.73,0.49,0.96c0,0,0,0,0,0c-0.53-0.51-1.35-0.46-2.12-0.13
					c-0.69,0.29-1.42,0.89-1.79,1.62c-0.16,0.24-0.28,0.51-0.31,0.79c-0.05,0.44,0.09,0.85,0.38,1.16c0.06,0.09,0.12,0.16,0.19,0.22
					c0.11,0.22,0,0.8-0.07,1.2c-0.41,0.55-0.58,1.2-0.25,1.91c-0.74-0.3-1.68-0.06-2.19,0.56c-1.02,1.25-1.32,3.36-0.35,4.74
					c0.45,0.64,1.03,1.06,1.7,1.26c0.16,0.25,0.34,0.49,0.5,0.76c0.28,0.45,0.33,1.25,0.5,1.77c0.01,0.05,0.03,0.09,0.05,0.13
					c-1.07,1.94-0.86,4.87,1.93,4.71c1.67-0.1,3.71-0.72,4.6-2.27c0.38-0.67,0.64-1.31,0.65-2.09c0,0.01,0.06-0.66,0.03-0.76
					c0.01-0.01,0.02-0.02,0.03-0.03c0.25-0.04,0.49-0.08,0.74-0.14c0.18-0.04,0.41-0.19,0.56-0.38c1.47,0.15,3.05-0.92,4.02-1.83
					c0.89-0.83,1.6-1.8,2.2-2.84c0.15,0.38,0.43,0.69,0.89,0.87c1.09,0.41,2.37-0.38,3.1-1.13c-0.44,0.45,0.73-0.63,0.67-0.57
					c0.46-0.44,0.75-0.94,1.02-1.52C142.18,117.64,141.61,116.09,140.32,116.07z M123.63,118.65c0.29-0.03,0.6-0.11,0.92-0.22
					c-0.22,0.29-0.36,0.6-0.43,0.95C123.98,119.11,123.81,118.87,123.63,118.65z M129.44,118.15c-0.49,0.39-0.88,0.84-1.21,1.33
					c-0.04-0.01-0.08-0.01-0.13-0.02c-0.04,0-0.08,0-0.12,0c0-0.02-0.01-0.03-0.02-0.04c-0.28-0.89-0.9-1.67-1.68-1.82
					c0.1-0.05,0.19-0.1,0.28-0.15c0.17-0.09,0.31-0.5,0-0.43c-0.96,0.2-1.96,0.21-2.9-0.03c0.18-0.14,0.35-0.3,0.5-0.48
					c0.33,0.09,0.67,0.13,1,0.06c0.31-0.06,0.6-0.14,0.86-0.33c0.38-0.27,0.49-0.71,0.83-1c0.06-0.05,0.11-0.18,0-0.2
					c-0.01,0-0.01-0.05-0.02-0.11c0.24,0.09,0.49,0.14,0.72,0.18c-0.43,0.41-0.81,0.91-0.82,1.52c-0.01,0.44,0.01,0.84,0.36,1.17
					c0.33,0.31,0.76,0.33,1.19,0.27c0.02,0,0.03,0,0.05-0.01c0.42-0.06,0.8-0.3,1.13-0.61
					C129.45,117.69,129.44,117.92,129.44,118.15z M130.18,115.11c0-0.01-0.01-0.02-0.01-0.03c-0.04-0.14-0.12-0.25-0.21-0.33
					c0.32-0.16,0.61-0.39,0.84-0.66c0.11-0.04,0.22-0.07,0.32-0.11C130.74,114.28,130.43,114.69,130.18,115.11z"/>
				<path class="st20" d="M139.79,111.03c-0.2-0.42-0.68-0.55-1.1-0.46c-1.02,0.21-1.78,1.32-1.45,2.32l0.01,0.03
					c0.14,0.43,0.72,0.53,1.1,0.46c0.62-0.12,1.28-0.67,1.44-1.29c0-0.01,0.01-0.02,0.01-0.04
					C139.89,111.7,139.96,111.37,139.79,111.03z"/>
			</g>
		</g>
		<path class="st30" d="M32.91,44.53c-0.47,0.09-0.8,0.55-1.11,0.88c-0.26,0.28-0.55,0.64-0.71,1.03c-0.08,0.12-0.16,0.25-0.21,0.39
			c0.04-0.47,0.01-0.92,0.21-1.41c0.11-0.27,0.37-0.71,0.29-1.02c-0.4-1.51-1.89-1.05-2.67-0.08c-0.47,0.59-0.68,1.35-0.81,2.08
			c-0.01,0.11-0.01,0.22-0.02,0.34c-0.06,0.07-0.11,0.15-0.17,0.22c-0.31,0.21-0.6,0.45-0.8,0.78c-0.2,0.33-0.28,0.72-0.26,1.12
			c-0.1,0.42-0.06,0.81,0.3,1.06c0.33,0.57,0.9,0.94,1.63,0.74c0.03-0.01,0.05,0,0.08-0.01c0.63-0.21,1.01-0.51,1.38-1.07
			c0.42-0.63,0.6-1.46,0.76-2.2c0.01,0.09,0.04,0.17,0.08,0.25c-0.08,0.11-0.14,0.25-0.17,0.42c-0.1,0.57,0.35,1.14,0.96,1.02
			c0.55-0.11,0.88-0.64,1.04-1.13c0.06-0.19,0.1-0.39,0.18-0.58c0.14-0.34,0.61-0.54,0.86-0.81C34.36,45.89,33.94,44.34,32.91,44.53
			z"/>
		<path class="st30" d="M28.23,51.61c-0.09-0.81-0.97-0.52-1.4-0.11c-0.06,0.01-0.12,0.02-0.19,0.05c-0.29,0.11-0.65,0.47-0.67,0.79
			c-0.04,0.69,0.65,0.96,1.24,0.82C27.88,53,28.3,52.25,28.23,51.61z"/>
		<path class="st30" d="M31.4,52.51c-0.1-0.43-0.47-0.63-0.89-0.66c-0.2-0.01-0.38,0.07-0.54,0.18c-0.12,0.05-0.22,0.12-0.33,0.18
			c-0.25,0.17-0.56,0.6-0.48,0.92c0.04,0.17,0.1,0.31,0.19,0.46c0.04,0.06,0.08,0.11,0.12,0.17c0.02,0.07,0.04,0.14,0.07,0.22
			c0,0,0,0,0,0c-0.27,0.32-0.38,0.86-0.06,1.2c0.54,0.57,1.77,0.83,2.34,0.12C32.52,54.42,31.61,53.41,31.4,52.51z"/>
		<path class="st30" d="M27.19,56.73c-0.13-0.5-0.47-0.94-0.72-1.39c-0.38-0.68-1.18-0.36-1.43,0.27c-0.05,0.12-0.07,0.24-0.1,0.36
			c0,0,0,0.01-0.01,0.01c-0.36,0.59-0.3,1.26,0.16,1.76c0.34,0.38,0.95,0.55,1.44,0.44C27.23,58.03,27.33,57.32,27.19,56.73z"/>
		<path class="st30" d="M26.31,60.69c-0.13-0.27-0.47-0.28-0.72-0.17c-0.62,0.29-1.06,1.02-0.99,1.72c0.04,0.4,0.16,0.73,0.35,1.08
			c0.01,0.03,0.02,0.06,0.03,0.08c-0.01,0.03-0.02,0.05-0.04,0.08c-0.11,0.2-0.43,0.42-0.58,0.61c-0.47,0.61-0.6,2.33,0.43,2.49
			c1.59,0.25,1.25-2.01,1.84-2.75C27.34,62.94,26.77,61.62,26.31,60.69z"/>
		<path class="st30" d="M24.98,68.03c-0.01,0-0.03,0-0.04,0c0-0.05-0.01-0.09-0.04-0.12c-0.01,0-0.01-0.01-0.02-0.01
			c-0.07-0.06-0.18-0.06-0.27-0.02c-0.62,0.31-0.73,1.46-0.08,1.81C25.37,70.14,25.94,68.14,24.98,68.03z"/>
		<path class="st30" d="M30.03,68.34c-0.38-0.49-0.91-0.36-1.33-0.06c-0.1,0-0.21,0.02-0.31,0.07c-0.45,0.23-0.97,0.95-0.9,1.48
			c0.04,0.29,0.28,0.51,0.39,0.77c0.11,0.26,0.32,0.49,0.49,0.72c0.17,0.24,0.21,0.39,0.53,0.46c0.35,0.08,0.69-0.16,0.91-0.4
			c0.12-0.13,0.18-0.28,0.26-0.43c0.05-0.11,0.2-0.44,0-0.08c0.15-0.28,0.24-0.58,0.28-0.89C30.44,69.39,30.39,68.82,30.03,68.34z"
			/>
		<path class="st30" d="M34.93,66.1c-0.68-0.64-1.66-0.87-2.24,0.1c-0.17,0.28-0.22,0.56-0.22,0.84c-0.44,0.67-0.07,1.25,0.37,1.88
			c0.03,0.05,0.05,0.09,0.07,0.13c0.01,0.06,0.02,0.1,0.03,0.15c0,0.29-0.35,0.46-0.44,0.79c-0.09,0.3-0.24,0.78-0.18,1.09
			c0.15,0.79,0.89,0.52,1.38,0.2c0.76-0.5,1.23-1.45,1.63-2.24C35.85,68.04,35.76,66.89,34.93,66.1z"/>
		<path class="st30" d="M25.99,72c-0.73-0.35-1.59,0-1.76,0.77c-0.03,0.03-0.06,0.05-0.08,0.09c-0.1,0.16-0.15,0.42-0.07,0.59
			c0.04,0.08,0.12,0.18,0.19,0.28c-0.1,0.08-0.2,0.16-0.28,0.27c-0.2,0.3-0.45,0.74-0.46,1.11c0,0.7-0.12,1.47,0.55,1.87
			c0.66,0.39,1.34-0.03,1.73-0.57c0.23-0.32,0.23-0.73,0.32-1.1c0.06-0.23,0.11-0.47,0.14-0.7c0.11-0.19,0.09-0.28-0.04-0.29
			c0.13-0.09,0.23-0.2,0.31-0.33C26.99,73.26,26.79,72.37,25.99,72z"/>
		<path class="st30" d="M25.55,78.58c-0.01,0.01-0.02,0.03-0.04,0.04c-0.12,0.09-0.22,0.22-0.27,0.35
			c-0.09,0.24-0.04,0.51,0.22,0.61c0.36,0.14,0.75-0.19,0.91-0.48C26.75,78.44,26.01,78.04,25.55,78.58z"/>
		<path class="st30" d="M27.33,79.39c-0.65-0.01-1.37,0.31-1.69,0.9c-0.01,0.01-0.01,0.03-0.02,0.04c-0.32,0.18-0.54,0.64-0.49,1.01
			c0.04,0.29,0.29,0.53,0.48,0.74c0.21,0.23,0.29,0.24,0.38,0.54c0.06,0.18,0.27,0.25,0.43,0.27c0.65,0.1,1.07-0.53,1.29-0.98
			c0.13-0.26,0.21-0.57,0.36-0.81c0.08-0.14,0.37-0.48,0.4-0.78C28.57,79.62,27.88,79.4,27.33,79.39z"/>
		<path class="st30" d="M33.14,80.39c-0.49-0.22-1.07-0.05-1.49,0.23c-0.28,0.18-0.52,0.62-0.36,0.95c0.09,0.18,0.25,0.23,0.41,0.22
			c0.02,0.12,0.06,0.23,0.14,0.31c0.43,0.39,1.1,0.11,1.44-0.26C33.66,81.44,33.72,80.65,33.14,80.39z"/>
		<path class="st30" d="M32.68,75.39c-0.55-0.47-1.53-0.24-1.9,0.34c-0.11,0.18-0.16,0.35-0.16,0.52c-0.33,0.42-0.17,0.86,0.17,1.26
			c0.16,0.19,0.34,0.37,0.51,0.55c0.22,0.25,0.43,0.54,0.79,0.55c0.76,0.03,1.26-0.93,1.24-1.58C33.3,76.45,33.15,75.79,32.68,75.39
			z"/>
		<path class="st30" d="M29.11,74.87c0.04,0.05-0.1-0.18-0.14-0.26c-0.02-0.05-0.09-0.05-0.13-0.03c-0.26,0.11-0.49,0.28-0.51,0.59
			c-0.01,0.15,0.07,0.33,0.25,0.33c0.12,0,0.21-0.02,0.32-0.07C29.11,75.34,29.27,75.06,29.11,74.87z"/>
		<path class="st30" d="M37.88,70.46c-0.28,0.05-0.8,0.61-0.54,0.91c-0.03,0.28,0.05,0.56,0.29,0.8c0.21,0.21,0.56,0.03,0.72-0.15
			C38.78,71.55,38.79,70.29,37.88,70.46z"/>
		<path class="st30" d="M37.59,75.7c-0.05-0.09-0.11-0.13-0.18-0.16c-0.09-0.31-0.32-0.54-0.73-0.46c-0.75,0.16-0.97,1.02-0.89,1.68
			c0.09,0.69,0.77,1,1.35,0.58C37.57,77.04,37.88,76.19,37.59,75.7z"/>
		<path class="st30" d="M35.97,80.69c0,0-0.02-0.06-0.06-0.1c0,0,0,0,0,0c-0.01-0.02-0.02-0.03-0.03-0.04
			c-0.06-0.08-0.16-0.05-0.25-0.01c-0.64,0.08-0.39,1.12,0.11,0.67c0.02-0.02,0.04-0.03,0.05-0.05
			C35.92,81.05,36.06,80.87,35.97,80.69z"/>
		<path class="st30" d="M29.75,60.09c-0.41-0.1-0.84,0.11-1.15,0.43c-0.01,0-0.02,0-0.03,0.01c-0.41,0.19-0.74,0.86-0.85,1.27
			c-0.11,0.4-0.03,1.14,0.41,1.33c0.44,0.2,0.92-0.14,1.22-0.44c0.38-0.37,0.56-0.81,0.68-1.33C30.12,61.02,30.25,60.21,29.75,60.09
			z"/>
		<path class="st30" d="M28.19,64.75c-0.11,0-0.21,0.01-0.31,0.04c0,0,0,0,0,0c-0.55,0.06-0.63,1.1,0,0.82
			c0.11-0.05,0.21-0.11,0.31-0.17C28.39,65.32,28.6,64.74,28.19,64.75z"/>
		<path class="st30" d="M33.54,55.76c-0.33,0.23-0.58,0.51-0.77,0.83c-0.33,0.11-0.66,0.37-0.81,0.59c-0.21,0.3-0.34,0.64-0.34,1.01
			c-0.01,0.44-0.1,0.96-0.03,1.39c0.13,0.87,1.1,0.88,1.74,0.55c0.88-0.46,1.01-1.21,1.45-2.01c0.2-0.36,0.38-0.73,0.46-1.13
			c0.08-0.37,0.3-0.72,0.24-1.11C35.33,54.85,34.02,55.44,33.54,55.76z"/>
		<path class="st30" d="M35.26,52.58c-0.01,0-0.02-0.01-0.03-0.01c-0.26-0.11-0.57,0.06-0.74,0.25c-0.01,0.01-0.02,0.02-0.03,0.04
			c-0.33,0.36-0.37,1.18,0.32,1.04C35.25,53.8,35.93,52.89,35.26,52.58z"/>
		<path class="st30" d="M35.57,49.25c-0.1-0.18-0.28-0.19-0.45-0.13c-0.47-0.13-1.16,0.57-0.72,0.92
			C34.92,50.45,35.96,49.94,35.57,49.25z"/>
		<path class="st30" d="M37.31,46.81c-0.19-0.79-1.11-0.09-1.21,0.4c0,0.03-0.01,0.05-0.02,0.08c-0.18,0.87,1.44,0.45,1.24-0.41
			C37.32,46.86,37.32,46.84,37.31,46.81z"/>
		<path class="st30" d="M50.6,85.83c0-0.01-0.01-0.01-0.02-0.02c0.01-0.03,0.01-0.06,0-0.09c-0.02-0.04-0.04-0.07-0.05-0.11
			c-0.04-0.08-0.11-0.12-0.2-0.13c-0.27-0.02-0.53,0.07-0.8,0.12c-0.48,0.09-0.9,0.17-1.25,0.55c-0.53,0.57-0.61,1.76-0.02,2.33
			c0.69,0.66,1.76,0.02,2.13-0.67C50.7,87.26,50.89,86.45,50.6,85.83z"/>
		<path class="st30" d="M56.8,81.06c-0.15-0.31-0.48-0.81-0.83-0.92c-0.38-0.12-0.8-0.06-1.15,0.11c-0.4,0.04-0.8,0.04-1.2,0.09
			c-0.44,0.06-0.95,0.21-1.37,0.47c-0.09-0.08-0.2-0.15-0.35-0.23c-0.43-0.25-0.97-0.04-1.39,0.09c-0.53,0.17-0.99,0.68-1.25,1.23
			c-0.07-0.13-0.16-0.26-0.27-0.37c-1.04-0.99-2.7,0.45-3.43,1.14c-0.19,0.18-0.39,0.47-0.57,0.81c-0.74,0.7-1.04,1.74-0.85,2.75
			c0.09,0.49-0.02,1.15,0.4,1.53c0.51,0.47,1.3,0.2,1.78-0.16c1.09-0.82,2.22-2.02,2.78-3.27c0-0.01,0.01-0.02,0.01-0.03
			c0.01,0.01,0.01,0.02,0.02,0.02c0.85,0.69,1.87,0.43,2.63-0.19c-0.17,0.26-0.29,0.56-0.33,0.81c-0.04,0.28,0.09,0.57,0.21,0.82
			c-0.11,0.14-0.22,0.27-0.25,0.32c-0.1,0.14-0.16,0.29-0.2,0.44c-0.47,0.65-0.57,1.32-0.45,2.29c0.14,1.11-0.39,2.53,0.36,3.46
			c0.75,0.92,2.11-0.31,2.59-0.83c0.7-0.75,1-2.2,0.92-3.18c-0.09-1.19,0.04-2.07,0.62-3.13c0.27-0.49,0.63-1.11,0.34-1.68
			c-0.05-0.11-0.12-0.2-0.18-0.28c0.58,0.04,1.08-0.47,1.29-0.97C56.84,81.88,56.98,81.42,56.8,81.06z"/>
		<path class="st30" d="M51.15,94.31c-0.2-0.63-1.11-0.44-1.53-0.26c-0.04,0.02-0.07,0.04-0.1,0.06c-0.02-0.02-0.05-0.03-0.08-0.03
			c-0.13,0.01-0.24,0.02-0.35,0.1c-0.25,0.18-0.64,0.53-0.72,0.84c-0.12,0.44-0.23,0.79-0.03,1.22c0.21,0.45,0.35,0.92,0.65,1.32
			c0.2,0.25,0.64,0.09,0.85-0.06C50.74,96.84,51.51,95.44,51.15,94.31z"/>
		<path class="st30" d="M52.81,97.57c-1.28-0.7-3.06,0.14-3.58,1.45c-0.03,0.04-0.07,0.09-0.1,0.13c-0.03,0.02-0.04,0.04-0.08,0.07
			c-0.25,0.27-0.37,0.61-0.53,0.94c-0.16,0.33-0.17,0.84-0.2,1.21c-0.04,0.51,0.12,0.99,0.5,1.34c0.77,0.72,2.05,0.23,2.76-0.3
			c0.71-0.53,1.26-1.36,1.68-2.13C53.78,99.32,53.89,98.16,52.81,97.57z"/>
		<path class="st30" d="M54.97,103.77c0,0,0-0.01,0-0.01c-0.07-0.18-0.22-0.28-0.4-0.33c-0.34-0.35-0.86-0.38-1.35-0.05
			c-0.49,0.33-0.72,0.81-0.71,1.39c0.01,0.51,0.67,0.79,1.09,0.79C54.43,105.55,55.32,104.62,54.97,103.77z"/>
		<path class="st30" d="M45.99,103.21c-0.18,0-0.34,0.07-0.48,0.18c-0.5-0.75-1.47-0.93-2.35-0.27c-0.22,0.17-0.52,0.41-0.8,0.7
			c-0.77,0.23-1.52,0.62-2,1.26c-0.58,0.79-0.81,2.18-0.48,3.11c0.33,0.96,1.69,1.15,2.57,1.06c1-0.11,1.78-0.85,2.28-1.68
			c0.52-0.85,1.2-2.17,1.11-3.23c0.22-0.09,0.4-0.28,0.48-0.5C46.41,103.59,46.33,103.21,45.99,103.21z"/>
		<path class="st30" d="M48.73,106.84c-0.82-0.43-1.94,0.25-2.47,0.83c-0.64,0.7-1.24,2.13-0.36,2.9c0.07,0.06,0.15,0.1,0.23,0.15
			c0.01,0.01,0.01,0.01,0.03,0.02c0.03,0.04,0.04,0.06,0.08,0.1c0.11,0.11,0.24,0.19,0.38,0.23c0,0,0,0,0-0.01
			c0.41,0.16,0.91,0.1,1.32-0.09C49.35,110.3,50.54,107.8,48.73,106.84z"/>
		<path class="st30" d="M44.98,111.31c0.03-0.52-0.25-0.97-0.95-0.87c-1,0.15-1.64,0.96-1.97,1.87c-0.01,0-0.01,0-0.02,0.01
			c0,0,0,0,0,0c-0.02,0-0.05,0-0.1,0.01c-0.32,0.02-0.59,0.06-0.88,0.21c-1.21,0.6-1.73,2.27-0.51,3.12c1.1,0.77,2.33,0.32,3.2-0.57
			c0.71-0.73,1.58-1.82,1.6-2.88C45.35,111.75,45.2,111.47,44.98,111.31z"/>
		<path class="st30" d="M45.46,117.34c-0.18-0.06-0.38-0.05-0.56,0.03c-0.5,0.23-0.75,0.63-0.85,1.15
			c-0.12,0.63,0.61,0.86,1.08,0.64c0.46-0.22,0.8-0.67,0.94-1.15C46.23,117.43,45.85,117.24,45.46,117.34z"/>
		<path class="st30" d="M46.28,114.28c-0.01-0.01-0.02-0.02-0.03-0.03c-0.52-0.44-1.38,0.52-0.95,1.02l0.03,0.03
			C45.76,115.82,46.81,114.73,46.28,114.28z"/>
		<path class="st30" d="M53.82,114.07c-0.8-1.04-2.12-0.62-3.15,0.02c-1.45-0.15-2.35,1.58-3.23,2.51c-0.69,0.73-0.96,1.6-0.93,2.58
			c0.02,0.8,1.12,1.41,1.68,1.81c0.4,0.29,0.76,1.04,1.37,1c0.8-0.05,1.61-0.45,2.05-1.16c0.25-0.41,0.49-0.84,0.73-1.26
			c1.05-0.79,1.77-1.99,1.58-3.13C54.2,115.66,54.36,114.76,53.82,114.07z"/>
		<path class="st30" d="M55.61,107.22c-0.31-0.87-1.33-0.85-2.03-0.51c-0.14,0.07-0.29,0.18-0.43,0.31
			c-0.69,0.18-1.27,0.77-1.59,1.39c-0.25,0.5-0.31,0.9-0.12,1.44c0.11,0.31,0.48,0.61,0.69,0.86c0.12,0.14,0.29,0.46,0.45,0.65
			c0.34,0.41,1.07,0.46,1.51,0.22c0.95-0.53,1.46-1.37,1.63-2.43C55.82,108.54,55.81,107.79,55.61,107.22z"/>
		<path class="st30" d="M40.91,89.93c-0.1-0.41-0.34-1.01-0.78-1.16c-1.15-0.4-1.95,0.7-2.32,1.69c-0.72,0.93-1.2,1.99-0.64,3.12
			c0.54,1.11,1.92,1.47,2.82,0.55c0.7-0.72,0.87-2.02,0.86-2.98C40.84,90.99,41,90.33,40.91,89.93z"/>
		<path class="st30" d="M39.58,95.8c-0.01-0.02-0.03-0.04-0.05-0.06c-0.01-0.06-0.04-0.11-0.09-0.14c-0.22-0.16-0.38-0.27-0.68-0.2
			c-0.46,0.1-1.27,0.97-0.7,1.41c0.11,0.08,0.21,0.16,0.34,0.2c0.34,0.12,0.67-0.06,0.91-0.3C39.51,96.51,39.77,96.07,39.58,95.8z"
			/>
		<path class="st30" d="M43,81.96c-0.14-0.06-0.27-0.08-0.41-0.08c0-0.02,0.01-0.04,0.01-0.06v-0.08c-0.04-0.09-0.03-0.1,0.04-0.01
			c0.04-0.05,0.03-0.12,0.03-0.18c0-0.1-0.14-0.06-0.17-0.01c-0.04,0.05-0.18,0.01-0.25,0.04c-0.08,0.04-0.16,0.09-0.23,0.15
			c-0.03,0.03-0.4,0.38-0.21,0.21c-0.18,0.16-0.34,0.33-0.42,0.56c-0.13,0.37,0.02,0.72,0.39,0.86c0.46,0.17,0.91-0.29,1.11-0.44
			C43.14,82.73,43.43,82.15,43,81.96z"/>
		<path class="st30" d="M54.09,75.57c-0.57-0.45-1.55,0.26-1.64,0.94c-0.06,0.46,0.15,0.76,0.43,1.1c0.11,0.13,0.23,0.26,0.36,0.38
			c0.14,0.14,0.13,0.48,0.14,0.68c0.01,0.52,0.61,0.51,0.95,0.4C55.89,78.54,56.08,74.97,54.09,75.57z"/>
		<path class="st30" d="M49.22,78.97c-0.2-0.41-0.73,0.01-0.83,0.27c-0.01,0.03-0.02,0.05-0.03,0.08c-0.14,0.37,0.17,0.61,0.51,0.47
			c0.02-0.01,0.04-0.02,0.06-0.03c0.21-0.08,0.4-0.34,0.36-0.57C49.28,79.12,49.26,79.05,49.22,78.97z"/>
		<path class="st30" d="M63.51,74.59c-0.49-0.26-1.02-0.24-1.52-0.05c-0.28-0.25-0.7-0.27-1.05-0.1c-0.82,0.41-1.45,1.21-2.02,1.92
			c-0.64,0.8-1.55,2.55-0.42,3.39c0.73,0.54,1.51,1.09,2.44,1.15c1.06,0.08,2.07-0.51,2.74-1.29
			C64.91,78.19,65.48,75.63,63.51,74.59z"/>
		<path class="st30" d="M66.13,76.95c-0.04,0.01-0.08,0.03-0.12,0.04c-0.69,0.22-1.71,1.13-1.23,1.96c0.02,0.03,0.03,0.05,0.05,0.08
			c0.36,0.63,1.12,0.48,1.62,0.13c0.33-0.23,0.53-0.52,0.68-0.89C67.41,77.62,66.95,76.7,66.13,76.95z"/>
		<path class="st30" d="M60.91,81.95c-0.19-0.14-0.35-0.22-0.59-0.22c-0.01,0-0.03,0-0.04-0.01c-0.05-0.02-0.14-0.06-0.19-0.08
			c-0.62-0.25-1.21,0.36-1.44,0.86c-0.19,0.42-0.07,0.89,0.31,1.14c0.42,0.27,0.79,0.33,1.27,0.15
			C60.76,83.59,61.59,82.44,60.91,81.95z"/>
		<path class="st30" d="M62.12,83.73c-0.72-0.15-1.52,0.32-2.1,0.97c-0.59-0.04-1.17,0.05-1.6,0.5c-0.52,0.54-0.71,1.18-0.44,1.89
			c0.22,0.56,0.51,1.1,0.74,1.67c0.01,0.52,0.09,1.01,0.52,1.38c0.62,0.55,1.58,0.12,2.12-0.32c1.11-0.9,1.74-2.13,2.03-3.5
			C63.65,85.18,63.39,83.99,62.12,83.73z"/>
		<path class="st30" d="M63.94,82.52c-0.13-0.16-0.26-0.14-0.45-0.13c0,0,0,0-0.01,0c0,0,0,0,0,0c-0.21,0.07-0.38,0.2-0.46,0.41
			c-0.07,0.21,0,0.45,0.24,0.47c0.22,0.02,0.35-0.04,0.53-0.16C63.98,82.98,64.1,82.72,63.94,82.52z"/>
		<g>
			<path class="st30" d="M69.04,93.08c0.02-0.03,0.04-0.08,0.07-0.15C69.09,92.98,69.06,93.03,69.04,93.08z"/>
			<path class="st30" d="M69.42,89.68c-0.18-0.36-0.46-0.55-0.78-0.64c-0.03-0.02-0.07-0.03-0.13-0.06
				c-0.12-0.05-0.24-0.1-0.37-0.14c-0.41-0.15-0.79-0.16-1.16-0.08c0.62-0.76,0.88-1.84,0.15-2.35c-0.38-0.26-0.79-0.3-1.18-0.19
				c-0.43-0.17-0.84,0.03-1.18,0.34c-0.67,0.63-0.65,2.23,0.09,2.8c0.15,0.12,0.32,0.18,0.49,0.21c-0.61,0.48-1.06,1.11-1.4,1.83
				c-0.03,0.06-0.06,0.12-0.08,0.19c-0.07,0.19-0.02,0.09,0.04-0.02c-0.26,0.55-0.43,1.01-0.37,1.65c0.06,0.79,0.77,1.11,1.39,1.37
				c1.07,0.45,2.03,0.52,3.05-0.16c0.35-0.23,0.65-0.62,0.87-0.97c0.06-0.13,0.12-0.25,0.18-0.38c-0.1,0.2,0.16-0.35,0.23-0.5
				c0.19-0.47,0.22-1.02,0.19-1.53C69.59,90.59,69.63,90.12,69.42,89.68z"/>
		</g>
		<path class="st30" d="M75.68,81.1c0.04,0.39,0.01-0.66-0.03-0.48c0-0.1,0.01-0.19,0-0.29c0,0.01-0.01,0.02-0.01,0.02
			c0-0.03,0-0.07,0-0.1c-0.01,0-0.01,0.01-0.02,0.02c-0.12-0.71-0.73-1.17-1.54-1.01c-0.31,0.06-0.62,0.21-0.91,0.42
			c-0.65,0.22-1.05,1.1-1.28,1.69c-0.33,0.83-0.12,1.97,0.7,2.44c0.94,0.53,2.11,0.07,2.66-0.81c0.31-0.49,0.34-0.81,0.43-1.24
			C75.72,81.55,75.7,81.31,75.68,81.1z"/>
		<path class="st30" d="M72.61,86.38c-0.25-0.5-0.81-0.66-1.32-0.55c-1.29,0.26-2.41,1.91-1.51,3.07c0.02,0.03,0.05,0.06,0.07,0.09
			c0.22,0.29,0.73,0.3,1.04,0.24c0.57-0.12,1.18-0.55,1.45-1.07c0.02-0.05,0.05-0.09,0.07-0.14C72.67,87.52,72.88,86.94,72.61,86.38
			z"/>
		<path class="st30" d="M61.82,91.72c-0.29-0.13-0.67,0-0.91,0.18c-0.28,0.22-0.52,0.5-0.56,0.86c0.33,0.04,0.66,0.07,1,0.1
			l0.18-0.08c0.01,0.09,0.03,0.17,0.04,0.26c-0.41-0.09-0.81-0.19-1.22-0.28c0,0.01,0,0.02,0,0.03c-0.09-0.13-0.17-0.26-0.29-0.37
			c-0.97-0.93-2.25-0.58-3.06,0.26c-0.26-0.01-0.52,0.08-0.78,0.21c0.85-0.53,1.49-1.43,1.3-2.41c-0.16-0.82-0.96-1.01-1.66-0.7
			c-0.5,0.23-0.9,0.64-1.1,1.12c-0.22,0.15-0.4,0.33-0.55,0.54c-0.03,0.03-0.05,0.07-0.08,0.11c-0.02,0.03-0.04,0.05-0.05,0.08
			c-0.24,0.38-0.39,0.89-0.16,1.26c0.01,0.01,0.01,0.02,0.02,0.02c0.26,0.41,0.61,0.52,1.08,0.45c0.3-0.04,0.61-0.15,0.91-0.29
			c-0.11,0.07-0.21,0.15-0.31,0.22c-1.05,0.76-1.88,2.18-1.28,3.47c0.21,0.45,0.54,0.86,0.9,1.17l0.04,0.05
			c0.01,0.01,0.03,0.04,0.05,0.07c0,0.03,0,0.05,0,0.08c-0.01,0.1,0,0.19,0.03,0.28c0.17,0.67,0.55,1.13,1.28,1.19
			c1.53,0.13,2.78-1.31,3.49-2.5c0.13-0.22,0.24-0.47,0.34-0.74c0.04,0.07,0.1,0.12,0.23,0.12c0.43,0,0.86-0.86,0.31-0.86
			c-0.14,0-0.27,0.09-0.38,0.21c0.19-0.74,0.23-1.57,0.04-2.28c0.13,0.09,0.28,0.16,0.47,0.16c0.57,0,1.05-0.48,1.14-1.02
			C62.37,92.26,62.23,91.9,61.82,91.72z"/>
		<path class="st30" d="M65.27,95.34c-1.31-0.16-2.74,0.7-3.33,1.89c-1.21,0.61-1.68,1.9-1.67,3.26c0,0.59,0.19,1.26,0.63,1.69
			c0.34,0.33,0.76,0.44,1.19,0.41c1,0.25,2.25-0.13,2.95-1.04c0.21-0.27,0.39-0.51,0.56-0.8c0.04-0.06,0.06-0.1,0.08-0.13
			c0.12-0.15,0.24-0.31,0.35-0.47c0.37-0.53,0.6-1.19,0.76-1.81C67.13,97.01,66.88,95.54,65.27,95.34z"/>
		<path class="st30" d="M59.88,101.93c-0.03-0.24-0.18-0.29-0.36-0.24c-0.09,0-0.17,0.02-0.26,0.06c-0.3,0.12-0.57,0.63-0.21,0.83
			c0.11,0.06,0.2,0.04,0.32,0.03c0.29-0.03,0.54-0.38,0.51-0.66C59.88,101.94,59.88,101.93,59.88,101.93z"/>
		<path class="st30" d="M66.45,108.66c-0.65-0.43-1.32-0.39-1.95-0.1c-0.6-0.47-1.51,0.3-1.83,0.74c-0.27,0.37-0.43,0.79-0.63,1.2
			c-0.06,0.13-0.34,0.53-0.02,0.25c-0.22,0.19-0.43,0.38-0.63,0.58c-0.24,0.24-0.42,0.53-0.54,0.84c-0.01-0.03-0.02-0.06-0.03-0.09
			c-0.18-0.24-0.22-0.29-0.11-0.15c-0.1-0.14-0.15-0.23-0.28-0.31c-0.24-0.16-0.42-0.23-0.71-0.26c-0.54-0.04-1.06,0.24-1.5,0.52
			c-0.68,0.43-1.64,1.55-1.57,2.47c-0.12,0.17-0.22,0.35-0.29,0.53c-0.17,0.46-0.18,0.94,0.04,1.38c0.14,0.27,0.37,0.4,0.55,0.62
			c0.4,0.48,0.83,0.86,1.49,0.92c1.18,0.11,2.22-1.03,2.43-2.09c0.09-0.47,0.15-1,0.16-1.51c0.42,0.62,1.05,1.31,1.81,1.48
			c1.19,0.27,2.26-0.49,2.78-1.53c0.47-0.93,0.72-1.93,1.01-2.92C66.82,110.57,67.2,109.15,66.45,108.66z"/>
		<path class="st30" d="M59.59,107.58c-0.28-0.81-0.98-0.96-1.62-0.73c-0.26-0.15-0.63-0.14-0.99,0.12
			c-0.35,0.26-0.59,0.67-0.76,1.07c-0.07,0.16-0.35,0.6-0.46,0.95c-0.28,0.89,0.03,1.69,0.8,2.13c0.24,0.31,0.54,0.56,0.95,0.64
			c0.65,0.12,1.42-0.17,1.84-0.69c0.46-0.56,0.78-1.21,0.69-1.96C59.99,108.53,59.76,108.06,59.59,107.58z"/>
		<path class="st30" d="M70.49,101.29c-0.2-0.37-0.62-0.53-1.02-0.43c-0.03,0.01-0.06,0.01-0.09,0.02
			c-0.48,0.12-0.91,0.44-1.17,0.86c-0.74,0.04-1.32,1.02-1.27,1.71c0.06,0.75,0.59,1.59,1.44,1.37c0.79-0.2,1.38-0.78,1.79-1.47
			C70.52,102.78,70.84,101.93,70.49,101.29z"/>
		<path class="st30" d="M115.36,63.13c-0.08-0.3-0.18-0.53-0.41-0.75c-0.39-0.38-0.99-0.22-1.43-0.05c-0.55,0.21-1.2,1-1.31,1.72
			c-0.24,0.33-0.38,0.74-0.46,1.12c-0.11,0.5,0.1,1.31,0.64,1.49c0.76,0.25,1.41-0.21,1.94-0.69
			C115.01,65.35,115.6,64.05,115.36,63.13z"/>
		<g>
			<path class="st30" d="M114.33,60.78c0,0.01,0.01,0.02,0,0.04C114.34,60.72,114.33,60.73,114.33,60.78z"/>
			<path class="st30" d="M114.16,60.12c-0.17-0.18-0.42-0.23-0.75-0.17c-0.35,0.06-0.66,0.32-0.83,0.61
				c-0.17,0.28-0.31,0.81,0.01,1.06c0.54,0.41,1.26,0.18,1.6-0.4c0.04-0.06,0.07-0.12,0.09-0.19c0,0,0.02-0.18,0.04-0.26
				c0-0.16-0.03-0.3-0.1-0.43C114.24,60.27,114.23,60.19,114.16,60.12z"/>
		</g>
		<path class="st30" d="M108.35,69.05c-0.73-0.05-1.39,0.35-1.82,0.91c-0.1,0.07-0.18,0.16-0.27,0.25c-0.01-0.1-0.07-0.19-0.2-0.23
			c-0.08-0.02-0.23-0.13-0.11-0.03c-0.63-0.42-1.54,0.71-0.85,1.11c0.21,0.12,0.39,0.08,0.55-0.01c-0.26,0.62-0.21,1.37-0.19,2.03
			c-0.05,0.16-0.02,0.25,0.09,0.28c-0.03,0.19-0.05,0.39-0.02,0.58c0.08,0.53,0.52,0.89,1.04,0.92c1.9,0.12,2.75-2.61,2.83-4.09
			C109.44,70.04,109.26,69.11,108.35,69.05z"/>
		<path class="st30" d="M108.86,67.41c-0.06-0.11-0.2-0.31-0.34-0.31c-0.24,0-0.46,0.16-0.53,0.4c-0.03,0.11-0.05,0.24,0.05,0.32
			c0.06,0.06,0.12,0.09,0.2,0.13c0.19,0.1,0.39-0.09,0.45-0.29C108.8,67.64,108.92,67.52,108.86,67.41z"/>
		<path class="st30" d="M109.57,61.22c-0.2-0.74-0.77-0.95-1.31-0.82c-0.04-0.04-0.09-0.06-0.15-0.07
			c-1.34-0.16-1.84,1.21-2.15,2.28c-0.17,0.57-0.25,1.31,0.13,1.81c0.35,0.46,1.19,0.63,1.69,0.37c0.67-0.34,1.06-0.91,1.38-1.57
			C109.42,62.66,109.73,61.83,109.57,61.22z"/>
		<path class="st30" d="M110.68,54.37c-0.18-0.17-0.5-0.13-0.68,0.02c-0.24,0.2-0.39,0.41-0.42,0.73c-0.02,0.27,0.11,0.5,0.39,0.52
			c0.16,0.01,0.29-0.02,0.43-0.1c0.23-0.13,0.49-0.39,0.43-0.69C110.81,54.69,110.83,54.52,110.68,54.37z"/>
		<path class="st30" d="M116.55,70.66c-0.55-0.86-2-0.49-2.74-0.17c-0.27,0.12-0.54,0.27-0.79,0.46c-0.04-0.22-0.13-0.43-0.3-0.59
			c-0.64-0.59-1.64-0.1-2.13,0.43c-0.36,0.39-0.52,0.81-0.56,1.29c-0.23,0.4-0.35,0.84-0.23,1.26c0.18,0.62,0.59,0.9,1.24,0.8
			c0.3-0.05,0.55-0.16,0.78-0.32c0.13,0.28,0.3,0.57,0.43,0.87c0.19,0.42,0.34,0.99,0.83,1.17c0.54,0.21,1.1,0.1,1.62-0.11
			c1.01-0.39,2.24-1.44,2.44-2.55C117.29,72.42,116.98,71.32,116.55,70.66z M115.44,73.32c-0.19,0.14-0.44,0.19-0.68,0.23
			c-0.02-0.04-0.05-0.09-0.07-0.13c0.31-0.16,0.57-0.35,0.73-0.54c0.03-0.04,0.05-0.08,0.06-0.12c0,0,0,0.01,0,0.01
			c0.03,0.13,0.06,0.26,0.08,0.4c0.01,0.04,0.01,0.06,0.02,0.08C115.55,73.25,115.51,73.27,115.44,73.32z"/>
		<g>
			<path class="st30" d="M122.09,69.97c0,0.01,0,0.02,0,0.02c-0.02-0.09-0.04-0.17-0.07-0.26c-0.04-0.1-0.12-0.15-0.21-0.17
				c-0.19-0.09-0.45-0.04-0.61,0.03c-0.27,0.12-0.44,0.34-0.57,0.59c-0.03,0.02-0.06,0.05-0.09,0.07c-0.36,0.31-0.8,0.96-0.35,1.4
				c0.19,0.19,0.42,0.18,0.67,0.14c0.32-0.05,0.57-0.28,0.73-0.56c0.01-0.01,0.01-0.01,0.01-0.01c0.1-0.1,0.21-0.22,0.28-0.34
				C122.03,70.61,122.18,70.28,122.09,69.97z"/>
			<path class="st30" d="M121.58,71.22C121.58,71.22,121.58,71.22,121.58,71.22C121.6,71.2,121.6,71.21,121.58,71.22z"/>
		</g>
		<path class="st30" d="M120.91,73.02c-0.57,0-1.12,1.12-0.41,1.12C121.07,74.14,121.62,73.02,120.91,73.02z"/>
		<path class="st30" d="M122.75,66c0-0.01,0-0.01,0-0.02c-0.01-0.39-0.46-0.4-0.72-0.39c-0.16,0.01-0.26,0.02-0.34,0.02
			c-0.04,0-0.08,0-0.12,0c-0.01,0,0,0-0.01,0c-0.99-0.41-1.94,0.82-1.9,1.7c0.05,0.96,0.88,1.56,1.8,1.36
			c0.6-0.13,1.19-0.52,1.51-1.04C123.32,67.06,123.33,66.38,122.75,66z"/>
		<path class="st30" d="M120.99,55.3c-0.1-0.62-0.42-1.35-0.97-1.68c-0.4-0.24-0.82-0.16-1.21,0.05c-1.28-0.18-2.59,0.99-2.93,2.19
			c-0.23,0.82,0.07,1.39,0.69,1.93c0.58,0.5,1.29,0.92,2.05,1.01C120.49,59.01,121.21,56.76,120.99,55.3z"/>
		<path class="st30" d="M122.84,40.3c-0.04,0.01-0.07,0.03-0.11,0.05c-0.08-0.1-0.17-0.19-0.3-0.26c-0.26-0.14-0.61,0.08-0.81,0.22
			c-0.29,0.2-0.46,0.52-0.59,0.84c-0.3,0.72-0.24,2.33,0.63,2.68c1.25,0.51,2.24-1.33,2.41-2.32
			C124.19,40.77,123.58,40.13,122.84,40.3z"/>
		<path class="st30" d="M123.72,36.51c-0.28-0.29-1.09,0.32-0.69,0.73c0.34,0.35,0.71,0.08,0.94-0.25
			C124.18,36.71,123.97,36.49,123.72,36.51z"/>
		<path class="st30" d="M123.54,31.03c-0.09-0.21-0.29-0.45-0.52-0.51c-0.13-0.04-0.64-0.18-0.32-0.07
			c-1.04-0.36-2.42,0.49-2.88,1.42c-0.08,0.16-0.16,0.33-0.23,0.51c-0.39,0.46-0.63,1.02-0.55,1.68c0.11,0.97,0.94,1.88,1.97,1.42
			c1.23-0.55,2.08-1.82,2.42-3.07C123.63,31.97,123.74,31.52,123.54,31.03z"/>
		<path class="st30" d="M127.71,31.87c0.06-0.14-0.03-0.26-0.17-0.24c-0.02-0.02-0.05-0.05-0.07-0.07c-0.34-0.36-0.83,0.23-0.9,0.53
			l-0.02,0.1c-0.04,0.16,0.05,0.38,0.22,0.43c0.34,0.1,0.58-0.03,0.84-0.26c0.13-0.11,0.18-0.32,0.12-0.47
			C127.71,31.88,127.71,31.88,127.71,31.87z"/>
		<path class="st30" d="M130.03,29.38c-0.04-0.01-0.08-0.04-0.12-0.06c0.04-0.14-0.1-0.24-0.25-0.14c-0.06,0.04-0.11,0.07-0.17,0.11
			c-0.1,0.06-0.2,0.23-0.13,0.35c0.1,0.18,0.22,0.22,0.42,0.24C130,29.9,130.31,29.47,130.03,29.38z"/>
		<path class="st30" d="M128.29,38.69c0.01,0.04,0.02,0.09,0.04,0.13c0.13,0.48,0.67,0.06,0.73-0.24c0.01-0.05,0.02-0.1,0.04-0.16
			C129.23,37.86,128.14,38.13,128.29,38.69z"/>
		<path class="st30" d="M120.3,59.9c-0.21-0.82-1.02-1.14-1.78-0.72c-0.33,0.18-0.61,0.42-0.83,0.69c-0.03,0.01-0.06,0.02-0.08,0.03
			c-0.71,0.36-1.21,1.08-1.15,1.9c0.05,0.63,0.68,0.89,1.2,0.99c1.3,0.26,2.41-0.6,2.64-1.9C120.37,60.59,120.38,60.19,120.3,59.9z"
			/>
		<path class="st30" d="M122.44,58.72c-0.15-0.27-0.57,0.11-0.54,0.34c0,0.03,0.01,0.06,0.01,0.09c0.01,0.1,0.09,0.17,0.19,0.17
			c0.27,0.02,0.5-0.21,0.45-0.49C122.53,58.75,122.49,58.73,122.44,58.72z"/>
		<path class="st30" d="M123.39,103.03c-0.61-0.57-1.42-0.41-2.12-0.16c-0.43,0.15-0.82,0.47-1.13,0.86
			c-0.25,0.26-0.46,0.56-0.62,0.88c-0.22,0.45-0.41,0.9-0.45,1.41c-0.03,0.44,0.1,0.77,0.22,1.18c0.26,0.84,0.98,1.31,1.86,1.16
			c1.18-0.2,1.88-1.19,2.35-2.2c0.29-0.63,0.44-1.35,0.4-2.04C123.88,103.72,123.7,103.32,123.39,103.03z"/>
		<path class="st30" d="M128.72,101.8c-0.18-0.36-0.6-0.49-0.97-0.41c-0.03,0.01-0.06,0.01-0.09,0.02
			c-0.86,0.19-1.78,1.37-1.07,2.18c0.02,0.02,0.04,0.04,0.05,0.06c0.36,0.41,1.07,0.17,1.43-0.09c0.2-0.14,0.39-0.33,0.51-0.55
			C128.77,102.64,128.92,102.2,128.72,101.8z"/>
		<path class="st30" d="M126.51,111.18c-0.63-0.56-1.36-0.39-1.97,0.05c-0.05-0.01-0.1-0.03-0.16-0.03
			c-1.17-0.13-1.85,1.5-1.33,2.39c0.72,1.24,2.51,0.68,3.27-0.21C126.8,112.81,127.17,111.77,126.51,111.18z"/>
		<path class="st30" d="M128.49,110.22c-0.01-0.02-0.02-0.03-0.02-0.05c-0.02-0.03-0.04-0.04-0.06-0.06
			c-0.18-0.43-1.21,0.11-0.9,0.65c0.17,0.3,0.49,0.31,0.75,0.1C128.42,110.72,128.61,110.45,128.49,110.22z"/>
		<path class="st30" d="M123.72,119.79c-0.02-0.17-0.04-0.14-0.05,0.09c0.01-0.14,0.01-0.27-0.01-0.41
			c-0.09-0.97-1.07-1.54-1.97-1.29c-0.72,0.2-1.54,0.93-1.78,1.71c-0.17,0.3-0.26,0.64-0.24,1c0.05,0.81,0.62,1.08,1.2,1.49
			c0.32,0.23,0.75,0.48,1.16,0.36c0.6-0.18,0.97-0.52,1.32-1.02c0.23-0.34,0.39-0.82,0.41-1.24
			C123.77,120.25,123.76,120.02,123.72,119.79z"/>
		<path class="st30" d="M126.51,123.34c0.17-0.11,0.32-0.23,0.42-0.35c0.53-0.61,1.29-1.89,0.38-2.54
			c-0.43-0.31-0.94-0.26-1.39-0.04c-0.03-0.04-0.05-0.08-0.09-0.11c0.01,0.04,0.03,0.09,0.04,0.13c0,0-0.01,0-0.01,0h0
			c-0.3,0.14-0.6,0.29-0.9,0.43c0,0.08,0.01,0.16,0.04,0.23c-0.38,0.43-0.63,1.03-0.61,1.56c-0.19,0.04-0.39,0.1-0.57,0.2
			c-1.27,0.68-1.65,1.99-1.54,3.34c0.02,0.2,0.06,0.41,0.1,0.61c0.01,0.06,0.09,0.34,0.12,0.47c0.04,0.15,0.07,0.31,0.1,0.46
			c-0.15,0.33-0.33,0.66-0.27,1.08c0.08,0.6,0.47,0.98,1.08,1.02c1.2,0.07,2.39-1.1,2.88-2.07c0.52-1.03,1.21-2.67,0.67-3.81
			C126.84,123.73,126.69,123.53,126.51,123.34z"/>
		<path class="st30" d="M133.1,119.08c-0.6-0.5-1.47-0.5-2.2-0.38c-0.85,0.13-1.74,0.78-2.29,1.4c-0.44,0.5-0.92,1.3-0.77,2
			c0.03,0.16,0.08,0.29,0.14,0.41c0.06,0.36,0.23,0.71,0.53,1c0.67,0.65,1.94,0.55,2.73,0.19c0.83-0.37,1.63-1.18,2.07-1.96
			C133.78,120.92,133.9,119.75,133.1,119.08z"/>
		<path class="st30" d="M132.06,116.38c-0.02-0.08-0.07-0.15-0.16-0.15c-0.05,0-0.1,0-0.15,0c-0.42-0.01-1.07,0.65-0.64,1.04
			c0.4,0.37,1.07-0.29,0.99-0.72C132.09,116.49,132.07,116.44,132.06,116.38z"/>
		<path class="st30" d="M129.64,115.62c-0.58-0.41-1.58,0.45-1.23,1.09c0.1,0.17,0.2,0.26,0.37,0.35c0.54,0.28,1.13-0.5,1.09-0.97
			C129.86,115.89,129.81,115.74,129.64,115.62z"/>
		<path class="st30" d="M135.84,108.73c-0.46-0.39-1-0.07-1.36,0.27c-0.34,0.32-0.63,0.93-0.44,1.39c0.26,0.64,1.05,0.31,1.38-0.07
			c0.08-0.1,0.16-0.23,0.19-0.37C135.95,109.65,136.21,109.04,135.84,108.73z"/>
		<path class="st30" d="M141.04,106.42c-0.04-0.07-0.08-0.14-0.12-0.19c0.12-0.11,0.22-0.25,0.25-0.42
			c0.02-0.12-0.11-0.19-0.21-0.14c-0.06,0.03-0.25-0.12-0.31-0.15c-0.18-0.09-0.32-0.13-0.52-0.13c-0.45,0.02-0.84,0.25-1.16,0.56
			c-0.61,0.58-0.89,1.37-0.84,2.2c0.02,0.3,0.1,0.65,0.27,0.89c0.34,0.48,0.8,0.51,1.33,0.34
			C140.73,109.04,141.54,107.42,141.04,106.42z"/>
		<path class="st30" d="M144.32,110.8c-0.23-0.37-0.62-0.54-1.05-0.44c-0.23,0.05-0.45,0.16-0.65,0.29c-0.5-0.03-1.12,0.38-1.33,0.8
			c-0.29,0.59-0.35,1.1-0.04,1.69c0.17,0.31,0.38,0.65,0.66,0.86c0.66,0.49,1.45,0.19,1.98-0.36
			C144.57,112.94,144.85,111.67,144.32,110.8z"/>
		<path class="st30" d="M139.76,117.09c-0.69-0.28-1.35-0.02-1.9,0.42c-0.21,0.07-0.39,0.16-0.51,0.24c-0.6,0.43-0.95,1.04-1.1,1.76
			c-0.12,0.61,0.24,1.48,0.88,1.63c1.25,0.3,2.35-0.58,3.02-1.55C140.66,118.84,140.77,117.49,139.76,117.09z"/>
		<path class="st30" d="M118.62,111.47c-0.42-0.26-1.1,0.04-1.44,0.29c-0.46,0.33-0.82,0.86-0.89,1.43
			c-0.06,0.46,0.12,0.95,0.58,1.13c0.48,0.19,1.04,0,1.44-0.29C119.1,113.46,119.84,112.22,118.62,111.47z"/>
		<path class="st30" d="M130.07,104.86c-0.05-0.13-0.12-0.25-0.2-0.37c-0.35-0.57-1.34,0.42-0.73,0.79
			c0.12,0.07,0.23,0.14,0.36,0.19C129.84,105.59,130.19,105.16,130.07,104.86z"/>
		<g>
			<path class="st30" d="M79.87,111.92c-0.37-0.58-0.77-0.98-1.51-0.98c-1.52,0-3.12,1.26-3.64,2.63c-0.05,0.13-0.09,0.28-0.11,0.42
				c-0.28,0.17-0.54,0.37-0.77,0.61c-0.48,0.51-0.86,1.32-0.77,2.04c0.09,0.69,0.54,1.1,1.11,1.43c1.27,0.73,2.69,0.62,3.76-0.46
				c0.53-0.54,0.91-1.19,1.22-1.87c0.28-0.61,0.64-1.32,0.73-2c-0.09,0.67,0.11-0.63,0.12-0.57
				C80.06,112.79,80.09,112.25,79.87,111.92z"/>
			<path class="st30" d="M80.01,113.22c0-0.03,0-0.04,0-0.05C80.02,113.18,80.02,113.2,80.01,113.22z"/>
		</g>
		<path class="st30" d="M80.76,111.21c0,0.07,0.02,0.13,0.04,0.19c0.07,0.25,0.18,0.35,0.44,0.41c0.02,0,0.04,0.01,0.06,0.01
			c0.42,0.08,0.85-0.43,0.89-0.8c0.01-0.1,0-0.19,0.01-0.29C82.3,109.65,80.63,110.28,80.76,111.21z"/>
		<path class="st30" d="M75.82,122.1c-0.07-0.21-0.06-0.2,0.02,0.04c0-0.12-0.02-0.23-0.05-0.34c-0.13-0.59-0.35-1.17-0.94-1.45
			c-0.53-0.25-1.12-0.12-1.61,0.19c-0.54-0.18-1.15-0.25-1.53-0.21c-1.33,0.15-2.08,1.4-2.31,2.59c-0.11,0.56-0.13,1.2,0.15,1.72
			c0.3,0.53,1.14,1.04,1.69,1.11c0.3,0.04,0.82,0.04,0.99,0.08c-0.08-0.17,0.02-0.12,0.31,0.15c0.16,0.1,0.33,0.15,0.52,0.15
			c0.54,0.09,1.15-0.14,1.58-0.45c0.74-0.54,1.35-1.5,1.35-2.43C76,122.8,75.96,122.53,75.82,122.1z"/>
		<path class="st30" d="M68.74,126.19c-0.05-0.06-0.11-0.11-0.2-0.15c-0.35-0.15-0.7,0.02-1,0.21c-0.53,0.34-0.69,0.98-0.65,1.57
			c0.03,0.39,0.35,0.6,0.7,0.65l0.14,0.02c0.57,0.08,1.04-0.4,1.35-0.8c0.19-0.25,0.25-0.58,0.22-0.88
			C69.25,126.44,69.02,126.26,68.74,126.19z"/>
		<path class="st30" d="M65.12,122.84c-0.85-0.49-1.99-0.41-2.83,0.07c-0.45,0.26-0.96,0.7-1.3,1.22c-0.48,0.53-0.71,1.3-0.42,1.93
			c0.39,0.86,1.37,1.54,2.27,1.7c0.51,0.09,1.08-0.22,1.52-0.45c0.62-0.33,1.15-0.8,1.5-1.42
			C66.49,124.77,66.26,123.51,65.12,122.84z"/>
		<g>
			<path class="st30" d="M54.87,124.66c0,0,0-0.01-0.01-0.02C54.68,124.5,54.77,124.58,54.87,124.66z"/>
			<path class="st30" d="M55.15,125c-0.04-0.08-0.09-0.16-0.15-0.23c-0.02-0.02-0.07-0.07-0.13-0.12c0.05,0.09,0.09,0.18,0.14,0.27
				c0,0.02-0.01,0.03-0.01,0.05c-0.11-0.5-0.57-0.56-1.06-0.24c-0.44,0.28-0.81,1.17-0.18,1.46c0.56,0.25,1.18-0.12,1.4-0.66
				C55.23,125.35,55.21,125.19,55.15,125z"/>
		</g>
		<path class="st30" d="M83.51,97.67c-0.5-0.06-1.02,0.07-1.46,0.33c-0.71-0.14-1.36,0.1-2.04,0.33c-1.18,0.4-2.02,1.53-1.65,2.81
			c0.25,0.87,0.97,1.77,1.81,2.17c2.07,0.98,4.07-1.33,4.61-3.13C85.08,99.15,84.77,97.81,83.51,97.67z"/>
		<path class="st30" d="M81.01,90.3c0.01,0.01,0.01,0.02,0.02,0.03c0-0.02-0.01-0.03-0.01-0.05c-0.2-0.78-1.4,0.02-1.09,0.64
			c0.01,0.01,0.01,0.03,0.02,0.04c0.09,0.18,0.27,0.21,0.45,0.19C80.8,91.1,81.12,90.68,81.01,90.3z"/>
		<path class="st30" d="M76.64,96.32c-0.01-0.03-0.02-0.05-0.04-0.08c-0.27-0.59-1.06,0.02-1.19,0.39
			c-0.09,0.24-0.06,0.56,0.21,0.67c0.29,0.12,0.58-0.07,0.78-0.26c0.02-0.02,0.05-0.05,0.07-0.07
			C76.64,96.82,76.74,96.53,76.64,96.32z"/>
		<g>
			<path class="st30" d="M73.99,90.37c0-0.01,0.01-0.01,0.01-0.02C74.05,90.23,74.08,90.16,73.99,90.37z"/>
			<path class="st30" d="M77.64,89.78c-0.17-0.64-0.7-1.41-1.46-1.26c-0.26,0.05-0.5,0.19-0.7,0.38c-0.33,0.06-0.66,0.28-0.92,0.57
				c-0.23,0.27-0.41,0.56-0.56,0.88c-0.04,0.1-0.11,0.25-0.12,0.31c-0.07,0.27-0.11,0.52-0.06,0.8c0.07,0.34,0.27,0.61,0.51,0.85
				c0.1,0.1,0.21,0.18,0.32,0.26c0.19,0.14,0.32,0.32,0.54,0.42c0.86,0.36,1.77-0.31,2.16-1.06C77.7,91.26,77.84,90.52,77.64,89.78z
				"/>
		</g>
		<path class="st30" d="M73.11,100.28c0.01,0.03,0.02,0.05,0.04,0.08c0.09,0.2,0.35-0.01,0.4-0.13c0.01-0.04,0.03-0.07,0.04-0.11
			C73.74,99.68,72.92,99.88,73.11,100.28z"/>
		<path class="st30" d="M72.27,112.89c-0.1-0.16-0.19-0.29-0.39-0.33c-0.76-0.17-1.29,0.74-1.08,1.2c-0.01,0-0.02,0-0.03,0
			c0.01,0.02,0.03,0.05,0.04,0.07c0.08,0.16,0.24,0.26,0.42,0.27c0.04,0,0.08,0,0.11,0c0.12,0,0.25-0.04,0.38-0.1
			c0.07-0.01,0.14-0.04,0.2-0.11c0,0,0-0.01,0-0.01C72.25,113.63,72.49,113.23,72.27,112.89z"/>
		<path class="st30" d="M68.01,118.58c-0.07-0.35-0.61-0.06-0.6,0.28c0,0.1,0,0.19,0.01,0.29c0,0.09,0.1,0.18,0.19,0.17
			c0.34-0.02,0.59-0.22,0.55-0.59C68.14,118.63,68.08,118.59,68.01,118.58z"/>
	</g>
</g>
</svg>
