<?xml version="1.0" encoding="utf-8"?>
<!-- Generator: Adobe Illustrator 25.4.8, SVG Export Plug-In . SVG Version: 6.00 Build 0)  -->
<svg version="1.1" id="Layer_1" xmlns="http://www.w3.org/2000/svg" xmlns:xlink="http://www.w3.org/1999/xlink" x="0px" y="0px"
	 viewBox="0 0 166.61 200.61" style="enable-background:new 0 0 166.61 200.61;" xml:space="preserve">
<style type="text/css">
	.st0{clip-path:url(#SVGID_00000052825849960016956300000002602063743059745178_);}
	.st1{opacity:0.18;fill:url(#SVGID_00000172414266597951700580000010650602701616131231_);}
	.st2{fill:#F1AC96;}
	.st3{fill:#FBC3AD;}
	.st4{fill:#58595B;}
	.st5{fill:#414042;}
	.st6{fill:#5F74B2;}
</style>
<g>
	<g>
		<defs>
			<circle id="SVGID_1_" cx="83.06" cy="117.21" r="83.31"/>
		</defs>
		<clipPath id="SVGID_00000097461002623194826670000000408128323945871502_">
			<use xlink:href="#SVGID_1_"  style="overflow:visible;"/>
		</clipPath>
		<g style="clip-path:url(#SVGID_00000097461002623194826670000000408128323945871502_);">
			
				<linearGradient id="SVGID_00000171685296470937665210000003253221725942600583_" gradientUnits="userSpaceOnUse" x1="-16.2479" y1="95.211" x2="180.3643" y2="95.211">
				<stop  offset="0" style="stop-color:#5F74B1"/>
				<stop  offset="0.2466" style="stop-color:#7A90D2"/>
				<stop  offset="0.4903" style="stop-color:#8FA6EB"/>
				<stop  offset="0.7125" style="stop-color:#9CB3FA"/>
				<stop  offset="0.8936" style="stop-color:#A0B7FF"/>
			</linearGradient>
			
				<circle style="opacity:0.18;fill:url(#SVGID_00000171685296470937665210000003253221725942600583_);" cx="82.06" cy="95.21" r="98.31"/>
			<g>
				<path class="st2" d="M169.51,211.52H-5.22c-2.21,0-4-1.79-4-4v-74.4c0-2.21,1.79-4,4-4h174.73c2.21,0,4,1.79,4,4v74.4
					C173.51,209.73,171.72,211.52,169.51,211.52z"/>
			</g>
			<g>
				<path class="st3" d="M173.51,148.52c-15.23,0-15.23,13.84-30.46,13.84s-15.23-13.84-30.46-13.84
					c-15.23,0-15.23,13.84-30.45,13.84c-15.23,0-15.23-13.84-30.46-13.84c-15.23,0-15.23,13.84-30.45,13.84
					c-15.23,0-15.23-13.84-30.45-13.84v-15.68c0-2.06,1.67-3.72,3.72-3.72h175.29c2.06,0,3.72,1.67,3.72,3.72V148.52z"/>
			</g>
			<g>
				<g>
					<path class="st4" d="M110.46,55.72c1.7-3.05-2.6-5.85-4.69-3.06c-28.46,37.97-42.98,78.02-43.26,120.52
						c0,6.61,4.98,11.97,11.12,11.97c5.37,0,9.86-4.1,10.9-9.56c0.23-1.21,0.22-2.45,0.08-3.68
						C80.28,133.15,88.96,94.21,110.46,55.72z"/>
				</g>
				<g>
					<path class="st5" d="M105.77,52.66c-1.06,1.41-2.09,2.83-3.11,4.25c-19.18,36.58-26.81,73.54-22.7,110.35
						c0.14,1.22,0.15,2.47-0.08,3.68c-1.04,5.45-5.52,9.56-10.9,9.56c-1.77,0-3.44-0.46-4.92-1.25c1.93,3.53,5.49,5.9,9.57,5.9
						c5.37,0,9.86-4.1,10.9-9.56c0.23-1.21,0.22-2.45,0.08-3.68c-4.33-38.77,4.36-77.71,25.85-116.19
						C112.16,52.68,107.86,49.87,105.77,52.66z"/>
				</g>
			</g>
			<g>
				<g>
					<path class="st4" d="M180.46,55.72c1.7-3.05-2.6-5.85-4.69-3.06c-28.46,37.97-42.98,78.02-43.26,120.52
						c0,6.61,4.98,11.97,11.12,11.97c5.37,0,9.86-4.1,10.9-9.56c0.23-1.21,0.22-2.45,0.08-3.68
						C150.28,133.15,158.96,94.21,180.46,55.72z"/>
				</g>
				<g>
					<path class="st5" d="M175.77,52.66c-1.06,1.41-2.09,2.83-3.11,4.25c-19.18,36.58-26.81,73.54-22.7,110.35
						c0.14,1.22,0.15,2.47-0.08,3.68c-1.04,5.45-5.52,9.56-10.9,9.56c-1.77,0-3.44-0.46-4.92-1.25c1.93,3.53,5.49,5.9,9.57,5.9
						c5.37,0,9.86-4.1,10.9-9.56c0.23-1.21,0.22-2.45,0.08-3.68c-4.33-38.77,4.36-77.71,25.85-116.19
						C182.16,52.68,177.86,49.87,175.77,52.66z"/>
				</g>
			</g>
			<g>
				<g>
					<path class="st4" d="M32.65,55.72c1.7-3.05-2.6-5.85-4.69-3.06C-0.5,90.63-15.02,130.68-15.3,173.18
						c0,6.61,4.98,11.97,11.12,11.97c5.37,0,9.86-4.1,10.9-9.56c0.23-1.21,0.22-2.45,0.08-3.68C2.47,133.15,11.15,94.21,32.65,55.72
						z"/>
				</g>
				<g>
					<path class="st5" d="M27.95,52.66c-1.06,1.41-2.09,2.83-3.11,4.25C5.66,93.5-1.97,130.46,2.14,167.27
						c0.14,1.22,0.15,2.47-0.08,3.68c-1.04,5.45-5.52,9.56-10.9,9.56c-1.77,0-3.44-0.46-4.92-1.25c1.93,3.53,5.49,5.9,9.57,5.9
						c5.37,0,9.86-4.1,10.9-9.56c0.23-1.21,0.22-2.45,0.08-3.68c-4.33-38.77,4.36-77.71,25.85-116.19
						C34.35,52.68,30.05,49.87,27.95,52.66z"/>
				</g>
			</g>
		</g>
	</g>
	<g>
		<g>
			<g>
				<g>
					<path class="st6" d="M141.17,33.44l0,59.54c0,0.89-0.72,1.62-1.62,1.62l-12.31,0c-0.89,0-1.62-0.72-1.62-1.62l0-59.54
						L141.17,33.44z"/>
				</g>
			</g>
		</g>
		<g>
			<g>
				<g>
					<path class="st6" d="M147.84,33.44l-28.86,0c-1.46,0-2.37-1.59-1.63-2.85l14.43-24.47c0.73-1.24,2.52-1.24,3.25,0l14.43,24.47
						C150.2,31.85,149.3,33.44,147.84,33.44z"/>
				</g>
			</g>
		</g>
	</g>
</g>
</svg>
