<?xml version="1.0" encoding="utf-8"?>
<!-- Generator: Adobe Illustrator 28.2.0, SVG Export Plug-In . SVG Version: 6.00 Build 0)  -->
<svg version="1.1" id="Layer_1" xmlns="http://www.w3.org/2000/svg" xmlns:xlink="http://www.w3.org/1999/xlink" x="0px" y="0px"
	 viewBox="0 0 67.4 40.6" style="enable-background:new 0 0 67.4 40.6;" xml:space="preserve">
<style type="text/css">
	.st0{fill:#ffffff;}
</style>
<g>
	<g>
		<path class="st0" d="M1.7,4.3h17.8v3.1H5.3v8.6h13.5v3.2H5.3v9.5h15l-0.6,3.1h-18V4.3z"/>
		<path class="st0" d="M24.2,11.9h3.3v3c1-1.3,2.1-2.2,3.2-2.8c1.2-0.6,2.4-0.8,3.7-0.8c2.3,0,3.9,0.6,5,1.9c1.1,1.2,1.6,3,1.6,5.4
			v13.3h-3.4V19.2c0-1.9-0.3-3.2-1-3.9c-0.7-0.8-1.7-1.1-3.1-1.1c-0.7,0-1.5,0.1-2.2,0.4c-0.7,0.3-1.4,0.7-2,1.2
			c-0.6,0.6-1.1,1.2-1.5,1.8c-0.3,0.6-0.5,1.4-0.5,2.4v11.8h-3.4V11.9z"/>
		<path class="st0" d="M49.6,33.7c0.3,1.2,0.8,2.1,1.6,2.6c0.8,0.5,2.1,0.8,3.8,0.8c2.1,0,3.6-0.6,4.4-1.8c0.8-1.2,1.2-2.9,1.2-5.1
			v-2.1c-0.8,1.1-1.7,1.9-2.8,2.5s-2.4,0.9-3.8,0.9c-1.4,0-2.7-0.3-3.8-0.8c-1.1-0.5-1.9-1.2-2.6-2.2c-0.7-0.9-1.2-2-1.6-3.2
			s-0.5-2.5-0.5-3.9c0-1.5,0.2-2.9,0.6-4.1c0.4-1.2,1-2.3,1.8-3.2c0.8-0.9,1.7-1.6,2.8-2.1c1.1-0.5,2.3-0.7,3.7-0.7
			c1.1,0,2.2,0.2,3.3,0.7c1.1,0.5,2.1,1.3,3,2.5v-2.5h3.3v16.7c0,1.7-0.1,3.3-0.4,4.6c-0.2,1.4-0.7,2.5-1.3,3.5
			c-0.7,1-1.6,1.7-2.7,2.2c-1.2,0.5-2.6,0.8-4.5,0.8c-2.6,0-4.7-0.5-6.2-1.4c-1.5-0.9-2.4-2.5-2.6-4.6H49.6z M60.7,21.1
			c0-1.3-0.2-2.4-0.5-3.3c-0.3-0.9-0.7-1.6-1.3-2.2c-0.5-0.6-1.2-1-1.9-1.2c-0.7-0.2-1.4-0.4-2.2-0.4c-0.8,0-1.6,0.1-2.3,0.4
			c-0.7,0.3-1.3,0.7-1.9,1.3c-0.5,0.6-0.9,1.3-1.2,2.3c-0.3,0.9-0.4,2-0.4,3.4c0,1.3,0.2,2.5,0.5,3.4c0.3,0.9,0.7,1.7,1.3,2.2
			c0.5,0.6,1.1,1,1.8,1.2c0.7,0.3,1.4,0.4,2.1,0.4c0.9,0,1.7-0.1,2.4-0.4c0.7-0.3,1.4-0.7,1.9-1.3c0.5-0.6,1-1.3,1.3-2.1
			s0.5-1.9,0.5-3V21.1z"/>
	</g>
</g>
</svg>
