<?xml version="1.0" encoding="utf-8"?>
<!-- Generator: Adobe Illustrator 28.2.0, SVG Export Plug-In . SVG Version: 6.00 Build 0)  -->
<svg version="1.1" id="Layer_1" xmlns="http://www.w3.org/2000/svg" xmlns:xlink="http://www.w3.org/1999/xlink" x="0px" y="0px"
	 viewBox="0 0 46.5 56" style="enable-background:new 0 0 46.5 56;" xml:space="preserve">
<style type="text/css">
	.st0{stroke:#2c3a66;stroke-miterlimit:10;}
</style>
<path class="st0" d="M35.4,39.5c-0.1,1.5-0.3,2.9-0.4,4.3c0,0.1,0.2,0.3,0.3,0.4c2.2,1,3.2,2.7,3.1,5c0,1.3-0.2,2.6-0.3,3.8
	c-0.1,0.8-0.2,0.8-1,0.7c-0.3,0-0.6-0.1-0.9-0.1c-0.3-0.1-0.8-0.2-0.8-0.4c0-0.4,0-0.9,0.2-1.3c0.1-0.3,0.6-0.2,0.7,0.1
	c0.1,0.2,0,0.4,0.1,0.6c0.1,0,0.2,0.1,0.3,0.1c0.1,0,0.2,0,0.6,0c0-1.6,0.2-3.2,0-4.8c-0.2-1.7-1.8-2.9-3.2-3c-1.9-0.1-3.5,1-4,2.8
	c-0.4,1.2-0.6,2.5-0.9,3.8c0.3,0.1,0.5,0.1,0.7,0.2c0.1-0.1,0.1-0.1,0.1-0.1c0.1-0.3,0.2-0.8,0.7-0.6c0.5,0.1,0.4,0.6,0.3,0.9
	c-0.1,0.9-0.3,1-1.1,0.8c-0.4-0.1-0.7-0.1-1.1-0.2c-0.4-0.1-0.7-0.3-0.6-0.7c0.3-1.5,0.5-3.1,1-4.6c0.7-2.1,2.3-3.2,4.5-3.3
	c0.1,0,0.2,0,0.3,0c0,0,0,0,0.2,0c0.1-1.5,0.1-3,0.2-4.4c0-0.4-0.2-0.6-0.5-0.8c-1.3-0.5-2.5-1.1-3.7-1.6c-0.4-0.2-0.7-0.2-1.1,0.2
	c-1.6,1.7-3.3,3.3-4.9,4.9c-0.6,0.6-0.7,0.6-1.3,0c-1.7-1.7-3.5-3.3-5.2-5c-0.3-0.3-0.5-0.3-0.9-0.1c-1.3,0.6-2.6,1.1-3.8,1.7
	c-0.2,0.1-0.5,0.4-0.5,0.6c-0.1,1.4-0.1,2.8-0.1,4.1c0,0.4,0.2,0.5,0.6,0.6c1.5,0.4,2.4,1.7,2.2,3.2c-0.2,1.4-1.3,2.6-2.7,2.7
	c-1.6,0.1-2.9-0.9-3.2-2.4C8.8,46,9.5,44.7,11.2,44c0-1.5,0-3,0-4.6c-0.5,0.2-0.9,0.4-1.4,0.6c-1.5,0.7-3.1,1.4-4.6,2.1
	c-1,0.5-1.7,1.2-2,2.3c-0.8,2.6-1.2,5.3-1.5,8c-0.1,0.5-0.1,1-0.2,1.5c0,0.4-0.1,0.7-0.5,0.6c-0.2-0.1-0.4-0.4-0.4-0.7
	c0.1-1.1,0.2-2.3,0.4-3.4c0.4-2.1,0.9-4.3,1.4-6.4c0.3-1.4,1.2-2.3,2.5-2.9c2.5-1.2,5.1-2.3,7.6-3.4c0.1,0,0.2-0.1,0.3-0.3
	c-0.4,0-0.8-0.1-1.2-0.1c-2-0.1-3.9-0.6-5.7-1.4c-0.7-0.3-0.7-0.5-0.4-1.1c1.5-3.2,2.8-6.5,3.4-10.1c0.4-2.3,0.4-4.7,0.6-7.1
	c0.1-1.9,0-3.9,0.4-5.7c1.4-5.9,5.2-9.6,11.1-10.9C26.3,0,32.4,2.9,35.3,7.9c1.3,2.2,1.9,4.6,1.9,7.1c0,2.5,0.1,5,0.2,7.5
	c0.2,3.1,1.1,6,2.2,8.9c0.5,1.2,1,2.4,1.6,3.6c0.3,0.5,0.1,0.8-0.4,1c-2.1,0.9-4.2,1.4-6.5,1.5c-0.1,0-0.3,0-0.6,0.1
	c1.6,0.7,3,1.3,4.4,2c1.2,0.5,2.3,1.1,3.5,1.6c1.6,0.7,2.5,2,2.8,3.6c0.5,2.6,1,5.3,1.4,7.9c0.1,0.4,0.2,0.9,0.1,1.3
	c0,0.2-0.3,0.4-0.4,0.6c-0.2-0.2-0.4-0.3-0.5-0.6c-0.2-1.5-0.4-3-0.6-4.5c-0.3-1.7-0.7-3.4-1.2-5.2c-0.2-1-0.9-1.7-1.8-2.2
	c-1.9-0.9-3.9-1.8-5.9-2.7C35.6,39.5,35.5,39.5,35.4,39.5z M18,32.9c-0.4-0.3-0.7-0.5-1-0.7c-2.1-1.7-3.6-3.9-3.8-6.6
	c-0.3-2.7-0.1-5.4-0.2-8.1c0-0.4,0.2-0.6,0.6-0.7c1-0.3,2-0.5,3-0.8c2.4-0.7,4.8-1.6,6.9-3.1c1.1-0.8,2-1.6,2.4-3
	c0.1-0.2,0.3-0.4,0.5-0.6c0.2,0.2,0.4,0.4,0.5,0.6c0.2,1.2,0.8,2.1,1.5,3c1.2,1.3,2.7,2.3,4.4,3.1c0.6,0.3,0.8,0.7,0.8,1.3
	c0,2.2,0,4.4,0,6.6c0,3.2-1.2,5.9-3.7,8c-0.4,0.3-0.8,0.6-1.3,1c0.3,0.8,0.6,1.6,0.9,2.4c0.1,0.4,0.3,0.5,0.7,0.7
	c2.3,0.7,4.6,0.7,7,0.2c1-0.2,2-0.6,3-0.8c0-0.2,0-0.2,0-0.3c0-0.1-0.1-0.2-0.1-0.2C37.3,29,35.9,23,36.2,16.6
	c0.1-2.7-0.3-5.3-1.6-7.8c-4.4-8.1-15-9.2-21-2.3c-2.5,2.9-3.4,6.3-3.2,10.1c0.3,5.6-0.7,10.9-2.8,16c-0.4,0.9-0.7,1.7-1.1,2.7
	c0.6,0.2,1.1,0.4,1.6,0.5c2.8,0.8,5.6,1,8.4,0.2c0.2-0.1,0.5-0.3,0.6-0.5C17.3,34.7,17.6,33.8,18,32.9z M14,17.8c0,2.1,0,4.2,0,6.3
	c-0.1,5.1,4.4,10,10.7,9.2c4.5-0.6,7.9-4.6,7.9-9.1c0-2.1,0-4.2,0-6.3c0-0.6-0.2-0.9-0.7-1.2c-2.1-1.1-4-2.4-5.2-4.4
	c-0.1-0.2-0.2-0.4-0.4-0.6C23,15.4,18.5,16.4,14,17.8z M18.9,33.4c-0.3,0.8-0.6,1.5-0.8,2.2c-0.1,0.4-0.1,0.6,0.2,0.9
	c1.4,1.4,2.9,2.7,4.3,4.1c0.3,0.3,0.6,0.5,0.9,0.8c1.7-1.7,3.4-3.4,5-5c0.1-0.1,0.2-0.3,0.2-0.5c-0.3-0.8-0.6-1.7-0.9-2.5
	C24.7,34.7,21.8,34.6,18.9,33.4z M10,46.9c0,1.1,0.9,2,2,2c1.1,0,2.1-0.9,2.1-2c0-1.1-0.9-2-2-2C10.9,44.9,10,45.8,10,46.9z"/>
</svg>
