<?xml version="1.0" encoding="utf-8"?>
<!-- Generator: Adobe Illustrator 28.2.0, SVG Export Plug-In . SVG Version: 6.00 Build 0)  -->
<svg version="1.1" id="Layer_1" xmlns="http://www.w3.org/2000/svg" xmlns:xlink="http://www.w3.org/1999/xlink" x="0px" y="0px"
	 viewBox="0 0 67.4 33.1" style="enable-background:new 0 0 67.4 33.1;" xml:space="preserve">
<style type="text/css">
	.st0{fill:#FFFFFF;}
</style>
<g>
	<path class="st0" d="M34.7,22.6c9.6-4.5,10.8-7.7,6.6-16.8C42,5.4,42.8,5,43.8,4.5c0.9,2.1,1.7,4,2.5,6.1c1.1,3.1,1.7,3.5,5,3.5
		c1.2,0,2.3-0.1,3.5-0.2c0.2,0,0.3-0.2,0.5-0.2c-3.6-4.1-4.1-7-2-10c1.9-2.7,6-3.6,9.6-2.2c-0.1,0.4-0.2,0.8-0.2,1.3
		c-0.1,1-0.5,1.2-1.5,1.1c-1.2-0.2-2.6-0.1-3.7,0.2c-2.2,0.7-3.1,2.9-2.4,5c0.8,2.3,4.7,4.4,6.9,3.4c1-0.5,2.1-0.9,3.3-1.3
		c0.3,0.8,0.6,1.5,1.1,2.7c-3.5,0.9-6.8,1.8-10.2,2.5c-2,0.4-4,0.6-6,0.5c-1.3,0-2.7-0.6-4.2-1c-0.7,2.5-2.4,4.8-4.8,6.5
		c-1.2,0.8-2.4,1.5-3.7,2.1c-1.8,0.8-1.8,0.8-2.4-1.1C34.9,23.2,34.8,22.9,34.7,22.6z"/>
	<path class="st0" d="M2.9,10.5c0.9,0.3,1.6,0.6,2.4,0.9C5,12.7,4.6,14,4.4,15.2c-0.5,3,0.6,5.2,3.5,6.2c4.4,1.5,8.8,1.2,13.1-0.9
		c0.5-0.3,1-0.7,1.4-1.1c1.4-1.4,1.2-2.8-0.6-3.6c-1.2-0.6-2.5-1-3.9-1.5c0.2-0.8,0.3-1.6,0.5-2.7c1.2,0.4,2.2,0.8,3.3,1.1
		c2.5,0.7,4.9,1.7,7.7,1.1c1.6-0.3,2.4-1.2,2.2-2.7c-0.2-1.8-0.7-3.7-1.1-5.5c-0.2-0.8-0.5-1.5-0.8-2.4c0.9-0.4,1.7-0.7,2.7-1.1
		c1,3.3,2.2,6.5,1.6,10c-0.4,2.3-1.7,3.7-4,4.2c-1.4,0.3-2.8,0.5-4.2,0.7c0.2,3.3-1.9,5.1-4.7,6.3c-4.1,2-8.6,2.5-13.1,1.3
		c-5.1-1.3-7.3-5.1-6.2-10.2C2.1,13.1,2.5,11.9,2.9,10.5z"/>
	<circle class="st0" cx="9.8" cy="30.4" r="1.6"/>
	<circle class="st0" cx="14.6" cy="30.4" r="1.6"/>
	<circle class="st0" cx="30.4" cy="21.8" r="1.6"/>
</g>
</svg>
