<?xml version="1.0" encoding="utf-8"?>
<!-- Generator: Adobe Illustrator 28.2.0, SVG Export Plug-In . SVG Version: 6.00 Build 0)  -->
<svg version="1.1" id="Layer_1" xmlns="http://www.w3.org/2000/svg" xmlns:xlink="http://www.w3.org/1999/xlink" x="0px" y="0px"
	 viewBox="0 0 51.5 40" style="enable-background:new 0 0 51.5 40;" xml:space="preserve">
<g>
	<path style="fill:#2c3a66;" d="M48.7,15.1h-3.9V5.6c0-2.8-2.3-5.1-5.1-5.1h-34c-2.8,0-5.1,2.3-5.1,5.1v22.7c0,2.8,2.3,5.1,5.1,5.1h16v3.9h-9.5
		c-0.6,0-1,0.5-1,1c0,0.6,0.5,1,1,1h21.1c0.6,0,1-0.5,1-1c0-0.6-0.5-1-1-1h-9.5v-3.9h12v2.9c0,1.7,1.4,3.1,3.1,3.1h9.9
		c1.7,0,3.1-1.4,3.1-3.1V18.2C51.8,16.5,50.4,15.1,48.7,15.1z M35.7,18.2v13.3H5.7c-1.7,0-3.1-1.4-3.1-3.1V5.6
		c0-1.7,1.4-3.1,3.1-3.1h34c1.7,0,3.1,1.4,3.1,3.1v9.5h-3.9C37.1,15.1,35.7,16.5,35.7,18.2z M49.8,36.4c0,0.6-0.5,1-1,1h-9.9
		c-0.6,0-1-0.5-1-1v-3.9c0,0,0,0,0,0s0,0,0,0V18.2c0-0.6,0.5-1,1-1h9.9c0.6,0,1,0.5,1,1V36.4z"/>
	<path style="fill:#2c3a66;" d="M43.8,31.6c-1.4,0-2.6,1.1-2.6,2.6c0,1.4,1.1,2.6,2.6,2.6c1.4,0,2.6-1.1,2.6-2.6C46.3,32.8,45.2,31.6,43.8,31.6z
		 M43.3,34.2c0-0.3,0.2-0.5,0.5-0.5c0.3,0,0.5,0.2,0.5,0.5C44.3,34.8,43.3,34.8,43.3,34.2z"/>
</g>
<path style="fill:#2c3a66;" d="M27.2,20.8l4.7-6.4c0.3-0.5,0.2-1.1-0.2-1.4c-0.5-0.3-1.1-0.2-1.4,0.2l-4.1,5.6l-8.5-5.8c-0.5-0.3-1.1-0.2-1.4,0.2l-4.7,6.4
	c-0.3,0.5-0.2,1.1,0.2,1.4c0.2,0.1,0.4,0.2,0.6,0.2c0.3,0,0.6-0.1,0.8-0.4l4.1-5.6l8.5,5.8C26.3,21.4,26.9,21.2,27.2,20.8z"/>
</svg>
