<?xml version="1.0" encoding="utf-8"?>
<!-- Generator: Adobe Illustrator 28.2.0, SVG Export Plug-In . SVG Version: 6.00 Build 0)  -->
<svg version="1.1" id="Layer_1" xmlns="http://www.w3.org/2000/svg" xmlns:xlink="http://www.w3.org/1999/xlink" x="0px" y="0px"
	 viewBox="0 0 46.5 56" style="enable-background:new 0 0 46.5 56;" xml:space="preserve">
<style type="text/css">
	.st0{fill:none;stroke:#2c3a66;stroke-width:1.6;stroke-miterlimit:10;}
</style>
<path class="st0" d="M34.6,18c-0.1,0-0.1-0.1-0.2-0.1c-0.9-0.7-3-3.3-3.7-5.2c-0.7-1.8-3.8-2.1-4.5-2.1s-2.7,1.1-4,1.1
	c-1.4,0-2.1-1.3-4-1.3s-2.9,2.1-3.2,2.9c-0.3,0.8,0.2,2.3-0.2,3.4c-0.2,0.6-1.2,0.8-2.1,1.3h0c0,0-0.6-5-0.3-6.6
	c0.2-1.6,0.7-3.8,2.1-4.8c1.5-1,3-0.5,3-0.5s1.7-4.2,6-4c4.2,0.3,8,1.8,10,5.8C35.6,11.8,35.7,14,34.6,18z"/>
<path style="fill:#2c3a66;" d="M44.7,44.7c-0.3-1.8-1.4-3.2-3-3.9c-0.6-0.2-1.2-0.5-1.7-0.8c-0.6-0.3-1.2-0.6-1.7-0.8c-1-0.5-2-1-3.1-1.4
	c0,0-4.2-2-4.8-2.2c-0.4-0.2-0.4-0.2-0.5-0.5L29,33c0,0,0,0,0.1-0.1c-0.2-0.5-0.4-1.1-0.5-1.7c-1.2,0.9-2.5,1.5-4,1.7
	c-2.4,0.3-4.8-0.3-6.6-1.6c-0.1,0.6-0.3,1.1-0.6,1.6c0,0,0.1,0.1,0.1,0.1c-0.3,0.8-0.6,1.6-0.8,2.3c0,0.1-0.2,0.2-0.4,0.3
	c-1.3,0.4-4.8,2-4.8,2h0l-1,0.4c-1.9,0.8-3.9,1.7-5.9,2.6c-1.5,0.7-2.4,1.7-2.7,3.2c-0.4,1.6-1,4.1-1.4,6.4c-0.2,1-0.3,2.1-0.4,3.2
	l0,0.3c0,0.4,0.3,0.9,0.7,1.1c0.3,0.1,0.5,0,0.7-0.1c0.3-0.2,0.3-0.6,0.3-0.8c0.1-0.3,0.1-0.5,0.1-0.8c0-0.2,0-0.5,0.1-0.7
	c0.3-2.4,0.7-5.2,1.5-7.9c0.2-0.9,0.8-1.6,1.8-2.1c0.7-0.3,1.5-0.7,2.3-1c0.8-0.4,1.6-0.7,2.3-1.1c0.3-0.1,0.5-0.2,0.7-0.3
	c0.1,0,0.1-0.1,0.2-0.1v3.8c-1.7,0.8-2.4,2.3-1.9,3.9c0.3,1.7,1.8,2.8,3.6,2.7c1.5-0.1,2.8-1.4,3-3c0.2-1.7-0.8-3.2-2.5-3.6
	c-0.3-0.1-0.3-0.1-0.3-0.2c0-1.3,0-2.7,0.1-4.1c0-0.1,0.2-0.2,0.3-0.3c0.7-0.3,1.4-0.7,2.2-1c0.5-0.2,1.1-0.5,1.6-0.7
	c0.3-0.1,0.3-0.1,0.5,0c0.9,0.9,1.7,1.7,2.6,2.5c0.9,0.8,1.7,1.6,2.6,2.5c0.7,0.7,1.1,0.7,1.8,0c0.5-0.5,1.1-1.1,1.6-1.6
	c1.1-1.1,2.2-2.2,3.3-3.3c0.3-0.3,0.4-0.3,0.7-0.1c0.5,0.2,1,0.4,1.5,0.6c0.7,0.3,1.5,0.7,2.2,0.9c0.3,0.2,0.3,0.3,0.3,0.5
	c-0.1,0.7-0.1,1.5-0.1,2.2c0,0.6,0,1.2-0.1,1.8h-0.2c-2.4,0.1-4.1,1.4-4.8,3.6c-0.4,1.1-0.6,2.3-0.8,3.4c-0.1,0.4-0.1,0.8-0.2,1.2
	c-0.1,0.2-0.1,0.9,0.9,1.2c0.2,0.1,0.4,0.1,0.6,0.1c0.2,0,0.3,0,0.5,0.1c0.4,0.1,0.8,0.2,1.1,0c0.3-0.2,0.4-0.6,0.4-1
	c0.1-0.4,0.1-0.7,0-1c-0.1-0.1-0.2-0.3-0.5-0.4c-0.2-0.1-0.5-0.1-0.7,0c-0.2,0.1-0.4,0.4-0.5,0.6c0,0-0.1,0-0.1,0
	c0.1-0.3,0.1-0.6,0.2-0.9c0.2-0.9,0.4-1.7,0.6-2.6c0.5-1.6,1.9-2.6,3.6-2.5c1.2,0.1,2.7,1.2,2.9,2.7c0.1,1,0.1,2.1,0,3.1
	c0,0.4,0,0.8,0,1.2l-0.2,0c0,0,0,0,0,0c0-0.1,0-0.3-0.1-0.4c-0.1-0.3-0.4-0.5-0.8-0.5c0,0,0,0,0,0c-0.3,0-0.5,0.2-0.6,0.4
	C35,52.2,35,52.8,35,53.2c0,0.4,0.5,0.6,0.9,0.7l0.2,0.1l0.1,0c0.1,0,0.3,0,0.4,0c0.2,0,0.3,0.1,0.5,0.1c0.9,0.1,1.3,0.1,1.4-1
	c0-0.4,0.1-0.7,0.1-1.1c0.1-0.9,0.2-1.8,0.2-2.7c0.1-2.5-1-4.3-3.3-5.3c-0.1-0.1-0.1-0.1-0.1-0.2c0-0.6,0.1-1.3,0.2-1.9
	c0.1-0.6,0.1-1.3,0.2-1.9c1.8,0.8,3.7,1.7,5.5,2.5c0.9,0.5,1.5,1.2,1.6,2c0.5,1.9,0.9,3.6,1.2,5.1l0.6,4.6c0.1,0.3,0.3,0.5,0.5,0.6
	c0,0,0.1,0.1,0.1,0.1l0.4,0.4l0.2-0.5c0,0,0.1-0.1,0.1-0.2c0.1-0.2,0.3-0.3,0.3-0.5c0.1-0.5,0-1-0.1-1.4
	C45.7,49.9,45.2,47.1,44.7,44.7z M13.7,46.9c0,0.9-0.8,1.6-1.7,1.6c-0.9,0-1.6-0.7-1.6-1.6c0-0.9,0.8-1.6,1.7-1.6
	C13,45.3,13.7,46,13.7,46.9z M28.2,36.1l-4.7,4.7c-0.1-0.1-0.1-0.1-0.2-0.2c-0.1-0.1-0.3-0.2-0.4-0.4c-0.7-0.7-1.4-1.4-2.2-2.1
	c-0.7-0.7-1.4-1.3-2.1-2c-0.2-0.2-0.2-0.2-0.1-0.5c0.1-0.5,0.3-1,0.5-1.5l0.1-0.3c2.9,1.1,5.6,1.1,8.5,0c0.1,0.3,0.2,0.6,0.3,0.9
	c0.1,0.4,0.3,0.8,0.4,1.2C28.3,36,28.2,36.1,28.2,36.1z"/>
<path class="st0" d="M12.7,17.9L12.7,17.9c-0.6,0.4-1.2,1-1.2,2.1c-0.1,2.6,1.8,1.8,2,2.9c0.2,1.1,0.4,1.8,0.4,1.8s2.5,9.3,9.4,9.3
	s10.3-9.3,10.3-9.3s0.6-1.2,0.8-1.8c0.3-0.9,1.6-1.3,1.6-2.6c0-1.2-0.5-1.6-1.3-2.2"/>
</svg>
