<?xml version="1.0" encoding="utf-8"?>
<!-- Generator: Adobe Illustrator 28.2.0, SVG Export Plug-In . SVG Version: 6.00 Build 0)  -->
<svg version="1.1" id="Layer_1" xmlns="http://www.w3.org/2000/svg" xmlns:xlink="http://www.w3.org/1999/xlink" x="0px" y="0px"
	 viewBox="0 0 47.5 47.4" style="enable-background:new 0 0 47.5 47.4;" xml:space="preserve">
<g>
	<path d="M13.2,34.9c-2.8-1-3.8-2.9-3.8-5.6c0.1-7,0-13.9,0-20.9c0-3.5,1.8-5.3,5.3-5.3c0.4,0,0.7,0,1,0C15.9,2.9,16,2.9,16,2.9
		C16.4,0.1,16.5,0,19.4,0c2.8,0,5.6,0,8.5,0c1.9,0,2.5,0.5,2.6,2.5c0,0.1,0,0.3,0.1,0.6c0.8,0,1.5,0,2.3,0c2.9,0,4.9,2,4.9,4.9
		c0,7.3,0,14.6,0,21.9c0,2.4-1.2,4-3.5,4.9c3.3,4,6.6,7.8,9.9,11.8c-0.3,0.3-0.5,0.5-0.9,0.8c-1.1-1.3-2.2-2.6-3.3-3.9
		c-0.3-0.4-1-0.7-1.5-0.7c-9.9,0-19.8,0-29.6,0c-0.5,0-1.1,0.3-1.4,0.6c-1.1,1.2-2.2,2.5-3.3,3.9c-0.3-0.3-0.6-0.5-0.9-0.7
		C6.6,42.8,9.9,38.9,13.2,34.9z M15.9,4.2c-0.6,0-1.1,0-1.7,0c-2.1,0.1-3.6,1.5-3.6,3.6c0,7.4,0,14.9,0,22.3c0,2.1,1.4,3.6,3.5,3.6
		c6.3,0.1,12.7,0.1,19,0c1.9,0,3.4-1.5,3.4-3.5c0-7.5,0-15.1,0-22.6c0-1.6-1.1-3-2.6-3.3c-1.1-0.2-2.3-0.1-3.4-0.2
		c-0.4,2-0.9,2.4-2.8,2.4c-3,0-6,0-9,0C16.8,6.6,16.4,6.3,15.9,4.2z M9.1,41.6c9.8,0,19.5,0,29.3,0c-0.8-1-1.5-1.8-2.2-2.6
		c-0.2-0.3-0.7-0.4-1.1-0.4c-7.6,0-15.1,0-22.7,0c-0.3,0-0.7,0-0.8,0.2C10.7,39.7,10,40.6,9.1,41.6z M12.8,37.3c7.3,0,14.5,0,21.9,0
		c-0.3-0.4-0.6-0.7-0.8-1c-0.6-1.1-1.6-1.4-2.8-1.4c-4.8,0.1-9.7,0.2-14.5,0C14.6,34.8,13.8,35.9,12.8,37.3z M23.2,1.2
		c-1,0-2.1,0-3.1,0c-3.3,0-2.9-0.5-2.9,3.1c0,0.1,0,0.2,0,0.3c0.3,0.3,0.6,0.8,0.9,0.8c3.4,0.1,6.8,0.1,10.2,0
		c0.3,0,0.8-0.5,0.9-0.9c0.1-0.7,0-1.4,0.1-2.2c0-0.9-0.4-1.2-1.2-1.2C26.4,1.2,24.8,1.2,23.2,1.2z"/>
	<path d="M23.1,22.2c-2.7,0-5.4,0-8,0c-1.7,0-2.5-0.9-2.6-2.5c0-3,0-6,0-9c0-1.6,0.9-2.5,2.5-2.5c5.4,0,10.8,0,16.2,0
		c1.7,0,2.5,0.9,2.6,2.6c0,3,0,6,0,9c0,1.6-0.9,2.5-2.5,2.5C28.5,22.2,25.8,22.2,23.1,22.2z M23.1,9.3c-2.6,0-5.2,0-7.8,0
		c-1.3,0-1.6,0.3-1.6,1.6c0,2.9,0,5.7,0,8.6c0,1.2,0.3,1.6,1.5,1.6c5.3,0,10.6,0,15.9,0c1.2,0,1.5-0.4,1.5-1.6c0-2.9,0-5.7,0-8.6
		c0-1.2-0.4-1.5-1.5-1.6C28.4,9.3,25.8,9.3,23.1,9.3z"/>
	<path d="M16.8,31.4c-1.7,0-3.1-1.4-3.1-3.2c0-1.7,1.4-3.1,3.2-3.1c1.7,0,3.1,1.4,3.1,3.2C19.9,30,18.5,31.4,16.8,31.4z M16.8,26.3
		c-1.1,0-2,0.9-2,1.9c0,1.1,0.9,2,1.9,2c1.1,0,2-0.9,2-1.9C18.8,27.2,17.9,26.3,16.8,26.3z"/>
	<path d="M34.1,28.2c0,1.7-1.4,3.2-3.1,3.1c-1.7,0-3.1-1.4-3.1-3.2c0-1.7,1.4-3.1,3.1-3.1C32.7,25.1,34.1,26.5,34.1,28.2z M31,30.2
		c1.1,0,1.9-0.9,1.9-2c0-1.1-0.9-2-2-1.9c-1.1,0-1.9,0.9-1.9,2C29,29.4,29.9,30.2,31,30.2z"/>
</g>
</svg>
