<?xml version="1.0" encoding="utf-8"?>
<!-- Generator: Adobe Illustrator 28.2.0, SVG Export Plug-In . SVG Version: 6.00 Build 0)  -->
<svg version="1.1" id="Layer_1" xmlns="http://www.w3.org/2000/svg" xmlns:xlink="http://www.w3.org/1999/xlink" x="0px" y="0px"
	 viewBox="0 0 55.5 53.5" style="enable-background:new 0 0 55.5 53.5;" xml:space="preserve">
<g>
	<path style="fill:#2c3a66;" d="M48.8,5.3c-3.1-3.1-7.2-4.8-11.6-4.8c-4.4,0-8.5,1.7-11.6,4.8l-5.6,5.6c0,0,0,0,0,0c0,0,0,0,0,0L6.3,24.5
		c-3.1,3.1-4.8,7.2-4.8,11.6c0,4.4,1.7,8.5,4.8,11.6c3.1,3.1,7.2,4.8,11.6,4.8s8.5-1.7,11.6-4.8l19.2-19.2c3.1-3.1,4.8-7.2,4.8-11.6
		C53.5,12.5,51.8,8.4,48.8,5.3z M28.1,46.3c-2.7,2.7-6.3,4.2-10.1,4.2S10.5,49,7.8,46.3C5.1,43.6,3.6,40,3.6,36.1S5.1,28.7,7.8,26
		l9.3-9.3c-0.7,4.6,1.3,10.3,5.7,14.6c3,3,6.8,5.1,10.6,5.6c0.8,0.1,1.5,0.2,2.2,0.2c0.6,0,1.2-0.1,1.8-0.2L28.1,46.3z M47.3,27.1
		l-5.6,5.6c0,0,0,0,0,0c-1.9,1.9-4.7,2.6-7.9,2.1c-3.4-0.5-6.7-2.3-9.4-5.1c-5.6-5.6-6.9-13.4-2.9-17.4L27,6.8
		c2.7-2.7,6.3-4.2,10.1-4.2c3.8,0,7.4,1.5,10.1,4.2c2.7,2.7,4.2,6.3,4.2,10.1S50,24.4,47.3,27.1z"/>
	<path style="fill:#2c3a66;" d="M37.1,5.7c-3,0-5.8,1.2-7.9,3.3c-0.4,0.4-0.4,1.1,0,1.5c0.4,0.4,1.1,0.4,1.5,0c1.7-1.7,4-2.7,6.5-2.7s4.8,0.9,6.5,2.7
		c0.2,0.2,0.5,0.3,0.7,0.3c0.3,0,0.5-0.1,0.7-0.3c0.4-0.4,0.4-1.1,0-1.5C43,6.9,40.1,5.7,37.1,5.7z"/>
</g>
</svg>
