<?xml version="1.0" encoding="utf-8"?>
<!-- Generator: Adobe Illustrator 28.2.0, SVG Export Plug-In . SVG Version: 6.00 Build 0)  -->
<svg version="1.1" id="Layer_1" xmlns="http://www.w3.org/2000/svg" xmlns:xlink="http://www.w3.org/1999/xlink" x="0px" y="0px"
	 viewBox="0 0 49.5 53.5" style="enable-background:new 0 0 49.5 53.5;" xml:space="preserve">
<g>
	<path style="fill:#2c3a66;" d="M48.5,44.7l-7.3-9.2c0.3-0.9,0.5-1.9,0.6-2.9c0.2-1,0.3-2,0.6-2.8c0.3-0.7,0.9-1.5,1.5-2.3c1-1.4,2.2-3,2.2-4.9
		s-1.2-3.5-2.2-4.9c-0.6-0.8-1.2-1.5-1.5-2.3c-0.3-0.8-0.5-1.7-0.6-2.8C41.6,11.1,41.3,9.2,40,8c-1.3-1.3-3.1-1.6-4.9-1.8
		c-1-0.2-2-0.3-2.8-0.6c-0.7-0.3-1.5-0.9-2.3-1.5c-1.4-1-3-2.2-4.9-2.2S21.7,3,20.3,4c-0.8,0.6-1.5,1.2-2.3,1.5
		c-0.8,0.3-1.7,0.5-2.8,0.6c-1.8,0.3-3.6,0.5-4.9,1.8c-1.3,1.3-1.6,3.1-1.8,4.9c-0.2,1-0.3,2-0.6,2.8c-0.3,0.7-0.9,1.5-1.5,2.3
		c-1,1.4-2.2,3-2.2,4.9s1.2,3.5,2.2,4.9c0.6,0.8,1.2,1.5,1.5,2.3c0.3,0.8,0.5,1.7,0.6,2.8c0.1,1,0.3,2,0.6,2.9l-7.3,9.2
		c-0.3,0.3-0.3,0.8-0.1,1.1c0.2,0.4,0.6,0.5,1,0.5l6.5-0.7l0.7,6.5c0,0.4,0.3,0.7,0.7,0.8c0.1,0,0.2,0,0.3,0c0.3,0,0.6-0.1,0.8-0.4
		l8.7-11c1.3,1,2.8,2.1,4.7,2.1c1.8,0,3.3-1.1,4.7-2.1l8.7,11c0.2,0.2,0.5,0.4,0.8,0.4c0.1,0,0.2,0,0.3,0c0.4-0.1,0.7-0.4,0.7-0.8
		l0.7-6.5l6.5,0.7c0.4,0,0.8-0.2,1-0.5C48.8,45.5,48.7,45,48.5,44.7z M11.8,49.4l-0.6-5.1c0-0.3-0.2-0.5-0.4-0.7
		c-0.2-0.2-0.5-0.2-0.7-0.2L5,44.1l5.3-6.7c0,0,0.1,0.1,0.1,0.1c1.3,1.3,3.1,1.6,4.9,1.8c1,0.2,2,0.3,2.8,0.6
		c0.3,0.1,0.6,0.3,0.8,0.5L11.8,49.4z M28.9,39.8c-1.2,0.9-2.4,1.8-3.7,1.8c-1.2,0-2.4-0.9-3.7-1.8c-0.9-0.6-1.7-1.3-2.7-1.7
		c-1-0.4-2.1-0.6-3.2-0.8c-1.5-0.2-2.9-0.4-3.8-1.3c-0.8-0.8-1-2.3-1.3-3.8c-0.2-1.1-0.3-2.2-0.8-3.2c-0.4-1-1.1-1.9-1.7-2.7
		c-0.9-1.2-1.8-2.4-1.8-3.7c0-1.2,0.9-2.4,1.8-3.7c0.6-0.9,1.3-1.7,1.7-2.7c0.4-1,0.6-2.1,0.8-3.2c0.2-1.5,0.4-2.9,1.3-3.8
		s2.3-1,3.8-1.3c1.1-0.2,2.2-0.3,3.2-0.8c1-0.4,1.9-1.1,2.7-1.7c1.2-0.9,2.4-1.8,3.7-1.8c1.2,0,2.4,0.9,3.7,1.8
		c0.9,0.6,1.7,1.3,2.7,1.7c1,0.4,2.1,0.6,3.2,0.8c1.5,0.2,2.9,0.4,3.8,1.3c0.8,0.8,1,2.3,1.3,3.8c0.2,1.1,0.3,2.2,0.8,3.2
		c0.4,1,1.1,1.9,1.7,2.7c0.9,1.2,1.8,2.4,1.8,3.7s-0.9,2.4-1.8,3.7c-0.6,0.9-1.3,1.7-1.7,2.7c-0.4,1-0.6,2.1-0.8,3.2
		c-0.2,1.5-0.4,2.9-1.3,3.8c-0.8,0.8-2.2,1-3.8,1.3c-1.1,0.2-2.2,0.3-3.2,0.8C30.6,38.5,29.7,39.2,28.9,39.8z M40.3,43.5
		c-0.3,0-0.5,0-0.7,0.2c-0.2,0.2-0.3,0.4-0.4,0.7l-0.6,5.1l-7.1-9c0.3-0.2,0.6-0.4,0.8-0.5c0.8-0.3,1.7-0.5,2.8-0.6
		c1.8-0.3,3.6-0.5,4.9-1.8c0,0,0.1-0.1,0.1-0.2l5.3,6.7L40.3,43.5z"/>
	<path style="fill:#2c3a66;" d="M36.2,22.7c0-6.1-4.9-11-11-11s-11,4.9-11,11s4.9,11,11,11S36.2,28.8,36.2,22.7z M25.2,31.7c-5,0-9-4-9-9s4-9,9-9s9,4,9,9
		S30.2,31.7,25.2,31.7z"/>
</g>
</svg>
