<?xml version="1.0" encoding="utf-8"?>
<!-- Generator: Adobe Illustrator 28.2.0, SVG Export Plug-In . SVG Version: 6.00 Build 0)  -->
<svg version="1.1" id="Layer_1" xmlns="http://www.w3.org/2000/svg" xmlns:xlink="http://www.w3.org/1999/xlink" x="0px" y="0px"
	 viewBox="0 0 49.5 53.5" style="enable-background:new 0 0 49.5 53.5;" xml:space="preserve">
<g>
	<path style="fill:#2c3a66;" d="M43.3,27.1c1.3,0.2,1.5,0.5,1.1,1.7c-0.1,0.2,0.1,0.6,0.3,0.7c0.5,0.3,1,0.6,1.5,0.9c2.3,1.5,2.6,4.4,0.6,6.3
		c-0.9,0.8-1.9,1.4-2.9,1.9c-1.9,0.9-3.9,1.7-5.8,2.6c-1.4,0.7-2.8,1.6-3.7,3c0.5,0.4,0.9,0.7,1.4,1c1,0.8,1.8,1.8,2.2,3
		c0.6,1.8-0.3,4-2.1,4.7c-0.3,0.1-1,0-1.2-0.3c-0.2-0.2,0.1-0.8,0.2-1.2c0,0,0,0,0.1-0.1c2.2-1.4,1.4-3.2-0.1-4.3
		c-1.3-1-2.8-1.8-4.3-2.6c-8-3.9-12.7-10.2-14-19c-0.5-3.5-0.1-7.1,0.6-10.6c0.5-3.1,1.1-6.1,1.6-9.2C19,4.4,19,2.9,18.4,1.5
		c-0.3-0.6-0.2-1.1,0.5-1.4c0.6-0.3,1.1,0.1,1.3,0.7c0.2,0.6,0.5,1.3,0.6,1.9c0.1,0.5,0.2,0.7,0.7,0.9c5,1.4,8.5,4.5,10.3,9.4
		c0.6,1.7,2,2.5,3.6,2.9c1.7,0.4,3.4,0.8,5.1,1.1c2.4,0.5,3.1,1.8,2.1,4c-0.3,0.6-0.6,1.2-0.9,1.8C44.3,24.5,44.5,25.1,43.3,27.1z
		 M42.7,27.8c-1.1,0.8-2.1,1.6-3.2,2.4c-0.5,0.4-1,0.3-1.4-0.3c-0.3-0.5-0.2-1,0.3-1.4c0.8-0.6,1.6-1.2,2.4-1.9
		c0.4-0.4,0.8-0.9,1.3-1.4c-0.3-0.2-0.5-0.3-0.7-0.4c-2.2-0.9-2.4-1.5-1.3-3.6c0.1-0.1,0.2-0.3,0.2-0.4c0.3-0.6,0.5-1.1,0.8-1.8
		c-2.1-0.4-4-0.8-5.9-1.3c-2.7-0.7-4.6-2.1-5.6-4.8c-1-2.6-2.7-4.7-5.2-6.1c-1.1-0.7-2.4-1.1-3.7-1.7c-0.8,4.6-1.6,8.9-2.3,13.3
		C17.6,25,18.9,31,23,36.2c2.6,3.3,5.8,5.7,9.8,7.2c1.5-2,3.6-3.4,5.8-4.5c1.4-0.7,2.9-1.2,4.3-1.9c1-0.5,1.9-1,2.7-1.7
		c1.1-1,0.9-2.4-0.4-3.1c-0.6-0.4-1.3-0.7-1.8-1.1c-0.9-0.6-1.1-1.4-0.9-2.4C42.5,28.3,42.6,28.1,42.7,27.8z"/>
	<path style="fill:#2c3a66;" d="M18.2,5.9c-0.8,3.1-1.5,6.1-2.4,9.2c-0.9,3.2-2,6.4-2.7,9.6c-0.6,2.5-0.7,5.1-0.2,7.6c0.6,3.5,2.6,6.2,5.2,8.5
		c3.4,3.1,7.3,5.3,11.8,6.3c0.6,0.1,1.1,0.4,0.9,1.1c-0.1,0.7-0.7,1-1.3,0.8c-1.4-0.4-2.8-0.8-4.1-1.3c-3.5-1.4-6.5-3.4-9.2-6
		c-4.3-4-6-9-5.4-14.8c0.4-3.9,1.5-7.7,2.8-11.4c1.1-3.2,2-6.4,2.4-9.8C16,5.1,16.2,4.5,17,4.6c0.6,0.1,0.9,0.5,0.9,1.2
		C18,5.8,18.1,5.9,18.2,5.9z"/>
	<path style="fill:#2c3a66;" d="M12.8,15.1c-0.1,1.6-0.8,3.1-1.8,4.5c-0.8,1.2-1.7,2.4-2.5,3.7c-1.3,2-1.8,4.2-1.8,6.6c0,0.3,0,0.6,0,0.8
		c0,0.7-0.3,1.1-1,1.1c-0.6,0-0.9-0.4-0.9-1c0-2,0-4.1,0.9-6c0.8-1.7,1.8-3.3,2.8-4.9c0.7-1.1,1.4-2.2,2-3.3c0.3-0.6,0.4-1.4,0.4-2
		c0-0.7,0.2-1.3,1-1.3c0.8,0,0.9,0.6,1,1.2C12.8,14.7,12.8,14.8,12.8,15.1z"/>
	<path style="fill:#2c3a66;" d="M20.7,18.5c0-0.1,0.1-0.3,0.1-0.4c1.1-2.2,2.4-4.1,4.4-5.6c0.5-0.4,1-0.5,1.5,0c0.4,0.5,0.4,1-0.1,1.4
		c-1.8,1.2-2.9,3-3.9,4.8c-0.2,0.3-0.6,0.6-1,0.7c-0.2,0.1-0.6-0.3-0.8-0.5C20.7,18.9,20.7,18.7,20.7,18.5z"/>
	<path style="fill:#2c3a66;" d="M25.4,22.8c-0.1-0.2-0.6-0.4-0.6-0.8c0-0.3,0.3-0.8,0.6-1.1c0.6-0.4,1.4-0.5,1.9-0.9c0.7-0.6,1-1.5,1.6-2.3
		c0.3-0.3,0.7-0.7,1.1-0.7c0.6,0,0.8,0.5,0.8,1.1C30.6,20.2,27.7,22.8,25.4,22.8z"/>
</g>
</svg>
