<?xml version="1.0" encoding="utf-8"?>
<!-- Generator: Adobe Illustrator 28.2.0, SVG Export Plug-In . SVG Version: 6.00 Build 0)  -->
<svg version="1.1" id="Layer_1" xmlns="http://www.w3.org/2000/svg" xmlns:xlink="http://www.w3.org/1999/xlink" x="0px" y="0px"
	 viewBox="0 0 711 68.8" style="enable-background:new 0 0 711 68.8;" xml:space="preserve">
<style type="text/css">
	.st0{fill:#11245a;}
	.st1{font-family:'AntiqueModerne';}
	.st2{font-size:43.4549px;}
</style>
<g>
	<text transform="matrix(1 0 0 1 77.6377 52.8921)" class="st0 st1 st2">The London Dermatology Centre</text>
	<path class="st0" d="M61.9,38.3c-0.6-3.4-6.3-15.5-11-21C46.8,12.5,43.3,7,40.1,7s-3.3,1.3-3.3,1.3S7.6,34,3.8,40.9
		c-5.3,9.7,6,15.9,10.3,17.8c11.2,4.9,17.4,5.5,23.6,5.5c6.1,0,14.2-2.5,19.8-7.3S62.5,41.7,61.9,38.3z M52.5,51.8
		c-4.1,3.8-9.8,5.8-14.2,5.8s-9.1,0-16.9-4.3s-11.3-7-8.8-12.6c2.6-5.5,25.1-27.1,25.1-27.1s1-1.1,2.3-1c2.2,0.1,6.2,3.7,9.1,7.5
		c3.4,4.4,6.3,15.1,6.7,17.8C56.4,40.6,56.6,48.1,52.5,51.8z"/>
</g>
</svg>
