<?xml version="1.0" encoding="utf-8"?>
<!-- Generator: Adobe Illustrator 28.2.0, SVG Export Plug-In . SVG Version: 6.00 Build 0)  -->
<svg version="1.1" id="Layer_1" xmlns="http://www.w3.org/2000/svg" xmlns:xlink="http://www.w3.org/1999/xlink" x="0px" y="0px"
	 viewBox="0 0 260 24" style="enable-background:new 0 0 260 24;" xml:space="preserve">
<style type="text/css">
	.st0{enable-background:new    ;}
	.st1{fill:#FFFFFF;}
</style>
<g>
	<g class="st0">
		<path class="st1" d="M38,8.1c-0.1,0.9-0.1,2,0,3l-0.2,0.1c-0.3-2.4-1.6-2.8-3.9-2.8c0,1.3,0,3.5,0,5.6c0,1.8,0,3.6,0,4.8
			c0.3,0.1,2,0.2,2.1,0.2v0.2c-0.6,0-2.2-0.1-3.1-0.1c-0.7,0-2.5,0-2.7,0.1V19c0.8,0,1.4-0.1,1.8-0.2c0-1.1,0-2.8,0-4.5
			c0-2.2,0-4.5,0-6c-2.5,0-3.1,0.9-3.8,2.8L28,11.1c0.5-1.4,0.4-2.4,0.4-3C30,8,32.3,8,33.1,8C33.8,8,37.1,8,38,8.1z"/>
		<path class="st1" d="M46.4,19v0.2c-0.8-0.1-1.1-0.1-1.7-0.1c-0.9,0-1.3,0-2,0.1V19c0.2,0,0.9-0.1,1.1-0.2c0-0.4,0-0.9,0-1.3
			c0-1.2,0-2.4,0-3.3c0-1.1-0.7-1.6-1.5-1.6c-0.7,0-1.2,0.3-1.7,0.8c-0.1,1.9-0.1,4.6-0.1,5.4c0.3,0.1,0.8,0.2,1.1,0.2v0.2
			c-0.8-0.1-1.1-0.1-1.7-0.1c-0.9,0-1.3,0-2,0.1V19c0.2,0,0.9-0.1,1.1-0.2c0-1,0-3.8,0-6.1c0-1.7,0-3.2,0-3.8c-0.4,0-0.7-0.1-1-0.2
			c-0.1,0-0.1-0.1-0.1-0.2c0.8-0.1,2-0.6,2.8-0.9l0.1,0.1c-0.2,0.9-0.1,4.7-0.2,5.6c0,0,0.1-0.1,0.1-0.2c0.2-0.5,1.1-1.7,2.5-1.7
			c1.8,0,2,1.6,2,2.3c0,0.5,0,1.9,0,3.3c0,0.7,0,1.3,0,1.8C45.7,18.8,46.1,19,46.4,19z"/>
		<path class="st1" d="M48.4,14.7c0,1.6,0.7,3.1,2.6,3.1c1.1,0,1.8-0.5,2-1.2c0.2,0,0.2,0.1,0.2,0.2c0,1.3-0.8,2.6-2.8,2.6
			c-2.3,0-3.5-2-3.5-4.1c0-1.9,1.2-3.9,3.8-3.9c2,0,2.6,1.1,2.6,2.5c-1.4,0-3.5-0.1-4.9-0.1C48.4,14,48.4,14.4,48.4,14.7z M52,13.2
			c0-0.8-0.3-1.5-1.3-1.5c-1.1,0-1.7,0.6-2.1,1.7C49.6,13.3,51.2,13.2,52,13.2z"/>
		<path class="st1" d="M61.6,13.9c0,1.8,0,3.7,0,4.9c0.6,0,2.8-0.2,3.8-0.7c0.7-0.4,1.2-1,1.8-2.4l0.1,0c-0.3,0.8-0.7,2.6-0.6,3.4
			c-0.6,0-1.4,0.1-2.1,0.1c-1.6,0-5.8-0.1-6.7-0.1V19c0.8,0,1.4-0.1,1.8-0.2c0-1.1,0-2.8,0-4.5c0-2.2,0-4.5,0-5.9
			c-0.3-0.1-1.3-0.2-1.8-0.2l0-0.2C58.8,8,59.8,8,60.7,8c0.9,0,1.7,0,2.6-0.1v0.2c-0.8,0-1.4,0.1-1.8,0.2
			C61.6,9.7,61.6,11.8,61.6,13.9z"/>
		<path class="st1" d="M75.2,15.3c0,2.3-1.4,4.1-3.9,4.1c-2.5,0-3.9-1.8-3.9-4.1c0-1.3,0.4-2.4,1.3-3.1c0.7-0.5,1.5-0.9,2.6-0.9
			C73.7,11.4,75.2,13,75.2,15.3z M69.1,15.4c0,1.6,0.4,3.8,2.1,3.8c1.7,0,2.2-2.2,2.2-3.8c0-1.5-0.5-3.7-2.2-3.7
			C69.6,11.7,69.1,13.9,69.1,15.4z"/>
		<path class="st1" d="M84.6,19v0.2c-0.8-0.1-1.1-0.1-1.7-0.1c-0.9,0-1.3,0-2,0.1V19c0.2,0,0.9-0.1,1.1-0.2c0-1.6,0-3.4,0-4.6
			c0-1.1-0.7-1.6-1.5-1.6c-0.7,0-1.3,0.3-1.7,0.8c-0.1,1.9,0,4.6-0.1,5.4c0.4,0.1,0.8,0.2,1.1,0.2v0.2c-0.8-0.1-1.1-0.1-1.7-0.1
			c-0.9,0-1.3,0-2,0.1V19c0.2,0,0.9-0.1,1.1-0.2c0-0.9-0.1-2-0.1-3.1c0-1.1,0-2.1,0-2.8c-0.4,0-0.7-0.1-1-0.2
			c-0.1,0-0.1-0.1-0.1-0.3c0.8-0.2,2-0.8,2.8-1.2l0.1,0.1c-0.1,0.2-0.1,0.9-0.2,1.8c0,0,0.1-0.1,0.1-0.2c0.2-0.5,1.1-1.7,2.6-1.7
			c1.7,0,2,1.6,2,2.3c0,1.2,0.1,2.4,0.1,3.6c0,0.4,0,1.1-0.1,1.6C83.9,18.9,84.3,19,84.6,19z"/>
		<path class="st1" d="M91.1,8.8c-0.4,0-0.9-0.1-1.3-0.2c-0.1,0-0.1-0.1-0.1-0.2c0.8-0.1,2-0.6,2.8-0.9l0.1,0.1c0,1.5,0,3,0,4.7
			c0,2,0,4.1-0.1,6.1c0.1-0.1,0.4-0.1,0.7-0.1c0,0,0.1,0.1,0.1,0.2c-0.4,0.1-1.5,0.7-2.1,1l-0.1-0.1c0-0.4,0.1-1.3,0.1-1.6
			c0-0.1,0-0.1-0.1-0.1c0,0-0.1,0-0.1,0.1c-0.2,0.9-1.4,1.8-2.7,1.8c-1.8,0-3.1-1.5-3.1-4.2c0-2.6,2-3.9,3.7-3.9c1,0,1.8,0.3,2,0.5
			C91.1,11.6,91.1,9.3,91.1,8.8z M91.1,13.1c0-0.8-0.8-1.4-1.8-1.4c-1.3,0-2.4,1.5-2.4,3.4c0,1.8,1.1,3,2.6,3c0.8,0,1.6-0.4,1.6-1.3
			V13.1z"/>
		<path class="st1" d="M102.3,15.3c0,2.3-1.4,4.1-3.9,4.1c-2.5,0-3.9-1.8-3.9-4.1c0-1.3,0.4-2.4,1.3-3.1c0.7-0.5,1.5-0.9,2.6-0.9
			C100.9,11.4,102.3,13,102.3,15.3z M96.2,15.4c0,1.6,0.4,3.8,2.1,3.8s2.2-2.2,2.2-3.8c0-1.5-0.5-3.7-2.2-3.7S96.2,13.9,96.2,15.4z"
			/>
		<path class="st1" d="M111.8,19v0.2c-0.8-0.1-1.1-0.1-1.7-0.1c-0.9,0-1.3,0-2,0.1V19c0.2,0,0.9-0.1,1.1-0.2c0-1.6,0-3.4,0-4.6
			c0-1.1-0.7-1.6-1.5-1.6c-0.7,0-1.3,0.3-1.7,0.8c-0.1,1.9,0,4.6-0.1,5.4c0.4,0.1,0.8,0.2,1.1,0.2v0.2c-0.8-0.1-1.1-0.1-1.7-0.1
			c-0.9,0-1.3,0-2,0.1V19c0.2,0,0.9-0.1,1.1-0.2c0-0.9-0.1-2-0.1-3.1c0-1.1,0-2.1,0-2.8c-0.4,0-0.7-0.1-1-0.2
			c-0.1,0-0.1-0.1-0.1-0.3c0.8-0.2,2-0.8,2.8-1.2l0.1,0.1c-0.1,0.2-0.1,0.9-0.2,1.8c0,0,0.1-0.1,0.1-0.2c0.2-0.5,1.1-1.7,2.6-1.7
			c1.7,0,2,1.6,2,2.3c0,1.2,0.1,2.4,0.1,3.6c0,0.4,0,1.1-0.1,1.6C111,18.9,111.5,19,111.8,19z"/>
		<path class="st1" d="M116.1,19.2l0-0.2c0.5,0,1.4-0.1,1.8-0.2c0-1.5,0-3.8,0-5.9c0-1.7,0-3.4,0-4.4c-0.3-0.1-0.9-0.2-1.8-0.2V8.1
			c0.9,0.1,4.4-0.1,5.3-0.1c5.2,0,6.8,2.4,6.8,5.5c0,3.8-2.5,5.6-6.8,5.6C120.5,19.1,117.1,19.1,116.1,19.2z M119.8,13.3
			c0,2,0,4,0,5.4c4.4-0.1,6.2-1.8,6.2-5.1c0-1.7-0.6-2.8-1.8-3.7c-1-0.8-2.3-1.4-4.4-1.4C119.8,9.6,119.8,11.5,119.8,13.3z"/>
		<path class="st1" d="M130.7,14.7c0,1.6,0.7,3.1,2.6,3.1c1.1,0,1.8-0.5,2-1.2c0.2,0,0.2,0.1,0.2,0.2c0,1.3-0.8,2.6-2.8,2.6
			c-2.3,0-3.5-2-3.5-4.1c0-1.9,1.2-3.9,3.8-3.9c2,0,2.6,1.1,2.6,2.5c-1.4,0-3.5-0.1-4.9-0.1C130.8,14,130.7,14.4,130.7,14.7z
			 M134.3,13.2c0-0.8-0.3-1.5-1.3-1.5c-1.1,0-1.7,0.6-2.1,1.7C132,13.3,133.6,13.2,134.3,13.2z"/>
		<path class="st1" d="M139.2,12.9c0.2-0.2,1.2-1.5,1.7-1.5c1.2,0,1.5,0.5,1.5,1.1c0,0.8-0.6,1.1-1,1.1c-0.1,0-0.2,0-0.3,0
			c-0.1-0.5-0.6-0.7-1-0.7c-0.5,0-0.9,0.2-0.9,0.6c0,1.9,0,4.7,0,5.5c0.4,0.1,0.9,0.2,1.3,0.2v0.2c-0.9-0.1-1.2-0.1-1.8-0.1
			c-0.9,0-1.3,0-2,0.1V19c0.2,0,0.9-0.1,1.1-0.2c0-1.2,0-2.8,0-4.1c0-0.6,0-1.1,0.1-1.5c-0.4,0-0.7-0.1-1.1-0.2
			c-0.1,0-0.1-0.1-0.1-0.3c0.7-0.3,1.9-1,2.5-1.5l0.1,0.1c0,0.4-0.1,1-0.1,1.6C139.1,13,139.1,12.9,139.2,12.9z"/>
		<path class="st1" d="M152.7,18.3c0-1.5,0-3,0-4.1s-0.6-1.6-1.4-1.6c-0.6,0-1.2,0.3-1.6,0.8c0,0.1,0,0.2,0,0.3c0,1.2,0,2.4,0,3.6
			c0,0.4,0,1,0,1.6c0.4,0.1,0.8,0.2,1.1,0.2v0.2c-0.8-0.1-1.1-0.1-1.7-0.1c-0.9,0-1.3,0-2,0.1V19c0.2,0,0.9-0.1,1.1-0.2
			c0-1.6,0-3.4,0-4.6c0-1.1-0.6-1.6-1.4-1.6c-0.6,0-1.2,0.3-1.6,0.8c0,1.6-0.1,3.9-0.1,5v0.4c0.4,0.1,0.8,0.2,1.1,0.2v0.2
			c-0.8-0.1-1.1-0.1-1.7-0.1c-0.9,0-1.3,0-2,0.1V19c0.2,0,0.8-0.1,1.1-0.2c0-1.2,0-2.8,0-4.2c0-0.6,0-1.2,0-1.6
			c-0.4,0-0.8-0.1-1.1-0.2c-0.1,0-0.1-0.1-0.1-0.3c0.8-0.3,2-0.8,2.7-1.3l0.1,0.1c-0.1,0.2-0.1,0.9-0.2,1.8c0,0,0.1-0.1,0.1-0.2
			c0.2-0.5,1.1-1.6,2.4-1.6c1.3,0,1.8,0.9,1.9,1.7c0,0,0.1-0.1,0.1-0.2c0.2-0.5,1-1.7,2.4-1.7c1.6,0,2,1.6,2,2.3
			c0,1.2,0.1,2.4,0.1,3.6c0,0.4,0,1,0,1.6c0.4,0.1,0.7,0.2,1,0.2v0.2c-0.8-0.1-1.1-0.1-1.7-0.1c-0.9,0-1.3,0-2,0.1V19
			c0.2,0,0.9-0.1,1.1-0.2V18.3z"/>
		<path class="st1" d="M156.9,14c-0.5,0-0.6-0.2-0.6-0.5c0-1,1.6-2.1,3-2.1c1.3,0,2.3,0.4,2.3,2c0,1.4-0.1,2.9-0.1,4.4
			c0,0.3,0.4,0.4,0.6,0.4c0.3,0,0.6-0.1,0.6-0.2c0,0,0,0.2,0,0.3c0,0.7-0.8,1.1-1.6,1.1c-0.6,0-1-0.3-1-1.5c0-0.2,0-0.3,0-0.3
			c0,0,0,0-0.1,0.1c-0.3,1-1.3,1.8-2.2,1.8c-1,0-1.7-0.9-1.7-1.8c0-1,0.3-1.3,1-1.6c0.8-0.4,1.9-0.7,2.9-0.9c0-0.6,0-1.1,0-1.6
			c0-1-0.4-1.4-1.3-1.4c-0.9,0-1.1,0.4-1.1,1.2c0,0.2,0,0.4,0,0.5S157.4,14,156.9,14z M157.8,17.1c0,0.7,0.4,1.2,1,1.2
			c0.8,0,1.3-0.6,1.3-1.3c0-0.4,0-1,0-1.7C158.5,15.6,157.8,16.2,157.8,17.1z"/>
		<path class="st1" d="M168.1,18c0,0.8-0.8,1.4-1.9,1.4c-1.3,0-2.2-0.6-2.2-1.8c0-0.6,0-1.7,0-2.6c0-0.8,0-1.6,0-2.1
			c-0.3,0-0.6,0.1-1,0.1c-0.1,0-0.1,0-0.1-0.2c0.4-0.2,2.5-1.9,2.5-2.5c0.1,0,0.3,0.1,0.3,0.2c0,0.3-0.1,0.9-0.1,1.4
			c0.6,0,2.1,0,2.5,0c0,0,0,0,0,0.1c0,0.1,0,0.3,0,0.6c0,0.3-0.1,0.4-0.2,0.4c-0.3,0-1.9,0-2.3,0c0,0.6,0,1.2,0,1.8
			c0,0.9,0,1.8,0,2.8c0,0.4,0.6,0.6,1.1,0.6c1,0,1.3-0.2,1.3-0.5C168.1,17.7,168.1,17.7,168.1,18z"/>
		<path class="st1" d="M176.6,15.3c0,2.3-1.4,4.1-3.9,4.1c-2.5,0-3.9-1.8-3.9-4.1c0-1.3,0.4-2.4,1.3-3.1c0.7-0.5,1.5-0.9,2.6-0.9
			C175.2,11.4,176.6,13,176.6,15.3z M170.5,15.4c0,1.6,0.4,3.8,2.1,3.8c1.7,0,2.2-2.2,2.2-3.8c0-1.5-0.5-3.7-2.2-3.7
			C171,11.7,170.5,13.9,170.5,15.4z"/>
		<path class="st1" d="M178.6,8.8c-0.4,0-0.7-0.1-1-0.2c-0.1,0-0.1-0.1-0.1-0.2c0.8-0.1,2-0.6,2.7-0.9l0.1,0.1
			c-0.1,1.7-0.1,3.9-0.1,6c0,2.4,0,4.6,0,5.2c0.3,0.1,0.8,0.2,1.1,0.2v0.2c-0.8-0.1-1.1-0.1-1.7-0.1c-0.9,0-1.3,0-2,0.1V19
			c0.2,0,0.9-0.1,1.1-0.2c0-1,0-3.2,0-5.4C178.5,12.7,178.6,9.2,178.6,8.8z"/>
		<path class="st1" d="M189.8,15.3c0,2.3-1.4,4.1-3.9,4.1c-2.5,0-3.9-1.8-3.9-4.1c0-1.3,0.4-2.4,1.3-3.1c0.7-0.5,1.5-0.9,2.6-0.9
			C188.3,11.4,189.8,13,189.8,15.3z M183.7,15.4c0,1.6,0.4,3.8,2.1,3.8c1.7,0,2.2-2.2,2.2-3.8c0-1.5-0.5-3.7-2.2-3.7
			C184.2,11.7,183.7,13.9,183.7,15.4z"/>
		<path class="st1" d="M198.4,11.2c0.5,0,0.8,0.3,0.8,0.8c0,0.3-0.2,0.6-0.5,0.6c-0.1-0.4-0.5-0.6-0.9-0.6c-0.4,0-0.8,0.2-0.8,0.6
			c0,0,0,0.1,0,0.1c0.1,0.3,0.2,0.6,0.2,1c0,1.4-1.2,2.3-2.8,2.3c-0.3,0-0.8,0-1.2,0c-0.3,0-0.6,0.4-0.6,0.7c0,0.2,0.1,0.5,0.4,0.5
			c0.2,0,1.6-0.2,2.5-0.2c2.1,0,2.9,1.2,2.9,2.6c0,1.9-1.9,3.1-4.4,3.1c-3,0-3.4-0.8-3.4-1.9c0-1.1,1.2-1.9,2.2-2.2
			c0.3-0.1,0.4-0.1,0.4-0.2h-0.5c-1.2,0-1.6-0.5-1.6-1.2c0-0.8,0.8-1.5,1.9-1.5c0.1,0,0.4,0,0.4,0c0,0-0.2-0.1-0.4-0.1
			c-0.9-0.2-1.7-1.1-1.7-2.1c0-1.3,1.3-2.3,2.9-2.3c0.9,0,1.9,0.4,2.5,1.1C197.3,11.5,197.9,11.2,198.4,11.2z M191.8,20.8
			c0,1.2,1,1.7,2.3,1.7c1.3,0,2.9-0.8,2.9-2.2c0-1.3-0.8-1.7-2.5-1.7c-0.5,0-1,0.2-1.6,0.6C192.5,19.3,191.8,19.9,191.8,20.8z
			 M193,13.6c0,1.3,0.7,2.2,1.5,2.2c0.8,0,1.2-0.9,1.2-2.2c0-1.1-0.6-2-1.4-2C193.5,11.7,193,12.6,193,13.6z"/>
		<path class="st1" d="M202.4,20.6c-0.4,0.9-1.3,2.7-2.8,2.7c-0.6,0-1.1-0.2-1.1-0.9c0-0.6,0.5-1,0.9-1c0.4,0,0.6,0.2,0.7,0.4
			c-0.1,0.1-0.1,0.2-0.1,0.3c0,0.3,0.2,0.5,0.4,0.5c0.5,0,1.3-0.8,1.8-3.7c-0.9-2.2-2-4.3-3-6.8c-0.3-0.2-0.6-0.2-0.9-0.2v-0.2
			c0.8,0.1,1.2,0.1,1.8,0.1c0.9,0,1.3,0,2-0.1v0.2c-0.2,0-0.9,0.1-1.1,0.1c0.6,1.3,1.7,4,1.8,4.4c0.3,0.9,0.3,1.2,0.3,1.2
			c0.1,0,0.1-0.3,0.3-1.2c0.3-0.9,0.8-2.7,1.5-4.2c-0.3-0.2-0.7-0.3-1.1-0.3v-0.2c0.6,0.1,0.9,0.1,1.6,0.1c0.9,0,1,0,1.7-0.1v0.2
			c-0.2,0-0.9,0.2-1.1,0.3C205,13.8,203.9,16.8,202.4,20.6z"/>
		<path class="st1" d="M217.3,19.3c-4.4,0-6.4-2.3-6.4-5.8c0-3.1,1.9-5.7,6.4-5.7c2.4,0,3.2,0.8,3.5,0.8c0.3,0,0.5-0.3,0.5-0.5
			c0-0.1,0-0.1,0.3-0.1c0,1.7,0.5,3.2,0.5,3.4c0,0.1,0,0.1-0.2,0.1c-0.8-2.3-2.5-3.2-4.5-3.2c-2.5,0-4.5,2.5-4.5,5.3
			c0,2.9,2.1,5.4,4.7,5.4c2.4,0,4.1-1.3,4.8-3.5c0.2,0,0.2,0.1,0.2,0.2c0,0.2-0.5,1.6-0.6,3.4c-0.2,0-0.3,0-0.3-0.1
			c0-0.3-0.2-0.5-0.5-0.5C220.5,18.4,219.7,19.3,217.3,19.3z"/>
		<path class="st1" d="M224.7,14.7c0,1.6,0.7,3.1,2.6,3.1c1.1,0,1.8-0.5,2-1.2c0.2,0,0.2,0.1,0.2,0.2c0,1.3-0.8,2.6-2.8,2.6
			c-2.3,0-3.5-2-3.5-4.1c0-1.9,1.2-3.9,3.8-3.9c2,0,2.6,1.1,2.6,2.5c-1.4,0-3.5-0.1-4.9-0.1C224.7,14,224.7,14.4,224.7,14.7z
			 M228.2,13.2c0-0.8-0.3-1.5-1.3-1.5c-1.1,0-1.7,0.6-2.1,1.7C225.9,13.3,227.5,13.2,228.2,13.2z"/>
		<path class="st1" d="M238.9,19v0.2c-0.8-0.1-1.1-0.1-1.7-0.1c-0.9,0-1.3,0-2,0.1V19c0.2,0,0.9-0.1,1.1-0.2c0-1.6,0-3.4,0-4.6
			c0-1.1-0.7-1.6-1.5-1.6c-0.7,0-1.3,0.3-1.7,0.8c-0.1,1.9,0,4.6-0.1,5.4c0.4,0.1,0.8,0.2,1.1,0.2v0.2c-0.8-0.1-1.1-0.1-1.7-0.1
			c-0.9,0-1.3,0-2,0.1V19c0.2,0,0.9-0.1,1.1-0.2c0-0.9-0.1-2-0.1-3.1c0-1.1,0-2.1,0-2.8c-0.4,0-0.7-0.1-1-0.2
			c-0.1,0-0.1-0.1-0.1-0.3c0.8-0.2,2-0.8,2.8-1.2l0.1,0.1c-0.1,0.2-0.1,0.9-0.2,1.8c0,0,0.1-0.1,0.1-0.2c0.2-0.5,1.1-1.7,2.6-1.7
			c1.7,0,2,1.6,2,2.3c0,1.2,0.1,2.4,0.1,3.6c0,0.4,0,1.1-0.1,1.6C238.1,18.9,238.6,19,238.9,19z"/>
		<path class="st1" d="M244.4,18c0,0.8-0.8,1.4-1.9,1.4c-1.3,0-2.2-0.6-2.2-1.8c0-0.6,0-1.7,0-2.6c0-0.8,0-1.6,0-2.1
			c-0.3,0-0.6,0.1-1,0.1c-0.1,0-0.1,0-0.1-0.2c0.4-0.2,2.5-1.9,2.5-2.5c0.1,0,0.3,0.1,0.3,0.2c0,0.3-0.1,0.9-0.1,1.4
			c0.6,0,2.1,0,2.5,0c0,0,0,0,0,0.1c0,0.1,0,0.3,0,0.6c0,0.3-0.1,0.4-0.2,0.4c-0.3,0-1.9,0-2.3,0c0,0.6,0,1.2,0,1.8
			c0,0.9,0,1.8,0,2.8c0,0.4,0.6,0.6,1.1,0.6c1,0,1.3-0.2,1.3-0.5C244.3,17.7,244.4,17.7,244.4,18z"/>
		<path class="st1" d="M247.6,12.9c0.2-0.2,1.2-1.5,1.7-1.5c1.2,0,1.5,0.5,1.5,1.1c0,0.8-0.6,1.1-1,1.1c-0.1,0-0.2,0-0.3,0
			c-0.1-0.5-0.6-0.7-1-0.7c-0.5,0-0.9,0.2-0.9,0.6c0,1.9,0,4.7,0,5.5c0.4,0.1,0.9,0.2,1.3,0.2v0.2c-0.9-0.1-1.2-0.1-1.8-0.1
			c-0.9,0-1.3,0-2,0.1V19c0.2,0,0.9-0.1,1.1-0.2c0-1.2,0-2.8,0-4.1c0-0.6,0-1.1,0.1-1.5c-0.4,0-0.7-0.1-1.1-0.2
			c-0.1,0-0.1-0.1-0.1-0.3c0.7-0.3,1.9-1,2.5-1.5l0.1,0.1c0,0.4-0.1,1-0.1,1.6C247.5,13,247.6,12.9,247.6,12.9z"/>
		<path class="st1" d="M252.4,14.7c0,1.6,0.7,3.1,2.6,3.1c1.1,0,1.8-0.5,2-1.2c0.2,0,0.2,0.1,0.2,0.2c0,1.3-0.8,2.6-2.8,2.6
			c-2.3,0-3.5-2-3.5-4.1c0-1.9,1.2-3.9,3.8-3.9c2,0,2.6,1.1,2.6,2.5c-1.4,0-3.5-0.1-4.9-0.1C252.5,14,252.4,14.4,252.4,14.7z
			 M256,13.2c0-0.8-0.3-1.5-1.3-1.5c-1.1,0-1.7,0.6-2.1,1.7C253.7,13.3,255.3,13.2,256,13.2z"/>
	</g>
	<path class="st1" d="M22.6,13.8c-0.2-1.2-2.3-5.6-4-7.6c-1.5-1.7-2.8-3.8-3.9-3.8s-1.2,0.5-1.2,0.5s-10.6,9.4-12,11.9
		c-1.9,3.5,2.2,5.8,3.8,6.5c4.1,1.8,6.3,2,8.6,2c2.2,0,5.2-0.9,7.2-2.7C23.1,18.8,22.9,15,22.6,13.8z M19.2,18.7
		c-1.5,1.4-3.6,2.1-5.2,2.1s-3.3,0-6.2-1.6c-2.8-1.6-4.1-2.5-3.2-4.6c0.9-2,9.1-9.9,9.1-9.9s0.4-0.4,0.8-0.4c0.8,0,2.3,1.3,3.3,2.7
		c1.2,1.6,2.3,5.5,2.4,6.5C20.6,14.6,20.7,17.4,19.2,18.7z"/>
</g>
</svg>
