<?xml version="1.0" encoding="utf-8"?>
<!-- Generator: Adobe Illustrator 28.2.0, SVG Export Plug-In . SVG Version: 6.00 Build 0)  -->
<svg version="1.1" id="Layer_1" xmlns="http://www.w3.org/2000/svg" xmlns:xlink="http://www.w3.org/1999/xlink" x="0px" y="0px"
	 viewBox="0 0 166.6 186.7" style="enable-background:new 0 0 166.6 186.7;" xml:space="preserve">
<style type="text/css">
	.st0{opacity:0.12;fill:url(#SVGID_1_);enable-background:new    ;}
	.st1{clip-path:url(#SVGID_00000149364258091111316190000011692634725129364111_);}
	.st2{fill:#263238;}
	.st3{fill:#FF735D;}
	.st4{fill:#D69056;}
	.st5{fill:#B4463F;}
	.st6{fill:#AE6D39;}
	.st7{fill:#375A64;}
	.st8{fill:url(#SVGID_00000039095927715200947730000011314126703742897285_);}
	.st9{fill:#FFFFFF;}
</style>
<g>
	<linearGradient id="SVGID_1_" gradientUnits="userSpaceOnUse" x1="-3.428466e-04" y1="103.3522" x2="166.5981" y2="103.3522">
		<stop  offset="0" style="stop-color:#5F74B1"/>
		<stop  offset="0.2466" style="stop-color:#7A90D2"/>
		<stop  offset="0.4903" style="stop-color:#8FA6EB"/>
		<stop  offset="0.7125" style="stop-color:#9CB3FA"/>
		<stop  offset="0.8936" style="stop-color:#A0B7FF"/>
	</linearGradient>
	<circle class="st0" cx="83.3" cy="103.4" r="83.3"/>
	<g>
		<defs>
			<path id="SVGID_00000132775668686310041110000016083679617304995003_" d="M21.6,3.1c32.5-32.5,88.1,8.8,120.6,41.3
				s32.5,85.3,0,117.8s-85.3,32.5-117.8,0S-10.9,35.6,21.6,3.1z"/>
		</defs>
		<clipPath id="SVGID_00000120548276197582104330000000796298435079163551_">
			<use xlink:href="#SVGID_00000132775668686310041110000016083679617304995003_"  style="overflow:visible;"/>
		</clipPath>
		<g style="clip-path:url(#SVGID_00000120548276197582104330000000796298435079163551_);">
			<g>
				<g>
					<g>
						<g>
							<g>
								<path class="st2" d="M78.7,13.4c-1.3-1.9-3.5-3.1-5.8-3.2c-0.9,0-2,0.1-2.7-0.5c-0.5-0.4-0.7-1.1-1.1-1.7
									c-1.1-1.8-3.7-2.3-5.4-1c-0.4,0.3-0.7,0.7-1.2,0.9c-1.9,0.7-3.4-3-5.3-2.3c0.7,0.5,1.4,1.1,1.7,1.9c0.3,0.8,0.1,1.9-0.6,2.3
									c-1.9,1.2-4.1-2.5-6.2-1.6c-1.1,0.5-1.5,2.2-2.7,2.3c-0.5,0-0.9-0.2-1.4-0.3c-1.5-0.4-3.3,0.6-3.7,2.1
									c-0.3,1.3,0.1,3-1.1,3.8c-0.7,0.5-1.6,0.2-2.4,0c-0.2,1.2-0.1,2.5,0.3,3.6c-2.4,0.9-3.6,3.9-2.6,6.2
									c-1.2,0.7-2.4,1.4-3.2,2.4c-0.8,1.1-1.2,2.6-0.6,3.8c0.1,0.3,0.3,0.5,0.4,0.8c0.1,0.3,0,0.7-0.1,1c-0.4,1.2-1.2,2.3-1.3,3.6
									c-0.2,1.3,0.6,2.8,1.8,2.9c0.3,0,0.6,0,0.9,0.2c0.2,0.2,0.2,0.4,0.2,0.6c0,0.9-0.3,1.8-0.6,2.7c-0.3,0.9-0.4,1.9,0,2.7
									c0.4,0.8,1.6,1.3,2.3,0.6c-0.6,1.4-1.2,2.7-1.7,4.1c-0.3,0.8-0.7,1.8-0.2,2.5c0.7,0.9,2.2,0.5,3-0.3c0.8-0.9,1.1-2,1.9-2.9
									c0.3-0.3,0.7-0.6,0.9-1c0.2-0.3,0.3-0.7,0.6-0.9c0.6-0.4,1.4,0.5,1.2,1.3c-0.2,0.7-0.9,1.2-1.4,1.7
									c-0.6,0.5-1.1,1.3-0.8,1.9c0.1,0.3,0.4,0.6,0.6,0.9c0.4,1.2-1.3,2-1.7,3.2c-0.3,0.9,0.3,1.8,0.8,2.5
									c0.7,0.9,2.1,1.8,2.7,0.9c0.2-0.3,0.2-0.7,0.4-1.1c0.2-0.4,0.6-0.6,1-0.9c0.9-0.6,1.7-1.5,2.1-2.6c-1.1,1-2.3,2.4-1.9,3.8
									c0.2,0.6,0.7,1.1,1,1.6c0.7,1,1.1,2.2,1.8,3.3c0.7,1,2,1.8,3.1,1.4c-0.6,1.1-0.2,2.6,0.7,3.4c1,0.8,2.5,0.8,3.4,0.1
									c0.3-0.2,0.5-0.5,0.9-0.5c0.4-0.1,0.7,0.1,1.1,0.2c2.1,0.7,4.5,0.1,6.1-1.4c-0.3-0.2-0.7-0.4-1-0.6c2.2,0.1,4.5,0.1,6.4-0.9
									c2-0.9,3.5-3.2,2.9-5.3c-0.3-0.9-0.9-1.9-0.4-2.7c0.3-0.6,1-0.7,1.7-0.9c2.7-0.5,5.4-1,8-1.5c1.3-0.2,2.7-0.5,3.7-1.4
									s1.3-2.6,0.3-3.5c0.8-1.1,1.9-1.9,3.1-2.5c1.4-0.6,2.9-0.7,4.3-1.2s2.8-1.6,2.9-3.1s-1.7-2.9-2.9-2c0.5-2.2,4.5-1.7,5.2-3.9
									c0.6-1.7-1.6-3-2.6-4.6c0.3-0.6,1-0.9,1.4-1.5c0.7-1.2-0.4-2.7-1.6-3.5c-1.2-0.8-2.6-1.6-2.7-3.1c-0.1-1.4,1.3-2.8,0.8-4.2
									c-0.3-0.7-1.3-1.1-2-0.8c-0.6-2.7-5.7-1.5-6.8-4.1c-0.1-0.2-0.1-0.4-0.1-0.6c0.4-0.1,0.5-0.3,0.6-0.4
									c0.7-0.6,1.6-0.9,2.4-1.3c0.8-0.4,1.5-1.3,1.3-2.2s-1.8-1.1-1.9-0.2c-0.8-1-2.5-0.8-3.1,0.3c-0.5-0.8-1.7-1-2.6-0.7
									c-0.9,0.4-1.6,1.1-2.2,1.9"/>
							</g>
						</g>
						<g>
							<g>
								<path class="st3" d="M62.2,39.9c1.4-3.5,4.7-6,8.1-7.7c1.4-0.7,3-1.4,4.5-1.3c1.6,0,3.3,0.9,3.8,2.4l-0.7,2.6
									c-0.4,4.2-4.3,7.2-6.5,10.8c-1,1.6-1.9,3.5-3.7,3.9c-0.9,0.2-1.9-0.1-2.8-0.5C61.7,48.1,60.8,43.4,62.2,39.9z"/>
							</g>
						</g>
						<g>
							<g>
								<path class="st2" d="M58.4,59.1c-1.8-3.6-0.5-8.4,2.8-10.5c-1.2-2.2,0-5.1,1.9-6.7c1.9-1.6,4.4-2.2,6.9-2.8
									c2.3-5.4,9.4-8.1,14.7-5.7c3.7-3.7,10.1-3.2,14.8-0.8c1.1,0.6,2.3,1.3,3.5,1.5c0.9,0.2,1.9,0.1,2.8,0.2
									c5.2,0.3,9.5,4.8,10.6,9.9c0.2,0.8,0.3,1.7,0.6,2.4c0.5,1,1.4,1.7,2.1,2.5c1.6,1.8,2.3,4.2,1.9,6.6c-0.3,2-1.3,3.9-0.8,5.9
									c0.2,1,0.8,1.8,1,2.8c0.4,2.9-3.1,5.1-3.1,8c0,0.6,0.2,1.2,0.2,1.8c0.1,1.2-0.3,2.4-1,3.4c-0.6,0.8-1.4,1.4-1.6,2.3
									c-0.2,0.7,0,1.4,0,2.1c0,1.7-4.8,7.5-6.5,8.1l-43.2-8c-3.1-1.3-5.2-4.8-4.9-8.2c0.1-0.6,0.2-1.2-0.1-1.7
									c-0.2-0.4-0.7-0.7-1-1c-2.5-2-2.1-5.9-1.2-9c0.1-0.4,0.3-0.9,0.2-1.3C59,60.2,58.7,59.6,58.4,59.1z"/>
							</g>
						</g>
						<g>
							<g>
								<g>
									<path class="st4" d="M70.7,61.5c1.4-7.7,7.8-15.5,16.2-17.8c5.2-1.4,9-0.7,11.5-0.5c5.8,0.4,9.8,4.1,9.8,4.1
										c2.3,1,9.4,10.7,8.2,19.4c-1.4,9.7-3.4,21.5-6,28.5c-5.2,13.9-16.7,13.5-16.7,13.5l-1.1,10.2l-30.9-6.7L70.7,61.5z"/>
								</g>
							</g>
							<g>
								<path class="st5" d="M89.2,88.7c0.2-0.7,0.7-1.4,1.3-1.7c1.2-0.8,2.8-0.6,3.8,0.3c1,1,1.4,2.7,1,4.2l0,0
									c-0.8,0.8-1.9,1.2-3,1.2c-0.2,0-0.3,0-0.5-0.1c-0.8-0.1-1.6-0.6-2.2-1.3C89.2,90.6,89,89.6,89.2,88.7z"/>
							</g>
							<g>
								<g>
									<g>
										<g>
											<g>
												<g>
													<g>
														<g>
															<path class="st6" d="M111.2,78c-0.3,0.2-1.5-1.1-3.5-1.5s-3.6,0.3-3.8,0c-0.1-0.1,0.2-0.5,1-0.8
																c0.7-0.3,1.9-0.6,3.1-0.3c1.2,0.3,2.2,0.9,2.7,1.5C111.2,77.4,111.3,77.9,111.2,78z"/>
														</g>
													</g>
												</g>
											</g>
										</g>
									</g>
								</g>
							</g>
							<g>
								<g>
									<g>
										<g>
											<g>
												<g>
													<g>
														<path class="st6" d="M97.1,84.9c0-0.1,1.3-0.1,3.3,0.1c0.5,0.1,1,0,1.2-0.3s0.1-0.9,0-1.6c-0.2-1.3-0.5-2.7-0.7-4.2
															c-1-5.9-1.5-10.8-1.3-10.8s1.2,4.7,2.2,10.7c0.2,1.5,0.4,2.8,0.6,4.2c0.1,0.6,0.3,1.3-0.1,2c-0.2,0.4-0.6,0.5-1,0.6
															c-0.3,0-0.6,0-0.9-0.1C98.3,85.3,97.1,85,97.1,84.9z"/>
													</g>
												</g>
											</g>
										</g>
									</g>
								</g>
							</g>
							<g>
								<g>
									<g>
										<g>
											<g>
												<g>
													<g>
														<g>
															<path class="st6" d="M84.6,72.6c0.2,0.3,1.8-0.5,3.8-0.2c2,0.3,3.3,1.6,3.6,1.4c0.1-0.1,0-0.6-0.6-1.1
																c-0.6-0.6-1.6-1.2-2.8-1.4c-1.2-0.2-2.4,0.1-3.1,0.5C84.8,72.1,84.5,72.5,84.6,72.6z"/>
														</g>
													</g>
												</g>
											</g>
										</g>
									</g>
								</g>
							</g>
							<g>
								<g>
									<g>
										<g>
											<g>
												<g>
													<path class="st4" d="M70.2,75.6c0.2-1.1-0.5-3.9-1.5-4.2c-2.7-1-7.9-1.8-9.4,5.3c-2.1,9.8,8.2,9.9,8.3,9.6
														C67.6,86.1,69.5,79.3,70.2,75.6z"/>
												</g>
											</g>
										</g>
									</g>
								</g>
							</g>
						</g>
						<g>
							<g>
								<g>
									<g>
										<path class="st2" d="M118.5,67.4c-1.7-1.6-2.6-3.6-2-5.9c-1.4,0.1-2.4-1.8-2.9-3.1s-1.4-2.1-1-3.4
											c0.1-0.3,0.1-0.6,0.1-0.8c-0.1-0.4-0.6-0.6-0.9-0.8c-2-1.1-3.3-3.2-3.4-5.5c-2.3,0.5-4.7,0.4-7-0.3
											c-1.3,1.3-3.3,1.8-5.1,1.3c-1.8-0.4-3.3-1.8-3.8-3.6c-0.8,1.1-2.3,1.6-3.7,1.7c-1.4,0.1-2.8-0.3-4.1-0.6
											c0,2.8-2.3,5.4-5,5.6c-0.4,0-0.8,0.1-1,0.4s-0.1,0.7-0.1,1.1c0.4,2.4-1.7,4.9-4.1,5c1.4,1.6,0.6,4.4-1.4,5.1
											c-0.4,0.1-0.9,0.3-0.9,0.7c0,0.2,0.1,0.3,0.1,0.5c0.5,1.1,1,2.3,0.9,3.6c-0.2,1.2-1.3,2.4-2.5,2.2c0.5,0.7,1,1.5,0.8,2.4
											s-1.2,1.5-1.9,1.1c-0.3-0.2-5-2.2-5.2-2.5c-2-4.3,2.3-7.8,3.6-12.4c1.2-4.6,3.8-8.8,7-12.4c1.3-1.5,2.8-2.9,4.5-4
											c1.9-1.3,4.1-2.1,6.2-2.9c2.8-1,5.7-2.1,8.6-2.1c5.6-0.2,10.7,2.9,15.1,6.2c1.7,1.3,3.4,2.6,4.7,4.2
											c1.6,2,2.5,4.4,3.3,6.8c1.1,3.5,1.9,7.1,1.5,10.8"/>
									</g>
								</g>
							</g>
						</g>
						<g>
							<g>
								<g>
									<g>
										<g>
											<path class="st7" d="M57.9,58.1c0.1,0.4,0.3,0.7,0.5,1.1c0.2,0.3,0.4,0.7,0.5,1s0.2,0.7,0.2,1s-0.1,0.7-0.2,1
												c-0.4,1.3-0.6,2.6-0.7,3.7c0,1.1,0.1,2.2,0.4,3c0.3,0.8,0.8,1.5,1.2,1.9s0.9,0.7,1.1,0.9c0.2,0.2,0.3,0.4,0.3,0.4
												s-0.1-0.2-0.3-0.4c-0.2-0.2-0.6-0.5-1-0.9s-0.9-1.1-1.2-1.9s-0.4-1.9-0.4-3c0.1-1.1,0.3-2.4,0.7-3.7
												c0.1-0.3,0.2-0.7,0.2-1c0-0.4,0-0.8-0.2-1.1c-0.1-0.4-0.3-0.7-0.5-1s-0.3-0.7-0.4-1.1c-0.5-1.5-0.5-3.3,0-5
												s1.6-3.4,3.2-4.4l0.1-0.1l-0.1-0.1c-0.5-1-0.6-2.2-0.2-3.3c0.3-1.1,1-2.2,1.9-3s2-1.4,3.2-1.9s2.5-0.8,3.8-1.1h0.1V39
												c1.1-2.5,3.3-4.5,5.9-5.6c2.6-1.1,5.8-1.2,8.6,0h0.1l0.1-0.1c0.1-0.1,0.3-0.3,0.4-0.4c1.5-1.3,3.5-2,5.4-2.2
												c1-0.1,2-0.1,2.9,0.1c1,0.1,1.9,0.3,2.8,0.6c0.9,0.3,1.8,0.6,2.6,1c0.8,0.4,1.7,0.9,2.5,1.3c0.4,0.2,0.9,0.3,1.3,0.4
												c0.5,0.1,0.9,0.1,1.4,0.1s0.9,0,1.3,0s0.9,0.1,1.3,0.2c0.9,0.1,1.7,0.4,2.5,0.8c0.8,0.4,1.5,0.8,2.1,1.3
												c1.3,1,2.4,2.3,3.2,3.6c0.8,1.3,1.3,2.8,1.6,4.2c0.1,0.7,0.3,1.4,0.6,2.1c0.3,0.7,0.8,1.2,1.3,1.6
												c0.5,0.5,0.9,0.9,1.3,1.4s0.7,1,0.9,1.6c0.5,1.1,0.7,2.2,0.7,3.3s-0.3,2-0.5,2.9s-0.5,1.7-0.5,2.4c-0.1,0.8,0,1.4,0.2,2
												c0.2,0.5,0.4,1,0.6,1.3c0.2,0.4,0.2,0.6,0.3,0.8c0.1,0.2,0.1,0.3,0.1,0.3s0-0.4-0.3-1.2c-0.1-0.4-0.4-0.8-0.5-1.4
												c-0.2-0.5-0.3-1.2-0.2-1.9c0.1-0.7,0.3-1.5,0.5-2.4s0.5-1.9,0.5-2.9c0-1.1-0.2-2.2-0.7-3.4c-0.2-0.6-0.5-1.1-0.9-1.6
												s-0.8-1-1.3-1.5s-0.9-1-1.2-1.6c-0.3-0.6-0.4-1.3-0.6-2c-0.3-1.4-0.8-2.9-1.6-4.3c-0.8-1.4-1.9-2.7-3.2-3.7
												c-0.7-0.5-1.4-1-2.2-1.4c-0.8-0.4-1.6-0.7-2.5-0.8c-0.4-0.1-0.9-0.1-1.3-0.2c-0.5,0-0.9,0-1.4,0c-0.9,0-1.8-0.2-2.6-0.5
												c-0.8-0.4-1.6-0.8-2.5-1.3c-0.9-0.4-1.8-0.8-2.7-1.1c-0.9-0.3-1.9-0.5-2.9-0.6s-2-0.1-3-0.1c-2,0.2-4,0.9-5.6,2.3
												c-0.2,0.1-0.3,0.3-0.5,0.4h0.2c-2.8-1.3-6.1-1.1-8.8,0c-2.7,1.1-5,3.2-6.1,5.8l0.1-0.1c-1.3,0.3-2.6,0.6-3.8,1.1
												c-1.2,0.5-2.4,1.1-3.3,1.9c-0.9,0.9-1.6,2-2,3.1c-0.3,1.2-0.3,2.5,0.3,3.5v-0.2c-1.7,1.1-2.8,2.8-3.3,4.6"/>
										</g>
									</g>
								</g>
							</g>
						</g>
						<g>
							<g>
								<g>
									<g>
										<g>
											<path class="st7" d="M89.7,32.1c0,0,0.3-0.1,0.8-0.2s1.3-0.3,2.3-0.2s2.1,0.4,3.1,1.1s1.9,1.9,2.4,3.3
												c0.1,0.4,0.2,0.8,0.3,1.2c0,0.4,0,0.8-0.3,1L98,38.6h0.4c1.2-0.1,2.2,0.3,3,1c0.7,0.6,1.1,1.5,1.3,2.2
												c0.2,0.7,0.1,1.3,0.1,1.7c-0.1,0.4-0.1,0.6-0.1,0.6s0,0,0.1-0.1c0-0.1,0.1-0.2,0.1-0.4c0.1-0.4,0.2-1,0-1.8
												c-0.1-0.7-0.5-1.6-1.3-2.3c-0.8-0.7-1.9-1.2-3.2-1.1l0.1,0.3c0.4-0.3,0.4-0.8,0.4-1.3c0-0.4-0.1-0.9-0.3-1.3
												c-0.5-1.5-1.4-2.6-2.5-3.4c-1.1-0.8-2.3-1.1-3.3-1.1c-1-0.1-1.8,0.1-2.3,0.3c-0.3,0.1-0.5,0.2-0.6,0.2
												C89.8,32.1,89.7,32.1,89.7,32.1z"/>
										</g>
									</g>
								</g>
							</g>
						</g>
						<g>
							<g>
								<g>
									<g>
										<g>
											<path class="st7" d="M71.5,40.2c0,0,0.1,0.2,0.3,0.4c0.2,0.3,0.5,0.6,1,1c0.5,0.4,1.1,0.8,1.8,1c0.8,0.2,1.7,0.2,2.6-0.2
												L77,42.3c0.1,0.2,0.1,0.3,0.2,0.5s0.2,0.3,0.3,0.5c0.6,0.9,1.3,1.6,2.1,2c0.8,0.5,1.6,0.7,2.3,0.8c0.7,0.1,1.2,0,1.6,0
												c0.4-0.1,0.6-0.2,0.6-0.2c0-0.1-0.8,0.2-2.2,0c-0.7-0.1-1.4-0.4-2.2-0.8c-0.8-0.4-1.5-1.1-2-1.9
												c-0.1-0.1-0.2-0.3-0.2-0.4c-0.1-0.1-0.1-0.3-0.2-0.4l-0.1-0.2L77,42.1c-0.8,0.4-1.7,0.4-2.4,0.2
												c-0.7-0.2-1.3-0.5-1.8-0.9C71.9,40.7,71.5,40.1,71.5,40.2z"/>
										</g>
									</g>
								</g>
							</g>
						</g>
						<g>
							<g>
								<g>
									<g>
										<g>
											<path class="st7" d="M64.5,48.2c0,0,0,0.1,0,0.2c0,0.1,0,0.3,0.1,0.5c0.2,0.4,0.6,1,1.4,1.4c0.8,0.4,1.8,0.4,2.9,0.3
												c0.5-0.1,1.1-0.2,1.7-0.3s1.2-0.4,1.6-1l0.1-0.1h-0.2c0.8,0.9,1.6,1.8,2.6,2.3c0.9,0.6,1.9,0.8,2.7,0.8
												c0.8,0,1.5-0.2,1.9-0.4c0.2-0.1,0.3-0.2,0.4-0.3c0.1-0.1,0.1-0.1,0.1-0.1s-0.2,0.1-0.6,0.3c-0.4,0.2-1,0.4-1.8,0.3
												c-0.8,0-1.7-0.3-2.6-0.9c-0.9-0.6-1.7-1.4-2.5-2.3L72,48.8L71.9,49l-0.1,0.1c-0.3,0.5-0.9,0.7-1.4,0.8s-1.1,0.2-1.6,0.3
												c-1,0.2-2,0.1-2.7-0.2s-1.2-0.8-1.3-1.2C64.5,48.5,64.5,48.2,64.5,48.2z"/>
										</g>
									</g>
								</g>
							</g>
						</g>
						<g>
							<g>
								<g>
									<g>
										<g>
											<path class="st7" d="M61,11c0,0,0.2,0,0.4,0.2c0.3,0.1,0.7,0.4,1,0.9s0.5,1.2,0.4,2s-0.5,1.7-0.9,2.6l-0.1,0.1H62
												c1.1,0.2,2.3,0.8,3.2,1.7c0.9,1,1.4,2.4,1.2,3.8c-0.2,1.3-1,2.5-2.1,3l-0.4,0.2l0.4,0.1c1.5,0.4,2.7,1.4,3.4,2.5
												s0.8,2.3,0.6,3.3c-0.1,1-0.5,1.7-0.8,2.1c-0.3,0.4-0.5,0.7-0.5,0.7s0.1,0,0.2-0.1c0.1-0.1,0.2-0.3,0.4-0.5
												c0.3-0.4,0.7-1.1,0.9-2.1c0.2-1,0.1-2.2-0.6-3.4c-0.7-1.2-1.9-2.2-3.6-2.5v0.3c1.2-0.6,2-1.8,2.3-3.2
												c0.1-0.8,0.1-1.5-0.2-2.2c-0.2-0.7-0.6-1.3-1.1-1.8c-1-1-2.2-1.6-3.4-1.8l0.1,0.2c0.4-0.9,0.8-1.8,0.9-2.7
												c0.1-0.9-0.1-1.6-0.4-2.1c-0.3-0.5-0.7-0.8-1-0.9c-0.2-0.1-0.3-0.1-0.4-0.1C61.1,11,61,11,61,11z"/>
										</g>
									</g>
								</g>
							</g>
						</g>
						<g>
							<g>
								<g>
									<g>
										<g>
											<path class="st7" d="M39.2,28.8c0,0,0,0,0.1,0.1s0.2,0.2,0.4,0.3c0.4,0.3,1,0.6,1.9,0.8c0.9,0.2,1.9,0.4,3.2,0.3
												c1.2-0.1,2.6-0.6,3.8-1.5l-0.2-0.1c0.6,1.6,1.9,3.3,3.8,3.9c2,0.7,4.3-0.1,5.4-1.6l-0.3-0.1c0.1,0.7,0.4,1.4,0.8,1.9
												c0.4,0.5,0.9,0.9,1.4,1.2c1,0.6,2.1,0.8,2.9,0.9c0.9,0.1,1.5,0.1,2,0.1c0.5,0,0.7,0,0.7,0s-0.2,0-0.7,0s-1.1,0-2-0.2
												c-0.8-0.1-1.8-0.3-2.8-1c-1-0.6-1.9-1.6-2.1-3v-0.4l-0.2,0.3c-1,1.4-3.2,2.1-5.1,1.5c-1.8-0.6-3.1-2.2-3.6-3.7l-0.1-0.2
												l-0.2,0.1c-1,1.1-2.3,1.5-3.5,1.7c-1.2,0.2-2.2,0-3.1-0.2C40,29.4,39.2,28.7,39.2,28.8z"/>
										</g>
									</g>
								</g>
							</g>
						</g>
						<g>
							<g>
								<g>
									<g>
										<g>
											<path class="st7" d="M46.6,45.2c0,0,0,0.1,0.1,0.2c0.1,0.1,0.2,0.3,0.5,0.4c0.5,0.2,1.3,0.2,2.2,0.1
												c0.9-0.2,2-0.6,2.9-1.6c0.9-0.9,1.5-2.3,1.5-3.8l0,0l-0.2,0.1c1.2,0.9,2.6,1.3,3.8,1.3c1.3,0,2.4-0.3,3.2-0.7
												c0.9-0.4,1.5-0.9,1.9-1.2s0.6-0.6,0.6-0.6c0-0.1-0.8,0.8-2.5,1.6c-0.8,0.4-1.9,0.7-3.1,0.6c-1.2,0-2.5-0.4-3.6-1.3
												l-0.2-0.2v0.3l0,0c0,1.4-0.6,2.7-1.4,3.6c-0.8,0.9-1.9,1.4-2.8,1.6c-0.9,0.2-1.7,0.1-2.2,0
												C46.7,45.5,46.6,45.2,46.6,45.2z"/>
										</g>
									</g>
								</g>
							</g>
						</g>
						<g>
							<g>
								<g>
									<g>
										<g>
											<path class="st7" d="M82.4,15.7c-0.1,0,0.3,1.2-0.2,3.1c-0.2,0.9-0.7,2-1.6,2.9c-0.9,0.9-2.1,1.7-3.5,2
												c-0.8,0.2-1.6,0.2-2.4,0.1h-0.2V24c0.1,1.2,0,2.3-0.3,3.2c-0.3,1-0.7,1.8-1.1,2.4c-0.2,0.3-0.4,0.6-0.6,0.8
												c-0.2,0.2-0.4,0.3-0.6,0.3s-0.3-0.1-0.4-0.2s-0.1-0.1-0.1-0.1s0,0.1,0,0.2s0.2,0.2,0.4,0.3c0.2,0,0.5-0.1,0.7-0.3
												c0.2-0.2,0.4-0.5,0.6-0.8c0.4-0.6,0.9-1.4,1.2-2.4c0.3-1,0.4-2.1,0.3-3.3l-0.2,0.2c0.8,0.1,1.6,0.1,2.5-0.1
												c1.5-0.3,2.8-1.1,3.7-2.1c0.9-1,1.4-2.1,1.6-3.1s0.2-1.8,0.1-2.3c0-0.3-0.1-0.5-0.1-0.6C82.5,15.8,82.4,15.7,82.4,15.7z"
												/>
										</g>
									</g>
								</g>
							</g>
						</g>
					</g>
					<g>
						<path class="st2" d="M95.3,92c0.1,0.1-0.8,0.8-2.4,1c-0.4,0-0.9,0.1-1.4,0s-1.1-0.3-1.5-0.7c-0.4-0.4-0.8-0.9-1-1.5
							s-0.4-1.2-0.3-2c0.1-0.7,0.4-1.3,0.8-1.8s0.9-0.9,1.5-1.1c0.7-0.1,1.2,0,1.7,0.1s0.9,0.3,1.2,0.5c0.7,0.3,1.3,0.6,1.6,0.9
							c0.4,0.3,0.5,0.5,0.5,0.5c0,0.1-0.3,0-0.7-0.2c-0.5-0.2-1.1-0.3-1.7-0.6c-0.4-0.1-0.7-0.2-1.2-0.3c-0.4-0.1-0.9-0.1-1.2,0
							c-0.3,0.1-0.7,0.4-1,0.8s-0.5,0.9-0.6,1.4c-0.1,0.9,0.3,2,0.9,2.6s1.5,0.7,2.2,0.7C94.3,92.3,95.2,91.9,95.3,92z"/>
					</g>
				</g>
			</g>
			<g>
				<g>
					<path class="st4" d="M120.1,129.7c0,0,5.3,7.3,8.5,23.7c3.2,16.4,7.3,35.4-1.2,41.2c-4.5,3.1-15.9-11.4-15.9-11.4l-3.3-34.2
						l-3.2-10.2L120.1,129.7z"/>
					
						<linearGradient id="SVGID_00000067204272250720061410000017601755801725927604_" gradientUnits="userSpaceOnUse" x1="21.6" y1="39.9559" x2="136.2" y2="39.9559" gradientTransform="matrix(1 0 0 -1 5.788817e-06 208.1044)">
						<stop  offset="0" style="stop-color:#DEEAFE"/>
						<stop  offset="1" style="stop-color:#A1C3FC"/>
					</linearGradient>
					<path style="fill:url(#SVGID_00000067204272250720061410000017601755801725927604_);" d="M117.4,159.4l18.8-6.6
						c0,0-17-35.9-25.5-40.5c-5.7-2.4-14.1-1.3-14.1-1.3c-9,9.7-23.2,4.8-35.1-4.7c-0.9-0.2-21.3,3.7-25.9,7.4
						c-10.5,8.3-14,50.9-14,50.9l21.3-2.9l-0.8,33.4l-3.1,4.6c-1.1,1.6-0.6,3.8,1.2,4.8l45.2,25.6l22.2-22.1c2.4-2.4,1.8-6.4-1.2-8
						l0,0l9.8-42.3L117.4,159.4z"/>
					<g>
						<path class="st2" d="M65,202.5c0,0,0.1,0,0.4,0s0.7,0.1,1.2,0.1c0.5,0.1,1.1,0.1,1.9,0.2c0.7,0.1,1.6,0.2,2.5,0.2
							c1.8,0.2,4.1,0.3,6.5,0.3s5.1,0,8-0.2c2.8-0.2,5.5-0.5,7.9-0.8s4.6-0.7,6.4-1.1c0.9-0.2,1.7-0.4,2.4-0.5
							c0.7-0.2,1.3-0.3,1.8-0.4c0.5-0.1,0.9-0.2,1.2-0.3c0.3-0.1,0.4-0.1,0.4-0.1s-0.1,0.1-0.4,0.1c-0.3,0.1-0.7,0.2-1.1,0.3
							c-0.5,0.1-1.1,0.3-1.8,0.5c-0.7,0.2-1.5,0.4-2.4,0.6c-1.8,0.4-4,0.8-6.4,1.2c-2.4,0.3-5.1,0.6-7.9,0.8s-5.5,0.2-8,0.2
							c-2.5-0.1-4.7-0.2-6.5-0.4c-0.9-0.1-1.8-0.2-2.5-0.3s-1.4-0.2-1.9-0.3s-0.9-0.1-1.2-0.2C65.1,202.6,65,202.5,65,202.5z"/>
					</g>
				</g>
				<g>
					<path class="st4" d="M49.4,172.7c-0.6,0.6-7.6,11.6-7.6,17s1.6,15.6,10,13.4c8.4-2.2,12.7-10.7,19.2-24.7s20.2-41.1,20.2-41.1
						l-12.9-7.6L49.4,172.7z"/>
					<path class="st4" d="M53,164.6l-0.6-5.9L27.6,162c0.8,6.9,2.6,16.2,3.7,20.2c2.8,10,9.6,23.5,18.9,20.5
						C59.5,199.6,53,164.6,53,164.6z"/>
					<path class="st4" d="M105.4,132l22.2,40.9c0,0,9.5,14.2-1.5,22s-20.7-14.4-24.2-22.9s-9.3-32.9-9.3-32.9L105.4,132z"/>
				</g>
				<g>
					<g>
						<g>
							<path class="st2" d="M124.5,285.2c-2.1-10.5-4.4-26.5-4.4-26.5s-2.7-16.8-3.4-23.7c-0.8-8-8.1-31.3-8.1-31.3
								c-17.8,15.9-69.3-0.3-69.3-0.3c-18.2,27-21.1,61.1-19.5,81.8h50.4l1.1-12.5l3.2,12.5H124.5z"/>
						</g>
					</g>
				</g>
				<g>
					<path class="st7" d="M65.6,214.7c0,0,0,0.1-0.2,0.4c-0.1,0.2-0.3,0.6-0.5,1c-0.5,0.9-1.3,2-2.5,3.4c-2.3,2.7-6.4,5.6-11.5,7.5
						c-5.1,1.8-10,2.4-13.5,2.7c-1.8,0.1-3.2,0.2-4.2,0.2c-0.5,0-0.8,0-1.1,0c-0.3,0-0.4,0-0.4,0s0.1,0,0.4-0.1
						c0.3,0,0.7-0.1,1.1-0.1c1-0.1,2.4-0.2,4.2-0.3c3.5-0.3,8.4-0.9,13.4-2.8c5-1.8,9.1-4.7,11.4-7.3c1.2-1.3,2-2.4,2.5-3.3
						C65.3,215.1,65.6,214.6,65.6,214.7z"/>
				</g>
				<g>
					<path class="st7" d="M85.3,216.5c0,0,0,0.2,0,0.4c0,0.3-0.1,0.7-0.1,1.2c-0.1,1.1-0.3,2.7-0.5,4.5c-0.4,3.9-1,9.1-1.6,15
						c-0.7,5.8-1.3,11.2-2,14.9c-0.4,1.9-0.7,3.4-1,4.5c-0.1,0.5-0.3,0.9-0.3,1.2c-0.1,0.3-0.1,0.4-0.1,0.4s0-0.2,0.1-0.4
						c0.1-0.3,0.2-0.7,0.3-1.2c0.2-1.1,0.6-2.6,0.9-4.5c0.7-3.8,1.2-9.1,1.9-14.9c0.7-5.8,1.3-11.1,1.7-15c0.2-1.9,0.4-3.4,0.6-4.5
						c0.1-0.5,0.1-0.9,0.2-1.2C85.3,216.7,85.3,216.5,85.3,216.5z"/>
				</g>
				<g>
					<path class="st7" d="M114.7,224.9c0,0-0.3,0-0.8,0c-0.3,0-0.6,0-1,0s-0.8,0-1.3-0.1c-0.9-0.1-2-0.4-3.2-0.8
						c-1.2-0.4-2.4-1-3.7-1.7c-1.2-0.7-2.3-1.6-3.2-2.4c-0.9-0.9-1.6-1.7-2.2-2.5c-0.3-0.4-0.5-0.7-0.7-1.1
						c-0.2-0.3-0.4-0.6-0.5-0.8c-0.2-0.5-0.4-0.7-0.3-0.7s0.6,1,1.7,2.5c0.6,0.7,1.3,1.5,2.2,2.4c0.9,0.8,2,1.6,3.2,2.4
						c1.2,0.7,2.4,1.3,3.6,1.7s2.2,0.7,3.1,0.8C113.6,224.9,114.7,224.9,114.7,224.9z"/>
				</g>
			</g>
			<g>
				<path class="st9" d="M72.3,105.3c0,0,17-20.4,18.7-21.6c3.4-2.4,10.1-2.9,12.3-1.1c1.3,1.1,15.5,13.7,15.5,13.7l-4.3,8.9
					l-16,12.2L72.3,105.3z"/>
			</g>
			<g>
				<path class="st4" d="M101.1,91.6c0.8-0.1,1.6,0.3,2.1,1c2.1,3.2,9.5,15,10,17.5c0.6,2.9-1.7,3.8-1.7,3.8s0.8,4.2-2.4,6
					c0,0,0.7,3-2.4,4.8l-0.7,8.4L92.6,139l-0.9-3l3.2-7.8l2.7-10.1l-0.8-14.8c0,0-0.1-3.4,2.2-2.7c0,0-1.9-2.6-0.7-4.4
					c0.7-1.1,2.1-0.7,2.1-0.7s-1.2-1.9-0.5-3.2C100.2,91.9,100.6,91.7,101.1,91.6z"/>
				<g>
					<path class="st4" d="M86.6,92.4c0,0-9.7,16-10.4,19.3c-0.7,3.2,1.2,18.7,1.2,18.7l13.4,7.2c0,0,4.7-6.9,5.3-12.8
						c0.6-5.9,0.7-8.7,0.7-8.7s2.5-11.6,1.3-12.9s-1.9-1-1.9-1s3-5.7,2.2-7.4c-0.8-1.6-2.3-1.7-2.3-1.7s0.4-2.1-1.2-2.8
						c-1.8-0.8-3.3,1.6-3.3,1.6S89,88.4,86.6,92.4z"/>
					<g>
						<path class="st5" d="M91.7,113.2c0,0,0-0.1,0-0.2c0-0.2,0.1-0.4,0.2-0.6c0.2-0.5,0.4-1.3,0.8-2.3c0.7-2,1.8-4.7,3.3-8V102h0.1
							c0.5-0.1,1,0,1.5,0.3s0.8,0.8,0.9,1.3c0.2,1.1,0,2.1,0,3.3c-0.2,2.2-0.6,4.5-1,6.9c-0.1,0.5-0.2,1-0.3,1.5l0,0
							c-0.3,3.3-0.7,6.4-1,9.2c0,0.4-0.1,0.7-0.1,1s-0.1,0.7-0.2,1s-0.2,0.6-0.2,1c-0.1,0.3-0.2,0.6-0.3,0.9
							c-0.4,1.2-0.9,2.3-1.3,3.2c-0.9,1.9-1.7,3.4-2.3,4.4c-0.3,0.5-0.5,0.9-0.7,1.2s-0.3,0.4-0.3,0.4s0.1-0.1,0.2-0.4
							c0.2-0.3,0.4-0.7,0.7-1.2c0.6-1,1.4-2.5,2.2-4.5c0.4-1,0.9-2,1.2-3.2c0.4-1.2,0.7-2.5,0.8-3.9c0.3-2.8,0.6-5.9,0.9-9.2l0,0
							l0,0c0.1-0.5,0.2-1,0.3-1.5c0.4-2.4,0.8-4.7,1-6.9c0.1-1.1,0.2-2.2,0.1-3.1c-0.1-0.5-0.4-0.9-0.8-1.1s-0.9-0.3-1.3-0.3
							l0.1-0.1c-1.5,3.2-2.6,6-3.4,7.9c-0.4,0.9-0.6,1.7-0.9,2.3c-0.1,0.2-0.2,0.4-0.2,0.6C91.7,113.1,91.7,113.2,91.7,113.2z"/>
					</g>
				</g>
			</g>
		</g>
	</g>
</g>
</svg>
