<?xml version="1.0" encoding="utf-8"?>
<!-- Generator: Adobe Illustrator 25.4.8, SVG Export Plug-In . SVG Version: 6.00 Build 0)  -->
<svg version="1.1" id="Layer_1" xmlns="http://www.w3.org/2000/svg" xmlns:xlink="http://www.w3.org/1999/xlink" x="0px" y="0px"
	 viewBox="0 0 166.6 166.2" style="enable-background:new 0 0 166.6 166.2;" xml:space="preserve">
<style type="text/css">
	.st0{opacity:0.18;}
	.st1{fill:url(#SVGID_1_);}
	.st2{clip-path:url(#SVGID_00000018205943348463080910000002766361087377454265_);}
	.st3{fill:#FBBD9D;}
	.st4{fill:#FF9C6A;}
	.st5{fill:#263238;}
	.st6{fill:#FF735D;}
	.st7{fill:#375A64;}
	.st8{opacity:0.43;}
	.st9{fill:#F99799;}
	.st10{opacity:0.83;}
	.st11{filter:url(#Adobe_OpacityMaskFilter);}
	.st12{mask:url(#SVGID_00000085932056347470575520000011902866757103455896_);}
</style>
<g>
	<g class="st0">
		<linearGradient id="SVGID_1_" gradientUnits="userSpaceOnUse" x1="9.094947e-13" y1="83.098" x2="166.6" y2="83.098">
			<stop  offset="0" style="stop-color:#5F74B1"/>
			<stop  offset="0.2466" style="stop-color:#7A90D2"/>
			<stop  offset="0.4903" style="stop-color:#8FA6EB"/>
			<stop  offset="0.7125" style="stop-color:#9CB3FA"/>
			<stop  offset="0.8936" style="stop-color:#A0B7FF"/>
		</linearGradient>
		<circle class="st1" cx="83.3" cy="83.1" r="83.3"/>
	</g>
	<g>
		<defs>
			<circle id="SVGID_00000154386296837646463420000009673944567350529938_" cx="83.3" cy="82.6" r="82.7"/>
		</defs>
		<clipPath id="SVGID_00000104695632085495719350000005744552327268259515_">
			<use xlink:href="#SVGID_00000154386296837646463420000009673944567350529938_"  style="overflow:visible;"/>
		</clipPath>
		<g style="clip-path:url(#SVGID_00000104695632085495719350000005744552327268259515_);">
			<g>
				<g>
					<path class="st3" d="M187,142.6c-10.1-9.7-23-15.9-36.8-18.4c-13.6-2.5-30.5-6.9-32.8-14.5c-3.5-11.5-1.5-27.5-1.5-27.5
						l-54.2-7.3c0,0-4.4,32.5-12.7,39.4c-8.2,6.8-34.7,11.9-40.3,16.5c-5.6,4.5-32.2,40-32.2,40s19.6,58.9,20.6,66.8
						c0.9,7.9,15.6,81.5,15.6,92.3c-0.1,10.8-9,28.4-9,28.4h158.2l-9.6-31.8c1.2-3.1,18.7-109.2,22.2-122.8c0.2,0.3,0.4,0.5,0.5,0.6
						l18.4-53.2C192.7,148.6,190.2,145.6,187,142.6z"/>
				</g>
				<g>
					<g>
						<g>
							<path class="st4" d="M84.7,330.4c-0.2,0-0.6-19.2-0.9-43c-0.3-23.7-0.4-43-0.2-43c0.2,0,0.6,19.2,0.9,43
								C84.8,311.2,84.9,330.4,84.7,330.4z"/>
						</g>
					</g>
				</g>
				<g>
					<g>
						<g>
							<path class="st4" d="M67.7,191.6c0,0,0,0.8-0.1,2.3c0,0.7-0.1,1.6-0.3,2.6c-0.2,1-0.3,2.2-0.6,3.5c-0.3,1.3-0.6,2.7-1,4.2
								c-0.4,1.5-1,3-1.6,4.7c-1.3,3.2-2.9,6.7-5,10.1c-2.1,3.4-4.5,6.4-6.9,8.9c-1.2,1.2-2.3,2.4-3.5,3.4c-1.1,1.1-2.3,1.9-3.3,2.7
								c-1,0.8-2,1.5-2.9,2.1c-0.8,0.6-1.6,1.1-2.3,1.4c-1.3,0.7-2,1.1-2,1.1c0,0,0.6-0.5,1.9-1.3c0.6-0.4,1.4-0.9,2.2-1.5
								c0.8-0.6,1.8-1.3,2.8-2.1c1-0.8,2.1-1.7,3.2-2.8c1.1-1,2.3-2.2,3.4-3.4c2.3-2.5,4.6-5.5,6.8-8.9c2.1-3.4,3.7-6.8,5-9.9
								c0.6-1.6,1.2-3.1,1.6-4.6c0.5-1.5,0.8-2.8,1.1-4.1c0.3-1.3,0.5-2.4,0.7-3.4c0.2-1,0.3-1.9,0.4-2.6
								C67.5,192.4,67.7,191.6,67.7,191.6z"/>
						</g>
					</g>
				</g>
				<g>
					<g>
						<path class="st3" d="M152.5,125.5c0,0,43.1,6.5,52.5,35.5c11.1,34.4,30.1,166,27.3,182c-0.4,2.4-2.5,15.1-2.5,15.1h-46.2
							l1.7-23c0,0-17.5-100.4-18.5-106.8c-1-6.5-6.8-6.4-6.8-6.4L152.5,125.5z"/>
					</g>
					<g>
						<g>
							<path class="st4" d="M175.2,184.3c0,0,0,0.3,0,0.8c0,0.5-0.1,1.3-0.2,2.2c-0.2,1.9-0.4,4.6-0.8,7.9c-0.7,6.7-1.9,15.9-3.5,26
								c-1.6,10.1-3.3,19.2-4.7,25.8c-0.7,3.3-1.3,5.9-1.7,7.8c-0.2,0.9-0.4,1.6-0.5,2.1c-0.1,0.5-0.2,0.7-0.2,0.7
								c0,0,0-0.3,0.1-0.7c0.1-0.5,0.2-1.2,0.4-2.1c0.4-1.9,0.9-4.5,1.5-7.8c1.3-6.6,3-15.7,4.6-25.8c1.6-10.1,2.8-19.3,3.6-25.9
								c0.4-3.3,0.7-6,0.9-7.9c0.1-0.9,0.2-1.6,0.3-2.1C175.2,184.5,175.2,184.3,175.2,184.3z"/>
						</g>
					</g>
				</g>
				<g>
					<g>
						<path class="st3" d="M23,124.9c0,0-48.4,8.6-64.1,37.3c-17.3,31.7-28.3,162.6-25.6,178.6c0.4,2.4,2.8,17.3,2.8,17.3h46
							l-1.9-25.2c0,0,17.5-100.4,18.5-106.8s6.8-6.4,6.8-6.4L23,124.9z"/>
					</g>
					<g>
						<g>
							<path class="st4" d="M-11.5,184.7c0,0,0.1,0.3,0.1,0.8c0.1,0.6,0.2,1.3,0.3,2.3c0.2,2,0.6,4.8,1.1,8.3c1,7,2.5,16.6,4.4,27.2
								c1.9,10.6,3.6,20.2,4.7,27.2c0.6,3.5,1,6.3,1.3,8.3c0.1,0.9,0.2,1.7,0.3,2.3c0.1,0.5,0.1,0.8,0.1,0.8c0,0-0.1-0.3-0.2-0.8
								c-0.1-0.6-0.2-1.3-0.4-2.2c-0.3-2-0.8-4.8-1.4-8.2c-1.2-7-3-16.6-4.8-27.1c-1.9-10.6-3.3-20.2-4.2-27.3
								c-0.4-3.5-0.7-6.3-0.9-8.3c-0.1-0.9-0.1-1.7-0.2-2.3C-11.5,185-11.5,184.7-11.5,184.7z"/>
						</g>
					</g>
				</g>
			</g>
			<g>
				<g>
					<g>
						<path class="st3" d="M151.8,58.6c3.2-16.7,7.7-67.5,1.1-67.5L78.3,38.5C70,58.2,58.1,101,58.1,101l65.8,18.5
							c-5.4-6.7-7.7-13.1-6.1-19.2c0,0,7.3-1.1,10.5-1.7c6.1-1.2,13.4-8.9,16.1-14.5C147,78.9,151.4,60.7,151.8,58.6z"/>
					</g>
				</g>
				<g>
					<g>
						<path class="st5" d="M132.8,35.1c2.5-1.1,5.4-1.2,8-0.3c1.6,0.6,2.5,1.4,3.2,3.3c1.1,3.1,1.4,6.5,0.9,9.7
							c-0.1,0.9-0.3,2,0.5,2.7c0.8,0.7,2,0.7,2.9,0c1.5-1.1,1.7-3,1.8-4.8c0.6-9.2,3.5-21.2,4.1-30.4l0,0c0.2-0.9,0.3-1.8,0.5-2.8
							c1.9-12.7,2.1-21.4-4.7-36.3c-6.8-14.9-27.6-22.2-38.9-24.9c-11.3-2.6-26.2-1-42.6,7.7C51.9-32.2,44-1.5,44-1.5
							s-2.2,5.1-2,19.2c0.1,14.1,0.9,14.9,7.6,35.8c6.7,20.9,17.3,25,17.3,25l35-1.6c6.4-2.2,10.3-8.6,12.6-14.8
							c2.4-6.2,4.3-12.2,7.3-17.3C121.8,44.8,125.2,38.3,132.8,35.1z"/>
					</g>
				</g>
				<g>
					<g>
						<path class="st6" d="M52.1-32.1c8-3.5,15.8-2.5,21.2,4.7c4.5,6.1,6.8,12.9,4.9,20.4C76.4,0.3,69.4,6.4,61.8,6.3
							C57.1,6.2,52.6,4,49.2,0.8c-5.1-4.8-7.9-12-7-18.9C43.3-24.9,45.5-30.1,52.1-32.1"/>
					</g>
				</g>
				<g>
					<g>
						<path class="st5" d="M75.3-11.7c-3.6-9.3-7.2-19-18.2-22c-18.3-6.3-24.6-3.2-33.4,1c-5.2,2.5-10.1,11.6-11.7,17.2
							C10.3-9.1,12.2-2,16.2,3.2c4.1,5.3,10.1,8.7,16.6,10.4c1.6,0.4,3.4,0.7,4.7,1.8c2.7,2.2,2.4,6.6,0.4,9.4s-5.4,4.3-8.5,5.8
							c8.8,3.6,19.8,0.4,25.3-7.4c0.1,4.5-1.7,9.1-4.7,12.4c9.4-3.4,17.8-9.8,22.8-18.4C77.6,8.5,78.9-2.4,75.3-11.7z"/>
					</g>
				</g>
				<g>
					<g>
						<g>
							<path class="st7" d="M57.1-33.7c0,0,0.1,0,0.4,0.1c0.3,0.1,0.7,0.2,1.1,0.3c1,0.3,2.5,0.9,4.2,1.9c1.7,1,3.6,2.6,5.4,4.9
								c1.7,2.2,3.4,5.1,4.8,8.4c0.7,1.6,1.4,3.4,2.1,5.2c0.7,1.8,1.4,3.7,1.8,5.8C77.8-3,78,1.6,77,6.3c-0.9,4.7-2.8,9.4-5.7,13.6
								c-2.9,4.2-6.8,8-11.4,11c-3.1,2.1-6.5,3.7-9.9,4.9l-1.4,0.5l1-1.1c3.1-3.4,4.7-7.9,4.7-12.1l0.6,0.2
								c-3.2,4.5-7.9,7.2-12.6,8.3c-4.7,1.1-9.3,0.7-13.1-0.9l-0.6-0.2l0.6-0.2c3.6-1.6,6.9-3.3,8.6-5.9c1.7-2.6,1.7-5.6,0.7-7.5
								c-1.1-1.9-3-2.4-4-2.8c-0.5-0.2-1-0.3-1.3-0.4c-0.3-0.1-0.4-0.1-0.4-0.1c0,0,0.2,0,0.5,0.1c0.3,0.1,0.7,0.2,1.3,0.3
								c0.6,0.1,1.3,0.3,2.1,0.7c0.8,0.4,1.6,1.1,2.2,2c1.2,2,1.2,5.2-0.6,7.9c-1.8,2.8-5.2,4.6-8.8,6.2l0-0.5
								c3.7,1.5,8.2,1.9,12.7,0.8c4.5-1.1,9.1-3.8,12.2-8.1l0.6-0.9l0,1c0.1,4.4-1.6,9.1-4.8,12.6l-0.4-0.6c3.3-1.2,6.6-2.8,9.7-4.8
								c4.5-2.9,8.3-6.7,11.2-10.8c2.9-4.2,4.8-8.8,5.7-13.4c0.9-4.6,0.8-9.1,0-13.1c-0.4-2-1.1-3.9-1.8-5.7
								c-0.7-1.8-1.4-3.5-2.1-5.2c-1.4-3.3-3-6.1-4.6-8.3c-1.7-2.2-3.5-3.8-5.2-4.9C59.3-33.2,57-33.5,57.1-33.7z"/>
						</g>
					</g>
				</g>
				<g>
					<g>
						<g>
							<path class="st7" d="M71.9-11.5c0,0,0,0.1-0.1,0.3c-0.1,0.2-0.2,0.5-0.4,0.9c-0.3,0.8-0.9,1.9-1.6,3.3
								c-1.5,2.7-4,6.7-8.3,10.5c-2.1,1.9-4.7,3.7-7.8,5.1c-3.1,1.4-6.6,2.3-10.3,2.5c-3.8,0.2-7.8-0.4-11.5-2.2
								C28.1,7,24.8,4,22.6,0.2C20.4-3.6,19.4-8,20-12.1c0.5-4.1,2.7-7.7,5.2-10.5c2.6-2.8,5.6-4.8,8.7-6.2c3-1.4,6-2.3,8.8-2.8
								c5.6-0.9,10.3-0.4,13.3,0.4c0.8,0.2,1.5,0.4,2,0.5c0.6,0.2,1.1,0.3,1.5,0.5c0.4,0.1,0.6,0.3,0.9,0.3c0.2,0.1,0.3,0.1,0.3,0.1
								c0,0-0.1,0-0.3-0.1c-0.2-0.1-0.5-0.2-0.9-0.3c-0.4-0.1-0.9-0.3-1.5-0.4c-0.6-0.2-1.3-0.3-2-0.5C53-31.5,48.3-32,42.8-31
								c-2.8,0.5-5.7,1.4-8.7,2.8c-3,1.4-5.9,3.4-8.4,6.1c-2.5,2.7-4.5,6.1-5,10.1c-0.5,3.9,0.4,8.2,2.5,11.8
								c2.1,3.7,5.3,6.6,8.9,8.2c3.6,1.7,7.5,2.3,11.2,2.2c3.7-0.1,7.1-1,10.1-2.3c3-1.3,5.6-3.1,7.7-4.9c4.3-3.7,6.8-7.5,8.4-10.2
								c0.8-1.4,1.3-2.4,1.7-3.2c0.2-0.3,0.3-0.6,0.4-0.8C71.8-11.4,71.8-11.5,71.9-11.5z"/>
						</g>
					</g>
				</g>
				<g>
					<g>
						<g>
							<path class="st7" d="M75.7-14.2c0,0,0.3-0.1,0.9-0.2c0.6-0.1,1.4-0.3,2.5-0.3c2.2-0.2,5.4-0.4,9.4-0.1
								c7.9,0.5,18.8,3.4,29.4,9.1c10.7,5.8,19.3,12.7,25.4,17.7c3,2.5,5.5,4.6,7.1,6.1c0.8,0.7,1.4,1.3,1.9,1.7
								c0.4,0.4,0.6,0.6,0.6,0.6c0,0-0.3-0.2-0.7-0.5c-0.5-0.4-1.2-0.9-2-1.6c-1.8-1.5-4.3-3.5-7.3-5.9C136.9,7.5,128.3,0.7,117.7-5
								c-10.6-5.7-21.3-8.6-29.2-9.2c-3.9-0.4-7.1-0.3-9.3-0.2c-1.1,0-2,0.2-2.5,0.2C76.1-14.2,75.7-14.1,75.7-14.2z"/>
						</g>
					</g>
				</g>
				<g>
					<g>
						<g>
							<path class="st7" d="M152.9-15.6c0,0-0.3,0-0.8-0.2c-0.6-0.2-1.3-0.4-2.1-0.7c-0.9-0.3-2-0.7-3.4-1.1
								c-1.3-0.4-2.8-0.9-4.5-1.3c-1.7-0.5-3.5-1-5.5-1.4c-2-0.5-4.1-0.9-6.4-1.3c-4.5-0.8-9.5-1.4-14.8-1.7
								c-5.3-0.3-10.4-0.2-14.9,0.1C98.2-23.2,96-23,94-22.7c-2,0.2-3.9,0.5-5.6,0.8c-1.7,0.2-3.3,0.6-4.6,0.8
								c-1.4,0.2-2.5,0.5-3.5,0.7c-0.9,0.2-1.6,0.4-2.2,0.5c-0.5,0.1-0.8,0.1-0.8,0.1c0,0,0.2-0.1,0.7-0.3c0.6-0.2,1.3-0.4,2.2-0.6
								c0.9-0.3,2.1-0.6,3.5-0.8c1.4-0.3,2.9-0.7,4.6-0.9c1.7-0.3,3.6-0.6,5.6-0.9c2-0.3,4.2-0.5,6.5-0.7c4.6-0.3,9.7-0.4,15-0.1
								c5.3,0.3,10.4,1,14.9,1.8c2.3,0.5,4.4,0.9,6.4,1.4c2,0.5,3.8,1,5.5,1.5c1.7,0.5,3.2,1,4.5,1.4c1.3,0.4,2.4,0.9,3.3,1.2
								c0.8,0.3,1.5,0.6,2.1,0.8C152.7-15.7,152.9-15.6,152.9-15.6z"/>
						</g>
					</g>
				</g>
				<g>
					<g>
						<g>
							<path class="st4" d="M118.9,77.1c0.1,0-0.2,1.8-0.5,4.7c-0.4,2.9-0.8,6.9-1,11.4c-0.2,4.5,0,8.5,0.3,11.4
								c0.3,2.9,0.5,4.7,0.4,4.7c0,0-0.2-0.4-0.3-1.2c-0.2-0.8-0.4-2-0.6-3.4c-0.4-2.9-0.7-7-0.5-11.5c0.2-4.5,0.7-8.5,1.2-11.4
								c0.3-1.4,0.5-2.6,0.7-3.4C118.7,77.5,118.8,77.1,118.9,77.1z"/>
						</g>
					</g>
				</g>
				<g>
					<g>
						<g>
							<path class="st4" d="M129.8,67.7c0,0-0.4,0-1.1-0.4c-0.6-0.4-1.4-1.2-1.9-2.5c-0.5-1.3-0.6-2.9-0.7-4.6
								c-0.1-1.7-0.1-3.6,0-5.6c0.2-3.9,0.2-7.6,1.2-10.1c0.4-1.3,1.1-2.1,1.6-2.7c0.5-0.5,0.9-0.7,0.9-0.6c0.1,0.1-1.4,1-2.1,3.5
								c-0.8,2.4-0.8,6-0.9,10c0,2,0,3.8,0,5.6c0,1.7,0.1,3.2,0.5,4.4c0.4,1.2,1,2,1.6,2.5C129.5,67.5,129.8,67.7,129.8,67.7z"/>
						</g>
					</g>
				</g>
				<g>
					<g>
						<g>
							<path class="st4" d="M134,51.3c0,0-0.1-0.4-0.1-1c0-0.7,0.1-1.6,0.3-2.8c0.1-0.6,0.3-1.2,0.6-1.8c0.3-0.6,0.6-1.4,1.2-1.9
								c0.3-0.3,0.8-0.5,1.3-0.5c0.5,0,0.9,0.2,1.3,0.5c0.8,0.6,1,1.6,1.3,2.4c0.2,0.9,0.3,1.8,0.1,2.7c-0.1,0.9-0.8,1.7-1.5,2.1
								c-0.7,0.4-1.4,0.6-1.8,1.1c-0.4,0.4-0.5,1-0.5,1.6c0.1,1.1,0.7,1.8,1.1,2.2c0.5,0.4,0.8,0.6,0.7,0.7c0,0-0.4-0.1-0.9-0.5
								c-0.5-0.4-1.3-1.1-1.5-2.4c-0.1-0.6,0.1-1.4,0.5-2c0.5-0.6,1.3-0.9,1.9-1.3c1.3-0.7,1.4-2.5,1-4.1c-0.2-0.8-0.5-1.6-1-2.1
								c-0.5-0.5-1.3-0.5-1.8-0.1c-0.5,0.4-0.8,1.1-1.1,1.7c-0.3,0.6-0.5,1.2-0.7,1.7C134.1,49.9,134.1,51.4,134,51.3z"/>
						</g>
					</g>
				</g>
			</g>
			<g>
				<g class="st8">
					<path class="st9" d="M91.9,96.1c-1.6-2.7-5-3.7-8-2.8c-2.4,0.8-4.5,2.4-6.1,4.4c-1.5,2-2.4,4.3-3.2,6.6c-0.6,1.7-0.7,3.5,0.2,5
						c0.8,1.4,2.2,2.3,3.7,2.8c1.1,0.4,2.3,0.5,3.4,0.8c1.2,0.3,2.4,0.8,3.6,1.3c-0.3-0.1-0.5-0.2-0.8-0.3c1.2,0.5,2.3,1.1,3.4,1.7
						c1.4,0.8,2.9,1.6,4.6,1.6c1.6,0.1,3.1-0.7,4.4-1.5c1.3-0.8,2.4-1.8,3.3-3c2.1-3.1,0.7-6.8-1.6-9.3c-0.4-0.4-0.8-0.8-1.1-1.2
						c-0.2-0.2-0.4-0.4-0.6-0.6c-0.2-0.2-0.4-0.6-0.6-0.7c0.4,0.3,0.4,0.5,0.1,0.2c-0.1-0.1-0.2-0.2-0.2-0.4
						c-0.1-0.2-0.2-0.4-0.4-0.6c-0.3-0.5-0.6-1.1-0.9-1.6c-1.6-2.7-4.2-4.2-7.3-4.4c-2.7-0.1-5.5,1.1-7.3,3.1
						c-0.9,0.9-1.6,2-2.2,3.1c-0.8,1.7-1.4,3.5-0.9,5.4c0.6,2.1,2.7,3.8,4.9,3.6c2.4-0.2,4.5-2.1,4.5-4.6c0-1.2-0.5-2.5-1.4-3.4
						c-1.1-1.1-2.6-1.4-4.1-1.1c-0.9,0.1-1.7,0.6-2.3,1.1c-0.9,0.7-1.7,1.3-2.2,2.3c-1.3,2.4-0.4,5.4,2,6.6c1.4,0.7,3,0.8,4.5,1.4
						c-0.3-0.1-0.5-0.2-0.8-0.3c2,0.9,3.9,2.1,6,2.8c2.8,1,7.2,1.2,8.1-2.5c0.5-2-0.6-4.1-2.4-5c-1.1-0.6-2.4-1-3.6-1.5
						c-2.1-0.9-4.2-1.7-6.3-2.6c-0.3,2.2-0.6,4.4-0.9,6.6c0.3,0,0.5,0,0.8,0.1c-0.3,0-0.6-0.1-0.9-0.1c1.8,0.2,3.4,0.8,5.1,1.4
						c-0.3-0.1-0.5-0.2-0.8-0.3c2.1,0.9,4.1,2.1,6.1,3.2c1.5,0.9,3.7,0.4,4.6-1.2c1.6-3.1,0.3-6.4-2.4-8.3c-1.8-1.3-4.2-1.7-6.2-2.6
						c0.3,0.1,0.5,0.2,0.8,0.3c-2-0.9-3.9-1.9-5.7-3.2c-0.9,2-1.7,4.1-2.6,6.1c2.2,0.3,4.4,0.9,6.5,1.8c-0.3-0.1-0.5-0.2-0.8-0.3
						c1,0.4,2,0.9,3,1.5c2.1,1.2,5.1-0.3,5-2.9c-0.1-3-1.8-5.6-4.4-7.1c-2.7-1.6-5.8-1.6-8.8-1.2c-0.8,0.1-1.6,0.9-2,1.5
						c-0.4,0.7-0.6,1.8-0.3,2.6c0.3,0.8,0.8,1.6,1.5,2c0.8,0.4,1.6,0.5,2.6,0.3c0.1,0,0.3,0,0.4-0.1c-0.3,0-0.6,0.1-0.9,0.1
						c1-0.1,2.1-0.2,3.1,0c-0.3,0-0.6-0.1-0.9-0.1c0.6,0.1,1.3,0.3,1.9,0.5c-0.3-0.1-0.5-0.2-0.8-0.3c0.3,0.1,0.7,0.3,1,0.5
						c0.1,0,0.1,0.1,0.2,0.1c0.3,0.2,0.2,0.1-0.3-0.2c0.1,0.1,0.3,0.2,0.4,0.3c0.1,0.1,0.2,0.2,0.3,0.4c0.4,0.4-0.4-0.6-0.1-0.2
						c0.2,0.3,0.4,0.6,0.5,1c-0.1-0.3-0.2-0.5-0.3-0.8c0.1,0.4,0.2,0.7,0.3,1.1c0-0.3-0.1-0.6-0.1-0.9c0,0.2,0,0.3,0,0.5
						c1.7-1,3.3-1.9,5-2.9c-3.2-1.8-6.7-3.1-10.3-3.6c-0.9-0.1-1.8-0.2-2.6,0.3c-0.6,0.4-1.1,0.9-1.4,1.6c-0.7,1.6,0,3.2,1.4,4.2
						c1.6,1.1,3.2,2,4.9,2.8c1,0.5,2.1,0.9,3.2,1.3c0.9,0.3,1.7,0.6,2.6,0.9c-0.3-0.1-0.5-0.2-0.8-0.3c0.3,0.1,0.5,0.2,0.7,0.4
						c0.1,0.1,0.2,0.1,0.3,0.2c0.3,0.2,0.3,0.4-0.2-0.1c0.1,0.1,0.2,0.2,0.2,0.2c0.3,0.3-0.2-0.3-0.2-0.3c0.2,0.1,0.3,0.5,0.4,0.7
						c-0.1-0.3-0.2-0.5-0.3-0.8c0.1,0.3,0.2,0.5,0.2,0.8c0-0.3-0.1-0.6-0.1-0.9c0,0.2,0,0.4,0,0.6c0-0.3,0.1-0.6,0.1-0.9
						c0,0.2-0.1,0.4-0.2,0.6c0.1-0.3,0.2-0.5,0.3-0.8c0,0,0,0.1-0.1,0.1c1.5-0.4,3-0.8,4.6-1.2c-1.9-1.1-3.9-2.2-6-3.1
						c-2.5-1.1-5-1.8-7.7-2.1c-0.8-0.1-1.8,0.4-2.4,1c-0.5,0.6-0.8,1.2-0.9,1.9c-0.1,0.7,0,1.5,0.4,2.1c0.5,0.8,1.1,1.2,2,1.5
						c2.9,1.2,5.7,2.4,8.6,3.6c-0.3-0.1-0.5-0.2-0.8-0.3c0.2,0.1,0.4,0.2,0.6,0.3c0.2,0.1,0.1,0-0.3-0.3c-0.3-0.5-0.4-0.6-0.2-0.3
						c-0.1-0.3-0.2-0.5-0.3-0.8c0,0.1,0.1,0.2,0.1,0.3c0-0.3-0.1-0.6-0.1-0.9c0,0.1,0,0.1,0,0.2c0-0.3,0.1-0.6,0.1-0.9
						c0,0.1,0,0.2-0.1,0.3c0.1-0.3,0.2-0.5,0.3-0.8c1-0.8,1.3-1.1,0.8-0.8c0.3-0.1,0.5-0.2,0.8-0.3c-0.1,0-0.2,0.1-0.3,0.1
						c0.3,0,0.6-0.1,0.9-0.1c-0.5,0.1-1,0-1.5,0c0.3,0,0.6,0.1,0.9,0.1c-0.8-0.1-1.6-0.4-2.3-0.7c0.3,0.1,0.5,0.2,0.8,0.3
						c-1.4-0.6-2.8-1.4-4.2-2.1c-0.9-0.4-1.8-0.8-2.7-1c-0.7-0.2-1.5-0.2-2.3-0.5c0.3,0.1,0.5,0.2,0.8,0.3c-0.3-0.2-0.5-0.4,0.1,0.2
						c-0.4-0.4,0.4,0.7,0.2,0.2c0.1,0.3,0.2,0.5,0.3,0.8c0-0.1-0.1-0.2-0.1-0.3c0,0.3,0.1,0.6,0.1,0.9c0-0.1,0-0.2,0-0.4
						c0,0.3-0.1,0.6-0.1,0.9c0-0.2,0.1-0.3,0.2-0.5c-0.1,0.3-0.2,0.5-0.3,0.8c0.1-0.1,0.1-0.2,0.2-0.3c-0.1,0.1-0.2,0.3-0.3,0.4
						c0-0.1,0.7-0.6,0.2-0.2c-0.5,0.4,0.1,0,0.2-0.1c0.2-0.1,0.4-0.2,0.6-0.3c-0.3,0.1-0.5,0.2-0.8,0.3c0.2-0.1,0.3-0.1,0.5-0.1
						c-0.3,0-0.6,0.1-0.9,0.1c0.1,0,0.2,0,0.4,0c-0.3,0-0.6-0.1-0.9-0.1c0.1,0,0.2,0.1,0.3,0.1c-0.3-0.1-0.5-0.2-0.8-0.3
						c0.3,0.2,0.2,0.1-0.3-0.3c-0.3-0.5-0.4-0.6-0.3-0.3c-0.1-0.3-0.2-0.5-0.3-0.8c0.1,0.1,0.1,0.3,0.1,0.4c0-0.3-0.1-0.6-0.1-0.9
						c0,0.1,0,0.2,0,0.3c0-0.3,0.1-0.6,0.1-0.9c0,0.1,0,0.2-0.1,0.3c0.1-0.3,0.2-0.5,0.3-0.8c-0.2,0.4,0.3-0.3,0.5-0.4
						c0.5-0.3,0.1-0.1-0.1,0c0.3-0.1,0.5-0.2,0.8-0.3c-0.1,0-0.2,0.1-0.3,0.1c0.3,0,0.6-0.1,0.9-0.1c-0.1,0-0.2,0-0.3,0
						c0.3,0,0.6,0.1,0.9,0.1c-0.2,0-0.3-0.1-0.5-0.1c0.3,0.1,0.5,0.2,0.8,0.3c-0.4-0.2-0.3-0.4,0.2,0.2c0.1,0.1,0.2,0.3,0.3,0.4
						c-0.1-0.1-0.1-0.2-0.1-0.3c0.1,0.3,0.2,0.5,0.3,0.8c0-0.1-0.1-0.3-0.1-0.4c0,0.3,0.1,0.6,0.1,0.9c0-0.2,0-0.4,0-0.6
						c0,0.3-0.1,0.6-0.1,0.9c0.1-0.6,0.3-1.1,0.5-1.6c-0.1,0.3-0.2,0.5-0.3,0.8c0.2-0.4,0.4-0.9,0.6-1.3c0.1-0.2,0.3-0.4,0.4-0.6
						c0.3-0.4-0.2,0.2-0.2,0.3c0.1-0.1,0.2-0.2,0.3-0.3c0.1-0.2,0.3-0.3,0.5-0.5c0.1-0.1,0.2-0.2,0.3-0.3c0.4-0.3-0.2,0.2-0.3,0.2
						c0,0,0.5-0.3,0.6-0.4c0.2-0.1,0.5-0.3,0.7-0.4c-0.3,0.1-0.5,0.2-0.8,0.3c0.5-0.2,1-0.3,1.6-0.4c-0.3,0-0.6,0.1-0.9,0.1
						c0.5-0.1,1.1-0.1,1.6,0c-0.3,0-0.6-0.1-0.9-0.1c0.5,0.1,0.9,0.2,1.4,0.4c-0.3-0.1-0.5-0.2-0.8-0.3c0.2,0.1,0.4,0.2,0.6,0.3
						c0.1,0.1,0.2,0.1,0.3,0.2c0.3,0.2-0.6-0.5-0.3-0.2c0.2,0.2,0.4,0.3,0.5,0.5c0.3,0.4-0.2-0.3-0.2-0.3c0.1,0,0.2,0.3,0.2,0.4
						c0.6,0.9,1,1.9,1.6,2.7c0.7,1.1,1.6,2,2.6,2.9c0.4,0.4,0.9,0.8,1.2,1.2c-0.1-0.1-0.4-0.6-0.2-0.2c0.1,0.1,0.1,0.2,0.2,0.3
						c0.2,0.3,0.3,0.5,0.4,0.8c-0.1-0.3-0.2-0.5-0.3-0.8c0.1,0.3,0.2,0.7,0.3,1c0-0.3-0.1-0.6-0.1-0.9c0,0.3,0,0.6,0,0.9
						c0-0.3,0.1-0.6,0.1-0.9c0,0.2-0.1,0.4-0.2,0.7c0.1-0.3,0.2-0.5,0.3-0.8c-0.1,0.2-0.2,0.4-0.3,0.6c-0.1,0.2-0.1,0.2,0.1-0.1
						c0.2-0.2,0.2-0.3,0-0.1c-0.1,0.1-0.3,0.3-0.4,0.4c-0.1,0.1-0.1,0.1-0.2,0.2c-0.3,0.2-0.2,0.1,0.3-0.2c-0.7,0.4-1.4,0.9-2.1,1.3
						c0.3-0.1,0.5-0.2,0.8-0.3c-0.3,0.1-0.6,0.2-0.9,0.3c0.3,0,0.6-0.1,0.9-0.1c-0.3,0-0.5,0-0.7,0c0.3,0,0.6,0.1,0.9,0.1
						c-0.4-0.1-0.7-0.2-1.1-0.3c0.3,0.1,0.5,0.2,0.8,0.3c-1-0.5-2-1.1-2.9-1.6c-1.2-0.6-2.5-1.2-3.7-1.7c-1-0.4-2.1-0.7-3.2-1
						c-1.1-0.3-2.3-0.4-3.3-0.8c0.3,0.1,0.5,0.2,0.8,0.3c-0.1-0.1-0.3-0.1-0.4-0.2c-0.3-0.2-0.3-0.3,0.2,0.2
						c-0.1-0.1-0.2-0.2-0.2-0.2c0.3,0.5,0.4,0.6,0.3,0.4c0-0.1-0.1-0.1-0.1-0.2c0.1,0.3,0.2,0.5,0.3,0.8c-0.1-0.2-0.1-0.3-0.1-0.5
						c0,0.3,0.1,0.6,0.1,0.9c0-0.3,0-0.5,0-0.8c0,0.3-0.1,0.6-0.1,0.9c0.2-1.3,0.8-2.5,1.2-3.7c-0.1,0.3-0.2,0.5-0.3,0.8
						c0.3-0.7,0.6-1.3,1-1.9c0.2-0.3,0.3-0.5,0.5-0.7c0.4-0.5-0.5,0.6-0.1,0.1c0.1-0.1,0.2-0.2,0.3-0.3c0.2-0.2,0.4-0.4,0.6-0.6
						c0.1-0.1,0.2-0.2,0.3-0.3c0.3-0.2,0.6-0.3-0.1,0.1c0.6-0.3,1.1-0.7,1.7-1c-0.3,0.1-0.5,0.2-0.8,0.3c0.5-0.2,1-0.3,1.5-0.4
						c-0.3,0-0.6,0.1-0.9,0.1c0.4,0,0.7,0,1.1,0c-0.3,0-0.6-0.1-0.9-0.1c0.3,0,0.5,0.1,0.8,0.2c-0.3-0.1-0.5-0.2-0.8-0.3
						c0.1,0.1,0.2,0.1,0.4,0.2c0.3,0.2,0.3,0.3-0.2-0.2c0.1,0.1,0.2,0.2,0.2,0.2c-0.3-0.5-0.4-0.6-0.3-0.4c0,0.1,0.1,0.1,0.1,0.2
						c0.9,1.5,3.1,2.2,4.6,1.2C92.2,99.7,92.8,97.7,91.9,96.1L91.9,96.1z"/>
				</g>
				<g class="st8">
					<path class="st9" d="M90.5,98.3c-1.1-1.9-3.5-2.6-5.6-1.9c-1.7,0.5-3.3,1.7-4.4,3.1c-1.2,1.6-2,3.4-2.6,5.3
						c-0.4,1.2-0.5,2.5,0.1,3.6c0.6,1,1.6,1.6,2.7,1.9c0.9,0.2,1.7,0.4,2.6,0.6c0.8,0.2,1.7,0.5,2.5,0.8c0.3,0.1-0.2-0.1,0.1,0
						c0.1,0,0.2,0.1,0.3,0.1c0.2,0.1,0.4,0.2,0.6,0.3c0.4,0.2,0.8,0.4,1.3,0.6c0.9,0.5,1.7,1,2.7,1.3c2.1,0.6,4.1-0.6,5.7-1.9
						c1.6-1.4,2.3-3.5,1.5-5.5c-0.4-1-1-1.8-1.7-2.6c-0.3-0.3-0.6-0.6-0.9-0.9c-0.2-0.2-0.3-0.3-0.5-0.5c-0.1-0.1-0.1-0.1-0.2-0.2
						c0,0-0.2-0.3-0.1-0.2c0.1,0.2-0.1-0.1-0.1-0.1c-0.1-0.1-0.1-0.2-0.2-0.3c-0.1-0.2-0.2-0.3-0.3-0.5c-0.2-0.4-0.4-0.7-0.6-1.1
						c-0.5-0.9-1.1-1.6-2-2.2c-1.4-1-3.4-1.2-5.1-0.9c-1.8,0.4-3.3,1.6-4.4,3.1c-1.1,1.5-2.1,3.8-1.4,5.6c0.5,1.2,1.6,2,2.9,2
						c1.2,0.1,2.5-0.7,3-1.9c0.5-1.2,0.3-2.5-0.6-3.4c-1-1-2.5-1-3.8-0.4c-1,0.5-1.9,1.3-2.3,2.3c-0.5,1.2-0.3,2.6,0.7,3.5
						c0.8,0.8,1.8,0.9,2.8,1.1c0.4,0.1,0.8,0.2,1.2,0.4c0.2,0.1,0,0,0,0c0.1,0,0.2,0.1,0.3,0.1c0.2,0.1,0.5,0.2,0.7,0.4
						c1.8,0.9,3.5,1.9,5.5,2.1c1.2,0.1,2.6-0.1,3.3-1.3c0.7-1.1,0.3-2.7-0.7-3.5c-0.9-0.7-2-1-3-1.5c-0.9-0.4-1.8-0.7-2.6-1.1
						c-0.9-0.4-1.8-0.8-2.7-1.1c-0.2,1.3-0.4,2.6-0.5,3.9c0.1,0,0.6,0.1,0.3,0c0.2,0,0.5,0.1,0.7,0.1c0.4,0.1,0.8,0.2,1.2,0.3
						c0.4,0.1,0.8,0.3,1.2,0.4c0.2,0.1,0.4,0.1,0.6,0.2c-0.3-0.1,0.2,0.1,0.3,0.1c1.5,0.7,3,1.5,4.4,2.4c0.9,0.5,2.3,0.3,2.7-0.7
						c0.7-1.4,0.6-3-0.3-4.3c-0.9-1.3-2.2-1.9-3.6-2.4c-0.6-0.2-1.2-0.4-1.7-0.6c-0.2-0.1-0.3-0.1-0.5-0.2c-0.1-0.1-0.1,0,0,0
						c-0.1,0-0.1-0.1-0.2-0.1c-0.3-0.1-0.6-0.3-0.9-0.4c-1.2-0.6-2.3-1.3-3.4-2c-0.5,1.2-1,2.4-1.5,3.7c1.3,0.2,2.6,0.5,3.8,0.9
						c0.3,0.1,0.6,0.2,0.9,0.3c0.1,0,0.2,0.1,0.4,0.1c-0.3-0.1,0.1,0.1,0.2,0.1c0.6,0.3,1.2,0.6,1.8,1c1.3,0.7,3.1-0.2,3-1.7
						c-0.1-2.2-1.3-4-3.2-5.1c-2-1.2-4.3-1.2-6.5-0.8c-1,0.2-1.7,1.5-1.4,2.5c0.4,1.1,1.4,1.6,2.5,1.4c0.6-0.1-0.4,0,0.2,0
						c0.2,0,0.4,0,0.6,0c0.3,0,0.6,0,1,0c0.5,0-0.2-0.1,0.2,0c0.2,0,0.4,0.1,0.6,0.1c0.2,0,0.3,0.1,0.5,0.1c0.1,0,0.1,0,0,0
						c0.1,0,0.1,0.1,0.2,0.1c0.1,0.1,0.2,0.1,0.4,0.2c0.4,0.3-0.2-0.3,0.1,0.1c0.1,0.1,0.2,0.2,0.4,0.3c0.3,0.2-0.1-0.1,0.1,0
						c0.1,0.1,0.2,0.2,0.2,0.3c0.1,0.1,0.2,0.5,0.1,0.1c0,0.2,0.1,0.3,0.1,0.5c0.1,0.4,0-0.3,0,0.1c1-0.6,2-1.2,3-1.7
						c-2.5-1.4-5.2-2.4-8.1-2.8c-1-0.1-1.9,0.2-2.4,1.2c-0.4,1,0,1.9,0.8,2.5c1.9,1.3,4,2.4,6.2,3.2c0.5,0.2,1,0.3,1.4,0.5
						c0.1,0,0.2,0.1,0.3,0.1c0,0,0.4,0.2,0.2,0.1c-0.2-0.1,0.2,0.1,0.3,0.1c0.1,0.1,0.2,0.1,0.3,0.2c0.1,0.1,0.2,0.1,0,0
						c0.1,0.1,0.2,0.1,0.2,0.2c0.2,0.2,0.1,0.1,0,0c0,0.1,0.1,0.2,0.2,0.3c-0.1-0.2-0.1-0.2,0,0c0.1,0.2,0-0.3,0-0.1
						c0,0.1-0.1,0.4,0,0.1c0.1-0.4-0.2,0.4,0.1-0.2c0.9-0.2,1.8-0.5,2.7-0.7c-3.3-1.9-6.7-3.7-10.6-4.1c-1-0.1-1.8,0.8-2,1.7
						c-0.1,1.1,0.5,1.8,1.4,2.2c1.3,0.6,2.7,1.1,4,1.7c0.6,0.3,1.2,0.5,1.8,0.8c0.1,0.1,0.3,0.1,0.4,0.2c0,0,0.7,0.3,0.3,0.1
						c0,0,0.3,0.1,0.3,0.1c-0.2,0.2-0.4-1.4-0.4-0.9c0.3-0.4,0.6-0.9,0.9-1.3c0.2,0,0.3,0,0.1,0c-0.2,0-0.3,0-0.5,0
						c-0.1,0-0.4-0.1-0.1,0c-0.1,0-0.3-0.1-0.4-0.1c-0.3-0.1-0.6-0.2-0.9-0.3c-0.4-0.1-0.2-0.1-0.1,0c-0.2-0.1-0.4-0.2-0.6-0.3
						c-1.3-0.6-2.5-1.3-3.8-1.8c-0.6-0.2-1.2-0.3-1.8-0.4c0,0-0.6-0.1-0.3-0.1c0,0,0,0,0.1,0c-0.2-0.1-0.2-0.1,0,0.1
						c0,0,0,0-0.1-0.1c-0.2-0.2-0.1,0,0.2,0.4c0.1,0.2,0,0.4-0.1,0.6c0,0-0.1,0.1-0.1,0.1c0.1-0.1,0.1-0.1,0.2-0.2
						c0.2-0.2-0.4,0.2,0.1-0.1c0.1-0.1,0.2-0.1,0.3-0.2c0.3-0.2,0.1,0-0.1,0c-1.6,0.3-1.4-2.3,0-1.9c0.2,0,0.2,0.1,0.4,0.2
						c-0.3-0.2,0,0,0,0.1c0,0,0.1,0.5,0.1,0.4c0,0,0.1-0.4,0.1-0.4c0-0.1,0.1-0.2,0.1-0.4c0-0.1,0.3-0.6,0.1-0.1
						c0.1-0.3,0.2-0.5,0.4-0.8c0.1-0.1,0.1-0.2,0.2-0.3c0-0.1,0.4-0.5,0.1-0.1c0.1-0.2,0.3-0.3,0.4-0.5c0.1-0.1,0.2-0.2,0.4-0.3
						c0.1-0.1,0.3-0.2,0,0c0.3-0.2,0.5-0.3,0.8-0.5c0.3-0.2-0.4,0.1,0,0c0.1,0,0.2-0.1,0.3-0.1c0.1,0,0.3-0.1,0.4-0.1
						c0.3-0.1-0.5,0,0,0c0.2,0,0.5,0,0.7,0c0.3,0-0.5-0.1,0,0c0.2,0,0.3,0.1,0.5,0.1c0.1,0,0.2,0.1,0.3,0.1c-0.4-0.2-0.1,0,0,0
						c0.1,0.1,0.2,0.1,0.3,0.2c-0.1,0-0.3-0.3,0,0c0.1,0.1,0.2,0.2,0.3,0.3c0.2,0.2-0.2-0.4,0.1,0.1c0.2,0.3,0.3,0.5,0.5,0.8
						c0.7,1.2,1.3,2.3,2.3,3.3c0.4,0.4,0.8,0.8,1.2,1.2c0.1,0.1,0.2,0.2,0.2,0.3c-0.2-0.3,0,0.1,0.1,0.1c0.1,0.1,0.2,0.3,0.2,0.4
						c-0.2-0.3,0,0.1,0.1,0.2c0.1,0.3,0,0.1,0,0c0,0.1,0,0.6,0,0.2c0,0.1-0.1,0.2-0.1,0.3c0.1-0.3,0.1-0.1,0,0
						c-0.3,0.4,0.3-0.2-0.1,0.1c-0.1,0.1-0.2,0.2-0.2,0.2c-0.1,0.1-0.2,0.1-0.3,0.2c0.3-0.3-0.1,0.1-0.2,0.1
						c-0.2,0.1-0.4,0.3-0.7,0.4c-0.1,0.1-0.3,0.2-0.4,0.2c-0.1,0-0.4,0.2-0.1,0.1c0,0-0.4,0.1,0,0c-0.2,0.1-0.2,0,0,0
						c-0.2,0-0.4-0.1-0.5-0.2c0.3,0.1-0.2-0.1-0.2-0.1c-1.1-0.6-2.2-1.2-3.4-1.8c-1.3-0.6-2.6-1-4-1.4c-0.7-0.2-1.4-0.3-2.1-0.5
						c0,0-0.1,0-0.1,0c-0.2-0.1-0.2-0.1,0,0c0,0-0.1-0.1-0.1-0.1c0.2,0.2,0.2,0.1,0,0c0.1,0.1,0.1,0.2,0.2,0.3
						c-0.1-0.2-0.1-0.3,0-0.1c0,0,0,0.1,0,0.1c-0.2-0.1,0.6-2,0.7-2.2c0,0.1,0.2-0.6,0.1-0.3c0,0.1,0,0.1,0.1-0.1
						c0.1-0.1,0.1-0.3,0.2-0.4c0.1-0.3,0.3-0.5,0.5-0.8c0.1-0.1,0.1-0.2,0.2-0.3c0.1-0.1,0.1-0.2,0.2-0.3c-0.1,0.1-0.1,0.2,0,0
						c0.2-0.3,0.4-0.5,0.7-0.7c0.2-0.2,0.4-0.4,0.7-0.6c-0.3,0.3,0.1-0.1,0.2-0.1c0.1-0.1,0.3-0.2,0.5-0.3c0.1-0.1,0.2-0.1,0.3-0.2
						c-0.3,0.2,0.1,0,0.2-0.1c0.2,0,0.3-0.1,0.5-0.1c0.1,0,0.1,0-0.1,0c0.1,0,0.2,0,0.4,0c-0.1,0-0.4-0.1,0,0c0.1,0,0.2,0,0.2,0.1
						c0.1,0,0.1,0-0.1,0c0,0,0.4,0.3,0.2,0.1c-0.1-0.1-0.1-0.1,0,0.1c-0.1-0.2-0.2-0.2,0,0c0.5,0.9,1.8,1.3,2.7,0.7
						C90.7,100.4,91.1,99.2,90.5,98.3L90.5,98.3z"/>
				</g>
				<g class="st8">
					<path class="st9" d="M89.3,103.6c-1-0.1-2.1-0.1-3.1,0.2c-0.8,0.2-1.7,0.6-1.7,1.5c0,1,1.1,1.2,1.8,1.4
						c0.5,0.1,1.1,0.2,1.6,0.2c0.4,0,1-0.2,1.3,0.1c0.6,0.6,0.7,1.4,1.6,1.6c0.7,0.2,1.4-0.3,1.6-1c0.2-0.7-0.1-1.5-0.7-1.9
						c-0.8-0.6-1.8-0.6-2.7-1c-0.7-0.3-1,0.8-0.3,1.1c0.5,0.2,3.2,0.5,2.6,1.6c-0.3,0.5-0.7-0.4-0.9-0.6c-0.3-0.4-0.6-0.8-1.1-1
						c-0.6-0.2-1.2,0-1.8-0.1c-0.4,0-0.7-0.1-1.1-0.2c-0.1,0-0.9-0.2-0.9-0.2c0-0.3,1.5-0.6,1.7-0.6c0.7-0.1,1.4-0.1,2.1,0
						C90,104.8,90,103.6,89.3,103.6L89.3,103.6z"/>
				</g>
				<g class="st8">
					<path class="st9" d="M92.2,107.1c-0.5-0.3-1-0.5-1.5-0.8c-0.4-0.2-0.9-0.4-1.2,0c-0.2,0.4,0,0.8,0.3,1c0.4,0.2,0.9,0.1,1.4,0.2
						c0.4,0.1,0.8,0.5,0.9,0.9c0.1,0,0.2-0.1,0.3-0.1c-0.6-0.5-1.3-1.1-1.9-1.6c-0.1,0.1-0.1,0.2-0.2,0.3c0.9,0.2,1.7,0.6,2.3,1.2
						c0.2,0.1,0.4-0.1,0.2-0.2c-0.7-0.6-1.6-1-2.5-1.3c-0.2,0-0.3,0.2-0.2,0.3c0.6,0.5,1.3,1.1,1.9,1.6c0.1,0.1,0.3,0,0.3-0.1
						c0-0.4-0.2-0.7-0.5-0.9c-0.3-0.3-0.7-0.4-1.1-0.4c-0.3,0-0.9,0.1-1-0.3c0-0.1,0-0.3,0.1-0.3c0.2-0.1,0.4,0.1,0.6,0.2
						c0.5,0.3,1,0.5,1.6,0.8C92.2,107.5,92.4,107.2,92.2,107.1L92.2,107.1z"/>
				</g>
				<g class="st8">
					<path class="st9" d="M90.2,105.4c-0.8-0.4-1.8-0.3-2.5,0.3c-0.2,0.2-0.2,0.4-0.1,0.6c0.1,0.2,0.3,0.4,0.5,0.5
						c0.4,0.3,0.8,0.6,1.2,0.9c0.7,0.4,2,1,2.6,0.1c0.1-0.2,0.1-0.4,0.1-0.6c-0.1-0.2-0.2-0.4-0.4-0.6c-0.4-0.4-0.9-0.7-1.3-1.1
						c-0.2-0.2-0.4-0.3-0.7-0.3c-0.2,0.1-0.4,0.3-0.3,0.5c0,0.1,0.1,0.2,0.2,0.3c0.1,0.1,0.2,0.2,0.4,0.3c0.3,0.2,0.5,0.4,0.8,0.6
						c0.2,0.1,0.4-0.1,0.2-0.2c-0.6-0.6-1.5-0.8-2.4-0.7c-0.1,0-0.2,0.2,0,0.3c0.7,0.4,1.4,0.7,2.2,1c0.2,0.1,0.3-0.2,0.1-0.3
						c-0.3-0.1-0.6-0.2-0.8-0.3c0,0.1-0.1,0.2-0.1,0.3c0.5,0.2,1,0.3,1.5,0.5c0.2,0.1,0.3-0.3,0.1-0.3c-0.5-0.2-1-0.3-1.5-0.5
						c-0.2-0.1-0.3,0.2-0.1,0.3c0.3,0.1,0.6,0.2,0.8,0.3c0-0.1,0.1-0.2,0.1-0.3c-0.7-0.3-1.4-0.6-2.1-0.9c0,0.1,0,0.2,0,0.3
						c0.7-0.1,1.5,0.1,2,0.6c0.1-0.1,0.2-0.2,0.2-0.2c-0.4-0.3-0.7-0.6-1.1-0.9c0,0-0.3-0.2-0.2-0.3c0.2-0.1,0.4,0.2,0.5,0.3
						c0.3,0.3,0.7,0.6,1,0.9c0.2,0.2,0.6,0.5,0.5,0.8c-0.2,0.4-0.6,0.4-0.9,0.4c-0.4-0.1-0.8-0.3-1.1-0.5c-0.3-0.2-0.7-0.4-1-0.6
						c-0.1-0.1-0.3-0.2-0.4-0.4c-0.1-0.1-0.3-0.3-0.3-0.4c0-0.1,0.1-0.2,0.2-0.2c0.1-0.1,0.2-0.1,0.3-0.2c0.2-0.1,0.3-0.1,0.5-0.2
						c0.4-0.1,0.8,0,1.2,0.1C90.2,105.8,90.4,105.5,90.2,105.4L90.2,105.4z"/>
				</g>
				<g class="st10">
					<path class="st9" d="M88.4,105.8C88.4,105.8,88.4,105.8,88.4,105.8C88.4,105.8,88.4,105.8,88.4,105.8
						C88.4,105.8,88.4,105.8,88.4,105.8C88.4,105.8,88.4,105.8,88.4,105.8c0.1,0,0.1,0,0.1,0.1c0,0,0,0,0,0c0,0,0,0,0,0
						c0.1,0.1,0.2,0.1,0.3,0.1c0.2,0.1,0.4-0.1,0.4-0.3c0-0.2-0.2-0.3-0.3-0.4c-0.2-0.1-0.4-0.1-0.6-0.1c-0.1,0-0.3,0-0.4,0.2
						c-0.1,0.1-0.1,0.2,0,0.3c0,0.1,0.1,0.1,0.2,0.2c0.2,0.1,0.3,0.2,0.5,0.2c0.1,0,0.2,0.1,0.3,0.1c0.1,0,0.2,0,0.3-0.1
						c0.1-0.2,0-0.4-0.1-0.5c-0.1-0.1-0.3-0.2-0.5-0.2c-0.1,0-0.2,0.1-0.2,0.2C88.3,105.6,88.3,105.7,88.4,105.8
						C88.4,105.7,88.5,105.7,88.4,105.8C88.4,105.7,88.5,105.7,88.4,105.8c0.1-0.1,0.1-0.1,0.2-0.1c0,0,0,0,0,0c0,0,0,0,0,0
						c0,0,0.1,0,0.1,0c0,0,0,0,0,0c0,0,0,0,0,0c0,0,0,0,0,0c0,0,0,0,0,0c0,0,0,0,0,0.1c0,0,0,0,0,0c0,0,0,0.1,0,0c0,0,0,0,0,0
						c0,0,0,0,0,0c0,0,0,0,0,0c0,0,0,0,0,0c0,0,0,0,0,0c0,0,0,0,0,0c0,0,0,0,0,0c0,0,0,0,0,0c0,0-0.1,0-0.1,0
						C88.6,105.8,88.5,105.8,88.4,105.8c-0.1-0.1-0.1-0.1-0.2-0.2c0,0,0,0,0,0c0,0,0,0,0,0c0,0,0,0,0,0c0,0,0,0,0,0c0,0,0,0,0,0
						c0,0,0,0,0,0c0,0,0,0,0,0c0,0,0,0,0,0c0,0,0,0,0,0c0,0,0,0,0,0c0,0,0,0,0,0c0,0,0,0,0.1,0c0,0,0,0,0,0c0,0,0,0,0,0
						c0.1,0,0.1,0,0.2,0c0,0,0,0,0,0c0,0,0,0,0,0c0,0,0.1,0,0.1,0c0.1,0,0.1,0,0.2,0.1c0,0,0,0,0,0c0,0,0,0,0,0c0,0,0,0,0,0
						c0,0,0,0,0,0c0,0,0,0,0,0c0,0,0,0,0,0c0,0,0,0,0-0.1c0,0,0,0,0,0c0,0,0,0,0,0c0,0,0,0,0,0c0,0,0,0,0,0c0,0,0,0,0,0c0,0,0,0,0,0
						c0,0,0,0,0,0c0,0,0,0,0,0c0,0,0,0-0.1,0c-0.1,0-0.1-0.1-0.2-0.1c-0.1,0-0.2-0.1-0.2-0.1c-0.1,0-0.2,0.1-0.2,0.2
						C88.2,105.7,88.3,105.8,88.4,105.8L88.4,105.8z"/>
				</g>
				<g class="st8">
					<path class="st9" d="M89.3,103.8c-1-0.1-2.1-0.1-3.1,0.2c-0.8,0.2-1.7,0.6-1.7,1.5c0,1,1.1,1.2,1.8,1.4
						c0.5,0.1,1.1,0.2,1.6,0.2c0.4,0,1-0.2,1.3,0.1c0.6,0.6,0.7,1.4,1.6,1.6c0.7,0.2,1.4-0.3,1.6-1c0.2-0.7-0.1-1.5-0.7-1.9
						c-0.8-0.6-1.8-0.6-2.7-1c-0.7-0.3-1,0.8-0.3,1.1c0.5,0.2,3.2,0.5,2.6,1.6c-0.3,0.5-0.7-0.4-0.9-0.6c-0.3-0.4-0.6-0.8-1.1-1
						c-0.6-0.2-1.2,0-1.8-0.1c-0.4,0-0.7-0.1-1.1-0.2c-0.1,0-0.9-0.2-0.9-0.2c0-0.3,1.5-0.6,1.7-0.6c0.7-0.1,1.4-0.1,2.1,0
						C90,105,90,103.9,89.3,103.8L89.3,103.8z"/>
				</g>
				<g class="st8">
					<path class="st9" d="M91.5,106c-0.5-0.3-1-0.5-1.5-0.8c-0.4-0.2-0.9-0.4-1.2,0c-0.2,0.4,0,0.8,0.3,1c0.4,0.2,0.9,0.1,1.4,0.2
						c0.4,0.1,0.8,0.5,0.9,0.9c0.1,0,0.2-0.1,0.3-0.1c-0.6-0.5-1.3-1.1-1.9-1.6c-0.1,0.1-0.1,0.2-0.2,0.3c0.9,0.2,1.7,0.6,2.3,1.2
						c0.2,0.1,0.4-0.1,0.2-0.2c-0.7-0.6-1.6-1-2.5-1.3c-0.2,0-0.3,0.2-0.2,0.3c0.6,0.5,1.3,1.1,1.9,1.6c0.1,0.1,0.3,0,0.3-0.1
						c0-0.4-0.2-0.7-0.5-0.9c-0.3-0.3-0.7-0.4-1.1-0.4c-0.3,0-0.9,0.1-1-0.3c0-0.1,0-0.3,0.1-0.3c0.2-0.1,0.4,0.1,0.6,0.2
						c0.5,0.3,1,0.5,1.6,0.8C91.5,106.4,91.7,106.1,91.5,106L91.5,106z"/>
				</g>
				<g class="st8">
					<path class="st9" d="M89.6,104.7c-0.8-0.4-1.8-0.3-2.5,0.3c-0.2,0.2-0.2,0.4-0.1,0.6c0.1,0.2,0.3,0.4,0.5,0.5
						c0.4,0.3,0.8,0.6,1.2,0.9c0.7,0.4,2,1,2.6,0.1c0.1-0.2,0.1-0.4,0.1-0.6c-0.1-0.2-0.2-0.4-0.4-0.6c-0.4-0.4-0.9-0.7-1.3-1.1
						c-0.2-0.2-0.4-0.3-0.7-0.3c-0.2,0.1-0.4,0.3-0.3,0.5c0,0.1,0.1,0.2,0.2,0.3c0.1,0.1,0.2,0.2,0.4,0.3c0.3,0.2,0.5,0.4,0.8,0.6
						c0.2,0.1,0.4-0.1,0.2-0.2c-0.6-0.6-1.5-0.8-2.4-0.7c-0.1,0-0.2,0.2,0,0.3c0.7,0.4,1.4,0.7,2.2,1c0.2,0.1,0.3-0.2,0.1-0.3
						c-0.3-0.1-0.6-0.2-0.8-0.3c0,0.1-0.1,0.2-0.1,0.3c0.5,0.2,1,0.3,1.5,0.5c0.2,0.1,0.3-0.3,0.1-0.3c-0.5-0.2-1-0.3-1.5-0.5
						c-0.2-0.1-0.3,0.2-0.1,0.3c0.3,0.1,0.6,0.2,0.8,0.3c0-0.1,0.1-0.2,0.1-0.3c-0.7-0.3-1.4-0.6-2.1-0.9c0,0.1,0,0.2,0,0.3
						c0.7-0.1,1.5,0.1,2,0.6c0.1-0.1,0.2-0.2,0.2-0.2c-0.4-0.3-0.7-0.6-1.1-0.9c0,0-0.3-0.2-0.2-0.3c0.2-0.1,0.4,0.2,0.5,0.3
						c0.3,0.3,0.7,0.6,1,0.9c0.2,0.2,0.6,0.5,0.5,0.8c-0.2,0.4-0.6,0.4-0.9,0.4c-0.4-0.1-0.8-0.3-1.1-0.5c-0.3-0.2-0.7-0.4-1-0.6
						c-0.1-0.1-0.3-0.2-0.4-0.4c-0.1-0.1-0.3-0.3-0.3-0.4c0-0.1,0.1-0.2,0.2-0.2c0.1-0.1,0.2-0.1,0.3-0.2c0.2-0.1,0.3-0.1,0.5-0.2
						c0.4-0.1,0.8,0,1.2,0.1C89.7,105.1,89.8,104.8,89.6,104.7L89.6,104.7z"/>
				</g>
				<g class="st10">
					<path class="st9" d="M89.1,105.8C89.1,105.8,89.1,105.8,89.1,105.8C89.1,105.8,89.1,105.8,89.1,105.8
						C89.1,105.8,89.1,105.8,89.1,105.8C89.1,105.8,89.1,105.8,89.1,105.8c0.1,0,0.1,0,0.1,0.1c0,0,0,0,0,0c0,0,0,0,0,0
						c0.1,0.1,0.2,0.1,0.3,0.1c0.2,0.1,0.4-0.1,0.4-0.3c0-0.2-0.2-0.3-0.3-0.4c-0.2-0.1-0.4-0.1-0.6-0.1c-0.1,0-0.3,0-0.4,0.2
						c-0.1,0.1-0.1,0.2,0,0.3c0,0.1,0.1,0.1,0.2,0.2c0.2,0.1,0.3,0.2,0.5,0.2c0.1,0,0.2,0.1,0.3,0.1c0.1,0,0.2,0,0.3-0.1
						c0.1-0.2,0-0.4-0.1-0.5c-0.1-0.1-0.3-0.2-0.5-0.2c-0.1,0-0.2,0.1-0.2,0.2C88.9,105.6,89,105.7,89.1,105.8
						C89.1,105.7,89.1,105.7,89.1,105.8C89.1,105.7,89.1,105.7,89.1,105.8c0.1-0.1,0.1-0.1,0.2-0.1c0,0,0,0,0,0c0,0,0,0,0,0
						c0,0,0.1,0,0.1,0c0,0,0,0,0,0c0,0,0,0,0,0c0,0,0,0,0,0c0,0,0,0,0,0c0,0,0,0,0,0.1c0,0,0,0,0,0c0,0,0,0.1,0,0c0,0,0,0,0,0
						c0,0,0,0,0,0c0,0,0,0,0,0c0,0,0,0,0,0c0,0,0,0,0,0c0,0,0,0,0,0c0,0,0,0,0,0c0,0,0,0,0,0c0,0-0.1,0-0.1,0
						C89.3,105.8,89.1,105.8,89.1,105.8c-0.1-0.1-0.1-0.1-0.2-0.2c0,0,0,0,0,0c0,0,0,0,0,0c0,0,0,0,0,0c0,0,0,0,0,0c0,0,0,0,0,0
						c0,0,0,0,0,0c0,0,0,0,0,0c0,0,0,0,0,0c0,0,0,0,0,0c0,0,0,0,0,0c0,0,0,0,0,0c0,0,0,0,0.1,0c0,0,0,0,0,0c0,0,0,0,0,0
						c0.1,0,0.1,0,0.2,0c0,0,0,0,0,0c0,0,0,0,0,0c0,0,0.1,0,0.1,0c0.1,0,0.1,0,0.2,0.1c0,0,0,0,0,0c0,0,0,0,0,0c0,0,0,0,0,0
						c0,0,0,0,0,0c0,0,0,0,0,0c0,0,0,0,0,0c0,0,0,0,0-0.1c0,0,0,0,0,0c0,0,0,0,0,0c0,0,0,0,0,0c0,0,0,0,0,0c0,0,0,0,0,0c0,0,0,0,0,0
						c0,0,0,0,0,0c0,0,0,0,0,0c0,0,0,0-0.1,0c-0.1,0-0.1-0.1-0.2-0.1c-0.1,0-0.2-0.1-0.2-0.1c-0.1,0-0.2,0.1-0.2,0.2
						C88.9,105.7,89,105.8,89.1,105.8L89.1,105.8z"/>
				</g>
				<defs>
					<filter id="Adobe_OpacityMaskFilter" filterUnits="userSpaceOnUse" x="84" y="101.2" width="11" height="9">
						<feFlood  style="flood-color:white;flood-opacity:1" result="back"/>
						<feBlend  in="SourceGraphic" in2="back" mode="normal"/>
					</filter>
				</defs>
				
					<mask maskUnits="userSpaceOnUse" x="84" y="101.2" width="11" height="9" id="SVGID_00000111878518042978584740000018072907080397765561_">
					<g class="st11">
						
							<image style="overflow:visible;" width="9.6" height="7.9" xlink:href="14E7B8E0.png"  transform="matrix(1 0 0 1 84.9649 101.8485)"/>
					</g>
				</mask>
				<g style="mask:url(#SVGID_00000111878518042978584740000018072907080397765561_);">
					<g style="opacity:0.5;">
						<image style="overflow:visible;" width="11" height="9" xlink:href="F5CC2DB2.png"  transform="matrix(1 0 0 1 84 101.1959)">
						</image>
					</g>
				</g>
			</g>
		</g>
	</g>
</g>
</svg>
