<?xml version="1.0" encoding="utf-8"?>
<!-- Generator: Adobe Illustrator 25.4.8, SVG Export Plug-In . SVG Version: 6.00 Build 0)  -->
<svg version="1.1" id="Layer_1" xmlns="http://www.w3.org/2000/svg" xmlns:xlink="http://www.w3.org/1999/xlink" x="0px" y="0px"
	 viewBox="0 0 166.6 214.5" style="enable-background:new 0 0 166.6 214.5;" xml:space="preserve">
<style type="text/css">
	.st0{fill:none;}
	.st1{opacity:0.18;}
	.st2{fill:url(#SVGID_1_);}
	.st3{clip-path:url(#SVGID_00000149370942672776489310000017065169563074806674_);}
	.st4{fill:#FF9C6A;}
	.st5{fill:url(#SVGID_00000149357593872758990840000003587655520644688558_);}
	.st6{fill:#606060;}
	.st7{fill:#FC8754;}
	.st8{opacity:0.47;fill:#2C3A66;}
	.st9{fill:#282A43;}
	.st10{opacity:0.6;}
	.st11{filter:url(#Adobe_OpacityMaskFilter);}
	.st12{mask:url(#SVGID_00000061439755809974423750000005743131006185485736_);}
	.st13{filter:url(#Adobe_OpacityMaskFilter_00000158730314084762034520000015184295956693528714_);}
	.st14{mask:url(#SVGID_00000056388877927736750040000000331079508742398896_);}
	.st15{filter:url(#Adobe_OpacityMaskFilter_00000053527791553176104540000001336219388635580060_);}
	.st16{mask:url(#SVGID_00000036236382003665007660000012142897289333507479_);}
	.st17{filter:url(#Adobe_OpacityMaskFilter_00000097494735883087584610000013964461199693117319_);}
	.st18{mask:url(#SVGID_00000039130041762814955780000006394610752928709774_);}
	.st19{filter:url(#Adobe_OpacityMaskFilter_00000096035840034841370160000005841910757495910018_);}
	.st20{mask:url(#SVGID_00000177485397519635364430000000472178220756645813_);}
	.st21{filter:url(#Adobe_OpacityMaskFilter_00000134239015827737872320000005413781085751989128_);}
	.st22{mask:url(#SVGID_00000165196614154808989700000002447218224066720142_);}
	.st23{filter:url(#Adobe_OpacityMaskFilter_00000074443805473014196790000005606861474063687856_);}
	.st24{mask:url(#SVGID_00000164494971311703599700000012879639694894861489_);}
	.st25{filter:url(#Adobe_OpacityMaskFilter_00000013192214951718785150000013520919680893578379_);}
	.st26{mask:url(#SVGID_00000019680138572147059940000004344854776444107140_);}
	.st27{filter:url(#Adobe_OpacityMaskFilter_00000141428464191900766530000001225035082196606097_);}
	.st28{mask:url(#SVGID_00000168080377490698145920000015912409072661724051_);}
	.st29{filter:url(#Adobe_OpacityMaskFilter_00000041295246942572422660000004499707312871367052_);}
	.st30{mask:url(#SVGID_00000111869874871493997610000009881914899321250193_);}
	.st31{filter:url(#Adobe_OpacityMaskFilter_00000115480807838679287670000013269313683990502576_);}
	.st32{mask:url(#SVGID_00000147199280127613390700000004325911477954353079_);}
	.st33{filter:url(#Adobe_OpacityMaskFilter_00000155843988479145023570000002929881141758844048_);}
	.st34{mask:url(#SVGID_00000030487557294517692080000009880763594936783500_);}
	.st35{filter:url(#Adobe_OpacityMaskFilter_00000137121015694359022210000018387336899937565074_);}
	.st36{mask:url(#SVGID_00000101797474652055767920000017029907790762487700_);}
	.st37{filter:url(#Adobe_OpacityMaskFilter_00000147919526853477008480000011087865640563353226_);}
	.st38{mask:url(#SVGID_00000183957769934536424250000004096286655758832288_);}
	.st39{opacity:0.5;}
	.st40{filter:url(#Adobe_OpacityMaskFilter_00000055706491326819457700000011225757666197127603_);}
	.st41{mask:url(#SVGID_00000155107252074889712020000001169158119067316376_);}
	.st42{filter:url(#Adobe_OpacityMaskFilter_00000000927274052504654380000006986637370074785920_);}
	.st43{mask:url(#SVGID_00000090276310746515201790000008168576254261433277_);}
	.st44{filter:url(#Adobe_OpacityMaskFilter_00000165939146074517394590000003570488139163734169_);}
	.st45{mask:url(#SVGID_00000049223021323282243340000001825330891550430113_);}
	.st46{filter:url(#Adobe_OpacityMaskFilter_00000052814323831104408830000011304410787193655192_);}
	.st47{mask:url(#SVGID_00000100362586661505079040000005804511099595442876_);}
</style>
<g>
	<path class="st0" d="M158.6,122.7c0,43.7-35.4,79.2-79.2,79.2c-43.7,0-79.2-35.4-79.2-79.2c0-43.7,35.4-79.2,79.2-79.2
		C123.1,43.6,158.6,79,158.6,122.7z"/>
	<g class="st1">
		<linearGradient id="SVGID_1_" gradientUnits="userSpaceOnUse" x1="6.4839" y1="134.2848" x2="164.9244" y2="134.2848">
			<stop  offset="0" style="stop-color:#5F74B1"/>
			<stop  offset="0.2466" style="stop-color:#7A90D2"/>
			<stop  offset="0.4903" style="stop-color:#8FA6EB"/>
			<stop  offset="0.7125" style="stop-color:#9CB3FA"/>
			<stop  offset="0.8936" style="stop-color:#A0B7FF"/>
		</linearGradient>
		<circle class="st2" cx="85.7" cy="134.3" r="79.2"/>
	</g>
	<g>
		<defs>
			<path id="SVGID_00000019665722845259049130000005173422438681366938_" d="M166.4,135.6c0,16.1-4.8,31-13,43.5
				c-4.2,6.4-2.3,19.1-8.2,24.1c-4.9,4.1-17.2,0.6-23,3.5c-10.5,5.2-22.4,8.1-35,8.1C43.5,214.7,8,179.3,8,135.6
				c0-43.7,46-180.8,89.7-180.8C141.5-45.2,166.4,91.8,166.4,135.6z"/>
		</defs>
		<clipPath id="SVGID_00000087395598092214851310000012551689207748824252_">
			<use xlink:href="#SVGID_00000019665722845259049130000005173422438681366938_"  style="overflow:visible;"/>
		</clipPath>
		<g style="clip-path:url(#SVGID_00000087395598092214851310000012551689207748824252_);">
			<g>
				<path class="st4" d="M50,50c-1,1.9-0.7,4.2-0.3,6.3c0.3,1.2,0.6,2.4,1.2,3.5c1.2,2.4,3.5,4.2,4.2,6.7c0.8,2.7-0.1,5.6,0.4,8.3
					c0.2,0.8,0.5,1.6,0.8,2.4c2.9,7.5,7.3,14.5,12.7,20.4l19.6,16.9l21.1-1.2l-6.4-13.9l2.4-47.3l-30-20c0,0-21.8,8.9-22.1,9.3
					C53.4,41.7,50,50,50,50z"/>
			</g>
			
				<linearGradient id="SVGID_00000178199702709649505340000003563075055788491684_" gradientUnits="userSpaceOnUse" x1="34.6693" y1="145.0691" x2="140.7705" y2="145.0691">
				<stop  offset="0" style="stop-color:#5F74B1"/>
				<stop  offset="0.2466" style="stop-color:#7A90D2"/>
				<stop  offset="0.4903" style="stop-color:#8FA6EB"/>
				<stop  offset="0.7125" style="stop-color:#9CB3FA"/>
				<stop  offset="0.8936" style="stop-color:#A0B7FF"/>
			</linearGradient>
			<path style="fill:url(#SVGID_00000178199702709649505340000003563075055788491684_);" d="M140.6,146.1c-0.1-0.4-0.1-0.8-0.2-1.2
				c-0.1-0.8-0.2-1.5-0.3-2.3c-0.2-1.5-0.4-3.1-0.6-4.6c-0.4-3.1-0.8-6.1-1.3-9.2c-0.4-2.9-0.8-5.8-1.7-8.5c-0.8-2.3-2-4.5-3.4-6.5
				c-3-4.1-6.9-7.7-11.1-10.5c-4.5-3-10-4.9-15.4-3.5c0,0-0.1,0-0.1,0c-1.5-0.3-2.7,0.7-3.4,1.9c-0.4,0.7-0.6,1.5-0.8,2.3
				c-0.2,0.8-0.5,1.7-0.7,2.5c-0.4,1.5-0.8,3.1-1.8,4.3c-0.9,1-2,1.6-3.3,1.9c-2.9,0.8-5.7-0.2-8.1-1.8c-2.7-1.8-5-4.2-7-6.6
				c-2.1-2.5-3.9-5.2-5.7-7.9c0-0.1,0-0.3-0.2-0.4c-0.1-0.1-0.1-0.1-0.2-0.2c-0.1-0.2-0.3-0.4-0.4-0.6C74.9,95,74.7,95,74.5,95
				c-1.4-1.3-2.9-2.5-4.2-3.8c-1.7-1.6-3.1-3.4-4.4-5.3c-0.1-0.1-0.1-0.2-0.2-0.2c-2.3-3.4-5.1-6.6-8.7-8.5c-3.5-1.9-7.9-2.5-11.7-1
				c-4.2,1.6-6.4,5.7-7.9,9.7c-1.7,4.3-2.4,9-2.6,13.6c-0.2,4.8,0,9.5,0.3,14.3c0.3,5.4,0.6,10.8,1,16.2c0.3,5.4,0.6,10.8,1,16.2
				c0.3,5.3,0.5,10.7,1.2,16c0.7,5.3,1.7,10.5,1.8,15.8c0.1,5.4-0.4,10.9-1.2,16.2c-0.1,1.1-0.3,2.2-0.5,3.3
				c-0.5,1.8,0.4,3.8,1.7,5.1c1.7,1.6,4,2.2,6.2,2.8c5.1,1.6,10.2,3.1,15.3,4.7c4.9,1.5,9.8,3.1,14.8,4c5,0.9,10.1,1,15.2,0.5
				c4.9-0.5,9.9-1.4,14.7-2.8c3.9-1.1,7.7-3,9.4-6.9c0.9-2.1,1.1-4.3,1.3-6.5c0.2-2.4,0.4-4.8,0.7-7.3c0.6-4.9,1.5-9.8,2.9-14.5
				c0.7-2.3,1.5-4.6,2.5-6.9c0.9-2.2,2.1-4.4,2.8-6.7c0.7-2.5,0.7-5,0.6-7.5c-0.1-2.6-0.1-5.3-0.2-7.9c0-1.3-0.1-2.6-0.1-3.9
				c0-0.1,0-0.2-0.1-0.3c0.1,0,0.1,0,0.2,0c3,0.2,5.9,0.7,8.8,1.5c0.6,0.2,1.2,0.3,1.8,0.6c0.6,0.3,0.9,0.7,1.2,1.2
				c0.3,0.5,0.7,0.9,1.3,1c0.5,0.1,1.3-0.1,1.3-0.6C140.8,146.8,140.7,146.4,140.6,146.1z"/>
			<polygon class="st6" points="67.3,127.6 67.3,127.6 67.3,127.6 			"/>
			<path class="st6" d="M67.4,127.7C67.4,127.7,67.5,127.7,67.4,127.7C67.5,127.7,67.4,127.7,67.4,127.7z"/>
			<path class="st7" d="M122.9,175.4c-0.3-1.7-0.9-3.3-1.8-4.8c-0.4-0.7-1-1.4-1.6-2c-0.7-0.6-1.5-1.1-2.3-1.4
				c-3.6-1.7-7.2-3.3-10.8-5.1c-7.1-3.5-14.2-7.3-21.2-11c-1.6-0.9-3.3-1.6-4.7-2.7c-1.4-1-2.4-2.3-3-3.9c-0.7-1.7-1.1-3.5-1.5-5.3
				c-0.5-1.9-1-3.9-1.5-5.8c-1-4-2-7.9-3.1-11.9c-0.2-0.9-0.4-1.8-0.8-2.6c-0.4-0.8-0.9-1.4-1.7-1.8c-1.7-1-3.5-1.8-5.3-2.6
				c-0.9-0.4-1.8-0.8-2.7-1.2c-0.2-0.1-0.3-0.1-0.5,0c-2.6-1.1-5.5-1.6-8.3-1.3c-3.2,0.3-6.1,1.4-8.8,3c-1.6,0.9-3,2-4.5,3.1
				c-0.2,0.2-0.3,0.5-0.2,0.7c0,0,0,0.1,0,0.1c2.1,6.9,4.2,13.8,6.7,20.5c2.4,6.7,5.2,13.4,8.5,19.7c0.8,1.6,1.7,3.2,2.6,4.7
				c0.9,1.5,1.8,2.9,3,4.2c2.4,2.6,5.7,4.2,8.8,5.7c6.7,3.3,13.7,5.8,20.8,7.8c7.5,2.2,14.9,4.3,22.4,6.5c0.5,0.1,1,0.3,1.5,0.4
				c0.1,0.1,0.2,0.2,0.3,0.2c0.2,0,0.5,0.1,0.7,0.1c0.1,0,0.1,0,0.2,0c0.1,0,0.2,0,0.3,0c1.3,0.2,2.7,0.2,4-0.3
				c1.5-0.6,2.5-1.9,3.2-3.3C123.3,182.2,123.6,178.7,122.9,175.4z"/>
			<path class="st8" d="M140.8,147.1c-0.1,0.6-0.9,0.7-1.4,0.6c-0.6-0.1-1-0.5-1.4-1c-0.4-0.5-0.7-1-1.3-1.3
				c-0.6-0.3-1.2-0.5-1.9-0.7c-3.1-0.8-6.3-1.3-9.4-1.5c0,0-0.1,0-0.1,0c0,0-0.1,0-0.1,0c0,0.1,0.1,0.1,0.1,0.2L125,144
				c0.6-7.7,2.7-15.2,4.8-22.7c0.6-2,1.1-4,2.1-5.9c0.4-0.7,0.8-1.5,1.3-2.1c0.4,0.5,0.7,1.1,1.1,1.7c0.8,1.4,1.5,2.8,2.1,4.4
				c1,2.8,1.4,5.8,1.9,8.8c0.5,3.2,0.9,6.3,1.3,9.5c0.2,1.6,0.4,3.2,0.6,4.7c0.1,0.8,0.2,1.6,0.3,2.4c0.1,0.4,0.1,0.8,0.2,1.3
				C140.7,146.3,140.8,146.8,140.8,147.1z"/>
			<path class="st8" d="M69.7,116.3c-2.1-1.2-4.5-1.8-6.8-2.3c-3-0.7-6-1.4-9.1-1.4c-5.6,0.1-10.9,2.6-15.7,5.6
				c-1.2,0.8-2.6,1.8-2.5,3.3c0.2,0,0.1,0,0,0.1c-0.2-2.6-0.3-5.3-0.5-7.9c-0.3-4.8-0.5-9.5-0.3-14.3c0.2-4.6,0.9-9.3,2.6-13.6
				c1.5-4,3.7-8,7.9-9.7c3.8-1.5,8.2-0.9,11.7,1c2.5,1.3,4.7,3.3,6.5,5.5c0.8,1.5,1.5,3.1,2.4,4.6c0.7,1.2,1.6,2.3,2.2,3.6
				c0.5,1.3,0.7,2.7,0.9,4.1C69.8,102,70.7,109.2,69.7,116.3z"/>
			<path class="st9" d="M128.8,40.5c-2.2-6-5.2-11.6-8.4-17.1c-3-5.2-6.5-10.4-11.9-13.2c-2.6-1.3-5.4-2-8.3-1.7
				c-3.1,0.3-6,1.5-8.7,3c-2.5,1.5-4.9,3.3-6.2,5.9c-1.3,2.6-1.5,5.6-1.6,8.4c0,0.6,0,1.1,0,1.7c-1.6-0.3-3.2-0.6-4.8-0.7
				c-2.4-0.2-4.9-0.1-7.3,0.3c-2.4,0.4-4.7,1.3-6.9,2.3c-2.1,0.9-4.3,1.8-6.3,3.1c-1.9,1.2-3.4,2.8-4.6,4.7
				c-2.8,4.3-4.4,9.3-4.7,14.4c0,0.6,0.9,0.7,1.1,0.1c0,0,0-0.1,0-0.1c0.3-3.7,1.9-7.3,4.7-9.7c2.8-2.4,6.6-3.4,10.3-3.9
				c3.8-0.5,8-0.5,11.3,1.6c1.6,1,2.9,2.5,4,4c1.3,1.7,2.4,3.5,3.5,5.3c0.6,0.9,1.1,1.9,1.6,2.9c0.4,0.8,0.8,1.7,1.6,2.1
				c0.9,0.4,2,0.3,2.9,0.3c1.2,0,2.4,0.1,3.6,0.1c1.1,0,2.3,0.1,3.4,0.1c1.1,0,2.2,0,3.3,0.1c0.5,0.1,0.7,0.3,0.8,0.7
				c0.1,0.4,0.3,0.9,0.3,1.4c0.1,0.9,0.1,1.8,0,2.7c-0.2,0.9-0.4,1.7-0.9,2.5c-0.4,0.8-1,1.5-1.6,2.3c-0.6,0.8-1,1.7-1.1,2.7
				C98,68,98,69,97.9,70c-0.3,2-1.1,3.9-1.5,5.8c-0.4,1.8-0.7,3.7-0.8,5.5c-0.4,7.3,1.4,14.8,5.3,21c0.5,0.8,1,1.5,1.5,2.2
				c0.1,0.1,0.1,0.1,0.2,0.2c0.5,0.7,1.4,1.1,2.2,1.3c0.8,0.1,1.6,0.1,2.4,0c0.6-0.1,1.3-0.1,1.6-0.7c0.3-0.6,0.1-1.3-0.2-1.9
				c-0.3-0.7-0.7-1.4-1-2.1c-0.6-1.3-1.2-2.8-1.4-4.2c-0.1-0.9-0.1-1.9,0.2-2.8c0.7,3.9,2.1,7.6,4.2,11c0.6,1,1.3,1.9,2,2.8
				c0.7,0.8,1.6,1.3,2.7,1.6c1.1,0.3,2.3,0.4,3.5,0.7c1.3,0.3,2.6,0.5,3.9,0.8c2.8,0.7,5.6,1.4,8.3,2.3c0.4,0.1,0.8-0.3,0.7-0.7
				c-1.5-5.8-3.6-11.4-6.2-16.7c-0.1-0.3-0.4-0.3-0.6-0.2c-2.9-4.7-2-10.8-0.4-15.8c2-6.2,5.3-12.5,4.6-19.3
				c-0.3-3.1-1.6-6.1-2.1-9.1c1.9,2.1,3.2,4.6,3.8,7.3c0.1,0.6,1,0.4,1-0.1C132.3,52.6,131,46.4,128.8,40.5z M100.3,33.8
				c0,0.3-0.2,0.6-0.2,0.9c0,0-0.1,0-0.1,0c-0.1-0.1-0.4-0.2-0.5-0.3c-0.5-0.3-1-0.5-1.6-0.8c-0.9-0.5-1.9-0.9-2.9-1.4
				c-0.1,0-0.2-0.1-0.3-0.1c0.1-0.3,0.2-0.5,0.3-0.8c0-0.1,0-0.1,0.1-0.2c0,0,0,0,0,0c0-0.1,0.1-0.2,0.1-0.2
				c0.1-0.2,0.2-0.4,0.3-0.6c0.2-0.4,0.4-0.7,0.6-1c0,0,0,0,0,0c0,0,0.1-0.1,0.1-0.1c0.1-0.1,0.1-0.1,0.2-0.2c0,0,0,0,0.1-0.1
				c1.3,0.2,2.4,1,3.1,2.1c0.4,0.6,0.6,1.3,0.7,2C100.3,33.2,100.3,33.5,100.3,33.8z"/>
			<g>
				<g class="st10">
					<defs>
						<filter id="Adobe_OpacityMaskFilter" filterUnits="userSpaceOnUse" x="48" y="125.5" width="28" height="30">
							<feFlood  style="flood-color:white;flood-opacity:1" result="back"/>
							<feBlend  in="SourceGraphic" in2="back" mode="normal"/>
						</filter>
					</defs>
					
						<mask maskUnits="userSpaceOnUse" x="48" y="125.5" width="28" height="30" id="SVGID_00000070811553268890431960000012578710493450526652_">
						<g class="st11">
							
								<image style="overflow:visible;" width="26.8" height="28.8" xlink:href="B6BBBA5A.png"  transform="matrix(1 0 0 1 48.3097 126.2732)"/>
						</g>
					</mask>
					<g style="mask:url(#SVGID_00000070811553268890431960000012578710493450526652_);">
						<g class="st10">
							
								<image style="overflow:visible;" width="28" height="30" xlink:href="5970642C.png"  transform="matrix(1 0 0 1 48 125.5162)">
							</image>
						</g>
					</g>
				</g>
				<defs>
					
						<filter id="Adobe_OpacityMaskFilter_00000155116214687732240490000007338677619666244004_" filterUnits="userSpaceOnUse" x="54" y="132.5" width="15" height="16">
						<feFlood  style="flood-color:white;flood-opacity:1" result="back"/>
						<feBlend  in="SourceGraphic" in2="back" mode="normal"/>
					</filter>
				</defs>
				
					<mask maskUnits="userSpaceOnUse" x="54" y="132.5" width="15" height="16" id="SVGID_00000034047662327891122840000007186304966108954517_">
					<g style="filter:url(#Adobe_OpacityMaskFilter_00000155116214687732240490000007338677619666244004_);">
						
							<image style="overflow:visible;" width="13.8" height="14.4" xlink:href="B6BBBA5E.png"  transform="matrix(1 0 0 1 54.8563 133.2711)"/>
					</g>
				</mask>
				<g style="mask:url(#SVGID_00000034047662327891122840000007186304966108954517_);">
					<g class="st39">
						
							<image style="overflow:visible;" width="15" height="16" xlink:href="5970642D.png"  transform="matrix(1 0 0 1 54 132.5162)">
						</image>
					</g>
				</g>
				<g>
					<defs>
						
							<filter id="Adobe_OpacityMaskFilter_00000057130536607640191290000015167571263208241067_" filterUnits="userSpaceOnUse" x="43" y="111.5" width="32" height="33">
							<feFlood  style="flood-color:white;flood-opacity:1" result="back"/>
							<feBlend  in="SourceGraphic" in2="back" mode="normal"/>
						</filter>
					</defs>
					
						<mask maskUnits="userSpaceOnUse" x="43" y="111.5" width="32" height="33" id="SVGID_00000080899832217859488510000002493593886952613268_">
						<g style="filter:url(#Adobe_OpacityMaskFilter_00000057130536607640191290000015167571263208241067_);">
							
								<image style="overflow:visible;" width="31.3" height="32.1" xlink:href="B6BBBA59.png"  transform="matrix(1 0 0 1 43.5831 112.4488)"/>
						</g>
					</mask>
					<g style="mask:url(#SVGID_00000080899832217859488510000002493593886952613268_);">
						<g class="st10">
							
								<image style="overflow:visible;" width="32" height="33" xlink:href="5970642B.png"  transform="matrix(1 0 0 1 43 111.5162)">
							</image>
						</g>
					</g>
				</g>
				<defs>
					
						<filter id="Adobe_OpacityMaskFilter_00000058546850495990870990000003531237764658520723_" filterUnits="userSpaceOnUse" x="54" y="122.5" width="12" height="12">
						<feFlood  style="flood-color:white;flood-opacity:1" result="back"/>
						<feBlend  in="SourceGraphic" in2="back" mode="normal"/>
					</filter>
				</defs>
				
					<mask maskUnits="userSpaceOnUse" x="54" y="122.5" width="12" height="12" id="SVGID_00000001649608948213635460000015053415509707257249_">
					<g style="filter:url(#Adobe_OpacityMaskFilter_00000058546850495990870990000003531237764658520723_);">
						
							<image style="overflow:visible;" width="10.5" height="11" xlink:href="B6BBBA5B.png"  transform="matrix(1 0 0 1 54.5174 123.3326)"/>
					</g>
				</mask>
				<g style="mask:url(#SVGID_00000001649608948213635460000015053415509707257249_);">
					<g class="st39">
						
							<image style="overflow:visible;" width="12" height="12" xlink:href="59706434.png"  transform="matrix(1 0 0 1 54 122.5162)">
						</image>
					</g>
				</g>
				<g>
					<defs>
						
							<filter id="Adobe_OpacityMaskFilter_00000082362148826532142630000009178999963786381738_" filterUnits="userSpaceOnUse" x="57" y="125.5" width="5" height="5">
							<feFlood  style="flood-color:white;flood-opacity:1" result="back"/>
							<feBlend  in="SourceGraphic" in2="back" mode="normal"/>
						</filter>
					</defs>
					
						<mask maskUnits="userSpaceOnUse" x="57" y="125.5" width="5" height="5" id="SVGID_00000159451585016902897160000018029639944640958602_">
						<g style="filter:url(#Adobe_OpacityMaskFilter_00000082362148826532142630000009178999963786381738_);">
							
								<image style="overflow:visible;" width="4" height="3.9" xlink:href="B6BBBA58.png"  transform="matrix(1 0 0 1 57.7029 125.8335)"/>
						</g>
					</mask>
					<g style="mask:url(#SVGID_00000159451585016902897160000018029639944640958602_);">
						<g class="st39">
							<image style="overflow:visible;" width="5" height="5" xlink:href="59706437.png"  transform="matrix(1 0 0 1 57 125.5162)">
							</image>
						</g>
					</g>
				</g>
				<g>
					<g>
						<defs>
							
								<filter id="Adobe_OpacityMaskFilter_00000142161200469564408350000000848073505265091205_" filterUnits="userSpaceOnUse" x="62" y="124.5" width="5" height="5">
								<feFlood  style="flood-color:white;flood-opacity:1" result="back"/>
								<feBlend  in="SourceGraphic" in2="back" mode="normal"/>
							</filter>
						</defs>
						
							<mask maskUnits="userSpaceOnUse" x="62" y="124.5" width="5" height="5" id="SVGID_00000065777527661314029330000005830254372136109752_">
							<g style="filter:url(#Adobe_OpacityMaskFilter_00000142161200469564408350000000848073505265091205_);">
								
									<image style="overflow:visible;" width="3.6" height="3.6" xlink:href="B6BBBA66.png"  transform="matrix(1 0 0 1 62.8559 125.2051)"/>
							</g>
						</mask>
						<g style="mask:url(#SVGID_00000065777527661314029330000005830254372136109752_);">
							<g class="st39">
								
									<image style="overflow:visible;" width="5" height="5" xlink:href="59706435.png"  transform="matrix(1 0 0 1 62 124.5162)">
								</image>
							</g>
						</g>
					</g>
					<g>
						<defs>
							
								<filter id="Adobe_OpacityMaskFilter_00000024696297364180699080000012490895483981204364_" filterUnits="userSpaceOnUse" x="63" y="125.5" width="3" height="3">
								<feFlood  style="flood-color:white;flood-opacity:1" result="back"/>
								<feBlend  in="SourceGraphic" in2="back" mode="normal"/>
							</filter>
						</defs>
						
							<mask maskUnits="userSpaceOnUse" x="63" y="125.5" width="3" height="3" id="SVGID_00000044876397578152406770000006633129572635326636_">
							<g style="filter:url(#Adobe_OpacityMaskFilter_00000024696297364180699080000012490895483981204364_);">
								
									<image style="overflow:visible;" width="1.4" height="1.4" xlink:href="B6BBBA69.png"  transform="matrix(1 0 0 1 63.9675 126.289)"/>
							</g>
						</mask>
						<g style="mask:url(#SVGID_00000044876397578152406770000006633129572635326636_);">
							<g class="st39">
								
									<image style="overflow:visible;" width="3" height="3" xlink:href="5970643B.png"  transform="matrix(1 0 0 1 63 125.5162)">
								</image>
							</g>
						</g>
					</g>
				</g>
				<g>
					<defs>
						
							<filter id="Adobe_OpacityMaskFilter_00000160170036414493284690000003436673337153402042_" filterUnits="userSpaceOnUse" x="56" y="137.5" width="5" height="5">
							<feFlood  style="flood-color:white;flood-opacity:1" result="back"/>
							<feBlend  in="SourceGraphic" in2="back" mode="normal"/>
						</filter>
					</defs>
					
						<mask maskUnits="userSpaceOnUse" x="56" y="137.5" width="5" height="5" id="SVGID_00000020389874255062321720000012318178505847851147_">
						<g style="filter:url(#Adobe_OpacityMaskFilter_00000160170036414493284690000003436673337153402042_);">
							
								<image style="overflow:visible;" width="4" height="3.9" xlink:href="B6BBBA6A.png"  transform="matrix(1 0 0 1 56.8197 137.8911)"/>
						</g>
					</mask>
					<g style="mask:url(#SVGID_00000020389874255062321720000012318178505847851147_);">
						<g class="st39">
							<image style="overflow:visible;" width="5" height="5" xlink:href="5970643C.png"  transform="matrix(1 0 0 1 56 137.5162)">
							</image>
						</g>
					</g>
				</g>
				<g>
					<g>
						<defs>
							
								<filter id="Adobe_OpacityMaskFilter_00000182522367452870808120000003909387042939517614_" filterUnits="userSpaceOnUse" x="63" y="133.5" width="10" height="11">
								<feFlood  style="flood-color:white;flood-opacity:1" result="back"/>
								<feBlend  in="SourceGraphic" in2="back" mode="normal"/>
							</filter>
						</defs>
						
							<mask maskUnits="userSpaceOnUse" x="63" y="133.5" width="10" height="11" id="SVGID_00000158744506175278721690000008607030122319326382_">
							<g style="filter:url(#Adobe_OpacityMaskFilter_00000182522367452870808120000003909387042939517614_);">
								
									<image style="overflow:visible;" width="9.4" height="9.1" xlink:href="B6BBBA68.png"  transform="matrix(1 0 0 1 63.0787 134.424)"/>
							</g>
						</mask>
						<g style="mask:url(#SVGID_00000158744506175278721690000008607030122319326382_);">
							<g class="st39">
								
									<image style="overflow:visible;" width="10" height="11" xlink:href="5970643F.png"  transform="matrix(1 0 0 1 63 133.5162)">
								</image>
							</g>
						</g>
					</g>
					<g>
						<defs>
							
								<filter id="Adobe_OpacityMaskFilter_00000029021713134223196550000018312833522133889726_" filterUnits="userSpaceOnUse" x="65" y="136.5" width="5" height="5">
								<feFlood  style="flood-color:white;flood-opacity:1" result="back"/>
								<feBlend  in="SourceGraphic" in2="back" mode="normal"/>
							</filter>
						</defs>
						
							<mask maskUnits="userSpaceOnUse" x="65" y="136.5" width="5" height="5" id="SVGID_00000025437078931962471380000006587320610490566806_">
							<g style="filter:url(#Adobe_OpacityMaskFilter_00000029021713134223196550000018312833522133889726_);">
								
									<image style="overflow:visible;" width="3.7" height="3.6" xlink:href="6921EF5D.png"  transform="matrix(1 0 0 1 65.9429 137.2157)"/>
							</g>
						</mask>
						<g style="mask:url(#SVGID_00000025437078931962471380000006587320610490566806_);">
							<g class="st39">
								
									<image style="overflow:visible;" width="5" height="5" xlink:href="ED3E7ABB.png"  transform="matrix(1 0 0 1 65 136.5162)">
								</image>
							</g>
						</g>
					</g>
				</g>
				<g>
					<g>
						<defs>
							
								<filter id="Adobe_OpacityMaskFilter_00000102528041353749603460000017796664242969841311_" filterUnits="userSpaceOnUse" x="59" y="132.5" width="6" height="5">
								<feFlood  style="flood-color:white;flood-opacity:1" result="back"/>
								<feBlend  in="SourceGraphic" in2="back" mode="normal"/>
							</filter>
						</defs>
						
							<mask maskUnits="userSpaceOnUse" x="59" y="132.5" width="6" height="5" id="SVGID_00000044143382612352236790000009182880879065056159_">
							<g style="filter:url(#Adobe_OpacityMaskFilter_00000102528041353749603460000017796664242969841311_);">
								
									<image style="overflow:visible;" width="5" height="4.9" xlink:href="6921EF53.png"  transform="matrix(1 0 0 1 59.4925 132.5485)"/>
							</g>
						</mask>
						<g style="mask:url(#SVGID_00000044143382612352236790000009182880879065056159_);">
							<g class="st39">
								
									<image style="overflow:visible;" width="6" height="5" xlink:href="ED3E7AB9.png"  transform="matrix(1 0 0 1 59 132.5162)">
								</image>
							</g>
						</g>
					</g>
					<g>
						<defs>
							
								<filter id="Adobe_OpacityMaskFilter_00000019678814505570800800000000615337467848629665_" filterUnits="userSpaceOnUse" x="61" y="133.5" width="2" height="3">
								<feFlood  style="flood-color:white;flood-opacity:1" result="back"/>
								<feBlend  in="SourceGraphic" in2="back" mode="normal"/>
							</filter>
						</defs>
						
							<mask maskUnits="userSpaceOnUse" x="61" y="133.5" width="2" height="3" id="SVGID_00000130645207096425048820000011555222730297341080_">
							<g style="filter:url(#Adobe_OpacityMaskFilter_00000019678814505570800800000000615337467848629665_);">
								
									<image style="overflow:visible;" width="1.9" height="1.9" xlink:href="6921EF55.png"  transform="matrix(1 0 0 1 61.02 134.0377)"/>
							</g>
						</mask>
						<g style="mask:url(#SVGID_00000130645207096425048820000011555222730297341080_);">
							<g class="st39">
								
									<image style="overflow:visible;" width="2" height="3" xlink:href="ED3E7ABF.png"  transform="matrix(1 0 0 1 61 133.5162)">
								</image>
							</g>
						</g>
					</g>
				</g>
				<g>
					<g>
						<defs>
							
								<filter id="Adobe_OpacityMaskFilter_00000078737947387153916930000004843857971525548948_" filterUnits="userSpaceOnUse" x="56" y="118.5" width="8" height="8">
								<feFlood  style="flood-color:white;flood-opacity:1" result="back"/>
								<feBlend  in="SourceGraphic" in2="back" mode="normal"/>
							</filter>
						</defs>
						
							<mask maskUnits="userSpaceOnUse" x="56" y="118.5" width="8" height="8" id="SVGID_00000109005833468656448580000001958629409770373287_">
							<g style="filter:url(#Adobe_OpacityMaskFilter_00000078737947387153916930000004843857971525548948_);">
								
									<image style="overflow:visible;" width="7.2" height="7" xlink:href="6921EF57.png"  transform="matrix(1 0 0 1 56.0575 118.7608)"/>
							</g>
						</mask>
						<g style="mask:url(#SVGID_00000109005833468656448580000001958629409770373287_);">
							<g class="st39">
								
									<image style="overflow:visible;" width="8" height="8" xlink:href="ED3E7ABA.png"  transform="matrix(1 0 0 1 56 118.5162)">
								</image>
							</g>
						</g>
					</g>
					<g>
						<defs>
							
								<filter id="Adobe_OpacityMaskFilter_00000104702622228694695170000002871005875874530239_" filterUnits="userSpaceOnUse" x="58" y="120.5" width="3" height="3">
								<feFlood  style="flood-color:white;flood-opacity:1" result="back"/>
								<feBlend  in="SourceGraphic" in2="back" mode="normal"/>
							</filter>
						</defs>
						
							<mask maskUnits="userSpaceOnUse" x="58" y="120.5" width="3" height="3" id="SVGID_00000045604015130822075220000009990629950785965185_">
							<g style="filter:url(#Adobe_OpacityMaskFilter_00000104702622228694695170000002871005875874530239_);">
								
									<image style="overflow:visible;" width="1.8" height="1.8" xlink:href="6921EF54.png"  transform="matrix(1 0 0 1 58.7361 121.372)"/>
							</g>
						</mask>
						<g style="mask:url(#SVGID_00000045604015130822075220000009990629950785965185_);">
							<g class="st39">
								
									<image style="overflow:visible;" width="3" height="3" xlink:href="ED3E7AA5.png"  transform="matrix(1 0 0 1 58 120.5162)">
								</image>
							</g>
						</g>
					</g>
				</g>
				<g class="st39">
					<g>
						<defs>
							
								<filter id="Adobe_OpacityMaskFilter_00000036969430985324410050000011188937123566546087_" filterUnits="userSpaceOnUse" x="53" y="130.5" width="6" height="6">
								<feFlood  style="flood-color:white;flood-opacity:1" result="back"/>
								<feBlend  in="SourceGraphic" in2="back" mode="normal"/>
							</filter>
						</defs>
						
							<mask maskUnits="userSpaceOnUse" x="53" y="130.5" width="6" height="6" id="SVGID_00000090972919348967753960000012911687513626323845_">
							<g style="filter:url(#Adobe_OpacityMaskFilter_00000036969430985324410050000011188937123566546087_);">
								
									<image style="overflow:visible;" width="4.6" height="4.5" xlink:href="6921EF4C.png"  transform="matrix(1 0 0 1 53.8746 131.3416)"/>
							</g>
						</mask>
						<g style="mask:url(#SVGID_00000090972919348967753960000012911687513626323845_);">
							<g class="st39">
								
									<image style="overflow:visible;" width="6" height="6" xlink:href="ED3E7AA6.png"  transform="matrix(1 0 0 1 53 130.5162)">
								</image>
							</g>
						</g>
					</g>
					<g>
						<defs>
							
								<filter id="Adobe_OpacityMaskFilter_00000041285355094811826880000005025219635181891992_" filterUnits="userSpaceOnUse" x="55" y="132.5" width="2" height="2">
								<feFlood  style="flood-color:white;flood-opacity:1" result="back"/>
								<feBlend  in="SourceGraphic" in2="back" mode="normal"/>
							</filter>
						</defs>
						
							<mask maskUnits="userSpaceOnUse" x="55" y="132.5" width="2" height="2" id="SVGID_00000133503229070798570720000015201314968834493857_">
							<g style="filter:url(#Adobe_OpacityMaskFilter_00000041285355094811826880000005025219635181891992_);">
								
									<image style="overflow:visible;" width="1.2" height="1.2" xlink:href="6921EF4D.png"  transform="matrix(1 0 0 1 55.6034 133.0266)"/>
							</g>
						</mask>
						<g style="mask:url(#SVGID_00000133503229070798570720000015201314968834493857_);">
							<g class="st39">
								
									<image style="overflow:visible;" width="2" height="2" xlink:href="ED3E7AA7.png"  transform="matrix(1 0 0 1 55 132.5162)">
								</image>
							</g>
						</g>
					</g>
				</g>
				<g class="st39">
					<g>
						<defs>
							
								<filter id="Adobe_OpacityMaskFilter_00000108302890186122669410000011349610838293825462_" filterUnits="userSpaceOnUse" x="61" y="141.5" width="9" height="8">
								<feFlood  style="flood-color:white;flood-opacity:1" result="back"/>
								<feBlend  in="SourceGraphic" in2="back" mode="normal"/>
							</filter>
						</defs>
						
							<mask maskUnits="userSpaceOnUse" x="61" y="141.5" width="9" height="8" id="SVGID_00000174575231211741847980000010816826946245477531_">
							<g style="filter:url(#Adobe_OpacityMaskFilter_00000108302890186122669410000011349610838293825462_);">
								
									<image style="overflow:visible;" width="7.2" height="7" xlink:href="6921EF4F.png"  transform="matrix(1 0 0 1 61.8176 141.8931)"/>
							</g>
						</mask>
						<g style="mask:url(#SVGID_00000174575231211741847980000010816826946245477531_);">
							<g class="st39">
								
									<image style="overflow:visible;" width="9" height="8" xlink:href="ED3E7AA9.png"  transform="matrix(1 0 0 1 61 141.5162)">
								</image>
							</g>
						</g>
					</g>
					<g>
						<defs>
							
								<filter id="Adobe_OpacityMaskFilter_00000124156864285910761880000016503633388881883070_" filterUnits="userSpaceOnUse" x="64" y="143.5" width="3" height="3">
								<feFlood  style="flood-color:white;flood-opacity:1" result="back"/>
								<feBlend  in="SourceGraphic" in2="back" mode="normal"/>
							</filter>
						</defs>
						
							<mask maskUnits="userSpaceOnUse" x="64" y="143.5" width="3" height="3" id="SVGID_00000094601859500644469640000006057215732149824134_">
							<g style="filter:url(#Adobe_OpacityMaskFilter_00000124156864285910761880000016503633388881883070_);">
								
									<image style="overflow:visible;" width="1.8" height="1.8" xlink:href="6921EF4B.png"  transform="matrix(1 0 0 1 64.4963 144.5045)"/>
							</g>
						</mask>
						<g style="mask:url(#SVGID_00000094601859500644469640000006057215732149824134_);">
							<g class="st39">
								
									<image style="overflow:visible;" width="3" height="3" xlink:href="ED3E7AAB.png"  transform="matrix(1 0 0 1 64 143.5162)">
								</image>
							</g>
						</g>
					</g>
				</g>
			</g>
			<path class="st4" d="M146.5,170.8c-0.1-4.2-0.9-8.2-2.4-12.1c-1.4-3.7-3.2-7.2-4.2-11c-0.2-0.7-0.4-1.5-0.5-2.3
				c0.2,0.1,0.3,0.1,0.5,0.2c0.6,0.2,0.9-0.8,0.3-1c-4.6-1.7-9.4-2.6-14.3-2.5c-0.4,0-0.5,0.3-0.5,0.6c0,0,0,0.1,0,0.2
				c0.4,3.4,0.5,6.8,0.1,10.3c-0.2,1.7-0.5,3.4-0.9,5c-0.2,0.8-0.4,1.7-0.7,2.5c-0.1,0.3-0.1,0.8-0.3,1c-0.2,0.2-0.8,0-1-0.1
				c-1.6-0.3-3.1-1.2-4.5-1.9c-1.5-0.8-3-1.6-4.4-2.4c-2.9-1.7-5.8-3.5-8.4-5.6c-3-2.5-5.7-5.3-8.5-8.1c-0.2-0.2-0.4-0.2-0.5-0.1
				c-1.4-1-2.8-2.1-3.9-3.4c-1.2-1.4-2.2-3.1-2.8-4.8c-1.5-4.1-1.8-8.5-2.3-12.8c-0.2-1.3-0.3-2.6-0.5-3.9c-0.1-0.5-0.1-1.2-0.3-1.7
				c0-0.2,0-0.4-0.2-0.6c-0.8-0.6-1.6-1.2-2.4-1.8c-0.8-0.6-1.7-1.1-2.4-1.8c-1.4-1.4-2.8-2.6-4.4-3.7c-0.8-0.5-1.5-1.1-2.4-1.5
				c-0.9-0.4-1.9-0.4-2.8-0.2c-1.9,0.2-3.7,1-5.5,1.7c-0.4,0.2-0.9,0.4-1.2,0.7c-0.4,0.4-0.7,0.8-1.1,1.2c-0.8,0.9-1.6,1.9-2.4,2.8
				c-0.2,0.2-0.2,0.4-0.1,0.6c0,0.1,0,0.1-0.1,0.2c0,0.3,0,0.6,0.1,0.8c0.1,0.2,0.2,0.5,0.5,0.6c0.1,0.1,0.3,0.2,0.5,0.3
				c-0.3,1-0.6,2.1-0.5,3.1c0,1,0.5,1.9,1.4,2.3c-0.2,0.8-0.2,1.8,0.3,2.6c0.5,0.9,1.5,1.5,2.5,1.6c0,0,0.1,0,0.1,0c0,0.3,0,0.7,0,1
				c0,0,0,0.1-0.1,0.1c0,0.3,0,0.6,0.1,0.9c0.1,0.2,0.3,0.4,0.5,0.6c0.5,0.3,1.1,0.3,1.6,0c0.4-0.2,0.8-0.6,1-1
				c0.2-0.3,0.2-0.7,0.3-1c0.8-0.2,1.6-0.4,2.4-0.8c1,0.5,2,0.9,3,1.2c0,1.7,0.6,3.3,1.5,4.6c0.1,2.5,0.3,5,0.4,7.5
				c0.1,2.1,0,4.4,1.5,6.1c1.3,1.4,3.2,2.1,4.8,3c1.8,1,3.4,2.2,4.9,3.6c1.7,1.6,3.2,3.4,4.4,5.4c0.1,0.1,0.2,0.2,0.3,0.2
				c1.9,3.4,3.8,6.8,5.9,10c2.3,3.5,4.8,6.8,7.6,9.8c3,3.2,6.2,6.4,9.3,9.5c2.9,3,5.8,6,9,8.7c1.6,1.4,3.2,2.7,4.8,3.9
				c1.5,1.1,3.3,2.2,5.2,2.5c1.9,0.3,3.6-0.5,5-1.8c1.4-1.3,2.5-3,3.4-4.6c1.9-3.7,2.3-7.9,2.8-12
				C146.3,179.4,146.7,175.1,146.5,170.8z M76.1,121.1c-0.4,0-1.8-0.4-2.9-0.4c-1.1,0-3.9,0-4.3-0.4l1.4-1.8c0,0,0.4-0.4,0.7-0.4
				c0.4,0,1.1,1.4,2.1,1.8C74.3,120.4,76.4,121.1,76.1,121.1z"/>
		</g>
	</g>
</g>
</svg>
