<?xml version="1.0" encoding="utf-8"?>
<!-- Generator: Adobe Illustrator 25.4.8, SVG Export Plug-In . SVG Version: 6.00 Build 0)  -->
<svg version="1.1" id="Layer_1" xmlns="http://www.w3.org/2000/svg" xmlns:xlink="http://www.w3.org/1999/xlink" x="0px" y="0px"
	 viewBox="0 0 196 215.3" style="enable-background:new 0 0 196 215.3;" xml:space="preserve">
<style type="text/css">
	.st0{clip-path:url(#SVGID_00000136411748196343524900000007537487640430173620_);}
	.st1{opacity:0.11;enable-background:new    ;}
	.st2{fill:#BB7353;}
	.st3{fill:#02B2BF;}
	.st4{fill:#664A61;}
	.st5{opacity:0.37;enable-background:new    ;}
	.st6{fill:#1390A1;}
	.st7{opacity:0.26;fill:#010C0F;enable-background:new    ;}
	.st8{opacity:0.4;fill:#FFFFFF;enable-background:new    ;}
	.st9{fill:#15494C;}
	.st10{fill:#207777;}
	.st11{fill:#FFC19F;}
	.st12{fill:#F9E9A7;}
	.st13{fill:#0089A0;}
	.st14{fill:#E0E0E0;}
	.st15{opacity:0.12;fill:#020202;enable-background:new    ;}
	.st16{fill:#E0956C;}
	.st17{fill:#D3DAE5;}
	.st18{opacity:0.23;}
	.st19{fill:#25D642;}
	.st20{opacity:0.73;fill:#25D642;enable-background:new    ;}
	.st21{fill:#393431;}
	.st22{fill:#8E482D;}
	.st23{opacity:0.16;}
</style>
<g id="Layer_1_00000081642710696665892820000015761488693506072246_">
	<g>
		<g>
			<g>
				<defs>
					<path id="SVGID_1_" d="M100.3-14.1c-15.2,0-15.5,65.6-27.8,72.7C14.2-50.6-34.6,23.4-41.1,31.3c-4.2,5.2,82.5,58.2,79.7,64.2
						c-5.2,10.9-8,22.9-8,35.8c0,46.3,37.5,83.9,83.9,83.9c46.3,0,83.9-37.5,83.9-83.9c0-14-2.9-120.3-9.1-131.9
						C175.4-27.3,132.6-14.1,100.3-14.1z"/>
				</defs>
				<clipPath id="SVGID_00000119833244292687271560000014654272381802037146_">
					<use xlink:href="#SVGID_1_"  style="overflow:visible;"/>
				</clipPath>
				<g style="clip-path:url(#SVGID_00000119833244292687271560000014654272381802037146_);">
					<ellipse class="st1" cx="83.3" cy="261.1" rx="61.3" ry="6.7"/>
					<path class="st1" d="M54.6,269.8c-5.7,3.6-30.2,18.7-47.7,18.7c-17.3,0-31.3-2-31.3-5.7S5.6,263,23,263
						C40.5,263.1,57.8,267.9,54.6,269.8z"/>
					<path class="st2" d="M22,63.6c-0.8-1.4,16.8-14,17.6-12.7C54.3,70.1,90.1,90.5,104.5,95c-11.9,8.7-22.2,16.5-34.3,14.1
						C60.6,107.3,38.9,91.5,22,63.6z"/>
					<path class="st3" d="M77.4,79.9c-3.4,9.2-8.1,29.9-11,39.7c20.3,7.4,37.1,12.4,38.6,12.2c16.1-3.6,24.3-36.4,25.5-38.2
						C119.9,91.3,97.4,86.6,77.4,79.9z"/>
					<path class="st4" d="M192.8,205.6c-8.5-1.5-23.2-4.3-36.4-6C149,200,98,174.1,90.5,173.7c-13.1-8-30.8-24.5-45.3-22.1
						c-7.8,1.3-11.9,6.3-14.1,12.4c-3.2,9,2.8,21.3,7.4,27.8c8.4,12,48.5,42.1,62.8,48.8c9.1,4.3,48,14.5,57.8,12.2
						c15.4-3.8,40.1-6.9,45.3-18.3C210.1,222,203,207.6,192.8,205.6z"/>
					<path class="st5" d="M170,194.8c0,14.3-31.8,27.7-54.8,21.7c-27.6-7.1-26.3-44.9-35.4-49.4c6-1.8,23.4,1.8,47.1,1.8
						S170,180.6,170,194.8z"/>
					<path class="st3" d="M188.2,99.7c-3.8-2.8-21-8.8-38.5-9.1c-20-0.3-42.5,4.1-43.2,8c-7,34.7-12.6,61.1-17.6,67.3
						c-1.7,2.1-8.5-5.6-8.4,1.4c1,0.7,4.1,2.7,4.9,3.4c3.9,5,7.6,31.5,27,39.4c28.1,11.6,62.9-3.2,66.7-7.1
						C186.1,182.5,191.8,125.5,188.2,99.7z"/>
					<path class="st6" d="M137.8,118.8c-11.2,0.7-23.2-9.9-18.6-27.6c12.3-0.3,35-0.3,51.2,2c2.1,1.4,3.5,3.4,0.8,5.6
						C165,103.8,155.4,117.5,137.8,118.8z"/>
					<path class="st7" d="M167.3,102c1.5-5.9-5.9-8.3-6.3-9.7c-23.1-1.4-46-3.4-49.8,2.8c-2.1,3.5-0.3,6.2-0.8,9
						c-1.1,5.9-5.9,13.3,4.2,15.8c13.8,3.5,0.1,43.1,19.3,44.6c7,0.6,6.6-6,13.8-10.1c4.6-2.5,11.6-2.1,18.9-8.7
						c2.9-2.7,1.1-10.9,0.7-16.8c-0.3-4.3,4.5-6.9,4.8-8C174.2,114.7,165.1,110.8,167.3,102z"/>
					<path class="st8" d="M104.1,110.2c-0.4,1.8-0.7,3.4-1.1,5c11.7,6.2,24.6,10.9,38,14.1c11,2.7,22.4,4.1,33.3,4.2l0.6-5.5
						C151.4,127.7,125.6,121.4,104.1,110.2z M88.9,165.9c-0.3,0.4-0.8,0.4-1.5,0.3c12.9,7.7,26.9,16.5,41.7,21.4
						c13,4.3,27,7.6,39.9,7.3c0.1-1.8,0.3-3.6,0.4-5.5c-26.4,0.4-55.1-11.6-79.3-25.6C89.7,164.6,89.3,165.5,88.9,165.9z
						 M80.9,167.7c0.1,0.1,0.3,0.1,0.3,0.3c0.7,0.4,3.9,2.7,4.2,2.9c0.3,0.4,0.6,1,0.8,1.5c9.9,7,15.9,21.7,33,29
						c12.9,5.5,32.2,8.5,45.7,8.5c0.8-0.3,1.8-0.6,2.5-0.8c0-1.3,0-2.2,0.1-3.8c-18-0.4-40.1-5-53-12.2
						C99.2,184.2,96.1,173.9,80.9,167.7z M93.6,154.6c12.3,6.7,26,11.9,40.1,15.2c12.3,2.9,24.8,4.3,36.8,4.2
						c0.1-1.8,0.3-3.6,0.6-5.5c-25,0-52.9-6.6-76-18.9C94.6,151.5,94.2,153,93.6,154.6z M98.7,135.7c11.9,6.2,24.9,11,38.3,14.3
						c11.7,2.8,23.8,4.2,35.4,4.2l0.6-5.5c-24.1-0.3-50.9-6.4-73.2-18C99.4,132.5,98.9,134.1,98.7,135.7z"/>
					<path class="st4" d="M198.2,211.6c1.5,6.6-8.4,14.4-22.1,17.6c-13.7,3.2-48.1,2.2-49.7-4.2c-1.5-6.6,35.9-16.6,49.5-20.6
						C180.6,203,196.7,205.1,198.2,211.6z"/>
					<g>
						<g>
							<path class="st9" d="M62.6,265.3c-15.1-5.2-13.8-35.1,1.8-38.9c6-0.4,26.9,3.9,33.6,4.1c6,0.1,15.1-1,19.4-0.8
								c3.9,0.1,14.3,0.3,15.2,17.3c0.6,10.4-16.4,16.9-26.2,18.6C102,266.7,72.8,268.8,62.6,265.3z"/>
							<path class="st10" d="M128.6,261.7c-4.3,5.5-23.8,6.9-29.5,2.8c-5.6-4.1-5.6-31.1,1.4-31.8c6-0.7,19.2-3.4,24.8,0.7
								C131.1,237.4,132.9,256.2,128.6,261.7z"/>
						</g>
						<path class="st11" d="M102,239.9c-0.8,0.1,7.6,24.1,8.5,24.1c14.5-1.4,54.8-8.3,79-19.6c9-4.2,15.2-14.1,12.2-23.5
							c-3.1-9.8-14.1-15.4-23.4-11C149,223.7,110.5,238.5,102,239.9z"/>
						<g>
							<path class="st12" d="M96.6,264.5c9,1.1,32.9-2.1,37.3-3.2l-5-31.6c-4.2,0.8-25.3,4.6-32.6,5.9
								C93.6,236,96.6,264.5,96.6,264.5z"/>
							<path class="st13" d="M68,266.5c-14.3-8.3-16.9-34.1,0.8-38c5.6-0.4,18.2,2.9,28.4,3.6c4.8,0.3,13.3-0.4,16.2-0.7
								c-1.5,1.4-1.5,2.8-1.1,3.4c0.6,0.7,1.4,0.3,2.7,1c1.5,0.7,4.8,15.7,3.8,18.9c-0.6,2.1-4.2,2.2-4.9,3.8
								c-0.7,1.5-0.1,6,2.2,7.8C101.2,268.6,70.5,267.9,68,266.5z"/>
							<path class="st14" d="M88.3,260.9c0.1,0,0.3,0,0.4,0c0.4-0.1,0.7-0.7,0.4-1.1c-2.1-5.3-2.1-15.1,0-21.3
								c0.1-0.4-0.1-1-0.6-1.1s-1,0.1-1.1,0.6c-2.2,6.4-2.2,16.8,0,22.5C87.7,260.6,88,260.9,88.3,260.9z"/>
							<path class="st14" d="M94,260.3c0.1,0,0.3,0,0.4,0c0.4-0.1,0.7-0.7,0.4-1.1c-2.1-5.3-2.1-15.1,0-21.3c0.1-0.4-0.1-1-0.6-1.1
								c-0.4-0.1-1,0.1-1.1,0.6c-2.2,6.4-2.2,16.8,0,22.5C93.5,260,93.8,260.3,94,260.3z"/>
							<path class="st14" d="M99.6,259.7c0.1,0,0.3,0,0.4,0c0.4-0.1,0.7-0.7,0.4-1.1c-2.1-5.3-2.1-15.1,0-21.3
								c0.1-0.4-0.1-1-0.6-1.1c-0.4-0.1-1,0.1-1.1,0.6c-2.2,6.4-2.2,16.8,0,22.5C99.1,259.5,99.4,259.7,99.6,259.7z"/>
						</g>
					</g>
					<path class="st2" d="M48.4,240.6c-0.3,0.7-29.1-7.3-29-8.1c2.2-17.1,4.9-40.1,10.9-66.6c2-8.7,11-14.4,21.4-12.4
						c10.8,2.1,17.8,16.8,15,26.7C59.2,207,51.7,229.5,48.4,240.6z"/>
					<path class="st12" d="M48,257.5c-0.1,0.7-32.2-3.4-32.2-4.2c0.1-6.4,1.8-19.4,2.2-24.5l34.8,3.6C51.5,239.3,49,253.3,48,257.5z
						"/>
					<path class="st7" d="M174.9,159c-5,20.1,7.6,14.7,9.4,21.3c0.8-2.1,5.9-41.3,6.7-46.2C191.9,128.5,175.7,155.5,174.9,159z"/>
					<path class="st2" d="M228.9,226c1,1.4,17.3-9.7,16.5-11c-12.2-21.3-22.7-57.2-34.4-82c-7.8,10.2-19.3,23.5-18.5,31.6
						C193.5,175,208,197.2,228.9,226z"/>
					<path class="st3" d="M226.4,160.3c-8.4,5.9-25.5,15.4-35.9,18.3c-3.5-3.1-14.5-22.1-15.1-23.1c-1.1-11.2,3.5-58.2,3.6-59.7
						c9.5,2.9,17.9,6.7,21.1,10.5C205,111.8,220.1,144.1,226.4,160.3z"/>
					<g>
						
							<ellipse transform="matrix(4.333093e-03 -1 1 4.333093e-03 -2.355 513.0837)" class="st15" cx="256.5" cy="257.7" rx="3.4" ry="27.7"/>
						<path class="st16" d="M249,233.6c-1.3-1.8-8.5,1.1-7.3,2.9c5.9,9.2,13.4,18.2,18.3,21c3.2,2,8.3,1.7,8-0.7
							C263.4,252.2,256.4,244.1,249,233.6z"/>
						<path class="st16" d="M239.9,230.8c-0.8-1.8-8.1-0.3-7.3,1.5c3.9,9.5,9.5,19,13.6,22.4c2.7,2.2,7.4,2.9,7.6,0.7
							C250.3,250.4,245.1,241.7,239.9,230.8z"/>
						<path class="st2" d="M282.4,256.9c-6-5.7-26.2-28.8-38.2-41.8c-1.5-1.5-13.8,6-13.8,9.5c-2.8,5,1.3,11.6,1.5,20.6
							c0.1,4.3-1.1,5.5-2.7,10.2c-0.8,2.8,5.5,2.2,6.6,1.4c2.1-1.4,3.6-3.6,6-8.4c2.4-4.8,6.9-8.1,14.4-2.8c9,6.2,14.8,12.2,21.1,13
							C279.8,259,281.3,258.3,282.4,256.9z"/>
					</g>
					<g>
						<path class="st9" d="M-6.7,286c-8-0.3-15.1-2-16.1-4.3c-0.4-1-0.7-3.4-0.3-4.9c0.6-2.1,4.8-6.7,6.4-6.9
							c1.1,5.5,7.4,10.1,22.7,7.8c14.3-2.1,43.8-14.8,45.3-16.1c0,0-0.1,5.6-0.1,6.9c-11.6,5.9-28.8,13.6-36.8,15.4
							C9.8,284.9-0.5,286.2-6.7,286z"/>
						<path class="st13" d="M50,241.4c-1,2.4-17.1,4.9-17.5,4.6c-0.8-0.4-0.3-5.5-1.1-6c-1.7-1.3-19-3.5-20.8-1.4
							c-0.6,0.7-0.6,2.7-1.7,4.9c-9.2,11.3-16.8,14.7-22,20c-5.5,5.6-9.9,12.4-7.8,14c4.2,3.2,22.8,3.4,34.3,0.6
							c7.7-1.8,34.1-14.3,37.9-16.1c0.1-2.8,0.1-15.9,0.1-19.6C51.4,241.8,50.4,241.4,50,241.4z"/>
						<path class="st17" d="M1.4,249.4c-0.3-0.4-0.1-1,0.3-1.3c2.4-1.3,6.4-1.3,10.8,0l0.4,0.1c4.2,1.3,7.6,3.5,9.2,6.2
							c0.3,0.4,0.1,1-0.3,1.3c-0.3,0.1-0.4,0.1-0.7,0c-0.3-0.1-0.4-0.3-0.6-0.4c-1.4-2.2-4.3-4.2-8-5.3c-0.1,0-0.3-0.1-0.4-0.1
							c-3.8-1.1-7.4-1.1-9.4-0.1C2.3,250,1.7,249.8,1.4,249.4z"/>
						<path class="st17" d="M-2.6,253.9c-0.3-0.4-0.1-1,0.3-1.3c2.4-1.4,5.5-1.8,9.8-0.7l0.4,0.1c4.2,1.1,7.7,3.2,9.4,5.9
							c0.3,0.4,0.1,1-0.3,1.3c-0.3,0.1-0.4,0.1-0.7,0.1c-0.3,0-0.4-0.3-0.6-0.4c-1.5-2.1-4.5-4.1-8.3-5c-0.1,0-0.3,0-0.4-0.1
							c-3.8-1-6.4-0.6-8.4,0.6C-1.8,254.4-2.3,254.3-2.6,253.9z"/>
						<path class="st17" d="M-7.4,257.9c-0.3-0.4-0.3-1,0.3-1.3c2.2-1.4,5.3-2,9.5-1l0.4,0.1c4.2,1.1,7.7,3.1,9.5,5.6
							c0.3,0.4,0.1,1-0.3,1.3c-0.3,0.1-0.4,0.1-0.7,0.1c-0.3,0-0.4-0.1-0.6-0.4c-1.5-2.1-4.6-3.9-8.3-4.9c-0.1,0-0.3,0-0.4-0.1
							c-3.8-0.8-6.3-0.4-8.1,0.7C-6.5,258.5-7.1,258.3-7.4,257.9z"/>
					</g>
					<g>
						<path class="st16" d="M35.4,40.1c-1.1-1-2.7-2.9-11.7-8.3c-2.8-1.7-14.5,1.8-20.6,3.9c0.8,5.9,8,3.5,16.1,2.8l15.1,12.3
							C37.2,50.4,36.7,41.3,35.4,40.1z"/>
						<path class="st16" d="M33.9,35.1c-1.1-1-2.7-2.9-11.7-8.3c-2.8-1.7-14.5,1.8-20.6,3.9c0.8,5.9,8,3.5,16.1,2.8l15.1,12.3
							C35.8,45.3,35.3,36.2,33.9,35.1z"/>
						<path class="st16" d="M36.3,32.9c-1-1.1-2.1-3.4-10.1-10.1c-2.5-2.1-14.4-0.4-20.6,0.8c-0.1,6,7.1,4.6,15.2,5.3l12.7,14.7
							C36.4,43.4,37.4,34.1,36.3,32.9z"/>
						<path class="st2" d="M16.5,14c4.3,1.3,12.9,6.2,15.4,8.1s5.6,7.3,7.8,11c1.5,2.7,2,12.3,2.5,27.4c0,1.7-10.5,8-13.3,7.4
							c-12.4-2.7-15.8-9.2-19.6-19.2c-0.1-0.4-0.3-11.2,0.1-16.4c4.1-1.8,6.3,0.7,7.3,3.5c1.1,3.4,0.4,9.4,6.2,9.9
							c2.7,0.3,5.6-8.1,4.8-10.8c-1-2.9-4.2-7.6-5.2-8.3c-3.6-2.7-6.3-5-7.7-7C13.3,17.6,13.7,13.2,16.5,14z"/>
					</g>
					<path class="st7" d="M87.6,118.3c9.1-2.5,18.7-1.7,19.2,6.6c0.3,5.5-0.4,5.6-1.1,10.2c-1,5.6,2.8,6.4,1.5,10.4
						c-0.7,2.4-9.8,8.5-13.4,9.1c1.4-5.3,4.8-17.3,5.9-24.2c-6.4-1.5-17.9-5.6-28.1-9.2C71,115.5,81,120.2,87.6,118.3z"/>
					<path class="st7" d="M181.3,185.8c2.4,2.5-2.2,7.7-3.5,6.3c-4.1-4.2-5.9-1.1-5.9-4.6c0-3.5,3.8-8,5.9-8
						C179.6,179.5,178.4,182.8,181.3,185.8z"/>
					<g class="st18">
						<path class="st19" d="M16.7,116.7c-0.7,1.5-2.7,2.2-4.2,1.5s-2.2-2.7-1.5-4.2c0.7-1.5,2.7-2.2,4.2-1.5
							C16.7,113.3,17.4,115.1,16.7,116.7z"/>
						<path class="st19" d="M43.3,99.9c-0.4,0.8-1.4,1.3-2.4,0.8c-0.8-0.4-1.3-1.4-0.8-2.4c0.4-0.8,1.4-1.3,2.4-0.8
							C43.3,97.9,43.7,99,43.3,99.9z"/>
						<path class="st20" d="M31.5,126.9c-0.4,1-1.5,1.3-2.4,0.8c-1-0.4-1.3-1.5-0.8-2.4c0.4-1,1.5-1.3,2.4-0.8
							C31.5,124.8,31.9,125.9,31.5,126.9z"/>
						<path class="st19" d="M52.6,136c-0.3,0.7-1.1,1-1.8,0.7s-1-1.1-0.7-1.8c0.3-0.7,1.1-1,1.8-0.7C52.6,134.4,52.9,135.3,52.6,136
							z"/>
						<path class="st19" d="M23.8,143.4c-0.4,1-1.7,1.4-2.7,1c-1-0.4-1.4-1.7-1-2.7s1.7-1.4,2.7-1C24,141.3,24.4,142.4,23.8,143.4z"
							/>
						<path class="st19" d="M73.6,148.3c-0.6,1.1-1.8,1.5-2.8,1c-1.1-0.6-1.5-1.8-1-2.8c0.6-1.1,1.8-1.5,2.8-1
							C73.8,145.9,74.2,147.1,73.6,148.3z"/>
						<path class="st20" d="M61.2,125.5c0.4,1.1-0.1,2.5-1.4,2.9c-1.1,0.4-2.5-0.1-2.9-1.4c-0.4-1.1,0.1-2.5,1.4-2.9
							C59.5,123.6,60.7,124.3,61.2,125.5z"/>
					</g>
					<g>
						<path class="st21" d="M167.7,75c0,0,0.1,0.1,0.6,0.4c1.5,1.4,5.9,6.2,4.6,14.5c0,0-4.9,7.1-10.9,0.6s-2.5-26.3-2.5-26.3
							L167.7,75z"/>
						<path class="st21" d="M121.2,29.9c0,0-11.5,10.5-11.7,18.6c0,0,2.2-0.3,7.8,3.1c0,0-2.9,7.7-7.3,11.5c0,0,5,11.6,14-5.6
							C132.8,40.6,129.6,31.2,121.2,29.9z"/>
						<path class="st21" d="M182,42.2c0,0.7-0.8,12.9,4.8,15.2c5.6,2.4-4.9,7.3-7,2.4c-2-4.8-1.7,5.2,0.1,9.5
							c1.8,4.3-7.1,22.5-10.9,16.5c-3.8-6-10.5-14.7-8-31.3c2.5-16.5,6.2-19.4,6.2-19.4L182,42.2z"/>
						<path class="st2" d="M164.8,66.7l-1.3,25.6c0,0,14.8-1.3-5.2,14.7c-8.7,7-22.9,7.7-22.9,7.7c-16.5,0-12.3-23.6-12.3-23.6
							c3.1-0.3,4.8-0.1,7-0.1c1-1.4,1.8-2.9,2.1-4.8l1.8-9.7L164.8,66.7z"/>
						<path class="st22" d="M134,80.8l-2.8,8.4c0,0,11.6-1.8,17.2-9C148.4,80.3,138.5,82.5,134,80.8z"/>
						<path class="st2" d="M177.5,44.8l-6.9,27c0,0-24.5,12.6-33.1,13.7c-8.8,1-16.1-0.6-18.6-5.9c-3.6-8.3-8.3-23.5-5.7-30.2
							c3.8-10.5,3.2-5.5,5.2-17.6c1.7-10.6,4.8-14.7,12.9-15.9c8.1-1.1,39.3,2.1,39.3,2.1L177.5,44.8z"/>
						<path class="st21" d="M168.4,56.2c0,0-5.6,0.4-5-9.2s-1.3-8.8-1.3-8.8s4.8-18.2-1.4-18.7c-9.2-0.7-31.1,15.8-34.8,12.4
							c0,0-3.1,2.2-3.4,5.6c0,0-2.1-9.4-2.2-12.2c-0.6-8.4,4.6-10.4,5.6-12.3c0.8-2,9.4-13,23.6-12.6c14.3,0.4,22.8,13.7,25.9,14
							c7,0.4,9.1,6.3,9.1,14c0,2.7-3.2,21.3-11,25.2C165.7,57.8,168.4,56.2,168.4,56.2z"/>
						<path class="st2" d="M158.7,64.1c0,0,1.8-12.9,11.7-12.9c9.9,0.1,5,15.7-3.8,19.2C157.7,73.7,158.7,64.1,158.7,64.1z"/>
						<path class="st22" d="M167,64.8c-1.4,1.3-3.2-0.3-2.4-2c1.1-2.5,2.9-4.8,5-3.9C172.1,59.9,169.7,62.7,167,64.8z"/>
						<path class="st21" d="M118.7,17.1c0,0-4.9,2.7-5.5,13.7c-0.6,11,7.7,9.2,5.3,15.4c0,0,4.6,2.4,7.8-4.9s3.5,4.3,8.3,1.8
							c4.8-2.5,4.6-12.4,9.5-11.6c4.9,1,8,9.8,11.9,0c3.9-9.9,6.7-5.3,8.8-5.9c2.1-0.6,8.4-12.2,8.4-12.2s-30.2-12-37.1-9.4
							c-6.9,2.5-9.8,1.1-11.2,4.2C123.5,11.2,115,13.3,118.7,17.1z"/>
						<path class="st21" d="M162.2,38.2c0,0,0.3,7.7-2.9,8.5c-3.2,0.8,5.7,5.7,8.7-4.1c0,0-9.8,6.4-8.3,13.4c0,0,5-5.3,11.9-6.4
							c6.9-1.1,0.3-13.4,0.3-13.4L162.2,38.2z"/>
					</g>
				</g>
			</g>
		</g>
		<g class="st23">
			<path class="st19" d="M76.1,152c-2.8-0.6-4.2-0.1-6,1.5c-1.1,1-3.5,4.8-5.5,5.3c-5,1.3-5.6-2.2-8.4-2.4
				c-1.8-0.1-6.4,1.3-10.9,2.7c-2.4,0.8-7,4.2-14-2.1c-3.6-3.2-4.2-7.7-3.4-9.7c2.2-5,8.1-6.7,13.1-7.7c1.7-0.3,7-2.9,9.4-2.5
				c3.8,0.8,5.3,5.6,9.4,6.4c3.1,0.6,4.8-4.1,9.2-1.8c2.1,1.1,4.2,2.7,6.4,3.5c3.8,1.7,9.7-0.4,13.8-5
				C89.4,140.4,83.4,153.6,76.1,152z"/>
		</g>
		<g class="st23">
			<path class="st19" d="M90.5,135c-6.7,4.5-12.4,4.3-15.2,2.5c-2.7-1.7-3.4-5.3-6.6-4.3c-1.5,0.4-5.9,2.4-7.8,1.8
				c-6.7-1.8-7.1-5.2-8.5-7.7c-2.4-4.6-3.5-4.1-7.1-3.1c-10.8,3.2-14.8-4.1-17.6-8.4c-6-9.5-4.2-19.9-3.9-19.4
				c2.4,3.5,3.2,11.3,23.9,9.2c11.5-1.3,12.3,1.8,14,3.5c2.7,2.8,0.8,8.3,3.6,11.3c2.1,2.2,6.7-1.3,10.5,2c2.4,2,2.1,4.8,2.8,7
				c0.7,2.7,2,4.2,3.6,5.3C83.1,135.7,86.6,136,90.5,135z"/>
		</g>
		<g class="st23">
			<path class="st19" d="M37.8,135.7c-4.5,0-3.8-1.3-7.1-1.3c-5.2,0-4.6,5.9-9.2,7.1c-2.8,0.7-6.2-2-9.5-3.1
				c-4.9-1.5-8.4-1.7-11-5.2c-3.6-4.5,5-4.6,7-6c3.8-2.9,6.2-0.1,11.9,0c3.1,0.1,8.1-3.9,12.3-1c2,1.4,3.5,3.9,5.7,4.5
				c4.3,1.1,10.8,0.1,12-0.6C48,131.6,44.4,135.7,37.8,135.7z"/>
		</g>
	</g>
</g>
</svg>
