<?xml version="1.0" encoding="utf-8"?>
<!-- Generator: Adobe Illustrator 25.4.8, SVG Export Plug-In . SVG Version: 6.00 Build 0)  -->
<svg version="1.1" id="Layer_1" xmlns="http://www.w3.org/2000/svg" xmlns:xlink="http://www.w3.org/1999/xlink" x="0px" y="0px"
	 viewBox="0 0 166.6 187.4" style="enable-background:new 0 0 166.6 187.4;" xml:space="preserve">
<style type="text/css">
	.st0{opacity:0.18;clip-path:url(#SVGID_00000176027223977308579510000007525585285670088872_);}
	.st1{fill:url(#SVGID_00000022560114551505294990000017513475592401662110_);}
	.st2{clip-path:url(#SVGID_00000076601920504573921600000002904102403941134471_);}
	.st3{fill:#FF9C6A;}
	.st4{opacity:0.5;}
	.st5{fill:#E1CBC3;}
	.st6{fill:#FC8754;}
	.st7{opacity:0;}
	.st8{fill:#766965;}
	.st9{fill:#1F192E;}
	.st10{fill:url(#SVGID_00000023971574240514533690000014177436080174288033_);}
	.st11{fill:url(#SVGID_00000077298724913260289850000000893167220257883324_);}
	.st12{fill:url(#SVGID_00000083086159334251641380000017388965134198782370_);}
	.st13{fill:url(#SVGID_00000085971489329157854990000001555761660017024698_);}
	.st14{fill:#7BCEEC;}
	.st15{fill:url(#SVGID_00000100354768471204779870000006882503686601530539_);}
	.st16{fill:#87E0DA;}
	.st17{filter:url(#Adobe_OpacityMaskFilter);}
	.st18{fill:url(#SVGID_00000004509726906281011660000014572321760306599561_);}
	
		.st19{mask:url(#SVGID_00000137134289376682650710000000428531646486869183_);fill:url(#SVGID_00000090985470051033784100000008437266279462896270_);}
</style>
<g>
	<g>
		<defs>
			<path id="SVGID_1_" d="M157.3,78.5c0,5.4-0.6,10.8-1.6,15.8c-7.3,35.9,84.7,61.3-49.7,105.9c-10.6,3.5-49.1-45.3-58.6-49.5
				C19.4,138.6,0,110.8,0,78.5C0,35,35.1-0.1,78.7-0.1S157.3,35,157.3,78.5z"/>
		</defs>
		<clipPath id="SVGID_00000060023305118698196550000003712409065731884971_">
			<use xlink:href="#SVGID_1_"  style="overflow:visible;"/>
		</clipPath>
		<g style="opacity:0.18;clip-path:url(#SVGID_00000060023305118698196550000003712409065731884971_);">
			
				<linearGradient id="SVGID_00000021841444028638008070000001356294405720041093_" gradientUnits="userSpaceOnUse" x1="0.4797" y1="158.0621" x2="157.8252" y2="158.0621" gradientTransform="matrix(1 0 0 -1 0 235.5173)">
				<stop  offset="0" style="stop-color:#5F74B1"/>
				<stop  offset="0.2466" style="stop-color:#7A90D2"/>
				<stop  offset="0.4903" style="stop-color:#8FA6EB"/>
				<stop  offset="0.7125" style="stop-color:#9CB3FA"/>
				<stop  offset="0.8936" style="stop-color:#A0B7FF"/>
			</linearGradient>
			<circle style="fill:url(#SVGID_00000021841444028638008070000001356294405720041093_);" cx="79.2" cy="77.5" r="78.7"/>
		</g>
	</g>
	<g>
		<defs>
			<path id="SVGID_00000020364808483411936000000005319598139491984303_" d="M157.3,78.5c0,5.4-0.6,10.8-1.6,15.8
				c-7.3,35.9,84.7,61.3-49.7,105.9c-10.6,3.5-49.1-45.3-58.6-49.5C19.4,138.6,0,110.8,0,78.5C0,35,35.1-0.1,78.7-0.1
				S157.3,35,157.3,78.5z"/>
		</defs>
		<clipPath id="SVGID_00000085231267711160923390000016337128988660894383_">
			<use xlink:href="#SVGID_00000020364808483411936000000005319598139491984303_"  style="overflow:visible;"/>
		</clipPath>
		<g style="clip-path:url(#SVGID_00000085231267711160923390000016337128988660894383_);">
			<g>
				<g>
					<g>
						<path class="st3" d="M156,116.4c-4.2,1.1-11.4-1.2-17-4c-6.4-3.1-15.4-10-19.7-16.9c-4.3-7-35.9-85.5-39.6-93.4
							c-3.8-7.8-21.8-19.1-33.5-16C42.8-12.9,19.2-1.9-1,7.5v49.2l59.6-29.3c0,0,0.5,19.4,9.2,31.1s38.9,44.1,39.9,46.5
							c1.2,2.3,0.2,14.9,7,15.5c6.7,0.6,8.6-1,15,0.6c5.2,1.3,9.5,5.2,16.2,2.9c4.6-1.6,8-3.1,10.3-4
							C158.8,119.1,160.2,115.4,156,116.4z"/>
					</g>
					<g class="st4">
						<path class="st5" d="M74.4,5.4c0-1.3-10.2-12-28.1-19.2c11.6-3.1,29.6,8,33.5,16C83.3,9.6,112,81.1,118.5,94
							C117.2,93.4,81.7,46,74.4,5.4z"/>
					</g>
					<g class="st4">
						<path class="st5" d="M134,113.6c-7.2-3.5-11.4-10.2-10.8-13c4.7,5,10.9,9.5,15.8,11.9c1.8,1,3.8,1.8,5.8,2.4
							C142.1,114.8,136.6,114.8,134,113.6z"/>
					</g>
					<g>
						<path class="st6" d="M138.6,119.5c-3.1-1.2-5.8-3.2-9.2-3.1c-3,0.1-6,0.8-9-0.1c-2.8-0.8-4.9-3.4-5.6-6.1
							c-0.7-2.6,0.5-5.3,1.4-7.6c0.4-0.8,0.8-1.8,1.1-2.6c-0.4-0.2-0.8-0.5-1.2-0.6c-2.4-1.2-5-2-7.3-3.5c-6.1-4-9.8-11-14.2-16.7
							C90.4,73.9,84.9,68.8,83,62c-2.2-7.6-0.8-15.8-4.4-23c-2.9-5.9-9.6-12.2-16.4-12.1c-1.7,0-2.9-1.3-2.9-2.9
							c-0.1-4.2,2.4-7.7,3.2-11.6c-2.6,0.6-4.8,3.1-6.6,5c-3,3.2-6.1,6.1-10,8.4c-4.2,2.5-8.9,4.2-13.4,6.2c-4.3,2-8.6,4.2-12.7,6.6
							c-7.6,4.2-14.6,9.1-20.5,15v3l59.6-29.3c0,0,0.5,19.4,9.2,31.1c8.8,11.6,38.9,44.1,39.9,46.5c1.2,2.3,0.2,14.9,7,15.5
							c6.7,0.6,8.6-1,15,0.6c5.2,1.3,9.5,5.2,16.2,2.9c4.6-1.6,8-3.1,10.3-4c1.1-0.4,1.9-1.3,2.2-2.2
							C152.1,119.7,145.2,122.2,138.6,119.5z"/>
					</g>
					<g>
						<path class="st3" d="M113.1,181.9c-4.3-0.2-10.4-4.7-15-9c-5-5-11.5-14.2-13.4-22.2c-2-8-7.4-92.5-8.6-101.1s-12-21-17.3-22.3
							C48.1,32.4,14.4,49-1,56.6v3.1l47-4.6c0,0-4,25.9,0.7,39.7c4.7,13.8,23.7,58.6,24.1,61.2c0.4,2.6-4.3,14.3,1.8,16.9
							c6.2,2.6,8.5,1.8,14,5.3c4.6,2.9,7.3,7.8,14.5,7.8c4.8,0,8.5-0.4,11-0.5C114.9,185.3,117.4,182.2,113.1,181.9z"/>
					</g>
					<g class="st4">
						<path class="st5" d="M71.4,96c-2.6-29.9,3.7-53.4,4.7-46.5c1.2,8.6,6.6,93.1,8.6,101.1c0,0.1,0.1,0.2,0.1,0.5
							C84.2,149.8,72.8,112.6,71.4,96z"/>
					</g>
					<g>
						<path class="st6" d="M97.6,179.6c-5.6-2.4-11.5-4.8-16.4-8.4c-4.1-3-7.7-8.3-4.3-13.2c0.8-1.2,3.4-3,2.5-4.7
							c-1.4-3-4.4-5.3-6.4-7.9c-2.3-3.1-3.4-7.3-4.8-10.9c-1.8-4.4-3.5-9-5-13.6c-2.6-7.8-4.8-15.7-6.2-23.9
							c-2.8-14.5-4.3-30.2-0.1-44.6c0.1-0.4,0.2-0.7,0.4-1c-6.6,0-13.2,0.2-19.5-1.9C36,49,34.9,47,35.9,45.3
							c4.3-7,12.1-10.4,18.2-15.5c0.2-0.1,0.4-0.4,0.5-0.5C41,35.8,12.8,49.9-1,56.6v3.1l47-4.6c0,0-4,25.9,0.7,39.7
							c4.7,13.8,23.7,58.6,24.1,61.2c0.4,2.6-4.3,14.3,1.8,16.9c6.2,2.6,8.5,1.8,14,5.3c4.6,2.9,7.3,7.8,14.5,7.8
							c4.6,0,8.3-0.4,10.7-0.5C107.1,184.3,102.3,181.7,97.6,179.6z"/>
					</g>
					<g class="st4">
						<path class="st5" d="M98.6,173.8c-5.2-2.2-9.8-6.2-12.6-10.1c-1.3-1.9-0.8-6.5-0.5-8.9c0.1-0.6,0.1-1.2,0-1.7
							c2.5,7.3,8.2,15.2,12.7,19.7c0.5,0.5,1.1,1,1.6,1.6C99.3,174.1,98.9,174,98.6,173.8z"/>
					</g>
				</g>
				<g class="st7">
					<g>
						<g>
							<path class="st8" d="M67.3,78.2c0,0,0-0.4,0.1-1s0.2-1.3,0.5-2c0.2-0.7,0.5-1.4,0.7-2c0.2-0.6,0.5-1,0.5-1s0,0.4-0.1,1
								s-0.2,1.3-0.5,2c-0.2,0.7-0.5,1.4-0.7,2C67.5,77.8,67.3,78.2,67.3,78.2z"/>
						</g>
						<g>
							<path class="st8" d="M65,78.7c0,0,0-0.4,0-1s0.1-1.3,0.2-2.2c0.1-0.7,0.2-1.6,0.5-2c0.1-0.6,0.2-1,0.2-1s0,0.4,0,1
								s-0.1,1.3-0.2,2.2c-0.1,0.7-0.2,1.6-0.5,2C65.1,78.3,65,78.7,65,78.7z"/>
						</g>
						<g>
							<path class="st8" d="M59.2,80.5c0,0,0-0.4,0-1s0.1-1.3,0.2-2.2c0.1-0.7,0.4-1.6,0.5-2c0.1-0.6,0.2-1,0.2-1s0,0.4,0,1
								s-0.1,1.3-0.2,2.2c-0.1,0.7-0.4,1.6-0.5,2C59.4,80.1,59.2,80.5,59.2,80.5z"/>
						</g>
						<g>
							<path class="st8" d="M54.4,74.7c0,0,0-0.4,0-1s0-1.3,0.1-2.2c0.1-0.7,0.1-1.6,0.2-2.2c0.1-0.6,0.2-1,0.2-1s0,0.4,0,1
								s0,1.3-0.1,2.2c-0.1,0.7-0.1,1.6-0.2,2.2C54.6,74.3,54.4,74.7,54.4,74.7z"/>
						</g>
						<g>
							<path class="st8" d="M50.4,77.7c0,0,0-0.4,0-1c0-0.6,0-1.3,0.1-2.2c0.1-0.7,0.2-1.6,0.4-2.2s0.2-1,0.2-1s0,0.4,0,1
								s0,1.3-0.1,2.2c-0.1,0.7-0.2,1.6-0.4,2.2C50.5,77.3,50.4,77.7,50.4,77.7z"/>
						</g>
						<g>
							<path class="st8" d="M51.8,81.8c0,0,0-0.4,0-1s0.1-1.3,0.1-2.2c0.1-0.7,0.2-1.6,0.4-2.2c0.1-0.6,0.2-1,0.2-1s0,0.4,0,1
								c0,0.6-0.1,1.3-0.1,2.2c-0.1,0.7-0.2,1.6-0.4,2.2C51.9,81.3,51.8,81.8,51.8,81.8z"/>
						</g>
						<g>
							<path class="st8" d="M54.6,83.8c0,0,0-0.4,0-1s0.1-1.3,0.2-2.2c0.1-0.7,0.2-1.6,0.4-2.2s0.2-1,0.2-1s0,0.4,0,1
								s-0.1,1.3-0.2,2.2c-0.1,0.7-0.2,1.6-0.4,2.2C54.7,83.5,54.6,83.8,54.6,83.8z"/>
						</g>
						<g>
							<path class="st8" d="M62,85c0,0,0-0.4,0.1-1s0.2-1.3,0.4-2.2c0.1-0.7,0.4-1.6,0.5-2c0.1-0.6,0.4-1,0.4-1s0,0.4-0.1,1
								S63,81.2,62.8,82c-0.1,0.7-0.4,1.6-0.5,2C62.2,84.7,62,85,62,85z"/>
						</g>
						<g>
							<path class="st8" d="M62.7,90.6c0,0,0-0.4,0.1-1s0.2-1.3,0.4-2.2c0.1-0.7,0.4-1.6,0.5-2c0.1-0.6,0.4-1,0.4-1s0,0.4-0.1,1
								c-0.1,0.6-0.2,1.3-0.4,2.2c-0.1,0.7-0.4,1.6-0.5,2C62.8,90.2,62.7,90.6,62.7,90.6z"/>
						</g>
						<g>
							<path class="st8" d="M65,95.4c0,0,0-0.4,0.1-1s0.2-1.3,0.4-2.2c0.1-0.7,0.4-1.6,0.5-2c0.1-0.6,0.4-1,0.4-1s0,0.4-0.1,1
								s-0.2,1.3-0.4,2.2c-0.1,0.7-0.4,1.6-0.5,2C65.1,95.1,65,95.4,65,95.4z"/>
						</g>
						<g>
							<path class="st8" d="M69.7,91.1c0,0,0-0.4,0.1-1s0.2-1.3,0.4-2.2c0.1-0.7,0.4-1.6,0.5-2c0.1-0.6,0.4-1,0.4-1s0,0.4-0.1,1
								s-0.2,1.3-0.4,2.2c-0.1,0.7-0.4,1.6-0.5,2C69.8,90.8,69.7,91.1,69.7,91.1z"/>
						</g>
						<g>
							<path class="st8" d="M71.4,96c0,0,0-0.4,0.1-1s0.2-1.3,0.4-2.2c0.1-0.7,0.4-1.6,0.5-2c0.1-0.6,0.4-1,0.4-1s0,0.4-0.1,1
								s-0.2,1.3-0.4,2.2c-0.1,0.7-0.4,1.6-0.5,2C71.5,95.7,71.4,96,71.4,96z"/>
						</g>
						<g>
							<path class="st8" d="M66.3,85.9c0,0,0-0.4,0.1-1s0.2-1.3,0.4-2.2c0.1-0.7,0.4-1.6,0.5-2c0.1-0.6,0.4-1,0.4-1s0,0.4-0.1,1
								s-0.2,1.3-0.4,2.2c-0.1,0.7-0.4,1.6-0.5,2C66.6,85.5,66.3,85.9,66.3,85.9z"/>
						</g>
						<g>
							<path class="st8" d="M73,86.9c0,0,0-0.4,0-1s0.1-1.3,0.1-2.2c0.1-0.7,0.2-1.6,0.4-2.2c0.1-0.6,0.2-1,0.2-1s0,0.4,0,1
								s-0.1,1.3-0.1,2.2c-0.1,0.7-0.2,1.6-0.4,2.2C73.2,86.6,73,86.9,73,86.9z"/>
						</g>
						<g>
							<path class="st8" d="M76,92c0,0,0-0.4,0-1s0.1-1.3,0.1-2.2c0.1-0.7,0.2-1.6,0.4-2.2c0.1-0.6,0.2-1,0.2-1s0,0.4,0,1
								s-0.1,1.3-0.1,2.2c-0.1,0.7-0.2,1.6-0.4,2.2C76.2,91.6,76,92,76,92z"/>
						</g>
						<g>
							<path class="st8" d="M69.6,82.9c0,0,0-0.4,0.1-1s0.2-1.3,0.5-2c0.2-0.7,0.4-1.6,0.6-2c0.2-0.6,0.4-1,0.4-1s0,0.4-0.1,1
								s-0.2,1.3-0.5,2c-0.2,0.7-0.4,1.6-0.6,2C69.7,82.4,69.6,82.9,69.6,82.9z"/>
						</g>
						<g>
							<path class="st8" d="M74.8,83.7c0,0,0-0.4,0.1-1s0.2-1.3,0.5-2c0.2-0.7,0.4-1.6,0.6-2c0.2-0.6,0.4-1,0.4-1s0,0.4-0.1,1
								c-0.1,0.6-0.2,1.3-0.5,2c-0.2,0.7-0.4,1.6-0.6,2C75,83.3,74.8,83.7,74.8,83.7z"/>
						</g>
						<g>
							<path class="st8" d="M74.1,76.5c0,0,0-0.4,0.1-1s0.2-1.3,0.5-2c0.2-0.7,0.4-1.6,0.6-2c0.2-0.6,0.4-1,0.4-1s0,0.4-0.1,1
								s-0.2,1.3-0.5,2c-0.2,0.7-0.4,1.6-0.6,2C74.2,76.1,74.1,76.5,74.1,76.5z"/>
						</g>
						<g>
							<path class="st8" d="M63.3,76.6c0,0,0-0.4,0-1s0.1-1.3,0.2-2.2c0.1-0.7,0.2-1.6,0.5-2c0.1-0.6,0.2-1,0.2-1s0,0.4,0,1
								s-0.1,1.3-0.2,2.2c-0.1,0.7-0.2,1.6-0.5,2C63.4,76.3,63.3,76.6,63.3,76.6z"/>
						</g>
						<g>
							<path class="st8" d="M58.3,76.1c0,0,0-0.4,0-1s0.1-1.3,0.2-2.2c0.1-0.7,0.2-1.6,0.4-2.2s0.2-1,0.2-1s0,0.4,0,1
								S59,72.2,58.9,73c-0.1,0.7-0.2,1.6-0.4,2.2C58.4,75.7,58.3,76.1,58.3,76.1z"/>
						</g>
						<g>
							<path class="st8" d="M47.3,82.9c0,0,0-0.4,0-1s0.1-1.3,0.2-2.2c0.1-0.7,0.2-1.6,0.4-2.2s0.2-1,0.2-1s0,0.4,0,1
								s-0.1,1.3-0.2,2.2c-0.1,0.7-0.2,1.6-0.4,2.2C47.4,82.5,47.3,82.9,47.3,82.9z"/>
						</g>
						<g>
							<path class="st8" d="M46.1,76.6c0,0,0-0.4,0-1s0.1-1.3,0.2-2.2c0.1-0.7,0.2-1.6,0.4-2.2c0.1-0.6,0.2-1,0.2-1s0,0.4,0,1
								s-0.1,1.3-0.2,2.2c-0.1,0.7-0.2,1.6-0.4,2.2C46.2,76.3,46.1,76.6,46.1,76.6z"/>
						</g>
						<g>
							<path class="st8" d="M70.5,65.5c0,0,0-0.4,0.1-1c0.1-0.6,0.2-1.3,0.5-2c0.2-0.7,0.5-1.4,0.7-2s0.4-1,0.4-1s0,0.4-0.1,1
								s-0.2,1.3-0.5,2c-0.2,0.7-0.5,1.4-0.7,2C70.6,65.1,70.5,65.5,70.5,65.5z"/>
						</g>
						<g>
							<path class="st8" d="M67.4,69.5c0,0,0-0.4,0-1s0.1-1.3,0.2-2.2c0.1-0.7,0.2-1.6,0.5-2c0.1-0.6,0.2-1,0.2-1s0,0.4,0,1
								s-0.1,1.3-0.2,2.2c-0.1,0.7-0.2,1.6-0.5,2C67.5,69.1,67.4,69.5,67.4,69.5z"/>
						</g>
						<g>
							<path class="st8" d="M62,70.5c0,0,0-0.4,0-1s0.1-1.3,0.2-2.2c0.1-0.7,0.4-1.6,0.5-2c0.1-0.6,0.2-1,0.2-1s0,0.4,0,1
								s-0.1,1.3-0.2,2.2c-0.1,0.7-0.4,1.6-0.5,2C62.1,70.1,62,70.5,62,70.5z"/>
						</g>
						<g>
							<path class="st8" d="M56.2,63.4c0,0,0-0.4,0-1s0-1.3,0.1-2.2c0.1-0.7,0.1-1.6,0.2-2.2c0.1-0.6,0.2-1,0.2-1s0,0.4,0,1
								s0,1.3-0.1,2.2c-0.1,0.7-0.1,1.6-0.2,2.2C56.4,63.1,56.2,63.4,56.2,63.4z"/>
						</g>
						<g>
							<path class="st8" d="M51.1,64.3c0,0,0-0.4,0-1s0-1.3,0.1-2.2c0.1-0.7,0.2-1.6,0.4-2.2s0.2-1,0.2-1s0,0.4,0,1s0,1.3-0.1,2.2
								c-0.1,0.7-0.2,1.6-0.4,2.2C51.2,63.9,51.1,64.3,51.1,64.3z"/>
						</g>
						<g>
							<path class="st8" d="M53.2,70.5c0,0,0-0.4,0-1s0.1-1.3,0.1-2.2c0.1-0.7,0.2-1.6,0.4-2.2s0.2-1,0.2-1s0,0.4,0,1
								s-0.1,1.3-0.1,2.2c-0.1,0.7-0.2,1.6-0.4,2.2S53.2,70.5,53.2,70.5z"/>
						</g>
						<g>
							<path class="st8" d="M56.6,70.5c0,0,0-0.4,0-1s0.1-1.3,0.2-2.2c0.1-0.7,0.2-1.6,0.4-2.2s0.2-1,0.2-1s0,0.4,0,1
								s-0.1,1.3-0.2,2.2c-0.1,0.7-0.2,1.6-0.4,2.2S56.6,70.5,56.6,70.5z"/>
						</g>
						<g>
							<path class="st8" d="M71.4,73c0,0,0-0.4,0.1-1s0.2-1.3,0.5-2c0.2-0.7,0.4-1.6,0.6-2c0.2-0.6,0.4-1,0.4-1s0,0.4-0.1,1
								s-0.2,1.3-0.5,2c-0.2,0.7-0.4,1.6-0.6,2C71.5,72.7,71.4,73,71.4,73z"/>
						</g>
						<g>
							<path class="st8" d="M74.4,66.4c0,0,0-0.4,0.1-1s0.2-1.3,0.5-2c0.2-0.7,0.4-1.6,0.6-2c0.2-0.6,0.4-1,0.4-1s0,0.4-0.1,1
								s-0.2,1.3-0.5,2c-0.2,0.7-0.4,1.6-0.6,2C74.6,66.1,74.4,66.4,74.4,66.4z"/>
						</g>
						<g>
							<path class="st8" d="M65,64.9c0,0,0-0.4,0-1c0-0.6,0.1-1.3,0.2-2.2c0.1-0.7,0.2-1.6,0.5-2c0.1-0.6,0.2-1,0.2-1s0,0.4,0,1
								s-0.1,1.3-0.2,2.2c-0.1,0.7-0.2,1.6-0.5,2C65.1,64.5,65,64.9,65,64.9z"/>
						</g>
						<g>
							<path class="st8" d="M60.3,64.9c0,0,0-0.4,0-1c0-0.6,0.1-1.3,0.2-2.2c0.1-0.7,0.2-1.6,0.4-2.2s0.2-1,0.2-1s0,0.4,0,1
								s-0.1,1.3-0.2,2.2c-0.1,0.7-0.2,1.6-0.5,2.2C60.4,64.5,60.3,64.9,60.3,64.9z"/>
						</g>
						<g>
							<path class="st8" d="M48.2,71.6c0,0,0-0.4,0-1s0.1-1.3,0.2-2.2c0.1-0.7,0.2-1.6,0.4-2.2s0.2-1,0.2-1s0,0.4,0,1
								s-0.1,1.3-0.2,2.2c-0.1,0.7-0.2,1.6-0.4,2.2S48.2,71.6,48.2,71.6z"/>
						</g>
						<g>
							<path class="st8" d="M47.3,64.9c0,0,0-0.4,0-1c0-0.6,0.1-1.3,0.2-2.2c0.1-0.7,0.2-1.6,0.4-2.2s0.2-1,0.2-1s0,0.4,0,1
								s-0.1,1.3-0.2,2.2c-0.1,0.7-0.2,1.6-0.4,2.2C47.4,64.5,47.3,64.9,47.3,64.9z"/>
						</g>
						<g>
							<path class="st8" d="M48,90c0,0,0-0.4,0-1s0.1-1.3,0.2-2.2c0.1-0.7,0.2-1.6,0.4-2.2c0.1-0.6,0.2-1,0.2-1s0,0.4,0,1
								s-0.1,1.3-0.2,2.2c-0.1,0.7-0.2,1.6-0.4,2.2C48.1,89.6,48,90,48,90z"/>
						</g>
						<g>
							<path class="st8" d="M57.8,88.5c0,0,0-0.4,0-1s0-1.3,0.1-2.2c0.1-0.7,0.1-1.6,0.2-2.2c0.1-0.6,0.2-1,0.2-1s0,0.4,0,1
								s0,1.3-0.1,2.2c-0.1,0.7-0.1,1.6-0.2,2.2C57.9,88.1,57.8,88.5,57.8,88.5z"/>
						</g>
						<g>
							<path class="st8" d="M53.8,91.5c0,0,0-0.4,0-1s0-1.3,0.1-2.2c0.1-0.7,0.2-1.6,0.4-2.2s0.2-1,0.2-1s0,0.4,0,1s0,1.3-0.1,2.2
								c-0.1,0.7-0.2,1.6-0.4,2.2C53.8,91.1,53.8,91.5,53.8,91.5z"/>
						</g>
						<g>
							<path class="st8" d="M55.3,95.4c0,0,0-0.4,0-1s0.1-1.3,0.1-2.2c0.1-0.7,0.2-1.6,0.4-2.2s0.2-1,0.2-1s0,0.4,0,1
								s-0.1,1.3-0.1,2.2c-0.1,0.7-0.2,1.6-0.4,2.2C55.3,95.1,55.3,95.4,55.3,95.4z"/>
						</g>
						<g>
							<path class="st8" d="M57.9,97.6c0,0,0-0.4,0-1s0.1-1.3,0.2-2.2c0.1-0.7,0.2-1.6,0.4-2.2s0.2-1,0.2-1s0,0.4,0,1
								s-0.1,1.3-0.2,2.2c-0.1,0.7-0.2,1.6-0.4,2.2C58,97.2,57.9,97.6,57.9,97.6z"/>
						</g>
						<g>
							<path class="st8" d="M50.6,96.6c0,0,0-0.4,0-1s0.1-1.3,0.2-2.2c0.1-0.7,0.2-1.6,0.4-2.2s0.2-1,0.2-1s0,0.4,0,1
								s-0.1,1.3-0.2,2.2c-0.1,0.7-0.2,1.6-0.4,2.2S50.6,96.6,50.6,96.6z"/>
						</g>
					</g>
					<g>
						<g>
							<path class="st8" d="M69.9,106.2c0,0,0-0.4,0.1-1s0.2-1.3,0.5-2c0.2-0.7,0.5-1.4,0.7-2s0.4-1,0.4-1s0,0.4-0.1,1
								s-0.2,1.3-0.5,2c-0.2,0.7-0.5,1.4-0.7,2C70.2,105.9,69.9,106.2,69.9,106.2z"/>
						</g>
						<g>
							<path class="st8" d="M67.6,106.8c0,0,0-0.4,0-1s0.1-1.3,0.2-2.2c0.1-0.7,0.2-1.6,0.5-2c0.1-0.6,0.2-1,0.2-1s0,0.4,0,1
								s-0.1,1.3-0.2,2.2c-0.1,0.7-0.2,1.6-0.5,2C67.8,106.5,67.6,106.8,67.6,106.8z"/>
						</g>
						<g>
							<path class="st8" d="M61.9,108.6c0,0,0-0.4,0-1s0.1-1.3,0.2-2.2c0.1-0.7,0.4-1.6,0.5-2c0.1-0.6,0.2-1,0.2-1s0,0.4,0,1
								s-0.1,1.3-0.2,2.2c-0.1,0.7-0.4,1.6-0.5,2C62,108.3,61.9,108.6,61.9,108.6z"/>
						</g>
						<g>
							<path class="st8" d="M57.1,102.9c0,0,0-0.4,0-1s0-1.3,0.1-2.2c0.1-0.7,0.1-1.6,0.2-2.2c0.1-0.6,0.2-1,0.2-1s0,0.4,0,1
								s0,1.3-0.1,2.2c-0.1,0.7-0.1,1.6-0.2,2.2C57.2,102.4,57.1,102.9,57.1,102.9z"/>
						</g>
						<g>
							<path class="st8" d="M53,105.9c0,0,0-0.4,0-1c0-0.6,0-1.3,0.1-2.2c0.1-0.7,0.2-1.6,0.4-2.2s0.2-1,0.2-1s0,0.4,0,1
								s0,1.3-0.1,2.2c-0.1,0.7-0.2,1.6-0.4,2.2C53.1,105.5,53,105.9,53,105.9z"/>
						</g>
						<g>
							<path class="st8" d="M54.4,109.8c0,0,0-0.4,0-1s0.1-1.3,0.1-2.2c0.1-0.7,0.2-1.6,0.4-2.2s0.2-1,0.2-1s0,0.4,0,1
								s-0.1,1.3-0.1,2.2c-0.1,0.7-0.2,1.6-0.4,2.2S54.4,109.8,54.4,109.8z"/>
						</g>
						<g>
							<path class="st8" d="M57.2,111.9c0,0,0-0.4,0-1s0.1-1.3,0.2-2.2c0.1-0.7,0.2-1.6,0.4-2.2s0.2-1,0.2-1s0,0.4,0,1
								s-0.1,1.3-0.2,2.2c-0.1,0.7-0.2,1.6-0.4,2.2C57.3,111.5,57.2,111.9,57.2,111.9z"/>
						</g>
						<g>
							<path class="st8" d="M64.6,113.1c0,0,0-0.4,0.1-1s0.2-1.3,0.4-2.2c0.1-0.7,0.4-1.6,0.5-2c0.1-0.6,0.4-1,0.4-1s0,0.4-0.1,1
								s-0.2,1.3-0.4,2.2c-0.1,0.7-0.4,1.6-0.5,2C64.9,112.7,64.6,113.1,64.6,113.1z"/>
						</g>
						<g>
							<path class="st8" d="M65.4,118.7c0,0,0-0.4,0.1-1s0.2-1.3,0.4-2.2c0.1-0.7,0.4-1.6,0.5-2c0.1-0.6,0.4-1,0.4-1s0,0.4-0.1,1
								s-0.2,1.3-0.4,2.2c-0.1,0.7-0.4,1.6-0.5,2C65.5,118.4,65.4,118.7,65.4,118.7z"/>
						</g>
						<g>
							<path class="st8" d="M67.6,123.6c0,0,0-0.4,0.1-1s0.2-1.3,0.4-2.2c0.1-0.7,0.4-1.6,0.5-2c0.1-0.6,0.4-1,0.4-1s0,0.4-0.1,1
								s-0.2,1.3-0.4,2.2c-0.1,0.7-0.4,1.6-0.5,2C67.8,123.3,67.6,123.6,67.6,123.6z"/>
						</g>
						<g>
							<path class="st8" d="M72.3,119.2c0,0,0-0.4,0.1-1s0.2-1.3,0.4-2.2c0.1-0.7,0.4-1.6,0.5-2c0.1-0.6,0.4-1,0.4-1s0,0.4-0.1,1
								s-0.2,1.3-0.4,2.2c-0.1,0.7-0.4,1.6-0.5,2C72.4,118.8,72.3,119.2,72.3,119.2z"/>
						</g>
						<g>
							<path class="st8" d="M74,124.1c0,0,0-0.4,0.1-1s0.2-1.3,0.4-2.2c0.1-0.7,0.4-1.6,0.5-2c0.1-0.6,0.4-1,0.4-1s0,0.4-0.1,1
								s-0.2,1.3-0.4,2.2c-0.1,0.7-0.4,1.6-0.5,2C74.1,123.7,74,124.1,74,124.1z"/>
						</g>
						<g>
							<path class="st8" d="M69,113.9c0,0,0-0.4,0.1-1s0.2-1.3,0.4-2.2c0.1-0.7,0.4-1.6,0.5-2c0.1-0.6,0.4-1,0.4-1s0,0.4-0.1,1
								s-0.2,1.3-0.4,2.2c-0.1,0.7-0.4,1.6-0.5,2C69.2,113.6,69,113.9,69,113.9z"/>
						</g>
						<g>
							<path class="st8" d="M75.7,115c0,0,0-0.4,0-1s0.1-1.3,0.1-2.2c0.1-0.7,0.2-1.6,0.4-2.2c0.1-0.6,0.2-1,0.2-1s0,0.4,0,1
								s-0.1,1.3-0.1,2.2c-0.1,0.7-0.2,1.6-0.4,2.2C75.8,114.6,75.7,115,75.7,115z"/>
						</g>
						<g>
							<path class="st8" d="M78.7,120.1c0,0,0-0.4,0-1s0.1-1.3,0.1-2.2c0.1-0.7,0.2-1.6,0.4-2.2c0.1-0.6,0.2-1,0.2-1s0,0.4,0,1
								s-0.1,1.3-0.1,2.2c-0.1,0.7-0.2,1.6-0.4,2.2C78.8,119.8,78.7,120.1,78.7,120.1z"/>
						</g>
						<g>
							<path class="st8" d="M72.2,110.9c0,0,0-0.4,0.1-1s0.2-1.3,0.5-2c0.2-0.7,0.4-1.6,0.6-2c0.2-0.6,0.4-1,0.4-1s0,0.4-0.1,1
								s-0.2,1.3-0.5,2c-0.2,0.7-0.4,1.6-0.6,2C72.3,110.6,72.2,110.9,72.2,110.9z"/>
						</g>
						<g>
							<path class="st8" d="M77.5,111.9c0,0,0-0.4,0.1-1s0.2-1.3,0.5-2c0.2-0.7,0.4-1.6,0.6-2c0.2-0.6,0.4-1,0.4-1s0,0.4-0.1,1
								s-0.2,1.3-0.5,2c-0.2,0.7-0.4,1.6-0.6,2C77.6,111.5,77.5,111.9,77.5,111.9z"/>
						</g>
						<g>
							<path class="st8" d="M75.2,105.8c0,0,0-0.4,0.1-1s0.2-1.3,0.5-2c0.2-0.7,0.4-1.6,0.6-2c0.2-0.6,0.4-1,0.4-1s0,0.4-0.1,1
								s-0.2,1.3-0.5,2c-0.2,0.7-0.4,1.6-0.6,2C75.4,105.4,75.2,105.8,75.2,105.8z"/>
						</g>
						<g>
							<path class="st8" d="M66,104.7c0,0,0-0.4,0-1s0.1-1.3,0.2-2.2c0.1-0.7,0.2-1.6,0.5-2c0.1-0.6,0.2-1,0.2-1s0,0.4,0,1
								s-0.1,1.3-0.2,2.2c-0.1,0.7-0.2,1.6-0.5,2C66.1,104.3,66,104.7,66,104.7z"/>
						</g>
						<g>
							<path class="st8" d="M59.6,104.3c0,0,0-0.4,0-1s0.1-1.3,0.2-2.2c0.1-0.7,0.2-1.6,0.5-2.2c0.1-0.6,0.2-1,0.2-1s0,0.4,0,1
								s-0.1,1.3-0.2,2.2c-0.1,0.7-0.2,1.6-0.5,2.2C59.7,103.8,59.6,104.3,59.6,104.3z"/>
						</g>
						<g>
							<path class="st8" d="M73.8,98.6c0,0,0-0.4,0-1s0.1-1.3,0.2-2.2c0.1-0.7,0.2-1.6,0.4-2.2c0.1-0.6,0.2-1,0.2-1s0,0.4,0,1
								s-0.1,1.3-0.2,2.2c-0.1,0.7-0.2,1.6-0.4,2.2C73.9,98.2,73.8,98.6,73.8,98.6z"/>
						</g>
						<g>
							<path class="st8" d="M51.4,102.2c0,0,0-0.4,0-1s0.1-1.3,0.2-2.2c0.1-0.7,0.2-1.6,0.4-2.2s0.2-1,0.2-1s0,0.4,0,1
								S52.2,98.2,52,99c-0.1,0.7-0.2,1.6-0.4,2.2S51.4,102.2,51.4,102.2z"/>
						</g>
						<g>
							<path class="st8" d="M62.6,98.6c0,0,0-0.4,0-1s0.1-1.3,0.2-2.2c0.1-0.7,0.2-1.6,0.4-2.2s0.2-1,0.2-1s0,0.4,0,1
								s-0.1,1.3-0.2,2.2c-0.1,0.7-0.2,1.6-0.4,2.2S62.6,98.6,62.6,98.6z"/>
						</g>
						<g>
							<path class="st8" d="M60.4,116.6c0,0,0-0.4,0-1s0-1.3,0.1-2.2c0.1-0.7,0.1-1.6,0.2-2.2c0.1-0.6,0.2-1,0.2-1s0,0.4,0,1
								s0,1.3-0.1,2.2c-0.1,0.7-0.1,1.6-0.2,2.2C60.6,116.2,60.4,116.6,60.4,116.6z"/>
						</g>
						<g>
							<path class="st8" d="M57,117.5c0,0-0.1-0.2-0.1-0.6s-0.1-0.8-0.1-1.4c0-0.5,0-1.1,0.1-1.4c0-0.4,0.1-0.6,0.1-0.6
								s0.1,0.2,0.1,0.6c0,0.4,0.1,0.8,0.1,1.4c0,0.5,0,1.1-0.1,1.4C57.1,117.3,57,117.5,57,117.5z"/>
						</g>
						<g>
							<path class="st8" d="M58.5,122.1c0,0-0.1-0.2-0.1-0.7s-0.1-1-0.1-1.6s0-1.2,0.1-1.6c0-0.5,0.1-0.7,0.1-0.7s0.1,0.2,0.1,0.7
								s0.1,1,0.1,1.6s0,1.2-0.1,1.6C58.6,121.7,58.5,122.1,58.5,122.1z"/>
						</g>
						<g>
							<path class="st8" d="M61.4,125.7c0,0-0.1-0.4-0.1-1s-0.1-1.3-0.1-2.2c0-0.7,0-1.6,0.1-2.2c0-0.6,0.1-1,0.1-1s0.1,0.4,0.1,1
								s0.1,1.3,0.1,2.2c0,0.7,0,1.6-0.1,2.2C61.5,125.3,61.4,125.7,61.4,125.7z"/>
						</g>
						<g>
							<path class="st8" d="M67.3,131.8c0,0,0-0.4,0.1-1s0.2-1.3,0.4-2.2c0.1-0.7,0.4-1.6,0.5-2c0.1-0.6,0.4-1,0.4-1s0,0.4-0.1,1
								s-0.2,1.3-0.4,2.2c-0.1,0.7-0.4,1.6-0.5,2C67.4,131.4,67.3,131.8,67.3,131.8z"/>
						</g>
						<g>
							<path class="st8" d="M67.9,137.4c0,0,0-0.4,0.1-1s0.2-1.3,0.4-2.2c0.1-0.7,0.4-1.6,0.5-2c0.1-0.6,0.4-1,0.4-1s0,0.4-0.1,1
								s-0.2,1.3-0.4,2.2c-0.1,0.7-0.4,1.6-0.5,2C68.1,137.1,67.9,137.4,67.9,137.4z"/>
						</g>
						<g>
							<path class="st8" d="M70.2,142.3c0,0,0-0.4,0.1-1s0.2-1.3,0.4-2.2c0.1-0.7,0.4-1.6,0.5-2c0.1-0.6,0.4-1,0.4-1s0,0.4-0.1,1
								s-0.2,1.3-0.4,2.2c-0.1,0.7-0.4,1.6-0.5,2C70.4,142,70.2,142.3,70.2,142.3z"/>
						</g>
						<g>
							<path class="st8" d="M75,137.9c0,0,0-0.4,0.1-1s0.2-1.3,0.4-2.2c0.1-0.7,0.4-1.6,0.5-2c0.1-0.6,0.4-1,0.4-1s0,0.4-0.1,1
								s-0.2,1.3-0.4,2.2c-0.1,0.7-0.4,1.6-0.5,2C75.1,137.5,75,137.9,75,137.9z"/>
						</g>
						<g>
							<path class="st8" d="M76.6,142.8c0,0,0-0.4,0.1-1s0.2-1.3,0.4-2.2c0.1-0.7,0.4-1.6,0.5-2c0.1-0.6,0.4-1,0.4-1s0,0.4-0.1,1
								s-0.2,1.3-0.4,2.2c-0.1,0.7-0.4,1.6-0.5,2C76.8,142.5,76.6,142.8,76.6,142.8z"/>
						</g>
						<g>
							<path class="st8" d="M71.6,132.6c0,0,0-0.4,0.1-1s0.2-1.3,0.4-2.2c0.1-0.7,0.4-1.6,0.5-2c0.1-0.6,0.4-1,0.4-1s0,0.4-0.1,1
								c-0.1,0.6-0.2,1.3-0.4,2.2c-0.1,0.7-0.4,1.6-0.5,2C71.7,132.3,71.6,132.6,71.6,132.6z"/>
						</g>
						<g>
							<path class="st8" d="M78.2,133.7c0,0,0-0.4,0-1s0.1-1.3,0.1-2.2c0.1-0.7,0.2-1.6,0.4-2.2c0.1-0.6,0.2-1,0.2-1s0,0.4,0,1
								s-0.1,1.3-0.1,2.2c-0.1,0.7-0.2,1.6-0.4,2.2C78.3,133.3,78.2,133.7,78.2,133.7z"/>
						</g>
						<g>
							<path class="st8" d="M81.2,138.9c0,0,0-0.4,0-1s0.1-1.3,0.1-2.2c0.1-0.7,0.2-1.6,0.4-2.2c0.1-0.6,0.2-1,0.2-1s0,0.4,0,1
								s-0.1,1.3-0.1,2.2c-0.1,0.7-0.2,1.6-0.4,2.2C81.3,138.5,81.2,138.9,81.2,138.9z"/>
						</g>
						<g>
							<path class="st8" d="M64.4,129.6c0,0,0-0.4,0-1s0-1.3,0.1-2.2c0.1-0.7,0.1-1.6,0.2-2.2c0.1-0.6,0.2-1,0.2-1s0,0.4,0,1
								s0,1.3-0.1,2.2c-0.1,0.7-0.1,1.6-0.2,2.2S64.4,129.6,64.4,129.6z"/>
						</g>
						<g>
							<path class="st8" d="M64.9,136.3c0,0-0.1-0.2-0.1-0.6s-0.1-0.8-0.1-1.4c0-0.5,0-1.1,0.1-1.4c0-0.4,0.1-0.6,0.1-0.6
								s0.1,0.2,0.1,0.6s0.1,0.8,0.1,1.4c0,0.5,0,1.1-0.1,1.4C65,136.1,64.9,136.3,64.9,136.3z"/>
						</g>
						<g>
							<path class="st8" d="M80.5,126.6c0,0-0.1-0.2-0.1-0.6s-0.1-0.8-0.1-1.4c0-0.5,0-1.1,0.1-1.4c0-0.4,0.1-0.6,0.1-0.6
								s0.1,0.2,0.1,0.6s0.1,0.8,0.1,1.4c0,0.5,0,1.1-0.1,1.4C80.6,126.3,80.5,126.6,80.5,126.6z"/>
						</g>
						<g>
							<path class="st8" d="M67.3,143.5c0,0-0.1-0.2-0.1-0.7c0-0.5-0.1-1-0.1-1.6s0-1.2,0.1-1.6c0-0.5,0.1-0.7,0.1-0.7
								s0.1,0.2,0.1,0.7c0,0.5,0.1,1,0.1,1.6s0,1.2-0.1,1.6C67.4,143.3,67.3,143.5,67.3,143.5z"/>
						</g>
						<g>
							<path class="st8" d="M69.9,149.1c0,0-0.1-0.4-0.2-0.8s-0.2-1.2-0.2-1.9c-0.1-0.7-0.1-1.3-0.1-1.9c0-0.5,0-0.8,0-0.8
								s0.1,0.4,0.2,0.8c0.1,0.5,0.2,1.2,0.2,1.9c0.1,0.7,0.1,1.3,0.1,1.9C70,148.7,69.9,149.1,69.9,149.1z"/>
						</g>
						<g>
							<path class="st8" d="M72.3,150.3c0,0,0-0.4,0.1-1s0.2-1.3,0.4-2.2c0.1-0.7,0.4-1.6,0.5-2c0.1-0.6,0.4-1,0.4-1s0,0.4-0.1,1
								s-0.2,1.3-0.4,2.2c-0.1,0.7-0.4,1.6-0.5,2C72.4,149.9,72.3,150.3,72.3,150.3z"/>
						</g>
						<g>
							<path class="st8" d="M75.2,150.3c0,0,0-0.4,0.1-1s0.2-1.3,0.4-2.2c0.1-0.7,0.4-1.6,0.5-2c0.1-0.6,0.4-1,0.4-1s0,0.4-0.1,1
								s-0.2,1.3-0.4,2.2c-0.1,0.7-0.4,1.6-0.5,2C75.4,149.9,75.2,150.3,75.2,150.3z"/>
						</g>
						<g>
							<path class="st8" d="M76.9,155.2c0,0,0-0.4,0.1-1s0.2-1.3,0.4-2.2c0.1-0.7,0.4-1.6,0.5-2c0.1-0.6,0.4-1,0.4-1s0,0.4-0.1,1
								s-0.2,1.3-0.4,2.2c-0.1,0.7-0.4,1.6-0.5,2C77,154.8,76.9,155.2,76.9,155.2z"/>
						</g>
						<g>
							<path class="st8" d="M81.2,149.8c0,0,0-0.4,0-1c0-0.6,0.1-1.3,0.1-2.2c0.1-0.7,0.2-1.6,0.4-2.2c0.1-0.6,0.2-1,0.2-1
								s0,0.4,0,1c0,0.6-0.1,1.3-0.1,2.2c-0.1,0.7-0.2,1.6-0.4,2.2C81.3,149.4,81.2,149.8,81.2,149.8z"/>
						</g>
						<g>
							<path class="st8" d="M82,155.6c0,0-0.1-0.2-0.1-0.6s-0.1-0.8-0.1-1.4c0-0.5,0-1.1,0.1-1.4c0-0.4,0.1-0.6,0.1-0.6
								s0.1,0.2,0.1,0.6s0.1,0.8,0.1,1.4c0,0.5,0,1.1-0.1,1.4C82,155.4,82,155.6,82,155.6z"/>
						</g>
						<g>
							<path class="st8" d="M73.4,157.4c0,0-0.1-0.2-0.1-0.7c0-0.5-0.1-1-0.1-1.6s0-1.2,0.1-1.6c0-0.5,0.1-0.7,0.1-0.7
								s0.1,0.2,0.1,0.7s0.1,1,0.1,1.6s0,1.2-0.1,1.6S73.4,157.4,73.4,157.4z"/>
						</g>
						<g>
							<path class="st8" d="M76,128.8c0,0-0.1-0.4-0.1-1s-0.1-1.3-0.1-2.2c0-0.7,0-1.6,0.1-2.2c0-0.6,0.1-1,0.1-1s0.1,0.4,0.1,1
								s0.1,1.3,0.1,2.2c0,0.7,0,1.6-0.1,2.2S76,128.8,76,128.8z"/>
						</g>
						<g>
							<path class="st8" d="M68.4,97.6c0,0,0-0.4,0-1s0.1-1.3,0.2-2.2c0.1-0.7,0.2-1.6,0.4-2.2c0-0.6,0.1-1,0.1-1s0,0.4,0,1
								s-0.1,1.3-0.2,2.2c-0.1,0.7-0.2,1.6-0.4,2.2C68.5,97.2,68.4,97.6,68.4,97.6z"/>
						</g>
					</g>
				</g>
			</g>
			<g>
				<g>
					<path class="st9" d="M166.3,157.2c-1-4.9-5.9-7.9-10.4-8.3s-9.1,1.3-13,3l-1,0.5c-3.6,1.6-7.2,3.1-11,3.4
						c-2.9,0.2-6.1-1-6.6-3.4l-1.9,0.4c0.7,3.6,4.8,5.2,8.6,4.9c4.2-0.2,7.9-1.9,11.6-3.5l1-0.5c3.8-1.7,7.9-3.2,12.1-2.9
						c3.7,0.2,7.9,2.8,8.6,6.7c0.1,0.5,0.1,0.8,0,1.1c-0.1,0.4-0.5,0.6-1.2,1c-2.6,1.2-5.6,1.3-8.6,1.3c-2.8,0.1-6.4,0.2-9.4,1.7
						c-2.6,1.2-5.4,4.8-5.4,8.3h1.9c0-2.6,2.2-5.6,4.3-6.6c2.6-1.2,5.8-1.3,8.5-1.4c3.1-0.1,6.4-0.2,9.4-1.6c0.7-0.4,1.8-0.8,2.2-2
						C166.5,158.6,166.3,157.8,166.3,157.2z"/>
				</g>
				<g>
					
						<linearGradient id="SVGID_00000140716403240595926620000012371147435054098103_" gradientUnits="userSpaceOnUse" x1="133.4265" y1="155.3377" x2="104.052" y2="117.7484" gradientTransform="matrix(1 0 0 -1 0 235.5173)">
						<stop  offset="0" style="stop-color:#F6F7F9"/>
						<stop  offset="1" style="stop-color:#E4E7ED"/>
					</linearGradient>
					<path style="fill:url(#SVGID_00000140716403240595926620000012371147435054098103_);" d="M121.2,118.7
						c-4.1-5.9-29.5-25.3-40.3-28.3c-0.8-0.2-1.7-0.1-2.5,0.2c-2,1.1-6.1,3.7-7.6,8c-0.2,0.6-0.4,1.2-0.4,1.8
						c4.8,3.1,9.8,5.5,15.6,7.4c10,3.4,18.8,10.2,26.1,17.5c4,4,5.4,24.1,11.5,29.6c-0.1,0.1-0.2,0.1-0.4,0.1c1-0.5,1.8-1.8,2.2-4
						C127.1,143.5,125.4,124.8,121.2,118.7z"/>
				</g>
				
					<linearGradient id="SVGID_00000023986916868397153430000012444848161200276871_" gradientUnits="userSpaceOnUse" x1="133.389" y1="155.3671" x2="104.0144" y2="117.7775" gradientTransform="matrix(1 0 0 -1 0 235.5173)">
					<stop  offset="0" style="stop-color:#F6F7F9"/>
					<stop  offset="1" style="stop-color:#E4E7ED"/>
				</linearGradient>
				<path style="fill:url(#SVGID_00000023986916868397153430000012444848161200276871_);" d="M81,90.4c-0.8-0.2-1.7-0.1-2.5,0.2
					c-2,1.1-6.1,3.7-7.6,8c-1.4,4.2,0.8,9.7,2.3,12.5c0.6,1.2,1.8,1.8,3,1.8c2.4,0,6.2,0.1,8.3,1c3,1.4,17.1,8.4,21.7,14
					c4.4,5.6,8.3,14.9,9.6,20.7c1.3,6,8.2,10.6,9.7,2.6c1.4-7.9-0.1-26.6-4.3-32.7C117.2,112.8,91.7,93.4,81,90.4z"/>
				
					<linearGradient id="SVGID_00000067205569919830823320000009984038521769777586_" gradientUnits="userSpaceOnUse" x1="143.2495" y1="147.8965" x2="113.7316" y2="110.1237" gradientTransform="matrix(1 0 0 -1 0 235.5173)">
					<stop  offset="0" style="stop-color:#F6F7F9"/>
					<stop  offset="0.4545" style="stop-color:#E4E7ED"/>
					<stop  offset="1" style="stop-color:#CED3DE"/>
				</linearGradient>
				<path style="fill:url(#SVGID_00000067205569919830823320000009984038521769777586_);" d="M112,125.3c0.1-0.1,7.3-3.1,9.8-5.5
					c-0.2-0.4-0.4-0.7-0.6-1c-1.2,0.8-3,1.9-4.4,2.6c-2.2,1.1-3.8,1.9-6,2.9C110.9,124.3,112,125.3,112,125.3z"/>
				
					<linearGradient id="SVGID_00000029728084602125217420000016384046103070805937_" gradientUnits="userSpaceOnUse" x1="149.1267" y1="143.0685" x2="119.7523" y2="105.4791" gradientTransform="matrix(1 0 0 -1 0 235.5173)">
					<stop  offset="0" style="stop-color:#F6F7F9"/>
					<stop  offset="0.4545" style="stop-color:#E4E7ED"/>
					<stop  offset="1" style="stop-color:#CED3DE"/>
				</linearGradient>
				<path style="fill:url(#SVGID_00000029728084602125217420000016384046103070805937_);" d="M124.4,127.2c-3,1.7-5.9,3-9.5,4.2
					c0.1,0.2,0.5,1.3,0.5,1.6c0.4-0.2,5.9-2.3,9.2-4.3C124.6,128.2,124.5,127.7,124.4,127.2z"/>
				<path class="st14" d="M100.1,109.7c2.5,2,16.6,12.8,18.2,5.8c-4.9-4.8-14.3-12.1-23-17.7c-0.6,0.5-1.1,1-1.6,1.4
					C90.5,102.8,98.1,108,100.1,109.7z"/>
				<path class="st9" d="M120.2,138.5c1.1,2.9,3,7.6,5.8,9.6c0.4-4.8,0-11.3-1-17.1C121.5,131.5,118.5,134.3,120.2,138.5z"/>
				
					<linearGradient id="SVGID_00000040576191564124462450000004624435748920972221_" gradientUnits="userSpaceOnUse" x1="134.007" y1="154.8844" x2="104.6324" y2="117.2948" gradientTransform="matrix(1 0 0 -1 0 235.5173)">
					<stop  offset="0" style="stop-color:#F6F7F9"/>
					<stop  offset="0.4545" style="stop-color:#E4E7ED"/>
					<stop  offset="1" style="stop-color:#CED3DE"/>
				</linearGradient>
				<path style="fill:url(#SVGID_00000040576191564124462450000004624435748920972221_);" d="M112.3,125.5
					c-7.3-7.3-16.2-14.2-26.1-17.5c-5.8-1.9-10.7-4.3-15.6-7.4c-0.5,3.8,1.4,8.3,2.8,10.7c0.6,1.2,1.8,1.8,3,1.8
					c2.4,0,6.2,0.1,8.3,1c3,1.4,17.1,8.4,21.7,14c4.4,5.6,8.3,14.9,9.6,20.7c1.1,4.6,5.2,8.3,7.8,6.4
					C117.6,149.7,116.2,129.5,112.3,125.5z"/>
				<path class="st9" d="M80.2,101.4c0.5-3.4,3.2-7.2,5.4-9.2c-1.7-0.8-3.4-1.4-4.7-1.8c-0.8-0.2-1.7-0.1-2.5,0.2
					c-2,1.1-6.1,3.7-7.6,8c-1.4,4.2,0.8,9.7,2.3,12.5c0.6,1.2,1.8,1.8,3,1.8c1.7,0,4,0,5.9,0.4C80.6,109.4,79.5,105.6,80.2,101.4z"
					/>
				<path class="st16" d="M76.3,100.5c0.7-3.8,3.2-7.2,6.5-9.5c-0.6-0.2-1.2-0.5-1.7-0.6c-0.8-0.2-1.7-0.1-2.5,0.2
					c-2,1.1-6.1,3.7-7.6,8c-1.4,4.2,0.8,9.7,2.3,12.5c0.6,1.2,1.8,1.8,3,1.8c0.8,0,1.9,0,3,0C76.4,109.7,75.3,105.5,76.3,100.5z"/>
				<path class="st9" d="M120.5,126.6c0.2,1.1-0.1,1.9-0.7,2c-0.6,0.1-1.2-0.6-1.4-1.7c-0.2-1.1,0.1-1.9,0.7-2
					C119.7,124.8,120.3,125.5,120.5,126.6z"/>
				<path class="st9" d="M123.2,125.2c0.2,1.1-0.1,1.9-0.7,2s-1.2-0.6-1.4-1.7s0.1-1.9,0.7-2C122.3,123.5,123,124.2,123.2,125.2z"/>
			</g>
			<defs>
				<filter id="Adobe_OpacityMaskFilter" filterUnits="userSpaceOnUse" x="51.2" y="78.1" width="43.5" height="42.7">
					<feColorMatrix  type="matrix" values="1 0 0 0 0  0 1 0 0 0  0 0 1 0 0  0 0 0 1 0"/>
				</filter>
			</defs>
			
				<mask maskUnits="userSpaceOnUse" x="51.2" y="78.1" width="43.5" height="42.7" id="SVGID_00000137134289376682650710000000428531646486869183_">
				<g class="st17">
					
						<radialGradient id="SVGID_00000037689443814765510290000002046642085676151222_" cx="72.9162" cy="135.59" r="21.6663" gradientTransform="matrix(1 0 0 -1 0 235.5173)" gradientUnits="userSpaceOnUse">
						<stop  offset="0" style="stop-color:#A9F5FF"/>
						<stop  offset="0.2113" style="stop-color:#82BCC4"/>
						<stop  offset="0.6019" style="stop-color:#3D585C"/>
						<stop  offset="0.8731" style="stop-color:#11191A"/>
						<stop  offset="1" style="stop-color:#000000"/>
					</radialGradient>
					<circle style="fill:url(#SVGID_00000037689443814765510290000002046642085676151222_);" cx="72.9" cy="99.9" r="21.7"/>
				</g>
			</mask>
			
				<radialGradient id="SVGID_00000011752494750767782850000006094871660261752235_" cx="72.9762" cy="135.5112" r="21.766" gradientTransform="matrix(1 0 0 -1 0 235.5173)" gradientUnits="userSpaceOnUse">
				<stop  offset="0" style="stop-color:#C9FFFF"/>
				<stop  offset="8.527689e-02" style="stop-color:#C2F7F7"/>
				<stop  offset="0.2198" style="stop-color:#B1E0E0"/>
				<stop  offset="0.3868" style="stop-color:#93BBBB"/>
				<stop  offset="0.5795" style="stop-color:#6B8888"/>
				<stop  offset="0.7912" style="stop-color:#384747"/>
				<stop  offset="1" style="stop-color:#000000"/>
			</radialGradient>
			
				<path style="mask:url(#SVGID_00000137134289376682650710000000428531646486869183_);fill:url(#SVGID_00000011752494750767782850000006094871660261752235_);" d="
				M69.7,118.7c3.4-2.8,5.8-6,8.2-9.6c0,0,3.7-0.2,8.6,2.8c1.1,0.6,2,1.2,3,1.8c3-3.5,4.9-7.9,5.3-12.8c-1.4-0.7-2.9-2.2-4.3-3
				c-1.6-0.8-3.7-2.3-5.6-3.5c0,0,1.4-4.1,1.8-4.4c1.1-1,2.8-2.9,2.8-4.3l0,0c-4-4.6-9.8-7.6-16.4-7.6c-12,0-21.7,9.7-21.7,21.7
				c0,10,6.7,18.3,15.7,21C66.9,120.9,68.8,119.4,69.7,118.7z"/>
		</g>
	</g>
</g>
</svg>
