<?xml version="1.0" encoding="utf-8"?>
<!-- Generator: Adobe Illustrator 25.4.8, SVG Export Plug-In . SVG Version: 6.00 Build 0)  -->
<svg version="1.1" id="Layer_1" xmlns="http://www.w3.org/2000/svg" xmlns:xlink="http://www.w3.org/1999/xlink" x="0px" y="0px"
	 viewBox="0 0 166.61 166.61" style="enable-background:new 0 0 166.61 166.61;" xml:space="preserve">
<style type="text/css">
	.st0{clip-path:url(#SVGID_00000062910974482985346660000008628154712716772013_);}
	.st1{fill:#F6BD87;}
	.st2{fill:none;stroke:#2C3A66;stroke-width:1.5;stroke-linecap:round;stroke-linejoin:round;stroke-dasharray:4.5671,4.5671;}
	
		.st3{fill:none;stroke:#2C3A66;stroke-width:1.5;stroke-linecap:round;stroke-linejoin:round;stroke-miterlimit:10;stroke-dasharray:4.5368;}
	.st4{fill:none;stroke:#2C3A66;stroke-width:1.5;stroke-linecap:round;stroke-linejoin:round;stroke-dasharray:4.4308,4.4308;}
	.st5{fill:#20204A;}
	.st6{fill:#2C3A66;}
</style>
<g>
	<defs>
		<circle id="SVGID_1_" cx="83.31" cy="83.31" r="82.92"/>
	</defs>
	
		<linearGradient id="SVGID_00000078038633810322770360000013947616816311328390_" gradientUnits="userSpaceOnUse" x1="0.3821" y1="83.3065" x2="166.2309" y2="83.3065">
		<stop  offset="0" style="stop-color:#5F74B1"/>
		<stop  offset="0.2466" style="stop-color:#7A90D2"/>
		<stop  offset="0.4903" style="stop-color:#8FA6EB"/>
		<stop  offset="0.7125" style="stop-color:#9CB3FA"/>
		<stop  offset="0.8936" style="stop-color:#A0B7FF"/>
	</linearGradient>
	
		<use xlink:href="#SVGID_1_"  style="overflow:visible;opacity:0.18;fill:url(#SVGID_00000078038633810322770360000013947616816311328390_);"/>
	<clipPath id="SVGID_00000032642301494754116560000000317173129848264095_">
		<use xlink:href="#SVGID_1_"  style="overflow:visible;opacity:0.18;"/>
	</clipPath>
	<g style="clip-path:url(#SVGID_00000032642301494754116560000000317173129848264095_);">
		<path class="st1" d="M127.15,125.83c-2.27-11.09-9.46-28.46-15.65-42.19c17.16-19.46,0.33-32.1-6.07-48.77l5.28-38.1
			c0,0-6.31-9.14-58.46-9.14S-6.21-3.22-6.21-3.22l5.28,38.1c-6.4,16.67-23.23,29.31-6.07,48.77c-6.19,13.73-13.37,31.1-15.65,42.19
			c-1.44,6.98-1.91,15.77-1.01,25.73c0.61,6.69,1.67,13.88,2.96,21.25h70.35c0,0,2.61-22.08-0.32-32.49h2.93h2.93
			c-2.93,10.41-0.32,32.49-0.32,32.49h70.35c1.29-7.38,2.35-14.56,2.96-21.25C129.06,141.61,128.59,132.81,127.15,125.83z"/>
		<g>
			<path class="st2" d="M82.99,60.06c0,11.51-13.76,23.03-30.73,23.03c-16.97,0-30.73-11.52-30.73-23.03
				c0-11.51,13.76-7.66,30.73-7.66C69.23,52.4,82.99,48.55,82.99,60.06z"/>
		</g>
		<path class="st3" d="M103.92,35.64c0,0-22.93,28.95,6.02,46.41"/>
		<g>
			
				<ellipse transform="matrix(0.1355 -0.9908 0.9908 0.1355 -74.4628 216.0492)" class="st4" cx="86.57" cy="150.69" rx="25.62" ry="16.17"/>
		</g>
		<path class="st5" d="M56.69,67.6c0,1.45-1.99,2.63-4.43,2.63s-4.43-1.18-4.43-2.63c0-1.45,1.99-2.63,4.43-2.63
			S56.69,66.15,56.69,67.6z"/>
		<g>
			<g>
				<g>
					<path class="st6" d="M111.51,83.64c-12.74,3.42-35.83,6.97-59.26,6.97S5.73,87.06-7.01,83.64c-2.93,5.6-6.25,13.57-9.23,21.92
						c0,0,42.69,6.08,65.56,34.75h2.93h2.93c22.86-28.67,65.56-34.75,65.56-34.75C117.77,97.21,114.45,89.24,111.51,83.64z"/>
				</g>
			</g>
		</g>
	</g>
</g>
</svg>
