<?xml version="1.0" encoding="utf-8"?>
<!-- Generator: Adobe Illustrator 25.4.8, SVG Export Plug-In . SVG Version: 6.00 Build 0)  -->
<svg version="1.1" id="Layer_1" xmlns="http://www.w3.org/2000/svg" xmlns:xlink="http://www.w3.org/1999/xlink" x="0px" y="0px"
	 viewBox="0 0 201.5 233.6" style="enable-background:new 0 0 201.5 233.6;" xml:space="preserve">
<style type="text/css">
	.st0{opacity:6.000000e-02;fill:url(#SVGID_1_);}
	.st1{opacity:6.000000e-02;fill:url(#SVGID_00000066483529303525073030000012160997338723643548_);}
	.st2{fill:#452823;}
	.st3{fill:#9C4747;}
	.st4{fill:#8C3940;}
	.st5{fill:url(#SVGID_00000092414028001520614000000013954794510147355541_);}
	.st6{fill:#DEEAFE;}
	.st7{fill:#F2ECE6;}
	.st8{fill:none;stroke:#FFFFFF;stroke-linecap:round;stroke-linejoin:round;stroke-miterlimit:10;}
	.st9{fill:#EDE5DC;}
	.st10{fill:#521B1B;}
	.st11{fill:none;stroke:#0C101A;stroke-width:0.5;stroke-linecap:round;stroke-linejoin:round;stroke-miterlimit:10;}
	.st12{fill:#5F74B2;}
	.st13{fill:url(#SVGID_00000095320465491734384060000008461011482601309592_);}
	.st14{fill:#BAA4A4;}
	.st15{fill:#210602;}
	.st16{fill:none;stroke:#EDE5DC;stroke-width:0.5;stroke-miterlimit:10;}
	.st17{fill:none;stroke:#2C3A66;stroke-linecap:round;stroke-linejoin:round;stroke-miterlimit:10;}
	.st18{fill:#FFFFFD;}
	.st19{fill:#FF9D8C;}
	.st20{fill:#F58278;}
	.st21{fill:#415080;}
	.st22{fill:#6D84BF;}
	.st23{fill:#556BA1;}
	.st24{fill:#8F3535;}
	.st25{fill:#752525;}
</style>
<g>
	<linearGradient id="SVGID_1_" gradientUnits="userSpaceOnUse" x1="3.5355" y1="174.4695" x2="109.5079" y2="174.4695">
		<stop  offset="0" style="stop-color:#5F74B1"/>
		<stop  offset="0.2466" style="stop-color:#7A90D2"/>
		<stop  offset="0.4903" style="stop-color:#8FA6EB"/>
		<stop  offset="0.7125" style="stop-color:#9CB3FA"/>
		<stop  offset="0.8936" style="stop-color:#A0B7FF"/>
	</linearGradient>
	<path class="st0" d="M94.1,128.1C76.5,113.1,29.2,115,9,145.7c-9.5,14.5-7,63.7,11.3,79.8c13,11.4,68.5-0.1,82.6-20.1
		C116.6,186,106.8,139,94.1,128.1z"/>
	
		<linearGradient id="SVGID_00000005974009081040136990000008180127700914311301_" gradientUnits="userSpaceOnUse" x1="61.186" y1="98.7722" x2="201.5359" y2="98.7722">
		<stop  offset="0" style="stop-color:#5F74B1"/>
		<stop  offset="0.2466" style="stop-color:#7A90D2"/>
		<stop  offset="0.4903" style="stop-color:#8FA6EB"/>
		<stop  offset="0.7125" style="stop-color:#9CB3FA"/>
		<stop  offset="0.8936" style="stop-color:#A0B7FF"/>
	</linearGradient>
	<path style="opacity:6.000000e-02;fill:url(#SVGID_00000005974009081040136990000008180127700914311301_);" d="M171.4,23.7
		C140.6-2.7,61.9,52.2,61.2,85.8c-1.1,52.6,101,129.8,130.5,77.5C212.1,127.1,198.5,46.9,171.4,23.7z"/>
	<g>
		<g>
			<g>
				<path class="st2" d="M134.4,219.9c-2.6-0.6-7,9.5-9.3,10c-3.3,0.7-4.3,3.2-3.7,3.7h9.7c0,0,0.1-0.1,0.1-0.1c1-1.2,1.2-4,2-5.4
					c0.7-1.3,1.9-2.1,2.2-2.9C136,223.1,134.9,220,134.4,219.9z"/>
				<path class="st2" d="M133.5,228.7c0,0.4,0.1,4,0.1,4.9h0.6c0-0.7,0.1-3.9,0.2-5c0.1-1.3,0.7-3.3,0.7-3.3l-1.8,1.7
					C133.4,227.1,133.6,228.2,133.5,228.7z"/>
				<path class="st3" d="M134.3,219c0,0-5.1,0.3-5.1,0.4c-0.3,3.1-4.9,11.2-4.6,11.1c3.5-0.3,5.2,1.4,5.6,1.1
					c0.3-0.2,4.5-7.5,4.7-9.2C134.9,221.9,134.2,220.1,134.3,219z"/>
			</g>
			<path class="st3" d="M127.4,125.9c0,1.9-0.1,3.8-0.1,5.6v0c-0.3,11.6-0.1,20.6-0.1,21.7c0,0.5-0.1,1.6-0.2,3.1
				c-0.2,3.6-0.7,9.3-0.9,14.3c-0.1,1.8-0.1,3.4-0.1,4.9c0,13,3.7,37.1,3.2,44.9h4.9c0.8-7.4,8.3-28.3,9.6-48.1c0-0.5,0.1-1.5,0.2-3
				c0.2-3.2,0.5-8.5,0.9-14.4c0.3-4.6,0.6-9.5,0.9-14.1c0.1-2.4,0.3-4.7,0.4-6.8c0.2-3.5,0.4-6.4,0.5-8.1H127.4z"/>
			<path class="st2" d="M169.4,233.6c0.7-0.6,1.1-9.3,0.8-11.4c-0.4-2.3-7.6,6.9-8.1,8.2c-1.4,0.4-2.6,3-1.6,3.3H169.4z"/>
			<path class="st3" d="M170,219.9c0,0.3,0.2,3.3,0.1,3.9c-0.1,3.1-0.8,6.9-1,7c-0.9-0.4-2.9-0.9-4-0.9c-2.5-0.2-2.7,0.6-3,0.5
				c-0.2-0.1,3.2-8.4,3.1-11.1c-0.4-7.7-4.7-25.1-9.1-43c-0.6-2.3-1.2-4.5-1.8-6.6c-2-6.4-4.2-11.7-5.2-14.5
				c-0.3-0.7-0.5-1.2-0.6-1.6c-0.8-2.5-1.8-7.6-2.8-12.9c-0.4-2.2-0.8-4.4-1.2-6.4c-0.6-3.5-1.2-6.6-1.6-8.5h23.3
				c0.1,5.3,0.3,10.4,0.4,14.4c0.1,2.8,0.2,5.1,0.3,6.6c0.1,0.8,0.5,2.5,1,4.7c1.1,4.4,2.9,10.7,4.1,16.2c0.6,2.6,1,5,1.2,6.9
				C174.1,184,169.6,215.4,170,219.9z"/>
			<path class="st4" d="M172,167.8c-7.2,3.2-14.1,2.6-17.8,1.9c-2-6.4-4.2-11.7-5.2-14.5c-0.3-0.7-0.5-1.2-0.6-1.6
				c-0.8-2.5-1.8-7.6-2.8-12.9c-0.3,4.5-0.6,9.5-0.9,14.1c-0.4,5.8-0.7,11.1-0.9,14.4c-5.7,2.6-13.5,1.9-17.7,1.3
				c0.2-5,0.7-10.7,0.9-14.3c0.1-1.5,0.2-2.6,0.2-3.1c0-1.1-0.2-10.1,0.1-21.7v0c0-1.8,0-3.7,0.1-5.6h38.7
				c0.1,5.3,0.3,10.4,0.4,14.4c0.1,2.8,0.2,5.1,0.3,6.6c0.1,0.8,0.5,2.5,1,4.7C169,156,170.8,162.3,172,167.8z"/>
		</g>
		<g>
			<path class="st3" d="M77.1,108.9c0.6,0.4,7.6-6.1,8.8-7.4c1-1,2-3.3,2.2-3.4c0.7-0.5,0.4-4.9-2.3-4.2c-1.1,0.3-4.6-0.7-5.8-0.5
				c-1,0.1-2.3,1.1-3.9,1.9c-1.5,0.8-3.4,0.7-3.3,1.1c0.5,1.8,6,0.2,5.7,0.4c-2.6,2.1-8.8,7-7.7,8c0.6,0.5,5.4-3.9,5.8-3.6
				c0.2,0.2-4.2,4.2-4.6,5.8c-0.3,1,1.8,1.1,2.3,1c1-0.2,5.6-4,5.8-3.9C80.4,104.5,75.9,108,77.1,108.9z"/>
		</g>
		<g id="body_1_">
			
				<linearGradient id="SVGID_00000033350634092451239730000012743598994697277591_" gradientUnits="userSpaceOnUse" x1="85.4454" y1="73.7754" x2="119.4592" y2="73.7754">
				<stop  offset="0" style="stop-color:#DEEAFE"/>
				<stop  offset="1" style="stop-color:#A1C3FC"/>
			</linearGradient>
			<path style="fill:url(#SVGID_00000033350634092451239730000012743598994697277591_);" d="M117.2,77.5c-0.1,0.4-0.2,0.8-0.4,1.2
				c-1.3,4.2-2.7,8.6-3.9,10.9c-0.9,1.9-14.5,8.1-22.7,11.8l-4.9-8.1c1.3-0.9,14.6-10.6,16.6-12c1.2-6.9,3.6-28.6,6.7-33.5
				c0.4-0.6,0.9-1.1,1.4-1.5c2.5-2.4,6.4,12.4,9.4,21.8C119.6,68.9,118.6,73,117.2,77.5z"/>
			<path class="st6" d="M176.6,164.1c0,0.7-21.5,2-32.2,2.2c-2.4,0-6.2-27.7-6.6-32.1c-0.5,1,1.8,32.2,1.1,32.2
				c-8.7,0.1-15.3,0.4-15.3-0.3c0-2-1.3-36.1-0.6-60.6c0.1-2.9,0.8-8,1.5-13.1c0,0,0,0,0,0c-0.3-1-0.5-1.6-0.6-1.9
				c0-0.1-5-11-5-11.1c-1-2.1-3.9-3.2-5.1-7.3c-0.6-2.2,0.2-6.2-0.3-9.9c-0.2-1.5-6.5-12.4-3-16.4c0.9-1,4.5-4.5,5.5-6.1
				c0.2-0.3,1.3-4.7,1.4-5c0.7-1.3,7.1-6,9.7-5.3c0.1,0,0.6,0.4,1.4,0.8c1.7,1.1,4.5,2.7,4.6,2.7c4.1,0.4,12.4,0.5,14.2,1.6
				c2.2,1.1,5.3,12,5.3,17.6c0.9,4,3.5,14.5,6.6,20.5c0.2,0.4,5.7,9.5,7.2,12.6c1.9,4.1,5.1,15.8,6.6,25.2c2.6,16.2,1.2,37.8,1.3,40
				C175.2,153.9,176.6,162.1,176.6,164.1z"/>
			<g>
				<path class="st7" d="M139.9,102.4c0.6,0.3,0.4,2.5-0.6,2.6c-1.1,0.1-1-1.4-1-1.4s0,0.8,0.6,0.8
					C139.5,104.4,140.1,103.7,139.9,102.4z"/>
				<path class="st8" d="M139.2,101.5c0.8-0.1,1.2,2.5,0,2.8C138.1,104.7,137.8,101.8,139.2,101.5z"/>
			</g>
			<g>
				<path class="st7" d="M140.1,117.4c0.6,0.3,0.4,2.5-0.6,2.6c-1.1,0.1-1-1.4-1-1.4s0,0.8,0.6,0.8
					C139.6,119.5,140.3,118.7,140.1,117.4z"/>
				<path class="st8" d="M139.3,116.6c0.8-0.1,1.2,2.5,0,2.8C138.2,119.7,137.9,116.8,139.3,116.6z"/>
			</g>
			<g>
				<path class="st7" d="M140.4,132c0.6,0.3,0.4,2.5-0.6,2.6c-1.1,0.1-1-1.4-1-1.4s0,0.8,0.6,0.8C140,134,140.6,133.3,140.4,132z"/>
				<path class="st8" d="M139.7,131.1c0.8-0.1,1.2,2.5,0,2.8C138.5,134.3,138.3,131.4,139.7,131.1z"/>
			</g>
			<g>
				<path class="st7" d="M127.2,60.7c0.6,0.1,1.3,2.4,0.3,2.8c-1,0.5-1.4-0.9-1.4-0.9s0.3,0.7,0.9,0.5
					C127.5,63,127.9,61.8,127.2,60.7z"/>
				<path class="st8" d="M126.6,60.3c0.7-0.3,1.5,2.3,0.4,2.8C125.9,63.6,125.3,60.8,126.6,60.3z"/>
			</g>
			<g>
				<path class="st7" d="M131.4,75.1c0.6,0.1,1.5,1.9,0.6,2.4c-1,0.5-1.4-0.9-1.4-0.9s0.3,0.7,0.9,0.5
					C131.9,76.9,132.1,76.2,131.4,75.1z"/>
				<path class="st8" d="M130.3,74.5c0.6-0.5,2.3,1.7,1.4,2.5C130.8,77.8,129.2,75.4,130.3,74.5z"/>
			</g>
			<g>
				<path class="st7" d="M137,87.9c0.6,0.1,1.3,2.1,0.4,2.6c-1,0.5-1.4-0.9-1.4-0.9s0.3,0.7,0.9,0.5C137.4,89.9,137.7,89,137,87.9z"
					/>
				<path class="st8" d="M136,87.3c0.6-0.4,2,1.9,1.1,2.6C136.1,90.7,134.8,88.1,136,87.3z"/>
			</g>
			<g>
				<g>
					<path class="st9" d="M171.4,142.3c1.1,2.1,2.9,7.8,2.9,7.8s0.1,0.1,0.1,0.1c0,0,0.1-1.2,0.1-2.4
						C173.7,146.5,172.2,143.1,171.4,142.3z"/>
				</g>
			</g>
			<path class="st9" d="M133.3,33.7c1,2.5,3,12.5,2.4,12.9c-0.6,0.4-5.1-3.6-5.5-3.4c-0.4,0.2,3.9,4.9,4,5.6c0.1,0.7-9,10.8-9,10.8
				s8.1-10.6,8.1-11.3c-0.1-1.3-5.9-7.2-5.3-7.7c0.6-0.5,6.4,4.2,6.8,3.7C135,44.1,133.3,33.7,133.3,33.7z"/>
			<path class="st9" d="M124.5,92.7c0.9,1.1,1.9,2,2.8,2c-1.1-0.9-2.5-2.8-3.6-4.5c0,0.1,0.1,0.2,0.1,0.3
				C124,90.8,124.2,91.6,124.5,92.7z"/>
			<path class="st8" d="M116,39.8c0,1.7,0.5,7.7,1,7.9c0.6,0.3,1.6-4.5,2.2-4.3c0.6,0.2-0.7,8.2-0.8,8.8c0,0.5,6.1,3.5,6.1,3.5"/>
			<path class="st8" d="M124.6,60.3c-0.1,0.4-0.2,1.3-0.1,1.7c2.8,11.3,8.3,19.9,11.4,31.2c1.5,5.5,1.5,37.8,1.9,41.1"/>
			<path class="st9" d="M151.8,56.2c0,0,2.6,7.5,4.3,8.9c-0.6-1.6-2-6.7-2-6.7L151.8,56.2z"/>
			<g>
				<path class="st9" d="M117.2,77.5c-0.1,0.4-0.2,0.8-0.4,1.2c-4.6-1.6-4.2-9.4-3.3-10.5c0,0,0,3.3,0.8,5.2
					C114.8,74.5,116.1,76.2,117.2,77.5z"/>
			</g>
		</g>
		<g>
			<path class="st10" d="M106.7,9.4c-1.1,0.8-1.2,3-1.8,3.6c-0.6,0.7-2.6,1.5-3.1,3c-0.5,1.4,2,3.4,1.7,4.2
				c-0.3,0.8-2.4,3.3-1.9,4.8c0.5,1.5,2.7,2.2,2.8,3.3c0,1-0.6,2.8,0.3,4.3c0.9,1.4,3.1,0.7,4,1.4c1,0.7,1.5,2.6,2.6,3.4
				c1.1,0.8,3.4-0.9,4.4-1.1c1.1-0.2,2.9,0.6,4.3,0.6c1.4,0,3.5-3.4,4.4-3.7c0.9-0.4,3.4-0.2,4.5-0.9c1.1-0.7,2-2.9,2.5-3.4
				c0.5-0.5,3.7-0.6,5.5-3.1c0.9-1.2-1-2.5-0.9-3.1c0.1-0.6,2.4-2.6,2.2-4.6c-0.3-1.9-4.4-1.5-5-2.5c-0.6-1,0.6-3.4-1.2-4.9
				s-4,0.1-4.9-0.3c-0.9-0.5-1.8-2.6-3-3.1c-1.2-0.5-3,0.7-3.8,0.6s-2.5-2-4-1.8c-1.5,0.2-3.2,2.1-4.1,2.4
				C111.5,8.6,108.6,8.1,106.7,9.4z"/>
			<path class="st11" d="M108,15.7c0.5,1,2.6,2.7,3.6,2.9c1,0.2,5-1.5,5.5-1.3c0.6,0.2,2.5,2.9,4.2,1.6"/>
		</g>
		<g>
			<path class="st12" d="M139.6,91.9l20.8-8.4c0.2-0.1,0.3-0.2,0.2-0.4l-9.9-24.6c0-0.1,0-0.2,0-0.3l0.5-1.5c0-0.1,0.1-0.2,0.1-0.3
				l-1.2-2.9c-0.1-0.2-0.5-0.4-0.7-0.3l-21.8,8.8c-0.2,0.1-0.4,0.5-0.3,0.7l11.7,29C139.1,92.1,139.4,92,139.6,91.9z"/>
		</g>
		<g>
			<g>
				<path class="st3" d="M140,88.8c0.4,0.7,4.6-3.2,6.2-4.3c1.4-1,6.4-4.5,6.8-4.6c2.7-1.1-0.7-5.3-3.5-4.6
					c-1.2,0.3-3.5-0.9-4.7-0.8c-1.1,0.1-2.5,1.6-4.2,2.5c-1.6,0.8-3.5,0.8-3.4,1.2c0.6,1.9,4.4,0.4,4.1,0.7c-2.7,2.2-8,2.9-7.3,4.4
					c0.2,0.5,2.4,0,3.2-0.1c-0.4,0.2-3.4,1.3-3,2.3c0.2,0.6,2.4-0.2,2.6-0.2c-0.7,0.3-1.3,1.2-1,1.6c0.2,0.4,5.8-1,6-0.9
					C141.3,86.6,139.5,87.9,140,88.8z"/>
			</g>
			
				<linearGradient id="SVGID_00000085970485673729527880000004635587690302966145_" gradientUnits="userSpaceOnUse" x1="145.9512" y1="58.8305" x2="177.0407" y2="58.8305">
				<stop  offset="0" style="stop-color:#DEEAFE"/>
				<stop  offset="1" style="stop-color:#A1C3FC"/>
			</linearGradient>
			<path style="fill:url(#SVGID_00000085970485673729527880000004635587690302966145_);" d="M176.6,68.9c-2.9,3.4-8.8,7.1-13.8,9.9
				c-4.5,2.5-8.3,4.2-8.3,4.2l-1-1.6l-4.2-6.8l7.9-6.3l4.1-3.3c0,0-3.5-3.2-7.3-6.7c-1-0.9-2-1.9-2.9-2.8
				c-1.3-2.2-5.6-14.7-5.2-19.3c0.1-1.2,0.5-1.9,1.3-1.7c0.1,0,0.2,0,0.2,0.1C157.8,38.7,180.3,64.6,176.6,68.9z"/>
		</g>
		<g>
			<g>
				<path class="st3" d="M124.8,51.4c-0.4,0.2-7-13.7-6.7-14.6c0.7-2.1-2.5-10.6-3.8-12.3c0,0,7.6-5.8,8.2-3.6
					c1.2,4,4,10.6,5.1,11.5C128.7,33.3,125.3,51,124.8,51.4z"/>
				<path class="st4" d="M118.2,35.3c-0.2-1.7-2-5-3.4-7.4l6.8-2.7C124.6,28,121.2,33.7,118.2,35.3z"/>
				<path class="st8" d="M133.1,33c0.6,1.9,1.7,10.7,1.7,11.3c0,0.6-6.2-4-6.8-3.7c-0.6,0.3,5.5,6.9,5.3,7.7s-8.6,12.3-8.7,12
					c0-0.6,0-3.2,0-4.7c0-7,3.6-16.7,3.2-23.1"/>
			</g>
			<g>
				<path class="st3" d="M123,27.6c-1.3,3.4-4.9,5.6-6.9,6c-1,0.2-4.7-0.8-7.4-5.2c-0.3-0.5-0.7-1.1-1-1.8c-0.6-1.2-1.1-2.7-1.5-4.4
					c-0.5-2.4,0.1-6.1,1.4-7.1c0.4,0.6,1.9,1.4,3.2,1.8c1.8,0.5,3.9-1,6.2-0.5c2.2,0.5,3.7,3.3,4.8,1.5
					C123.3,20.1,124.2,24.4,123,27.6z"/>
				<g>
					<path class="st3" d="M122.4,21.1c1.8,0.7,2.7-4.7,0.5-4.6c-1.1,0-1.5,1.2-1.6,1.6C121.1,18.9,121.1,19.7,122.4,21.1z"/>
					<g>
						<path class="st4" d="M121.8,18.7c0,0,0.2-0.7,0.8-0.8c1.3-0.3,0.6,2.6-0.2,2.3C121.5,19.9,121.8,18.7,121.8,18.7z"/>
					</g>
				</g>
			</g>
		</g>
		<g>
			<g>
				<path class="st14" d="M117.5,62.3c1.8,0,1.5-5.4-0.7-5.3C114.6,57.2,115.6,62.3,117.5,62.3z"/>
				<path class="st15" d="M116.5,58.2c-0.7,0-0.8,2.8,0.4,2.9C118.1,61.2,117.5,58.1,116.5,58.2"/>
				<path class="st16" d="M116.5,58.2c-0.9,0.2-0.8,2.9,0.4,2.9C118.2,61.1,117.7,58.1,116.5,58.2"/>
			</g>
			<g>
				<path class="st17" d="M135.3,52.8c0.6-3.4,5.7-4.6,7.8-1.2"/>
				<path class="st17" d="M137.7,60.3c-3.1-3.8-3.6-13,0.3-13.7c3.9-0.6,7.2,7.8,5.7,12.4"/>
				<path class="st18" d="M136.9,59.3c-0.5,0.3,0.5,2.2,1.2,1.7C138.9,60.5,137.7,58.8,136.9,59.3z"/>
				<path class="st15" d="M137.9,60.9c-0.2-0.1,0.3-0.5,0.3-0.4C138.3,60.7,138.1,61,137.9,60.9z"/>
				<path class="st18" d="M143.9,57.9c-0.6-0.2-1.5,1.7-0.7,2C144,60.2,144.7,58.2,143.9,57.9z"/>
				<path class="st15" d="M143.1,59.6c-0.1-0.2,0.6,0,0.5,0.1C143.6,59.8,143.2,59.8,143.1,59.6z"/>
				<path class="st17" d="M132.5,32.1c4-1.2,3.7,9.3,5.2,12.9"/>
				<path class="st14" d="M137.6,44.5c-0.6,0.1-0.1,1.3-0.2,1.6c-0.2,0.4-1,0.7-0.6,1.3c0.2,0.4,0.9-0.4,1.3-0.4
					c0.4,0,1.1,0.3,1.3-0.1c0.2-0.4-0.9-0.7-1-0.9C138.2,45.7,138.2,44.4,137.6,44.5z"/>
			</g>
		</g>
	</g>
	<g>
		<g>
			<path class="st19" d="M60.5,139.9c2.3,7.5,2.8,14.8,2.4,16.3c-0.4,1.5-9.4,12.1-9.4,12.1s-3.9-2.5-3.9-2.8s6.5-6.6,6.5-6.6
				l-3.3-14.2L60.5,139.9z"/>
			<path class="st18" d="M57.2,133.2c2.9,2.5,4.6,9,5.3,13l-7.9,1.3C54.6,147.5,53.9,130.4,57.2,133.2z"/>
		</g>
		<g>
			<g>
				<path class="st19" d="M59.6,229.8c0.2,1.8-6,2.5-6.3,0.9L51.5,218l-1.2-8.6l-4.5-31.6c-0.7-3.6,1.6-7.1,5.2-7.9
					c3.6-0.7,7.1,1.6,7.9,5.2c0,0.2,0.1,0.5,0.1,0.7l0.4,34l0.1,8.4L59.6,229.8z"/>
				<polygon class="st18" points="59.7,221.4 59.9,228.8 53,230.1 52,222.3 				"/>
				<polygon class="st20" points="59.5,218.3 51.5,218 50.3,209.3 59.4,209.8 				"/>
			</g>
			<g>
				<path class="st19" d="M41.8,176.4l-3.2,32.2l-0.9,8.8l-1.3,12.4c-0.2,1.8-6.3,1.3-6.3-0.3l-0.4-12.4l-0.3-9l-1-32.4
					C28.4,172.1,41.8,176.2,41.8,176.4z"/>
				<polygon class="st20" points="29.4,208.2 38.5,208.7 37.6,217.4 29.7,217.1 				"/>
				<polygon class="st18" points="29.6,222.1 29.8,230.9 36.6,230.6 37.4,222.2 				"/>
			</g>
			<g>
				<path class="st21" d="M39.1,229.4l-1.8-1.7c-0.5-0.4-1.1-0.6-1.7-0.6h-2.1c-0.4,0-0.8,0.2-1,0.6l-0.7,1.3
					c-0.1,0.2-0.3,0.3-0.5,0.3h-1.6c-0.2,0-0.3,0.1-0.3,0.3v3.7c0,0.2,0.1,0.3,0.3,0.3h9.9c0.2,0,0.3-0.1,0.3-0.3v-2.6
					C39.8,230.2,39.5,229.7,39.1,229.4z"/>
			</g>
			<g>
				<path class="st21" d="M64.3,229.5l-4.5-2.2c-0.3-0.1-0.7-0.2-1-0.2h-1c-0.4,0-0.8,0.2-1,0.6l-0.8,1.4c-0.2,0.3-0.5,0.4-0.8,0.3
					l-2.5-1c-0.2-0.1-0.5,0.1-0.4,0.3l0.3,4.7c0,0.2,0.1,0.3,0.3,0.3h12.2c0.2,0,0.3-0.1,0.3-0.3v-2.2
					C65.3,230.4,64.9,229.8,64.3,229.5z"/>
			</g>
			<path class="st22" d="M61.6,216.2H47.1c-0.5-3.1-1.1-10.7-1.6-16.2c-0.4-4.4-0.7-8-0.7-8c-0.1,0-2.6,16.8-3.5,24.2H26.9
				c-0.8-7.2-1.1-37.4-0.7-41.4c0.2-1.9,1.2-8.3,2.7-13.3c0.5-1.5,1-2.9,1.5-4c0.1-0.2,0.3-0.5,0.4-0.7h26c0,0,0.3,1.5,0.8,3.7
				c0.4,1.9,0.4,1.8,0.8,4.1c0.2,1.1,0.8,4.7,1,5.6C60.2,175.1,61.7,207.3,61.6,216.2z"/>
			<path class="st23" d="M45.4,200c-0.4-4.4-0.7-8-0.7-8l2.3-13.3C47.1,178.8,48.2,191.5,45.4,200z"/>
			<path class="st23" d="M58.4,164.5c-0.6,1.3-1.4,2.6-2.6,3.8c-0.3,0.3-0.6,2.5-2.4,3.8c-1.4,1.1-4.2,1.4-5.9,1.5
				c-1.6,0.1-3.6-1.5-5.1-1.9c-7-1.8-12.1-7.7-13.6-10.3c0.5-1.5,1-2.9,1.5-4l2.2,0.3l10.6,7.5l7.3-0.3l7-4.6
				C58,162.4,58,162.2,58.4,164.5z"/>
			<g>
				<path class="st23" d="M36.2,167.5c-3.2,0-6.2,6.9-6.2,6.9s2.9-0.8,4.8-3.7C36.4,168.2,36.2,167.5,36.2,167.5z"/>
			</g>
			<g>
				<path class="st23" d="M56.1,167.6c1.4,1.5,2.8,4.7,3,6.5c-3.3-2.9-3.7-6.7-3.7-6.7L56.1,167.6z"/>
			</g>
		</g>
		<g>
			<g>
				<path class="st18" d="M57.6,140.2c-0.3,1.4-0.6,2.5-0.6,2.5l-0.4,5.9l-0.6,10.3H32l-3-16.2c0,0-2-6.9-0.3-8.8
					c0.7-0.8,1.6-1.5,2.6-2.1c1.8-1.2,4-2.2,5.9-3c3.2-1.3,5.9-2,5.9-2s3.7,1.2,7.4,2.8c1.9,0.8,3.8,1.7,5.3,2.6
					c0.6,0.4,1.2,0.8,1.5,1.1C58.5,134.4,58.1,137.8,57.6,140.2z"/>
				<path class="st9" d="M41.1,158.6c-0.1,0.2-5.2-0.6-5.2-0.6s0-10.5,0.2-10.5c0.2,0,0.3-0.3,0.3-0.3s-0.1-1.1-0.5-3
					c0.2-1.3,0.3-11-4.6-12.5c0.9-0.6,2-1.2,3-1.7c1-0.5,6.3,10,6.5,10.2c0.2,0.2,11.3-0.9,11.6-1.3c0.5-1.5-1.2-7.7-1.9-9.4
					c0.9,0.4,1.9,0.8,2.8,1.2c0.4,0.2,4,8.8,1.3,15C51,153.3,41.1,158.6,41.1,158.6z"/>
			</g>
			<g>
				<path class="st22" d="M32.7,130.8c4.8,3.4,5.7,20.1,5.1,28.1c-0.6,8,18.1,3.6,18.1,3.6s2.9-26.4-1.4-31c-1.5-1.6-3.5-2.2-4-2
					c1.6,2.2,2.4,4.3,2.4,8.9c-5.4,0.4-11.4,0.9-12,0.8c0.1-3.1-3.2-9.5-4.2-10.3C36.1,128.5,32.2,130.4,32.7,130.8z"/>
				<g>
					<path class="st22" d="M47.5,153c-4.6-0.4-5.6-5-5.4-8c-0.1,3.5,2,6.6,5.8,6.8c3,0.1,4.9-1.7,5.4-4.3
						C53.5,149.2,52.1,153.4,47.5,153z"/>
					<path class="st22" d="M46,144.3c0,0,0.2,3.4,0.4,3.7c0.2,0.3,2.5,0,3-0.2c0.4-0.2,0.5-0.6,0.5-0.6l-3,0.3l-0.4-3.2H46z"/>
				</g>
			</g>
			<g>
				<path class="st19" d="M25.5,141.4c0,7.6,2.4,15.7,4.6,19.4c3.8,6.5,17.6,8,17.6,8l2.4-4.1c0,0-10-4.7-12-7.9
					c-0.8-1.2-2.1-9.5-2.1-9.5L25.5,141.4z"/>
				<path class="st18" d="M28.7,133.8c-4.4,4.3-3.8,11.8-3,15.9l10.3-2.2l-4.8-13C31.2,134.5,29.8,132.7,28.7,133.8z"/>
				<g>
					<path class="st19" d="M62.9,156.2c-0.7,4.5-8.1,10.5-8.1,10.5s-4.2-1.3-4.2-1.7s3.3-8.9,5.9-10.4
						C58,153.8,63.2,154.6,62.9,156.2z"/>
					<path class="st19" d="M55.4,166c-1.3,2.6-4.8,3.5-6.4,2.9c-1.4-0.5,0.2-8.5,1.1-9.5c0.5-0.5,3.2,1.3,3.2,1.3L55.4,166z"/>
					<path class="st19" d="M44.8,162.9c0,0,3.9-2.5,4.7-2.3c0.8,0.2,3.5,1.9,4,3.1c0.4,1-0.3,3.3-1.2,3.9c-0.9,0.6-2.4,0-2.4,0
						s-2,3-4.2,0.8C43.5,166.1,44.8,162.9,44.8,162.9z"/>
				</g>
			</g>
		</g>
		<g>
			<g>
				<path class="st24" d="M32.1,116.9c-1.4,0.4-2.5,0.1-3.3-0.5c-1.8-1.4-1.9-4.6-0.1-5.6c0.9-0.5,1.7-0.7,2.4-0.7
					C34.6,110.2,35.9,115.8,32.1,116.9z"/>
				<path class="st24" d="M47.3,106.1c0.3,1.5-0.3,3-2,3.6c-0.2,0-0.3,0.1-0.5,0.1c-1.9,0.4-3.2-0.6-3.7-1.8
					c-0.3-0.7-0.4-1.5-0.2-2.2c0.2-0.7,0.6-1.3,1.2-1.7C44.9,102.3,46.9,104.1,47.3,106.1z"/>
				<path class="st25" d="M32.1,116.9c-1.4,0.4-2.5,0.1-3.3-0.5c-1.2-2.5,0.7-5.5,2.9-6.2C34.8,110.8,35.7,115.8,32.1,116.9z"/>
				<path class="st25" d="M47.3,106.1c0.3,1.5-0.3,3-2,3.6c-0.2,0-0.3,0.1-0.5,0.1l-3.7-1.8c-0.3-0.7-0.4-1.5-0.2-2.2
					C42.9,105.3,45.7,105.3,47.3,106.1z"/>
				<path class="st24" d="M36.5,107.2c-6.1,2.8-7.6,9.1-3.9,14.4c3.1,4.5,8.5,4.9,9.9,5.3c4,1.1,8.3-5.9,8.3-10.5
					C55.4,114,46.3,102.6,36.5,107.2z"/>
			</g>
			<path class="st19" d="M47.1,128.2c0,2.1-8.2,2.1-8.2,0c0-1.6-0.5-5.2-0.5-5.2l8.7-1.1C47.1,121.9,47.1,126.8,47.1,128.2z"/>
			<g>
				<path class="st19" d="M51.3,114.2c-1.4-2-6.1-5.5-7.6-4.6c-0.8,0.5-2.5,10.4-6.1,11.2c0.2,0.8,1.8,3.7,2.8,5.5c0,0,0,0,0,0
					c2.4,1.3,5.1,1.3,7.7,0.6C53.8,125.3,54.7,120.3,51.3,114.2z"/>
				<g>
					<path class="st19" d="M35.2,120.8c0.3,1.4,2.6,3.4,3.3,2.2c0.3-0.5-0.1-1.2-0.5-2.3C37.5,119.2,34.6,118.2,35.2,120.8z"/>
				</g>
				<g>
					<path class="st25" d="M41.9,109.1c-3.6,1-2.6,8.2-4,9.9c-0.1,0.1,0,0.2,0.1,0.2c2-0.8,3.7-8.6,4-9.9
						C42.1,109.1,42,109,41.9,109.1z"/>
					<path class="st25" d="M37.2,107.7c-4.3,1.6-6.2,7-3.4,11.6c0.1,0.1,0.2,0,0.2-0.1c-1.8-4.8,0.3-9.3,3.3-11.3
						C37.4,107.9,37.3,107.7,37.2,107.7z"/>
					<path class="st25" d="M51.3,114.2c-1.5-1.7-5.9-5.4-7.6-4.6C44.2,108.6,48.9,108,51.3,114.2z"/>
				</g>
			</g>
		</g>
	</g>
	<path class="st17" d="M116.4,56.7c0,0-6.7-16.4,0-20.5"/>
</g>
</svg>
