<?xml version="1.0" encoding="utf-8"?>
<!-- Generator: Adobe Illustrator 25.4.8, SVG Export Plug-In . SVG Version: 6.00 Build 0)  -->
<svg version="1.1" id="Layer_1" xmlns="http://www.w3.org/2000/svg" xmlns:xlink="http://www.w3.org/1999/xlink" x="0px" y="0px"
	 viewBox="0 0 187.4 166.2" style="enable-background:new 0 0 187.4 166.2;" xml:space="preserve">
<style type="text/css">
	.st0{clip-path:url(#SVGID_00000075129026885272264980000004100702749096931252_);}
	.st1{fill:#EFBF8D;}
	.st2{fill:#FCBB80;}
	.st3{fill:url(#SVGID_00000073691350746462311550000001017563501508914346_);}
	.st4{fill:url(#SVGID_00000127025831409950476380000000838592726654795922_);}
	.st5{fill:url(#SVGID_00000183969303136341933750000013497296145617059495_);}
	.st6{opacity:0.34;fill:#2C3A66;}
	.st7{fill:none;stroke:#F1F1F1;stroke-width:6;stroke-linecap:round;stroke-linejoin:round;stroke-miterlimit:10;}
	.st8{fill:url(#SVGID_00000147918660361066313900000012041047452387600814_);}
	.st9{fill:url(#SVGID_00000175297072331285092050000014482131921675515833_);}
	.st10{fill:url(#SVGID_00000018237975126034813910000009568318733222753457_);}
	.st11{fill:url(#SVGID_00000029745777865283928950000017115481889760469695_);}
	.st12{fill:url(#SVGID_00000053542639544946527230000014965298521282981808_);}
	.st13{fill:url(#SVGID_00000123427349323525413310000006973794718031557031_);}
	.st14{fill:url(#SVGID_00000160910149411229113490000006680435515142754178_);}
	.st15{fill:url(#SVGID_00000041998043493830428250000003725953096074058119_);}
</style>
<g>
	<g>
		<defs>
			<path id="SVGID_1_" d="M164.6,83.9c0,45.5-36.8,82.3-82.3,82.3C36.8,166.2,0,129.3,0,83.9C0,38.4,36.8,1.6,82.3,1.6
				C127.8,1.6,164.6,38.4,164.6,83.9z"/>
		</defs>
		<clipPath id="SVGID_00000022538026358809530300000000822870123471556502_">
			<use xlink:href="#SVGID_1_"  style="overflow:visible;"/>
		</clipPath>
		<g style="clip-path:url(#SVGID_00000022538026358809530300000000822870123471556502_);">
			<rect x="-59.9" y="-35" class="st1" width="279.9" height="237.9"/>
			<g>
				<path class="st2" d="M91.7,75.9C87.4,76.2,83,74.5,79,76c-2.4,0.9-4.2,2.9-5.4,5.1c-1.2,2.2-1.7,4.8-2,7.3
					c-0.3,2.4-0.4,5.1,1.2,7c1,1.2,2.4,1.9,3.9,2.6c7.2,3.2,15.2,5.7,22.8,3.7c3.2-0.9,6.3-2.7,7.8-5.7c1.5-3,1.2-6.7-0.4-9.6
					c-1.6-2.9-4.3-5.2-7.3-6.7c-3-1.5-6.2-2.5-9.5-3.3"/>
			</g>
			<g>
				
					<radialGradient id="SVGID_00000134966184203228231070000011092360574840020610_" cx="80.1452" cy="89.0158" r="22.1661" gradientUnits="userSpaceOnUse">
					<stop  offset="2.401583e-02" style="stop-color:#89524B"/>
					<stop  offset="0.5353" style="stop-color:#753A36"/>
					<stop  offset="1" style="stop-color:#491E18"/>
				</radialGradient>
				<path style="fill:url(#SVGID_00000134966184203228231070000011092360574840020610_);" d="M91.3,78.8c-3.3,0.3-6.7-1-9.8,0.1
					c-1.8,0.7-3.3,2.2-4.2,4c-0.9,1.7-1.3,3.7-1.6,5.6c-0.2,1.9-0.3,4,0.9,5.5c0.8,1,1.9,1.5,3,2c5.6,2.5,11.8,4.5,17.7,2.8
					c2.5-0.7,4.9-2.1,6.1-4.4c1.2-2.3,0.9-5.2-0.3-7.5c-1.2-2.3-3.3-4-5.6-5.2c-2.3-1.2-4.8-1.9-7.3-2.6"/>
			</g>
			<g>
				<path class="st2" d="M67.3,42.6c0.4-1.5,2.1-2.6,1.7-4.3c-0.3-1-1.3-2.2-2.6-3.2s-2.9-1.9-4.4-2.6c-1.5-0.8-3.3-1.5-4.7-1.5
					c-0.9,0-1.6,0.3-2.2,0.6c-3.1,1.6-5.9,3.6-5.6,6.7c0.1,1.3,0.9,2.9,2.6,4.2c1.7,1.3,4.2,2.2,6.3,2.5c2.1,0.3,4,0,5.4-0.6
					c1.4-0.6,2.5-1.4,3.5-2.3"/>
			</g>
			<g>
				
					<radialGradient id="SVGID_00000016757934308439991430000015418324247611531951_" cx="7289.8091" cy="-8356.5762" r="22.1661" gradientTransform="matrix(-0.1397 0.3369 -0.6502 -0.2696 -4354.6064 -4674.082)" gradientUnits="userSpaceOnUse">
					<stop  offset="2.401583e-02" style="stop-color:#89524B"/>
					<stop  offset="0.5353" style="stop-color:#753A36"/>
					<stop  offset="1" style="stop-color:#491E18"/>
				</radialGradient>
				<path style="fill:url(#SVGID_00000016757934308439991430000015418324247611531951_);" d="M65.5,41.7c0.3-1.2,1.6-2,1.3-3.3
					c-0.2-0.8-1-1.7-2-2.5c-1-0.8-2.2-1.4-3.5-2c-1.2-0.6-2.5-1.2-3.7-1.2c-0.7,0-1.2,0.2-1.7,0.5c-2.4,1.2-4.5,2.8-4.3,5.2
					c0.1,1,0.7,2.2,2,3.2c1.3,1,3.2,1.7,4.9,1.9c1.7,0.2,3.1,0,4.2-0.5c1.1-0.5,1.9-1.1,2.7-1.8"/>
			</g>
			<g>
				<path class="st2" d="M56.8,128.9c0.3-1.5,2-2.5,1.6-4.2c-0.2-1-1.2-2.1-2.4-3.1c-1.2-1-2.7-1.8-4.2-2.5
					c-1.5-0.7-3.1-1.4-4.5-1.4c-0.9,0-1.5,0.3-2.1,0.6c-2.9,1.5-5.6,3.5-5.3,6.5c0.1,1.3,0.8,2.8,2.4,4c1.6,1.3,4,2.1,6,2.3
					c2,0.2,3.8-0.1,5.1-0.6s2.4-1.4,3.3-2.2"/>
			</g>
			<g>
				
					<radialGradient id="SVGID_00000106829563650642731030000000837044240037633958_" cx="4187.792" cy="-6784.0874" r="13.1104" gradientTransform="matrix(-0.229 0.5522 -1.0419 -0.432 -6059.2695 -5121.6499)" gradientUnits="userSpaceOnUse">
					<stop  offset="2.401583e-02" style="stop-color:#89524B"/>
					<stop  offset="0.5353" style="stop-color:#753A36"/>
					<stop  offset="1" style="stop-color:#491E18"/>
				</radialGradient>
				<path style="fill:url(#SVGID_00000106829563650642731030000000837044240037633958_);" d="M55.1,128.1c0.3-1.1,1.6-1.9,1.2-3.2
					c-0.2-0.8-0.9-1.6-1.9-2.4c-1-0.7-2.1-1.4-3.3-2c-1.1-0.6-2.4-1.1-3.5-1.1c-0.7,0-1.2,0.2-1.6,0.5c-2.3,1.2-4.3,2.7-4.1,5.1
					c0.1,1,0.6,2.1,1.9,3.1c1.3,1,3.1,1.6,4.7,1.8c1.6,0.2,2.9-0.1,4-0.5s1.8-1.1,2.6-1.7"/>
			</g>
			<g>
				<rect x="652.1" y="42.5" class="st6" width="127.4" height="114.2"/>
				<g>
					<circle class="st7" cx="716.5" cy="99" r="13.1"/>
					<path class="st7" d="M661.1,70.6V57c0-3.8,3.1-6.8,6.8-6.8h14.2"/>
					<path class="st7" d="M681.8,146.3h-13.6c-3.8,0-6.8-3.1-6.8-6.8v-14.2"/>
					<path class="st7" d="M771.9,125.9v13.6c0,3.8-3.1,6.8-6.8,6.8h-14.2"/>
					<path class="st7" d="M751.2,50.2h13.6c3.8,0,6.8,3.1,6.8,6.8v14.2"/>
					<g>
						<g>
							<line class="st7" x1="661.1" y1="98.2" x2="680.5" y2="98.2"/>
							<line class="st7" x1="751.9" y1="98.2" x2="771.3" y2="98.2"/>
						</g>
						<g>
							<line class="st7" x1="716.2" y1="49.9" x2="716.2" y2="66.9"/>
							<line class="st7" x1="716.2" y1="129.6" x2="716.2" y2="146.6"/>
						</g>
					</g>
				</g>
			</g>
		</g>
	</g>
	
		<linearGradient id="SVGID_00000173839096885073899460000007252358294511905711_" gradientUnits="userSpaceOnUse" x1="125.2929" y1="71.4635" x2="125.2929" y2="62.4774" gradientTransform="matrix(1 0 0 -1 0 167.0318)">
		<stop  offset="0" style="stop-color:#A4A4A4"/>
		<stop  offset="0.63" style="stop-color:#7F7F7F"/>
		<stop  offset="1" style="stop-color:#6F6F6F"/>
		<stop  offset="1" style="stop-color:#6F6F6F"/>
	</linearGradient>
	<path style="fill:url(#SVGID_00000173839096885073899460000007252358294511905711_);" d="M126,110.7h-1.5c-2.5,0-4.5-2-4.5-4.5l0,0
		c0-2.5,2-4.5,4.5-4.5h1.5c2.5,0,4.5,2,4.5,4.5l0,0C130.5,108.7,128.5,110.7,126,110.7z"/>
	
		<linearGradient id="SVGID_00000140002051163298398680000003270470668947867810_" gradientUnits="userSpaceOnUse" x1="150.0046" y1="83.6845" x2="150.0046" y2="5.7244" gradientTransform="matrix(1 0 0 -1 0 167.0318)">
		<stop  offset="0" style="stop-color:#A4A4A4"/>
		<stop  offset="0.63" style="stop-color:#7F7F7F"/>
		<stop  offset="1" style="stop-color:#6F6F6F"/>
		<stop  offset="1" style="stop-color:#6F6F6F"/>
	</linearGradient>
	<path style="fill:url(#SVGID_00000140002051163298398680000003270470668947867810_);" d="M118.6,106.2h62.9c3.3,0,6,2.7,6,6v44.9
		c0,3.3-2.7,6-6,6h-62.9c-3.3,0-6-2.7-6-6v-44.9C112.6,108.9,115.3,106.2,118.6,106.2z"/>
	
		<linearGradient id="SVGID_00000116193992269322075010000017344640400412183741_" gradientUnits="userSpaceOnUse" x1="150.0046" y1="36.9405" x2="150.0046" y2="-7.9898" gradientTransform="matrix(1 0 0 -1 0 167.0318)">
		<stop  offset="0" style="stop-color:#B2B2B2"/>
		<stop  offset="0.594" style="stop-color:#949494"/>
		<stop  offset="1" style="stop-color:#848484"/>
		<stop  offset="1" style="stop-color:#848484"/>
	</linearGradient>
	<path style="fill:url(#SVGID_00000116193992269322075010000017344640400412183741_);" d="M150,112.2c-12.4,0-22.5,10.1-22.5,22.5
		s10.1,22.5,22.5,22.5c12.4,0,22.5-10.1,22.5-22.5S162.4,112.2,150,112.2z"/>
	
		<linearGradient id="SVGID_00000036251465169172628780000004855940564580586648_" gradientUnits="userSpaceOnUse" x1="150.0046" y1="48.8081" x2="150.0046" y2="15.8592" gradientTransform="matrix(1 0 0 -1 0 167.0318)">
		<stop  offset="0" style="stop-color:#DEF9FF"/>
		<stop  offset="0.282" style="stop-color:#CFF6FF"/>
		<stop  offset="0.823" style="stop-color:#A7EFFF"/>
		<stop  offset="1" style="stop-color:#99ECFF"/>
	</linearGradient>
	<path style="fill:url(#SVGID_00000036251465169172628780000004855940564580586648_);" d="M150,118.2c-9.1,0-16.5,7.4-16.5,16.5
		s7.4,16.5,16.5,16.5c9.1,0,16.5-7.4,16.5-16.5S159.1,118.2,150,118.2z"/>
	
		<linearGradient id="SVGID_00000012435768054958018770000014153815384657428387_" gradientUnits="userSpaceOnUse" x1="150.0046" y1="76.8626" x2="150.0046" y2="62.4864" gradientTransform="matrix(1 0 0 -1 0 167.0318)">
		<stop  offset="0" style="stop-color:#A4A4A4"/>
		<stop  offset="0.63" style="stop-color:#7F7F7F"/>
		<stop  offset="1" style="stop-color:#6F6F6F"/>
		<stop  offset="1" style="stop-color:#6F6F6F"/>
	</linearGradient>
	<path style="fill:url(#SVGID_00000012435768054958018770000014153815384657428387_);" d="M161.8,100.9c-0.8-1.4-2.3-2.2-3.9-2.2
		H150h-7.9c-1.6,0-3,0.8-3.9,2.2l-3.2,5.3h15h15L161.8,100.9z"/>
	
		<linearGradient id="SVGID_00000124850082699325529380000001059844234978730634_" gradientUnits="userSpaceOnUse" x1="122.2975" y1="38.3244" x2="122.2975" y2="60.7895" gradientTransform="matrix(1 0 0 -1 0 167.0318)">
		<stop  offset="0" style="stop-color:#8B8B8B"/>
		<stop  offset="1" style="stop-color:#999999"/>
	</linearGradient>
	<path style="fill:url(#SVGID_00000124850082699325529380000001059844234978730634_);" d="M126,125L126,125c0-2.1-1.7-3.7-3.7-3.7
		l0,0c-2.1,0-3.7-1.7-3.7-3.7l0,0c0-2.1,1.7-3.7,3.7-3.7h6c2.1,0,3.7-1.7,3.7-3.7l0,0c0-2.1-1.7-3.7-3.7-3.7h-9.7c-3.3,0-6,2.7-6,6
		v1.5v7.5v7.5h9.7C124.4,128.7,126,127,126,125z"/>
	
		<linearGradient id="SVGID_00000145034777290407104730000007238356032898682276_" gradientUnits="userSpaceOnUse" x1="126.7906" y1="48.8081" x2="126.7906" y2="56.2965" gradientTransform="matrix(1 0 0 -1 0 167.0318)">
		<stop  offset="0" style="stop-color:#ECF9FD"/>
		<stop  offset="0.848" style="stop-color:#F2FDFF"/>
		<stop  offset="1" style="stop-color:#F4FEFF"/>
	</linearGradient>
	<path style="fill:url(#SVGID_00000145034777290407104730000007238356032898682276_);" d="M126.8,110.7c-2.1,0-3.7,1.7-3.7,3.7
		c0,2.1,1.7,3.7,3.7,3.7c2.1,0,3.7-1.7,3.7-3.7C130.5,112.4,128.9,110.7,126.8,110.7z"/>
	
		<linearGradient id="SVGID_00000008143106966326044340000004747625655615654590_" gradientUnits="userSpaceOnUse" x1="155.9953" y1="59.1885" x2="155.9953" y2="24.8198" gradientTransform="matrix(1 0 0 -1 0 167.0318)">
		<stop  offset="0" style="stop-color:#DFF9FF"/>
		<stop  offset="0" style="stop-color:#DFF9FF"/>
		<stop  offset="0.173" style="stop-color:#D8F8FF"/>
		<stop  offset="0.423" style="stop-color:#C5F4FF"/>
		<stop  offset="0.72" style="stop-color:#A5EEFF"/>
		<stop  offset="1" style="stop-color:#81E7FF"/>
	</linearGradient>
	<path style="fill:url(#SVGID_00000008143106966326044340000004747625655615654590_);" d="M166.5,134.7c0-2.1-0.4-4.1-1.1-6h-11.6
		c-2.1,0-3.7,1.7-3.7,3.7s1.7,3.7,3.7,3.7h1.5c2.1,0,3.7,1.7,3.7,3.7c0,2.1-1.7,3.7-3.7,3.7h-6c-2.1,0-3.7,1.7-3.7,3.7
		c0,1.8,1.3,3.3,3,3.7c0.5,0,1,0.1,1.5,0.1C159.1,151.2,166.5,143.8,166.5,134.7z"/>
</g>
</svg>
