<?xml version="1.0" encoding="utf-8"?>
<!-- Generator: Adobe Illustrator 25.4.8, SVG Export Plug-In . SVG Version: 6.00 Build 0)  -->
<svg version="1.1" id="Layer_1" xmlns="http://www.w3.org/2000/svg" xmlns:xlink="http://www.w3.org/1999/xlink" x="0px" y="0px"
	 viewBox="0 0 166.6 166.2" style="enable-background:new 0 0 166.6 166.2;" xml:space="preserve">
<style type="text/css">
	.st0{clip-path:url(#SVGID_00000125586840418035438360000016959404787539939768_);}
	.st1{fill:#D69056;}
	.st2{fill:#B75B2A;}
	.st3{fill:#793700;}
	.st4{fill:#571B00;}
</style>
<g>
	<defs>
		<path id="SVGID_1_" d="M166.4,83.1c0,45.9-37.2,83.1-83.1,83.1c-45.9,0-83.1-37.2-83.1-83.1C0.2,37.2,37.4,0,83.3,0
			C129.2,0,166.4,37.2,166.4,83.1z"/>
	</defs>
	<clipPath id="SVGID_00000102532277533231934280000016605615059414592170_">
		<use xlink:href="#SVGID_1_"  style="overflow:visible;"/>
	</clipPath>
	<g style="clip-path:url(#SVGID_00000102532277533231934280000016605615059414592170_);">
		<rect x="-69.4" y="-43.4" class="st1" width="282.6" height="240.2"/>
		<g>
			<path class="st2" d="M54.7,54.9c4.2,0.3,8.5-1.6,11.2-4.8c3.3-3.9,4.5-9.9,9.2-12c2.5-1.1,5.5-0.7,8.1,0.3s4.9,2.5,7.5,3.6
				c5.4,2.4,11.4,3,17.1,4.4s11.6,4,14.8,9c2.8,4.4,3,10,2.4,15.2c-0.6,5.2-1.8,10.4-1.5,15.6c0.4,6.7,3.3,13.6,1,20
				c-2.4,6.6-9.9,10.1-16.8,10c-3.1,0-6.2-0.7-9.3-0.2c-3.6,0.6-6.8,2.6-10.1,4.2c-4.5,2.1-9.5,3.4-14.5,2.9s-9.9-2.8-12.9-6.8
				c-2.7-3.7-3.7-8.3-5.3-12.6c-2.4-6.5-6.3-12.3-9.5-18.4c-3.1-6.2-5.4-13.2-4.1-20c0.8-4.1,3.2-8.2,7.2-9.5
				c3.8-1.2,8.5,0.4,11.6-2.1"/>
		</g>
		<g>
			<path class="st3" d="M59.5,59.1c3.5,0.2,7.1-1.3,9.4-4c2.7-3.3,3.7-8.3,7.6-10c2.1-0.9,4.6-0.6,6.7,0.2c2.2,0.8,4.1,2.1,6.2,3
				c4.5,2,9.5,2.5,14.3,3.7c4.8,1.2,9.7,3.3,12.3,7.5c2.3,3.7,2.5,8.4,2,12.7c-0.5,4.4-1.5,8.7-1.2,13c0.3,5.6,2.8,11.4,0.8,16.6
				c-2,5.5-8.2,8.4-14,8.4c-2.6,0-5.2-0.5-7.8-0.1c-3,0.5-5.7,2.2-8.5,3.5c-3.8,1.8-8,2.8-12.1,2.4c-4.1-0.4-8.2-2.3-10.7-5.7
				c-2.3-3.1-3.1-6.9-4.4-10.5c-2-5.4-5.3-10.2-7.9-15.4c-2.6-5.2-4.5-11-3.4-16.6c0.6-3.4,2.7-6.9,6-7.9c3.2-1,7.1,0.4,9.7-1.7"/>
		</g>
		<g>
			<g>
				<path class="st4" d="M72,73.3c0.6-0.2,2.5-0.7,2.5-0.5c0-0.1-0.8-0.8-0.9-1c0-0.1,0-0.1,0.1-0.2c-0.6,2,1,1.8,4.9-0.7
					c-0.3-0.7-1.8-2.4-2.9-3c-0.7-0.4-1.4-0.7-2.1-0.9c-0.3-0.1-0.7-0.2-1-0.3c0.8,0.5,1.3,1.3,1.4,2.4c-0.2,0.8-0.5,1.7-0.7,2.5
					c-0.3,0.3-0.7,0.6-1,0.9c-0.8,0.2-1.7,0.5-2.5,0.7c-0.2,0-0.4-0.1-0.6-0.1c2.6,0.9,5.5-1,6.2-3.5c0.8-2.7-0.9-5.3-3.5-6.2
					c-2.7-0.9-5.8,0.4-7.1,2.9c-1.5,2.7-0.7,6,1.5,8c1,0.9,2.1,1.4,3.4,1.8c0.1,0,1.2,0.4,1.2,0.4c-0.1,0.2-1.1-1.3-0.6-0.3
					c1.1,2.4,4,3.9,6.5,3.8c5.8-0.2,8.2-7.4,6.2-12.1c-2.3-5.5-8.6-5.8-13.6-4.4C63.1,65.4,65.8,75,72,73.3L72,73.3z"/>
			</g>
		</g>
		<g>
			<g>
				<path class="st4" d="M94.2,51.9c-4.1-0.5-10.9,3.3-12.1,7.6c-0.6,2.1,0.1,4.4,1.7,5.8c2.4,2.2,5.6,0.7,5.2,5
					c-0.5,5.3,2.4,9.4,8.3,8.3c2.7-0.5,4.7-1.9,6.4-4c2-2.4,2.4-4.6,6-4.3c2.5,0.1,5.2-2.4,5-5c-0.4-4.3-2.4-7.6-6.3-9.6
					c-1.9-1-3.8-1.4-5.8-1.8c-2.5-0.5-5.2-1.6-7.8-1.4c-3.7,0.3-7,3.4-6.7,7.3c0.2,2.1,1.4,3.9,3.1,5.1c0.6,0.4,1.5,0.5,2.1,0.9
					c-1.6-1.2,0-0.5-1,0.9c-3.6,4.9,3.8,9.4,7.9,6.1c2.6-2.1,1.7-4.9,2.2-6.8c-0.8,1-1.5,2-2.3,3c1.5-1.1,4.7-1.2,6.5-1.4
					c6.3-0.9,3.6-10.6-2.7-9.6c-3,0.4-6.4,0.6-8.9,2.4c-1.2,0.9-1.8,1.6-2.3,3c-0.2,0.8-0.4,1.7-0.5,2.5c0,1.8,0.3,1.8,0.9-0.1
					c2.6,2,5.2,4,7.9,6.1c1.9-2.6,2.1-6.2,1.4-9.3c-0.4-1.5-1.1-3.1-2.3-4.2c-0.9-0.8-2.7-1.1-3.4-1.9c0.5,1.2,1,2.4,1.5,3.5
					c0-0.3,0-0.7,0-1c-0.5,1.2-1,2.4-1.5,3.5c-0.7,0.9,7.9,1.5,8,3.1c1.7-1.7,3.3-3.3,5-5c-3.1-0.2-6.1,0.5-8.7,2.2
					c-2.1,1.4-6.3,4.9-3.7,7c0.5,1.2,1,2.4,1.5,3.5c-0.2-1.6,0.6-3.3,0.4-5c-0.1-2.1-0.9-4.1-2-5.8c-0.9-1.4-2.1-2.6-3.5-3.4
					c-0.7-0.4-1.4-0.8-2.2-1.1c-0.8-0.3-2.3-1.3-1.1,0c0.5,1.2,1,2.4,1.5,3.5c0-0.2,0-0.4,0-0.5c-0.5,1.2-1,2.4-1.5,3.5
					c0.9-0.9,2.3-2.6,3.7-2.4C100.6,62.7,100.5,52.7,94.2,51.9L94.2,51.9z"/>
			</g>
		</g>
		<g>
			<g>
				<path class="st4" d="M77.5,83.9c-5.4-1.4-12,0.1-13.1,6.5c-0.5,2.9,0.6,5.7,1.7,8.4c1.1,2.7,2.2,5.7,4.6,7.5
					c4.7,3.5,10.6,1.2,14.1-2.9c1.6-1.8,2.7-3.6,4.6-5.1c2.3-1.8,3.7-4.4,2.9-7.4c-0.6-2.3-2.5-4.2-4.7-5c-2.9-1-5.9,0.1-8.8-0.7
					c-2.8-0.8-5.3-1.9-8.1-0.2c-2.1,1.3-3.5,3.7-3.6,6.2c-0.2,5.1,4.9,10.7,10.2,9.7c6.4-1.2,6.7-10.2,0.5-12
					c-7.2-2.1-10.8,7.9-5.3,12.1c5.2,3.9,12.1,0.1,15-4.8c1.6-2.6,0.2-6.7-3-7.3c-2.5-0.5-4.9-0.7-7.3-0.6c-6.4,0.4-6.4,10.4,0,10
					c1.6-0.1,3.1-0.1,4.7,0.2c-1-2.4-2-4.9-3-7.3c-0.2,0.4-0.4,0.7-0.7,1c-1.6,0.9-1.2,2.3,1.3,4.3c-1,0.8-2,1.5-3,2.3
					c-0.3,0-0.7,0-1-0.1c-1-0.8-2-1.5-3-2.3c-0.1-0.3-0.2-0.6-0.2-1c0.5-1.2,1-2.4,1.5-3.5c-0.2,0.2-0.5,0.4-0.7,0.6
					c1.2-0.5,2.4-1,3.5-1.5c1.6-0.4,1.1,0.8-1.6,3.5c0.7,0.3,1.5,0.5,2.3,0.7c1.2,0.3,2.5,0.4,3.7,0.4c0.8,0,1.6-0.1,2.4-0.2
					c2.6,0.2,2.5-1.4-0.3-4.8c-0.9,0.1-2.3,1.9-2.9,2.5c-0.8,1-1.5,2.1-2.4,3c-0.3,0.4-2,1.9-1.5,1.9c0.6,0.3,0.5,0-0.2-0.9
					c-0.3-0.7-0.6-1.5-0.9-2.2c-0.3-0.8-0.5-1.6-0.8-2.3c-1.3,0.5-1.2,0.8,0.3,0.9C81.1,95.2,83.7,85.5,77.5,83.9L77.5,83.9z"/>
			</g>
		</g>
		<g>
			<g>
				<path class="st4" d="M92.3,84.7c0.6,6.7,6.4,11.9,13.2,10.2c3-0.7,5.6-2.8,7-5.5c1.8-3.5,1-8.1-2.6-10.2c-1.7-1-3.9-1.1-5.8-0.6
					c-0.8,0.2-1.5,0.6-2.2,0.9c-0.3,0.2-1.6,0.6-0.7,0.5c1,0-0.8-0.5-1.1-0.5c-0.8-0.2-1.5-0.2-2.2-0.2c-2.2,0.1-4.1,1.3-5.1,3.2
					c-2.1,3.9,0.6,8.3,4.5,9.5c3,0.9,6.7-0.1,9.7-0.5c2.7-0.3,5-2.1,5-5c0-2.4-2.3-5.3-5-5c-1.4,0.2-2.8,0.4-4.1,0.5
					c-0.6,0.1-1.1,0.2-1.7,0.2c-0.3,0-0.7,0.1-1,0.1c-1.5,0-0.8,0.9,1.9,2.7c-0.2,0.8-0.5,1.7-0.7,2.5c0.1-0.2,0.2-0.3,0.3-0.5
					c-0.6,0.6-1.2,1.2-1.8,1.8c0.2-0.1,0.3-0.2,0.5-0.3c-0.8,0.2-1.7,0.5-2.5,0.7c0,0,1.2,0.4,1.6,0.5c1.1,0.3,2.3,0.2,3.3,0
					c0.9-0.2,1.7-0.5,2.5-0.9c0.4-0.2,0.8-0.4,1.2-0.6c0.3-0.1,0.1-0.1-0.6,0.1c-0.7-0.4-1.5-0.9-2.2-1.3c-0.4-0.3-0.2-2.1-0.2-2.1
					c0.2,0.3-1,0.3-0.9,0.3c0.1,0-0.4-0.7-0.4-0.5c-0.2-2.7-2.1-5-5-5C94.7,79.7,92,82,92.3,84.7L92.3,84.7z"/>
			</g>
		</g>
	</g>
</g>
</svg>
