<?xml version="1.0" encoding="utf-8"?>
<!-- Generator: Adobe Illustrator 25.4.8, SVG Export Plug-In . SVG Version: 6.00 Build 0)  -->
<svg version="1.1" id="Layer_1" xmlns="http://www.w3.org/2000/svg" xmlns:xlink="http://www.w3.org/1999/xlink" x="0px" y="0px"
	 viewBox="0 0 170.8 183.7" style="enable-background:new 0 0 170.8 183.7;" xml:space="preserve">
<style type="text/css">
	.st0{fill:#FF9C6A;}
	.st1{opacity:0.5;}
	.st2{fill:#E1CBC3;}
	.st3{opacity:0.7;}
	.st4{opacity:0.3;}
	.st5{clip-path:url(#SVGID_00000108303854898255886580000006924983581424837254_);}
	.st6{opacity:0.18;}
	.st7{fill:url(#SVGID_00000101072910407647281210000003235331892609838268_);}
	.st8{opacity:0.25;fill:#E8754B;}
	.st9{opacity:0.47;fill:#E8754B;}
	.st10{opacity:0.61;fill:url(#SVGID_00000006691220692670972480000000715030704477718952_);}
	.st11{opacity:0.61;fill:url(#SVGID_00000006685826432726237270000016413241749659815871_);}
	.st12{opacity:0.61;fill:url(#SVGID_00000124156137596543526420000017480315785274569601_);}
	.st13{opacity:0.61;fill:url(#SVGID_00000134936518024745404740000001094998686595439268_);}
	.st14{opacity:0.61;fill:url(#SVGID_00000093858111349141736160000003965774127992046756_);}
	.st15{opacity:0.61;fill:url(#SVGID_00000178917285487328129330000018389944875951788709_);}
</style>
<g>
	<g>
		<path class="st0" d="M1361.1,679c-34.1-7-78.3-48-109.3-87.7c-35.1-45-75.9-124.7-83-190.4c-7.2-65.7,39.4-741.2,39.4-811.2
			c0.1-69.9-90.7-213.1-185.6-231.2c-28.7-5.5-236.9-8.9-414.5-10.8L437.2-298.1l532.1-3.8c0,0-64,141.6-41.5,256.1
			c22.5,114.5,126.2,453.5,126.5,474.4c0.3,20.9-49.6,108.2-3.3,135.8c46.3,27.5,66,23,106.2,56.5c33,27.4,50,70.1,106.5,77.3
			c38.1,4.9,68.5,5.8,88.3,7.6C1372,707.6,1395.3,686,1361.1,679z"/>
	</g>
	<g class="st1">
		<path class="st2" d="M1158.5-405.5c4.3-9.5-31.7-122.4-135.8-236.1c94.9,18.2,185.6,161.3,185.6,231.2
			c-0.1,66.5-42.2,680.7-40.1,797.2C1160.7,377.8,1069.6-87.3,1158.5-405.5z"/>
	</g>
	<path class="st0" d="M1224.4,640.7c-17.9-19.7-30.4-43.1-55.4-54.3c-21.9-9.9-46.7-14.7-64.6-31.8c-16.4-15.7-23.9-41.5-19.5-63.5
		c4.2-21.1,21.5-36.2,37-49.3c6-5.1,11.9-9.9,17.1-15.6c-2-3.1-4.4-6-6.6-9c-13.2-17.3-29.5-32.2-40.9-50.9
		c-30.4-49.6-32.5-114.2-44.3-169.7c-11.5-53.9-33.7-108.8-23.9-164.7c10.9-62.4,48.7-117,48.2-181.8
		c-0.4-52.1-26.8-121.6-76.5-144.6c-11.8-5.5-16-19.7-10.9-31.2c13.7-30.7,43.9-47.5,63.7-72.7c-21-5.1-45.5,5.7-65.1,13.2
		c-33.2,12.7-65.1,22.6-100.8,25.7c-39.2,3.3-78.8-1-118.1-1.7c-38.2-0.7-76.7,0.7-114.9,2.9c-69.3,3.9-136.9,14.9-200.3,36.3
		l-11.5,23.8l532.1-3.8c0,0-64,141.6-41.5,256.1c22.5,114.5,126.2,453.5,126.5,474.4c0.3,20.9-49.6,108.2-3.3,135.8
		c46.3,27.5,66,23,106.2,56.5c33,27.4,50,70.1,106.5,77.3c38.1,4.9,68.5,5.8,88.3,7.6c8.7,0.8,18.1-2.9,23-7.9
		C1320.9,689.1,1263.2,683.5,1224.4,640.7z"/>
</g>
<g>
	<g class="st3">
		<g>
			
				<image style="overflow:visible;" width="12" height="14" xlink:href="E587E2B.png"  transform="matrix(1 0 0 1 114.6765 -145.5614)">
			</image>
		</g>
		<g>
			
				<image style="overflow:visible;" width="17" height="19" xlink:href="E587E29.png"  transform="matrix(1 0 0 1 118.6765 -142.5614)">
			</image>
		</g>
		<g>
			
				<image style="overflow:visible;" width="22" height="8" xlink:href="E587E2F.png"  transform="matrix(1 0 0 1 122.6765 -127.5614)">
			</image>
		</g>
		<g>
			
				<image style="overflow:visible;" width="16" height="16" xlink:href="E587E28.png"  transform="matrix(1 0 0 1 110.6765 -128.5614)">
			</image>
		</g>
		<g>
			<g>
				
					<image style="overflow:visible;" width="3" height="3" xlink:href="E587E26.png"  transform="matrix(1 0 0 1 112.6765 -124.5614)">
				</image>
			</g>
			<g>
				
					<image style="overflow:visible;" width="5" height="4" xlink:href="E587E27.png"  transform="matrix(1 0 0 1 112.6765 -123.5614)">
				</image>
			</g>
			<g>
				
					<image style="overflow:visible;" width="5" height="3" xlink:href="E587E37.png"  transform="matrix(1 0 0 1 113.6765 -121.5614)">
				</image>
			</g>
			<g>
				
					<image style="overflow:visible;" width="4" height="4" xlink:href="E587E39.png"  transform="matrix(1 0 0 1 111.6765 -121.5614)">
				</image>
			</g>
		</g>
		<g class="st4">
			<g>
				
					<image style="overflow:visible;" width="7" height="8" xlink:href="E587E3B.png"  transform="matrix(1 0 0 1 126.6765 -145.5614)">
				</image>
			</g>
			<g>
				
					<image style="overflow:visible;" width="10" height="11" xlink:href="12CA3C48.png"  transform="matrix(1 0 0 1 128.6765 -144.5614)">
				</image>
			</g>
			<g>
				
					<image style="overflow:visible;" width="13" height="5" xlink:href="12CA3C4F.png"  transform="matrix(1 0 0 1 130.6765 -136.5614)">
				</image>
			</g>
			<g>
				
					<image style="overflow:visible;" width="9" height="9" xlink:href="12CA3C49.png"  transform="matrix(1 0 0 1 124.6765 -136.5614)">
				</image>
			</g>
		</g>
		<g>
			
				<image style="overflow:visible;" width="26" height="32" xlink:href="12CA3C4B.png"  transform="matrix(1 0 0 1 100.6765 -147.5614)">
			</image>
		</g>
		<g>
			
				<image style="overflow:visible;" width="31" height="27" xlink:href="12CA3C56.png"  transform="matrix(1 0 0 1 109.6765 -148.5614)">
			</image>
		</g>
	</g>
	<g class="st1">
		<g>
			
				<image style="overflow:visible;" width="7" height="8" xlink:href="12CA3C57.png"  transform="matrix(1 0 0 1 111.6765 -118.5614)">
			</image>
		</g>
		<g>
			
				<image style="overflow:visible;" width="12" height="7" xlink:href="12CA3C58.png"  transform="matrix(1 0 0 1 107.6765 -114.5614)">
			</image>
		</g>
		<g>
			
				<image style="overflow:visible;" width="5" height="12" xlink:href="12CA3C5B.png"  transform="matrix(1 0 0 1 107.6765 -111.5614)">
			</image>
		</g>
		<g>
			
				<image style="overflow:visible;" width="9" height="9" xlink:href="12CA3C59.png"  transform="matrix(1 0 0 1 101.6765 -115.5614)">
			</image>
		</g>
		<g>
			<g>
				
					<image style="overflow:visible;" width="2" height="2" xlink:href="12CA3C5F.png"  transform="matrix(1 0 0 1 105.6765 -115.5614)">
				</image>
			</g>
			<g>
				
					<image style="overflow:visible;" width="3" height="3" xlink:href="12CA3C73.png"  transform="matrix(1 0 0 1 104.6765 -115.5614)">
				</image>
			</g>
			<g>
				
					<image style="overflow:visible;" width="2" height="3" xlink:href="12CA3C7D.png"  transform="matrix(1 0 0 1 104.6765 -114.5614)">
				</image>
			</g>
			<g>
				
					<image style="overflow:visible;" width="3" height="3" xlink:href="12CA3C7F.png"  transform="matrix(1 0 0 1 103.6765 -115.5614)">
				</image>
			</g>
		</g>
		<g class="st4">
			<g>
				
					<image style="overflow:visible;" width="4" height="5" xlink:href="12CA3C72.png"  transform="matrix(1 0 0 1 116.6765 -112.5614)">
				</image>
			</g>
			<g>
				
					<image style="overflow:visible;" width="6" height="4" xlink:href="12CA3C71.png"  transform="matrix(1 0 0 1 114.6765 -110.5614)">
				</image>
			</g>
			<g>
				
					<image style="overflow:visible;" width="3" height="7" xlink:href="12CA3C75.png"  transform="matrix(1 0 0 1 113.6765 -109.5614)">
				</image>
			</g>
			<g>
				
					<image style="overflow:visible;" width="6" height="5" xlink:href="12CA3C77.png"  transform="matrix(1 0 0 1 110.6765 -111.5614)">
				</image>
			</g>
		</g>
		<g>
			
				<image style="overflow:visible;" width="15" height="17" xlink:href="12CA3C70.png"  transform="matrix(1 0 0 1 103.6765 -124.5614)">
			</image>
		</g>
		<g>
			
				<image style="overflow:visible;" width="17" height="15" xlink:href="12CA3C4E.png"  transform="matrix(1 0 0 1 105.6765 -118.5614)">
			</image>
		</g>
		<g>
			
				<image style="overflow:visible;" width="19" height="13" xlink:href="12CA3C6D.png"  transform="matrix(1 0 0 1 119.6765 -157.5614)">
			</image>
		</g>
		<g>
			
				<image style="overflow:visible;" width="18" height="17" xlink:href="12CA3C92.png"  transform="matrix(1 0 0 1 113.6765 -107.5614)">
			</image>
		</g>
	</g>
</g>
<g>
	<defs>
		<path id="SVGID_1_" d="M173,86.5c0,28.5,15.7,105.2-41.6,108.7c-15.6,1-28.8-11.1-37.6-22.5c-1.5-1.9-4.9,0.3-7.4,0.3
			C38.7,173,0,134.3,0,86.5S38.7,0,86.5,0S173,38.7,173,86.5z"/>
	</defs>
	<clipPath id="SVGID_00000132060592483146159970000015261570397780412808_">
		<use xlink:href="#SVGID_1_"  style="overflow:visible;"/>
	</clipPath>
	<g style="clip-path:url(#SVGID_00000132060592483146159970000015261570397780412808_);">
		<g class="st6">
			
				<linearGradient id="SVGID_00000143583934828137305550000006971863606151451306_" gradientUnits="userSpaceOnUse" x1="0.7861" y1="83.2655" x2="169.5349" y2="83.2655">
				<stop  offset="0" style="stop-color:#5F74B1"/>
				<stop  offset="0.2466" style="stop-color:#7A90D2"/>
				<stop  offset="0.4903" style="stop-color:#8FA6EB"/>
				<stop  offset="0.7125" style="stop-color:#9CB3FA"/>
				<stop  offset="0.8936" style="stop-color:#A0B7FF"/>
			</linearGradient>
			<circle style="fill:url(#SVGID_00000143583934828137305550000006971863606151451306_);" cx="85.2" cy="83.3" r="84.4"/>
		</g>
		<g>
			<g>
				<g>
					<path class="st0" d="M133.4,177.7c-6.5-1.3-15-9.2-20.9-16.8c-6.7-8.6-14.5-23.9-15.9-36.4c-1.4-12.6,7.5-141.9,7.6-155.3
						c0-13.4-17.4-40.8-35.5-44.3c-5.5-1.1-45.3-1.7-79.3-2.1L-43.4-9.3L58.4-10c0,0-12.2,27.1-7.9,49c4.3,21.9,24.2,86.8,24.2,90.8
						c0.1,4-9.5,20.7-0.6,26c8.9,5.3,12.6,4.4,20.3,10.8c6.3,5.3,9.6,13.4,20.4,14.8c7.3,0.9,13.1,1.1,16.9,1.5
						C135.5,183.2,139.9,179,133.4,177.7z"/>
				</g>
				<g class="st1">
					<path class="st2" d="M94.6-29.9c0.8-1.8-6.1-23.4-26-45.2c18.2,3.5,35.5,30.9,35.5,44.3c0,12.7-8.1,130.3-7.7,152.6
						C95,120.1,77.6,31.1,94.6-29.9z"/>
				</g>
				<path class="st0" d="M107.2,170.4c-3.4-3.8-5.8-8.2-10.6-10.4c-4.2-1.9-8.9-2.8-12.4-6.1c-3.1-3-4.6-8-3.7-12.2
					c0.8-4,4.1-6.9,7.1-9.4c1.1-1,2.3-1.9,3.3-3c-0.4-0.6-0.8-1.2-1.3-1.7c-2.5-3.3-5.6-6.2-7.8-9.7c-5.8-9.5-6.2-21.9-8.5-32.5
					c-2.2-10.3-6.5-20.8-4.6-31.5c2.1-11.9,9.3-22.4,9.2-34.8c-0.1-10-5.1-23.3-14.6-27.7c-2.3-1-3.1-3.8-2.1-6
					c2.6-5.9,8.4-9.1,12.2-13.9c-4-1-8.7,1.1-12.5,2.5c-6.4,2.4-12.5,4.3-19.3,4.9c-7.5,0.6-15.1-0.2-22.6-0.3
					c-7.3-0.1-14.7,0.1-22,0.6c-13.3,0.7-26.2,2.9-38.3,6.9l-2.2,4.5L58.4-10c0,0-12.2,27.1-7.9,49c4.3,21.9,24.2,86.8,24.2,90.8
					c0.1,4-9.5,20.7-0.6,26c8.9,5.3,12.6,4.4,20.3,10.8c6.3,5.3,9.6,13.4,20.4,14.8c7.3,0.9,13.1,1.1,16.9,1.5
					c1.7,0.2,3.5-0.6,4.4-1.5C125.7,179.6,114.6,178.6,107.2,170.4z"/>
			</g>
			<g>
				<path class="st8" d="M84,60.8c-0.1,0-0.3-0.1-0.4-0.1c1.3-0.9,1.5-1.9,1.9-2.9c0.8-0.1,1.3,0.2,2.2,0.1c-0.9,0-1.3-0.3-2.1-0.3
					c0.3-0.8,0.8-1.6,2.2-2.4c-3.6,1.7-1.6,3.9-5,5.5c-1.3,0.4-2.3,1.7-3.3,1.8c0,0,0,0-0.1,0c-0.9,0-1.3-0.7-2-0.8
					c-0.2,0-0.9,0.2-1.5,0.1c1.2-0.9,3.9-2.9,3.8-5.5l0,0c0.8-1.3,1.5-2.3,2.2-4.1c0.2-0.1,0.6-0.3,0.8-0.3c1.2-0.1,1.1,1.2,1.8,1.1
					c1-0.2,2-2.3,3.8-2.4c0.7-0.1,0.9,0.4,1.3,0.4c0.3-0.1,0.6-0.3,0.9-0.3c-0.3,0.1-0.7,0.4-1,0.3c-0.1,0-0.4-0.2-0.4-0.2
					c-1.5-0.8-3.3,1.2-3.8,1.7c-1.3,1.1-1-0.2-1.9-0.6c-0.6-0.3-1,0-1.3,0.1c1.6-4.4,0.9-7.9,5.1-10.1c1.9-1,1.9-0.4,2.9-2.3
					c0.3-0.3,0.5-0.2,0.7-0.6c-0.2,0.4-0.4,0.3-0.8,0.6c-1,1.9-1,1.3-2.9,2.3c-1.1,0.6-1.9,1.2-2.4,1.9c0.3-1.3,0.2-2.7,0.1-4.5
					c-0.1-2.8-0.1-3.6,1.1-4.3c-0.5,0.3-0.8,0.5-1,1c-0.6,1.7,0.3,5.3-0.4,7.9c-1.9,2.6-1.2,6.2-4.9,12c-0.3-2.5-1.7-5.8-2.6-9.7
					c1-2.2,1.5-3.8,1.9-5c1.3-0.7,1.3-0.2,2.9-0.4c-1.5,0.1-1.6-0.4-2.9,0.2c0.9-3.5-0.2-3.5,3.2-3.5c-4.6-0.1-1.3,0-5.3,8.2
					C74.6,35,78.8,33,81.6,28.5c-1.1,1.6-2.1,2.7-3,3.9c0.7-2.4-3.3-3.4-2.7-6.3c-0.6,2.9,3.6,4,2.6,6.5c-4.6,6.2-1.5,13.7,0.3,20.8
					c-2.1-0.6-3-1-4-3.1c1,2.2,1.9,2.6,4.1,3.4c0.2,0.7,0.3,1.3,0.4,1.9c0.6,3.8-4.4,5.5-6.1,7.8c-0.1-1.8-0.8-3.3-1.4-4.7
					c0.7-1,1.1-2,1.3-3.1c0.7-0.4,0.9-0.1,1.6-0.5c0.3-0.3,0.2-0.6,0.5-0.9c-0.4,0.3-0.3,0.5-0.6,0.8c-0.6,0.3-0.8,0.1-1.5,0.3
					c0.1-0.8,0.1-1.6,0.1-2.4c-0.1-3.1-0.7-2.8,0.1-4.1c-0.8,1.1-0.4,1-0.2,3.1c0.1,1.9,0.1,4.2-1.5,6.4c-0.8-1.7-1.6-3.3-1.5-5.3
					c0.1-2.1,0.1-4-0.1-5.7l0,0c-1.4-9.1,2.7-5.1,2.5-9.4c1.3-1.1,1.3-3.9,3.1-3.8c-1.7-0.2-1.9,2.5-3.1,3.7
					c-0.1-0.6-0.2-1.1-0.7-1.6c-1.1-1.2-2.2-1.5-2-5c-0.1,1-0.1,1.2,0.1,2.2c0.5,2.3,2.5,2.3,2.6,4.4c0,0,0,0,0,0l0,0
					c0.1,4-3.3,0.9-2.8,7.8c-0.4-1.4-1.2-2.8-2.6-4c4.4,4.2,2.4,9.5,2.8,13.1c-1-0.8-2.1-1.3-3.3-1.6c0.2-0.3,0.4-1,0.1-2
					c-0.6-1.6-1-1.1-0.7-2.9c-0.3,1.7,0.1,1.3,0.6,2.9c0.2,0.8,0.1,1.4-0.2,2c-0.9-0.2-1.9-0.3-3-0.3c-0.7,0-0.7,0.1-1.2-0.3
					c-0.4-0.4-0.5-0.4-0.7-0.5c0.2,0.1,0.2,0.1,0.3,0.2c0.3,0.2,0.5,0.6,0.8,0.7c0.7,0.1,4.5-0.2,7.2,2.5c0.5,2.2,1.9,4.4,2.4,6.5
					c-2.1-0.2-3.7,0.4-5.5-0.6c0,0-0.1-0.1-0.2-0.1c-0.5,0.1-0.7,0.2-1.1-0.3c-0.2-0.3-0.2-0.4-0.3-0.7c0,0.5,0.3,0.9,0.6,1.1
					c0.2,0.1,0.4,0.1,0.6,0c0.2,0,0.2,0,0.3,0c0.9,0.5,1.7,0.6,2.6,0.7c-0.5,0.4-0.5,1.4-0.5,2.2c0,0.5,0.2,1.3-0.5,2
					c-0.6,0.6-1.5,0.9-2.6,1.8c1.3-1,2.7-1.3,3.1-2.5c0,1.1,0.5,1.6,1,3c-0.5-1.4-1-2-0.9-3.2l0,0c0.2-1.1-0.2-2.8,0.7-3.2
					c0.9,0,1.7,0,2.7,0.2c0.1,0.7,0.2,1.8,0.2,1.6c0,0.6,0,0.3-0.1,1.1l0,0c-0.5,1.8,0.6,3.8,1.4,7l0.9-0.2c-1.5-5.4-3-6.4,0.7-9.3
					c0.7,0.4,1.6,0.1,2,0c0,0,0.1,0,0.1,0c0,0,0,0,0.1,0c0.3,0.1,1.3,1,2.3,0.7c1.3-0.3,2.5-2.3,4.1-2c3.8,0.9,3.6-0.7,7.5-1.5
					C87.6,60.3,87.6,61.8,84,60.8z"/>
				<path class="st9" d="M86.8,84.5c0.4-0.1,0.7,0.2,1.3,0.8c0.5,0.5,1.2,1.2,2.1,1.5l0.3-0.6c-0.9-0.4-1.2-0.7-1.7-1.2
					c-0.1-0.1-0.2-0.2-0.3-0.3c-1.1-1.2-1.7-1-2.4-0.6c-0.3,0.2-0.7,0.3-1.3,0.4c-1.2-0.9-2.3-1.9-2.9-2.4c-0.4-0.4-0.7-1.1-1-1.8
					c-0.3-0.7-0.7-1.6-1.2-2.3l0,0c-0.5-3.9-1.7-7.5-3.7-10.9c0.5,0.2,1.1,0.3,1.6,0.4c0.1,0,0.2,0,0.3,0.1c0.3,1.4,1.1,2.1,1.9,2.9
					c0.6,0.6,1.2,1.2,1.7,2.1l0.6-0.3c-0.5-1-1.1-1.7-1.6-2.4c-0.6-0.7-1.1-1.3-1.4-2.1c2.5,0.7,3.4,1.7,4.5,3.1
					c0.5,0.6,1,1.2,1.7,1.8l0.5-0.5c-0.6-0.7-1.1-1.3-1.5-1.8c0,0,0,0-0.1-0.1c0.2,0.1,0.4,0.1,0.6,0.2c1.2,0.4,2.3,0.8,3,1.6
					l0.6-0.4c-0.7-1-1.9-1.5-3.2-1.9c-0.7-0.2-1.4-0.5-2-0.8c-0.1-0.1-0.2-0.2-0.2-0.2c-1.5-1.4-3.2-1.8-4.7-2.2
					c-1.4-0.3-2.6-0.6-3.5-1.7c-1.7-2.4-3.6-4.4-5.3-6.2c-0.8-0.8-1.5-1.6-2.1-2.3c0.6,0.1,1.3,0.1,2,0.1c0.2,0,0.5,0,0.7,0
					c0.5,0.4,1.3,1.2,1.5,1.6c0.1,0.2,0.3,0.5,0.4,0.7c0.3,0.7,0.7,1.4,1.5,1.9c0.2,0.1,0.5,0.2,0.7,0.3c0.5,0.1,0.9,0.3,1.2,1
					l0.7-0.2c-0.2-0.8-0.8-1.3-1.6-1.5c-0.9-0.2-1.2-0.9-1.6-1.7c0.1,0,0.2,0,0.4,0.1c0.4,0.1,0.9,0.1,1.3,0.3
					c0.4,0.2,0.9,0.6,1,0.8l0.6-0.4c-0.6-1.2-1.9-1.4-2.8-1.6c-0.3-0.1-0.6-0.1-0.8-0.2c-0.2-0.1-0.3-0.2-0.5-0.5
					c-0.1-0.1-0.2-0.3-0.4-0.4c1.3,0.1,2.7,0.3,4.2,1.1c0.9,0.5,1.3,0.8,1.5,1c0.4,0.4,0.7,0.5,1.7,0.7c0.6,0.1,0.9,0.2,1.3,0.4
					l0.4-0.6c-0.5-0.4-1.1-0.5-1.5-0.6c-0.3-0.1-0.6-0.1-0.9-0.3c-0.1,0-0.3-0.2-0.4-0.4c-0.2-0.1-0.3-0.3-0.4-0.4
					c-2.8-2.2-6-2.3-8.3-2.4c-1.6-0.1-2.8-0.1-3.2-0.7l-0.2-0.4l0,0c-1.3-2.2-1.5-4.4,1.6-7.5c0.9-0.9,2.6-2.2,4.4-3.1
					c2.7-1.3,3.9-1.6,6.5-1.9l0.4,0l-0.3-2.3l-0.4,0.1c-4.6,0.7-8.2,2.3-11.5,5.3c-2.4,2.3-3.6,4.3-3.6,6.3c-0.1,2.8,2,5.1,4.8,8.2
					l0,0.1c1,1.2,1.1,2.5,1.1,3.7c0,0.6,0,1.3,0.2,1.8c0.2,0.8,0.9,1.2,1.5,1.5c0.6,0.3,1.2,0.7,1.4,1.4c0.2,0.9,0,2.1-0.2,2.9
					l0,0.1l0.7,0.2c1-3.7,0.1-4.5-1.2-5.4c-0.3-0.2-0.7-0.4-0.9-0.7c-0.2-0.3-0.2-1-0.2-1.7c0-0.4,0-0.7,0-1.2
					c2.4,2.6,4.8,5.6,6.5,9.4c0.2,1-0.5,1.8-1.4,2.7c-0.7,0.7-1.4,1.5-1.7,2.4c0,0.2-0.1,0.4-0.1,0.6c0,0.1,0,0.1,0,0.2
					c-0.3,4.1-0.9,5.4-2.5,7.2l0.5,0.5c2.3-2.2,2.5-4.8,2.7-6.7c0.1-0.9,0.2-1.7,0.4-2.1c0.3-0.5,0.8-1,1.3-1.5c0.5-0.5,1-1,1.4-1.7
					c1.6,4.1,2.2,8.4,1.8,13.4c-0.2,1.1-0.8,2.6-1.7,4.2c-1,0.2-1.6,0.6-2.2,1c-0.3,0.2-0.6,0.4-0.9,0.6c0,0,0,0,0,0
					c-0.2-0.3-0.3-0.4-0.6-0.5c-0.4-0.2-1.4-0.5-2.1-0.5l-0.1,0.7c1.2,0.2,1.7,0.4,2,0.6c-0.1,0-0.2,0.1-0.4,0.1
					c-0.6,0.2-1.4,0.4-2.3,1l0.4,0.6c0.7-0.5,1.3-0.6,1.8-0.8c0.4-0.1,0.7-0.2,1.2-0.4c0.6-0.3,1.1-0.6,1.5-0.8
					c0.3-0.2,0.6-0.4,0.9-0.5c-1.7,2.6-3.7,4.7-4.3,5.2l0.4,0.6c0.5-0.4,1.6-1.5,2.6-2.7c0.4,0.6,0.3,0.9-0.1,1.3
					c-0.4,0.4-0.4,0.8-0.4,1.2c0,0.3,0,0.6-0.1,0.8c-0.1,0.2-0.2,0.2-0.2,0.2c0,0,0,0,0,0l0.4,0.6c0,0,0.4-0.3,0.6-0.8
					c0.1-0.3,0.1-0.6,0.1-0.9c0-0.3,0-0.5,0.1-0.6c1-0.9,0.5-1.9,0.1-2.5c0.7-0.9,1.4-1.9,2-2.7l0.2,0l0-0.2c0.2-0.3,0.4-0.7,0.6-1
					c-0.9,5.5-2.7,10.7-4.3,14.7l0.7,0.3c2.9-6.9,4.6-13.2,5.1-18.8c0-0.2,0.1-0.5,0.1-0.7v0c0.1-1.7,0.1-3.3,0.1-4.8
					c0,0.1,0.1,0.1,0.1,0.2c0.4,0.9,0.8,1.7,1.9,2.7c1.7,1.5,3.1,2.5,4,3.2c0.3,0.2,0.5,0.4,0.7,0.6c0.1,1.2,0.6,1.9,0.9,2.3
					c0.1,0.1,0.1,0.2,0.2,0.2c0,0.1,0,0.2,0,0.3c-0.1,0.3-0.1,0.5,0,0.8l1,1.8l-0.1-0.9l0.1-0.1l0.3,0.2c-0.1,0.1-0.2,0.2-0.2,0.2
					c0,0,0,0,0,0c0,0,0,0-0.1,0c0,0,0.1,0,0.2,0l0.1,0c0.3,0,0.6-0.1,0.7-0.5c0.2-0.9,0-2.3-1-3.5C88.2,87,87,86,85.7,85
					c0.3-0.1,0.6-0.2,0.7-0.3C86.5,84.6,86.7,84.5,86.8,84.5z M88.4,90.8l-0.1-0.7c0-0.1,0-0.2,0.1-0.4c0.1-0.2,0.2-0.6-0.1-1
					c-0.4-0.5-0.6-0.9-0.7-1.2c0.6,0.5,0.9,0.9,1.1,1.5c0.3,0.6,0.3,1.5,0.2,1.7c0,0,0,0,0,0C88.6,90.7,88.5,90.8,88.4,90.8z"/>
				
					<linearGradient id="SVGID_00000049923862170248256130000010759697498959894685_" gradientUnits="userSpaceOnUse" x1="65.5109" y1="38.181" x2="74.0803" y2="38.181">
					<stop  offset="0" style="stop-color:#9C5452"/>
					<stop  offset="8.167778e-02" style="stop-color:#D69E93"/>
					<stop  offset="0.145" style="stop-color:#FFD3C1"/>
					<stop  offset="0.1472" style="stop-color:#FDD0BE"/>
					<stop  offset="0.183" style="stop-color:#DAA498"/>
					<stop  offset="0.2176" style="stop-color:#BF8179"/>
					<stop  offset="0.2501" style="stop-color:#AC6864"/>
					<stop  offset="0.2798" style="stop-color:#A05957"/>
					<stop  offset="0.3039" style="stop-color:#9C5452"/>
					<stop  offset="0.3816" style="stop-color:#D69E93"/>
					<stop  offset="0.4419" style="stop-color:#FFD3C1"/>
					<stop  offset="0.4433" style="stop-color:#FDD0BE"/>
					<stop  offset="0.4666" style="stop-color:#DAA498"/>
					<stop  offset="0.4891" style="stop-color:#BF8179"/>
					<stop  offset="0.5103" style="stop-color:#AC6864"/>
					<stop  offset="0.5295" style="stop-color:#A05957"/>
					<stop  offset="0.5453" style="stop-color:#9C5452"/>
					<stop  offset="0.6255" style="stop-color:#D69E93"/>
					<stop  offset="0.6877" style="stop-color:#FFD3C1"/>
					<stop  offset="0.6896" style="stop-color:#FDD0BE"/>
					<stop  offset="0.721" style="stop-color:#DAA498"/>
					<stop  offset="0.7513" style="stop-color:#BF8179"/>
					<stop  offset="0.7797" style="stop-color:#AC6864"/>
					<stop  offset="0.8057" style="stop-color:#A05957"/>
					<stop  offset="0.8268" style="stop-color:#9C5452"/>
					<stop  offset="0.8617" style="stop-color:#D69E93"/>
					<stop  offset="0.8888" style="stop-color:#FFD3C1"/>
					<stop  offset="0.8903" style="stop-color:#FDD0BE"/>
					<stop  offset="0.9154" style="stop-color:#DAA498"/>
					<stop  offset="0.9396" style="stop-color:#BF8179"/>
					<stop  offset="0.9624" style="stop-color:#AC6864"/>
					<stop  offset="0.9831" style="stop-color:#A05957"/>
					<stop  offset="1" style="stop-color:#9C5452"/>
				</linearGradient>
				<path style="opacity:0.61;fill:url(#SVGID_00000049923862170248256130000010759697498959894685_);" d="M72.1,64.2
					c0.4-0.7,0.6-1.7,0.2-2.4c-0.8-1.3-2.5,0.8-4.1-0.4c-0.7-0.5-0.7-1.2-0.3-1.7c0.7-0.8,2-0.3,3.3-0.3c1.8,0.1,1.8-1.2,1.2-1.8
					c-0.8-0.9-2.4,0.5-3.7-0.7c-0.5-0.5-0.6-1.3,0.1-1.7c0.9-0.6,2.7-0.5,3.1-1.7c0,0,0,0,0,0c0.3-1.5-3.4-1.9-4.3-1.8
					c-1,0.1-1.6-0.2-1.8-1.5c-0.1-0.5-0.1-0.9,0.1-1.3c0.6-1.1,2.5-1.1,3.6-0.9c2,0.2,2.5,1.2,3.5,1c0.9-0.1,0.5-1.6,0.4-1.9
					c-0.8-1.9-6.3,0.8-7.7,0c-0.6-0.4-0.3-1.8,0.4-2.3c1.5-1.1,4.8,0.3,4.9-1.4c0.1-1.2-2.4-0.7-2.8-1.7c-0.6-1.6,3-1,4.6-1.6
					c1-0.4,1.2-1.3,0.6-1.8c-1.1-0.9-2.6,0.5-4.8,0.1c-1.4-0.3-1.3-1.4-1-2c0.8-1.4,4.1-1.4,4-2.1c-0.1-0.1-0.3-0.3-0.3-0.4
					c-2.2-2.1-1.8-2.1-1-3.2c3.4-4.7-0.4-5.1-1.6-6.4c-0.5-0.5-0.6-1.1-0.6-1.7c0.1-2.8,5.5,1.3,3.8-6.3c-0.4-1.6-0.8-3.2,0.2-4.7
					c-1.4,2.2,0.3,4.5,0.2,7.2c-0.1,4.3-3.9,1.4-4,3.8c-0.1,1.6,1.1,2.1,2.1,2.7c2.2,1.4,1.6,3.3,0.1,5.5c-0.8,1.1-1.1,1.1,1,3
					c1.6,1.5-2.7,1.2-3.6,2.7c-0.2,0.4-0.4,1.5,0.9,1.7c2.1,0.4,3.7-1.1,4.9-0.1c0.4,0.3,0.4,0.6,0.4,0.9c-0.2,2.5-6.1,0.9-5.5,2.5
					c0.2,0.7,2.5,0.3,2.8,1.4c0.1,0.3,0.1,1-0.5,1.3c-1.3,0.7-4.7-0.6-5,1.7c-0.1,0.6-0.2,1,1.6,0.8c2-0.3,5.5-1.6,6.3,0.1
					c0.2,0.5,0.4,1.6,0,2.1c-0.4,0.6-1.3,0.5-2,0.2c-0.6-0.3-1.2-0.6-2.3-0.7c-0.8-0.1-2.7-0.2-3.2,0.7c-0.2,0.3-0.1,0.7-0.1,1.1
					c0.1,1.1,0.6,1.2,1.3,1.1c1-0.1,5.5,0.2,4.8,2.4c-0.1,0.4-0.4,0.7-0.8,1c-1,0.6-2.6,0.7-2.7,1.2c-0.1,0.4,0.3,1,1.2,1
					c0.3,0,1-0.1,1.4-0.2c1.3-0.1,1.9,1.1,1.7,2c-0.3,1.5-2.3,1.2-3.7,1c-1.6-0.2-1.4,0.7-0.9,1c1,0.7,2-0.2,3.1-0.2
					c1.1,0,2.2,1.4,1.1,3.7L72.1,64.2z"/>
				
					<linearGradient id="SVGID_00000075884969306517594200000016629736537432885945_" gradientUnits="userSpaceOnUse" x1="61.0262" y1="60.8903" x2="88.7783" y2="60.8903">
					<stop  offset="0" style="stop-color:#9C5452"/>
					<stop  offset="8.167778e-02" style="stop-color:#D69E93"/>
					<stop  offset="0.145" style="stop-color:#FFD3C1"/>
					<stop  offset="0.1472" style="stop-color:#FDD0BE"/>
					<stop  offset="0.183" style="stop-color:#DAA498"/>
					<stop  offset="0.2176" style="stop-color:#BF8179"/>
					<stop  offset="0.2501" style="stop-color:#AC6864"/>
					<stop  offset="0.2798" style="stop-color:#A05957"/>
					<stop  offset="0.3039" style="stop-color:#9C5452"/>
					<stop  offset="0.3816" style="stop-color:#D69E93"/>
					<stop  offset="0.4419" style="stop-color:#FFD3C1"/>
					<stop  offset="0.4433" style="stop-color:#FDD0BE"/>
					<stop  offset="0.4666" style="stop-color:#DAA498"/>
					<stop  offset="0.4891" style="stop-color:#BF8179"/>
					<stop  offset="0.5103" style="stop-color:#AC6864"/>
					<stop  offset="0.5295" style="stop-color:#A05957"/>
					<stop  offset="0.5453" style="stop-color:#9C5452"/>
					<stop  offset="0.6255" style="stop-color:#D69E93"/>
					<stop  offset="0.6877" style="stop-color:#FFD3C1"/>
					<stop  offset="0.6896" style="stop-color:#FDD0BE"/>
					<stop  offset="0.721" style="stop-color:#DAA498"/>
					<stop  offset="0.7513" style="stop-color:#BF8179"/>
					<stop  offset="0.7797" style="stop-color:#AC6864"/>
					<stop  offset="0.8057" style="stop-color:#A05957"/>
					<stop  offset="0.8268" style="stop-color:#9C5452"/>
					<stop  offset="0.8617" style="stop-color:#D69E93"/>
					<stop  offset="0.8888" style="stop-color:#FFD3C1"/>
					<stop  offset="0.8903" style="stop-color:#FDD0BE"/>
					<stop  offset="0.9154" style="stop-color:#DAA498"/>
					<stop  offset="0.9396" style="stop-color:#BF8179"/>
					<stop  offset="0.9624" style="stop-color:#AC6864"/>
					<stop  offset="0.9831" style="stop-color:#A05957"/>
					<stop  offset="1" style="stop-color:#9C5452"/>
				</linearGradient>
				<path style="opacity:0.61;fill:url(#SVGID_00000075884969306517594200000016629736537432885945_);" d="M88,68.7
					c-0.8-0.2-0.9-0.4-1.6-0.4c0.1-1.7-0.1-1.7-0.5-2.3c0.3,0.1,0.7,0.1,1,0.1c1.1-0.1,0.7-0.5,2,0.1c-1.1-0.5-0.9-0.3-1.6-0.2
					c-0.4,0.1-1.3,0.1-1.5-0.2c-0.3-1.7-1.5-2.3-2-3.6c-0.3-0.6-0.2-1.3-0.6-1.4c-1.3-0.3-0.6,0-3.1,1.2c0,0,0,0,0,0l0,0
					c-0.9,0.4-1.9,0.7-2.9,0.7c-0.9,0.1-1,1.4-1.9,1.5c-0.4-0.2-0.9-0.6-1.5-0.8c0.4-0.2,0.7-0.4,1.1-0.8c0.7-0.7,1.6-2.2,1.6-2.3
					c0.5-0.6,3.1,0.7,3-2.3c0-0.8-0.2-1.9,0.4-2.3c0.5-0.4,1.1-0.2,1.9-0.3c0.8-0.1,1.2-0.9,3.6,0.8c0,0,0.1,0.2,0.2,0.3
					c0.5,0.6-0.7,0.7-0.7,2c0.1-1.4,1.3-1.3,0.7-2.2c0.3,0.2,0.5,0.4,0.7,0.5c0.2,0.1,0.5,0,0.7-0.3c0.1-0.2,0.1-0.3,0.1-0.6
					c-0.1-0.5,0.4-0.8,0.9-0.7c-0.5-0.1-1,0.2-0.9,0.7c0,0.2,0,0.3-0.1,0.5c-0.1,0.2-0.3,0.3-0.5,0.3c-0.2,0-0.3-0.1-1-0.6
					c0,0,0,0,0,0l0,0c-2.3-1.7-2.8-0.9-3.6-0.8c-0.7,0.1-1.6-0.2-2.1,0.4c0.1-0.7,0-1.2,0.1-2c0.1-1.3,0.1-0.9,0.5-1.8
					c0.1-0.3,0.2-0.5,0.1-0.8c0,0.7-0.3,1-0.5,1.6c-0.3,0.8-0.1,2.2-0.4,3.7l0,0c-0.1,0.6,0,1.6,0,2.1c-0.2,2.2-2.3,0.8-3,1.7
					c-0.9,1.3-1.5,2.4-3,3.1c0-1.4,1.7-1.8,1.9-3.1c0.3-1.5-1.4-3.4-1.7-4.9l0,0c-0.4-2.2,2.4-1.3,2.5-2.8c0-1-0.7-1.6-0.3-2.6
					c0.3-0.8,1.1-1.7,1.1-2.7c0,1.4-1.4,2.4-1.3,3.4c0,0.5,0.3,1,0.4,1.5c0.3,1.8-2.1,0.8-2.5,2.5c-0.3-0.8-1-1.4-1.7-1.9
					c-0.4-0.5-0.6-0.8-0.7-1l0,0c0.1-0.6,0.7-0.2,1-0.6c-0.3,0.5-0.8,0.1-1,0.6c-0.3-0.7,0.3-0.5,0.3-1.5c-0.1,1.3-1.1,0.6,0.2,2.4
					c-0.9-0.5-2.2-1-2.6-0.6c0.7-0.5,2.1,0.4,2.8,0.8c1.1,0.9,1.4,1.4,1.6,2.3c0.1,1.6,1.5,2.8,1.6,4.6c0,1.2-1.2,1.6-1.7,2.5
					c-0.3-1.7-0.8-3.2-2.4-3.7c-0.4-0.8,0.2-0.7,0.3-1.2c-0.2,0.4-0.8,0.4-0.4,1.2c1.7,0.6,2,2.4,2.2,4.4c-0.8-1-1.3-2.3-3.1-1.6
					c-1.3,0.5-1.4,1.2-3.1,1c-0.6-0.1-0.9-0.3-1.1-0.9c-0.3-1.4,0.2-2.7,1.5-3.6l0,0c0.2-0.1,0.4-0.4,0.4-0.7
					c-0.2-0.8-1.3-0.6-1.8-0.9c-1.4-0.9-1.8-1.1-3.2-1.1c1.2,0,1.6,0,3.2,1.1l0,0c0.3,0.3,1.6,0.2,1.7,0.8c0.1,0.2-0.1,0.5-0.3,0.7
					c-0.5,0.2-2,1.6-1.6,3.8c0.1,0.8,0.6,1.1,1.3,1.1c0.9,0.1,1.3,0,1.7-0.2c0.7-0.3,1.4-0.9,2.3-0.9c1,0,1.3,1.1,2,1.9
					c-2.7,0.8-1,3.4-5,1.9c-0.6-0.2-1.5-0.5-2-0.2c-0.1,0.1-0.3,0.2-0.4,0.4c-1.6,0.1-2-0.3-3.2,0.2c1.2-0.4,1.6,0,3.2-0.1
					c-0.5,0.8-0.8,2.2-2.6,2.4c0.1,0.3-0.1,0.7-0.6,0.7C61.5,69,61.7,69.7,61,69c0.7,0.7,0.5,0,0.8-0.2c0.5,0,0.7-0.5,0.7-0.7
					c2-0.2,2.2-1.8,2.8-2.6c0.7-1,2.4,0.4,3.7,0.5c-0.6,0.5-0.4,1-0.4,1.3c-0.7,0.3-1.6,1.2-2.1,1.7c0.6-0.5,1.5-1.4,2.3-1.6
					c0-0.3,0-0.3,0-0.5c0,0,0.1-0.5,0.6-0.8c2,0,1.3-1.7,3.3-2.2c-1.3,3.9,1.5,3.8,0.6,5.5c-0.6,1.1-2.6,1-3.1,1.8
					c0,0.2,0,0.3,0.1,0.5c0.2,0.2,0.5,0.2-0.2,0.9c-0.6,0.5-1.9,0.1-2,0.9c0,0.4,0.5,0.8,0.7,1.2c-0.1-0.3-0.3-0.5-0.5-0.8
					c-0.2-0.3-0.1-0.7,0.1-0.8c0.6-0.4,1.6,0.1,2.2-1c0.3-0.5-0.4-0.5-0.3-0.9c0.6-0.9,3.2-0.4,3.4-2.6c0.1-1.1-1.7-1.2-0.7-4.5
					c0.8,1.2,3.7,3,4,3.5c0,1-0.9,1.1-0.6,2c0.1,0.8,0.1,1.3-0.6,2.6c0,0.1-0.1,0.2-0.1,0.3c0,0.6-0.2,0.2-0.6,0.8
					c0.4-0.5,0.6-0.2,0.6-0.7c0-0.4,0.9-1.1,0.8-2.6c0.6,0.8,2.2,1.2,2.2,2.2c-0.1,0.8-1.1,1.5-1.1,2.5c0.1-0.9,1.1-1.7,1.2-2.5
					c0.9,2.1,0.8,1.9,1.9,2.3c-1.1-0.4-1-0.2-1.9-2.5c-0.1-0.9-1.4-1.3-2-2c-0.8-0.9,0.5-1,0.5-2.3c0,0,0,0,0-0.1
					c-0.2-0.4-3.8-2.8-4-3.8c0.8,0.1,1.5,0.6,1.8,0.8c0.1,0,0.1,0,0.2,0c1.1-0.1,1.2-1.4,1.9-1.5c1.1,0,2.1-0.4,3-0.8
					c0.5,0,0.8,0.2,1,0.4c0.3,0.3,0.3,0.6,0.2,1.2c0,0.9,0.4,0.5,0.4,1.1c0,0.6-0.4,0.5-0.7,0.8c-0.5,0.5,0.2,1.5,0.1,2.1
					c0,0.2-0.1,0.4-0.2,0.6c0,0,0,0,0,0.1c0.1,0.1,0.3,0.3,0.4,0.4c-0.4-0.4-0.4-0.4-0.3-0.6c0.5-1-0.1-1.4-0.1-2.2
					c0.2,0.7,0.6,1,1.3,1.4c-1-0.6-1.1-1-1.2-1.6c0.2-0.6,0.9-0.2,0.9-1.1c0-0.1,0-0.3-0.1-0.4c-0.1-0.1-0.1-0.1-0.1-0.1
					c-0.3-0.5,0.5-1.9-1.2-2.3c0.8-0.4,1.5-0.9,1.8-1.1c0.2-0.1,0.5,0.1,0.8,0.1c0.2,0,0.3,0.5,0.4,0.9c0.5,1.4,1.9,2.1,2.3,3.9
					c0,0,0,0,0,0l0,0c0.5,0.9,0.7,0.6,0.7,2.6c0,2.3,0.4,2.1,0.7,2.4c-0.2-0.2-0.4-0.2-0.5-0.5c-0.2-0.5-0.2-1.3-0.2-2
					C87.1,68.3,87.2,68.5,88,68.7z M77,67.6C77,67.6,77,67.6,77,67.6L77,67.6z"/>
				
					<linearGradient id="SVGID_00000029024399731989116190000017349606660844207015_" gradientUnits="userSpaceOnUse" x1="66.0708" y1="74.5043" x2="87.7785" y2="74.5043">
					<stop  offset="0" style="stop-color:#9C5452"/>
					<stop  offset="8.167778e-02" style="stop-color:#D69E93"/>
					<stop  offset="0.145" style="stop-color:#FFD3C1"/>
					<stop  offset="0.1472" style="stop-color:#FDD0BE"/>
					<stop  offset="0.183" style="stop-color:#DAA498"/>
					<stop  offset="0.2176" style="stop-color:#BF8179"/>
					<stop  offset="0.2501" style="stop-color:#AC6864"/>
					<stop  offset="0.2798" style="stop-color:#A05957"/>
					<stop  offset="0.3039" style="stop-color:#9C5452"/>
					<stop  offset="0.3816" style="stop-color:#D69E93"/>
					<stop  offset="0.4419" style="stop-color:#FFD3C1"/>
					<stop  offset="0.4433" style="stop-color:#FDD0BE"/>
					<stop  offset="0.4666" style="stop-color:#DAA498"/>
					<stop  offset="0.4891" style="stop-color:#BF8179"/>
					<stop  offset="0.5103" style="stop-color:#AC6864"/>
					<stop  offset="0.5295" style="stop-color:#A05957"/>
					<stop  offset="0.5453" style="stop-color:#9C5452"/>
					<stop  offset="0.6255" style="stop-color:#D69E93"/>
					<stop  offset="0.6877" style="stop-color:#FFD3C1"/>
					<stop  offset="0.6896" style="stop-color:#FDD0BE"/>
					<stop  offset="0.721" style="stop-color:#DAA498"/>
					<stop  offset="0.7513" style="stop-color:#BF8179"/>
					<stop  offset="0.7797" style="stop-color:#AC6864"/>
					<stop  offset="0.8057" style="stop-color:#A05957"/>
					<stop  offset="0.8268" style="stop-color:#9C5452"/>
					<stop  offset="0.8617" style="stop-color:#D69E93"/>
					<stop  offset="0.8888" style="stop-color:#FFD3C1"/>
					<stop  offset="0.8903" style="stop-color:#FDD0BE"/>
					<stop  offset="0.9154" style="stop-color:#DAA498"/>
					<stop  offset="0.9396" style="stop-color:#BF8179"/>
					<stop  offset="0.9624" style="stop-color:#AC6864"/>
					<stop  offset="0.9831" style="stop-color:#A05957"/>
					<stop  offset="1" style="stop-color:#9C5452"/>
				</linearGradient>
				<path style="opacity:0.61;fill:url(#SVGID_00000029024399731989116190000017349606660844207015_);" d="M66.8,77.4L66.8,77.4
					c0-0.7,0-1.5,0.6-1.7c0,0,0.1,0,0.1,0c0.2,0.1,0.4,0.2,0.6,0.2c0.6-0.1,0.6-1.3,1-1.7c0.4,0.9,2,0.4,1.1,2.1
					c-0.5,0.9-1.1,1.5-0.8,2c0.3,0.5,1.2,1,1,2c-0.2,1.1-1.9,1.7-1.6,2.6c0,0.1,0,0-0.1,0.1c-0.3,0.3-0.6,0-1.7,0.4
					c0.5-0.1,0.8-0.2,1.1-0.2c0.2,0.4-0.4,1.1-0.6,1.2c0.1-0.1,0.3-0.3,0.5-0.5c0.2-0.4,0.2-0.5,0.1-0.6c0.4,0,0.6,0,0.7-0.3
					c0.3,1.1,0.3,1.8,0.1,3.2c0.2-1.2,0.3-2,0-3c-0.1-0.2-0.1-0.4,0-0.7c0.2-0.6,1-1,1.4-1.6c0.7-1.1-0.1-1.9-0.5-2.2
					c-0.4-0.4-0.4-0.5-0.1-1.1c0.3-0.6,1.1-1.5,1-2.1c0.4,0.4,0.7,0.8,1.2,0.7c0.5-0.1,1.7-0.6,1.9,0.1c0,0,0,0.1,0,0.1l0,0
					c-0.3,0.6-0.3,1.1-0.2,1.6c-0.2,0.4-0.1,0.3-0.3,0.7c0,0.1-0.1,0.2-0.1,0.2c0,0-0.2-0.1-0.4-0.1c-0.3-0.1-0.4,0-0.9,0.2
					c0.6-0.2,0.6-0.3,1.2-0.1c0.2,0.6,0.2,0.7,0.1,1.3c0.1-0.6,0-0.7-0.1-1.3c0,0,0,0,0,0c0.1,0,0.2-0.2,0.5-0.8
					c0.1,0.5,0.3,1.1,0.2,1.7c-0.4,0.9-1.2,1.2-1.1,2.3c-0.1-0.8,0.4-1.2,0.8-1.7c0.7,0.1,0.8,0.6,1.2,1.2c-0.4-0.6-0.4-1.1-1.2-1.2
					c0.1-0.1,0.2-0.3,0.3-0.5c0.1-0.7-0.1-1.2-0.2-1.8c0,0,0,0,0,0l0,0c-0.1-0.5-0.1-1,0.2-1.6c0.1-0.2-0.1-0.6-0.7-0.6
					c0.1-0.2,0.3-0.2,0.2-0.8c0-0.3-0.1-0.4-0.1-0.6c-0.1,0.4,0.2,0.8-0.1,1.1c-0.1,0.1-0.1,0.1-0.2,0.2c-0.3,0-0.7,0.1-0.9,0.2
					c-0.3,0.1-0.3,0.1-0.3,0.1c-0.6,0-0.7-0.5-1.2-0.9c-0.3-0.5-1.4-0.6-1.3-1.2c0-0.2,0.2-0.4,0.2-0.7c0,0,0,0,0,0
					c-0.2-0.7-0.9-2.2,0.3-2.6c0.2-0.1,1.4,1.1,2.4,1.8c0,0.1-0.1,0.2-0.2,0.2c-0.3,0.1-0.4,0-0.6-0.1c-0.3-0.2-0.6,0.3-1,0.4
					c0.2,0,0.3-0.1,0.5-0.2c0.5-0.2,0.4-0.2,0.7,0c0.2,0.1,0.6,0.1,0.8-0.2c1.1,0.7,2.2,1.1,3.2,0.4c0,0.2,0,0.3,0,0.4
					c0.7,2.4,2.4,1.2,3,1.6c0.2,0.1,0.4,0.7,0.2,1.2c-0.4,0.7-1.6,1.1-1.4,2c0,0.2,0.1,0.3,0.2,0.4l0,0c0.1,0.4,0,0.8-0.1,0.9
					c-0.5-0.2-1.8,0.2-2,0.9c-0.2,0.7,0.7,1.4,0.5,1.9c-0.1,0.6-2.3,0.3-2.1,1.9c-0.2-1.5,1.8-1.3,2.1-1.8c0.3-0.5-0.6-1.2-0.5-2
					c0.2-0.7,1.5-1,1.9-0.8c0.2-0.1,0.3-0.4,0.3-0.9c0.3,0.2,0.7,0.1,1.2,0.1c1.4-0.1,1,0.9,1.3,1.9c-0.9,0.8,0.1,1.3-0.9,2
					c1-0.7,0-1.3,0.9-2c0.1,0.4,0.3,0.8,0.6,1.3c0.2,0.3,0.3,0.3,0.2,0.6c0-0.1,0.1-0.3,0-0.4c-1-1.3-0.8-2.2-0.9-2.9
					c0.3,0.1,0.1,0.4,0.7,0.4c0.5,0,0.6-0.3,0.7,0c0.1,0.1,0.2,0,0.3-0.1c-0.1,0-0.2,0.1-0.3,0c-0.1-0.2-0.2-0.2-0.3-0.1
					c-0.2,0.1-0.7,0.1-0.8,0c-0.1-0.2-0.2-0.3-0.3-0.3c-0.1-0.3-0.2-0.4-0.4-0.5c0.1-0.2,0.2-0.4,0.4-0.5c0.6-0.2,0.2,0.4,1,0.2
					c1-0.4-0.2-0.6,1-2.3c-0.3,0.4-0.5,0.8-0.6,1.2c-0.1,0.5,0.1,0.7-0.3,0.9c-0.5-0.2,0.1-0.8-0.2-1.4c-0.1-0.2,0-0.4-0.2-0.5
					c0,0,0,0,0,0.1c0,0.1,0,0.2,0.1,0.3c0,0.3,0.2,0.2,0.1,1c0,0.2-0.1,0.5,0.2,0.6c-0.8,0.4-0.4-0.4-1.1-0.2
					c-0.2,0.1-0.3,0.3-0.5,0.5c-0.7-0.3-1.6,0.2-1.9-0.3c-0.8-1.4,2-1.5,1.3-3.3c-0.1-0.3-0.3-0.5-0.5-0.5c0.2-0.3,0.1-0.5,0.4-0.7
					c0.1,0,0.2-0.1,0.3-0.1c0,0,0,0,0,0c0,0,0,0,0,0c0-0.1,0.1-0.2,0.1-0.3c0.1-0.1,0.1,0,0.3-0.1c-0.2,0-0.2,0-0.3,0.1
					c0,0.1-0.1,0.2-0.1,0.3c0,0-0.1,0-0.2,0c-0.4,0.1-0.3,0.4-0.6,0.7c-0.7,0-1.8,0.4-2.4-1.2c-0.2-0.5,0-1-0.2-1.3
					c-0.4-1,0.2-1.5,0-2.2c-0.1-0.3-0.4-0.7-0.6-1.2c0.8,0.2,0.8-0.5,1.3-0.6c0.3,0,0.6,0,1,0.1c-0.1,0.2-0.2,0.5-0.2,0.7
					c-0.1,0.1-0.2,0.3-0.3,0.3c-0.3,0.1-0.4,0-0.5,0.2c0,0.1-0.1,0.1-0.1,0.2c0.1-0.1,0.1-0.2,0.2-0.2c0.1-0.1,0.3-0.1,0.5-0.1
					c0.1,0,0.2-0.1,0.3-0.2c0.1,0.7,0.4,1.2,0.1,1.4c-0.1,0.1-0.3,0.1-0.4,0.2c0,0,0,0,0.1-0.1c0.4-0.2,0.6,0,0.4-1.1
					c-0.1-0.5-0.1-0.9,0.2-1.3c0.3,0.1,0.7,0.2,0.9,0.4c0.6,0.3,0.6,0.6,0.4,1c-0.5,1.2-1.7,1.7,1,2.9c1.4,0.6,2.9,1.2,3.4,2.1
					c0.1,0.1,0.1,0.3,0.1,0.3c0,0.2,0,0.4,0,0.8c0.1,0.8,1.2,2.2-0.1,3.1c0.9-0.6,0.7-1.3,0.4-2.3c0.5,0.7,1.4,1,1.6,1.4
					c0,0,0.1,0.1,0.1,0.2c-0.3,0.5,0.3,1.1-0.3,1.6c0.6-0.4,0-1.1,0.3-1.5c0.2,0.8,0.3,0.7,0.5,1c0.1,0.1,0.2,0.4,0.2,0.6
					c-0.1-0.8-0.5-0.5-0.7-1.6c-0.1-0.3,0-0.4-0.4-0.6c-0.4-0.3-1-0.6-1.4-1.2c-0.4-0.6-0.2-1.2-0.2-1.5c0.6-0.1,1,0.1,1.4-0.3
					c0.3-0.3,0.6-0.8,0.8-0.8c0.2,0.1,0.2,0.1,0.7,0.2c0.3,0,0.8-0.1,1.3-0.3c-0.9,0.2-1.2,0.4-1.8,0c-0.1,0-0.1-0.1-0.2-0.1
					c0.1-0.3,0-0.5-0.1-0.8c-0.2-0.5-0.1-0.5,0.1-0.8c-0.2,0.3-0.3,0.3-0.2,0.7c0.1,0.4,0.4,0.6,0.1,1l0,0c-0.3,0.2-0.5,0.7-0.9,0.8
					c0,0-0.1,0.1-0.1,0.1c-0.4,0.1-0.6,0-1.1,0.1c-0.3-0.9-1.7-1.6-3.1-2.2c0.1-0.7-0.5-1.2-0.3-1.5c0.1-0.1,0.2-0.1,0.3-0.4
					c-0.1,0.3-0.3,0.2-0.4,0.5c0,0.3,0.3,0.7,0.2,1.3c-2.2-1.1-2-1.3-1.5-2.1c0.3-0.5,0.7-1,0.4-1.5c-0.4-0.8-2.1-1.2-2.9-1.2
					c-0.6,0-0.8,0.5-1,0.6c-0.8,0.1-1.2-1.3-1.2-1.1c-0.2-0.7-0.3-1.6-0.4-2.2c1.1,0.2,1.5-0.6,2.4,0.1c0.6,0.3,1,0.3,1.4,0.1
					c0.1,0.3,0.3,0.5,0.4,0.7c0,0.9,0.1,0.2,0,1.4c0.2-1.1,0-0.6,0.1-1.3c0.3,0.3,0.7,0.6,0.9,1.1c-0.3-0.9-1-1.1-1.2-1.9
					c0.6-0.2,0.9,0.2,1.6,0.2c-0.6-0.1-1-0.5-1.5-0.4c-0.5,0.1-0.9,0.1-1.4-0.2c-0.3-0.3-0.6-0.4-0.9-0.4c0.3-0.5,0.2-0.9,0.8-1.2
					l0,0c0.2-0.1,0.1-0.4,0.2-0.6c0,0.1-0.1,0.2-0.1,0.3c0,0.1,0,0.2-0.1,0.2c-0.6,0.3-0.6,0.8-1,1.2c-0.5,0.1-0.9,0.3-1.5,0
					c-0.2-0.6-0.9-0.7-1.2-1.2c-0.1-0.1-0.1-0.3-0.1-0.2c0-0.2,0,0,0-0.2L71.8,63c0.3,1.2,1.2,1.3,1.4,1.7c0.1,0.3,0.1,0.8,0.2,1.2
					c-0.4,0.7-0.7,1.3-1,2.2c-0.1,0.2-0.3,0.3-0.4,0.2c0,0,0,0,0,0c-0.1-0.1-0.2-0.3-0.4-0.4c-0.2-0.2-0.6-0.1-0.8,0.1
					c-0.1,0.1-0.1,0.2-0.2,0.3c0,0.1,0,0.1-0.1,0.1c-0.4,0.1-0.5,0-0.6-0.2c-0.1-0.4-0.2-0.6-0.4-0.8c0-0.5,0.1-0.5,0.6-1
					c-0.5,0.5-0.6,0.4-0.6,1c-0.4-0.4-0.3-0.4-0.3-0.5c0-0.2-0.1-0.2-0.1-0.5c0,0.2,0.1,0.3,0.1,0.5c0,0.1-0.1,0.1,0.2,0.5
					c0.2,0.3,0.4,0.4,0.4,0.7c-0.1-0.1-0.2-0.1-0.4-0.2c-0.3,0-1.3,0.2-1.5,0.9c0.2-0.8,1.5-1,1.8-0.8c0.2,0.2,0.2,0.5,0.8,0.4
					c0.2,0,0.2-0.3,0.4-0.5c0.1-0.2,0.4-0.2,0.6-0.1c0.1,0.1,0.3,0.3,0.4,0.4c0.2,0.2,0.5,0.1,0.7-0.1c0.1-0.1,0.1-0.2,0.2-0.4
					c0.3-0.8,0.5-1.2,0.8-1.7c0.1,0.4,0.2,0.7,0.2,0.9c0.3,0.9,1.3,2,1.6,2.8c0.2,0.5-0.4,1.2,0,2.2c0,0.1,0.1,0.2,0.1,0.2
					c0,0.2-0.9,0.5-0.7,0.4c0,0-0.1,0-0.1,0c-0.1-0.5-0.5-0.7-0.9-1.2c-0.4-0.8,0.2-0.9-0.7-1.2c0.6,0.2,0.5,0.3,0.4,0.7
					c0,0.7,0.5,1,0.8,1.6c0,0,0,0.1,0,0.1c-1.8,0-4.1-2.9-4.6-2.6c-1.5,0.6-0.5,2.5-0.4,2.9c0,0.2-0.2,0.5-0.2,0.8
					c-0.6,0.5-0.5,1.3-0.8,1.6c-0.3,0.4-0.7-0.1-0.9-0.1C66.7,75.9,66.8,76.7,66.8,77.4c0,0.3-0.4,0.5-0.7,0.8
					C66.5,77.9,66.8,77.7,66.8,77.4z M79.1,73.9C79.1,73.9,79.1,73.9,79.1,73.9C79.1,73.9,79.1,73.9,79.1,73.9
					C79.1,73.9,79.1,73.9,79.1,73.9z M75.3,70.1C75.3,70.1,75.3,70.1,75.3,70.1C75.3,70.1,75.3,70.1,75.3,70.1z M69.8,70.6
					C69.8,70.6,69.8,70.6,69.8,70.6L69.8,70.6z"/>
			</g>
		</g>
	</g>
</g>
<g>
	<g>
		
			<image style="overflow:visible;" width="231" height="442" xlink:href="12CA3CAD.png"  transform="matrix(1 0 0 1 920.6765 -103.5614)">
		</image>
	</g>
	
		<linearGradient id="SVGID_00000181783242526185675530000012832260126916070038_" gradientUnits="userSpaceOnUse" x1="993.0104" y1="-67.8966" x2="1041.274" y2="-67.8966">
		<stop  offset="0" style="stop-color:#9C5452"/>
		<stop  offset="8.167778e-02" style="stop-color:#D69E93"/>
		<stop  offset="0.145" style="stop-color:#FFD3C1"/>
		<stop  offset="0.1472" style="stop-color:#FDD0BE"/>
		<stop  offset="0.183" style="stop-color:#DAA498"/>
		<stop  offset="0.2176" style="stop-color:#BF8179"/>
		<stop  offset="0.2501" style="stop-color:#AC6864"/>
		<stop  offset="0.2798" style="stop-color:#A05957"/>
		<stop  offset="0.3039" style="stop-color:#9C5452"/>
		<stop  offset="0.3816" style="stop-color:#D69E93"/>
		<stop  offset="0.4419" style="stop-color:#FFD3C1"/>
		<stop  offset="0.4433" style="stop-color:#FDD0BE"/>
		<stop  offset="0.4666" style="stop-color:#DAA498"/>
		<stop  offset="0.4891" style="stop-color:#BF8179"/>
		<stop  offset="0.5103" style="stop-color:#AC6864"/>
		<stop  offset="0.5295" style="stop-color:#A05957"/>
		<stop  offset="0.5453" style="stop-color:#9C5452"/>
		<stop  offset="0.6255" style="stop-color:#D69E93"/>
		<stop  offset="0.6877" style="stop-color:#FFD3C1"/>
		<stop  offset="0.6896" style="stop-color:#FDD0BE"/>
		<stop  offset="0.721" style="stop-color:#DAA498"/>
		<stop  offset="0.7513" style="stop-color:#BF8179"/>
		<stop  offset="0.7797" style="stop-color:#AC6864"/>
		<stop  offset="0.8057" style="stop-color:#A05957"/>
		<stop  offset="0.8268" style="stop-color:#9C5452"/>
		<stop  offset="0.8617" style="stop-color:#D69E93"/>
		<stop  offset="0.8888" style="stop-color:#FFD3C1"/>
		<stop  offset="0.8903" style="stop-color:#FDD0BE"/>
		<stop  offset="0.9154" style="stop-color:#DAA498"/>
		<stop  offset="0.9396" style="stop-color:#BF8179"/>
		<stop  offset="0.9624" style="stop-color:#AC6864"/>
		<stop  offset="0.9831" style="stop-color:#A05957"/>
		<stop  offset="1" style="stop-color:#9C5452"/>
	</linearGradient>
	<path style="opacity:0.61;fill:url(#SVGID_00000181783242526185675530000012832260126916070038_);" d="M1030.1,78.6
		c2-4.1,3.5-9.3,1.3-13.3c-4.3-7.4-13.8,4.6-23.3-2c-3.7-2.7-4.1-7-1.9-9.4c3.9-4.7,11.1-1.6,18.7-1.4c9.9,0.3,9.9-6.5,6.9-10
		c-4.3-4.9-13.6,2.9-20.6-3.9c-2.8-2.7-3.5-7.3,0.4-9.8c5-3.2,15.4-3,17.7-9.5c0,0,0.1-0.2,0-0.1c1.9-8.6-19.1-10.5-24.3-9.9
		c-5.6,0.5-9.2-1-10.2-8.7c-0.3-2.7-0.4-5.2,0.8-7.4c3.2-6,14-6.1,20.5-5.1c11,1.3,14.3,6.5,20,5.6c4.8-0.6,2.9-8.8,2-10.6
		c-4.8-10.5-35.7,4.6-43.2-0.1c-3.3-2-1.7-10.1,2.3-12.9c8.6-6.2,27.3,1.8,27.4-7.8c0.4-7-13.7-4-15.8-9.4
		c-3.2-8.8,16.8-5.6,25.9-8.9c5.7-2.1,6.5-7.3,3.4-9.9c-6.3-5.2-14.6,3-27,0.7c-7.7-1.5-7.2-8.1-5.5-11.1c4.4-7.7,23-7.8,22.5-12
		c-0.3-0.6-1.5-1.7-1.9-2.2c-12.3-11.6-10.3-11.9-5.9-18.2c18.9-26.6-2.3-28.9-9-36c-2.6-2.7-3.4-6-3.3-9.7
		c0.7-15.7,30.8,7.2,21.3-35.4c-2-8.9-4.7-17.9,0.9-26.2c-8.1,12.3,1.6,25.1,1.1,40.3c-0.8,24.1-22.2,7.8-22.8,21.3
		c-0.4,9.2,6.4,11.9,12.1,15.4c12.4,7.7,8.9,18.7,0.5,30.7c-4.2,6.1-6.1,5.9,5.9,17.1c9,8.6-15.4,6.7-20.3,15.4
		c-1.3,2.3-2,8.2,4.8,9.4c12.1,2.2,20.6-6.3,27.7-0.6c2,1.7,2.4,3.4,2.3,5.3c-1.4,14-34.2,5.1-31,14c1.4,3.7,13.8,1.8,15.8,7.9
		c0.8,1.8,0.4,5.8-2.6,7.4c-7.4,4.2-26.4-3.3-28.1,9.5c-0.5,3.4-1,5.8,9.1,4.3c11.3-1.9,31.1-8.9,35.7,0.6c1.4,2.9,2.1,8.8,0.1,11.6
		c-2.3,3.4-7.6,2.6-11.3,1c-3.4-1.5-6.8-3.5-13.1-4.1c-4.4-0.6-15.4-1.1-18,3.9c-0.9,1.7-0.8,4-0.5,5.9c0.8,6.2,3.5,6.8,7.4,6.4
		c5.6-0.7,30.8,1,27.2,13.4c-0.8,2.3-2.1,4.2-4.8,5.7c-5.7,3.3-14.7,4.1-15.2,6.8c-0.6,2.2,1.6,5.7,6.8,5.9c1.5,0.1,5.4-0.6,8.1-0.9
		c7.3-0.4,10.9,6.3,9.5,11.4c-2,8.6-12.8,6.7-20.9,5.7c-8.9-1-8,4-5.3,5.8c5.4,3.7,11.3-1.2,17.2-1.3c6.4-0.1,12.3,7.7,6.1,20.8
		L1030.1,78.6z"/>
	
		<linearGradient id="SVGID_00000142147011151962455130000009092258179944071323_" gradientUnits="userSpaceOnUse" x1="967.7526" y1="60.0043" x2="1124.0547" y2="60.0043">
		<stop  offset="0" style="stop-color:#9C5452"/>
		<stop  offset="8.167778e-02" style="stop-color:#D69E93"/>
		<stop  offset="0.145" style="stop-color:#FFD3C1"/>
		<stop  offset="0.1472" style="stop-color:#FDD0BE"/>
		<stop  offset="0.183" style="stop-color:#DAA498"/>
		<stop  offset="0.2176" style="stop-color:#BF8179"/>
		<stop  offset="0.2501" style="stop-color:#AC6864"/>
		<stop  offset="0.2798" style="stop-color:#A05957"/>
		<stop  offset="0.3039" style="stop-color:#9C5452"/>
		<stop  offset="0.3816" style="stop-color:#D69E93"/>
		<stop  offset="0.4419" style="stop-color:#FFD3C1"/>
		<stop  offset="0.4433" style="stop-color:#FDD0BE"/>
		<stop  offset="0.4666" style="stop-color:#DAA498"/>
		<stop  offset="0.4891" style="stop-color:#BF8179"/>
		<stop  offset="0.5103" style="stop-color:#AC6864"/>
		<stop  offset="0.5295" style="stop-color:#A05957"/>
		<stop  offset="0.5453" style="stop-color:#9C5452"/>
		<stop  offset="0.6255" style="stop-color:#D69E93"/>
		<stop  offset="0.6877" style="stop-color:#FFD3C1"/>
		<stop  offset="0.6896" style="stop-color:#FDD0BE"/>
		<stop  offset="0.721" style="stop-color:#DAA498"/>
		<stop  offset="0.7513" style="stop-color:#BF8179"/>
		<stop  offset="0.7797" style="stop-color:#AC6864"/>
		<stop  offset="0.8057" style="stop-color:#A05957"/>
		<stop  offset="0.8268" style="stop-color:#9C5452"/>
		<stop  offset="0.8617" style="stop-color:#D69E93"/>
		<stop  offset="0.8888" style="stop-color:#FFD3C1"/>
		<stop  offset="0.8903" style="stop-color:#FDD0BE"/>
		<stop  offset="0.9154" style="stop-color:#DAA498"/>
		<stop  offset="0.9396" style="stop-color:#BF8179"/>
		<stop  offset="0.9624" style="stop-color:#AC6864"/>
		<stop  offset="0.9831" style="stop-color:#A05957"/>
		<stop  offset="1" style="stop-color:#9C5452"/>
	</linearGradient>
	<path style="opacity:0.61;fill:url(#SVGID_00000142147011151962455130000009092258179944071323_);" d="M1119.6,103.8
		c-4.3-1-5.1-2.4-9.2-2.2c0.3-9.4-0.8-9.3-3.1-12.8c1.5,0.8,4,0.8,5.6,0.7c6.4-0.5,4-3,11.1,0.4c-6.1-3-5.3-1.5-8.8-0.9
		c-2.1,0.5-7.5,0.7-8.6-1.3c-1.9-9.4-8.2-13-11.5-20.3c-1.6-3.2-1.1-7.4-3.6-7.9c-7.5-1.8-3.2,0.2-17.3,6.8c0,0,0,0,0,0l0,0
		c-4.8,2.2-10.6,4.1-16.4,4.1c-4.9,0.6-5.4,7.9-10.6,8.3c-2-1.3-4.9-3.4-8.5-4.5c2-1.1,3.9-2.5,6-4.6c3.9-4,8.9-12.3,9.3-12.9
		c2.7-3.5,17.5,3.7,16.6-13.1c-0.2-4.8-1-10.5,2.1-12.8c2.6-2,6.2-0.9,10.5-1.5c4.4-0.6,7-4.8,20,4.3c0.2,0.3,0.7,0.9,1.4,1.7
		c2.6,3.4-3.8,4.2-4,11.3c0.4-7.7,7.6-7.2,3.7-12.2c1.6,1.2,2.9,2.2,3.7,2.5c1,0.6,3.1,0.1,4.1-1.6c0.7-1.2,0.5-1.9,0.5-3.2
		c-0.4-2.8,2.3-4.7,5.2-4.1c-2.9-0.6-5.4,1.1-5.3,4.2c0,1.2,0.2,1.9-0.5,3c-0.6,0.9-1.7,1.7-2.9,1.7c-1,0-1.6-0.7-5.5-3.6
		c0,0,0,0,0,0l0,0c-13.1-9.5-15.5-5.3-20.3-4.7c-4.1,0.5-9.2-0.9-12,2.5c0.4-4.1,0.2-7,0.3-11.5c0.4-7.2,0.7-5.2,2.6-10
		c0.6-1.8,0.9-2.7,0.7-4.7c0.2,4-1.7,5.7-3,9.1c-1.5,4.8-0.5,12.4-2.3,20.7l0,0c-0.8,3.6,0,8.8-0.3,11.9c-1,12.2-13.1,4.5-16.8,9.4
		c-5,7.4-8.2,13.7-16.7,17.4c-0.1-8,9.4-10.2,10.5-17.3c1.6-8.7-8-19.2-9.3-27.5l0.1,0c-2.3-12.3,13.5-7.3,14.1-15.8
		c0.2-5.5-3.9-9.1-1.7-14.4c1.8-4.3,6.3-9.6,6-15.4c0.2,7.8-7.7,13.8-7.1,19.2c0.2,2.7,1.6,5.5,2,8.4c1.7,9.9-12,4.6-14.3,13.9
		c-1.6-4.5-5.4-8-9.5-10.4c-2-2.6-3.2-4.3-3.9-5.5l0,0c0.8-3.2,4.2-0.9,5.6-3.6c-1.5,2.7-4.7,0.4-5.7,3.4c-1.8-3.7,1.6-2.9,1.9-8.4
		c-0.5,7.1-6.3,3.4,1.3,13.7c-5.1-2.9-12.4-5.8-14.4-3.4c4.1-2.6,11.7,2.1,15.7,4.7c6.3,4.8,7.9,8,8.8,12.8c0.5,9.3,8.5,16,8.8,26.2
		c0.1,6.6-6.6,8.7-9.6,14c-1.6-9.3-4.6-18-13.5-20.8c-2.2-4.3,1.2-4.1,1.9-6.5c-0.9,2.4-4.4,2-2.3,6.9c9.7,3.6,11.4,13.6,12.3,24.5
		c-4.3-5.4-7.2-13.2-17.4-9.2c-7.4,2.9-7.9,6.8-17.5,5.9c-3.5-0.4-5.3-1.6-6.1-5.2c-1.6-7.8,0.9-15.1,8.3-20.5l0,0
		c1.3-0.7,2.4-2.2,2.2-4.1c-1-4.8-7.5-3.5-10-5.1c-7.9-5.3-10.3-6.3-18.2-6c6.7-0.1,9.1,0.2,18,6.4l0,0c1.7,1.5,8.8,0.9,9.6,4.4
		c0.4,1.3-0.3,3.1-1.8,3.9c-2.7,1.4-11.5,8.9-9.2,21.4c0.8,4.3,3.1,5.9,7.1,6.4c5.1,0.6,7.2,0.1,9.8-1.2c4-1.9,8-5.3,12.9-5.2
		c5.4-0.1,7.6,6.4,11.5,10.8c-15.2,4.4-5.4,19-28.3,10.6c-3.1-1.2-8.7-2.8-11.5-1c-0.8,0.5-1.4,1.3-2,2.2
		c-8.8,0.5-11.3-1.5-18.3,1.1c7-2.3,9-0.2,17.8-0.3c-2.6,4.7-4.2,12.3-14.7,13.8c0.7,1.5-0.4,4.2-3.3,4.2c-1.7,0.9-0.5,5.1-4.6,1.1
		c4,4.1,3.1-0.2,4.6-0.9c3,0,4.2-2.7,3.8-4.1c11.1-1.3,12.6-10.4,15.7-14.7c4-5.6,13.5,2,21,2.7c-3.1,2.9-2.5,5.4-2.2,7.1
		c-4,1.4-9.2,6.5-12.1,9.4c3.2-2.9,8.6-7.8,12.9-8.9c-0.2-1.5-0.2-1.7-0.3-3c0,0,0.6-3,3.4-4.5c11.3,0.1,7.3-9.4,18.4-12.4
		c-7.3,22.2,8.3,21.5,3.4,31c-3.2,6.4-14.6,5.4-17.6,10.2c-0.3,0.9,0,1.8,0.7,2.6c1.2,1.3,2.7,1.3-1,5.1c-3.2,2.7-11,0.4-11.3,5.2
		c-0.3,2.5,2.8,4.2,3.8,6.9c-0.6-1.7-1.9-3-2.8-4.5c-1.3-1.9-0.7-3.8,0.5-4.6c3.4-2.1,9.2,0.6,12.6-5.4c1.5-2.7-2.2-2.8-1.6-5
		c3.5-5,18.2-2,19.2-14.4c0.5-6.4-9.6-6.9-4-25.1c4.4,7,20.7,17,22.7,19.6c0,5.9-5.2,6.4-3.5,11.1c0.3,4.3,0.4,7.6-3.4,14.5
		c-0.2,0.3-0.6,1.1-0.6,1.4c0,3.6-1.2,1.2-3.4,4.3c2.2-2.9,3.3-0.9,3.6-3.8c0.2-2.3,4.8-6.2,4.7-14.9c3.2,4.5,12.6,6.9,12.2,12.4
		c-0.3,4.3-6.1,8.7-6.4,13.9c0.5-5.1,6.5-9.4,6.9-13.9c5.2,11.8,4.5,10.7,10.7,13c-6.3-2.5-5.4-1.3-10.7-14
		c-0.5-4.9-7.9-7.4-11.4-11.4c-4.3-5.1,2.5-5.4,2.8-12.7c0,0,0-0.3-0.1-0.4c-1-2.2-21.3-15.9-22.8-21.6c4.7,0.5,8.7,3.6,10.4,4.6
		c0.4,0.3,0.7,0.2,1.2,0.2c5.9-0.4,7-8.1,10.5-8.6c6.1-0.1,12-2.2,17-4.7c2.5,0.2,4.5,1.1,5.7,2.4c1.9,1.9,1.4,3.5,1.4,6.9
		c0.1,5.1,2,2.8,2.2,6c0.2,3.5-2.3,2.8-4,4.3c-3,2.6,1.1,8.3,0.5,11.8c-0.2,1.3-0.7,2.3-1.3,3.5c-0.1,0.3-0.2,0.2-0.1,0.6
		c0.3,0.8,1.5,1.7,2.1,2.3c-2.5-2.4-2.4-2.2-1.7-3.5c2.8-5.4-0.7-8-0.3-12.1c1.1,3.9,3.4,5.7,7.2,7.9c-5.7-3.5-6.4-5.7-7-8.8
		c0.9-3.3,5.3-1.1,5.1-6.1c0-0.8-0.1-1.7-0.7-2.3c-0.3-0.3-0.6-0.5-0.7-0.8c-1.9-2.6,3-10.8-6.8-13.1c4.6-2.4,8.2-5.1,10.2-6.5
		c1.1-0.4,2.9,0.3,4.4,0.3c1.3,0.2,1.5,3,2.2,5.3c2.6,8.1,10.4,12,12.7,22.1c0,0,0,0,0,0l0,0c3,5.1,4,3.2,3.9,14.6
		c-0.2,12.9,2.1,12,4.2,13.7c-1.1-1-2.3-1.1-3.1-3.1c-1.2-2.8-1-7.2-0.9-11.3C1114.4,101.5,1115.2,102.9,1119.6,103.8z M1057.4,97.9
		C1057.4,97.9,1057.4,97.8,1057.4,97.9L1057.4,97.9z"/>
	
		<linearGradient id="SVGID_00000067928710211491306070000001003111638367038605_" gradientUnits="userSpaceOnUse" x1="996.1642" y1="136.6796" x2="1118.4241" y2="136.6796">
		<stop  offset="0" style="stop-color:#9C5452"/>
		<stop  offset="8.167778e-02" style="stop-color:#D69E93"/>
		<stop  offset="0.145" style="stop-color:#FFD3C1"/>
		<stop  offset="0.1472" style="stop-color:#FDD0BE"/>
		<stop  offset="0.183" style="stop-color:#DAA498"/>
		<stop  offset="0.2176" style="stop-color:#BF8179"/>
		<stop  offset="0.2501" style="stop-color:#AC6864"/>
		<stop  offset="0.2798" style="stop-color:#A05957"/>
		<stop  offset="0.3039" style="stop-color:#9C5452"/>
		<stop  offset="0.3816" style="stop-color:#D69E93"/>
		<stop  offset="0.4419" style="stop-color:#FFD3C1"/>
		<stop  offset="0.4433" style="stop-color:#FDD0BE"/>
		<stop  offset="0.4666" style="stop-color:#DAA498"/>
		<stop  offset="0.4891" style="stop-color:#BF8179"/>
		<stop  offset="0.5103" style="stop-color:#AC6864"/>
		<stop  offset="0.5295" style="stop-color:#A05957"/>
		<stop  offset="0.5453" style="stop-color:#9C5452"/>
		<stop  offset="0.6255" style="stop-color:#D69E93"/>
		<stop  offset="0.6877" style="stop-color:#FFD3C1"/>
		<stop  offset="0.6896" style="stop-color:#FDD0BE"/>
		<stop  offset="0.721" style="stop-color:#DAA498"/>
		<stop  offset="0.7513" style="stop-color:#BF8179"/>
		<stop  offset="0.7797" style="stop-color:#AC6864"/>
		<stop  offset="0.8057" style="stop-color:#A05957"/>
		<stop  offset="0.8268" style="stop-color:#9C5452"/>
		<stop  offset="0.8617" style="stop-color:#D69E93"/>
		<stop  offset="0.8888" style="stop-color:#FFD3C1"/>
		<stop  offset="0.8903" style="stop-color:#FDD0BE"/>
		<stop  offset="0.9154" style="stop-color:#DAA498"/>
		<stop  offset="0.9396" style="stop-color:#BF8179"/>
		<stop  offset="0.9624" style="stop-color:#AC6864"/>
		<stop  offset="0.9831" style="stop-color:#A05957"/>
		<stop  offset="1" style="stop-color:#9C5452"/>
	</linearGradient>
	<path style="opacity:0.61;fill:url(#SVGID_00000067928710211491306070000001003111638367038605_);" d="M1000.3,153.2L1000.3,153.2
		c0.1-4.1,0-8.2,3.2-9.8c0.1,0,0.4,0.1,0.7,0.2c1.1,0.5,2.2,1.2,3.4,1.1c3.4-0.4,3.1-7.1,5.8-9.5c2,5.3,11.4,2.3,6.5,11.8
		c-2.6,4.9-6,8.6-4.7,11.4c1.6,3,7,5.9,5.8,11.2c-1.3,6-10.7,9.5-9.3,14.7c-0.3,0.7-0.1,0.3-0.4,0.8c-1.8,1.7-3.6,0.2-9.7,2.2
		c2.7-0.8,4.6-1,6.1-1.1c1.2,2.5-2.5,6-3.3,6.5c0.7-0.5,1.9-1.7,2.7-2.9c1.4-2.1,1.1-2.9,0.7-3.6c2.1-0.1,3.2-0.1,4-1.6
		c1.8,5.9,1.4,10.2,0.3,18.1c1-6.5,1.7-11,0.3-17.1c-0.4-1.4-0.8-2.3-0.2-3.8c1.3-3.1,5.4-5.5,7.9-9c4.2-6-0.8-10.5-2.7-12.6
		c-2.1-2.4-2.4-3.1-0.7-6.2c1.9-3.4,6-8.6,5.7-12c2,2,3.7,4.6,6.8,4c2.6-0.6,9.6-3.5,10.7,0.5c0,0.2,0,0.3-0.1,0.5l0,0
		c-1.8,3.4-1.6,6.3-1,9.2c-1,2.2-0.7,1.5-1.8,3.7c-0.2,0.4-0.4,0.9-0.8,1c0,0-1.4-0.4-2.1-0.5c-1.9-0.3-2.4,0-5.1,1.2
		c3.6-1.4,3.2-1.5,6.8-0.6c1,3.3,1.1,4,0.8,7.2c0.3-3.1,0.3-3.9-0.6-7.1c0.1,0,0.1,0,0.2,0c0.8-0.1,1-0.9,2.7-4.3
		c0.7,3,1.8,6.1,1.2,9.6c-2.4,5-7,6.7-6.1,12.7c-0.7-4.7,2.1-6.8,4.4-9.8c4.1,0.4,4.5,3.2,6.7,6.6c-2.1-3.4-2.5-6.2-6.5-6.8
		c0.6-0.8,1.2-1.7,1.7-2.7c0.7-3.8-0.5-7-1.2-10.2c0,0,0,0,0,0l0,0c-0.6-2.9-0.8-5.7,1-9c0.6-1-0.3-3.5-4.2-3.4
		c0.3-1.2,1.9-1.3,1.4-4.4c-0.3-1.6-0.5-2.5-0.3-3.2c-0.6,2.2,1,4.5-0.6,6.4c-0.3,0.4-0.8,0.8-0.9,1.3c-1.8,0.1-3.7,0.7-5.2,1.1
		c-1.5,0.4-1.8,0.4-1.8,0.4c-3.2-0.1-4.1-2.9-6.9-5.1c-1.9-2.7-7.9-3.5-7.3-6.7c0.2-1.3,1.1-2.3,1-3.8c0,0,0-0.1,0-0.1
		c-0.9-4.2-4.9-12.4,1.7-14.8c1-0.4,8.1,6.4,13.8,10.4c-0.2,0.7-0.7,1.1-1.2,1.3c-1.8,0.6-2,0-3.1-0.5c-1.7-0.9-3.3,1.4-5.7,2.1
		c1.1-0.2,1.6-0.6,2.6-1.1c2.7-1.4,2.2-0.9,3.9,0c1.1,0.6,3.3,0.5,4.2-1.3c6,4,12.2,6.3,18.1,2c0.1,0.9,0.1,1.8,0.3,2.4
		c3.8,13.6,13.3,6.8,16.8,8.9c1.3,0.7,2.3,4.1,1.1,6.5c-2,4.1-9,6-7.8,11.5c0.3,1,0.6,1.8,1.1,2.4l0,0c0.7,2.5-0.2,4.6-0.8,4.9
		c-2.6-0.9-10.3,0.8-11.3,5.1c-0.9,4.1,3.8,8,3,10.5c-0.3,3.4-13,1.9-12,10.7c-0.9-8.3,10.2-7.2,11.9-10c1.7-3-3.6-7-2.6-11.2
		c1-4,8.6-5.6,11-4.6c1.1-0.4,1.8-2.5,1.5-4.8c1.7,1.2,4.2,0.6,6.6,0.4c7.7-0.6,5.7,4.8,7.1,10.9c-5,4.4,0.5,7.4-5,11.5
		c5.4-3.9,0.3-7.1,5-11.2c0.6,2.4,1.5,4.6,3.3,7.4c1,1.7,1.5,1.5,1.1,3.4c0.2-0.8,0.3-1.5-0.1-2.1c-5.4-7.5-4.3-12.5-4.9-16.1
		c1.5,0.8,0.5,2.2,3.7,2.2c2.9-0.1,3.4-2,4.1,0.1c0.4,0.4,1.2,0,1.8-0.3c-0.5,0.2-1.3,0.7-1.7,0.2c-0.4-1.3-0.9-1.2-1.9-0.7
		c-1.1,0.6-3.8,0.5-4.4-0.2c-0.4-0.9-1-1.5-1.7-1.8c-0.3-1.4-1.1-2.4-2.2-3c0.5-1,1.3-2,2.4-2.6c3.3-1.3,1.3,2.4,5.5,1.1
		c5.4-2.1-0.9-3.4,5.8-12.8c-1.6,2.2-3.1,4.3-3.4,7c-0.5,2.9,0.7,4-1.6,5.2c-2.7-1,0.3-4.7-1.3-7.9c-0.5-1-0.1-2.2-0.9-3.1
		c0.1,0.1,0.2,0.2,0.2,0.3c0.3,0.5,0.3,1.2,0.3,1.7c0.1,1.4,1.3,1.2,0.4,5.6c-0.2,1-0.5,2.7,0.9,3.4c-4.6,2.1-2.4-2.3-6.2-0.9
		c-1.2,0.6-1.9,1.5-2.6,2.7c-3.8-1.7-9.1,1.4-11-1.8c-4.6-7.8,11.1-8.4,7.6-18.4c-0.6-1.8-1.7-2.6-3-2.8c1.2-1.9,0.7-2.9,2-3.7
		c0.5-0.2,1.2-0.5,1.8-0.4c0,0,0,0,0.1,0c0.1,0,0.2,0,0.2-0.2c-0.1-0.3,0.4-1.3,0.5-1.7c0.5-0.4,0.3-0.3,1.6-0.6
		c-1.3,0.2-1.2,0.1-1.7,0.5c-0.2,0.3-0.6,1.1-0.7,1.6c-0.2,0-0.7,0-1.4,0.2c-2.2,0.5-1.6,2.2-3.3,4.2c-4.2-0.2-10.3,2.5-13.2-6.5
		c-0.9-2.8-0.2-5.4-1.3-7.3c-2.4-5.5,1.3-8.2,0-12.5c-0.7-1.9-2.2-4.2-3.6-6.5c4.5,1,4.6-2.8,7.4-3.2c1.5-0.1,3.5,0.1,5.5,0.6
		c-0.7,1.3-1,2.6-1,3.9c-0.6,0.5-1.2,1.5-1.9,1.7c-1.5,0.4-2,0.1-2.6,1.3c-0.1,0.3-0.3,0.7-0.5,0.9c0.4-0.3,0.6-0.9,0.9-1.3
		c0.5-0.5,1.9-0.3,2.6-0.5c0.5-0.2,1.1-0.8,1.5-1.1c0.3,3.8,2.5,7,0.5,8.1c-0.7,0.4-1.9,0.7-2.3,1.1c0.1-0.1,0.2-0.2,0.6-0.3
		c2.5-1.1,3.5-0.1,2.4-6.2c-0.5-2.8-0.7-5.1,1-7.4c1.9,0.5,3.8,1.2,5.2,2c3.4,1.9,3.5,3.4,2.5,5.6c-3.1,6.9-9.4,9.6,5.4,16.6
		c7.7,3.5,16.6,7,19.4,11.8c0.5,0.8,0.7,1.6,0.7,1.5c0.1,0.9-0.2,2.1,0.2,4.5c0.6,4.6,6.8,12.6-0.4,17.7c4.8-3.2,4-7.5,2.3-12.9
		c2.8,3.9,7.7,5.8,9,7.6c0.1,0.2,0.3,0.7,0.4,1.4c-1.8,2.6,1.6,6.1-1.5,8.8c3.2-2.5,0-6,1.6-8.5c1.1,4.7,1.4,3.9,3,5.8
		c0.7,0.8,1.2,2,1.4,3.2c-0.5-4.6-3-2.7-4.1-8.8c-0.4-1.8-0.3-2.1-2.1-3.6c-2.1-1.6-5.7-3.6-7.7-7c-2-3.5-1.3-7-1.4-8.2
		c3.2-0.7,5.4,0.5,7.7-1.7c1.6-1.6,3.1-4.7,4.6-4.3c1.3,0.4,0.8,0.8,4,1.1c1.6,0.2,4.3-0.8,7.1-1.4c-5.1,1-6.6,2-10.4,0.3
		c-0.4-0.2-0.7-0.4-1.1-0.3c0.8-1.6,0.2-2.7-0.6-4.7c-1-2.7-0.8-2.7,0.8-4.7c-1.3,1.5-1.8,1.8-1.3,3.8c0.4,2,2,3.7,0.5,5.8l0,0
		c-1.8,0.8-3,3.8-4.8,4.7c-0.3,0.2-0.7,0.3-0.7,0.3c-2.4,0.5-3.4-0.1-6,0.4c-1.9-5.1-9.6-8.8-17.3-12.4c0.7-4.1-2.8-6.7-1.5-8.3
		c0.7-0.8,1.4-0.7,1.5-2.1c-0.3,1.8-2,1.4-2.1,2.9c-0.2,1.6,1.9,4,1.3,7.1c-12.5-6-11.1-7.5-8.4-11.7c1.6-2.5,4-5.8,2.5-8.6
		c-2.4-4.3-11.8-6.8-16.2-6.8c-3.1,0-4.7,2.7-5.7,3.2c-4.7,0.7-7-7.2-6.7-6.3c-1-3.7-1.9-9.1-2.4-12.4c5.9,1.3,8.6-3.5,13.6,0.4
		c3.5,1.4,5.5,1.4,8.1,0.8c0.6,1.7,1.4,2.8,2.4,3.9c-0.1,4.9,0.8,1.3,0.1,7.9c1-6.3,0-3.3,0.3-7.5c1.7,1.7,3.7,3.2,4.9,6.1
		c-1.7-4.9-5.7-6-7-10.5c3.5-1,5.1,1.2,8.8,1.3c-3.4-0.4-5.5-2.8-8.7-2.1c-2.9,0.6-5,0.5-8.2-1.1c-1.9-1.7-3.6-2.2-5.2-2.2
		c1.7-2.6,1.4-4.9,4.4-6.7l0,0c0.9-0.3,0.7-2.3,1.1-3.2c-0.3,0.5-0.4,1.1-0.5,1.6c-0.1,0.6-0.2,1.1-0.7,1.4c-3.5,1.8-3.2,4.5-5.4,7
		c-2.6,0.3-5.2,1.5-8.4,0.1c-1-3.2-4.9-3.9-6.6-6.8c-0.4-0.7-0.6-1.5-0.6-1.3c-0.3-1.1-0.1-0.2-0.2-1l-3.4,0.7
		c1.6,6.7,6.9,7.4,7.8,9.5c0.3,1.8,0.7,4.3,1.2,6.8c-2.5,3.9-4.1,7.2-5.5,12.6c-0.3,1.2-1.5,1.6-2.4,1c0,0,0,0,0,0
		c-0.8-0.7-1.4-1.6-2.3-2.1c-1.4-0.9-3.6-0.5-4.5,0.8c-0.5,0.7-0.7,1.4-1,2c-0.2,0.4-0.3,0.4-0.6,0.4c-2,0.5-2.6-0.3-3.1-1.1
		c-0.4-2.3-1.2-3.1-2.4-4.5c0-3.1,0.6-2.9,3.2-5.6c-2.6,2.6-3.3,2.5-3.4,5.4c-2.2-2.4-1.6-2-1.6-2.9c-0.2-0.9-0.7-1.3-0.8-2.6
		c0.1,1.2,0.6,1.7,0.7,2.6c0.1,0.7-0.6,0.4,1.3,2.7c1.4,1.7,2.1,2.4,2.5,4.1c-0.4-0.5-1-0.8-2-0.9c-1.9-0.1-7.5,1.1-8.6,5.3
		c1.3-4.4,8.5-5.9,10.2-4.2c0.9,0.9,1.1,3,4.3,2.3c1.3-0.2,1.2-1.5,2.1-2.6c0.6-0.9,2.3-1.1,3.3-0.5c0.6,0.4,1.5,1.5,2,2.1
		c1,1,2.8,0.8,3.8-0.3c0.5-0.5,0.6-1.3,0.9-2c1.5-4.4,2.6-6.7,4.5-9.6c0.4,2,0.9,3.9,1.3,5.3c1.5,5.1,7.1,11.5,8.8,15.8
		c0.9,3-2.4,6.9,0.3,12.5c0.3,0.5,0.4,0.9,0.4,1c0.1,1-4.8,2.6-4,2.3c-0.2,0.1-0.4,0.1-0.6,0.1c-0.8-3.1-3.1-4-4.8-6.7
		c-2.2-4.3,1.1-5.3-3.8-6.5c3.3,1.2,2.5,1.6,2.5,3.7c-0.3,4.2,3.1,5.6,4.5,9.2c0,0.1,0.1,0.4,0.1,0.4c-9.9,0-23-16.3-26.1-14.6
		c-8.5,3.2-2.7,14-2.4,16.6c0.1,1.3-1,2.7-0.9,4.3c-3.1,3-2.7,7.4-4.4,9.2c-1.8,2-4-0.6-5.3-0.5c-3.5,1.6-3.2,5.9-3.3,10.2
		c0.1,1.5-2.1,2.7-4,4.4C998.3,155.7,1000.2,154.9,1000.3,153.2z M1069.7,133.2C1069.7,133.2,1069.7,133.3,1069.7,133.2
		C1069.7,133.3,1069.7,133.3,1069.7,133.2C1069.7,133.2,1069.7,133.2,1069.7,133.2z M1048.2,111.8
		C1048.2,111.8,1048.2,111.8,1048.2,111.8C1048.2,111.8,1048.2,111.8,1048.2,111.8z M1017.1,114.8
		C1017.1,114.8,1017.1,114.8,1017.1,114.8L1017.1,114.8z"/>
	<g>
		
			<image style="overflow:visible;" width="242" height="330" xlink:href="12CA3CAE.png"  transform="matrix(1 0 0 1 933.6765 -171.5614)">
		</image>
	</g>
</g>
</svg>
